<?xml version="1.0" standalone="no"?>
<!DOCTYPE svg PUBLIC "-//W3C//DTD SVG 1.1//EN" "http://www.w3.org/Graphics/SVG/1.1/DTD/svg11.dtd" >
<svg xmlns="http://www.w3.org/2000/svg" xmlns:xlink="http://www.w3.org/1999/xlink" version="1.1">
<metadata>Created by FontForge</metadata>
<defs>
<font id="qcrb" horiz-adv-x="600" >
  <font-face 
    font-family="qcr"
    font-weight="700"
    font-stretch="normal"
    units-per-em="1000"
    panose-1="0 0 8 9 0 0 0 0 0 0"
    ascent="795"
    descent="-205"
    x-height="437"
    cap-height="583"
    bbox="-531 -278 1140 1071"
    underline-thickness="50"
    underline-position="-125"
    unicode-range="U+0020-FB02"
  />
<missing-glyph horiz-adv-x="280" 
 />
    <glyph glyph-name="I_J" unicode="IJ" 
d="M257 533q0 -50 -66 -50h-17v-383h17q21 0 35.5 -15t14.5 -35t-14.5 -35t-35.5 -15h-135q-66 0 -66 50t66 50h18v383h-18q-66 0 -66 50t66 50h135q66 0 66 -50zM617 533q0 -50 -66 -50q-7 -110 -7 -331q0 -67 -37.5 -116.5t-95.5 -49.5q-91 0 -153 65v162q0 67 50 67
t50 -67v-96q10 -31 43 -31q22 0 32.5 22.5t10.5 54.5v320h-36q-66 0 -66 50t66 50h143q66 0 66 -50z" />
    <glyph glyph-name="i_j" unicode="ij" 
d="M256 579q0 -24 -17.5 -41.5t-42.5 -17.5t-42.5 17.5t-17.5 42.5t17.5 42.5t42.5 17.5t42.5 -17.5t17.5 -43.5zM541 579q0 -24 -17.5 -41.5t-42.5 -17.5t-42.5 17.5t-17.5 42.5t17.5 42.5t42.5 17.5t42.5 -17.5t17.5 -43.5zM545 -20q0 -79 -54.5 -132t-136.5 -53h-14
q-66 0 -66 50t66 50h11q43 0 68.5 23t25.5 62v357h-199v-237h38q66 0 66 -50t-66 -50h-177q-66 0 -66 50t66 50h39v237h-28q-67 0 -67 50t67 50h427v-457z" />
    <glyph glyph-name="f_f" unicode="ff" 
d="M674 559q0 -21 -14.5 -36t-34.5 -15q-4 0 -32 8t-37 8q-16 0 -27.5 -14.5t-11.5 -33.5v-39h33q66 0 66 -50t-66 -50h-33v-237h33q66 0 66 -50t-66 -50h-175q-67 0 -67 50t67 50h42v237h-222v-237h33q66 0 66 -50t-66 -50h-175q-67 0 -67 50t67 50h42v237h-38
q-67 0 -67 50t67 50h38v39q0 62 39.5 104.5t96.5 42.5q51 0 86 -17t35 -47q0 -21 -14.5 -36t-34.5 -15q-4 0 -32 8t-37 8q-16 0 -27.5 -14.5t-11.5 -33.5v-39h222v39q0 62 39.5 104.5t96.5 42.5q51 0 86 -17t35 -47z" />
    <glyph glyph-name="f_i" unicode="fi" 
d="M619 50q0 -50 -66 -50h-174q-67 0 -67 50t67 50h38v237h-222v-237h33q66 0 66 -50t-66 -50h-175q-67 0 -67 50t67 50h42v237h-38q-67 0 -67 50t67 50h38v39q0 62 39.5 104.5t96.5 42.5q51 0 86 -17t35 -47q0 -21 -14.5 -36t-34.5 -15q-4 0 -32 8t-37 8q-16 0 -27.5 -14.5
t-11.5 -33.5v-39h322v-337h36q66 0 66 -50zM527 579q0 -24 -17.5 -41.5t-42.5 -17.5t-42.5 17.5t-17.5 42.5t17.5 42.5t42.5 17.5t42.5 -17.5t17.5 -43.5z" />
    <glyph glyph-name="f_l" unicode="fl" 
d="M617 50q0 -50 -67 -50h-175q-67 0 -67 50t67 50h38v423h-181q-40 0 -40 -48v-38h33q66 0 66 -50t-66 -50h-33v-237h33q66 0 66 -50t-66 -50h-176q-66 0 -66 50t66 50h43v237h-37q-67 0 -67 50t67 50h37v38q0 61 39 104.5t94 43.5h288v-523h37q67 0 67 -50z" />
    <glyph glyph-name=".notdef" horiz-adv-x="280" 
 />
    <glyph glyph-name=".null" horiz-adv-x="0" 
 />
    <glyph glyph-name="nonmarkingreturn" horiz-adv-x="333" 
 />
    <glyph glyph-name="space" unicode=" " 
 />
    <glyph glyph-name="exclam" unicode="!" 
d="M381 558q0 -7 -2 -33l-29 -297q-5 -49 -49 -49q-21 0 -34.5 13t-15.5 36l-29 297q-2 24 -2 33q0 35 23 57.5t58 22.5t57.5 -23t22.5 -57zM375 51q0 -28 -19 -47t-47 -19h-17q-28 0 -47.5 19.5t-19.5 46.5t19.5 46.5t47.5 19.5h17q28 0 47 -19t19 -47z" />
    <glyph glyph-name="quotedbl" unicode="&#x22;" 
d="M469 615l-10 -221q-1 -27 -14.5 -46.5t-35.5 -19.5t-35 19.5t-15 46.5l-10 221h120zM251 615l-10 -221q-2 -27 -15 -46.5t-35 -19.5t-35.5 19.5t-14.5 46.5l-10 221h120z" />
    <glyph glyph-name="numbersign" unicode="#" 
d="M538 394q0 -50 -66 -50h-32l-8 -106h19q67 0 67 -50q0 -49 -66 -49h-27l-11 -168q-4 -63 -52 -63q-21 0 -35 15.5t-14 35.5l13 180h-72l-12 -168q0 -63 -50 -63q-22 0 -36 14.5t-14 37.5q0 11 1 18l11 161h-26q-66 0 -66 50q0 49 66 49h33l7 106h-19q-67 0 -67 50t67 50
h26l12 168q3 63 51 63q21 0 35.5 -15.5t14.5 -36.5l-12 -179h71l12 168q2 63 51 63q20 0 35 -15t15 -33l-13 -183h25q66 0 66 -50zM340 344h-71l-8 -106h72z" />
    <glyph glyph-name="dollar" unicode="$" 
d="M517 199q0 -65 -44 -111t-122 -61v-83q0 -67 -49 -67q-50 0 -50 67v83q-43 9 -79 25q-21 -18 -39 -18q-51 0 -51 67v61q0 67 50 67q19 0 30.5 -9t20.5 -40q6 -23 40 -39.5t76 -16.5q49 0 81 22t32 54q0 26 -19 41.5t-61 23.5l-74 15q-152 31 -152 155q0 59 40.5 102.5
t104.5 54.5v26q0 66 50 66q49 0 49 -66v-26q42 -9 44 -10l23 -8q15 7 28 7q50 0 50 -66v-32q0 -66 -50 -66q-21 0 -33 12t-17.5 27t-27 27t-58.5 12q-45 0 -72 -17t-27 -45q0 -40 75 -56l65 -14q90 -20 128 -59.5t38 -104.5z" />
    <glyph glyph-name="percent" unicode="%" 
d="M368 476q0 -56 -41 -97t-98 -41q-58 0 -99 41t-41 99q0 57 41 98.5t98 41.5q59 0 99.5 -41.5t40.5 -100.5zM521 362q0 -23 -30 -31l-362 -118q-14 -4 -20 -4q-11 0 -20 9.5t-9 22.5q0 21 30 31l362 118q12 4 20 4q11 0 20 -9.5t9 -22.5zM508 123q0 -56 -41 -97t-99 -41
q-57 0 -98 41t-41 99q0 57 41 98t98 41q59 0 99.5 -41t40.5 -100zM303 477q0 31 -21.5 53t-53.5 22q-30 0 -52 -22t-22 -52q0 -31 22 -53t52 -22q31 0 53 22t22 52zM443 124q0 32 -21.5 53.5t-53.5 21.5q-30 0 -52 -22t-22 -52q0 -31 22 -53t53 -22q30 0 52 22t22 52z" />
    <glyph glyph-name="ampersand" unicode="&#x26;" 
d="M508 50q0 -50 -66 -50h-61l-11 15q-41 -29 -113 -29q-83 0 -132.5 43t-49.5 115q0 103 96 159q-34 58 -34 96q0 61 45.5 106t106.5 45q33 0 70 -17q21 7 28 7q19 0 33.5 -15.5t14.5 -34.5q0 -17 -8.5 -28t-32.5 -24l-41 -22q-38 34 -63 34q-22 0 -37.5 -14.5t-15.5 -35.5
q0 -17 28 -57l100 -145l23 82h53q66 0 66 -51q0 -19 -12.5 -33t-30.5 -16q-14 -52 -30 -80h8q66 0 66 -50zM312 100l-84 120q-53 -24 -53 -76q0 -58 82 -58q31 0 55 14z" />
    <glyph glyph-name="quotesingle" unicode="'" 
d="M360 615l-10 -221q-2 -27 -15 -46.5t-35 -19.5t-35 19.5t-15 46.5l-10 221h120z" />
    <glyph glyph-name="parenleft" unicode="(" 
d="M488 -104q0 -20 -14.5 -34.5t-36.5 -14.5q-18 0 -31 11.5t-35 46.5q-107 170 -107 338q0 169 116 344q18 28 29 36.5t28 8.5q22 0 36.5 -14.5t14.5 -34.5q0 -15 -12 -34q-101 -162 -101 -309q0 -146 101 -310q12 -19 12 -34z" />
    <glyph glyph-name="parenright" unicode=")" 
d="M341 236q0 -80 -30.5 -171.5t-85.5 -173.5q-17 -26 -28.5 -35t-28.5 -9q-22 0 -36.5 14.5t-14.5 34.5q0 15 12 34q101 162 101 309q0 146 -101 310q-12 19 -12 34q0 20 14.5 34.5t36.5 14.5q18 0 31 -11.5t35 -46.5q107 -170 107 -338z" />
    <glyph glyph-name="asterisk" unicode="*" 
d="M517 452q0 -20 -11.5 -31.5t-38.5 -20.5l-86 -28l52 -71q19 -27 19 -43q0 -20 -15 -35t-35 -15q-16 0 -25.5 6.5t-24.5 27.5l-52 72l-52 -72q-15 -21 -25 -27.5t-25 -6.5q-20 0 -35 15t-15 35q0 18 19 43l52 71l-86 28q-28 9 -39 20t-11 32q0 20 14 35t33 15q19 -2 34 -7
l86 -28v89q0 66 50 66t50 -66v-89l86 28q15 5 33 7q19 0 33.5 -15t14.5 -35z" />
    <glyph glyph-name="plus" unicode="+" 
d="M585 250q0 -21 -14.5 -35.5t-35.5 -14.5h-185v-185q0 -21 -14.5 -35.5t-35.5 -14.5t-35.5 14.5t-14.5 35.5v185h-185q-21 0 -35.5 14.5t-14.5 35.5t14.5 35.5t35.5 14.5h185v185q0 21 14.5 35.5t35.5 14.5t35.5 -14.5t14.5 -35.5v-185h185q21 0 35.5 -14.5t14.5 -35.5z
" />
    <glyph glyph-name="comma" unicode="," 
d="M320 160l-86 -307q-5 -17 -19.5 -28t-31.5 -11q-20 0 -34 15t-14 35q0 7 1 11l64 285h120z" />
    <glyph glyph-name="hyphen" unicode="-" 
d="M558 279q0 -50 -66 -50h-384q-66 0 -66 50t66 50h384q66 0 66 -50z" />
    <glyph glyph-name="period" unicode="." 
d="M375 51q0 -28 -19 -47t-47 -19h-18q-27 0 -46.5 19.5t-19.5 46.5t19.5 46.5t46.5 19.5h18q28 0 47 -19t19 -47z" />
    <glyph glyph-name="slash" unicode="/" 
d="M517 647q0 -10 -12 -37l-320 -679q-12 -26 -22.5 -35t-29.5 -9q-20 0 -35 14.5t-15 33.5q0 14 12 38l321 678q12 25 22.5 34.5t28.5 9.5q20 0 35 -14.5t15 -33.5z" />
    <glyph glyph-name="zero" unicode="0" 
d="M517 264q0 -120 -57.5 -199.5t-159.5 -79.5q-103 0 -160 79.5t-57 199.5v95q0 120 57 199.5t160 79.5q102 0 159.5 -79.5t57.5 -199.5v-95zM417 257v109q0 78 -32 125t-85 47t-85 -47t-32 -125v-109q0 -78 32 -125t85 -47t85 47t32 125z" />
    <glyph glyph-name="one" unicode="1" 
d="M517 50q0 -50 -66 -50h-302q-66 0 -66 50t66 50h101v409l-87 -23q-23 -6 -32 -6q-19 0 -32.5 15t-13.5 37t11.5 32.5t41.5 18.5l212 55v-538h101q66 0 66 -50z" />
    <glyph glyph-name="two" unicode="2" 
d="M508 0h-454v105l232 196q75 68 96 94.5t21 52.5q0 38 -33 64t-82 26q-90 0 -119 -87q-10 -29 -45 -29q-20 0 -35 14.5t-15 33.5q0 62 65.5 115t150.5 53q91 0 152 -55.5t61 -138.5q0 -49 -24.5 -87.5t-98.5 -105.5l-173 -151h201q4 54 50 54q50 0 50 -66v-88z" />
    <glyph glyph-name="three" unicode="3" 
d="M529 182q0 -92 -74 -150q-63 -47 -184 -47q-92 0 -148.5 23.5t-56.5 61.5q0 21 14.5 35.5t35.5 14.5q13 0 32 -12q35 -23 120 -23q95 0 133 34q28 26 28 64q0 28 -20.5 52.5t-55.5 38.5q-25 11 -77 13q-52 3 -52 46q0 22 14.5 36t37.5 14h40q37 0 64 23.5t27 55.5
q0 35 -30 55.5t-82 20.5q-41 0 -66 -10t-49 -36q-15 -15 -36 -15q-20 0 -34.5 15t-14.5 35q0 43 63 77t143 34q99 0 156 -58q50 -48 50 -116q0 -41 -21 -71.5t-70 -59.5q113 -55 113 -151z" />
    <glyph glyph-name="four" unicode="4" 
d="M508 50q0 -50 -67 -50h-132q-66 0 -66 50t66 50h38v38h-272v83l241 401h131v-384q61 0 61 -50q0 -48 -61 -50v-38q61 0 61 -50zM347 238v242l-150 -242h150z" />
    <glyph glyph-name="five" unicode="5" 
d="M529 202q0 -100 -64 -158.5t-187 -58.5q-90 0 -151 28.5t-61 70.5q0 20 15 34.5t35 14.5q17 0 36 -15q23 -19 49.5 -26t75.5 -7q78 0 115 28.5t37 87.5q0 55 -31 89t-81 34t-120 -34q-17 -8 -28 -8q-22 0 -36 16t-14 40v284h302q66 0 66 -50t-66 -50h-202v-115
q56 17 99 17q91 0 151 -63t60 -159z" />
    <glyph glyph-name="six" unicode="6" 
d="M540 573q0 -21 -15 -36t-36 -15q-5 0 -28 6.5t-32 6.5q-79 0 -141.5 -59.5t-79.5 -151.5q36 38 67.5 54t69.5 16q79 0 134.5 -60t55.5 -145q0 -91 -54.5 -147.5t-149.5 -56.5q-109 0 -167.5 80t-58.5 220q0 76 28 143t72.5 112.5t102 71.5t115.5 26q53 0 85 -18t32 -47z
M435 190q0 43 -28 73.5t-69 30.5q-32 0 -66 -24t-54 -61q11 -65 39 -94.5t77 -29.5q47 0 74 28t27 77z" />
    <glyph glyph-name="seven" unicode="7" 
d="M508 523l-159 -475q-16 -49 -52 -49q-20 0 -35.5 14.5t-15.5 33.5q0 14 7 34l150 441h-228q-5 -54 -50 -54q-50 0 -50 66v88h433v-99z" />
    <glyph glyph-name="eight" unicode="8" 
d="M517 165q0 -80 -60.5 -130t-157.5 -50q-96 0 -156 50t-60 130q0 93 97 154q-88 59 -88 136t60.5 130t147.5 53q86 0 147 -53t61 -128q0 -79 -88 -138q97 -61 97 -154zM408 450q0 39 -30 63.5t-78 24.5t-78 -24.5t-30 -62.5t30.5 -62.5t77.5 -24.5t77.5 24t30.5 62z
M417 172q0 38 -34 64.5t-83 26.5q-48 0 -82.5 -26.5t-34.5 -63.5q0 -38 33 -63t84 -25t84 24.5t33 62.5z" />
    <glyph glyph-name="nine" unicode="9" 
d="M541 338q0 -150 -97.5 -251.5t-220.5 -101.5q-53 0 -85 18t-32 47q0 21 15 36t36 15q5 0 28 -6.5t32 -6.5q79 0 141.5 59.5t79.5 151.5q-66 -70 -136 -70q-79 0 -135 60t-56 145q0 91 54.5 147.5t149.5 56.5q108 0 167 -80t59 -220zM428 414q-11 65 -39 94.5t-77 29.5
q-47 0 -74 -28t-27 -77q0 -43 28 -73.5t69 -30.5q32 0 66 24t54 61z" />
    <glyph glyph-name="colon" unicode=":" 
d="M375 370q0 -28 -19 -47t-47 -19h-18q-27 0 -46.5 19.5t-19.5 46.5q0 28 19.5 47.5t46.5 19.5h18q28 0 47 -19.5t19 -47.5zM375 51q0 -28 -19 -47t-47 -19h-18q-27 0 -46.5 19.5t-19.5 46.5t19.5 46.5t46.5 19.5h18q28 0 47 -19t19 -47z" />
    <glyph glyph-name="semicolon" unicode=";" 
d="M375 370q0 -28 -19 -47t-47 -19h-18q-27 0 -46.5 19.5t-19.5 46.5q0 28 19.5 47.5t46.5 19.5h18q28 0 47 -19.5t19 -47.5zM360 160l-86 -307q-5 -17 -19.5 -28t-31.5 -11q-20 0 -34 15t-14 35q0 7 1 11l64 285h120z" />
    <glyph glyph-name="less" unicode="&#x3c;" 
d="M520 63q0 -21 -14.5 -35.5t-35.5 -14.5q-14 0 -24 6l-340 187q-26 15 -26 44t26 44l340 187q10 6 24 6q21 0 35.5 -14.5t14.5 -35.5q0 -29 -26 -44l-260 -143l260 -143q26 -15 26 -44z" />
    <glyph glyph-name="equal" unicode="=" 
d="M585 347q0 -20 -14.5 -35t-35.5 -15h-470q-21 0 -35.5 15t-14.5 35q0 21 14.5 35.5t35.5 14.5h470q21 0 35.5 -14.5t14.5 -35.5zM585 153q0 -21 -14.5 -35.5t-35.5 -14.5h-470q-21 0 -35.5 14.5t-14.5 35.5q0 20 14.5 35t35.5 15h470q21 0 35.5 -15t14.5 -35z" />
    <glyph glyph-name="greater" unicode="&#x3e;" 
d="M520 250q0 -29 -26 -44l-340 -187q-10 -6 -24 -6q-21 0 -35.5 14.5t-14.5 35.5q0 29 26 44l260 143l-260 143q-26 15 -26 44q0 21 14.5 35.5t35.5 14.5q14 0 24 -6l340 -187q26 -15 26 -44z" />
    <glyph glyph-name="question" unicode="?" 
d="M517 409q0 -61 -36.5 -101t-127.5 -80q-6 -54 -50 -54q-50 0 -50 66v56q96 37 130 61.5t34 56.5q0 37 -30 60.5t-78 23.5q-55 0 -105 -24v-14q0 -66 -50 -66t-50 66v79q72 35 114 47t90 12q93 0 151 -52.5t58 -136.5zM377 51q0 -28 -19 -47t-47 -19h-17q-28 0 -47.5 19.5
t-19.5 46.5t19.5 46.5t47.5 19.5h17q28 0 47 -19t19 -47z" />
    <glyph glyph-name="at" unicode="@" 
d="M509 113q0 -41 -55 -41h-47v3q-23 -3 -33 -3q-64 0 -110 46t-46 108q0 70 52.5 117.5t136.5 53.5v32q0 50 -29.5 81t-75.5 31q-63 0 -105 -64t-42 -160v-156q0 -100 38.5 -167.5t111.5 -67.5q71 0 103 32q17 17 31 17q17 0 28.5 -12t11.5 -29q0 -35 -52.5 -60.5
t-124.5 -25.5q-103 0 -164.5 84.5t-61.5 221.5v169q0 129 63.5 213t161.5 84q81 0 133 -54t52 -137v-281q23 -10 23 -35zM407 155v161q-50 -5 -80 -29.5t-30 -61.5q0 -31 24 -51.5t60 -20.5q12 0 26 2z" />
    <glyph glyph-name="A" unicode="A" 
d="M621 50q0 -50 -66 -50h-139q-66 0 -66 50t66 50h23l-23 58h-238l-23 -58h23q66 0 66 -50t-66 -50h-133q-66 0 -66 50t67 50l155 383h-63q-67 0 -67 50t67 50h216l199 -483q68 0 68 -50zM375 258l-78 192l-79 -192h157z" />
    <glyph glyph-name="B" unicode="B" 
d="M571 160q0 -72 -54 -116t-143 -44h-295q-66 0 -66 50q0 24 13 37t49 13h19v383h-20q-37 0 -49 13t-12 37q0 50 66 50h253q85 0 140.5 -47t55.5 -118q0 -64 -63 -113q106 -53 106 -145zM428 419q0 30 -27 47t-74 17h-133v-141h113q54 0 87.5 21.5t33.5 55.5zM471 154
q0 38 -39 63t-103 25h-135v-142h175q102 0 102 54z" />
    <glyph glyph-name="C" unicode="C" 
d="M564 109q0 -45 -72 -84t-165 -39q-127 0 -210.5 74.5t-83.5 188.5v66q0 120 78 201t194 81q70 0 142 -34l10 -4q17 24 42 24q50 0 50 -66v-84q0 -66 -50 -66q-21 0 -32 10.5t-17 42.5q-6 33 -47.5 55t-93.5 22q-76 0 -126 -51.5t-50 -130.5v-64q0 -75 53.5 -120
t143.5 -45q56 0 84.5 10.5t63.5 46.5q16 16 36 16t35 -15t15 -35z" />
    <glyph glyph-name="D" unicode="D" 
d="M550 258q0 -114 -72.5 -186t-193.5 -72h-204q-67 0 -67 50q0 24 16 37t45 13v383q-61 0 -61 50t67 50h212q109 0 183.5 -80t74.5 -198v-47zM450 261v46q0 74 -45 125t-121 51h-110v-383h111q80 0 122.5 42.5t42.5 118.5z" />
    <glyph glyph-name="E" unicode="E" 
d="M550 0h-471q-66 0 -66 50q0 23 13 36.5t49 13.5h19v383h-19q-36 0 -49 13.5t-13 36.5q0 50 66 50h449v-150q0 -67 -50 -67t-50 67v50h-234v-141h85q0 38 14 56t35 18q50 0 50 -67v-113q0 -66 -49 -66q-50 0 -50 73h-85v-143h256v52q0 67 50 67t50 -67v-152z" />
    <glyph glyph-name="F" unicode="F" 
d="M550 432q0 -66 -50 -66t-50 66v51h-256v-141h85q0 37 14 55t36 18q49 0 49 -66v-113q0 -67 -49 -67q-50 0 -50 74h-85v-143h100q66 0 66 -50t-66 -50h-215q-66 0 -66 50q0 24 13 37t49 13h19v383h-19q-36 0 -49 13.5t-13 36.5q0 50 66 50h471v-151z" />
    <glyph glyph-name="G" unicode="G" 
d="M592 230q0 -38 -42 -50v-132q-67 -35 -114 -48.5t-105 -13.5q-142 0 -220 69t-78 191v71q0 117 80.5 198.5t203.5 81.5q81 0 145 -32q16 32 41 32q47 0 47 -66v-78q0 -66 -50 -66q-14 0 -21 2.5t-14.5 14t-13.5 36.5q-8 26 -43.5 41.5t-89.5 15.5q-86 0 -135.5 -51.5
t-49.5 -128.5v-64q0 -167 192 -167q69 0 125 25v69h-100q-66 0 -66 50t66 50h175q67 0 67 -50z" />
    <glyph glyph-name="H" unicode="H" 
d="M581 50q0 -50 -66 -50h-121q-66 0 -66 50q0 24 13 37t49 13h19v141h-214v-141h19q37 0 49.5 -13.5t12.5 -36.5q0 -50 -66 -50h-121q-66 0 -66 50t72 50v383q-52 5 -52 50q0 50 66 50h101q66 0 66 -50q0 -24 -13.5 -37t-48.5 -13h-19v-142h214v142h-19q-36 0 -49 13
t-13 37q0 50 66 50h101q66 0 66 -50q0 -45 -52 -50v-383q37 0 54.5 -14.5t17.5 -35.5z" />
    <glyph glyph-name="I" unicode="I" 
d="M517 50q0 -50 -66 -50h-302q-66 0 -66 50t66 50h101v383h-101q-66 0 -66 50t66 50h302q66 0 66 -50t-66 -50h-101v-383h101q66 0 66 -50z" />
    <glyph glyph-name="J" unicode="J" 
d="M613 533q0 -50 -66 -50h-57v-296q0 -88 -63.5 -144.5t-157.5 -56.5q-84 0 -215 65v162q0 67 50 67t50 -67v-96q69 -31 117 -31q55 0 87 28.5t32 83.5v285h-119q-66 0 -66 50t66 50h276q66 0 66 -50z" />
    <glyph glyph-name="K" unicode="K" 
d="M602 50q0 -50 -66 -50h-110q-35 107 -80.5 176t-91.5 83l-60 -51v-108h35q66 0 66 -50t-66 -50h-150q-66 0 -66 50q0 24 13 37t49 13h19v383h-19q-36 0 -49 13.5t-13 36.5q0 50 66 50h150q66 0 66 -50t-66 -50h-35v-149l178 153q-31 12 -31 45q0 51 66 51h100
q66 0 66 -50t-62 -50l-176 -153q97 -51 169 -230h32q66 0 66 -50z" />
    <glyph glyph-name="L" unicode="L" 
d="M571 0h-472q-66 0 -66 50t66 50h57v383h-57q-66 0 -66 50t66 50h214q66 0 66 -50t-66 -50h-57v-383h215v92q0 67 50 67t50 -67v-192z" />
    <glyph glyph-name="M" unicode="M" 
d="M623 50q0 -50 -66 -50h-130q-66 0 -66 50t66 50h35v289l-111 -251h-91l-118 251v-289h35q66 0 66 -50t-66 -50h-129q-67 0 -67 50t61 50v383q-52 5 -52 51q0 50 62 50h113l138 -298l135 297h110q66 0 66 -50q0 -45 -52 -50v-383q61 0 61 -50z" />
    <glyph glyph-name="N" unicode="N" 
d="M592 533q0 -50 -61 -50v-483h-99l-259 394v-294h35q66 0 66 -50t-66 -50h-129q-67 0 -67 50t61 50v383h-19q-36 0 -49 13.5t-13 36.5q0 50 66 50h115l258 -392v292h-35q-66 0 -66 50t66 50h130q66 0 66 -50z" />
    <glyph glyph-name="O" unicode="O" 
d="M579 287q0 -123 -82.5 -212t-196.5 -89q-116 0 -197.5 89.5t-81.5 216.5q0 126 82 215.5t197 89.5t197 -90t82 -220zM479 289q0 86 -52.5 147t-126.5 61q-73 0 -126 -60.5t-53 -144.5q0 -85 52.5 -145.5t126.5 -60.5q73 0 126 60t53 143z" />
    <glyph glyph-name="P" unicode="P" 
d="M529 394q0 -73 -50 -128q-33 -37 -75 -51.5t-112 -14.5h-98v-100h99q66 0 66 -50t-66 -50h-214q-66 0 -66 50q0 24 13 37t49 13h19v383h-19q-37 0 -49.5 13.5t-12.5 36.5q0 50 66 50h233q95 0 156 -53t61 -136zM423 391q0 43 -29.5 67.5t-81.5 24.5h-118v-183h118
q52 0 81.5 24.5t29.5 66.5z" />
    <glyph glyph-name="Q" unicode="Q" 
d="M579 294q0 -120 -79.5 -210.5t-210.5 -90.5q-10 0 -18 1l-4 -24q30 5 51 5q20 0 69 -10t56 -10q13 0 46 16t37 16q22 0 36.5 -14.5t14.5 -35.5q0 -33 -47.5 -57.5t-85.5 -24.5q-12 0 -54 14t-78 14q-13 0 -73 -13t-74 -13q-19 0 -33.5 15.5t-14.5 36.5q0 18 20 38l62 60
q-102 58 -140 125t-38 160q0 126 82 215.5t197 89.5t197 -89t82 -214zM479 288q0 87 -52.5 148t-126.5 61t-126.5 -60.5t-52.5 -145.5q0 -84 53 -145t126 -61t126 60t53 143z" />
    <glyph glyph-name="R" unicode="R" 
d="M619 50q0 -50 -66 -50h-79q-37 72 -94.5 141.5t-89.5 80.5h-96v-122h35q66 0 66 -50t-66 -50h-150q-66 0 -66 50q0 24 13 37t49 13h19v383h-19q-36 0 -49 13.5t-13 36.5q0 50 66 50h223q97 0 158.5 -49.5t61.5 -128.5q0 -92 -108 -151q65 -57 126 -154h17q36 0 49 -12.5
t13 -37.5zM416 408q0 32 -31 53.5t-79 21.5h-112v-161h76q63 0 104.5 24.5t41.5 61.5z" />
    <glyph glyph-name="S" unicode="S" 
d="M538 160q0 -78 -63 -126t-166 -48q-83 0 -156 39q-20 -24 -40 -24q-51 0 -51 66v66q0 66 50 66q20 0 31 -8.5t20 -39.5q7 -27 48 -46t91 -19q56 0 94 22t38 54q0 31 -26 47.5t-115 32.5q-110 19 -160.5 61.5t-50.5 116.5q0 76 62 126.5t155 50.5q77 0 130 -33q8 19 16 26
t23 7q49 0 49 -66v-88q0 -67 -49 -67q-22 0 -32 9t-18 45q-7 30 -39.5 48.5t-79.5 18.5t-80 -22t-33 -54q0 -16 10.5 -31.5t26.5 -23.5q23 -12 100 -26q73 -14 117 -30t65 -40t27 -47.5t6 -62.5z" />
    <glyph glyph-name="T" unicode="T" 
d="M558 390q0 -66 -50 -66t-50 66v93h-109v-383h66q66 0 66 -50t-66 -50h-231q-66 0 -66 50t66 50h65v383h-107v-93q0 -66 -50 -66t-50 66v193h516v-193z" />
    <glyph glyph-name="U" unicode="U" 
d="M590 533q0 -50 -61 -50v-278q0 -91 -66.5 -155t-162.5 -64q-95 0 -162 64t-67 155v278q-61 2 -61 50q0 50 66 50h130q66 0 66 -50t-66 -50h-35v-287q0 -46 38 -78t91 -32t91 32t38 78v287h-35q-66 0 -66 50t66 50h130q66 0 66 -50z" />
    <glyph glyph-name="V" unicode="V" 
d="M621 533q0 -27 -15 -38.5t-48 -11.5l-210 -483h-99l-207 483q-33 0 -48 11.5t-15 38.5q0 50 66 50h133q66 0 66 -50t-66 -50h-24l149 -339l149 339h-29q-66 0 -66 50t66 50h132q66 0 66 -50z" />
    <glyph glyph-name="W" unicode="W" 
d="M610 533q0 -42 -47 -50l-60 -483h-110l-93 277l-91 -277h-111l-62 483q-46 6 -46 48q0 52 66 52h131q67 0 67 -50t-67 -50h-48l36 -272l76 226h104l76 -226l35 272h-53q-66 0 -66 50t66 50h131q66 0 66 -50z" />
    <glyph glyph-name="X" unicode="X" 
d="M590 50q0 -50 -66 -50h-111q-66 0 -66 50q0 47 55 50l-101 120l-102 -120q54 -3 54 -50q0 -50 -66 -50h-111q-66 0 -66 50q0 23 15.5 36.5t43.5 13.5l166 198l-158 185q-58 3 -58 50q0 50 66 50h91q67 0 67 -50q0 -31 -38 -49l95 -109l93 109q-38 19 -38 49q0 50 67 50
h90q66 0 66 -50q0 -48 -57 -50l-157 -186l167 -197q59 -2 59 -50z" />
    <glyph glyph-name="Y" unicode="Y" 
d="M579 533q0 -22 -16 -36t-39 -14h-10l-164 -238v-145h65q67 0 67 -50t-67 -50h-230q-67 0 -67 50t67 50h65v145l-165 238q-64 0 -64 50t67 50h89q66 0 66 -50q0 -33 -38 -49l95 -136l94 136q-40 15 -40 49q0 50 67 50h92q66 0 66 -50z" />
    <glyph glyph-name="Z" unicode="Z" 
d="M527 0h-454v100l302 383h-179v-70q0 -66 -50 -66t-50 66v170h408v-97l-303 -386h226v72q0 66 50 66t50 -66v-172z" />
    <glyph glyph-name="bracketleft" unicode="[" 
d="M475 -98q0 -50 -66 -50h-159v775h158q66 0 66 -50t-66 -50h-58v-575h59q66 0 66 -50z" />
    <glyph glyph-name="backslash" unicode="\" 
d="M517 -65q0 -19 -15 -33.5t-35 -14.5q-18 0 -29 9.5t-23 34.5l-320 679q-13 26 -12 37q0 19 15 33.5t35 14.5q18 0 28.5 -9t22.5 -35l321 -678q12 -27 12 -38z" />
    <glyph glyph-name="bracketright" unicode="]" 
d="M350 -148h-158q-66 0 -66 50t66 50h58v575h-59q-66 0 -66 50t66 50h159v-775z" />
    <glyph glyph-name="asciicircum" unicode="^" 
d="M517 375q0 -20 -15 -35t-35 -15q-14 0 -23.5 5.5t-25.5 24.5l-119 139l-117 -138q-17 -20 -25.5 -25.5t-23.5 -5.5q-20 0 -35 15t-15 35q0 17 22 44l194 233l196 -233q22 -26 22 -44z" />
    <glyph glyph-name="underscore" unicode="_" 
d="M612 -125h-624v50h624v-50z" />
    <glyph glyph-name="grave" unicode="`" 
d="M380 524q0 -16 -12 -28t-28 -12q-12 0 -22 7l-161 112q-18 11 -18 33q0 16 11.5 28t28.5 12q13 0 23 -7l161 -112q17 -11 17 -33z" />
    <glyph glyph-name="a" unicode="a" 
d="M571 50q0 -50 -66 -50h-117v23q-75 -39 -166 -39q-74 0 -127 39.5t-53 95.5q0 73 70.5 121t171.5 48q45 0 104 -10v23q0 49 -93 49q-51 0 -116 -17q-25 -6 -40 -6q-21 0 -35 14.5t-14 36.5q0 32 30 42q85 30 172 30q92 0 144.5 -39t52.5 -109v-202h16q66 0 66 -50z
M389 135v50q-63 11 -111 11q-51 0 -90.5 -22t-39.5 -51q0 -17 22 -28t54 -11q82 0 165 51z" />
    <glyph glyph-name="b" unicode="b" 
d="M571 218q0 -98 -68.5 -165t-177.5 -67q-80 0 -151 49v-35h-116q-66 0 -66 50t66 50h16v424h-16q-66 0 -66 50t66 50h116v-223q63 50 150 50q109 0 178 -66.5t69 -166.5zM471 219q0 56 -42 94t-106 38q-66 0 -107.5 -38.5t-41.5 -92.5q0 -59 41.5 -96.5t107.5 -37.5
t107 38t41 95z" />
    <glyph glyph-name="c" unicode="c" 
d="M565 89q0 -42 -67 -73.5t-175 -31.5q-128 0 -198.5 60t-70.5 163q0 107 71.5 175t184.5 68q86 0 144 -30q9 30 38 30q48 0 48 -66v-77q0 -66 -50 -66q-20 0 -32.5 9.5t-18.5 38.5q-14 61 -129 61q-71 0 -113.5 -40.5t-42.5 -102.5q0 -123 176 -123q59 0 89.5 8t65.5 36
q13 12 30 12q20 0 35 -15t15 -36z" />
    <glyph glyph-name="d" unicode="d" 
d="M613 50q0 -50 -66 -50h-116v35q-72 -49 -151 -49q-110 0 -178.5 67t-68.5 166t69 165.5t179 66.5q87 0 150 -50v124h-16q-66 0 -66 50q0 49 66 49h116v-524h16q66 0 66 -50zM431 217q0 58 -41.5 96t-108.5 38q-66 0 -107 -38.5t-41 -93.5q0 -56 41 -94.5t108 -38.5
q66 0 107.5 38.5t41.5 92.5z" />
    <glyph glyph-name="e" unicode="e" 
d="M550 67q0 -38 -79 -60.5t-174 -22.5q-116 0 -190 65t-74 167q0 99 74.5 166.5t183.5 67.5q112 0 185.5 -68t73.5 -171v-39h-408q34 -88 164 -88q56 0 163 28q20 5 33 5q20 0 34 -14.5t14 -35.5zM439 260q-12 41 -52 65.5t-95 24.5t-95.5 -25t-51.5 -65h294z" />
    <glyph glyph-name="f" unicode="f" 
d="M571 560q0 -22 -13.5 -36.5t-33.5 -14.5q-10 0 -64 7t-77 7q-84 0 -84 -49v-37h151q66 0 66 -50t-66 -50h-151v-237h139q66 0 66 -50t-66 -50h-297q-66 0 -66 50t66 50h58v237h-47q-66 0 -66 50t67 50h46v37q0 69 52 109t141 40q179 0 179 -63z" />
    <glyph glyph-name="g" unicode="g" 
d="M592 387q0 -50 -66 -50h-16v-357q0 -79 -54.5 -132t-136.5 -53h-112q-66 0 -66 50t66 50h109q43 0 68.5 23t25.5 62v55q-66 -49 -141 -49q-101 0 -168.5 66.5t-67.5 165.5q0 100 67.5 166.5t168.5 66.5q82 0 141 -50v36h116q66 0 66 -50zM410 217q0 56 -40.5 95t-98.5 39
q-57 0 -97.5 -38.5t-40.5 -93.5t40.5 -94t97.5 -39t98 38.5t41 92.5z" />
    <glyph glyph-name="h" unicode="h" 
d="M581 50q0 -50 -66 -50h-112q-67 0 -67 50t67 50h6v171q0 44 -22 61.5t-66 17.5q-35 0 -59 -13t-67 -54v-183h6q67 0 67 -50t-67 -50h-112q-66 0 -66 50t66 50h6v424h-16q-66 0 -66 50t66 50h116v-235q60 61 137 61q80 0 128.5 -45.5t48.5 -120.5v-184h6q66 0 66 -50z" />
    <glyph glyph-name="i" unicode="i" 
d="M538 50q0 -50 -66 -50h-344q-66 0 -66 50t66 50h122v237h-78q-67 0 -67 50t67 50h178v-337h122q66 0 66 -50zM360 579q0 -24 -17.5 -41.5t-42.5 -17.5t-42.5 17.5t-17.5 42.5t17.5 42.5t42.5 17.5t42.5 -17.5t17.5 -43.5z" />
    <glyph glyph-name="j" unicode="j" 
d="M488 -20q0 -79 -54.5 -132t-136.5 -53h-114q-66 0 -66 50t66 50h111q43 0 68.5 23t25.5 62v357h-202q-66 0 -66 50t66 50h302v-457zM447 579q0 -24 -17.5 -41.5t-42.5 -17.5t-42.5 17.5t-17.5 42.5t17.5 42.5t42.5 17.5t42.5 -17.5t17.5 -43.5z" />
    <glyph glyph-name="k" unicode="k" 
d="M571 50q0 -50 -67 -50h-118q-66 0 -66 50q0 20 16 37l-103 91l-18 -14v-164h-116q-66 0 -66 50t66 50h16v424h-16q-66 0 -66 50t66 50h116v-337l79 63q-16 19 -16 37q0 50 67 50h112q66 0 66 -50t-66 -50h-28l-118 -96l160 -141h33q67 0 67 -50z" />
    <glyph glyph-name="l" unicode="l" 
d="M538 50q0 -50 -66 -50h-344q-66 0 -66 50t66 50h122v424h-78q-67 0 -67 50t67 50h178v-524h122q66 0 66 -50z" />
    <glyph glyph-name="m" unicode="m" 
d="M623 50q0 -50 -66 -50h-94v311q0 22 -7.5 30.5t-27.5 8.5t-35.5 -9t-40.5 -36v-205q28 0 44 -13.5t16 -36.5q0 -50 -66 -50h-94v311q0 21 -8 30t-27 9q-36 0 -76 -45v-205q61 0 61 -50t-66 -50h-88q-67 0 -67 50t60 50v237q-60 2 -60 50q0 50 67 50h93v-24q46 37 85 37
q57 0 102 -49q45 49 104 49q56 0 93.5 -37.5t37.5 -93.5v-219q60 0 60 -50z" />
    <glyph glyph-name="n" unicode="n" 
d="M571 50q0 -50 -66 -50h-89q-67 0 -67 50t61 50v178q0 72 -90 72q-35 0 -62.5 -15t-62.5 -53v-182h6q66 0 66 -50t-66 -50h-112q-66 0 -66 50t66 50h6v237q-61 2 -61 50q0 50 67 50h94v-48q36 34 66 47.5t71 13.5q78 0 128 -45t50 -123v-182q61 0 61 -50z" />
    <glyph glyph-name="o" unicode="o" 
d="M558 217q0 -98 -75 -165.5t-183 -67.5t-183 67.5t-75 165.5q0 99 75 166t186 67q106 0 180.5 -68t74.5 -165zM458 217q0 56 -45.5 94.5t-110.5 38.5q-68 0 -114 -38t-46 -95q0 -56 45.5 -94.5t112.5 -38.5t112.5 38.5t45.5 94.5z" />
    <glyph glyph-name="p" unicode="p" 
d="M571 224q0 -95 -70 -166.5t-172 -71.5q-82 0 -155 56v-147h58q66 0 66 -50t-66 -50h-174q-66 0 -66 50t66 50h16v442h-16q-66 0 -66 50t66 50h116v-45q68 58 153 58q105 0 174.5 -64.5t69.5 -161.5zM471 218q0 52 -42.5 92t-105.5 40q-65 0 -107 -40t-42 -91
q0 -55 42 -94t107 -39q63 0 105.5 39t42.5 93z" />
    <glyph glyph-name="q" unicode="q" 
d="M613 -155q0 -50 -66 -50h-174q-66 0 -66 50t66 50h58v147q-73 -56 -156 -56q-103 0 -172.5 66.5t-69.5 159.5q0 99 70 168.5t174 69.5q47 0 82 -13t72 -45v45h116q66 0 66 -50t-66 -50h-16v-442h16q66 0 66 -50zM431 217q0 55 -42.5 94t-107.5 39q-64 0 -106 -40.5
t-42 -91.5t41.5 -91.5t107.5 -40.5t107.5 40.5t41.5 90.5z" />
    <glyph glyph-name="r" unicode="r" 
d="M571 364q0 -21 -15 -36t-35 -15q-13 0 -39.5 18t-38.5 18q-24 0 -58.5 -21.5t-106.5 -80.5v-147h139q67 0 67 -50t-67 -50h-297q-66 0 -66 50t66 50h58v237h-35q-66 0 -66 50t66 50h135v-65q60 45 95 61t72 16q39 0 82.5 -26.5t43.5 -58.5z" />
    <glyph glyph-name="s" unicode="s" 
d="M527 125q0 -61 -63 -101t-160 -40q-87 0 -148 29q-15 -12 -32 -12q-51 0 -51 66v33q0 67 51 67q38 0 51 -44q43 -39 125 -39q48 0 82.5 13t34.5 30q0 20 -25 32t-101 20q-105 11 -152 43t-47 91q0 60 58 98.5t148 38.5q73 0 129 -26q11 26 32 26q47 0 47 -66v-37
q0 -66 -50 -66q-30 0 -47 31l-5 9q-41 29 -103 29q-38 0 -68.5 -10.5t-30.5 -24.5t26 -24q15 -5 84 -15q120 -16 167.5 -51.5t47.5 -99.5z" />
    <glyph glyph-name="t" unicode="t" 
d="M529 78q0 -38 -78 -66t-152 -28q-85 0 -135 37t-50 101v215h-35q-66 0 -66 50t66 50h35v88q0 66 50 66t50 -66v-88h181q66 0 66 -50t-66 -50h-181v-196q0 -35 19 -46t67 -11q79 0 146 34q21 11 35 11q20 0 34 -15t14 -36z" />
    <glyph glyph-name="u" unicode="u" 
d="M571 50q0 -50 -66 -50h-95v48q-37 -35 -66.5 -48t-70.5 -13q-79 0 -128.5 45t-49.5 124v181h-27q-23 -1 -39 13.5t-16 36.5q0 50 66 50h116v-278q0 -72 88 -72q38 0 63 13.5t64 54.5v182h-35q-66 0 -66 50t66 50h135v-337q61 0 61 -50z" />
    <glyph glyph-name="v" unicode="v" 
d="M600 387q0 -50 -66 -50h-16l-167 -337h-104l-167 337h-14q-66 0 -66 50t66 50h132q66 0 66 -50q0 -25 -11.5 -37.5t-47.5 -12.5h-12l109 -215l107 215h-10q-66 0 -66 50t66 50h135q66 0 66 -50z" />
    <glyph glyph-name="w" unicode="w" 
d="M600 387q0 -46 -52 -49l-84 -338h-92l-71 181l-68 -181h-94l-85 338q-26 2 -40 14.5t-14 34.5q0 50 66 50h92q66 0 66 -50q0 -49 -64 -49l39 -153l60 158h88l61 -158l40 153h-7q-66 0 -66 49q0 50 66 50h93q66 0 66 -50z" />
    <glyph glyph-name="x" unicode="x" 
d="M579 50q0 -50 -66 -50h-112q-67 0 -67 51q0 38 40 49l-75 61l-73 -61q38 -16 38 -49q0 -51 -66 -51h-111q-66 0 -66 50q0 47 54 50l145 128l-128 109q-52 5 -52 50q0 50 66 50h92q66 0 66 -49q0 -29 -26 -46l61 -49l61 50q-26 18 -26 43q0 51 66 51h91q67 0 67 -50
q0 -45 -53 -50l-132 -110l152 -127q54 -3 54 -50z" />
    <glyph glyph-name="y" unicode="y" 
d="M579 387q0 -45 -52 -50l-230 -442h5q66 0 66 -50t-66 -50h-215q-66 0 -66 50t66 50h100l55 108l-172 334q-49 6 -49 50q0 50 66 50h90q66 0 66 -50q0 -48 -59 -50l114 -223l120 223q-64 0 -64 50t67 50h92q66 0 66 -50z" />
    <glyph glyph-name="z" unicode="z" 
d="M519 0h-434v83l261 254h-149v-9q0 -66 -50 -66t-50 66v109h409v-81l-262 -256h175q3 54 50 54q50 0 50 -66v-88z" />
    <glyph glyph-name="braceleft" unicode="{" 
d="M433 -103q0 -23 -15 -36.5t-40 -13.5q-53 0 -91.5 39t-38.5 92v173q0 21 -6 28.5t-26 9.5q-49 6 -49 51t49 50q19 2 25.5 10t6.5 28v164q0 53 38.5 92t90.5 39q25 0 40.5 -13.5t15.5 -36.5q0 -21 -13.5 -35.5t-35.5 -15.5q-21 -2 -28.5 -9.5t-7.5 -27.5v-157
q0 -32 -6 -49.5t-23 -38.5q18 -22 23.5 -40.5t5.5 -57.5v-157q0 -20 7.5 -27.5t28.5 -9.5q22 -1 35.5 -15.5t13.5 -35.5z" />
    <glyph glyph-name="bar" unicode="|" 
d="M350 -148h-100v775h100v-775z" />
    <glyph glyph-name="braceright" unicode="}" 
d="M433 230q0 -45 -49 -50q-19 -2 -25.5 -10t-6.5 -28v-164q0 -53 -38.5 -92t-90.5 -39q-25 0 -40.5 13.5t-15.5 36.5q0 20 13.5 35t35.5 16q21 1 28.5 8.5t7.5 28.5v157q0 32 6 49.5t23 38.5q-18 22 -23.5 40.5t-5.5 57.5v157q0 20 -7.5 27.5t-28.5 9.5q-22 1 -35.5 15.5
t-13.5 35.5q0 23 15 36.5t40 13.5q53 0 91.5 -39t38.5 -92v-173q0 -21 6 -28.5t26 -9.5q49 -6 49 -51z" />
    <glyph glyph-name="asciitilde" unicode="~" 
d="M538 314q0 -25 -41 -73q-52 -62 -106 -62t-137 75q-32 27 -42 27q-13 0 -47 -42q-20 -24 -29.5 -31t-22.5 -7q-20 0 -35.5 15.5t-15.5 35.5q0 26 39 70q55 63 112 63q32 0 58 -15t79 -63q24 -23 39 -23q14 0 49 46q15 20 25 27t25 7q20 0 35 -15t15 -35z" />
    <glyph glyph-name="uni00A0" unicode="&#xa0;" 
 />
    <glyph glyph-name="exclamdown" unicode="&#xa1;" 
d="M380 -121q0 -35 -23 -57.5t-58 -22.5t-57.5 22.5t-22.5 57.5q0 7 2 33l29 297q5 49 49 49q21 0 34.5 -13t15.5 -36l29 -297q2 -24 2 -33zM375 386q0 -27 -19.5 -46.5t-47.5 -19.5h-17q-28 0 -47 19t-19 47t19 47t47 19h17q28 0 47.5 -19.5t19.5 -46.5z" />
    <glyph glyph-name="cent" unicode="&#xa2;" 
d="M499 194q0 -31 -41 -57.5t-107 -37.5v-77q0 -66 -50 -66t-50 66v81q-77 19 -122.5 75.5t-45.5 133.5q0 73 47 130t121 75v77q0 67 50 67t50 -67v-67q45 -7 73 -24q12 4 20 4q51 0 51 -66v-42q0 -66 -50 -66q-20 0 -31 8.5t-19 42.5q-11 43 -75 43q-59 0 -98 -33.5
t-39 -83.5q0 -47 36.5 -80t90.5 -33q55 0 105 36q17 12 34 12q20 0 35 -15.5t15 -35.5z" />
    <glyph glyph-name="sterling" unicode="&#xa3;" 
d="M550 90q0 -44 -28 -67t-80 -23h-321q-66 0 -66 51q0 39 50 49q64 12 64 124q0 11 -1 19h-69q-66 0 -66 50t66 50h44q-17 51 -17 89q0 73 48.5 119.5t124.5 46.5q59 0 108.5 -32.5t49.5 -70.5q0 -21 -14.5 -36t-34.5 -15q-14 0 -22.5 5t-24.5 23q-23 26 -63 26
q-31 0 -51.5 -17.5t-20.5 -43.5q0 -23 20 -94h68q67 0 67 -50t-67 -50h-45q1 -12 1 -27q0 -59 -23 -116h203q6 46 49 46q23 0 37 -15t14 -41z" />
    <glyph glyph-name="currency" unicode="&#xa4;" 
d="M527 116q0 -21 -15.5 -36.5t-36.5 -15.5q-13 0 -20.5 4.5t-25.5 21.5l-34 32q-47 -25 -95 -25t-96 26l-33 -32q-17 -17 -25.5 -22t-21.5 -5q-21 0 -36 15t-15 36q0 20 26 47l32 34q-25 49 -25 96q0 49 25 96l-33 32q-25 25 -25 49q0 20 15 35t36 15q20 0 47 -26l32 -31
q48 26 97 26q47 0 97 -27l31 30q26 26 47 26t36 -15t15 -36q0 -13 -4.5 -21t-21.5 -25l-31 -32q25 -49 25 -96q0 -48 -26 -96l33 -34q26 -26 26 -46zM394 292q0 41 -27 68.5t-67 27.5q-39 0 -66.5 -27.5t-27.5 -67.5q0 -39 28 -67.5t66 -28.5t66 28.5t28 66.5z" />
    <glyph glyph-name="yen" unicode="&#xa5;" 
d="M579 530q0 -24 -9.5 -37t-38.5 -13h-16l-140 -199h72q31 0 31 -28t-31 -28h-97v-34h97q31 0 31 -28t-31 -28h-97v-35h47q66 0 66 -50t-66 -50h-194q-66 0 -66 50t67 50h46v35h-97q-31 0 -31 28t31 28h97v34h-97q-31 0 -31 28t31 28h72l-138 200h-16q-23 0 -36.5 13.5
t-13.5 35.5q0 50 66 50h92q67 0 67 -50q0 -18 -11 -31.5t-28 -16.5l94 -134l95 133q-41 11 -41 49q0 50 67 50h91q66 0 66 -50z" />
    <glyph glyph-name="brokenbar" unicode="&#xa6;" 
d="M350 317q0 -21 -14.5 -35.5t-35.5 -14.5t-35.5 14.5t-14.5 35.5v310q0 21 14.5 35.5t35.5 14.5t35.5 -14.5t14.5 -35.5v-310zM350 -148q0 -21 -14.5 -35.5t-35.5 -14.5t-35.5 14.5t-14.5 35.5v310q0 21 14.5 35.5t35.5 14.5t35.5 -14.5t14.5 -35.5v-310z" />
    <glyph glyph-name="section" unicode="&#xa7;" 
d="M564 129q0 -46 -26.5 -77t-75.5 -42q5 -21 5 -38q0 -58 -43.5 -100t-111.5 -42h-231v127q0 55 44 55t44 -55v-39h145q27 0 47 16t20 37q0 37 -105 98l-106 61q-75 43 -104.5 76.5t-29.5 76.5q0 91 101 119q-5 15 -5 30q0 63 46 107t116 44h225v-127q0 -55 -44 -55t-44 55
v37h-144q-29 0 -49.5 -15.5t-20.5 -37.5q0 -39 107 -98l92 -51q87 -49 117.5 -82t30.5 -80zM468 121q0 37 -97 93l-99 57q-38 21 -80 55q-60 0 -60 -34q0 -39 86 -87l103 -58q65 -40 86 -59h17q19 0 31.5 9.5t12.5 23.5z" />
    <glyph glyph-name="dieresis" unicode="&#xa8;" 
d="M468 579q0 -24 -17.5 -41.5t-42.5 -17.5t-42.5 17.5t-17.5 42.5t17.5 42.5t42.5 17.5t42.5 -17.5t17.5 -43.5zM252 579q0 -24 -17.5 -41.5t-42.5 -17.5t-42.5 17.5t-17.5 42.5t17.5 42.5t42.5 17.5t42.5 -17.5t17.5 -43.5z" />
    <glyph glyph-name="copyright" unicode="&#xa9;" 
d="M590 276q0 -120 -85 -205t-205 -85t-205 85t-85 205t85 205t205 85t205 -85t85 -205zM530 276q0 95 -67.5 162.5t-162.5 67.5t-162.5 -67.5t-67.5 -162.5t67.5 -162.5t162.5 -67.5t162.5 67.5t67.5 162.5zM449 199q0 -21 -40.5 -41t-92.5 -20q-72 0 -118 34.5t-46 85.5
v28q0 53 43.5 90.5t108.5 37.5q37 0 78 -15l5 -1q10 10 24 10q29 0 29 -37v-35q0 -29 -29 -29q-25 0 -29 17q-3 13 -25.5 21.5t-50.5 8.5q-40 0 -67 -19t-27 -49v-27q0 -29 29 -45t77 -16q30 0 45.5 4.5t35.5 19.5q11 7 20 7q13 0 21.5 -9.5t8.5 -20.5z" />
    <glyph glyph-name="ordfeminine" unicode="&#xaa;" 
d="M489 323q0 -39 -50 -39h-85v11q-55 -22 -108 -22t-90.5 28t-37.5 68q0 51 50 84.5t124 33.5q26 0 62 -5v8q0 27 -58 27q-35 0 -79 -11q-18 -5 -28 -5q-16 0 -27 11.5t-11 28.5q0 29 45.5 41.5t95.5 12.5q67 0 103.5 -27.5t36.5 -77.5v-128h6q51 0 51 -39zM483 221
q0 -39 -51 -39h-256q-33 0 -42.5 8t-9.5 37q0 19 10.5 25.5t41.5 6.5h255q52 0 52 -38zM354 383v27q-37 7 -66 7q-32 0 -55.5 -13t-23.5 -30q0 -10 12 -16t31 -6q57 0 102 31z" />
    <glyph glyph-name="guillemotleft" unicode="&#xab;" 
d="M571 50q0 -12 -10 -21t-23 -9q-11 0 -28 13l-248 185l248 184q17 13 29 13q13 0 22.5 -9t9.5 -21q0 -14 -16 -27l-151 -140l151 -141q16 -15 16 -27zM342 50q0 -12 -10 -21t-23 -9q-11 0 -28 13l-248 185l248 184q17 13 29 13q13 0 22.5 -9t9.5 -21q0 -14 -16 -27
l-151 -140l151 -141q16 -15 16 -27z" />
    <glyph glyph-name="logicalnot" unicode="&#xac;" 
d="M535 397v-244q0 -21 -14.5 -35.5t-35.5 -14.5t-35.5 14.5t-14.5 35.5v144h-370q-21 0 -35.5 15t-14.5 35q0 21 14.5 35.5t35.5 14.5h470z" />
    <glyph glyph-name="uni00AD" unicode="&#xad;" 
d="M558 279q0 -50 -66 -50h-384q-66 0 -66 50t66 50h384q66 0 66 -50z" />
    <glyph glyph-name="registered" unicode="&#xae;" 
d="M590 276q0 -120 -85 -205t-205 -85t-205 85t-85 205t85 205t205 85t205 -85t85 -205zM530 276q0 95 -67.5 162.5t-162.5 67.5t-162.5 -67.5t-67.5 -162.5t67.5 -162.5t162.5 -67.5t162.5 67.5t67.5 162.5zM469 174q0 -30 -39 -30h-43q-1 0 -1 1q-22 33 -52.5 64t-48.5 37
h-49v-42h16q39 0 39 -30t-39 -30h-82q-39 0 -39 30q0 9 2 14.5t10.5 10.5t24.5 5h8v144h-8q-37 0 -37 30t39 30h122q55 0 89.5 -24.5t34.5 -59.5q0 -40 -47 -66q28 -22 54 -54h9q23 0 30 -8t7 -22zM353 325q0 23 -58 23h-59v-58h39q34 0 56 9.5t22 25.5z" />
    <glyph glyph-name="macron" unicode="&#xaf;" 
d="M525 580q0 -40 -53 -40h-344q-53 0 -53 40t53 40h344q53 0 53 -40z" />
    <glyph glyph-name="degree" unicode="&#xb0;" 
d="M475 420q0 -74 -51.5 -125.5t-125.5 -51.5q-71 0 -122 52t-51 125t51 124.5t124 51.5t124 -51.5t51 -124.5zM414 420q0 47 -33.5 81t-80.5 34t-80.5 -34t-33.5 -81t33.5 -81.5t79.5 -34.5q48 0 81.5 34t33.5 82z" />
    <glyph glyph-name="plusminus" unicode="&#xb1;" 
d="M585 350q0 -21 -14.5 -35.5t-35.5 -14.5h-185v-110h-100v110h-185q-21 0 -35.5 14.5t-14.5 35.5t14.5 35.5t35.5 14.5h185v185q0 21 14.5 35.5t35.5 14.5t35.5 -14.5t14.5 -35.5v-185h185q21 0 35.5 -14.5t14.5 -35.5zM585 50q0 -21 -14.5 -35.5t-35.5 -14.5h-470
q-21 0 -35.5 14.5t-14.5 35.5t14.5 35.5t35.5 14.5h470q21 0 35.5 -14.5t14.5 -35.5z" />
    <glyph glyph-name="two.superior" unicode="&#xb2;" 
d="M429 247h-280v68q139 115 174 149.5t35 55.5t-18.5 35.5t-46.5 14.5q-37 0 -56 -24l-3 -8l-8 -16t-12.5 -15t-18.5 -7q-14 0 -24 9.5t-10 23.5q0 39 40.5 71.5t92.5 32.5q56 0 93.5 -34t37.5 -86q0 -38 -30 -73.5t-142 -129.5h109q5 32 33 32q34 0 34 -43v-56z" />
    <glyph glyph-name="three.superior" unicode="&#xb3;" 
d="M442 355q0 -55 -46 -89q-38 -28 -111 -28q-59 0 -93.5 14.5t-34.5 39.5q0 14 9.5 24t23.5 10q11 0 22 -8q19 -13 71 -13q92 0 92 52q0 34 -44 54q-14 6 -45 7q-34 3 -34 33q0 14 10 23.5t24 9.5h25q20 0 35.5 13.5t15.5 30.5q0 19 -17 30.5t-46 11.5q-43 0 -67 -27
q-10 -10 -24 -10q-13 0 -23 10t-10 24q0 28 38.5 49t88.5 21q55 0 91 -30.5t36 -77.5q0 -49 -48 -79l-3 -2q64 -33 64 -93z" />
    <glyph glyph-name="acute" unicode="&#xb4;" 
d="M461 636q0 -22 -18 -33l-161 -112q-10 -7 -22 -7q-16 0 -28 12t-12 28q0 22 17 33l161 112q10 7 23 7q17 0 28.5 -12t11.5 -28z" />
    <glyph glyph-name="uni00B5" unicode="&#xb5;" 
d="M571 50q0 -50 -66 -50h-95v22q-79 -38 -157 -38q-28 0 -58 9v-80q0 -66 -50 -66t-50 66v424h-20q-62 0 -62 50t66 50h116v-293q0 -32 15 -46t50 -14q61 0 150 54v199h-35q-66 0 -66 50t66 50h135v-337q61 0 61 -50z" />
    <glyph glyph-name="paragraph" unicode="&#xb6;" 
d="M558 -135q0 -39 -54 -39h-93q-28 0 -40 34q-8 -21 -16.5 -27.5t-26.5 -6.5h-137q-53 0 -53 39t53 39h79v281q-97 10 -159 59.5t-62 116.5v46q0 73 75 124.5t181 51.5h197q54 0 54 -39t-54 -39h-34v-601h36q54 0 54 -39zM270 266v234q-50 -11 -79 -36t-29 -59v-44
q0 -34 29 -59t79 -36zM392 -96v601h-44v-601q17 -8 23 -28q5 19 21 28z" />
    <glyph glyph-name="periodcentered" unicode="&#xb7;" 
d="M366 250q0 -27 -19.5 -46.5t-46.5 -19.5t-46.5 19.5t-19.5 46.5t19.5 46.5t46.5 19.5t46.5 -19.5t19.5 -46.5z" />
    <glyph glyph-name="cedilla" unicode="&#xb8;" 
d="M407 -146q0 -43 -30.5 -73.5t-76.5 -30.5q-41 0 -80.5 18.5t-39.5 44.5q0 14 10.5 24.5t24.5 10.5q1 0 34.5 -14t51.5 -14q16 0 26 9.5t10 22.5q0 16 -14 26.5t-39 10.5q-9 0 -22 -2v118h70v-57q75 -16 75 -94z" />
    <glyph glyph-name="one.superior" unicode="&#xb9;" 
d="M434 281q0 -34 -43 -34h-181q-44 0 -44 34q0 33 44 33h57v237l-48 -12q-15 -4 -20 -4q-13 0 -22 10.5t-9 24.5t7.5 21.5t26.5 12.5l132 34v-324h57q43 0 43 -33z" />
    <glyph glyph-name="ordmasculine" unicode="&#xba;" 
d="M471 428q0 -64 -50 -109.5t-120 -45.5q-71 0 -120.5 46t-49.5 111q0 68 50 116.5t120 48.5q71 0 120.5 -48.5t49.5 -118.5zM480 221q0 -39 -52 -39h-254q-52 0 -52 39q0 38 52 38h254q52 0 52 -38zM392 430q0 35 -27 61t-64 26t-64 -26t-27 -61q0 -31 27.5 -55t63.5 -24
t63.5 24t27.5 55z" />
    <glyph glyph-name="guillemotright" unicode="&#xbb;" 
d="M571 217l-247 -184q-17 -13 -29 -13q-13 0 -22.5 9t-9.5 21q0 14 16 27l151 140l-151 141q-16 15 -16 27t10 21t23 9q11 0 28 -13zM341 217l-247 -184q-17 -13 -29 -13q-13 0 -22.5 9t-9.5 21q0 14 16 27l151 140l-151 141q-16 15 -16 27t10 21t23 9q11 0 28 -13z" />
    <glyph glyph-name="onequarter" unicode="&#xbc;" 
d="M514 555q0 -7 -11 -27l-260 -451q-15 -26 -34 -26q-13 0 -23.5 10t-10.5 23q-1 8 10 26l260 451q16 26 35 26q13 0 23.5 -10t10.5 -22zM599 34q0 -34 -44 -34h-79q-43 0 -43 34q0 33 43 33h19v16h-163v55l146 242h84v-230q37 -2 37 -33q0 -32 -37 -34v-16q37 -2 37 -33z
M264 281q0 -34 -43 -34h-181q-44 0 -44 34q0 33 44 33h57v237l-48 -12q-15 -4 -20 -4q-13 0 -22 10.5t-9 24.5t7.5 21.5t26.5 12.5l132 34v-324h57q43 0 43 -33zM495 150v129l-79 -129h79z" />
    <glyph glyph-name="onehalf" unicode="&#xbd;" 
d="M629 0h-280v68q139 115 174 149.5t35 55.5t-18.5 35.5t-46.5 14.5q-36 0 -56 -24l-3 -8l-8 -16t-12.5 -15t-18.5 -7q-14 0 -24 9.5t-10 23.5q0 39 40.5 71.5t92.5 32.5q56 0 93.5 -34t37.5 -86q0 -38 -30 -73.5t-142 -129.5h109q5 32 33 32q34 0 34 -43v-56zM484 555
q0 -7 -11 -27l-260 -451q-15 -26 -34 -26q-13 0 -23.5 10t-10.5 23q-1 8 10 26l260 451q16 26 35 26q13 0 23.5 -10t10.5 -22zM234 281q0 -34 -43 -34h-181q-44 0 -44 34q0 33 44 33h57v237l-48 -12q-15 -4 -20 -4q-13 0 -22 10.5t-9 24.5t7.5 21.5t26.5 12.5l132 34v-324
h57q43 0 43 -33z" />
    <glyph glyph-name="threequarters" unicode="&#xbe;" 
d="M514 555q0 -9 -10 -27l-261 -451q-15 -26 -34 -26q-14 0 -24 10t-10 23q0 10 10 26l261 451q14 26 34 26q13 0 23.5 -10t10.5 -22zM610 34q0 -34 -44 -34h-79q-44 0 -44 34q0 33 44 33h19v16h-164v55l147 242h84v-230q37 -2 37 -33q0 -32 -37 -34v-16q37 -2 37 -33z
M272 355q0 -52 -40.5 -84.5t-116.5 -32.5q-59 0 -93.5 14.5t-34.5 39.5q0 14 9.5 24t23.5 10q2 0 29 -10.5t64 -10.5q92 0 92 52q0 34 -44 54l-23 3q-22 2 -39 11t-17 26q0 14 10 23.5t24 9.5h25q20 0 35.5 13.5t15.5 30.5q0 19 -17 30.5t-46 11.5q-43 0 -67 -27
q-10 -10 -24 -10q-13 0 -23 10t-10 24q0 28 38.5 49t88.5 21q55 0 91 -30.5t36 -77.5q0 -49 -48 -79l-3 -2q64 -33 64 -93zM506 150v129l-80 -129h80z" />
    <glyph glyph-name="questiondown" unicode="&#xbf;" 
d="M496 -102q-72 -35 -114 -47t-90 -12q-93 0 -151 52.5t-58 136.5q0 61 36.5 101t127.5 80q6 54 50 54q50 0 50 -66v-56q-96 -37 -130 -61.5t-34 -56.5q0 -37 30 -60.5t78 -23.5q55 0 105 24v14q0 66 50 66t50 -66v-79zM373 386q0 -27 -19.5 -46.5t-47.5 -19.5h-17
q-28 0 -47 19t-19 47t19 47t47 19h17q28 0 47.5 -19.5t19.5 -46.5z" />
    <glyph glyph-name="Agrave" unicode="&#xc0;" 
d="M621 50q0 -50 -66 -50h-139q-66 0 -66 50t66 50h23l-23 58h-238l-23 -58h23q66 0 66 -50t-66 -50h-133q-66 0 -66 50t67 50l155 383h-63q-67 0 -67 50t67 50h216l199 -483q68 0 68 -50zM375 258l-78 192l-79 -192h157zM377 660q0 -16 -11.5 -28t-28.5 -12q-11 0 -22 7
l-161 112q-18 11 -18 33q0 16 12 28t28 12q12 0 23 -7l161 -112q17 -11 17 -33z" />
    <glyph glyph-name="Aacute" unicode="&#xc1;" 
d="M621 50q0 -50 -66 -50h-139q-66 0 -66 50t66 50h23l-23 58h-238l-23 -58h23q66 0 66 -50t-66 -50h-133q-66 0 -66 50t67 50l155 383h-63q-67 0 -67 50t67 50h216l199 -483q68 0 68 -50zM375 258l-78 192l-79 -192h157zM458 772q0 -22 -18 -33l-161 -112q-11 -7 -22 -7
q-17 0 -28.5 12t-11.5 28q0 22 17 33l161 112q10 7 23 7q16 0 28 -12t12 -28z" />
    <glyph glyph-name="Acircumflex" unicode="&#xc2;" 
d="M621 50q0 -50 -66 -50h-139q-66 0 -66 50t66 50h23l-23 58h-238l-23 -58h23q66 0 66 -50t-66 -50h-133q-66 0 -66 50t67 50l155 383h-63q-67 0 -67 50t67 50h216l199 -483q68 0 68 -50zM375 258l-78 192l-79 -192h157zM470 660q0 -17 -11.5 -29t-28.5 -12q-14 0 -26 10
l-107 91l-107 -91q-12 -10 -25 -10q-17 0 -29 12t-12 29q0 18 15 30l132 113q12 10 26 10t26 -10l132 -113q15 -12 15 -30z" />
    <glyph glyph-name="Atilde" unicode="&#xc3;" 
d="M621 50q0 -50 -66 -50h-139q-66 0 -66 50t66 50h23l-23 58h-238l-23 -58h23q66 0 66 -50t-66 -50h-133q-66 0 -66 50t67 50l155 383h-63q-67 0 -67 50t67 50h216l199 -483q68 0 68 -50zM375 258l-78 192l-79 -192h157zM482 755q0 -29 -38.5 -67t-70.5 -38q-34 0 -99 43
q-32 21 -50 21q-13 0 -23 -8.5t-32 -37.5q-11 -15 -26 -15q-13 0 -22 9t-9 21q0 31 38 65.5t72 34.5q17 0 34 -7.5t56 -30.5q43 -26 58 -26q11 0 17.5 5.5t23.5 28.5q21 30 39 30q13 0 22.5 -8.5t9.5 -19.5z" />
    <glyph glyph-name="Adieresis" unicode="&#xc4;" 
d="M621 50q0 -50 -66 -50h-139q-66 0 -66 50t66 50h23l-23 58h-238l-23 -58h23q66 0 66 -50t-66 -50h-133q-66 0 -66 50t67 50l155 383h-63q-67 0 -67 50t67 50h216l199 -483q68 0 68 -50zM375 258l-78 192l-79 -192h157zM465 715q0 -24 -17.5 -41.5t-42.5 -17.5t-42.5 17.5
t-17.5 42.5t17.5 42.5t42.5 17.5t42.5 -17.5t17.5 -43.5zM249 715q0 -24 -17.5 -41.5t-42.5 -17.5t-42.5 17.5t-17.5 42.5t17.5 42.5t42.5 17.5t42.5 -17.5t17.5 -43.5z" />
    <glyph glyph-name="Aring" unicode="&#xc5;" 
d="M621 50q0 -50 -66 -50h-139q-66 0 -66 50t66 50h23l-23 58h-238l-23 -58h23q66 0 66 -50t-66 -50h-133q-66 0 -66 50t67 50l155 383h-63q-67 0 -67 50t67 50h216l199 -483q68 0 68 -50zM375 258l-78 192l-79 -192h157zM432 728q0 -53 -40 -92t-95 -39t-95 39.5t-40 94.5
q0 53 40 92.5t95 39.5q56 0 95.5 -39.5t39.5 -95.5zM374 729q0 31 -22.5 53t-54.5 22q-31 0 -54 -22t-23 -51q0 -30 23 -52t54 -22t54 21.5t23 50.5z" />
    <glyph glyph-name="AE" unicode="&#xc6;" 
d="M614 0h-349q-26 0 -41 14t-15 38q0 20 18 34t40 14v58h-93l-17 -58q41 -6 41 -47q0 -53 -57 -53h-95q-66 0 -66 50q0 25 10.5 37.5t46.5 12.5h16l115 383h-19q-37 0 -49 13t-12 37q0 50 66 50h439v-125q0 -19 -4 -31t-12 -17t-15 -6.5t-19 -1.5q-16 0 -25.5 3t-17 15.5
t-7.5 37.5v25h-126v-151h25q0 26 12.5 43t34.5 17q24 0 35.5 -12.5t11.5 -48.5v-78q0 -37 -12 -49t-35 -12q-22 0 -34.5 16.5t-12.5 44.5h-25v-153h147v13q0 35 12.5 45.5t37.5 10.5q12 0 20 -1.5t15.5 -7t11 -17t3.5 -30.5v-113zM267 259v212l-64 -212h64z" />
    <glyph glyph-name="Ccedilla" unicode="&#xc7;" 
d="M564 109q0 -40 -59.5 -77t-142.5 -44v-40q75 -16 75 -94q0 -43 -30.5 -73.5t-76.5 -30.5q-41 0 -80.5 18.5t-39.5 44.5q0 14 10.5 24.5t24.5 10.5q1 0 34.5 -14t51.5 -14q16 0 26 9.5t10 22.5q0 16 -14 26.5t-39 10.5q-9 0 -22 -2v101q-114 11 -186.5 83.5t-72.5 177.5
v66q0 120 78 201t194 81q70 0 142 -34l10 -4q17 24 42 24q50 0 50 -66v-84q0 -66 -50 -66q-21 0 -32 10.5t-17 42.5q-6 33 -47.5 55t-93.5 22q-76 0 -126 -51.5t-50 -130.5v-64q0 -75 53.5 -120t143.5 -45q56 0 84.5 10.5t63.5 46.5q16 16 36 16t35 -15t15 -35z" />
    <glyph glyph-name="Egrave" unicode="&#xc8;" 
d="M550 0h-471q-66 0 -66 50q0 23 13 36.5t49 13.5h19v383h-19q-36 0 -49 13.5t-13 36.5q0 50 66 50h449v-150q0 -67 -50 -67t-50 67v50h-234v-141h85q0 38 14 56t35 18q50 0 50 -67v-113q0 -66 -49 -66q-50 0 -50 73h-85v-143h256v52q0 67 50 67t50 -67v-152zM384 660
q0 -16 -12 -28t-28 -12q-12 0 -22 7l-161 112q-18 11 -18 33q0 16 11.5 28t28.5 12q12 0 23 -7l161 -112q17 -11 17 -33z" />
    <glyph glyph-name="Eacute" unicode="&#xc9;" 
d="M550 0h-471q-66 0 -66 50q0 23 13 36.5t49 13.5h19v383h-19q-36 0 -49 13.5t-13 36.5q0 50 66 50h449v-150q0 -67 -50 -67t-50 67v50h-234v-141h85q0 38 14 56t35 18q50 0 50 -67v-113q0 -66 -49 -66q-50 0 -50 73h-85v-143h256v52q0 67 50 67t50 -67v-152zM465 772
q0 -22 -18 -33l-161 -112q-11 -7 -22 -7q-16 0 -28 12t-12 28q0 22 17 33l161 112q10 7 23 7q17 0 28.5 -12t11.5 -28z" />
    <glyph glyph-name="Ecircumflex" unicode="&#xca;" 
d="M550 0h-471q-66 0 -66 50q0 23 13 36.5t49 13.5h19v383h-19q-36 0 -49 13.5t-13 36.5q0 50 66 50h449v-150q0 -67 -50 -67t-50 67v50h-234v-141h85q0 38 14 56t35 18q50 0 50 -67v-113q0 -66 -49 -66q-50 0 -50 73h-85v-143h256v52q0 67 50 67t50 -67v-152zM477 660
q0 -17 -11.5 -29t-28.5 -12q-14 0 -26 10l-107 91l-107 -91q-12 -10 -25 -10q-17 0 -29 12t-12 29q0 18 15 30l132 113q12 10 26 10t26 -10l132 -113q15 -12 15 -30z" />
    <glyph glyph-name="Edieresis" unicode="&#xcb;" 
d="M550 0h-471q-66 0 -66 50q0 23 13 36.5t49 13.5h19v383h-19q-36 0 -49 13.5t-13 36.5q0 50 66 50h449v-150q0 -67 -50 -67t-50 67v50h-234v-141h85q0 38 14 56t35 18q50 0 50 -67v-113q0 -66 -49 -66q-50 0 -50 73h-85v-143h256v52q0 67 50 67t50 -67v-152zM472 715
q0 -24 -17.5 -41.5t-42.5 -17.5t-42.5 17.5t-17.5 42.5t17.5 42.5t42.5 17.5t42.5 -17.5t17.5 -43.5zM256 715q0 -24 -17.5 -41.5t-42.5 -17.5t-42.5 17.5t-17.5 42.5t17.5 42.5t42.5 17.5t42.5 -17.5t17.5 -43.5z" />
    <glyph glyph-name="Igrave" unicode="&#xcc;" 
d="M517 50q0 -50 -66 -50h-302q-66 0 -66 50t66 50h101v383h-101q-66 0 -66 50t66 50h302q66 0 66 -50t-66 -50h-101v-383h101q66 0 66 -50zM380 660q0 -16 -12 -28t-28 -12q-12 0 -22 7l-161 112q-18 11 -18 33q0 16 11.5 28t28.5 12q13 0 23 -7l161 -112q17 -11 17 -33z
" />
    <glyph glyph-name="Iacute" unicode="&#xcd;" 
d="M517 50q0 -50 -66 -50h-302q-66 0 -66 50t66 50h101v383h-101q-66 0 -66 50t66 50h302q66 0 66 -50t-66 -50h-101v-383h101q66 0 66 -50zM461 772q0 -22 -18 -33l-161 -112q-10 -7 -22 -7q-16 0 -28 12t-12 28q0 22 17 33l161 112q10 7 23 7q17 0 28.5 -12t11.5 -28z" />
    <glyph glyph-name="Icircumflex" unicode="&#xce;" 
d="M517 50q0 -50 -66 -50h-302q-66 0 -66 50t66 50h101v383h-101q-66 0 -66 50t66 50h302q66 0 66 -50t-66 -50h-101v-383h101q66 0 66 -50zM473 660q0 -17 -11.5 -29t-28.5 -12q-14 0 -26 10l-107 91l-107 -91q-12 -10 -25 -10q-17 0 -29 12t-12 29q0 18 15 30l132 113
q12 10 26 10t26 -10l132 -113q15 -12 15 -30z" />
    <glyph glyph-name="Idieresis" unicode="&#xcf;" 
d="M517 50q0 -50 -66 -50h-302q-66 0 -66 50t66 50h101v383h-101q-66 0 -66 50t66 50h302q66 0 66 -50t-66 -50h-101v-383h101q66 0 66 -50zM468 715q0 -24 -17.5 -41.5t-42.5 -17.5t-42.5 17.5t-17.5 42.5t17.5 42.5t42.5 17.5t42.5 -17.5t17.5 -43.5zM252 715
q0 -24 -17.5 -41.5t-42.5 -17.5t-42.5 17.5t-17.5 42.5t17.5 42.5t42.5 17.5t42.5 -17.5t17.5 -43.5z" />
    <glyph glyph-name="Eth" unicode="&#xd0;" 
d="M550 258q0 -114 -72.5 -186t-193.5 -72h-205q-66 0 -66 50q0 24 16 37t45 13v152q-36 0 -50 10t-14 31q0 22 12.5 30.5t51.5 8.5v151q-61 0 -61 50t67 50h212q109 0 183.5 -80t74.5 -198v-47zM450 261v46q0 74 -45 125t-121 51h-110v-151h74q38 0 47 -8.5t9 -30.5
q0 -24 -11.5 -32t-44.5 -8h-74v-153h111q80 0 122.5 42.5t42.5 118.5z" />
    <glyph glyph-name="Ntilde" unicode="&#xd1;" 
d="M592 533q0 -50 -61 -50v-483h-99l-259 394v-294h35q66 0 66 -50t-66 -50h-129q-67 0 -67 50t61 50v383h-19q-36 0 -49 13.5t-13 36.5q0 50 66 50h115l258 -392v292h-35q-66 0 -66 50t66 50h130q66 0 66 -50zM487 755q0 -29 -38.5 -67t-70.5 -38q-34 0 -99 43
q-31 21 -50 21q-13 0 -23 -8.5t-32 -37.5q-11 -15 -26 -15q-13 0 -22 9t-9 21q0 31 38 65.5t72 34.5q17 0 34 -7.5t56 -30.5q43 -26 58 -26q11 0 17.5 5.5t23.5 28.5q21 30 39 30q13 0 22.5 -8.5t9.5 -19.5z" />
    <glyph glyph-name="Ograve" unicode="&#xd2;" 
d="M579 287q0 -123 -82.5 -212t-196.5 -89q-116 0 -197.5 89.5t-81.5 216.5q0 126 82 215.5t197 89.5t197 -90t82 -220zM479 289q0 86 -52.5 147t-126.5 61q-73 0 -126 -60.5t-53 -144.5q0 -85 52.5 -145.5t126.5 -60.5q73 0 126 60t53 143zM380 660q0 -16 -12 -28t-28 -12
q-12 0 -22 7l-161 112q-18 11 -18 33q0 16 11.5 28t28.5 12q13 0 23 -7l161 -112q17 -11 17 -33z" />
    <glyph glyph-name="Oacute" unicode="&#xd3;" 
d="M579 287q0 -123 -82.5 -212t-196.5 -89q-116 0 -197.5 89.5t-81.5 216.5q0 126 82 215.5t197 89.5t197 -90t82 -220zM479 289q0 86 -52.5 147t-126.5 61q-73 0 -126 -60.5t-53 -144.5q0 -85 52.5 -145.5t126.5 -60.5q73 0 126 60t53 143zM461 772q0 -22 -18 -33
l-161 -112q-10 -7 -22 -7q-16 0 -28 12t-12 28q0 22 17 33l161 112q10 7 23 7q17 0 28.5 -12t11.5 -28z" />
    <glyph glyph-name="Ocircumflex" unicode="&#xd4;" 
d="M579 287q0 -123 -82.5 -212t-196.5 -89q-116 0 -197.5 89.5t-81.5 216.5q0 126 82 215.5t197 89.5t197 -90t82 -220zM479 289q0 86 -52.5 147t-126.5 61q-73 0 -126 -60.5t-53 -144.5q0 -85 52.5 -145.5t126.5 -60.5q73 0 126 60t53 143zM473 660q0 -17 -11.5 -29
t-28.5 -12q-14 0 -26 10l-107 91l-107 -91q-12 -10 -25 -10q-17 0 -29 12t-12 29q0 18 15 30l132 113q12 10 26 10t26 -10l132 -113q15 -12 15 -30z" />
    <glyph glyph-name="Otilde" unicode="&#xd5;" 
d="M579 287q0 -123 -82.5 -212t-196.5 -89q-116 0 -197.5 89.5t-81.5 216.5q0 126 82 215.5t197 89.5t197 -90t82 -220zM479 289q0 86 -52.5 147t-126.5 61q-73 0 -126 -60.5t-53 -144.5q0 -85 52.5 -145.5t126.5 -60.5q73 0 126 60t53 143zM485 755q0 -29 -38.5 -67
t-70.5 -38q-34 0 -99 43q-32 21 -50 21q-13 0 -23 -8.5t-32 -37.5q-11 -15 -26 -15q-13 0 -22 9t-9 21q0 31 38 65.5t72 34.5q17 0 34 -7.5t56 -30.5q43 -26 58 -26q11 0 17.5 5.5t23.5 28.5q21 30 39 30q13 0 22.5 -8.5t9.5 -19.5z" />
    <glyph glyph-name="Odieresis" unicode="&#xd6;" 
d="M579 287q0 -123 -82.5 -212t-196.5 -89q-116 0 -197.5 89.5t-81.5 216.5q0 126 82 215.5t197 89.5t197 -90t82 -220zM479 289q0 86 -52.5 147t-126.5 61q-73 0 -126 -60.5t-53 -144.5q0 -85 52.5 -145.5t126.5 -60.5q73 0 126 60t53 143zM468 715q0 -24 -17.5 -41.5
t-42.5 -17.5t-42.5 17.5t-17.5 42.5t17.5 42.5t42.5 17.5t42.5 -17.5t17.5 -43.5zM252 715q0 -24 -17.5 -41.5t-42.5 -17.5t-42.5 17.5t-17.5 42.5t17.5 42.5t42.5 17.5t42.5 -17.5t17.5 -43.5z" />
    <glyph glyph-name="multiply" unicode="&#xd7;" 
d="M502 48q-15 -14 -35.5 -14t-35.5 14l-131 131l-131 -131q-15 -14 -35.5 -14t-35.5 14q-14 15 -14 35.5t14 35.5l131 131l-131 131q-14 15 -14 35.5t14 35.5q15 14 35.5 14t35.5 -14l131 -131l131 131q15 14 35.5 14t35.5 -14q14 -15 14 -35.5t-14 -35.5l-131 -131
l131 -131q14 -15 14 -35.5t-14 -35.5z" />
    <glyph glyph-name="Oslash" unicode="&#xd8;" 
d="M590 590q-1 -19 -20 -42l-52 -65q61 -80 61 -192q0 -126 -82 -215.5t-197 -89.5q-74 0 -141 42l-54 -68q-15 -19 -24 -24.5t-23 -5.5q-20 0 -34.5 14t-14.5 33q0 15 21 42l57 73q-67 88 -67 200q0 126 82 215.5t198 89.5q77 0 149 -48l46 58q15 19 24 25t23 6
q20 0 34 -14t14 -34zM479 290q0 61 -27 110l-231 -293q37 -21 79 -21q73 0 126 60.5t53 143.5zM387 471q-44 26 -88 26q-73 0 -126 -60.5t-53 -144.5q0 -64 32 -118z" />
    <glyph glyph-name="Ugrave" unicode="&#xd9;" 
d="M590 533q0 -50 -61 -50v-278q0 -91 -66.5 -155t-162.5 -64q-95 0 -162 64t-67 155v278q-61 2 -61 50q0 50 66 50h130q66 0 66 -50t-66 -50h-35v-287q0 -46 38 -78t91 -32t91 32t38 78v287h-35q-66 0 -66 50t66 50h130q66 0 66 -50zM380 660q0 -16 -12 -28t-28 -12
q-12 0 -22 7l-161 112q-18 11 -18 33q0 16 11.5 28t28.5 12q13 0 23 -7l161 -112q17 -11 17 -33z" />
    <glyph glyph-name="Uacute" unicode="&#xda;" 
d="M590 533q0 -50 -61 -50v-278q0 -91 -66.5 -155t-162.5 -64q-95 0 -162 64t-67 155v278q-61 2 -61 50q0 50 66 50h130q66 0 66 -50t-66 -50h-35v-287q0 -46 38 -78t91 -32t91 32t38 78v287h-35q-66 0 -66 50t66 50h130q66 0 66 -50zM461 772q0 -22 -18 -33l-161 -112
q-10 -7 -22 -7q-16 0 -28 12t-12 28q0 22 17 33l161 112q10 7 23 7q17 0 28.5 -12t11.5 -28z" />
    <glyph glyph-name="Ucircumflex" unicode="&#xdb;" 
d="M590 533q0 -50 -61 -50v-278q0 -91 -66.5 -155t-162.5 -64q-95 0 -162 64t-67 155v278q-61 2 -61 50q0 50 66 50h130q66 0 66 -50t-66 -50h-35v-287q0 -46 38 -78t91 -32t91 32t38 78v287h-35q-66 0 -66 50t66 50h130q66 0 66 -50zM473 660q0 -17 -11.5 -29t-28.5 -12
q-14 0 -26 10l-107 91l-107 -91q-12 -10 -25 -10q-17 0 -29 12t-12 29q0 18 15 30l132 113q12 10 26 10t26 -10l132 -113q15 -12 15 -30z" />
    <glyph glyph-name="Udieresis" unicode="&#xdc;" 
d="M590 533q0 -50 -61 -50v-278q0 -91 -66.5 -155t-162.5 -64q-95 0 -162 64t-67 155v278q-61 2 -61 50q0 50 66 50h130q66 0 66 -50t-66 -50h-35v-287q0 -46 38 -78t91 -32t91 32t38 78v287h-35q-66 0 -66 50t66 50h130q66 0 66 -50zM468 715q0 -24 -17.5 -41.5
t-42.5 -17.5t-42.5 17.5t-17.5 42.5t17.5 42.5t42.5 17.5t42.5 -17.5t17.5 -43.5zM252 715q0 -24 -17.5 -41.5t-42.5 -17.5t-42.5 17.5t-17.5 42.5t17.5 42.5t42.5 17.5t42.5 -17.5t17.5 -43.5z" />
    <glyph glyph-name="Yacute" unicode="&#xdd;" 
d="M579 533q0 -22 -16 -36t-39 -14h-10l-164 -238v-145h65q67 0 67 -50t-67 -50h-230q-67 0 -67 50t67 50h65v145l-165 238q-64 0 -64 50t67 50h89q66 0 66 -50q0 -33 -38 -49l95 -136l94 136q-40 15 -40 49q0 50 67 50h92q66 0 66 -50zM461 772q0 -22 -18 -33l-161 -112
q-10 -7 -22 -7q-16 0 -28 12t-12 28q0 22 17 33l161 112q10 7 23 7q17 0 28.5 -12t11.5 -28z" />
    <glyph glyph-name="Thorn" unicode="&#xde;" 
d="M523 292q0 -72 -57 -102t-173 -30h-98v-60h99q66 0 66 -50t-66 -50h-214q-66 0 -66 50q0 24 13 37t49 13h19v383h-19q-37 0 -49.5 13.5t-12.5 36.5q0 50 66 50h214q66 0 66 -50t-66 -50h-99v-60h98q116 0 173 -30t57 -101zM421 291q0 28 -22.5 40t-72.5 12h-131v-103h131
q50 0 72.5 12t22.5 39z" />
    <glyph glyph-name="germandbls" unicode="&#xdf;" 
d="M529 165q0 -81 -42.5 -131t-112.5 -50q-52 0 -85.5 32t-33.5 81q0 28 13.5 43.5t36.5 15.5t35 -14q1 -1 6 -16.5t14 -28.5t22 -13q21 0 34 22t13 58q0 56 -39.5 93.5t-111.5 45.5q-55 6 -55 50q0 43 53 49q70 7 70 57q0 28 -22 46t-56 18q-73 0 -73 -62v-361
q43 -8 43 -49q0 -51 -66 -51h-93q-66 0 -66 50q0 24 13 37t49 13h20v378q0 64 48.5 104.5t124.5 40.5t127 -48t51 -119q0 -50 -35 -91q118 -69 118 -200z" />
    <glyph glyph-name="agrave" unicode="&#xe0;" 
d="M571 50q0 -50 -66 -50h-117v23q-75 -39 -166 -39q-74 0 -127 39.5t-53 95.5q0 73 70.5 121t171.5 48q45 0 104 -10v23q0 49 -93 49q-51 0 -116 -17q-25 -6 -40 -6q-21 0 -35 14.5t-14 36.5q0 32 30 42q85 30 172 30q92 0 144.5 -39t52.5 -109v-202h16q66 0 66 -50z
M389 135v50q-63 11 -111 11q-51 0 -90.5 -22t-39.5 -51q0 -17 22 -28t54 -11q82 0 165 51zM372 524q0 -16 -12 -28t-28 -12q-12 0 -22 7l-161 112q-18 11 -18 33q0 16 11.5 28t28.5 12q12 0 23 -7l161 -112q17 -11 17 -33z" />
    <glyph glyph-name="aacute" unicode="&#xe1;" 
d="M571 50q0 -50 -66 -50h-117v23q-75 -39 -166 -39q-74 0 -127 39.5t-53 95.5q0 73 70.5 121t171.5 48q45 0 104 -10v23q0 49 -93 49q-51 0 -116 -17q-25 -6 -40 -6q-21 0 -35 14.5t-14 36.5q0 32 30 42q85 30 172 30q92 0 144.5 -39t52.5 -109v-202h16q66 0 66 -50z
M389 135v50q-63 11 -111 11q-51 0 -90.5 -22t-39.5 -51q0 -17 22 -28t54 -11q82 0 165 51zM453 636q0 -22 -18 -33l-161 -112q-11 -7 -22 -7q-16 0 -28 12t-12 28q0 22 17 33l161 112q10 7 23 7q17 0 28.5 -12t11.5 -28z" />
    <glyph glyph-name="acircumflex" unicode="&#xe2;" 
d="M571 50q0 -50 -66 -50h-117v23q-75 -39 -166 -39q-74 0 -127 39.5t-53 95.5q0 73 70.5 121t171.5 48q45 0 104 -10v23q0 49 -93 49q-51 0 -116 -17q-25 -6 -40 -6q-21 0 -35 14.5t-14 36.5q0 32 30 42q85 30 172 30q92 0 144.5 -39t52.5 -109v-202h16q66 0 66 -50z
M389 135v50q-63 11 -111 11q-51 0 -90.5 -22t-39.5 -51q0 -17 22 -28t54 -11q82 0 165 51zM465 524q0 -17 -11.5 -29t-28.5 -12q-14 0 -26 10l-107 91l-107 -91q-12 -10 -25 -10q-17 0 -29 12t-12 29q0 18 15 30l132 113q12 10 26 10t26 -10l132 -113q15 -12 15 -30z" />
    <glyph glyph-name="atilde" unicode="&#xe3;" 
d="M571 50q0 -50 -66 -50h-117v23q-75 -39 -166 -39q-74 0 -127 39.5t-53 95.5q0 73 70.5 121t171.5 48q45 0 104 -10v23q0 49 -93 49q-51 0 -116 -17q-25 -6 -40 -6q-21 0 -35 14.5t-14 36.5q0 32 30 42q85 30 172 30q92 0 144.5 -39t52.5 -109v-202h16q66 0 66 -50z
M389 135v50q-63 11 -111 11q-51 0 -90.5 -22t-39.5 -51q0 -17 22 -28t54 -11q82 0 165 51zM477 619q0 -29 -38.5 -67t-70.5 -38q-34 0 -99 43q-32 21 -50 21q-13 0 -23 -8.5t-32 -37.5q-11 -15 -26 -15q-13 0 -22 9t-9 21q0 31 38 65.5t72 34.5q17 0 34 -7.5t56 -30.5
q43 -26 58 -26q11 0 17.5 5.5t23.5 28.5q21 30 39 30q13 0 22.5 -8.5t9.5 -19.5z" />
    <glyph glyph-name="adieresis" unicode="&#xe4;" 
d="M571 50q0 -50 -66 -50h-117v23q-75 -39 -166 -39q-74 0 -127 39.5t-53 95.5q0 73 70.5 121t171.5 48q45 0 104 -10v23q0 49 -93 49q-51 0 -116 -17q-25 -6 -40 -6q-21 0 -35 14.5t-14 36.5q0 32 30 42q85 30 172 30q92 0 144.5 -39t52.5 -109v-202h16q66 0 66 -50z
M389 135v50q-63 11 -111 11q-51 0 -90.5 -22t-39.5 -51q0 -17 22 -28t54 -11q82 0 165 51zM460 579q0 -24 -17.5 -41.5t-42.5 -17.5t-42.5 17.5t-17.5 42.5t17.5 42.5t42.5 17.5t42.5 -17.5t17.5 -43.5zM244 579q0 -24 -17.5 -41.5t-42.5 -17.5t-42.5 17.5t-17.5 42.5
t17.5 42.5t42.5 17.5t42.5 -17.5t17.5 -43.5z" />
    <glyph glyph-name="aring" unicode="&#xe5;" 
d="M571 50q0 -50 -66 -50h-117v23q-75 -39 -166 -39q-74 0 -127 39.5t-53 95.5q0 73 70.5 121t171.5 48q45 0 104 -10v23q0 49 -93 49q-51 0 -116 -17q-25 -6 -40 -6q-21 0 -35 14.5t-14 36.5q0 32 30 42q85 30 172 30q92 0 144.5 -39t52.5 -109v-202h16q66 0 66 -50z
M389 135v50q-63 11 -111 11q-51 0 -90.5 -22t-39.5 -51q0 -17 22 -28t54 -11q82 0 165 51zM427 588q0 -53 -40 -92t-95 -39t-95 39.5t-40 94.5q0 53 40 92.5t95 39.5q56 0 95.5 -39.5t39.5 -95.5zM369 589q0 31 -22.5 53t-54.5 22q-31 0 -54 -22t-23 -51q0 -30 23 -52
t54 -22t54 21.5t23 50.5z" />
    <glyph glyph-name="ae" unicode="&#xe6;" 
d="M612 66q0 -37 -55 -59.5t-115 -22.5q-53 0 -100 32q-14 -17 -37 -17q-21 0 -36 17q-51 -32 -110 -32q-78 0 -125 44t-47 117q0 62 65 101.5t143 39.5q17 0 60 -5v20q0 21 -13.5 35t-34.5 14q-19 0 -90 -21q-12 -4 -23 -4q-20 0 -34 15t-14 36q0 36 41 50q74 24 120 24
q66 0 116 -56q52 56 112 56q71 0 123.5 -64t52.5 -168v-46h-251q13 -47 31.5 -67.5t49.5 -20.5q21 0 69.5 17t55.5 17q20 0 33 -15t13 -37zM502 258q-14 92 -70 92q-54 0 -70 -92h140zM255 130v59q-31 8 -56 8q-45 0 -78 -14.5t-33 -40.5t19 -42t51 -16q43 0 97 46z" />
    <glyph glyph-name="ccedilla" unicode="&#xe7;" 
d="M565 89q0 -39 -57 -69t-150 -35v-37q75 -16 75 -94q0 -43 -30.5 -73.5t-76.5 -30.5q-41 0 -80.5 18.5t-39.5 44.5q0 14 10.5 24.5t24.5 10.5q1 0 34.5 -14t51.5 -14q16 0 26 9.5t10 22.5q0 16 -14 26.5t-39 10.5q-9 0 -22 -2v98q-112 8 -173 67t-61 155q0 107 71.5 175
t184.5 68q86 0 144 -30q9 30 38 30q48 0 48 -66v-77q0 -66 -50 -66q-20 0 -32.5 9.5t-18.5 38.5q-14 61 -129 61q-71 0 -113.5 -40.5t-42.5 -102.5q0 -123 176 -123q59 0 89.5 8t65.5 36q13 12 30 12q20 0 35 -15t15 -36z" />
    <glyph glyph-name="egrave" unicode="&#xe8;" 
d="M550 67q0 -38 -79 -60.5t-174 -22.5q-116 0 -190 65t-74 167q0 99 74.5 166.5t183.5 67.5q112 0 185.5 -68t73.5 -171v-39h-408q34 -88 164 -88q56 0 163 28q20 5 33 5q20 0 34 -14.5t14 -35.5zM439 260q-12 41 -52 65.5t-95 24.5t-95.5 -25t-51.5 -65h294zM374 524
q0 -16 -12 -28t-28 -12q-12 0 -22 7l-161 112q-18 11 -18 33q0 16 11.5 28t28.5 12q13 0 23 -7l161 -112q17 -11 17 -33z" />
    <glyph glyph-name="eacute" unicode="&#xe9;" 
d="M550 67q0 -38 -79 -60.5t-174 -22.5q-116 0 -190 65t-74 167q0 99 74.5 166.5t183.5 67.5q112 0 185.5 -68t73.5 -171v-39h-408q34 -88 164 -88q56 0 163 28q20 5 33 5q20 0 34 -14.5t14 -35.5zM439 260q-12 41 -52 65.5t-95 24.5t-95.5 -25t-51.5 -65h294zM455 636
q0 -22 -18 -33l-161 -112q-10 -7 -22 -7q-16 0 -28 12t-12 28q0 22 17 33l161 112q10 7 23 7q17 0 28.5 -12t11.5 -28z" />
    <glyph glyph-name="ecircumflex" unicode="&#xea;" 
d="M550 67q0 -38 -79 -60.5t-174 -22.5q-116 0 -190 65t-74 167q0 99 74.5 166.5t183.5 67.5q112 0 185.5 -68t73.5 -171v-39h-408q34 -88 164 -88q56 0 163 28q20 5 33 5q20 0 34 -14.5t14 -35.5zM439 260q-12 41 -52 65.5t-95 24.5t-95.5 -25t-51.5 -65h294zM467 524
q0 -17 -11.5 -29t-28.5 -12q-14 0 -26 10l-107 91l-107 -91q-12 -10 -25 -10q-17 0 -29 12t-12 29q0 18 15 30l132 113q12 10 26 10t26 -10l132 -113q15 -12 15 -30z" />
    <glyph glyph-name="edieresis" unicode="&#xeb;" 
d="M550 67q0 -38 -79 -60.5t-174 -22.5q-116 0 -190 65t-74 167q0 99 74.5 166.5t183.5 67.5q112 0 185.5 -68t73.5 -171v-39h-408q34 -88 164 -88q56 0 163 28q20 5 33 5q20 0 34 -14.5t14 -35.5zM439 260q-12 41 -52 65.5t-95 24.5t-95.5 -25t-51.5 -65h294zM462 579
q0 -24 -17.5 -41.5t-42.5 -17.5t-42.5 17.5t-17.5 42.5t17.5 42.5t42.5 17.5t42.5 -17.5t17.5 -43.5zM246 579q0 -24 -17.5 -41.5t-42.5 -17.5t-42.5 17.5t-17.5 42.5t17.5 42.5t42.5 17.5t42.5 -17.5t17.5 -43.5z" />
    <glyph glyph-name="igrave" unicode="&#xec;" 
d="M538 50q0 -50 -66 -50h-344q-66 0 -66 50t66 50h122v237h-78q-67 0 -67 50t67 50h178v-337h122q66 0 66 -50zM380 524q0 -16 -12 -28t-28 -12q-12 0 -22 7l-161 112q-18 11 -18 33q0 16 11.5 28t28.5 12q13 0 23 -7l161 -112q17 -11 17 -33z" />
    <glyph glyph-name="iacute" unicode="&#xed;" 
d="M538 50q0 -50 -66 -50h-344q-66 0 -66 50t66 50h122v237h-78q-67 0 -67 50t67 50h178v-337h122q66 0 66 -50zM461 636q0 -22 -18 -33l-161 -112q-10 -7 -22 -7q-16 0 -28 12t-12 28q0 22 17 33l161 112q10 7 23 7q17 0 28.5 -12t11.5 -28z" />
    <glyph glyph-name="icircumflex" unicode="&#xee;" 
d="M538 50q0 -50 -66 -50h-344q-66 0 -66 50t66 50h122v237h-78q-67 0 -67 50t67 50h178v-337h122q66 0 66 -50zM473 524q0 -17 -11.5 -29t-28.5 -12q-14 0 -26 10l-107 91l-107 -91q-12 -10 -25 -10q-17 0 -29 12t-12 29q0 18 15 30l132 113q12 10 26 10t26 -10l132 -113
q15 -12 15 -30z" />
    <glyph glyph-name="idieresis" unicode="&#xef;" 
d="M538 50q0 -50 -66 -50h-344q-66 0 -66 50t66 50h122v237h-78q-67 0 -67 50t67 50h178v-337h122q66 0 66 -50zM468 579q0 -24 -17.5 -41.5t-42.5 -17.5t-42.5 17.5t-17.5 42.5t17.5 42.5t42.5 17.5t42.5 -17.5t17.5 -43.5zM252 579q0 -24 -17.5 -41.5t-42.5 -17.5
t-42.5 17.5t-17.5 42.5t17.5 42.5t42.5 17.5t42.5 -17.5t17.5 -43.5z" />
    <glyph glyph-name="eth" unicode="&#xf0;" 
d="M558 233q0 -117 -75 -183t-183 -66q-107 0 -182.5 66.5t-75.5 160.5q0 96 71.5 164t172.5 68q38 0 67.5 -9.5t76.5 -37.5q-63 79 -137 122l-92 -50q-23 -13 -32 -12q-13 0 -21.5 10.5t-8.5 26.5q0 10 4 15t20 14l50 29l-55 22q-26 8 -26 31q0 14 12 25t28 11q33 0 99 -31
l28 -13l77 41q18 9 33 9q13 0 22 -9.5t9 -23.5q0 -18 -23 -30l-45 -25q97 -67 141.5 -145.5t44.5 -179.5zM456 210q0 59 -45 99.5t-111 40.5q-65 0 -110.5 -40t-45.5 -98q0 -53 45.5 -90.5t110.5 -37.5q64 0 110 37t46 89z" />
    <glyph glyph-name="ntilde" unicode="&#xf1;" 
d="M571 50q0 -50 -66 -50h-89q-67 0 -67 50t61 50v178q0 72 -90 72q-35 0 -62.5 -15t-62.5 -53v-182h6q66 0 66 -50t-66 -50h-112q-66 0 -66 50t66 50h6v237q-61 2 -61 50q0 50 67 50h94v-48q36 34 66 47.5t71 13.5q78 0 128 -45t50 -123v-182q61 0 61 -50zM488 619
q0 -29 -38.5 -67t-70.5 -38q-34 0 -99 43q-32 21 -50 21q-13 0 -23 -8.5t-32 -37.5q-11 -15 -26 -15q-13 0 -22 9t-9 21q0 31 38 65.5t72 34.5q17 0 34 -7.5t56 -30.5q43 -26 58 -26q11 0 17.5 5.5t23.5 28.5q21 30 39 30q13 0 22.5 -8.5t9.5 -19.5z" />
    <glyph glyph-name="ograve" unicode="&#xf2;" 
d="M558 217q0 -98 -75 -165.5t-183 -67.5t-183 67.5t-75 165.5q0 99 75 166t186 67q106 0 180.5 -68t74.5 -165zM458 217q0 56 -45.5 94.5t-110.5 38.5q-68 0 -114 -38t-46 -95q0 -56 45.5 -94.5t112.5 -38.5t112.5 38.5t45.5 94.5zM382 524q0 -16 -12 -28t-28 -12
q-12 0 -22 7l-161 112q-18 11 -18 33q0 16 11.5 28t28.5 12q13 0 23 -7l161 -112q17 -11 17 -33z" />
    <glyph glyph-name="oacute" unicode="&#xf3;" 
d="M558 217q0 -98 -75 -165.5t-183 -67.5t-183 67.5t-75 165.5q0 99 75 166t186 67q106 0 180.5 -68t74.5 -165zM458 217q0 56 -45.5 94.5t-110.5 38.5q-68 0 -114 -38t-46 -95q0 -56 45.5 -94.5t112.5 -38.5t112.5 38.5t45.5 94.5zM463 636q0 -22 -18 -33l-161 -112
q-10 -7 -22 -7q-16 0 -28 12t-12 28q0 22 17 33l161 112q10 7 23 7q17 0 28.5 -12t11.5 -28z" />
    <glyph glyph-name="ocircumflex" unicode="&#xf4;" 
d="M558 217q0 -98 -75 -165.5t-183 -67.5t-183 67.5t-75 165.5q0 99 75 166t186 67q106 0 180.5 -68t74.5 -165zM458 217q0 56 -45.5 94.5t-110.5 38.5q-68 0 -114 -38t-46 -95q0 -56 45.5 -94.5t112.5 -38.5t112.5 38.5t45.5 94.5zM475 524q0 -17 -11.5 -29t-28.5 -12
q-14 0 -26 10l-107 91l-107 -91q-12 -10 -25 -10q-17 0 -29 12t-12 29q0 18 15 30l132 113q12 10 26 10t26 -10l132 -113q15 -12 15 -30z" />
    <glyph glyph-name="otilde" unicode="&#xf5;" 
d="M558 217q0 -98 -75 -165.5t-183 -67.5t-183 67.5t-75 165.5q0 99 75 166t186 67q106 0 180.5 -68t74.5 -165zM458 217q0 56 -45.5 94.5t-110.5 38.5q-68 0 -114 -38t-46 -95q0 -56 45.5 -94.5t112.5 -38.5t112.5 38.5t45.5 94.5zM487 619q0 -29 -38.5 -67t-70.5 -38
q-34 0 -99 43q-31 21 -50 21q-13 0 -23 -8.5t-32 -37.5q-11 -15 -26 -15q-13 0 -22 9t-9 21q0 31 38 65.5t72 34.5q17 0 34 -7.5t56 -30.5q43 -26 58 -26q11 0 17.5 5.5t23.5 28.5q21 30 39 30q13 0 22.5 -8.5t9.5 -19.5z" />
    <glyph glyph-name="odieresis" unicode="&#xf6;" 
d="M558 217q0 -98 -75 -165.5t-183 -67.5t-183 67.5t-75 165.5q0 99 75 166t186 67q106 0 180.5 -68t74.5 -165zM458 217q0 56 -45.5 94.5t-110.5 38.5q-68 0 -114 -38t-46 -95q0 -56 45.5 -94.5t112.5 -38.5t112.5 38.5t45.5 94.5zM470 579q0 -24 -17.5 -41.5t-42.5 -17.5
t-42.5 17.5t-17.5 42.5t17.5 42.5t42.5 17.5t42.5 -17.5t17.5 -43.5zM254 579q0 -24 -17.5 -41.5t-42.5 -17.5t-42.5 17.5t-17.5 42.5t17.5 42.5t42.5 17.5t42.5 -17.5t17.5 -43.5z" />
    <glyph glyph-name="divide" unicode="&#xf7;" 
d="M585 250q0 -21 -14.5 -35.5t-35.5 -14.5h-470q-21 0 -35.5 14.5t-14.5 35.5t14.5 35.5t35.5 14.5h470q21 0 35.5 -14.5t14.5 -35.5zM366 444q0 -27 -19.5 -46.5t-46.5 -19.5t-46.5 19.5t-19.5 46.5q0 28 19.5 47t46.5 19t46.5 -19t19.5 -47zM366 56q0 -28 -19.5 -47
t-46.5 -19t-46.5 19t-19.5 47q0 27 19.5 46.5t46.5 19.5t46.5 -19.5t19.5 -46.5z" />
    <glyph glyph-name="oslash" unicode="&#xf8;" 
d="M573 447q0 -13 -4.5 -20.5t-20.5 -24.5l-42 -43q52 -66 52 -142q0 -98 -75 -165.5t-183 -67.5q-66 0 -128 30l-56 -58q-26 -26 -45 -26q-20 0 -34 14t-14 34q0 18 25 44l48 50q-54 67 -54 145q0 97 74.5 165t181.5 68q75 0 134 -31l48 49q26 26 46 26t33.5 -14t13.5 -33z
M458 217q0 34 -22 69l-189 -195q25 -7 52 -7q67 0 113 38.5t46 94.5zM357 342q-34 8 -57 8q-67 0 -112.5 -38.5t-45.5 -94.5q0 -38 25 -72z" />
    <glyph glyph-name="ugrave" unicode="&#xf9;" 
d="M571 50q0 -50 -66 -50h-95v48q-37 -35 -66.5 -48t-70.5 -13q-79 0 -128.5 45t-49.5 124v181h-27q-23 -1 -39 13.5t-16 36.5q0 50 66 50h116v-278q0 -72 88 -72q38 0 63 13.5t64 54.5v182h-35q-66 0 -66 50t66 50h135v-337q61 0 61 -50zM383 524q0 -16 -11.5 -28
t-28.5 -12q-11 0 -22 7l-161 112q-18 11 -18 33q0 16 12 28t28 12q12 0 23 -7l161 -112q17 -11 17 -33z" />
    <glyph glyph-name="uacute" unicode="&#xfa;" 
d="M571 50q0 -50 -66 -50h-95v48q-37 -35 -66.5 -48t-70.5 -13q-79 0 -128.5 45t-49.5 124v181h-27q-23 -1 -39 13.5t-16 36.5q0 50 66 50h116v-278q0 -72 88 -72q38 0 63 13.5t64 54.5v182h-35q-66 0 -66 50t66 50h135v-337q61 0 61 -50zM464 636q0 -22 -18 -33l-161 -112
q-11 -7 -22 -7q-17 0 -28.5 12t-11.5 28q0 22 17 33l161 112q11 7 23 7q16 0 28 -12t12 -28z" />
    <glyph glyph-name="ucircumflex" unicode="&#xfb;" 
d="M571 50q0 -50 -66 -50h-95v48q-37 -35 -66.5 -48t-70.5 -13q-79 0 -128.5 45t-49.5 124v181h-27q-23 -1 -39 13.5t-16 36.5q0 50 66 50h116v-278q0 -72 88 -72q38 0 63 13.5t64 54.5v182h-35q-66 0 -66 50t66 50h135v-337q61 0 61 -50zM476 524q0 -17 -11.5 -29
t-28.5 -12q-14 0 -26 10l-107 91l-107 -91q-12 -10 -25 -10q-17 0 -29 12t-12 29q0 18 15 30l132 113q12 10 26 10t26 -10l132 -113q15 -12 15 -30z" />
    <glyph glyph-name="udieresis" unicode="&#xfc;" 
d="M571 50q0 -50 -66 -50h-95v48q-37 -35 -66.5 -48t-70.5 -13q-79 0 -128.5 45t-49.5 124v181h-27q-23 -1 -39 13.5t-16 36.5q0 50 66 50h116v-278q0 -72 88 -72q38 0 63 13.5t64 54.5v182h-35q-66 0 -66 50t66 50h135v-337q61 0 61 -50zM471 579q0 -24 -17.5 -41.5
t-42.5 -17.5t-42.5 17.5t-17.5 42.5t17.5 42.5t42.5 17.5t42.5 -17.5t17.5 -43.5zM255 579q0 -24 -17.5 -41.5t-42.5 -17.5t-42.5 17.5t-17.5 42.5t17.5 42.5t42.5 17.5t42.5 -17.5t17.5 -43.5z" />
    <glyph glyph-name="yacute" unicode="&#xfd;" 
d="M579 387q0 -45 -52 -50l-230 -442h5q66 0 66 -50t-66 -50h-215q-66 0 -66 50t66 50h100l55 108l-172 334q-49 6 -49 50q0 50 66 50h90q66 0 66 -50q0 -48 -59 -50l114 -223l120 223q-64 0 -64 50t67 50h92q66 0 66 -50zM460 636q0 -22 -18 -33l-161 -112q-11 -7 -22 -7
q-17 0 -28.5 12t-11.5 28q0 22 17 33l161 112q10 7 23 7q16 0 28 -12t12 -28z" />
    <glyph glyph-name="thorn" unicode="&#xfe;" 
d="M571 212q0 -93 -69.5 -159.5t-172.5 -66.5q-82 0 -155 56v-147h58q66 0 66 -50t-66 -50h-174q-66 0 -66 50q0 24 13 37t49 13h20v629h-20q-36 0 -49 13t-13 37q0 50 66 50h116v-232q37 32 72 45t82 13q103 0 173 -69.5t70 -168.5zM471 218q0 52 -42.5 92t-105.5 40
q-65 0 -107 -40t-42 -91q0 -55 42 -94t107 -39q63 0 105.5 39t42.5 93z" />
    <glyph glyph-name="ydieresis" unicode="&#xff;" 
d="M579 387q0 -45 -52 -50l-230 -442h5q66 0 66 -50t-66 -50h-215q-66 0 -66 50t66 50h100l55 108l-172 334q-49 6 -49 50q0 50 66 50h90q66 0 66 -50q0 -48 -59 -50l114 -223l120 223q-64 0 -64 50t67 50h92q66 0 66 -50zM467 579q0 -24 -17.5 -41.5t-42.5 -17.5
t-42.5 17.5t-17.5 42.5t17.5 42.5t42.5 17.5t42.5 -17.5t17.5 -43.5zM251 579q0 -24 -17.5 -41.5t-42.5 -17.5t-42.5 17.5t-17.5 42.5t17.5 42.5t42.5 17.5t42.5 -17.5t17.5 -43.5z" />
    <glyph glyph-name="Amacron" unicode="&#x100;" 
d="M621 50q0 -50 -66 -50h-139q-66 0 -66 50t66 50h23l-23 58h-238l-23 -58h23q66 0 66 -50t-66 -50h-133q-66 0 -66 50t67 50l155 383h-63q-67 0 -67 50t67 50h216l199 -483q68 0 68 -50zM375 258l-78 192l-79 -192h157zM522 716q0 -40 -53 -40h-344q-53 0 -53 40t53 40
h344q53 0 53 -40z" />
    <glyph glyph-name="amacron" unicode="&#x101;" 
d="M571 50q0 -50 -66 -50h-117v23q-75 -39 -166 -39q-74 0 -127 39.5t-53 95.5q0 73 70.5 121t171.5 48q45 0 104 -10v23q0 49 -93 49q-51 0 -116 -17q-25 -6 -40 -6q-21 0 -35 14.5t-14 36.5q0 32 30 42q85 30 172 30q92 0 144.5 -39t52.5 -109v-202h16q66 0 66 -50z
M389 135v50q-63 11 -111 11q-51 0 -90.5 -22t-39.5 -51q0 -17 22 -28t54 -11q82 0 165 51zM517 580q0 -40 -53 -40h-344q-53 0 -53 40t53 40h344q53 0 53 -40z" />
    <glyph glyph-name="Abreve" unicode="&#x102;" 
d="M621 50q0 -50 -66 -50h-139q-66 0 -66 50t66 50h23l-23 58h-238l-23 -58h23q66 0 66 -50t-66 -50h-133q-66 0 -66 50t67 50l155 383h-63q-67 0 -67 50t67 50h216l199 -483q68 0 68 -50zM375 258l-78 192l-79 -192h157zM478 772q0 -66 -54 -109t-127 -43t-127 43t-54 109
q0 16 12 28t28 12t28 -12t12 -28q0 -33 30 -52t71 -19t71 19t30 52q0 16 12 28t28 12t28 -12t12 -28z" />
    <glyph glyph-name="abreve" unicode="&#x103;" 
d="M571 50q0 -50 -66 -50h-117v23q-75 -39 -166 -39q-74 0 -127 39.5t-53 95.5q0 73 70.5 121t171.5 48q45 0 104 -10v23q0 49 -93 49q-51 0 -116 -17q-25 -6 -40 -6q-21 0 -35 14.5t-14 36.5q0 32 30 42q85 30 172 30q92 0 144.5 -39t52.5 -109v-202h16q66 0 66 -50z
M389 135v50q-63 11 -111 11q-51 0 -90.5 -22t-39.5 -51q0 -17 22 -28t54 -11q82 0 165 51zM473 636q0 -66 -54 -109t-127 -43t-127 43t-54 109q0 16 11.5 28t28.5 12t28.5 -12t11.5 -28q0 -33 30 -52t71 -19t71 19t30 52q0 16 11.5 28t28.5 12t28.5 -12t11.5 -28z" />
    <glyph glyph-name="Aogonek" unicode="&#x104;" 
d="M621 -158q0 -38 -45 -65t-89 -27q-52 0 -91 36.5t-39 85.5q0 74 52 128q-59 3 -59 50q0 50 66 50h23l-23 58h-238l-23 -58h23q66 0 66 -50t-66 -50h-133q-66 0 -66 50t67 50l155 383h-63q-67 0 -67 50t67 50h216l199 -483q68 0 68 -50t-66 -50q-46 0 -81 -38
q-27 -32 -27 -74q0 -17 12 -32.5t28 -15.5q42 0 58 18q17 20 40 20q14 0 23 -8q13 -10 13 -28zM375 258l-78 192l-79 -192h157z" />
    <glyph glyph-name="aogonek" unicode="&#x105;" 
d="M585 -158q0 -38 -45 -65t-89 -27q-52 0 -91 36.5t-39 85.5q0 85 67 142v9q-75 -39 -166 -39q-74 0 -127 39.5t-53 95.5q0 73 70.5 121t171.5 48q45 0 104 -10v23q0 49 -93 49q-51 0 -116 -17q-25 -6 -40 -6q-21 0 -35 14.5t-14 36.5q0 32 30 42q85 30 172 30
q92 0 144.5 -39t52.5 -109v-202h16q66 0 66 -50t-66 -50q-33 0 -67 -38q-27 -32 -27 -74q0 -17 12 -32.5t28 -15.5q42 0 58 18q17 20 40 20q14 0 23 -8q13 -10 13 -28zM389 135v50q-63 11 -111 11q-51 0 -90.5 -22t-39.5 -51q0 -17 22 -28t54 -11q82 0 165 51z" />
    <glyph glyph-name="Cacute" unicode="&#x106;" 
d="M564 109q0 -45 -72 -84t-165 -39q-127 0 -210.5 74.5t-83.5 188.5v66q0 120 78 201t194 81q70 0 142 -34l10 -4q17 24 42 24q50 0 50 -66v-84q0 -66 -50 -66q-21 0 -32 10.5t-17 42.5q-6 33 -47.5 55t-93.5 22q-76 0 -126 -51.5t-50 -130.5v-64q0 -75 53.5 -120
t143.5 -45q56 0 84.5 10.5t63.5 46.5q16 16 36 16t35 -15t15 -35zM477 772q0 -22 -18 -33l-161 -112q-11 -7 -22 -7q-16 0 -28 12t-12 28q0 22 17 33l161 112q10 7 23 7q17 0 28.5 -12t11.5 -28z" />
    <glyph glyph-name="cacute" unicode="&#x107;" 
d="M565 89q0 -42 -67 -73.5t-175 -31.5q-128 0 -198.5 60t-70.5 163q0 107 71.5 175t184.5 68q86 0 144 -30q9 30 38 30q48 0 48 -66v-77q0 -66 -50 -66q-20 0 -32.5 9.5t-18.5 38.5q-14 61 -129 61q-71 0 -113.5 -40.5t-42.5 -102.5q0 -123 176 -123q59 0 89.5 8t65.5 36
q13 12 30 12q20 0 35 -15t15 -36zM478 636q0 -22 -18 -33l-161 -112q-11 -7 -22 -7q-17 0 -28.5 12t-11.5 28q0 22 17 33l161 112q10 7 23 7q16 0 28 -12t12 -28z" />
    <glyph glyph-name="Ccircumflex" unicode="&#x108;" 
d="M564 109q0 -45 -72 -84t-165 -39q-127 0 -210.5 74.5t-83.5 188.5v66q0 120 78 201t194 81q70 0 142 -34l10 -4q17 24 42 24q50 0 50 -66v-84q0 -66 -50 -66q-21 0 -32 10.5t-17 42.5q-6 33 -47.5 55t-93.5 22q-76 0 -126 -51.5t-50 -130.5v-64q0 -75 53.5 -120
t143.5 -45q56 0 84.5 10.5t63.5 46.5q16 16 36 16t35 -15t15 -35zM489 660q0 -17 -11.5 -29t-28.5 -12q-14 0 -26 10l-107 91l-107 -91q-12 -10 -25 -10q-17 0 -29 12t-12 29q0 18 15 30l132 113q12 10 26 10t26 -10l132 -113q15 -12 15 -30z" />
    <glyph glyph-name="ccircumflex" unicode="&#x109;" 
d="M565 89q0 -42 -67 -73.5t-175 -31.5q-128 0 -198.5 60t-70.5 163q0 107 71.5 175t184.5 68q86 0 144 -30q9 30 38 30q48 0 48 -66v-77q0 -66 -50 -66q-20 0 -32.5 9.5t-18.5 38.5q-14 61 -129 61q-71 0 -113.5 -40.5t-42.5 -102.5q0 -123 176 -123q59 0 89.5 8t65.5 36
q13 12 30 12q20 0 35 -15t15 -36zM490 524q0 -17 -11.5 -29t-28.5 -12q-14 0 -26 10l-107 91l-107 -91q-12 -10 -25 -10q-17 0 -29 12t-12 29q0 18 15 30l132 113q12 10 26 10t26 -10l132 -113q15 -12 15 -30z" />
    <glyph glyph-name="Cdotaccent" unicode="&#x10a;" 
d="M564 109q0 -45 -72 -84t-165 -39q-127 0 -210.5 74.5t-83.5 188.5v66q0 120 78 201t194 81q70 0 142 -34l10 -4q17 24 42 24q50 0 50 -66v-84q0 -66 -50 -66q-21 0 -32 10.5t-17 42.5q-6 33 -47.5 55t-93.5 22q-76 0 -126 -51.5t-50 -130.5v-64q0 -75 53.5 -120
t143.5 -45q56 0 84.5 10.5t63.5 46.5q16 16 36 16t35 -15t15 -35zM376 715q0 -24 -17.5 -41.5t-42.5 -17.5t-42.5 17.5t-17.5 42.5t17.5 42.5t42.5 17.5t42.5 -17.5t17.5 -43.5z" />
    <glyph glyph-name="cdotaccent" unicode="&#x10b;" 
d="M565 89q0 -42 -67 -73.5t-175 -31.5q-128 0 -198.5 60t-70.5 163q0 107 71.5 175t184.5 68q86 0 144 -30q9 30 38 30q48 0 48 -66v-77q0 -66 -50 -66q-20 0 -32.5 9.5t-18.5 38.5q-14 61 -129 61q-71 0 -113.5 -40.5t-42.5 -102.5q0 -123 176 -123q59 0 89.5 8t65.5 36
q13 12 30 12q20 0 35 -15t15 -36zM377 579q0 -24 -17.5 -41.5t-42.5 -17.5t-42.5 17.5t-17.5 42.5t17.5 42.5t42.5 17.5t42.5 -17.5t17.5 -43.5z" />
    <glyph glyph-name="Ccaron" unicode="&#x10c;" 
d="M564 109q0 -45 -72 -84t-165 -39q-127 0 -210.5 74.5t-83.5 188.5v66q0 120 78 201t194 81q70 0 142 -34l10 -4q17 24 42 24q50 0 50 -66v-84q0 -66 -50 -66q-21 0 -32 10.5t-17 42.5q-6 33 -47.5 55t-93.5 22q-76 0 -126 -51.5t-50 -130.5v-64q0 -75 53.5 -120
t143.5 -45q56 0 84.5 10.5t63.5 46.5q16 16 36 16t35 -15t15 -35zM489 773q0 -19 -15 -31l-132 -113q-12 -10 -26 -10t-26 10l-132 113q-15 12 -15 31q0 17 12 28.5t29 11.5q13 0 25 -10l107 -91l107 91q12 10 26 10q17 0 28.5 -11.5t11.5 -28.5z" />
    <glyph glyph-name="ccaron" unicode="&#x10d;" 
d="M565 89q0 -42 -67 -73.5t-175 -31.5q-128 0 -198.5 60t-70.5 163q0 107 71.5 175t184.5 68q86 0 144 -30q9 30 38 30q48 0 48 -66v-77q0 -66 -50 -66q-20 0 -32.5 9.5t-18.5 38.5q-14 61 -129 61q-71 0 -113.5 -40.5t-42.5 -102.5q0 -123 176 -123q59 0 89.5 8t65.5 36
q13 12 30 12q20 0 35 -15t15 -36zM490 637q0 -19 -15 -31l-132 -113q-12 -10 -26 -10t-26 10l-132 113q-15 12 -15 31q0 17 12 28.5t29 11.5q13 0 25 -10l107 -91l107 91q12 10 26 10q16 0 28 -11.5t12 -28.5z" />
    <glyph glyph-name="Dcaron" unicode="&#x10e;" 
d="M550 258q0 -114 -72.5 -186t-193.5 -72h-204q-67 0 -67 50q0 24 16 37t45 13v383q-61 0 -61 50t67 50h212q109 0 183.5 -80t74.5 -198v-47zM450 261v46q0 74 -45 125t-121 51h-110v-383h111q80 0 122.5 42.5t42.5 118.5zM425 773q0 -19 -15 -31l-132 -113
q-12 -10 -26 -10t-26 10l-132 113q-15 12 -15 31q0 17 12 28.5t29 11.5q13 0 25 -10l107 -91l107 91q12 10 26 10q17 0 28.5 -11.5t11.5 -28.5z" />
    <glyph glyph-name="dcaron" unicode="&#x10f;" 
d="M613 50q0 -50 -66 -50h-116v35q-72 -49 -151 -49q-110 0 -178.5 67t-68.5 166t69 165.5t179 66.5q87 0 150 -50v124h-16q-66 0 -66 50q0 49 66 49h116v-524h16q66 0 66 -50zM431 217q0 58 -41.5 96t-108.5 38q-66 0 -107 -38.5t-41 -93.5q0 -56 41 -94.5t108 -38.5
q66 0 107.5 38.5t41.5 92.5zM732 587q0 -11 -13 -30l-82 -126q-17 -26 -36 -26q-15 0 -26 10.5t-11 24.5t12 32l82 126q17 26 38 26q15 0 25.5 -11t10.5 -26z" />
    <glyph glyph-name="Dcroat" unicode="&#x110;" 
d="M550 258q0 -114 -72.5 -186t-193.5 -72h-205q-66 0 -66 50q0 24 16 37t45 13v152q-36 0 -50 10t-14 31q0 22 12.5 30.5t51.5 8.5v151q-61 0 -61 50t67 50h212q109 0 183.5 -80t74.5 -198v-47zM450 261v46q0 74 -45 125t-121 51h-110v-151h74q38 0 47 -8.5t9 -30.5
q0 -24 -11.5 -32t-44.5 -8h-74v-153h111q80 0 122.5 42.5t42.5 118.5z" />
    <glyph glyph-name="dcroat" unicode="&#x111;" 
d="M613 50q0 -29 -24 -43q-11 -7 -42 -7h-116v24q-68 -40 -148 -40q-111 0 -180.5 62.5t-69.5 162.5q0 102 71.5 171.5t176.5 69.5q80 0 150 -46v121h-16q-33 0 -45 9q-21 16 -21 41q0 28 24 42q10 7 42 7h116v-117h16q32 0 46 -9q20 -15 20 -41q0 -50 -66 -50h-16v-307h16
q33 0 46 -9q20 -17 20 -41zM431 206q0 62 -42.5 103t-106.5 41q-63 0 -106 -41t-43 -102q0 -56 40.5 -89.5t108.5 -33.5t108.5 33t40.5 89z" />
    <glyph glyph-name="Emacron" unicode="&#x112;" 
d="M550 0h-471q-66 0 -66 50q0 23 13 36.5t49 13.5h19v383h-19q-36 0 -49 13.5t-13 36.5q0 50 66 50h449v-150q0 -67 -50 -67t-50 67v50h-234v-141h85q0 38 14 56t35 18q50 0 50 -67v-113q0 -66 -49 -66q-50 0 -50 73h-85v-143h256v52q0 67 50 67t50 -67v-152zM529 716
q0 -40 -53 -40h-344q-53 0 -53 40t53 40h344q53 0 53 -40z" />
    <glyph glyph-name="emacron" unicode="&#x113;" 
d="M550 67q0 -38 -79 -60.5t-174 -22.5q-116 0 -190 65t-74 167q0 99 74.5 166.5t183.5 67.5q112 0 185.5 -68t73.5 -171v-39h-408q34 -88 164 -88q56 0 163 28q20 5 33 5q20 0 34 -14.5t14 -35.5zM439 260q-12 41 -52 65.5t-95 24.5t-95.5 -25t-51.5 -65h294zM519 580
q0 -40 -53 -40h-344q-53 0 -53 40t53 40h344q53 0 53 -40z" />
    <glyph glyph-name="Ebreve" unicode="&#x114;" 
d="M550 0h-471q-66 0 -66 50q0 23 13 36.5t49 13.5h19v383h-19q-36 0 -49 13.5t-13 36.5q0 50 66 50h449v-150q0 -67 -50 -67t-50 67v50h-234v-141h85q0 38 14 56t35 18q50 0 50 -67v-113q0 -66 -49 -66q-50 0 -50 73h-85v-143h256v52q0 67 50 67t50 -67v-152zM485 772
q0 -66 -54 -109t-127 -43t-127 43t-54 109q0 16 11.5 28t28.5 12t28.5 -12t11.5 -28q0 -33 30 -52t71 -19t71 19t30 52q0 16 11.5 28t28.5 12t28.5 -12t11.5 -28z" />
    <glyph glyph-name="ebreve" unicode="&#x115;" 
d="M550 67q0 -38 -79 -60.5t-174 -22.5q-116 0 -190 65t-74 167q0 99 74.5 166.5t183.5 67.5q112 0 185.5 -68t73.5 -171v-39h-408q34 -88 164 -88q56 0 163 28q20 5 33 5q20 0 34 -14.5t14 -35.5zM439 260q-12 41 -52 65.5t-95 24.5t-95.5 -25t-51.5 -65h294zM475 636
q0 -66 -54 -109t-127 -43t-127 43t-54 109q0 16 11.5 28t28.5 12t28.5 -12t11.5 -28q0 -33 30 -52t71 -19t71 19t30 52q0 16 11.5 28t28.5 12t28.5 -12t11.5 -28z" />
    <glyph glyph-name="Edotaccent" unicode="&#x116;" 
d="M550 0h-471q-66 0 -66 50q0 23 13 36.5t49 13.5h19v383h-19q-36 0 -49 13.5t-13 36.5q0 50 66 50h449v-150q0 -67 -50 -67t-50 67v50h-234v-141h85q0 38 14 56t35 18q50 0 50 -67v-113q0 -66 -49 -66q-50 0 -50 73h-85v-143h256v52q0 67 50 67t50 -67v-152zM364 715
q0 -24 -17.5 -41.5t-42.5 -17.5t-42.5 17.5t-17.5 42.5t17.5 42.5t42.5 17.5t42.5 -17.5t17.5 -43.5z" />
    <glyph glyph-name="edotaccent" unicode="&#x117;" 
d="M550 67q0 -38 -79 -60.5t-174 -22.5q-116 0 -190 65t-74 167q0 99 74.5 166.5t183.5 67.5q112 0 185.5 -68t73.5 -171v-39h-408q34 -88 164 -88q56 0 163 28q20 5 33 5q20 0 34 -14.5t14 -35.5zM439 260q-12 41 -52 65.5t-95 24.5t-95.5 -25t-51.5 -65h294zM354 579
q0 -24 -17.5 -41.5t-42.5 -17.5t-42.5 17.5t-17.5 42.5t17.5 42.5t42.5 17.5t42.5 -17.5t17.5 -43.5z" />
    <glyph glyph-name="Eogonek" unicode="&#x118;" 
d="M550 -158q0 -38 -45 -65t-89 -27q-52 0 -91 36.5t-39 85.5q0 73 52 128h-259q-66 0 -66 50q0 23 13 36.5t49 13.5h19v383h-19q-36 0 -49 13.5t-13 36.5q0 50 66 50h449v-150q0 -67 -50 -67t-50 67v50h-234v-141h85q0 38 14 56t35 18q50 0 50 -67v-113q0 -66 -49 -66
q-50 0 -50 73h-85v-143h256v52q0 67 50 67t50 -67v-152q-39 0 -56.5 -1t-46 -9.5t-44.5 -27.5q-27 -32 -27 -74q0 -17 12 -32.5t28 -15.5q42 0 58 18q17 20 40 20q14 0 23 -8q13 -10 13 -28z" />
    <glyph glyph-name="eogonek" unicode="&#x119;" 
d="M550 67q0 -45 -115 -70q-68 -13 -88 -35q-27 -32 -27 -74q0 -17 12 -32.5t28 -15.5q42 0 58 18q17 20 40 20q14 0 23 -8q13 -10 13 -28q0 -38 -45 -65t-89 -27q-52 0 -91 36.5t-39 85.5q0 65 39 113q-105 8 -170.5 71.5t-65.5 159.5q0 99 74.5 166.5t183.5 67.5
q112 0 185.5 -68t73.5 -171v-39h-408q34 -88 164 -88q56 0 163 28q20 5 33 5q20 0 34 -14.5t14 -35.5zM439 260q-12 41 -52 65.5t-95 24.5t-95.5 -25t-51.5 -65h294z" />
    <glyph glyph-name="Ecaron" unicode="&#x11a;" 
d="M550 0h-471q-66 0 -66 50q0 23 13 36.5t49 13.5h19v383h-19q-36 0 -49 13.5t-13 36.5q0 50 66 50h449v-150q0 -67 -50 -67t-50 67v50h-234v-141h85q0 38 14 56t35 18q50 0 50 -67v-113q0 -66 -49 -66q-50 0 -50 73h-85v-143h256v52q0 67 50 67t50 -67v-152zM477 773
q0 -19 -15 -31l-132 -113q-12 -10 -26 -10t-26 10l-132 113q-15 12 -15 31q0 17 12 28.5t29 11.5q13 0 25 -10l107 -91l107 91q12 10 26 10q17 0 28.5 -11.5t11.5 -28.5z" />
    <glyph glyph-name="ecaron" unicode="&#x11b;" 
d="M550 67q0 -38 -79 -60.5t-174 -22.5q-116 0 -190 65t-74 167q0 99 74.5 166.5t183.5 67.5q112 0 185.5 -68t73.5 -171v-39h-408q34 -88 164 -88q56 0 163 28q20 5 33 5q20 0 34 -14.5t14 -35.5zM439 260q-12 41 -52 65.5t-95 24.5t-95.5 -25t-51.5 -65h294zM467 637
q0 -19 -15 -31l-132 -113q-12 -10 -26 -10t-26 10l-132 113q-15 12 -15 31q0 17 12 28.5t29 11.5q13 0 25 -10l107 -91l107 91q12 10 26 10q17 0 28.5 -11.5t11.5 -28.5z" />
    <glyph glyph-name="Gcircumflex" unicode="&#x11c;" 
d="M592 230q0 -38 -42 -50v-132q-67 -35 -114 -48.5t-105 -13.5q-142 0 -220 69t-78 191v71q0 117 80.5 198.5t203.5 81.5q81 0 145 -32q16 32 41 32q47 0 47 -66v-78q0 -66 -50 -66q-14 0 -21 2.5t-14.5 14t-13.5 36.5q-8 26 -43.5 41.5t-89.5 15.5q-86 0 -135.5 -51.5
t-49.5 -128.5v-64q0 -167 192 -167q69 0 125 25v69h-100q-66 0 -66 50t66 50h175q67 0 67 -50zM497 660q0 -17 -11.5 -29t-28.5 -12q-14 0 -26 10l-107 91l-107 -91q-12 -10 -25 -10q-17 0 -29 12t-12 29q0 18 15 30l132 113q12 10 26 10t26 -10l132 -113q15 -12 15 -30z
" />
    <glyph glyph-name="gcircumflex" unicode="&#x11d;" 
d="M592 387q0 -50 -66 -50h-16v-357q0 -79 -54.5 -132t-136.5 -53h-112q-66 0 -66 50t66 50h109q43 0 68.5 23t25.5 62v55q-66 -49 -141 -49q-101 0 -168.5 66.5t-67.5 165.5q0 100 67.5 166.5t168.5 66.5q82 0 141 -50v36h116q66 0 66 -50zM410 217q0 56 -40.5 95t-98.5 39
q-57 0 -97.5 -38.5t-40.5 -93.5t40.5 -94t97.5 -39t98 38.5t41 92.5zM442 524q0 -17 -11.5 -29t-28.5 -12q-14 0 -26 10l-107 91l-107 -91q-12 -10 -25 -10q-17 0 -29 12t-12 29q0 18 15 30l132 113q12 10 26 10t26 -10l132 -113q15 -12 15 -30z" />
    <glyph glyph-name="Gbreve" unicode="&#x11e;" 
d="M592 230q0 -38 -42 -50v-132q-67 -35 -114 -48.5t-105 -13.5q-142 0 -220 69t-78 191v71q0 117 80.5 198.5t203.5 81.5q81 0 145 -32q16 32 41 32q47 0 47 -66v-78q0 -66 -50 -66q-14 0 -21 2.5t-14.5 14t-13.5 36.5q-8 26 -43.5 41.5t-89.5 15.5q-86 0 -135.5 -51.5
t-49.5 -128.5v-64q0 -167 192 -167q69 0 125 25v69h-100q-66 0 -66 50t66 50h175q67 0 67 -50zM505 772q0 -66 -54 -109t-127 -43t-127 43t-54 109q0 16 11.5 28t28.5 12t28.5 -12t11.5 -28q0 -33 30 -52t71 -19t71 19t30 52q0 16 11.5 28t28.5 12t28.5 -12t11.5 -28z" />
    <glyph glyph-name="gbreve" unicode="&#x11f;" 
d="M592 387q0 -50 -66 -50h-16v-357q0 -79 -54.5 -132t-136.5 -53h-112q-66 0 -66 50t66 50h109q43 0 68.5 23t25.5 62v55q-66 -49 -141 -49q-101 0 -168.5 66.5t-67.5 165.5q0 100 67.5 166.5t168.5 66.5q82 0 141 -50v36h116q66 0 66 -50zM410 217q0 56 -40.5 95t-98.5 39
q-57 0 -97.5 -38.5t-40.5 -93.5t40.5 -94t97.5 -39t98 38.5t41 92.5zM450 636q0 -66 -54 -109t-127 -43t-127 43t-54 109q0 16 12 28t28 12t28 -12t12 -28q0 -33 30 -52t71 -19t71 19t30 52q0 16 12 28t28 12t28 -12t12 -28z" />
    <glyph glyph-name="Gdotaccent" unicode="&#x120;" 
d="M592 230q0 -38 -42 -50v-132q-67 -35 -114 -48.5t-105 -13.5q-142 0 -220 69t-78 191v71q0 117 80.5 198.5t203.5 81.5q81 0 145 -32q16 32 41 32q47 0 47 -66v-78q0 -66 -50 -66q-14 0 -21 2.5t-14.5 14t-13.5 36.5q-8 26 -43.5 41.5t-89.5 15.5q-86 0 -135.5 -51.5
t-49.5 -128.5v-64q0 -167 192 -167q69 0 125 25v69h-100q-66 0 -66 50t66 50h175q67 0 67 -50zM384 715q0 -24 -17.5 -41.5t-42.5 -17.5t-42.5 17.5t-17.5 42.5t17.5 42.5t42.5 17.5t42.5 -17.5t17.5 -43.5z" />
    <glyph glyph-name="gdotaccent" unicode="&#x121;" 
d="M592 387q0 -50 -66 -50h-16v-357q0 -79 -54.5 -132t-136.5 -53h-112q-66 0 -66 50t66 50h109q43 0 68.5 23t25.5 62v55q-66 -49 -141 -49q-101 0 -168.5 66.5t-67.5 165.5q0 100 67.5 166.5t168.5 66.5q82 0 141 -50v36h116q66 0 66 -50zM410 217q0 56 -40.5 95t-98.5 39
q-57 0 -97.5 -38.5t-40.5 -93.5t40.5 -94t97.5 -39t98 38.5t41 92.5zM329 579q0 -24 -17.5 -41.5t-42.5 -17.5t-42.5 17.5t-17.5 42.5t17.5 42.5t42.5 17.5t42.5 -17.5t17.5 -43.5z" />
    <glyph glyph-name="Gcommaaccent" unicode="&#x122;" 
d="M592 230q0 -38 -42 -50v-132q-67 -35 -114 -48.5t-105 -13.5q-142 0 -220 69t-78 191v71q0 117 80.5 198.5t203.5 81.5q81 0 145 -32q16 32 41 32q47 0 47 -66v-78q0 -66 -50 -66q-14 0 -21 2.5t-14.5 14t-13.5 36.5q-8 26 -43.5 41.5t-89.5 15.5q-86 0 -135.5 -51.5
t-49.5 -128.5v-64q0 -167 192 -167q69 0 125 25v69h-100q-66 0 -66 50t66 50h175q67 0 67 -50zM375 -96q0 -10 -13 -30l-82 -126q-17 -26 -36 -26q-15 0 -26 10.5t-11 24.5t12 32l82 126q17 26 38 26q15 0 25.5 -11t10.5 -26z" />
    <glyph glyph-name="gcommaaccent" unicode="&#x123;" 
d="M353 688q0 -14 -12 -32l-82 -126q-17 -26 -38 -26q-15 0 -25.5 11t-10.5 26q0 11 13 30l82 126q17 26 36 26q15 0 26 -10.5t11 -24.5zM592 387q0 -50 -66 -50h-16v-357q0 -79 -54.5 -132t-136.5 -53h-112q-66 0 -66 50t66 50h109q43 0 68.5 23t25.5 62v55
q-66 -49 -141 -49q-101 0 -168.5 66.5t-67.5 165.5q0 100 67.5 166.5t168.5 66.5q82 0 141 -50v36h116q66 0 66 -50zM410 217q0 56 -40.5 95t-98.5 39q-57 0 -97.5 -38.5t-40.5 -93.5t40.5 -94t97.5 -39t98 38.5t41 92.5z" />
    <glyph glyph-name="Hcircumflex" unicode="&#x124;" 
d="M581 50q0 -50 -66 -50h-121q-66 0 -66 50q0 24 13 37t49 13h19v141h-214v-141h19q37 0 49.5 -13.5t12.5 -36.5q0 -50 -66 -50h-121q-66 0 -66 50t72 50v383q-52 5 -52 50q0 50 66 50h101q66 0 66 -50q0 -24 -13.5 -37t-48.5 -13h-19v-142h214v142h-19q-36 0 -49 13
t-13 37q0 50 66 50h101q66 0 66 -50q0 -45 -52 -50v-383q37 0 54.5 -14.5t17.5 -35.5zM475 660q0 -17 -11.5 -29t-28.5 -12q-14 0 -26 10l-107 91l-107 -91q-12 -10 -25 -10q-17 0 -29 12t-12 29q0 18 15 30l132 113q12 10 26 10t26 -10l132 -113q15 -12 15 -30z" />
    <glyph glyph-name="hcircumflex" unicode="&#x125;" 
d="M581 50q0 -50 -66 -50h-112q-67 0 -67 50t67 50h6v171q0 44 -22 61.5t-66 17.5q-35 0 -59 -13t-67 -54v-183h6q67 0 67 -50t-67 -50h-112q-66 0 -66 50t66 50h6v424h-16q-66 0 -66 50t66 50h116v-235q60 61 137 61q80 0 128.5 -45.5t48.5 -120.5v-184h6q66 0 66 -50z
M473 701q0 -17 -11.5 -29t-28.5 -12q-14 0 -26 10l-107 91l-107 -91q-12 -10 -25 -10q-17 0 -29 12t-12 29q0 18 15 30l132 113q12 10 26 10t26 -10l132 -113q15 -12 15 -30z" />
    <glyph glyph-name="Hbar" unicode="&#x126;" 
d="M581 50q0 -50 -66 -50h-121q-66 0 -66 50q0 24 13 37t49 13h19v141h-214v-141h19q37 0 49.5 -13.5t12.5 -36.5q0 -50 -66 -50h-121q-66 0 -66 50t72 50v274h-22q-17 0 -28.5 12t-11.5 28t11.5 28t28.5 12h22v29q-52 5 -52 50q0 50 66 50h101q66 0 66 -50q0 -24 -13.5 -37
t-48.5 -13h-19v-29h214v29h-19q-36 0 -49 13t-13 37q0 50 66 50h101q66 0 66 -50q0 -45 -52 -50v-29h22q17 0 28.5 -12t11.5 -28t-11.5 -28t-28.5 -12h-22v-274q37 0 54.5 -14.5t17.5 -35.5zM409 341v33h-214v-33h214z" />
    <glyph glyph-name="hbar" unicode="&#x127;" horiz-adv-x="698" 
d="M633 50q0 -50 -66 -50h-112q-67 0 -67 50t67 50h6v171q0 44 -22 61.5t-66 17.5q-35 0 -59 -13t-67 -54v-183h6q67 0 67 -50t-67 -50h-112q-66 0 -66 50t66 50h6v323l-38 -14q-8 -2 -11 -2q-12 0 -21 8.5t-9 21.5q0 21 20 28l59 22v37h-16q-66 0 -66 50t66 50h116v-101
l95 35q6 2 10 2q13 0 21.5 -8.5t8.5 -21.5q0 -21 -20 -28l-115 -42v-71q60 61 137 61q80 0 128.5 -45.5t48.5 -120.5v-184h6q66 0 66 -50z" />
    <glyph glyph-name="Itilde" unicode="&#x128;" 
d="M517 50q0 -50 -66 -50h-302q-66 0 -66 50t66 50h101v383h-101q-66 0 -66 50t66 50h302q66 0 66 -50t-66 -50h-101v-383h101q66 0 66 -50zM485 755q0 -29 -38.5 -67t-70.5 -38q-34 0 -99 43q-32 21 -50 21q-13 0 -23 -8.5t-32 -37.5q-11 -15 -26 -15q-13 0 -22 9t-9 21
q0 31 38 65.5t72 34.5q17 0 34 -7.5t56 -30.5q43 -26 58 -26q11 0 17.5 5.5t23.5 28.5q21 30 39 30q13 0 22.5 -8.5t9.5 -19.5z" />
    <glyph glyph-name="itilde" unicode="&#x129;" 
d="M538 50q0 -50 -66 -50h-344q-66 0 -66 50t66 50h122v237h-78q-67 0 -67 50t67 50h178v-337h122q66 0 66 -50zM485 619q0 -29 -38.5 -67t-70.5 -38q-34 0 -99 43q-32 21 -50 21q-13 0 -23 -8.5t-32 -37.5q-11 -15 -26 -15q-13 0 -22 9t-9 21q0 31 38 65.5t72 34.5
q17 0 34 -7.5t56 -30.5q43 -26 58 -26q11 0 17.5 5.5t23.5 28.5q21 30 39 30q13 0 22.5 -8.5t9.5 -19.5z" />
    <glyph glyph-name="Imacron" unicode="&#x12a;" 
d="M517 50q0 -50 -66 -50h-302q-66 0 -66 50t66 50h101v383h-101q-66 0 -66 50t66 50h302q66 0 66 -50t-66 -50h-101v-383h101q66 0 66 -50zM525 716q0 -40 -53 -40h-344q-53 0 -53 40t53 40h344q53 0 53 -40z" />
    <glyph glyph-name="imacron" unicode="&#x12b;" 
d="M538 50q0 -50 -66 -50h-344q-66 0 -66 50t66 50h122v237h-78q-67 0 -67 50t67 50h178v-337h122q66 0 66 -50zM525 580q0 -40 -53 -40h-344q-53 0 -53 40t53 40h344q53 0 53 -40z" />
    <glyph glyph-name="Ibreve" unicode="&#x12c;" 
d="M517 50q0 -50 -66 -50h-302q-66 0 -66 50t66 50h101v383h-101q-66 0 -66 50t66 50h302q66 0 66 -50t-66 -50h-101v-383h101q66 0 66 -50zM481 772q0 -66 -54 -109t-127 -43t-127 43t-54 109q0 16 11.5 28t28.5 12t28.5 -12t11.5 -28q0 -33 30 -52t71 -19t71 19t30 52
q0 16 11.5 28t28.5 12t28.5 -12t11.5 -28z" />
    <glyph glyph-name="ibreve" unicode="&#x12d;" 
d="M538 50q0 -50 -66 -50h-344q-66 0 -66 50t66 50h122v237h-78q-67 0 -67 50t67 50h178v-337h122q66 0 66 -50zM481 636q0 -66 -54 -109t-127 -43t-127 43t-54 109q0 16 11.5 28t28.5 12t28.5 -12t11.5 -28q0 -33 30 -52t71 -19t71 19t30 52q0 16 11.5 28t28.5 12t28.5 -12
t11.5 -28z" />
    <glyph glyph-name="Iogonek" unicode="&#x12e;" 
d="M517 -158q0 -38 -45 -65t-89 -27q-52 0 -91 36.5t-39 85.5q0 73 52 128h-156q-66 0 -66 50t66 50h101v383h-101q-66 0 -66 50t66 50h302q66 0 66 -50t-66 -50h-101v-383h101q66 0 66 -50t-66 -50q-46 0 -81 -38q-27 -32 -27 -74q0 -17 12 -32.5t28 -15.5q42 0 58 18
q17 20 40 20q14 0 23 -8q13 -10 13 -28z" />
    <glyph glyph-name="iogonek" unicode="&#x12f;" 
d="M538 50q0 -50 -66 -50q-40 0 -62 -1t-52.5 -10t-46.5 -27q-27 -32 -27 -74q0 -17 12 -32.5t28 -15.5q42 0 58 18q17 20 40 20q14 0 23 -8q13 -10 13 -28q0 -38 -45 -65t-89 -27q-52 0 -91 36.5t-39 85.5q0 73 52 128h-118q-66 0 -66 50t66 50h122v237h-78q-67 0 -67 50
t67 50h178v-337h122q66 0 66 -50zM360 579q0 -24 -17.5 -41.5t-42.5 -17.5t-42.5 17.5t-17.5 42.5t17.5 42.5t42.5 17.5t42.5 -17.5t17.5 -43.5z" />
    <glyph glyph-name="Idotaccent" unicode="&#x130;" 
d="M517 50q0 -50 -66 -50h-302q-66 0 -66 50t66 50h101v383h-101q-66 0 -66 50t66 50h302q66 0 66 -50t-66 -50h-101v-383h101q66 0 66 -50zM360 715q0 -24 -17.5 -41.5t-42.5 -17.5t-42.5 17.5t-17.5 42.5t17.5 42.5t42.5 17.5t42.5 -17.5t17.5 -43.5z" />
    <glyph glyph-name="dotlessi" unicode="&#x131;" 
d="M538 50q0 -50 -66 -50h-344q-66 0 -66 50t66 50h122v237h-78q-67 0 -67 50t67 50h178v-337h122q66 0 66 -50z" />
    <glyph glyph-name="Jcircumflex" unicode="&#x134;" 
d="M613 533q0 -50 -66 -50h-57v-296q0 -88 -63.5 -144.5t-157.5 -56.5q-84 0 -215 65v162q0 67 50 67t50 -67v-96q69 -31 117 -31q55 0 87 28.5t32 83.5v285h-119q-66 0 -66 50t66 50h276q66 0 66 -50zM613 660q0 -17 -11.5 -29t-28.5 -12q-14 0 -26 10l-107 91l-107 -91
q-12 -10 -25 -10q-17 0 -29 12t-12 29q0 18 15 30l132 113q12 10 26 10t26 -10l132 -113q15 -12 15 -30z" />
    <glyph glyph-name="jcircumflex" unicode="&#x135;" 
d="M488 -20q0 -79 -54.5 -132t-136.5 -53h-114q-66 0 -66 50t66 50h111q43 0 68.5 23t25.5 62v357h-202q-66 0 -66 50t66 50h302v-457zM560 524q0 -17 -11.5 -29t-28.5 -12q-14 0 -26 10l-107 91l-107 -91q-12 -10 -25 -10q-17 0 -29 12t-12 29q0 18 15 30l132 113
q12 10 26 10t26 -10l132 -113q15 -12 15 -30z" />
    <glyph glyph-name="Kcommaaccent" unicode="&#x136;" 
d="M602 50q0 -50 -66 -50h-110q-35 107 -80.5 176t-91.5 83l-60 -51v-108h35q66 0 66 -50t-66 -50h-150q-66 0 -66 50q0 24 13 37t49 13h19v383h-19q-36 0 -49 13.5t-13 36.5q0 50 66 50h150q66 0 66 -50t-66 -50h-35v-149l178 153q-31 12 -31 45q0 51 66 51h100
q66 0 66 -50t-62 -50l-176 -153q97 -51 169 -230h32q66 0 66 -50zM369 -96q0 -10 -13 -30l-82 -126q-17 -26 -36 -26q-15 0 -26 10.5t-11 24.5t12 32l82 126q17 26 38 26q15 0 25.5 -11t10.5 -26z" />
    <glyph glyph-name="kcommaaccent" unicode="&#x137;" 
d="M571 50q0 -50 -67 -50h-118q-66 0 -66 50q0 20 16 37l-103 91l-18 -14v-164h-116q-66 0 -66 50t66 50h16v424h-16q-66 0 -66 50t66 50h116v-337l79 63q-16 19 -16 37q0 50 67 50h112q66 0 66 -50t-66 -50h-28l-118 -96l160 -141h33q67 0 67 -50zM353 -96q0 -10 -13 -30
l-82 -126q-17 -26 -36 -26q-15 0 -26 10.5t-11 24.5t12 32l82 126q17 26 38 26q15 0 25.5 -11t10.5 -26z" />
    <glyph glyph-name="Lacute" unicode="&#x139;" 
d="M571 0h-472q-66 0 -66 50t66 50h57v383h-57q-66 0 -66 50t66 50h214q66 0 66 -50t-66 -50h-57v-383h215v92q0 67 50 67t50 -67v-192zM367 772q0 -22 -18 -33l-161 -112q-11 -7 -22 -7q-16 0 -28 12t-12 28q0 22 17 33l161 112q10 7 23 7q17 0 28.5 -12t11.5 -28z" />
    <glyph glyph-name="lacute" unicode="&#x13a;" 
d="M538 50q0 -50 -66 -50h-344q-66 0 -66 50t66 50h122v424h-78q-67 0 -67 50t67 50h178v-524h122q66 0 66 -50zM429 813q0 -22 -18 -33l-161 -112q-11 -7 -22 -7q-16 0 -28 11.5t-12 28.5q0 22 17 33l161 112q10 7 23 7q17 0 28.5 -11.5t11.5 -28.5z" />
    <glyph glyph-name="Lcommaaccent" unicode="&#x13b;" 
d="M571 0h-472q-66 0 -66 50t66 50h57v383h-57q-66 0 -66 50t66 50h214q66 0 66 -50t-66 -50h-57v-383h215v92q0 67 50 67t50 -67v-192zM351 -96q0 -10 -13 -30l-82 -126q-17 -26 -36 -26q-15 0 -26 10.5t-11 24.5t12 32l82 126q17 26 38 26q15 0 25.5 -11t10.5 -26z" />
    <glyph glyph-name="lcommaaccent" unicode="&#x13c;" 
d="M538 50q0 -50 -66 -50h-344q-66 0 -66 50t66 50h122v424h-78q-67 0 -67 50t67 50h178v-524h122q66 0 66 -50zM351 -96q0 -10 -13 -30l-82 -126q-17 -26 -36 -26q-15 0 -26 10.5t-11 24.5t12 32l82 126q17 26 38 26q15 0 25.5 -11t10.5 -26z" />
    <glyph glyph-name="Lcaron" unicode="&#x13d;" 
d="M571 0h-472q-66 0 -66 50t66 50h57v383h-57q-66 0 -66 50t66 50h214q66 0 66 -50t-66 -50h-57v-383h215v92q0 67 50 67t50 -67v-192zM531 546q0 -10 -13 -30l-82 -126q-17 -26 -36 -26q-15 0 -26 10.5t-11 24.5t12 32l82 126q17 26 38 26q15 0 25.5 -11t10.5 -26z" />
    <glyph glyph-name="lcaron" unicode="&#x13e;" 
d="M538 50q0 -50 -66 -50h-344q-66 0 -66 50t66 50h122v424h-78q-67 0 -67 50t67 50h178v-524h122q66 0 66 -50zM551 587q0 -11 -13 -30l-82 -126q-17 -26 -36 -26q-15 0 -26 10.5t-11 24.5t12 32l82 126q17 26 38 26q15 0 25.5 -11t10.5 -26z" />
    <glyph glyph-name="Ldot" unicode="&#x13f;" 
d="M571 0h-472q-66 0 -66 50t66 50h57v383h-57q-66 0 -66 50t66 50h214q66 0 66 -50t-66 -50h-57v-383h215v92q0 67 50 67t50 -67v-192zM566 350q0 -24 -17.5 -41.5t-42.5 -17.5t-42.5 17.5t-17.5 42.5t17.5 42.5t42.5 17.5t42.5 -17.5t17.5 -43.5z" />
    <glyph glyph-name="ldot" unicode="&#x140;" 
d="M538 50q0 -50 -66 -50h-344q-66 0 -66 50t66 50h122v424h-78q-67 0 -67 50t67 50h178v-524h122q66 0 66 -50zM660 325q0 -24 -17.5 -41.5t-42.5 -17.5t-42.5 17.5t-17.5 42.5t17.5 42.5t42.5 17.5t42.5 -17.5t17.5 -43.5z" />
    <glyph glyph-name="Lslash" unicode="&#x141;" 
d="M571 0h-472q-66 0 -66 50t66 50h57v121l-60 -32q-10 -5 -19 -5q-17 0 -28.5 12t-11.5 29q0 23 21 35l98 51v172h-57q-66 0 -66 50t66 50h214q66 0 66 -50t-66 -50h-57v-129l94 49q8 5 19 5q17 0 28.5 -12t11.5 -28q0 -25 -22 -35l-131 -69v-164h215v91q0 67 50 67t50 -67
v-191z" />
    <glyph glyph-name="lslash" unicode="&#x142;" 
d="M538 50q0 -50 -66 -50h-344q-66 0 -66 50t66 50h122v179l-67 -37q-10 -5 -19 -5q-17 0 -29 12t-12 29q0 23 21 35l106 57v154h-75q-67 0 -67 50t67 50h175v-209l69 38q10 5 19 5q16 0 28 -12t12 -28q0 -25 -21 -36l-107 -58v-224h122q66 0 66 -50z" />
    <glyph glyph-name="Nacute" unicode="&#x143;" 
d="M592 533q0 -50 -61 -50v-483h-99l-259 394v-294h35q66 0 66 -50t-66 -50h-129q-67 0 -67 50t61 50v383h-19q-36 0 -49 13.5t-13 36.5q0 50 66 50h115l258 -392v292h-35q-66 0 -66 50t66 50h130q66 0 66 -50zM463 772q0 -22 -18 -33l-161 -112q-10 -7 -22 -7q-16 0 -28 12
t-12 28q0 22 17 33l161 112q10 7 23 7q17 0 28.5 -12t11.5 -28z" />
    <glyph glyph-name="nacute" unicode="&#x144;" 
d="M571 50q0 -50 -66 -50h-89q-67 0 -67 50t61 50v178q0 72 -90 72q-35 0 -62.5 -15t-62.5 -53v-182h6q66 0 66 -50t-66 -50h-112q-66 0 -66 50t66 50h6v237q-61 2 -61 50q0 50 67 50h94v-48q36 34 66 47.5t71 13.5q78 0 128 -45t50 -123v-182q61 0 61 -50zM464 636
q0 -22 -18 -33l-161 -112q-11 -7 -22 -7q-17 0 -28.5 12t-11.5 28q0 22 17 33l161 112q11 7 23 7q16 0 28 -12t12 -28z" />
    <glyph glyph-name="Ncommaaccent" unicode="&#x145;" 
d="M592 533q0 -50 -61 -50v-483h-99l-259 394v-294h35q66 0 66 -50t-66 -50h-129q-67 0 -67 50t61 50v383h-19q-36 0 -49 13.5t-13 36.5q0 50 66 50h115l258 -392v292h-35q-66 0 -66 50t66 50h130q66 0 66 -50zM353 -96q0 -10 -13 -30l-82 -126q-17 -26 -36 -26
q-15 0 -26 10.5t-11 24.5t12 32l82 126q17 26 38 26q15 0 25.5 -11t10.5 -26z" />
    <glyph glyph-name="ncommaaccent" unicode="&#x146;" 
d="M571 50q0 -50 -66 -50h-89q-67 0 -67 50t61 50v178q0 72 -90 72q-35 0 -62.5 -15t-62.5 -53v-182h6q66 0 66 -50t-66 -50h-112q-66 0 -66 50t66 50h6v237q-61 2 -61 50q0 50 67 50h94v-48q36 34 66 47.5t71 13.5q78 0 128 -45t50 -123v-182q61 0 61 -50zM354 -96
q0 -10 -13 -30l-82 -126q-17 -26 -36 -26q-15 0 -26 10.5t-11 24.5t12 32l82 126q17 26 38 26q15 0 25.5 -11t10.5 -26z" />
    <glyph glyph-name="Ncaron" unicode="&#x147;" 
d="M592 533q0 -50 -61 -50v-483h-99l-259 394v-294h35q66 0 66 -50t-66 -50h-129q-67 0 -67 50t61 50v383h-19q-36 0 -49 13.5t-13 36.5q0 50 66 50h115l258 -392v292h-35q-66 0 -66 50t66 50h130q66 0 66 -50zM475 773q0 -19 -15 -31l-132 -113q-12 -10 -26 -10t-26 10
l-132 113q-15 12 -15 31q0 17 12 28.5t29 11.5q13 0 25 -10l107 -91l107 91q12 10 26 10q17 0 28.5 -11.5t11.5 -28.5z" />
    <glyph glyph-name="ncaron" unicode="&#x148;" 
d="M571 50q0 -50 -66 -50h-89q-67 0 -67 50t61 50v178q0 72 -90 72q-35 0 -62.5 -15t-62.5 -53v-182h6q66 0 66 -50t-66 -50h-112q-66 0 -66 50t66 50h6v237q-61 2 -61 50q0 50 67 50h94v-48q36 34 66 47.5t71 13.5q78 0 128 -45t50 -123v-182q61 0 61 -50zM476 637
q0 -19 -15 -31l-132 -113q-12 -10 -26 -10t-26 10l-132 113q-15 12 -15 31q0 17 12 28.5t29 11.5q13 0 25 -10l107 -91l107 91q12 10 26 10q16 0 28 -11.5t12 -28.5z" />
    <glyph glyph-name="Eng" unicode="&#x14a;" 
d="M592 533q0 -50 -61 -50v-532q0 -88 -63.5 -144.5t-157.5 -56.5q-84 0 -215 65v72q0 67 50 67t50 -67v-6q69 -31 117 -31q55 0 87 28.5t32 83.5v40l-258 392v-294h35q66 0 66 -50t-66 -50h-129q-67 0 -67 50t61 50v383h-19q-36 0 -49 13.5t-13 36.5q0 50 66 50h115
l258 -392v292h-35q-66 0 -66 50t66 50h130q66 0 66 -50z" />
    <glyph glyph-name="eng" unicode="&#x14b;" 
d="M510 -20q0 -79 -54.5 -132t-136.5 -53h-114q-66 0 -66 50t66 50h111q43 0 68.5 23t25.5 62v298q0 72 -90 72q-35 0 -62.5 -15t-62.5 -53v-182h6q66 0 66 -50t-66 -50h-112q-66 0 -66 50t66 50h6v237q-61 2 -61 50q0 50 67 50h94v-48q36 34 66 47.5t71 13.5q78 0 128 -45
t50 -123v-302z" />
    <glyph glyph-name="Omacron" unicode="&#x14c;" 
d="M579 287q0 -123 -82.5 -212t-196.5 -89q-116 0 -197.5 89.5t-81.5 216.5q0 126 82 215.5t197 89.5t197 -90t82 -220zM479 289q0 86 -52.5 147t-126.5 61q-73 0 -126 -60.5t-53 -144.5q0 -85 52.5 -145.5t126.5 -60.5q73 0 126 60t53 143zM525 716q0 -40 -53 -40h-344
q-53 0 -53 40t53 40h344q53 0 53 -40z" />
    <glyph glyph-name="omacron" unicode="&#x14d;" 
d="M558 217q0 -98 -75 -165.5t-183 -67.5t-183 67.5t-75 165.5q0 99 75 166t186 67q106 0 180.5 -68t74.5 -165zM458 217q0 56 -45.5 94.5t-110.5 38.5q-68 0 -114 -38t-46 -95q0 -56 45.5 -94.5t112.5 -38.5t112.5 38.5t45.5 94.5zM527 580q0 -40 -53 -40h-344
q-53 0 -53 40t53 40h344q53 0 53 -40z" />
    <glyph glyph-name="Obreve" unicode="&#x14e;" 
d="M579 287q0 -123 -82.5 -212t-196.5 -89q-116 0 -197.5 89.5t-81.5 216.5q0 126 82 215.5t197 89.5t197 -90t82 -220zM479 289q0 86 -52.5 147t-126.5 61q-73 0 -126 -60.5t-53 -144.5q0 -85 52.5 -145.5t126.5 -60.5q73 0 126 60t53 143zM481 772q0 -66 -54 -109
t-127 -43t-127 43t-54 109q0 16 11.5 28t28.5 12t28.5 -12t11.5 -28q0 -33 30 -52t71 -19t71 19t30 52q0 16 11.5 28t28.5 12t28.5 -12t11.5 -28z" />
    <glyph glyph-name="obreve" unicode="&#x14f;" 
d="M558 217q0 -98 -75 -165.5t-183 -67.5t-183 67.5t-75 165.5q0 99 75 166t186 67q106 0 180.5 -68t74.5 -165zM458 217q0 56 -45.5 94.5t-110.5 38.5q-68 0 -114 -38t-46 -95q0 -56 45.5 -94.5t112.5 -38.5t112.5 38.5t45.5 94.5zM483 636q0 -66 -54 -109t-127 -43
t-127 43t-54 109q0 16 11.5 28t28.5 12t28.5 -12t11.5 -28q0 -33 30 -52t71 -19t71 19t30 52q0 16 11.5 28t28.5 12t28.5 -12t11.5 -28z" />
    <glyph glyph-name="Ohungarumlaut" unicode="&#x150;" 
d="M579 287q0 -123 -82.5 -212t-196.5 -89q-116 0 -197.5 89.5t-81.5 216.5q0 126 82 215.5t197 89.5t197 -90t82 -220zM479 289q0 86 -52.5 147t-126.5 61q-73 0 -126 -60.5t-53 -144.5q0 -85 52.5 -145.5t126.5 -60.5q73 0 126 60t53 143zM351 797q0 -15 -9 -26l-102 -124
q-12 -15 -31 -15q-17 0 -28.5 12t-11.5 29q0 15 9 25l102 124q12 15 31 15q17 0 28.5 -11.5t11.5 -28.5zM531 797q0 -15 -9 -26l-102 -124q-12 -15 -31 -15q-17 0 -28.5 12t-11.5 29q0 15 9 25l102 124q12 15 31 15q17 0 28.5 -11.5t11.5 -28.5z" />
    <glyph glyph-name="ohungarumlaut" unicode="&#x151;" 
d="M558 217q0 -98 -75 -165.5t-183 -67.5t-183 67.5t-75 165.5q0 99 75 166t186 67q106 0 180.5 -68t74.5 -165zM458 217q0 56 -45.5 94.5t-110.5 38.5q-68 0 -114 -38t-46 -95q0 -56 45.5 -94.5t112.5 -38.5t112.5 38.5t45.5 94.5zM353 651q0 -15 -9 -26l-102 -124
q-12 -15 -31 -15q-17 0 -28.5 12t-11.5 29q0 15 9 25l102 124q12 15 31 15q17 0 28.5 -11.5t11.5 -28.5zM533 651q0 -15 -9 -26l-102 -124q-12 -15 -31 -15q-17 0 -28.5 12t-11.5 29q0 15 9 25l102 124q12 15 31 15q17 0 28.5 -11.5t11.5 -28.5z" />
    <glyph glyph-name="OE" unicode="&#x152;" 
d="M612 0h-353q-122 0 -200.5 82.5t-78.5 209.5t78.5 209t200.5 82h334v-135q0 -25 -7.5 -38t-16.5 -15.5t-26 -2.5q-16 0 -25.5 3t-17 15.5t-7.5 37.5v35h-127v-141h29q2 27 12 38.5t32 11.5q24 0 34.5 -12t10.5 -49v-78q0 -37 -11 -49t-34 -12q-43 0 -44 51h-29v-143h147
v12q0 66 50 66q49 0 49 -66v-112zM266 100v383q-88 -1 -137 -54.5t-49 -137.5q0 -83 50.5 -137t135.5 -54z" />
    <glyph glyph-name="oe" unicode="&#x153;" 
d="M613 65q0 -37 -55.5 -59t-119.5 -22q-83 0 -135 74q-54 -74 -132 -74q-76 0 -129 66.5t-53 161.5q0 100 52.5 169t128.5 69q77 0 133 -80q53 80 133 80q71 0 123.5 -64.5t52.5 -169.5v-45h-252q20 -87 84 -87q32 0 96 28q13 5 24 5q20 0 34.5 -15t14.5 -37zM504 257
q-18 92 -70 92q-27 0 -43 -22t-28 -70h141zM256 215q0 56 -24.5 95t-59.5 39q-34 0 -58.5 -39t-24.5 -94q0 -54 24.5 -93t58.5 -39q35 0 59.5 38.5t24.5 92.5z" />
    <glyph glyph-name="Racute" unicode="&#x154;" 
d="M619 50q0 -50 -66 -50h-79q-37 72 -94.5 141.5t-89.5 80.5h-96v-122h35q66 0 66 -50t-66 -50h-150q-66 0 -66 50q0 24 13 37t49 13h19v383h-19q-36 0 -49 13.5t-13 36.5q0 50 66 50h223q97 0 158.5 -49.5t61.5 -128.5q0 -92 -108 -151q65 -57 126 -154h17q36 0 49 -12.5
t13 -37.5zM416 408q0 32 -31 53.5t-79 21.5h-112v-161h76q63 0 104.5 24.5t41.5 61.5zM451 772q0 -22 -18 -33l-161 -112q-10 -7 -22 -7q-16 0 -28 12t-12 28q0 22 17 33l161 112q10 7 23 7q17 0 28.5 -12t11.5 -28z" />
    <glyph glyph-name="racute" unicode="&#x155;" 
d="M571 364q0 -21 -15 -36t-35 -15q-13 0 -39.5 18t-38.5 18q-24 0 -58.5 -21.5t-106.5 -80.5v-147h139q67 0 67 -50t-67 -50h-297q-66 0 -66 50t66 50h58v237h-35q-66 0 -66 50t66 50h135v-65q60 45 95 61t72 16q39 0 82.5 -26.5t43.5 -58.5zM439 636q0 -22 -18 -33
l-161 -112q-11 -7 -22 -7q-16 0 -28 12t-12 28q0 22 17 33l161 112q10 7 23 7q17 0 28.5 -12t11.5 -28z" />
    <glyph glyph-name="Rcommaaccent" unicode="&#x156;" 
d="M619 50q0 -50 -66 -50h-79q-37 72 -94.5 141.5t-89.5 80.5h-96v-122h35q66 0 66 -50t-66 -50h-150q-66 0 -66 50q0 24 13 37t49 13h19v383h-19q-36 0 -49 13.5t-13 36.5q0 50 66 50h223q97 0 158.5 -49.5t61.5 -128.5q0 -92 -108 -151q65 -57 126 -154h17q36 0 49 -12.5
t13 -37.5zM416 408q0 32 -31 53.5t-79 21.5h-112v-161h76q63 0 104.5 24.5t41.5 61.5zM341 -96q0 -10 -13 -30l-82 -126q-17 -26 -36 -26q-15 0 -26 10.5t-11 24.5t12 32l82 126q17 26 38 26q15 0 25.5 -11t10.5 -26z" />
    <glyph glyph-name="rcommaaccent" unicode="&#x157;" 
d="M571 364q0 -21 -15 -36t-35 -15q-13 0 -39.5 18t-38.5 18q-24 0 -58.5 -21.5t-106.5 -80.5v-147h139q67 0 67 -50t-67 -50h-297q-66 0 -66 50t66 50h58v237h-35q-66 0 -66 50t66 50h135v-65q60 45 95 61t72 16q39 0 82.5 -26.5t43.5 -58.5zM320 -96q0 -10 -13 -30
l-82 -126q-17 -26 -36 -26q-15 0 -26 10.5t-11 24.5t12 32l82 126q17 26 38 26q15 0 25.5 -11t10.5 -26z" />
    <glyph glyph-name="Rcaron" unicode="&#x158;" 
d="M619 50q0 -50 -66 -50h-79q-37 72 -94.5 141.5t-89.5 80.5h-96v-122h35q66 0 66 -50t-66 -50h-150q-66 0 -66 50q0 24 13 37t49 13h19v383h-19q-36 0 -49 13.5t-13 36.5q0 50 66 50h223q97 0 158.5 -49.5t61.5 -128.5q0 -92 -108 -151q65 -57 126 -154h17q36 0 49 -12.5
t13 -37.5zM416 408q0 32 -31 53.5t-79 21.5h-112v-161h76q63 0 104.5 24.5t41.5 61.5zM463 773q0 -19 -15 -31l-132 -113q-12 -10 -26 -10t-26 10l-132 113q-15 12 -15 31q0 17 12 28.5t29 11.5q13 0 25 -10l107 -91l107 91q12 10 26 10q17 0 28.5 -11.5t11.5 -28.5z" />
    <glyph glyph-name="rcaron" unicode="&#x159;" 
d="M571 364q0 -21 -15 -36t-35 -15q-13 0 -39.5 18t-38.5 18q-24 0 -58.5 -21.5t-106.5 -80.5v-147h139q67 0 67 -50t-67 -50h-297q-66 0 -66 50t66 50h58v237h-35q-66 0 -66 50t66 50h135v-65q60 45 95 61t72 16q39 0 82.5 -26.5t43.5 -58.5zM451 637q0 -19 -15 -31
l-132 -113q-12 -10 -26 -10t-26 10l-132 113q-15 12 -15 31q0 17 12 28.5t29 11.5q13 0 25 -10l107 -91l107 91q12 10 26 10q17 0 28.5 -11.5t11.5 -28.5z" />
    <glyph glyph-name="Sacute" unicode="&#x15a;" 
d="M538 160q0 -78 -63 -126t-166 -48q-83 0 -156 39q-20 -24 -40 -24q-51 0 -51 66v66q0 66 50 66q20 0 31 -8.5t20 -39.5q7 -27 48 -46t91 -19q56 0 94 22t38 54q0 31 -26 47.5t-115 32.5q-110 19 -160.5 61.5t-50.5 116.5q0 76 62 126.5t155 50.5q77 0 130 -33q8 19 16 26
t23 7q49 0 49 -66v-88q0 -67 -49 -67q-22 0 -32 9t-18 45q-7 30 -39.5 48.5t-79.5 18.5t-80 -22t-33 -54q0 -16 10.5 -31.5t26.5 -23.5q23 -12 100 -26q73 -14 117 -30t65 -40t27 -47.5t6 -62.5zM465 772q0 -22 -18 -33l-161 -112q-11 -7 -22 -7q-16 0 -28 12t-12 28
q0 22 17 33l161 112q10 7 23 7q17 0 28.5 -12t11.5 -28z" />
    <glyph glyph-name="sacute" unicode="&#x15b;" 
d="M527 125q0 -61 -63 -101t-160 -40q-87 0 -148 29q-15 -12 -32 -12q-51 0 -51 66v33q0 67 51 67q38 0 51 -44q43 -39 125 -39q48 0 82.5 13t34.5 30q0 20 -25 32t-101 20q-105 11 -152 43t-47 91q0 60 58 98.5t148 38.5q73 0 129 -26q11 26 32 26q47 0 47 -66v-37
q0 -66 -50 -66q-30 0 -47 31l-5 9q-41 29 -103 29q-38 0 -68.5 -10.5t-30.5 -24.5t26 -24q15 -5 84 -15q120 -16 167.5 -51.5t47.5 -99.5zM462 636q0 -22 -18 -33l-161 -112q-11 -7 -22 -7q-17 0 -28.5 12t-11.5 28q0 22 17 33l161 112q11 7 23 7q16 0 28 -12t12 -28z" />
    <glyph glyph-name="Scircumflex" unicode="&#x15c;" 
d="M538 160q0 -78 -63 -126t-166 -48q-83 0 -156 39q-20 -24 -40 -24q-51 0 -51 66v66q0 66 50 66q20 0 31 -8.5t20 -39.5q7 -27 48 -46t91 -19q56 0 94 22t38 54q0 31 -26 47.5t-115 32.5q-110 19 -160.5 61.5t-50.5 116.5q0 76 62 126.5t155 50.5q77 0 130 -33q8 19 16 26
t23 7q49 0 49 -66v-88q0 -67 -49 -67q-22 0 -32 9t-18 45q-7 30 -39.5 48.5t-79.5 18.5t-80 -22t-33 -54q0 -16 10.5 -31.5t26.5 -23.5q23 -12 100 -26q73 -14 117 -30t65 -40t27 -47.5t6 -62.5zM477 660q0 -17 -11.5 -29t-28.5 -12q-14 0 -26 10l-107 91l-107 -91
q-12 -10 -25 -10q-17 0 -29 12t-12 29q0 18 15 30l132 113q12 10 26 10t26 -10l132 -113q15 -12 15 -30z" />
    <glyph glyph-name="scircumflex" unicode="&#x15d;" 
d="M527 125q0 -61 -63 -101t-160 -40q-87 0 -148 29q-15 -12 -32 -12q-51 0 -51 66v33q0 67 51 67q38 0 51 -44q43 -39 125 -39q48 0 82.5 13t34.5 30q0 20 -25 32t-101 20q-105 11 -152 43t-47 91q0 60 58 98.5t148 38.5q73 0 129 -26q11 26 32 26q47 0 47 -66v-37
q0 -66 -50 -66q-30 0 -47 31l-5 9q-41 29 -103 29q-38 0 -68.5 -10.5t-30.5 -24.5t26 -24q15 -5 84 -15q120 -16 167.5 -51.5t47.5 -99.5zM474 524q0 -17 -11.5 -29t-28.5 -12q-14 0 -26 10l-107 91l-107 -91q-12 -10 -25 -10q-17 0 -29 12t-12 29q0 18 15 30l132 113
q12 10 26 10t26 -10l132 -113q15 -12 15 -30z" />
    <glyph glyph-name="Scedilla" unicode="&#x15e;" 
d="M538 160q0 -71 -53 -117.5t-141 -54.5v-40q75 -16 75 -94q0 -43 -30.5 -73.5t-76.5 -30.5q-41 0 -80.5 18.5t-39.5 44.5q0 14 10.5 24.5t24.5 10.5q1 0 34.5 -14t51.5 -14q16 0 26 9.5t10 22.5q0 16 -14 26.5t-39 10.5q-9 0 -22 -2v101q-62 6 -121 37q-20 -24 -40 -24
q-51 0 -51 66v66q0 66 50 66q20 0 31 -8.5t20 -39.5q7 -27 48 -46t91 -19q56 0 94 22t38 54q0 31 -26 47.5t-115 32.5q-110 19 -160.5 61.5t-50.5 116.5q0 76 62 126.5t155 50.5q77 0 130 -33q8 19 16 26t23 7q49 0 49 -66v-88q0 -67 -49 -67q-22 0 -32 9t-18 45
q-7 30 -39.5 48.5t-79.5 18.5t-80 -22t-33 -54q0 -16 10.5 -31.5t26.5 -23.5q23 -12 100 -26q73 -14 117 -30t65 -40t27 -47.5t6 -62.5z" />
    <glyph glyph-name="scedilla" unicode="&#x15f;" 
d="M527 125q0 -55 -52 -93.5t-136 -46.5v-37q75 -16 75 -94q0 -43 -30.5 -73.5t-76.5 -30.5q-41 0 -80.5 18.5t-39.5 44.5q0 14 10.5 24.5t24.5 10.5q1 0 34.5 -14t51.5 -14q16 0 26 9.5t10 22.5q0 16 -14 26.5t-39 10.5q-9 0 -22 -2v98q-66 6 -113 28q-15 -12 -32 -12
q-51 0 -51 66v33q0 67 51 67q38 0 51 -44q43 -39 125 -39q48 0 82.5 13t34.5 30q0 20 -25 32t-101 20q-105 11 -152 43t-47 91q0 60 58 98.5t148 38.5q73 0 129 -26q11 26 32 26q47 0 47 -66v-37q0 -66 -50 -66q-30 0 -47 31l-5 9q-41 29 -103 29q-38 0 -68.5 -10.5
t-30.5 -24.5t26 -24q15 -5 84 -15q120 -16 167.5 -51.5t47.5 -99.5z" />
    <glyph glyph-name="Scaron" unicode="&#x160;" 
d="M538 160q0 -78 -63 -126t-166 -48q-83 0 -156 39q-20 -24 -40 -24q-51 0 -51 66v66q0 66 50 66q20 0 31 -8.5t20 -39.5q7 -27 48 -46t91 -19q56 0 94 22t38 54q0 31 -26 47.5t-115 32.5q-110 19 -160.5 61.5t-50.5 116.5q0 76 62 126.5t155 50.5q77 0 130 -33q8 19 16 26
t23 7q49 0 49 -66v-88q0 -67 -49 -67q-22 0 -32 9t-18 45q-7 30 -39.5 48.5t-79.5 18.5t-80 -22t-33 -54q0 -16 10.5 -31.5t26.5 -23.5q23 -12 100 -26q73 -14 117 -30t65 -40t27 -47.5t6 -62.5zM477 773q0 -19 -15 -31l-132 -113q-12 -10 -26 -10t-26 10l-132 113
q-15 12 -15 31q0 17 12 28.5t29 11.5q13 0 25 -10l107 -91l107 91q12 10 26 10q17 0 28.5 -11.5t11.5 -28.5z" />
    <glyph glyph-name="scaron" unicode="&#x161;" 
d="M527 125q0 -61 -63 -101t-160 -40q-87 0 -148 29q-15 -12 -32 -12q-51 0 -51 66v33q0 67 51 67q38 0 51 -44q43 -39 125 -39q48 0 82.5 13t34.5 30q0 20 -25 32t-101 20q-105 11 -152 43t-47 91q0 60 58 98.5t148 38.5q73 0 129 -26q11 26 32 26q47 0 47 -66v-37
q0 -66 -50 -66q-30 0 -47 31l-5 9q-41 29 -103 29q-38 0 -68.5 -10.5t-30.5 -24.5t26 -24q15 -5 84 -15q120 -16 167.5 -51.5t47.5 -99.5zM474 637q0 -19 -15 -31l-132 -113q-12 -10 -26 -10t-26 10l-132 113q-15 12 -15 31q0 17 12 28.5t29 11.5q13 0 25 -10l107 -91
l107 91q12 10 26 10q16 0 28 -11.5t12 -28.5z" />
    <glyph glyph-name="Tcedilla" unicode="&#x162;" 
d="M558 390q0 -66 -50 -66t-50 66v93h-109v-383h66q66 0 66 -50t-66 -50h-81v-52q75 -16 75 -94q0 -43 -30.5 -73.5t-76.5 -30.5q-41 0 -80.5 18.5t-39.5 44.5q0 14 10.5 24.5t24.5 10.5q1 0 34.5 -14t51.5 -14q16 0 26 9.5t10 22.5q0 16 -14 26.5t-39 10.5q-9 0 -22 -2v113
h-80q-66 0 -66 50t66 50h65v383h-107v-93q0 -66 -50 -66t-50 66v193h516v-193z" />
    <glyph glyph-name="tcedilla" unicode="&#x163;" 
d="M529 78q0 -38 -77 -65.5t-151 -28.5v-36q75 -16 75 -94q0 -43 -30.5 -73.5t-76.5 -30.5q-41 0 -80.5 18.5t-39.5 44.5q0 14 10.5 24.5t24.5 10.5q1 0 34.5 -14t51.5 -14q16 0 26 9.5t10 22.5q0 16 -14 26.5t-39 10.5q-9 0 -22 -2v104q-55 14 -86 47.5t-31 83.5v215h-35
q-66 0 -66 50t66 50h35v88q0 66 50 66t50 -66v-88h181q66 0 66 -50t-66 -50h-181v-196q0 -35 19 -46t67 -11q79 0 146 34q21 11 35 11q20 0 34 -15t14 -36z" />
    <glyph glyph-name="Tcaron" unicode="&#x164;" 
d="M558 390q0 -66 -50 -66t-50 66v93h-109v-383h66q66 0 66 -50t-66 -50h-231q-66 0 -66 50t66 50h65v383h-107v-93q0 -66 -50 -66t-50 66v193h516v-193zM472 773q0 -19 -15 -31l-132 -113q-12 -10 -26 -10t-26 10l-132 113q-15 12 -15 31q0 17 12 28.5t29 11.5q13 0 25 -10
l107 -91l107 91q12 10 26 10q16 0 28 -11.5t12 -28.5z" />
    <glyph glyph-name="tcaron" unicode="&#x165;" 
d="M529 78q0 -38 -78 -66t-152 -28q-85 0 -135 37t-50 101v215h-35q-66 0 -66 50t66 50h35v88q0 66 50 66t50 -66v-88h181q66 0 66 -50t-66 -50h-181v-196q0 -35 19 -46t67 -11q79 0 146 34q21 11 35 11q20 0 34 -15t14 -36zM404 641q0 -11 -13 -30l-82 -126
q-17 -26 -36 -26q-15 0 -26 10.5t-11 24.5t12 32l82 126q17 26 38 26q15 0 25.5 -11t10.5 -26z" />
    <glyph glyph-name="Utilde" unicode="&#x168;" 
d="M590 533q0 -50 -61 -50v-278q0 -91 -66.5 -155t-162.5 -64q-95 0 -162 64t-67 155v278q-61 2 -61 50q0 50 66 50h130q66 0 66 -50t-66 -50h-35v-287q0 -46 38 -78t91 -32t91 32t38 78v287h-35q-66 0 -66 50t66 50h130q66 0 66 -50zM485 755q0 -29 -38.5 -67t-70.5 -38
q-34 0 -99 43q-32 21 -50 21q-13 0 -23 -8.5t-32 -37.5q-11 -15 -26 -15q-13 0 -22 9t-9 21q0 31 38 65.5t72 34.5q17 0 34 -7.5t56 -30.5q43 -26 58 -26q11 0 17.5 5.5t23.5 28.5q21 30 39 30q13 0 22.5 -8.5t9.5 -19.5z" />
    <glyph glyph-name="utilde" unicode="&#x169;" 
d="M571 50q0 -50 -66 -50h-95v48q-37 -35 -66.5 -48t-70.5 -13q-79 0 -128.5 45t-49.5 124v181h-27q-23 -1 -39 13.5t-16 36.5q0 50 66 50h116v-278q0 -72 88 -72q38 0 63 13.5t64 54.5v182h-35q-66 0 -66 50t66 50h135v-337q61 0 61 -50zM488 619q0 -29 -38.5 -67
t-70.5 -38q-34 0 -99 43q-32 21 -50 21q-13 0 -23 -8.5t-32 -37.5q-11 -15 -26 -15q-13 0 -22 9t-9 21q0 31 38 65.5t72 34.5q17 0 34 -7.5t56 -30.5q43 -26 58 -26q11 0 17.5 5.5t23.5 28.5q21 30 39 30q13 0 22.5 -8.5t9.5 -19.5z" />
    <glyph glyph-name="Umacron" unicode="&#x16a;" 
d="M590 533q0 -50 -61 -50v-278q0 -91 -66.5 -155t-162.5 -64q-95 0 -162 64t-67 155v278q-61 2 -61 50q0 50 66 50h130q66 0 66 -50t-66 -50h-35v-287q0 -46 38 -78t91 -32t91 32t38 78v287h-35q-66 0 -66 50t66 50h130q66 0 66 -50zM525 716q0 -40 -53 -40h-344
q-53 0 -53 40t53 40h344q53 0 53 -40z" />
    <glyph glyph-name="umacron" unicode="&#x16b;" 
d="M571 50q0 -50 -66 -50h-95v48q-37 -35 -66.5 -48t-70.5 -13q-79 0 -128.5 45t-49.5 124v181h-27q-23 -1 -39 13.5t-16 36.5q0 50 66 50h116v-278q0 -72 88 -72q38 0 63 13.5t64 54.5v182h-35q-66 0 -66 50t66 50h135v-337q61 0 61 -50zM528 580q0 -40 -53 -40h-344
q-53 0 -53 40t53 40h344q53 0 53 -40z" />
    <glyph glyph-name="Ubreve" unicode="&#x16c;" 
d="M590 533q0 -50 -61 -50v-278q0 -91 -66.5 -155t-162.5 -64q-95 0 -162 64t-67 155v278q-61 2 -61 50q0 50 66 50h130q66 0 66 -50t-66 -50h-35v-287q0 -46 38 -78t91 -32t91 32t38 78v287h-35q-66 0 -66 50t66 50h130q66 0 66 -50zM481 772q0 -66 -54 -109t-127 -43
t-127 43t-54 109q0 16 11.5 28t28.5 12t28.5 -12t11.5 -28q0 -33 30 -52t71 -19t71 19t30 52q0 16 11.5 28t28.5 12t28.5 -12t11.5 -28z" />
    <glyph glyph-name="ubreve" unicode="&#x16d;" 
d="M571 50q0 -50 -66 -50h-95v48q-37 -35 -66.5 -48t-70.5 -13q-79 0 -128.5 45t-49.5 124v181h-27q-23 -1 -39 13.5t-16 36.5q0 50 66 50h116v-278q0 -72 88 -72q38 0 63 13.5t64 54.5v182h-35q-66 0 -66 50t66 50h135v-337q61 0 61 -50zM484 636q0 -66 -54 -109t-127 -43
t-127 43t-54 109q0 16 12 28t28 12t28 -12t12 -28q0 -33 30 -52t71 -19t71 19t30 52q0 16 12 28t28 12t28 -12t12 -28z" />
    <glyph glyph-name="Uring" unicode="&#x16e;" 
d="M590 533q0 -50 -61 -50v-278q0 -91 -66.5 -155t-162.5 -64q-95 0 -162 64t-67 155v278q-61 2 -61 50q0 50 66 50h130q66 0 66 -50t-66 -50h-35v-287q0 -46 38 -78t91 -32t91 32t38 78v287h-35q-66 0 -66 50t66 50h130q66 0 66 -50zM435 728q0 -53 -40 -92t-95 -39
t-95 39.5t-40 94.5q0 53 40 92.5t95 39.5q56 0 95.5 -39.5t39.5 -95.5zM377 729q0 31 -22.5 53t-54.5 22q-31 0 -54 -22t-23 -51q0 -30 23 -52t54 -22t54 21.5t23 50.5z" />
    <glyph glyph-name="uring" unicode="&#x16f;" 
d="M571 50q0 -50 -66 -50h-95v48q-37 -35 -66.5 -48t-70.5 -13q-79 0 -128.5 45t-49.5 124v181h-27q-23 -1 -39 13.5t-16 36.5q0 50 66 50h116v-278q0 -72 88 -72q38 0 63 13.5t64 54.5v182h-35q-66 0 -66 50t66 50h135v-337q61 0 61 -50zM438 588q0 -53 -40 -92t-95 -39
t-95 39.5t-40 94.5q0 53 40 92.5t95 39.5q56 0 95.5 -39.5t39.5 -95.5zM380 589q0 31 -22.5 53t-54.5 22q-31 0 -54 -22t-23 -51q0 -30 23 -52t54 -22t54 21.5t23 50.5z" />
    <glyph glyph-name="Uhungarumlaut" unicode="&#x170;" 
d="M590 533q0 -50 -61 -50v-278q0 -91 -66.5 -155t-162.5 -64q-95 0 -162 64t-67 155v278q-61 2 -61 50q0 50 66 50h130q66 0 66 -50t-66 -50h-35v-287q0 -46 38 -78t91 -32t91 32t38 78v287h-35q-66 0 -66 50t66 50h130q66 0 66 -50zM351 797q0 -15 -9 -26l-102 -124
q-12 -15 -31 -15q-17 0 -28.5 12t-11.5 29q0 15 9 25l102 124q12 15 31 15q17 0 28.5 -11.5t11.5 -28.5zM531 797q0 -15 -9 -26l-102 -124q-12 -15 -31 -15q-17 0 -28.5 12t-11.5 29q0 15 9 25l102 124q12 15 31 15q17 0 28.5 -11.5t11.5 -28.5z" />
    <glyph glyph-name="uhungarumlaut" unicode="&#x171;" 
d="M571 50q0 -50 -66 -50h-95v48q-37 -35 -66.5 -48t-70.5 -13q-79 0 -128.5 45t-49.5 124v181h-27q-23 -1 -39 13.5t-16 36.5q0 50 66 50h116v-278q0 -72 88 -72q38 0 63 13.5t64 54.5v182h-35q-66 0 -66 50t66 50h135v-337q61 0 61 -50zM354 651q0 -15 -9 -26l-102 -124
q-12 -15 -31 -15q-17 0 -28.5 12t-11.5 29q0 15 9 25l102 124q12 15 31 15q16 0 28 -11.5t12 -28.5zM534 651q0 -15 -9 -26l-102 -124q-12 -15 -31 -15q-17 0 -28.5 12t-11.5 29q0 15 9 25l102 124q12 15 31 15q16 0 28 -11.5t12 -28.5z" />
    <glyph glyph-name="Uogonek" unicode="&#x172;" 
d="M590 533q0 -50 -61 -50v-278q0 -53 -25 -99.5t-68 -76.5q-10 -7 -46.5 -28.5t-52.5 -38.5q-27 -32 -27 -74q0 -17 12 -32.5t28 -15.5q42 0 58 18q17 20 40 20q14 0 23 -8q13 -10 13 -28q0 -38 -45 -65t-89 -27q-52 0 -91 36.5t-39 85.5q0 65 42 117q-82 13 -136.5 74
t-54.5 142v278q-61 2 -61 50q0 50 66 50h130q66 0 66 -50t-66 -50h-35v-287q0 -46 38 -78t91 -32t91 32t38 78v287h-35q-66 0 -66 50t66 50h130q66 0 66 -50z" />
    <glyph glyph-name="uogonek" unicode="&#x173;" 
d="M585 -158q0 -38 -45 -65t-89 -27q-52 0 -91 36.5t-39 85.5q0 100 89 159v17q-37 -35 -66.5 -48t-70.5 -13q-79 0 -128.5 45t-49.5 124v181h-27q-23 -1 -39 13.5t-16 36.5q0 50 66 50h116v-278q0 -72 88 -72q38 0 63 13.5t64 54.5v182h-35q-66 0 -66 50t66 50h135v-337
q61 0 61 -50t-66 -50q-33 0 -67 -38q-27 -32 -27 -74q0 -17 12 -32.5t28 -15.5q42 0 58 18q17 20 40 20q14 0 23 -8q13 -10 13 -28z" />
    <glyph glyph-name="Wcircumflex" unicode="&#x174;" 
d="M610 533q0 -42 -47 -50l-60 -483h-110l-93 277l-91 -277h-111l-62 483q-46 6 -46 48q0 52 66 52h131q67 0 67 -50t-67 -50h-48l36 -272l76 226h104l76 -226l35 272h-53q-66 0 -66 50t66 50h131q66 0 66 -50zM476 660q0 -17 -11.5 -29t-28.5 -12q-14 0 -26 10l-107 91
l-107 -91q-12 -10 -25 -10q-17 0 -29 12t-12 29q0 18 15 30l132 113q12 10 26 10t26 -10l132 -113q15 -12 15 -30z" />
    <glyph glyph-name="wcircumflex" unicode="&#x175;" 
d="M600 387q0 -46 -52 -49l-84 -338h-92l-71 181l-68 -181h-94l-85 338q-26 2 -40 14.5t-14 34.5q0 50 66 50h92q66 0 66 -50q0 -49 -64 -49l39 -153l60 158h88l61 -158l40 153h-7q-66 0 -66 49q0 50 66 50h93q66 0 66 -50zM476 524q0 -17 -11.5 -29t-28.5 -12q-14 0 -26 10
l-107 91l-107 -91q-12 -10 -25 -10q-17 0 -29 12t-12 29q0 18 15 30l132 113q12 10 26 10t26 -10l132 -113q15 -12 15 -30z" />
    <glyph glyph-name="Ycircumflex" unicode="&#x176;" 
d="M579 533q0 -22 -16 -36t-39 -14h-10l-164 -238v-145h65q67 0 67 -50t-67 -50h-230q-67 0 -67 50t67 50h65v145l-165 238q-64 0 -64 50t67 50h89q66 0 66 -50q0 -33 -38 -49l95 -136l94 136q-40 15 -40 49q0 50 67 50h92q66 0 66 -50zM473 660q0 -17 -11.5 -29t-28.5 -12
q-14 0 -26 10l-107 91l-107 -91q-12 -10 -25 -10q-17 0 -29 12t-12 29q0 18 15 30l132 113q12 10 26 10t26 -10l132 -113q15 -12 15 -30z" />
    <glyph glyph-name="ycircumflex" unicode="&#x177;" 
d="M579 387q0 -45 -52 -50l-230 -442h5q66 0 66 -50t-66 -50h-215q-66 0 -66 50t66 50h100l55 108l-172 334q-49 6 -49 50q0 50 66 50h90q66 0 66 -50q0 -48 -59 -50l114 -223l120 223q-64 0 -64 50t67 50h92q66 0 66 -50zM472 524q0 -17 -11.5 -29t-28.5 -12q-14 0 -26 10
l-107 91l-107 -91q-12 -10 -25 -10q-17 0 -29 12t-12 29q0 18 15 30l132 113q12 10 26 10t26 -10l132 -113q15 -12 15 -30z" />
    <glyph glyph-name="Ydieresis" unicode="&#x178;" 
d="M579 533q0 -22 -16 -36t-39 -14h-10l-164 -238v-145h65q67 0 67 -50t-67 -50h-230q-67 0 -67 50t67 50h65v145l-165 238q-64 0 -64 50t67 50h89q66 0 66 -50q0 -33 -38 -49l95 -136l94 136q-40 15 -40 49q0 50 67 50h92q66 0 66 -50zM468 715q0 -24 -17.5 -41.5
t-42.5 -17.5t-42.5 17.5t-17.5 42.5t17.5 42.5t42.5 17.5t42.5 -17.5t17.5 -43.5zM252 715q0 -24 -17.5 -41.5t-42.5 -17.5t-42.5 17.5t-17.5 42.5t17.5 42.5t42.5 17.5t42.5 -17.5t17.5 -43.5z" />
    <glyph glyph-name="Zacute" unicode="&#x179;" 
d="M527 0h-454v100l302 383h-179v-70q0 -66 -50 -66t-50 66v170h408v-97l-303 -386h226v72q0 66 50 66t50 -66v-172zM461 772q0 -22 -18 -33l-161 -112q-10 -7 -22 -7q-16 0 -28 12t-12 28q0 22 17 33l161 112q10 7 23 7q17 0 28.5 -12t11.5 -28z" />
    <glyph glyph-name="zacute" unicode="&#x17a;" 
d="M519 0h-434v83l261 254h-149v-9q0 -66 -50 -66t-50 66v109h409v-81l-262 -256h175q3 54 50 54q50 0 50 -66v-88zM463 636q0 -22 -18 -33l-161 -112q-10 -7 -22 -7q-16 0 -28 12t-12 28q0 22 17 33l161 112q10 7 23 7q17 0 28.5 -12t11.5 -28z" />
    <glyph glyph-name="Zdotaccent" unicode="&#x17b;" 
d="M527 0h-454v100l302 383h-179v-70q0 -66 -50 -66t-50 66v170h408v-97l-303 -386h226v72q0 66 50 66t50 -66v-172zM360 715q0 -24 -17.5 -41.5t-42.5 -17.5t-42.5 17.5t-17.5 42.5t17.5 42.5t42.5 17.5t42.5 -17.5t17.5 -43.5z" />
    <glyph glyph-name="zdotaccent" unicode="&#x17c;" 
d="M519 0h-434v83l261 254h-149v-9q0 -66 -50 -66t-50 66v109h409v-81l-262 -256h175q3 54 50 54q50 0 50 -66v-88zM362 579q0 -24 -17.5 -41.5t-42.5 -17.5t-42.5 17.5t-17.5 42.5t17.5 42.5t42.5 17.5t42.5 -17.5t17.5 -43.5z" />
    <glyph glyph-name="Zcaron" unicode="&#x17d;" 
d="M527 0h-454v100l302 383h-179v-70q0 -66 -50 -66t-50 66v170h408v-97l-303 -386h226v72q0 66 50 66t50 -66v-172zM473 773q0 -19 -15 -31l-132 -113q-12 -10 -26 -10t-26 10l-132 113q-15 12 -15 31q0 17 12 28.5t29 11.5q13 0 25 -10l107 -91l107 91q12 10 26 10
q17 0 28.5 -11.5t11.5 -28.5z" />
    <glyph glyph-name="zcaron" unicode="&#x17e;" 
d="M519 0h-434v83l261 254h-149v-9q0 -66 -50 -66t-50 66v109h409v-81l-262 -256h175q3 54 50 54q50 0 50 -66v-88zM475 637q0 -19 -15 -31l-132 -113q-12 -10 -26 -10t-26 10l-132 113q-15 12 -15 31q0 17 12 28.5t29 11.5q13 0 25 -10l107 -91l107 91q12 10 26 10
q17 0 28.5 -11.5t11.5 -28.5z" />
    <glyph glyph-name="longs" unicode="&#x17f;" 
d="M571 560q0 -22 -13.5 -36.5t-33.5 -14.5q-10 0 -64 7t-77 7q-84 0 -84 -49v-37v-337h39q66 0 66 -50t-66 -50h-197q-66 0 -66 50t66 50h58v237h-47q-66 0 -66 50t67 50h46v37q0 69 52 109t141 40q179 0 179 -63z" />
    <glyph glyph-name="Ereversed" unicode="&#x18e;" 
d="M550 50q0 -50 -66 -50h-471v152q0 67 50 67t50 -67v-52h256v143h-85q0 -73 -50 -73q-49 0 -49 66v113q0 67 50 67q21 0 35 -18t14 -56h85v141h-234v-50q0 -67 -50 -67t-50 67v150h449q66 0 66 -50q0 -23 -13 -36.5t-49 -13.5h-19v-383h19q36 0 49 -13.5t13 -36.5z" />
    <glyph glyph-name="florin" unicode="&#x192;" 
d="M548 577q0 -22 -14 -37.5t-34 -15.5q-5 0 -31.5 7t-41.5 7q-30 0 -51.5 -24t-21.5 -58v-52h57q67 0 67 -50t-67 -50h-57v-238q0 -80 -50.5 -134.5t-124.5 -54.5q-58 0 -90 17t-32 47q0 20 14.5 35t33.5 15q1 0 28 -7t43 -7q35 0 56.5 24.5t21.5 64.5v238h-57
q-67 0 -67 50t67 50h57v55q0 74 51 126.5t123 52.5q56 0 88 -16t32 -45z" />
    <glyph glyph-name="Ohorn" unicode="&#x1a0;" 
d="M631 551q0 -81 -43 -119q-14 -12 -30 -21q21 -55 21 -124q0 -123 -82.5 -212t-196.5 -89q-116 0 -197.5 89.5t-81.5 216.5q0 126 82 215.5t197 89.5q103 0 185 -77q20 -20 37 -43q25 20 25 76q0 60 42 60t42 -62zM479 289q0 86 -52.5 147t-126.5 61q-73 0 -126 -60.5
t-53 -144.5q0 -85 52.5 -145.5t126.5 -60.5q73 0 126 60t53 143z" />
    <glyph glyph-name="ohorn" unicode="&#x1a1;" 
d="M621 405q0 -81 -43 -119q-8 -7 -26 -19q6 -24 6 -50q0 -98 -75 -165.5t-183 -67.5t-183 67.5t-75 165.5q0 99 75 166t186 67q68 0 125.5 -30t91.5 -81q17 22 17 68q0 60 42 60t42 -62zM458 217q0 56 -45.5 94.5t-110.5 38.5q-68 0 -114 -38t-46 -95q0 -56 45.5 -94.5
t112.5 -38.5t112.5 38.5t45.5 94.5z" />
    <glyph glyph-name="Uhorn" unicode="&#x1af;" 
d="M658 551q0 -81 -43 -119q-36 -31 -86 -41v-186q0 -107 -84 -170q-64 -49 -145 -49t-145 49q-84 65 -84 170v278q-61 2 -61 50q0 29 24 43q10 7 42 7h130q34 0 46 -9q20 -17 20 -41q0 -29 -24 -43q-11 -7 -42 -7h-35v-287q0 -46 38 -78t91 -32t91 32t38 78v287h-35
q-33 0 -45 9q-21 16 -21 41q0 29 24 43q10 7 42 7h135v-117q45 14 45 87q0 60 42 60t42 -62z" />
    <glyph glyph-name="uhorn" unicode="&#x1b0;" 
d="M642 405q0 -81 -43 -119q-35 -32 -89 -41v-145q61 0 61 -50q0 -27 -24 -43q-11 -7 -42 -7h-95v48q-37 -35 -66.5 -48t-70.5 -13q-70 0 -119 37q-59 44 -59 132v182h-16l-11 -1q-22 -1 -38.5 13.5t-16.5 36.5q0 29 24 43q11 7 42 7h116v-278q0 -72 88 -72q38 0 63 13.5
t64 54.5v182h-35q-34 0 -45 10q-21 15 -21 40q0 29 24 43q11 7 42 7h135v-118q48 14 48 88q0 60 42 60t42 -62z" />
    <glyph glyph-name="Acaron" unicode="&#x1cd;" 
d="M621 50q0 -50 -66 -50h-139q-66 0 -66 50t66 50h23l-23 58h-238l-23 -58h23q66 0 66 -50t-66 -50h-133q-66 0 -66 50t67 50l155 383h-63q-67 0 -67 50t67 50h216l199 -483q68 0 68 -50zM375 258l-78 192l-79 -192h157zM470 773q0 -19 -15 -31l-132 -113q-12 -10 -26 -10
t-26 10l-132 113q-15 12 -15 31q0 17 12 28.5t29 11.5q13 0 25 -10l107 -91l107 91q12 10 26 10q16 0 28 -11.5t12 -28.5z" />
    <glyph glyph-name="acaron" unicode="&#x1ce;" 
d="M571 50q0 -50 -66 -50h-117v23q-75 -39 -166 -39q-74 0 -127 39.5t-53 95.5q0 73 70.5 121t171.5 48q45 0 104 -10v23q0 49 -93 49q-51 0 -116 -17q-25 -6 -40 -6q-21 0 -35 14.5t-14 36.5q0 32 30 42q85 30 172 30q92 0 144.5 -39t52.5 -109v-202h16q66 0 66 -50z
M389 135v50q-63 11 -111 11q-51 0 -90.5 -22t-39.5 -51q0 -17 22 -28t54 -11q82 0 165 51zM465 637q0 -19 -15 -31l-132 -113q-12 -10 -26 -10t-26 10l-132 113q-15 12 -15 31q0 17 12 28.5t29 11.5q13 0 25 -10l107 -91l107 91q12 10 26 10q17 0 28.5 -11.5t11.5 -28.5z
" />
    <glyph glyph-name="Icaron" unicode="&#x1cf;" 
d="M517 50q0 -50 -66 -50h-302q-66 0 -66 50t66 50h101v383h-101q-66 0 -66 50t66 50h302q66 0 66 -50t-66 -50h-101v-383h101q66 0 66 -50zM473 773q0 -19 -15 -31l-132 -113q-12 -10 -26 -10t-26 10l-132 113q-15 12 -15 31q0 17 12 28.5t29 11.5q13 0 25 -10l107 -91
l107 91q12 10 26 10q17 0 28.5 -11.5t11.5 -28.5z" />
    <glyph glyph-name="icaron" unicode="&#x1d0;" 
d="M538 50q0 -50 -66 -50h-344q-66 0 -66 50t66 50h122v237h-78q-67 0 -67 50t67 50h178v-337h122q66 0 66 -50zM473 637q0 -19 -15 -31l-132 -113q-12 -10 -26 -10t-26 10l-132 113q-15 12 -15 31q0 17 12 28.5t29 11.5q13 0 25 -10l107 -91l107 91q12 10 26 10
q17 0 28.5 -11.5t11.5 -28.5z" />
    <glyph glyph-name="Ocaron" unicode="&#x1d1;" 
d="M579 287q0 -123 -82.5 -212t-196.5 -89q-116 0 -197.5 89.5t-81.5 216.5q0 126 82 215.5t197 89.5t197 -90t82 -220zM479 289q0 86 -52.5 147t-126.5 61q-73 0 -126 -60.5t-53 -144.5q0 -85 52.5 -145.5t126.5 -60.5q73 0 126 60t53 143zM473 773q0 -19 -15 -31
l-132 -113q-12 -10 -26 -10t-26 10l-132 113q-15 12 -15 31q0 17 12 28.5t29 11.5q13 0 25 -10l107 -91l107 91q12 10 26 10q17 0 28.5 -11.5t11.5 -28.5z" />
    <glyph glyph-name="ocaron" unicode="&#x1d2;" 
d="M558 217q0 -98 -75 -165.5t-183 -67.5t-183 67.5t-75 165.5q0 99 75 166t186 67q106 0 180.5 -68t74.5 -165zM458 217q0 56 -45.5 94.5t-110.5 38.5q-68 0 -114 -38t-46 -95q0 -56 45.5 -94.5t112.5 -38.5t112.5 38.5t45.5 94.5zM475 637q0 -19 -15 -31l-132 -113
q-12 -10 -26 -10t-26 10l-132 113q-15 12 -15 31q0 17 12 28.5t29 11.5q13 0 25 -10l107 -91l107 91q12 10 26 10q17 0 28.5 -11.5t11.5 -28.5z" />
    <glyph glyph-name="Ucaron" unicode="&#x1d3;" 
d="M590 533q0 -50 -61 -50v-278q0 -91 -66.5 -155t-162.5 -64q-95 0 -162 64t-67 155v278q-61 2 -61 50q0 50 66 50h130q66 0 66 -50t-66 -50h-35v-287q0 -46 38 -78t91 -32t91 32t38 78v287h-35q-66 0 -66 50t66 50h130q66 0 66 -50zM473 773q0 -19 -15 -31l-132 -113
q-12 -10 -26 -10t-26 10l-132 113q-15 12 -15 31q0 17 12 28.5t29 11.5q13 0 25 -10l107 -91l107 91q12 10 26 10q17 0 28.5 -11.5t11.5 -28.5z" />
    <glyph glyph-name="ucaron" unicode="&#x1d4;" 
d="M571 50q0 -50 -66 -50h-95v48q-37 -35 -66.5 -48t-70.5 -13q-79 0 -128.5 45t-49.5 124v181h-27q-23 -1 -39 13.5t-16 36.5q0 50 66 50h116v-278q0 -72 88 -72q38 0 63 13.5t64 54.5v182h-35q-66 0 -66 50t66 50h135v-337q61 0 61 -50zM476 637q0 -19 -15 -31l-132 -113
q-12 -10 -26 -10t-26 10l-132 113q-15 12 -15 31q0 17 12 28.5t29 11.5q13 0 25 -10l107 -91l107 91q12 10 26 10q16 0 28 -11.5t12 -28.5z" />
    <glyph glyph-name="Udieresisacute" unicode="&#x1d7;" 
d="M590 533q0 -50 -61 -50v-278q0 -91 -66.5 -155t-162.5 -64q-95 0 -162 64t-67 155v278q-61 2 -61 50q0 50 66 50h130q66 0 66 -50t-66 -50h-35v-287q0 -46 38 -78t91 -32t91 32t38 78v287h-35q-66 0 -66 50t66 50h130q66 0 66 -50zM468 715q0 -24 -17.5 -41.5
t-42.5 -17.5t-42.5 17.5t-17.5 42.5t17.5 42.5t42.5 17.5t42.5 -17.5t17.5 -43.5zM252 715q0 -24 -17.5 -41.5t-42.5 -17.5t-42.5 17.5t-17.5 42.5t17.5 42.5t42.5 17.5t42.5 -17.5t17.5 -43.5zM461 965q0 -22 -18 -33l-161 -112q-10 -7 -22 -7q-16 0 -28 11.5t-12 28.5
q0 22 17 33l161 112q10 7 23 7q17 0 28.5 -11.5t11.5 -28.5z" />
    <glyph glyph-name="udieresisacute" unicode="&#x1d8;" 
d="M571 50q0 -50 -66 -50h-95v48q-37 -35 -66.5 -48t-70.5 -13q-79 0 -128.5 45t-49.5 124v181h-27q-23 -1 -39 13.5t-16 36.5q0 50 66 50h116v-278q0 -72 88 -72q38 0 63 13.5t64 54.5v182h-35q-66 0 -66 50t66 50h135v-337q61 0 61 -50zM471 579q0 -24 -17.5 -41.5
t-42.5 -17.5t-42.5 17.5t-17.5 42.5t17.5 42.5t42.5 17.5t42.5 -17.5t17.5 -43.5zM255 579q0 -24 -17.5 -41.5t-42.5 -17.5t-42.5 17.5t-17.5 42.5t17.5 42.5t42.5 17.5t42.5 -17.5t17.5 -43.5zM464 843q0 -22 -18 -33l-161 -112q-11 -7 -22 -7q-17 0 -28.5 11.5t-11.5 28.5
q0 22 17 33l161 112q10 7 23 7q16 0 28 -11.5t12 -28.5z" />
    <glyph glyph-name="Udieresiscaron" unicode="&#x1d9;" 
d="M590 533q0 -50 -61 -50v-278q0 -91 -66.5 -155t-162.5 -64q-95 0 -162 64t-67 155v278q-61 2 -61 50q0 50 66 50h130q66 0 66 -50t-66 -50h-35v-287q0 -46 38 -78t91 -32t91 32t38 78v287h-35q-66 0 -66 50t66 50h130q66 0 66 -50zM468 715q0 -24 -17.5 -41.5
t-42.5 -17.5t-42.5 17.5t-17.5 42.5t17.5 42.5t42.5 17.5t42.5 -17.5t17.5 -43.5zM252 715q0 -24 -17.5 -41.5t-42.5 -17.5t-42.5 17.5t-17.5 42.5t17.5 42.5t42.5 17.5t42.5 -17.5t17.5 -43.5zM473 966q0 -19 -15 -31l-132 -113q-12 -10 -26 -10t-26 10l-132 113
q-15 12 -15 31q0 17 12 28.5t29 11.5q13 0 25 -10l107 -91l107 91q12 10 26 10q17 0 28.5 -12t11.5 -28z" />
    <glyph glyph-name="udieresiscaron" unicode="&#x1da;" 
d="M571 50q0 -50 -66 -50h-95v48q-37 -35 -66.5 -48t-70.5 -13q-79 0 -128.5 45t-49.5 124v181h-27q-23 -1 -39 13.5t-16 36.5q0 50 66 50h116v-278q0 -72 88 -72q38 0 63 13.5t64 54.5v182h-35q-66 0 -66 50t66 50h135v-337q61 0 61 -50zM471 579q0 -24 -17.5 -41.5
t-42.5 -17.5t-42.5 17.5t-17.5 42.5t17.5 42.5t42.5 17.5t42.5 -17.5t17.5 -43.5zM255 579q0 -24 -17.5 -41.5t-42.5 -17.5t-42.5 17.5t-17.5 42.5t17.5 42.5t42.5 17.5t42.5 -17.5t17.5 -43.5zM476 844q0 -19 -15 -31l-132 -113q-12 -10 -26 -10t-26 10l-132 113
q-15 12 -15 31q0 17 12 28.5t29 11.5q13 0 25 -10l107 -91l107 91q12 10 26 10q16 0 28 -12t12 -28z" />
    <glyph glyph-name="Udieresisgrave" unicode="&#x1db;" 
d="M590 533q0 -50 -61 -50v-278q0 -91 -66.5 -155t-162.5 -64q-95 0 -162 64t-67 155v278q-61 2 -61 50q0 50 66 50h130q66 0 66 -50t-66 -50h-35v-287q0 -46 38 -78t91 -32t91 32t38 78v287h-35q-66 0 -66 50t66 50h130q66 0 66 -50zM468 715q0 -24 -17.5 -41.5
t-42.5 -17.5t-42.5 17.5t-17.5 42.5t17.5 42.5t42.5 17.5t42.5 -17.5t17.5 -43.5zM252 715q0 -24 -17.5 -41.5t-42.5 -17.5t-42.5 17.5t-17.5 42.5t17.5 42.5t42.5 17.5t42.5 -17.5t17.5 -43.5zM380 853q0 -17 -12 -28.5t-28 -11.5q-12 0 -22 7l-161 112q-18 11 -18 33
q0 17 11.5 28.5t28.5 11.5q13 0 23 -7l161 -112q17 -11 17 -33z" />
    <glyph glyph-name="udieresisgrave" unicode="&#x1dc;" 
d="M571 50q0 -50 -66 -50h-95v48q-37 -35 -66.5 -48t-70.5 -13q-79 0 -128.5 45t-49.5 124v181h-27q-23 -1 -39 13.5t-16 36.5q0 50 66 50h116v-278q0 -72 88 -72q38 0 63 13.5t64 54.5v182h-35q-66 0 -66 50t66 50h135v-337q61 0 61 -50zM471 579q0 -24 -17.5 -41.5
t-42.5 -17.5t-42.5 17.5t-17.5 42.5t17.5 42.5t42.5 17.5t42.5 -17.5t17.5 -43.5zM255 579q0 -24 -17.5 -41.5t-42.5 -17.5t-42.5 17.5t-17.5 42.5t17.5 42.5t42.5 17.5t42.5 -17.5t17.5 -43.5zM383 731q0 -17 -11.5 -28.5t-28.5 -11.5q-11 0 -22 7l-161 112q-18 11 -18 33
q0 17 12 28.5t28 11.5q12 0 23 -7l161 -112q17 -11 17 -33z" />
    <glyph glyph-name="eturned" unicode="&#x1dd;" 
d="M550 218q0 -99 -74.5 -166.5t-183.5 -67.5q-112 0 -185.5 68t-73.5 171v39h408q-34 88 -164 88q-56 0 -163 -28q-20 -5 -33 -5q-20 0 -34 14.5t-14 35.5q0 38 79 60.5t174 22.5q116 0 190 -65t74 -167zM438 174h-294q12 -41 52 -65.5t95 -24.5t95.5 25t51.5 65z" />
    <glyph glyph-name="Gcaron" unicode="&#x1e6;" 
d="M592 230q0 -38 -42 -50v-132q-67 -35 -114 -48.5t-105 -13.5q-142 0 -220 69t-78 191v71q0 117 80.5 198.5t203.5 81.5q81 0 145 -32q16 32 41 32q47 0 47 -66v-78q0 -66 -50 -66q-14 0 -21 2.5t-14.5 14t-13.5 36.5q-8 26 -43.5 41.5t-89.5 15.5q-86 0 -135.5 -51.5
t-49.5 -128.5v-64q0 -167 192 -167q69 0 125 25v69h-100q-66 0 -66 50t66 50h175q67 0 67 -50zM497 773q0 -19 -15 -31l-132 -113q-12 -10 -26 -10t-26 10l-132 113q-15 12 -15 31q0 17 12 28.5t29 11.5q13 0 25 -10l107 -91l107 91q12 10 26 10q17 0 28.5 -11.5t11.5 -28.5
z" />
    <glyph glyph-name="gcaron" unicode="&#x1e7;" 
d="M592 387q0 -50 -66 -50h-16v-357q0 -79 -54.5 -132t-136.5 -53h-112q-66 0 -66 50t66 50h109q43 0 68.5 23t25.5 62v55q-66 -49 -141 -49q-101 0 -168.5 66.5t-67.5 165.5q0 100 67.5 166.5t168.5 66.5q82 0 141 -50v36h116q66 0 66 -50zM410 217q0 56 -40.5 95t-98.5 39
q-57 0 -97.5 -38.5t-40.5 -93.5t40.5 -94t97.5 -39t98 38.5t41 92.5zM442 637q0 -19 -15 -31l-132 -113q-12 -10 -26 -10t-26 10l-132 113q-15 12 -15 31q0 17 12 28.5t29 11.5q13 0 25 -10l107 -91l107 91q12 10 26 10q16 0 28 -11.5t12 -28.5z" />
    <glyph glyph-name="Oogonek" unicode="&#x1ea;" 
d="M579 287q0 -85 -41.5 -156.5t-110.5 -110.5q-39 -23 -70 -58q-27 -32 -27 -74q0 -17 12 -32.5t28 -15.5q42 0 58 18q17 20 40 20q14 0 23 -8q13 -10 13 -28q0 -38 -45 -65t-89 -27q-52 0 -91 36.5t-39 85.5q0 64 40 115q-109 8 -184 96t-75 209q0 126 82 215.5t197 89.5
t197 -90t82 -220zM479 289q0 86 -52.5 147t-126.5 61q-73 0 -126 -60.5t-53 -144.5q0 -85 52.5 -145.5t126.5 -60.5q73 0 126 60t53 143z" />
    <glyph glyph-name="oogonek" unicode="&#x1eb;" 
d="M558 217q0 -67 -38 -122.5t-101 -84.5q-54 -27 -72 -48q-27 -32 -27 -74q0 -17 12 -32.5t28 -15.5q42 0 58 18q17 20 40 20q14 0 23 -8q13 -10 13 -28q0 -38 -45 -65t-89 -27q-52 0 -91 36.5t-39 85.5q0 62 39 114q-97 10 -162 75.5t-65 155.5q0 99 75 166t186 67
q106 0 180.5 -68t74.5 -165zM458 217q0 56 -45.5 94.5t-110.5 38.5q-68 0 -114 -38t-46 -95q0 -56 45.5 -94.5t112.5 -38.5t112.5 38.5t45.5 94.5z" />
    <glyph glyph-name="jcaron" unicode="&#x1f0;" 
d="M488 -20q0 -79 -54.5 -132t-136.5 -53h-114q-66 0 -66 50t66 50h111q43 0 68.5 23t25.5 62v357h-202q-66 0 -66 50t66 50h302v-457zM560 637q0 -19 -15 -31l-132 -113q-12 -10 -26 -10t-26 10l-132 113q-15 12 -15 31q0 17 12 28.5t29 11.5q13 0 25 -10l107 -91l107 91
q12 10 26 10q16 0 28 -11.5t12 -28.5z" />
    <glyph glyph-name="Gacute" unicode="&#x1f4;" 
d="M592 230q0 -38 -42 -50v-132q-67 -35 -114 -48.5t-105 -13.5q-142 0 -220 69t-78 191v71q0 117 80.5 198.5t203.5 81.5q81 0 145 -32q16 32 41 32q47 0 47 -66v-78q0 -66 -50 -66q-14 0 -21 2.5t-14.5 14t-13.5 36.5q-8 26 -43.5 41.5t-89.5 15.5q-86 0 -135.5 -51.5
t-49.5 -128.5v-64q0 -167 192 -167q69 0 125 25v69h-100q-66 0 -66 50t66 50h175q67 0 67 -50zM485 772q0 -22 -18 -33l-161 -112q-10 -7 -22 -7q-16 0 -28 12t-12 28q0 22 17 33l161 112q10 7 23 7q17 0 28.5 -12t11.5 -28z" />
    <glyph glyph-name="gacute" unicode="&#x1f5;" 
d="M592 387q0 -50 -66 -50h-16v-357q0 -79 -54.5 -132t-136.5 -53h-112q-66 0 -66 50t66 50h109q43 0 68.5 23t25.5 62v55q-66 -49 -141 -49q-101 0 -168.5 66.5t-67.5 165.5q0 100 67.5 166.5t168.5 66.5q82 0 141 -50v36h116q66 0 66 -50zM410 217q0 56 -40.5 95t-98.5 39
q-57 0 -97.5 -38.5t-40.5 -93.5t40.5 -94t97.5 -39t98 38.5t41 92.5zM430 636q0 -22 -18 -33l-161 -112q-11 -7 -22 -7q-17 0 -28.5 12t-11.5 28q0 22 17 33l161 112q10 7 23 7q16 0 28 -12t12 -28z" />
    <glyph glyph-name="Aringacute" unicode="&#x1fa;" 
d="M621 50q0 -50 -66 -50h-139q-66 0 -66 50t66 50h23l-23 58h-238l-23 -58h23q66 0 66 -50t-66 -50h-133q-66 0 -66 50t67 50l155 383h-63q-67 0 -67 50t67 50h216l199 -483q68 0 68 -50zM375 258l-78 192l-79 -192h157zM418 1024q0 -22 -18 -33l-161 -111q-8 -7 -22 -7
q-17 0 -28.5 11.5t-11.5 28.5q0 21 17 32l161 112q10 7 23 7q16 0 28 -12t12 -28zM432 728q0 -53 -40 -92t-95 -39t-95 39.5t-40 94.5q0 53 40 92.5t95 39.5q56 0 95.5 -39.5t39.5 -95.5zM374 729q0 31 -22.5 53t-54.5 22q-31 0 -54 -22t-23 -51q0 -30 23 -52t54 -22
t54 21.5t23 50.5z" />
    <glyph glyph-name="aringacute" unicode="&#x1fb;" 
d="M571 50q0 -50 -66 -50h-117v23q-75 -39 -166 -39q-74 0 -127 39.5t-53 95.5q0 73 70.5 121t171.5 48q45 0 104 -10v23q0 49 -93 49q-51 0 -116 -17q-25 -6 -40 -6q-21 0 -35 14.5t-14 36.5q0 32 30 42q85 30 172 30q92 0 144.5 -39t52.5 -109v-202h16q66 0 66 -50z
M389 135v50q-63 11 -111 11q-51 0 -90.5 -22t-39.5 -51q0 -17 22 -28t54 -11q82 0 165 51zM413 878q0 -22 -18 -33l-161 -111q-8 -7 -22 -7q-17 0 -28.5 11.5t-11.5 28.5q0 21 17 32l161 112q10 7 23 7q17 0 28.5 -12t11.5 -28zM427 582q0 -53 -40 -92t-95 -39t-95 39.5
t-40 94.5q0 53 40 92.5t95 39.5q56 0 95.5 -39.5t39.5 -95.5zM369 583q0 31 -22.5 53t-54.5 22q-31 0 -54 -22t-23 -51q0 -30 23 -52t54 -22t54 21.5t23 50.5z" />
    <glyph glyph-name="AEacute" unicode="&#x1fc;" 
d="M614 0h-349q-26 0 -41 14t-15 38q0 20 18 34t40 14v58h-93l-17 -58q41 -6 41 -47q0 -53 -57 -53h-95q-66 0 -66 50q0 25 10.5 37.5t46.5 12.5h16l115 383h-19q-37 0 -49 13t-12 37q0 50 66 50h439v-125q0 -19 -4 -31t-12 -17t-15 -6.5t-19 -1.5q-16 0 -25.5 3t-17 15.5
t-7.5 37.5v25h-126v-151h25q0 26 12.5 43t34.5 17q24 0 35.5 -12.5t11.5 -48.5v-78q0 -37 -12 -49t-35 -12q-22 0 -34.5 16.5t-12.5 44.5h-25v-153h147v13q0 35 12.5 45.5t37.5 10.5q12 0 20 -1.5t15.5 -7t11 -17t3.5 -30.5v-113zM267 259v212l-64 -212h64zM461 772
q0 -22 -18 -33l-161 -112q-10 -7 -22 -7q-16 0 -28 12t-12 28q0 22 17 33l161 112q10 7 23 7q17 0 28.5 -12t11.5 -28z" />
    <glyph glyph-name="aeacute" unicode="&#x1fd;" 
d="M612 66q0 -37 -55 -59.5t-115 -22.5q-53 0 -100 32q-14 -17 -37 -17q-21 0 -36 17q-51 -32 -110 -32q-78 0 -125 44t-47 117q0 62 65 101.5t143 39.5q17 0 60 -5v20q0 21 -13.5 35t-34.5 14q-19 0 -90 -21q-12 -4 -23 -4q-20 0 -34 15t-14 36q0 36 41 50q74 24 120 24
q66 0 116 -56q52 56 112 56q71 0 123.5 -64t52.5 -168v-46h-251q13 -47 31.5 -67.5t49.5 -20.5q21 0 69.5 17t55.5 17q20 0 33 -15t13 -37zM502 258q-14 92 -70 92q-54 0 -70 -92h140zM255 130v59q-31 8 -56 8q-45 0 -78 -14.5t-33 -40.5t19 -42t51 -16q43 0 97 46zM484 636
q0 -22 -18 -33l-161 -112q-11 -7 -22 -7q-17 0 -28.5 12t-11.5 28q0 22 17 33l161 112q10 7 23 7q16 0 28 -12t12 -28z" />
    <glyph glyph-name="Oslashacute" unicode="&#x1fe;" 
d="M590 590q-1 -19 -20 -42l-52 -65q61 -80 61 -192q0 -126 -82 -215.5t-197 -89.5q-74 0 -141 42l-54 -68q-15 -19 -24 -24.5t-23 -5.5q-20 0 -34.5 14t-14.5 33q0 15 21 42l57 73q-67 88 -67 200q0 126 82 215.5t198 89.5q77 0 149 -48l46 58q15 19 24 25t23 6
q20 0 34 -14t14 -34zM479 290q0 61 -27 110l-231 -293q37 -21 79 -21q73 0 126 60.5t53 143.5zM387 471q-44 26 -88 26q-73 0 -126 -60.5t-53 -144.5q0 -64 32 -118zM461 772q0 -22 -18 -33l-161 -112q-10 -7 -22 -7q-16 0 -28 12t-12 28q0 22 17 33l161 112q10 7 23 7
q17 0 28.5 -12t11.5 -28z" />
    <glyph glyph-name="oslashacute" unicode="&#x1ff;" 
d="M573 447q0 -13 -4.5 -20.5t-20.5 -24.5l-42 -43q52 -66 52 -142q0 -98 -75 -165.5t-183 -67.5q-66 0 -128 30l-56 -58q-26 -26 -45 -26q-20 0 -34 14t-14 34q0 18 25 44l48 50q-54 67 -54 145q0 97 74.5 165t181.5 68q75 0 134 -31l48 49q26 26 46 26t33.5 -14t13.5 -33z
M458 217q0 34 -22 69l-189 -195q25 -7 52 -7q67 0 113 38.5t46 94.5zM357 342q-34 8 -57 8q-67 0 -112.5 -38.5t-45.5 -94.5q0 -38 25 -72zM460 636q0 -22 -18 -33l-161 -112q-11 -7 -22 -7q-17 0 -28.5 12t-11.5 28q0 22 17 33l161 112q10 7 23 7q16 0 28 -12t12 -28z" />
    <glyph glyph-name="Adblgrave" unicode="&#x200;" 
d="M621 50q0 -50 -66 -50h-139q-66 0 -66 50t66 50h23l-23 58h-238l-23 -58h23q66 0 66 -50t-66 -50h-133q-66 0 -66 50t67 50l155 383h-63q-67 0 -67 50t67 50h216l199 -483q68 0 68 -50zM375 258l-78 192l-79 -192h157zM428 673q0 -17 -11.5 -29t-28.5 -12q-19 0 -31 15
l-102 124q-9 11 -9 26q0 17 12 28.5t28 11.5q19 0 31 -15l102 -124q9 -10 9 -25zM248 673q0 -17 -11.5 -29t-28.5 -12q-19 0 -31 15l-102 124q-9 11 -9 26q0 17 12 28.5t28 11.5q19 0 31 -15l102 -124q9 -10 9 -25z" />
    <glyph glyph-name="adblgrave" unicode="&#x201;" 
d="M571 50q0 -50 -66 -50h-117v23q-75 -39 -166 -39q-74 0 -127 39.5t-53 95.5q0 73 70.5 121t171.5 48q45 0 104 -10v23q0 49 -93 49q-51 0 -116 -17q-25 -6 -40 -6q-21 0 -35 14.5t-14 36.5q0 32 30 42q85 30 172 30q92 0 144.5 -39t52.5 -109v-202h16q66 0 66 -50z
M389 135v50q-63 11 -111 11q-51 0 -90.5 -22t-39.5 -51q0 -17 22 -28t54 -11q82 0 165 51zM423 527q0 -17 -11.5 -29t-28.5 -12q-19 0 -31 15l-102 124q-9 11 -9 26q0 17 11.5 28.5t28.5 11.5q19 0 31 -15l102 -124q9 -10 9 -25zM243 527q0 -17 -11.5 -29t-28.5 -12
q-19 0 -31 15l-102 124q-9 11 -9 26q0 17 11.5 28.5t28.5 11.5q19 0 31 -15l102 -124q9 -10 9 -25z" />
    <glyph glyph-name="Edblgrave" unicode="&#x204;" 
d="M550 0h-471q-66 0 -66 50q0 23 13 36.5t49 13.5h19v383h-19q-36 0 -49 13.5t-13 36.5q0 50 66 50h449v-150q0 -67 -50 -67t-50 67v50h-234v-141h85q0 38 14 56t35 18q50 0 50 -67v-113q0 -66 -49 -66q-50 0 -50 73h-85v-143h256v52q0 67 50 67t50 -67v-152zM435 673
q0 -17 -11.5 -29t-28.5 -12q-19 0 -31 15l-102 124q-9 11 -9 26q0 17 11.5 28.5t28.5 11.5q19 0 31 -15l102 -124q9 -10 9 -25zM255 673q0 -17 -11.5 -29t-28.5 -12q-19 0 -31 15l-102 124q-9 11 -9 26q0 17 11.5 28.5t28.5 11.5q19 0 31 -15l102 -124q9 -10 9 -25z" />
    <glyph glyph-name="edblgrave" unicode="&#x205;" 
d="M550 67q0 -38 -79 -60.5t-174 -22.5q-116 0 -190 65t-74 167q0 99 74.5 166.5t183.5 67.5q112 0 185.5 -68t73.5 -171v-39h-408q34 -88 164 -88q56 0 163 28q20 5 33 5q20 0 34 -14.5t14 -35.5zM439 260q-12 41 -52 65.5t-95 24.5t-95.5 -25t-51.5 -65h294zM425 527
q0 -17 -11.5 -29t-28.5 -12q-19 0 -31 15l-102 124q-9 11 -9 26q0 17 11.5 28.5t28.5 11.5q19 0 31 -15l102 -124q9 -10 9 -25zM245 527q0 -17 -11.5 -29t-28.5 -12q-19 0 -31 15l-102 124q-9 11 -9 26q0 17 11.5 28.5t28.5 11.5q19 0 31 -15l102 -124q9 -10 9 -25z" />
    <glyph glyph-name="Idblgrave" unicode="&#x208;" 
d="M517 50q0 -50 -66 -50h-302q-66 0 -66 50t66 50h101v383h-101q-66 0 -66 50t66 50h302q66 0 66 -50t-66 -50h-101v-383h101q66 0 66 -50zM431 673q0 -17 -11.5 -29t-28.5 -12q-19 0 -31 15l-102 124q-9 11 -9 26q0 17 11.5 28.5t28.5 11.5q19 0 31 -15l102 -124
q9 -10 9 -25zM251 673q0 -17 -11.5 -29t-28.5 -12q-19 0 -31 15l-102 124q-9 11 -9 26q0 17 11.5 28.5t28.5 11.5q19 0 31 -15l102 -124q9 -10 9 -25z" />
    <glyph glyph-name="idblgrave" unicode="&#x209;" 
d="M538 50q0 -50 -66 -50h-344q-66 0 -66 50t66 50h122v237h-78q-67 0 -67 50t67 50h178v-337h122q66 0 66 -50zM431 527q0 -17 -11.5 -29t-28.5 -12q-19 0 -31 15l-102 124q-9 11 -9 26q0 17 11.5 28.5t28.5 11.5q19 0 31 -15l102 -124q9 -10 9 -25zM251 527
q0 -17 -11.5 -29t-28.5 -12q-19 0 -31 15l-102 124q-9 11 -9 26q0 17 11.5 28.5t28.5 11.5q19 0 31 -15l102 -124q9 -10 9 -25z" />
    <glyph glyph-name="Odblgrave" unicode="&#x20c;" 
d="M579 287q0 -123 -82.5 -212t-196.5 -89q-116 0 -197.5 89.5t-81.5 216.5q0 126 82 215.5t197 89.5t197 -90t82 -220zM479 289q0 86 -52.5 147t-126.5 61q-73 0 -126 -60.5t-53 -144.5q0 -85 52.5 -145.5t126.5 -60.5q73 0 126 60t53 143zM431 673q0 -17 -11.5 -29
t-28.5 -12q-19 0 -31 15l-102 124q-9 11 -9 26q0 17 11.5 28.5t28.5 11.5q19 0 31 -15l102 -124q9 -10 9 -25zM251 673q0 -17 -11.5 -29t-28.5 -12q-19 0 -31 15l-102 124q-9 11 -9 26q0 17 11.5 28.5t28.5 11.5q19 0 31 -15l102 -124q9 -10 9 -25z" />
    <glyph glyph-name="odblgrave" unicode="&#x20d;" 
d="M558 217q0 -98 -75 -165.5t-183 -67.5t-183 67.5t-75 165.5q0 99 75 166t186 67q106 0 180.5 -68t74.5 -165zM458 217q0 56 -45.5 94.5t-110.5 38.5q-68 0 -114 -38t-46 -95q0 -56 45.5 -94.5t112.5 -38.5t112.5 38.5t45.5 94.5zM433 527q0 -17 -11.5 -29t-28.5 -12
q-19 0 -31 15l-102 124q-9 11 -9 26q0 17 11.5 28.5t28.5 11.5q19 0 31 -15l102 -124q9 -10 9 -25zM253 527q0 -17 -11.5 -29t-28.5 -12q-19 0 -31 15l-102 124q-9 11 -9 26q0 17 11.5 28.5t28.5 11.5q19 0 31 -15l102 -124q9 -10 9 -25z" />
    <glyph glyph-name="Rdblgrave" unicode="&#x210;" 
d="M619 50q0 -50 -66 -50h-79q-37 72 -94.5 141.5t-89.5 80.5h-96v-122h35q66 0 66 -50t-66 -50h-150q-66 0 -66 50q0 24 13 37t49 13h19v383h-19q-36 0 -49 13.5t-13 36.5q0 50 66 50h223q97 0 158.5 -49.5t61.5 -128.5q0 -92 -108 -151q65 -57 126 -154h17q36 0 49 -12.5
t13 -37.5zM416 408q0 32 -31 53.5t-79 21.5h-112v-161h76q63 0 104.5 24.5t41.5 61.5zM421 673q0 -17 -11.5 -29t-28.5 -12q-19 0 -31 15l-102 124q-9 11 -9 26q0 17 11.5 28.5t28.5 11.5q19 0 31 -15l102 -124q9 -10 9 -25zM241 673q0 -17 -11.5 -29t-28.5 -12
q-19 0 -31 15l-102 124q-9 11 -9 26q0 17 11.5 28.5t28.5 11.5q19 0 31 -15l102 -124q9 -10 9 -25z" />
    <glyph glyph-name="rdblgrave" unicode="&#x211;" 
d="M571 364q0 -21 -15 -36t-35 -15q-13 0 -39.5 18t-38.5 18q-24 0 -58.5 -21.5t-106.5 -80.5v-147h139q67 0 67 -50t-67 -50h-297q-66 0 -66 50t66 50h58v237h-35q-66 0 -66 50t66 50h135v-65q60 45 95 61t72 16q39 0 82.5 -26.5t43.5 -58.5zM409 527q0 -17 -11.5 -29
t-28.5 -12q-19 0 -31 15l-102 124q-9 11 -9 26q0 17 11.5 28.5t28.5 11.5q19 0 31 -15l102 -124q9 -10 9 -25zM229 527q0 -17 -11.5 -29t-28.5 -12q-19 0 -31 15l-102 124q-9 11 -9 26q0 17 11.5 28.5t28.5 11.5q19 0 31 -15l102 -124q9 -10 9 -25z" />
    <glyph glyph-name="Udblgrave" unicode="&#x214;" 
d="M590 533q0 -50 -61 -50v-278q0 -91 -66.5 -155t-162.5 -64q-95 0 -162 64t-67 155v278q-61 2 -61 50q0 50 66 50h130q66 0 66 -50t-66 -50h-35v-287q0 -46 38 -78t91 -32t91 32t38 78v287h-35q-66 0 -66 50t66 50h130q66 0 66 -50zM431 673q0 -17 -11.5 -29t-28.5 -12
q-19 0 -31 15l-102 124q-9 11 -9 26q0 17 11.5 28.5t28.5 11.5q19 0 31 -15l102 -124q9 -10 9 -25zM251 673q0 -17 -11.5 -29t-28.5 -12q-19 0 -31 15l-102 124q-9 11 -9 26q0 17 11.5 28.5t28.5 11.5q19 0 31 -15l102 -124q9 -10 9 -25z" />
    <glyph glyph-name="udblgrave" unicode="&#x215;" 
d="M571 50q0 -50 -66 -50h-95v48q-37 -35 -66.5 -48t-70.5 -13q-79 0 -128.5 45t-49.5 124v181h-27q-23 -1 -39 13.5t-16 36.5q0 50 66 50h116v-278q0 -72 88 -72q38 0 63 13.5t64 54.5v182h-35q-66 0 -66 50t66 50h135v-337q61 0 61 -50zM434 527q0 -17 -11.5 -29
t-28.5 -12q-19 0 -31 15l-102 124q-9 11 -9 26q0 17 12 28.5t28 11.5q19 0 31 -15l102 -124q9 -10 9 -25zM254 527q0 -17 -11.5 -29t-28.5 -12q-19 0 -31 15l-102 124q-9 11 -9 26q0 17 12 28.5t28 11.5q19 0 31 -15l102 -124q9 -10 9 -25z" />
    <glyph glyph-name="uni0218" unicode="&#x218;" 
d="M538 160q0 -78 -63 -126t-166 -48q-83 0 -156 39q-20 -24 -40 -24q-51 0 -51 66v66q0 66 50 66q20 0 31 -8.5t20 -39.5q7 -27 48 -46t91 -19q56 0 94 22t38 54q0 31 -26 47.5t-115 32.5q-110 19 -160.5 61.5t-50.5 116.5q0 76 62 126.5t155 50.5q77 0 130 -33q8 19 16 26
t23 7q49 0 49 -66v-88q0 -67 -49 -67q-22 0 -32 9t-18 45q-7 30 -39.5 48.5t-79.5 18.5t-80 -22t-33 -54q0 -16 10.5 -31.5t26.5 -23.5q23 -12 100 -26q73 -14 117 -30t65 -40t27 -47.5t6 -62.5zM355 -96q0 -10 -13 -30l-82 -126q-17 -26 -36 -26q-15 0 -26 10.5t-11 24.5
t12 32l82 126q17 26 38 26q15 0 25.5 -11t10.5 -26z" />
    <glyph glyph-name="uni0219" unicode="&#x219;" 
d="M527 125q0 -61 -63 -101t-160 -40q-87 0 -148 29q-15 -12 -32 -12q-51 0 -51 66v33q0 67 51 67q38 0 51 -44q43 -39 125 -39q48 0 82.5 13t34.5 30q0 20 -25 32t-101 20q-105 11 -152 43t-47 91q0 60 58 98.5t148 38.5q73 0 129 -26q11 26 32 26q47 0 47 -66v-37
q0 -66 -50 -66q-30 0 -47 31l-5 9q-41 29 -103 29q-38 0 -68.5 -10.5t-30.5 -24.5t26 -24q15 -5 84 -15q120 -16 167.5 -51.5t47.5 -99.5zM352 -96q0 -10 -13 -30l-82 -126q-17 -26 -36 -26q-15 0 -26 10.5t-11 24.5t12 32l82 126q17 26 38 26q15 0 25.5 -11t10.5 -26z" />
    <glyph glyph-name="uni021A" unicode="&#x21a;" 
d="M558 390q0 -66 -50 -66t-50 66v93h-109v-383h66q66 0 66 -50t-66 -50h-231q-66 0 -66 50t66 50h65v383h-107v-93q0 -66 -50 -66t-50 66v193h516v-193zM350 -96q0 -10 -13 -30l-82 -126q-17 -26 -36 -26q-15 0 -26 10.5t-11 24.5t12 32l82 126q17 26 38 26q15 0 25.5 -11
t10.5 -26z" />
    <glyph glyph-name="uni021B" unicode="&#x21b;" 
d="M529 78q0 -38 -78 -66t-152 -28q-85 0 -135 37t-50 101v215h-35q-66 0 -66 50t66 50h35v88q0 66 50 66t50 -66v-88h181q66 0 66 -50t-66 -50h-181v-196q0 -35 19 -46t67 -11q79 0 146 34q21 11 35 11q20 0 34 -15t14 -36zM322 -96q0 -10 -13 -30l-82 -126
q-17 -26 -36 -26q-15 0 -26 10.5t-11 24.5t12 32l82 126q17 26 38 26q15 0 25.5 -11t10.5 -26z" />
    <glyph glyph-name="uni0237" unicode="&#x237;" 
d="M488 -20q0 -79 -54.5 -132t-136.5 -53h-114q-66 0 -66 50t66 50h111q43 0 68.5 23t25.5 62v357h-202q-66 0 -66 50t66 50h302v-457z" />
    <glyph glyph-name="ereversed" unicode="&#x258;" 
d="M550 216q0 -102 -74 -167t-190 -65q-95 0 -174 22.5t-79 60.5q0 21 14 35.5t34 14.5q13 0 33 -5q107 -28 163 -28q130 0 164 88h-408v39q0 103 73.5 171t185.5 68q109 0 183.5 -67.5t74.5 -166.5zM438 260q-11 40 -51.5 65t-95.5 25t-95 -24.5t-52 -65.5h294z" />
    <glyph glyph-name="schwa" unicode="&#x259;" 
d="M550 218q0 -99 -74.5 -166.5t-183.5 -67.5q-112 0 -185.5 68t-73.5 171v39h408q-34 88 -164 88q-56 0 -163 -28q-20 -5 -33 -5q-20 0 -34 14.5t-14 35.5q0 38 79 60.5t174 22.5q116 0 190 -65t74 -167zM438 174h-294q12 -41 52 -65.5t95 -24.5t95.5 25t51.5 65z" />
    <glyph glyph-name="ringhalfright" unicode="&#x2be;" 
d="M478 403q0 -75 -49.5 -123t-128.5 -48q-53 0 -92 18q-9 -18 -30 -18q-40 0 -40 53v51q0 52 42 52q33 0 41 -38q8 -35 79 -35q43 0 69.5 25t26.5 63q0 74 -110 74q-36 0 -56 -5t-42 -23q-10 -10 -25 -10q-17 0 -29 12.5t-12 29.5q0 30 47 54t122 24q89 0 138 -42t49 -114z
" />
    <glyph glyph-name="ringhalfleft" unicode="&#x2bf;" 
d="M478 310q0 -30 -47 -54t-122 -24q-89 0 -138 42t-49 114q0 75 49.5 123t128.5 48q53 0 92 -18q9 18 30 18q40 0 40 -53v-51q0 -52 -42 -52q-33 0 -41 38q-8 35 -79 35q-43 0 -69.5 -25t-26.5 -63q0 -74 110 -74q36 0 56 5t42 23q10 10 25 10q17 0 29 -12.5t12 -29.5z" />
    <glyph glyph-name="circumflex" unicode="&#x2c6;" 
d="M473 524q0 -17 -11.5 -29t-28.5 -12q-14 0 -26 10l-107 91l-107 -91q-12 -10 -25 -10q-17 0 -29 12t-12 29q0 18 15 30l132 113q12 10 26 10t26 -10l132 -113q15 -12 15 -30z" />
    <glyph glyph-name="caron" unicode="&#x2c7;" 
d="M473 637q0 -19 -15 -31l-132 -113q-12 -10 -26 -10t-26 10l-132 113q-15 12 -15 31q0 17 12 28.5t29 11.5q13 0 25 -10l107 -91l107 91q12 10 26 10q17 0 28.5 -11.5t11.5 -28.5z" />
    <glyph glyph-name="breve" unicode="&#x2d8;" 
d="M481 636q0 -66 -54 -109t-127 -43t-127 43t-54 109q0 16 11.5 28t28.5 12t28.5 -12t11.5 -28q0 -33 30 -52t71 -19t71 19t30 52q0 16 11.5 28t28.5 12t28.5 -12t11.5 -28z" />
    <glyph glyph-name="dotaccent" unicode="&#x2d9;" 
d="M360 579q0 -24 -17.5 -41.5t-42.5 -17.5t-42.5 17.5t-17.5 42.5t17.5 42.5t42.5 17.5t42.5 -17.5t17.5 -43.5z" />
    <glyph glyph-name="ring" unicode="&#x2da;" 
d="M435 588q0 -53 -40 -92t-95 -39t-95 39.5t-40 94.5q0 53 40 92.5t95 39.5q56 0 95.5 -39.5t39.5 -95.5zM377 589q0 31 -22.5 53t-54.5 22q-31 0 -54 -22t-23 -51q0 -30 23 -52t54 -22t54 21.5t23 50.5z" />
    <glyph glyph-name="ogonek" unicode="&#x2db;" 
d="M464 -158q0 -38 -45 -65t-89 -27q-52 0 -91 36.5t-39 85.5q0 71 47 122.5t121 70.5l17 -63q-42 -11 -68.5 -41.5t-26.5 -72.5q0 -17 12 -32.5t28 -15.5q42 0 58 18q17 20 40 20q14 0 23 -8q13 -10 13 -28z" />
    <glyph glyph-name="tilde" unicode="&#x2dc;" 
d="M485 619q0 -29 -38.5 -67t-70.5 -38q-34 0 -99 43q-32 21 -50 21q-13 0 -23 -8.5t-32 -37.5q-11 -15 -26 -15q-13 0 -22 9t-9 21q0 31 38 65.5t72 34.5q17 0 34 -7.5t56 -30.5q43 -26 58 -26q11 0 17.5 5.5t23.5 28.5q21 30 39 30q13 0 22.5 -8.5t9.5 -19.5z" />
    <glyph glyph-name="hungarumlaut" unicode="&#x2dd;" 
d="M351 651q0 -15 -9 -26l-102 -124q-12 -15 -31 -15q-17 0 -28.5 12t-11.5 29q0 15 9 25l102 124q12 15 31 15q17 0 28.5 -11.5t11.5 -28.5zM531 651q0 -15 -9 -26l-102 -124q-12 -15 -31 -15q-17 0 -28.5 12t-11.5 29q0 15 9 25l102 124q12 15 31 15q17 0 28.5 -11.5
t11.5 -28.5z" />
    <glyph glyph-name="uni0300" unicode="&#x300;" horiz-adv-x="0" 
d="M-220 524q0 -16 -12 -28t-28 -12q-12 0 -22 7l-161 112q-18 11 -18 33q0 16 11.5 28t28.5 12q13 0 23 -7l161 -112q17 -11 17 -33z" />
    <glyph glyph-name="uni0301" unicode="&#x301;" horiz-adv-x="0" 
d="M-139 636q0 -22 -18 -33l-161 -112q-10 -7 -22 -7q-16 0 -28 12t-12 28q0 22 17 33l161 112q11 7 23 7q17 0 28.5 -12t11.5 -28z" />
    <glyph glyph-name="uni0302" unicode="&#x302;" horiz-adv-x="0" 
d="M-127 524q0 -17 -11.5 -29t-28.5 -12q-14 0 -26 10l-107 91l-107 -91q-12 -10 -25 -10q-17 0 -29 12t-12 29q0 18 15 30l132 113q12 10 26 10t26 -10l132 -113q15 -12 15 -30z" />
    <glyph glyph-name="uni0303" unicode="&#x303;" horiz-adv-x="0" 
d="M-115 619q0 -29 -38.5 -67t-70.5 -38q-34 0 -99 43q-31 21 -50 21q-13 0 -23 -8.5t-32 -37.5q-11 -15 -26 -15q-13 0 -22 9t-9 21q0 31 38 65.5t72 34.5q17 0 34 -7.5t56 -30.5q43 -26 58 -26q11 0 17.5 5.5t23.5 28.5q21 30 39 30q13 0 22.5 -8.5t9.5 -19.5z" />
    <glyph glyph-name="uni0304" unicode="&#x304;" horiz-adv-x="0" 
d="M-75 580q0 -40 -53 -40h-344q-53 0 -53 40t53 40h344q53 0 53 -40z" />
    <glyph glyph-name="uni0306" unicode="&#x306;" horiz-adv-x="0" 
d="M-119 636q0 -66 -54 -109t-127 -43t-127 43t-54 109q0 16 11.5 28t28.5 12t28.5 -12t11.5 -28q0 -33 30 -52t71 -19t71 19t30 52q0 16 11.5 28t28.5 12t28.5 -12t11.5 -28z" />
    <glyph glyph-name="uni0307" unicode="&#x307;" horiz-adv-x="0" 
d="M-240 579q0 -24 -17.5 -41.5t-42.5 -17.5t-42.5 17.5t-17.5 42.5t17.5 42.5t42.5 17.5t42.5 -17.5t17.5 -43.5z" />
    <glyph glyph-name="uni0308" unicode="&#x308;" horiz-adv-x="0" 
d="M-132 579q0 -24 -17.5 -41.5t-42.5 -17.5t-42.5 17.5t-17.5 42.5t17.5 42.5t42.5 17.5t42.5 -17.5t17.5 -43.5zM-348 579q0 -24 -17.5 -41.5t-42.5 -17.5t-42.5 17.5t-17.5 42.5t17.5 42.5t42.5 17.5t42.5 -17.5t17.5 -43.5z" />
    <glyph glyph-name="uni0309" unicode="&#x309;" horiz-adv-x="0" 
d="M-9 612q0 -35 -17 -55.5t-63 -42.5q0 -17 -12 -30t-28 -13q-19 0 -30.5 13t-11.5 36v41q89 18 89 54q0 15 -12.5 28.5t-31.5 13.5q-26 0 -45 -9q0 -31 -7.5 -44t-26.5 -13q-37 0 -37 49v52q65 37 115 37q56 0 87 -32t31 -85z" />
    <glyph glyph-name="uni030A" unicode="&#x30a;" horiz-adv-x="0" 
d="M-165 588q0 -53 -40 -92t-95 -39t-95 39.5t-40 94.5q0 53 40 92.5t95 39.5q56 0 95.5 -39.5t39.5 -95.5zM-223 589q0 31 -22.5 53t-54.5 22q-31 0 -54 -22t-23 -51q0 -30 23 -52t54 -22t54 21.5t23 50.5z" />
    <glyph glyph-name="uni030B" unicode="&#x30b;" horiz-adv-x="0" 
d="M-249 651q0 -15 -9 -26l-102 -124q-12 -15 -31 -15q-17 0 -28.5 12t-11.5 29q0 15 9 25l102 124q12 15 31 15q17 0 28.5 -11.5t11.5 -28.5zM-69 651q0 -15 -9 -26l-102 -124q-12 -15 -31 -15q-17 0 -28.5 12t-11.5 29q0 15 9 25l102 124q12 15 31 15q17 0 28.5 -11.5
t11.5 -28.5z" />
    <glyph glyph-name="uni030C" unicode="&#x30c;" horiz-adv-x="0" 
d="M-127 637q0 -19 -15 -31l-132 -113q-12 -10 -26 -10t-26 10l-132 113q-15 12 -15 31q0 17 12 28.5t29 11.5q13 0 25 -10l107 -91l107 91q12 10 26 10q17 0 28.5 -11.5t11.5 -28.5z" />
    <glyph glyph-name="uni030F" unicode="&#x30f;" horiz-adv-x="0" 
d="M-169 527q0 -17 -11.5 -29t-28.5 -12q-19 0 -31 15l-102 124q-9 11 -9 26q0 17 11.5 28.5t28.5 11.5q19 0 31 -15l102 -124q9 -10 9 -25zM-349 527q0 -17 -11.5 -29t-28.5 -12q-19 0 -31 15l-102 124q-9 11 -9 26q0 17 11.5 28.5t28.5 11.5q19 0 31 -15l102 -124
q9 -10 9 -25z" />
    <glyph glyph-name="uni0311" unicode="&#x311;" horiz-adv-x="0" 
d="M-119 525q0 -17 -11.5 -29t-28.5 -12t-28.5 12t-11.5 29q0 32 -30 51t-71 19t-71 -19t-30 -51q0 -17 -11.5 -29t-28.5 -12t-28.5 12t-11.5 29q0 65 54 108t127 43t127 -43t54 -108z" />
    <glyph glyph-name="uni0323" unicode="&#x323;" horiz-adv-x="0" 
d="M-240 -144q0 -24 -17.5 -41.5t-42.5 -17.5t-42.5 17.5t-17.5 42.5t17.5 42.5t42.5 17.5t42.5 -17.5t17.5 -43.5z" />
    <glyph glyph-name="uni0326" unicode="&#x326;" horiz-adv-x="0" 
d="M-249 -96q0 -10 -13 -30l-82 -126q-17 -26 -36 -26q-15 0 -26 10.5t-11 24.5t12 32l82 126q17 26 38 26q15 0 25.5 -11t10.5 -26z" />
    <glyph glyph-name="uni032E" unicode="&#x32e;" horiz-adv-x="0" 
d="M-119 -87q0 -66 -54 -109t-127 -43t-127 43t-54 109q0 17 11.5 28.5t28.5 11.5t28.5 -11.5t11.5 -28.5q0 -33 30 -52t71 -19t71 19t30 52q0 17 11.5 28.5t28.5 11.5t28.5 -11.5t11.5 -28.5z" />
    <glyph glyph-name="uni032F" unicode="&#x32f;" horiz-adv-x="0" 
d="M-119 -198q0 -17 -11.5 -29t-28.5 -12t-28.5 12t-11.5 29q0 32 -30 51t-71 19t-71 -19t-30 -51q0 -17 -11.5 -29t-28.5 -12t-28.5 12t-11.5 29q0 65 54 108t127 43t127 -43t54 -108z" />
    <glyph glyph-name="uni0330" unicode="&#x330;" horiz-adv-x="0" 
d="M-115 -104q0 -29 -38.5 -67t-70.5 -38q-34 0 -99 43q-31 21 -50 21q-13 0 -23 -8.5t-32 -37.5q-11 -15 -26 -15q-13 0 -22 9t-9 21q0 31 38 65.5t72 34.5q17 0 34 -7.5t56 -30.5q43 -26 58 -26q11 0 17.5 5.5t23.5 28.5q21 30 39 30q13 0 22.5 -8.5t9.5 -19.5z" />
    <glyph glyph-name="uni0331" unicode="&#x331;" horiz-adv-x="0" 
d="M-75 -143q0 -40 -53 -40h-344q-53 0 -53 40t53 40h344q53 0 53 -40z" />
    <glyph glyph-name="uni0332" unicode="&#x332;" horiz-adv-x="0" 
d="M-75 -143q0 -40 -53 -40h-344q-53 0 -53 40t53 40h344q53 0 53 -40z" />
    <glyph glyph-name="Alpha" unicode="&#x391;" 
d="M621 50q0 -50 -66 -50h-139q-66 0 -66 50t66 50h23l-23 58h-238l-23 -58h23q66 0 66 -50t-66 -50h-133q-66 0 -66 50t67 50l155 383h-63q-67 0 -67 50t67 50h216l199 -483q68 0 68 -50zM375 258l-78 192l-79 -192h157z" />
    <glyph glyph-name="Beta" unicode="&#x392;" 
d="M571 160q0 -72 -54 -116t-143 -44h-295q-66 0 -66 50q0 24 13 37t49 13h19v383h-20q-37 0 -49 13t-12 37q0 50 66 50h253q85 0 140.5 -47t55.5 -118q0 -64 -63 -113q106 -53 106 -145zM428 419q0 30 -27 47t-74 17h-133v-141h113q54 0 87.5 21.5t33.5 55.5zM471 154
q0 38 -39 63t-103 25h-135v-142h175q102 0 102 54z" />
    <glyph glyph-name="Gamma" unicode="&#x393;" 
d="M550 432q0 -66 -50 -66t-50 66v51h-256v-383h100q66 0 66 -50t-66 -50h-215q-66 0 -66 50q0 24 13 37t49 13h19v383h-19q-36 0 -49 13.5t-13 36.5q0 50 66 50h471v-151z" />
    <glyph glyph-name="Delta" unicode="&#x394;" 
d="M585 0h-570l248 583h75zM436 100l-136 321l-136 -321h272z" />
    <glyph glyph-name="Epsilon" unicode="&#x395;" 
d="M550 0h-471q-66 0 -66 50q0 23 13 36.5t49 13.5h19v383h-19q-36 0 -49 13.5t-13 36.5q0 50 66 50h449v-150q0 -67 -50 -67t-50 67v50h-234v-141h85q0 38 14 56t35 18q50 0 50 -67v-113q0 -66 -49 -66q-50 0 -50 73h-85v-143h256v52q0 67 50 67t50 -67v-152z" />
    <glyph glyph-name="Zeta" unicode="&#x396;" 
d="M527 0h-454v100l302 383h-179v-70q0 -66 -50 -66t-50 66v170h408v-97l-303 -386h226v72q0 66 50 66t50 -66v-172z" />
    <glyph glyph-name="Eta" unicode="&#x397;" 
d="M581 50q0 -50 -66 -50h-121q-66 0 -66 50q0 24 13 37t49 13h19v141h-214v-141h19q37 0 49.5 -13.5t12.5 -36.5q0 -50 -66 -50h-121q-66 0 -66 50t72 50v383q-52 5 -52 50q0 50 66 50h101q66 0 66 -50q0 -24 -13.5 -37t-48.5 -13h-19v-142h214v142h-19q-36 0 -49 13
t-13 37q0 50 66 50h101q66 0 66 -50q0 -45 -52 -50v-383q37 0 54.5 -14.5t17.5 -35.5z" />
    <glyph glyph-name="Theta" unicode="&#x398;" 
d="M579 287q0 -123 -82.5 -212t-196.5 -89q-116 0 -197.5 89.5t-81.5 216.5q0 126 82 215.5t197 89.5t197 -90t82 -220zM479 289q0 86 -52.5 147t-126.5 61q-73 0 -126 -60.5t-53 -144.5q0 -85 52.5 -145.5t126.5 -60.5q73 0 126 60t53 143zM451 292q0 -21 -14.5 -35.5
t-35.5 -14.5h-202q-21 0 -35.5 14.5t-14.5 35.5q0 20 14.5 35t35.5 15h202q21 0 35.5 -15t14.5 -35z" />
    <glyph glyph-name="Iota" unicode="&#x399;" 
d="M517 50q0 -50 -66 -50h-302q-66 0 -66 50t66 50h101v383h-101q-66 0 -66 50t66 50h302q66 0 66 -50t-66 -50h-101v-383h101q66 0 66 -50z" />
    <glyph glyph-name="Kappa" unicode="&#x39a;" 
d="M602 50q0 -50 -66 -50h-110q-35 107 -80.5 176t-91.5 83l-60 -51v-108h35q66 0 66 -50t-66 -50h-150q-66 0 -66 50q0 24 13 37t49 13h19v383h-19q-36 0 -49 13.5t-13 36.5q0 50 66 50h150q66 0 66 -50t-66 -50h-35v-149l178 153q-31 12 -31 45q0 51 66 51h100
q66 0 66 -50t-62 -50l-176 -153q97 -51 169 -230h32q66 0 66 -50z" />
    <glyph glyph-name="Lambda" unicode="&#x39b;" 
d="M621 50q0 -50 -66 -50h-139q-66 0 -66 50t66 50h23l-142 350l-142 -350h23q66 0 66 -50t-66 -50h-133q-66 0 -66 50t67 50l155 383h-63q-67 0 -67 50t67 50h216l199 -483q68 0 68 -50z" />
    <glyph glyph-name="Mu" unicode="&#x39c;" 
d="M623 50q0 -50 -66 -50h-130q-66 0 -66 50t66 50h35v289l-111 -251h-91l-118 251v-289h35q66 0 66 -50t-66 -50h-129q-67 0 -67 50t61 50v383q-52 5 -52 51q0 50 62 50h113l138 -298l135 297h110q66 0 66 -50q0 -45 -52 -50v-383q61 0 61 -50z" />
    <glyph glyph-name="Nu" unicode="&#x39d;" 
d="M592 533q0 -50 -61 -50v-483h-99l-259 394v-294h35q66 0 66 -50t-66 -50h-129q-67 0 -67 50t61 50v383h-19q-36 0 -49 13.5t-13 36.5q0 50 66 50h115l258 -392v292h-35q-66 0 -66 50t66 50h130q66 0 66 -50z" />
    <glyph glyph-name="Xi" unicode="&#x39e;" 
d="M550 0h-500v146q0 20 14.5 35t35.5 15t35.5 -15t14.5 -35v-46h300v46q0 20 14.5 35t35.5 15t35.5 -15t14.5 -35v-146zM550 437q0 -20 -14.5 -35t-35.5 -15t-35.5 15t-14.5 35v46h-300v-46q0 -20 -14.5 -35t-35.5 -15t-35.5 15t-14.5 35v146h500v-146zM450 292
q0 -21 -14.5 -35.5t-35.5 -14.5h-200q-21 0 -35.5 14.5t-14.5 35.5q0 20 14.5 35t35.5 15h200q21 0 35.5 -15t14.5 -35z" />
    <glyph glyph-name="Omicron" unicode="&#x39f;" 
d="M579 287q0 -123 -82.5 -212t-196.5 -89q-116 0 -197.5 89.5t-81.5 216.5q0 126 82 215.5t197 89.5t197 -90t82 -220zM479 289q0 86 -52.5 147t-126.5 61q-73 0 -126 -60.5t-53 -144.5q0 -85 52.5 -145.5t126.5 -60.5q73 0 126 60t53 143z" />
    <glyph glyph-name="Pi" unicode="&#x3a0;" 
d="M581 50q0 -50 -66 -50h-121q-66 0 -66 50t66 50h15v383h-214v-383h15q66 0 66 -50t-66 -50h-121q-66 0 -66 50t66 50h6v383q-52 5 -52 50q0 50 66 50h386q66 0 66 -50q0 -45 -52 -50v-383h6q66 0 66 -50z" />
    <glyph glyph-name="Rho" unicode="&#x3a1;" 
d="M529 394q0 -73 -50 -128q-33 -37 -75 -51.5t-112 -14.5h-98v-100h99q66 0 66 -50t-66 -50h-214q-66 0 -66 50q0 24 13 37t49 13h19v383h-19q-37 0 -49.5 13.5t-12.5 36.5q0 50 66 50h233q95 0 156 -53t61 -136zM423 391q0 43 -29.5 67.5t-81.5 24.5h-118v-183h118
q52 0 81.5 24.5t29.5 66.5z" />
    <glyph glyph-name="Sigma" unicode="&#x3a3;" 
d="M550 0h-475q-20 0 -35 14t-15 33q0 44 50 94l150 151l-150 150q-50 50 -50 94q0 19 15 33t35 14h475v-200q0 -27 -14 -47t-36 -20t-36 20t-14 47v100h-275l192 -191l-192 -192h275v100q0 27 14 47t36 20t36 -20t14 -47v-200z" />
    <glyph glyph-name="Tau" unicode="&#x3a4;" 
d="M558 390q0 -66 -50 -66t-50 66v93h-109v-383h66q66 0 66 -50t-66 -50h-231q-66 0 -66 50t66 50h65v383h-107v-93q0 -66 -50 -66t-50 66v193h516v-193z" />
    <glyph glyph-name="Upsilon" unicode="&#x3a5;" 
d="M583 437q0 -20 -14.5 -35t-35.5 -15q-20 0 -35 15t-15 35q0 46 -27 46t-47 -14t-31.5 -35.5t-17.5 -54.5t-8 -62t-2 -67v-150h65q67 0 67 -50t-67 -50h-230q-67 0 -67 50t67 50h65v150q0 38 -2 67t-8 62t-17.5 54.5t-31.5 35.5t-47 14t-27 -46q0 -20 -15 -35t-35 -15
q-21 0 -35.5 15t-14.5 35q0 60 36.5 103t90.5 43q101 0 156 -102q55 102 156 102q54 0 90.5 -43t36.5 -103z" />
    <glyph glyph-name="Phi" unicode="&#x3a6;" 
d="M584 292q0 -75 -66.5 -116t-167.5 -49v-27h101q66 0 66 -50t-66 -50h-302q-66 0 -66 50t66 50h101v27q-101 8 -167.5 49t-66.5 116q0 74 66.5 115t167.5 49v27h-101q-66 0 -66 50t66 50h302q66 0 66 -50t-66 -50h-101v-27q101 -8 167.5 -49t66.5 -115zM250 358
q-134 -4 -134 -66q0 -37 36 -51t98 -16v133zM484 292q0 62 -134 66v-133q62 2 98 16t36 51z" />
    <glyph glyph-name="Chi" unicode="&#x3a7;" 
d="M590 50q0 -50 -66 -50h-111q-66 0 -66 50q0 47 55 50l-101 120l-102 -120q54 -3 54 -50q0 -50 -66 -50h-111q-66 0 -66 50q0 23 15.5 36.5t43.5 13.5l166 198l-158 185q-58 3 -58 50q0 50 66 50h91q67 0 67 -50q0 -31 -38 -49l95 -109l93 109q-38 19 -38 49q0 50 67 50
h90q66 0 66 -50q0 -48 -57 -50l-157 -186l167 -197q59 -2 59 -50z" />
    <glyph glyph-name="Psi" unicode="&#x3a8;" 
d="M584 350q0 -78 -67 -123.5t-167 -55.5v-71h101q66 0 66 -50t-66 -50h-302q-66 0 -66 50t66 50h101v71q-100 10 -167 55.5t-67 123.5v60q0 21 15 35.5t35 14.5q21 0 35.5 -14.5t14.5 -35.5v-60q0 -42 36 -59t98 -21v213h-101q-66 0 -66 50t66 50h302q66 0 66 -50t-66 -50
h-101v-213q62 4 98 21t36 59v60q0 21 14.5 35.5t35.5 14.5q20 0 35 -14.5t15 -35.5v-60z" />
    <glyph glyph-name="Omega" unicode="&#x3a9;" 
d="M592 50q0 -22 -20 -36t-47 -14h-175v214q41 15 67 52t26 82q0 59 -42 101t-101 42t-101 -42t-42 -101q0 -45 26 -82t67 -52v-214h-175q-27 0 -47 14t-20 36t20 36t47 14h75v57q-93 72 -93 191q0 100 71.5 171.5t171.5 71.5t171.5 -71.5t71.5 -171.5q0 -119 -93 -191v-57
h75q27 0 47 -14t20 -36z" />
    <glyph glyph-name="alpha" unicode="&#x3b1;" 
d="M550 36q0 -21 -14.5 -35.5t-35.5 -14.5q-69 0 -111 73q-58 -73 -139 -73q-79 0 -132 63.5t-53 151.5q0 101 51 175.5t134 74.5q85 0 141 -79q10 31 16 40q13 25 43 25q21 0 35.5 -14.5t14.5 -35.5q0 -14 -7 -25q-9 -16 -42 -165q2 -25 4.5 -40t7.5 -34t14.5 -28t22.5 -9
q21 0 35.5 -14.5t14.5 -35.5zM349 204q-16 147 -99 147q-44 0 -64.5 -44t-20.5 -106q0 -47 23.5 -81t61.5 -34q71 0 99 118z" />
    <glyph glyph-name="beta" unicode="&#x3b2;" 
d="M535 168q0 -79 -66.5 -130.5t-157.5 -51.5q-81 0 -146 15v-1q0 -109 -30 -214q-5 -16 -18 -26t-30 -10q-21 0 -35.5 14.5t-14.5 35.5q0 4 2 14q26 92 26 186v437q0 76 73 118t173 42q85 0 147.5 -49t62.5 -124q0 -36 -19 -68t-50 -53q37 -23 60 -58.5t23 -76.5zM435 168
q0 27 -16 44.5t-46 25.5t-57.5 10.5t-67.5 2.5v100q38 0 62.5 2t53 8t43 22t14.5 41q0 35 -32.5 54t-77.5 19q-34 0 -53 -1.5t-44 -6.5t-37 -18t-12 -34v-331q74 -20 146 -20q50 0 87 21.5t37 60.5z" />
    <glyph glyph-name="gamma" unicode="&#x3b3;" 
d="M535 387q0 -10 -5 -22l-180 -376v-179q0 -21 -14.5 -35.5t-35.5 -14.5t-35.5 14.5t-14.5 35.5v190q0 101 -43.5 192.5t-122.5 155.5q-19 14 -19 39q0 21 14.5 35.5t35.5 14.5q18 0 31 -11q128 -102 178 -260l116 243q14 28 45 28q21 0 35.5 -14.5t14.5 -35.5z" />
    <glyph glyph-name="delta" unicode="&#x3b4;" 
d="M558 217q0 -98 -75 -165.5t-183 -67.5t-183 67.5t-75 165.5q0 73 43 130.5t115 84.5l-105 58q-25 13 -25 43q0 21 14.5 35.5t35.5 14.5h360q21 0 35.5 -14.5t14.5 -35.5t-14.5 -35.5t-35.5 -14.5h-176l150 -78q48 -32 76 -81.5t28 -106.5zM458 217q0 56 -45.5 94.5
t-110.5 38.5q-68 0 -114 -38t-46 -95q0 -56 45.5 -94.5t112.5 -38.5t112.5 38.5t45.5 94.5z" />
    <glyph glyph-name="epsilon" unicode="&#x3b5;" 
d="M535 43q0 -36 -34 -48q-102 -34 -206 -34q-93 0 -161.5 50t-68.5 130q0 63 56 99q-42 34 -42 88q0 65 56 106.5t132 41.5q112 0 220 -35q34 -12 34 -48q0 -20 -14.5 -35t-35.5 -15q-9 0 -16 3q-90 30 -188 30q-88 0 -88 -48q0 -15 16 -24t50 -12.5t57.5 -4.5t66.5 -1
q20 0 35 -14.5t15 -35.5t-15 -35.5t-35 -14.5h-46.5t-45 -1.5t-44.5 -4.5t-34 -7.5t-26 -12.5t-8 -19q0 -39 38.5 -59.5t91.5 -20.5q89 0 174 29q8 3 16 3q21 0 35.5 -15t14.5 -35z" />
    <glyph glyph-name="zeta" unicode="&#x3b6;" 
d="M535 538q0 -21 -14.5 -35.5t-35.5 -14.5l-41 1q-99 -17 -164 -93.5t-65 -176.5q0 -49 28 -84t71 -35h29q61 0 101.5 -50.5t40.5 -119.5v-120q0 -21 -14.5 -35.5t-35.5 -14.5t-35.5 14.5t-14.5 35.5v120q0 29 -10.5 49.5t-31.5 20.5h-29q-84 0 -141.5 64.5t-57.5 154.5
q0 157 115 269h-115q-21 0 -35.5 14.5t-14.5 35.5t14.5 35.5t35.5 14.5h370q21 0 35.5 -14.5t14.5 -35.5z" />
    <glyph glyph-name="eta" unicode="&#x3b7;" 
d="M535 -190q0 -21 -14.5 -35.5t-35.5 -14.5t-35.5 14.5t-14.5 35.5v409q0 54 -33.5 93t-82.5 39q-59 0 -100 -43.5t-54 -109.5v-148q0 -21 -14.5 -35.5t-35.5 -14.5t-35.5 14.5t-14.5 35.5v337q0 21 14.5 35.5t35.5 14.5q20 0 35 -14.5t15 -34.5q66 63 154 63
q91 0 153.5 -68.5t62.5 -163.5v-409z" />
    <glyph glyph-name="theta" unicode="&#x3b8;" 
d="M535 274q0 -117 -66.5 -202.5t-168.5 -85.5t-168.5 85.5t-66.5 202.5q0 130 64 226.5t171 96.5t171 -96.5t64 -226.5zM432 324q-8 75 -41.5 124t-90.5 49t-90.5 -49t-41.5 -124h264zM430 224h-260q10 -60 44.5 -99t85.5 -39t85.5 39t44.5 99z" />
    <glyph glyph-name="iota" unicode="&#x3b9;" 
d="M500 31q0 -21 -14.5 -35.5t-35.5 -14.5q-82 0 -141 56.5t-59 137.5v212q0 21 14.5 35.5t35.5 14.5t35.5 -14.5t14.5 -35.5v-212q0 -39 29.5 -66.5t70.5 -27.5q21 0 35.5 -14.5t14.5 -35.5z" />
    <glyph glyph-name="kappa" unicode="&#x3ba;" 
d="M571 50q0 -50 -67 -50h-118q-66 0 -66 50q0 20 16 37l-103 91l-18 -14v-164h-116q-66 0 -66 50t66 50h16v237h-16q-66 0 -66 50t66 50h116v-150l79 63q-16 19 -16 37q0 50 67 50h112q66 0 66 -50t-66 -50h-28l-118 -96l160 -141h33q67 0 67 -50z" />
    <glyph glyph-name="lambda" unicode="&#x3bb;" 
d="M535 50q0 -21 -14.5 -35.5t-35.5 -14.5q-32 0 -45 28l-132 264l-149 -266q-15 -26 -44 -26q-21 0 -35.5 14.5t-14.5 35.5q0 14 6 24l183 326l-8 15q-18 36 -52 57t-74 21q-21 0 -35.5 14.5t-14.5 35.5t14.5 35.5t35.5 14.5q68 0 126.5 -36.5t89.5 -97.5l194 -387
q5 -10 5 -22z" />
    <glyph glyph-name="mu.greek" unicode="&#x3bc;" 
d="M535 50q0 -21 -14.5 -35.5t-35.5 -14.5q-19 0 -33 12.5t-17 30.5q-60 -50 -135 -50t-135 50v-233q0 -21 -14.5 -35.5t-35.5 -14.5t-35.5 14.5t-14.5 35.5v577q0 21 14.5 35.5t35.5 14.5t35.5 -14.5t14.5 -35.5v-173q12 -53 48.5 -87t86.5 -34t86.5 34t48.5 87v173
q0 21 14.5 35.5t35.5 14.5t35.5 -14.5t14.5 -35.5v-337z" />
    <glyph glyph-name="nu" unicode="&#x3bd;" 
d="M535 258q0 -112 -76.5 -194t-188.5 -89l-51 34l-119 362q-2 5 -2 16q0 21 14.5 35.5t35.5 14.5q35 0 47 -34l106 -322q59 16 96.5 65.5t37.5 111.5t-13 118q-1 4 -1 11q0 21 14.5 35.5t35.5 14.5q18 0 31.5 -11t17.5 -28q15 -69 15 -140z" />
    <glyph glyph-name="xi" unicode="&#x3be;" 
d="M535 -190q0 -21 -14.5 -35.5t-35.5 -14.5t-35.5 14.5t-14.5 35.5v120q0 30 -22.5 50t-53.5 20h-40q-103 0 -178.5 52t-75.5 137q0 104 121 153q-41 36 -41 91q0 29 12 55h-42q-21 0 -35.5 14.5t-14.5 35.5t14.5 35.5t35.5 14.5h370q21 0 35.5 -14.5t14.5 -35.5
t-14.5 -35.5t-35.5 -14.5h-123q-117 0 -117 -55q0 -13 7 -23t22 -16t29 -9.5t39 -4.5t39.5 -1.5t41.5 -0.5q21 0 35.5 -15t14.5 -35q0 -21 -14.5 -35.5t-35.5 -14.5q-40 0 -61 -0.5t-57 -2.5t-56 -8t-42 -15.5t-32 -25.5t-10 -37q0 -45 45 -67t109 -22h40q72 0 124 -49.5
t52 -120.5v-120z" />
    <glyph glyph-name="omicron" unicode="&#x3bf;" 
d="M558 217q0 -98 -75 -165.5t-183 -67.5t-183 67.5t-75 165.5q0 99 75 166t186 67q106 0 180.5 -68t74.5 -165zM458 217q0 56 -45.5 94.5t-110.5 38.5q-68 0 -114 -38t-46 -95q0 -56 45.5 -94.5t112.5 -38.5t112.5 38.5t45.5 94.5z" />
    <glyph glyph-name="pi" unicode="&#x3c0;" 
d="M568 387q0 -21 -15 -35.5t-35 -14.5h-68v-287q0 -21 -14.5 -35.5t-35.5 -14.5t-35.5 14.5t-14.5 35.5v287h-100v-287q0 -21 -14.5 -35.5t-35.5 -14.5t-35.5 14.5t-14.5 35.5v277q-17 -14 -17 -36q0 -20 -15 -35t-35 -15q-21 0 -35.5 15t-14.5 35q0 61 42.5 103.5
t102.5 42.5h340q20 0 35 -14.5t15 -35.5z" />
    <glyph glyph-name="rho" unicode="&#x3c1;" 
d="M535 219q0 -97 -69 -165t-166 -68q-70 0 -135 38v-214q0 -21 -14.5 -35.5t-35.5 -14.5t-35.5 14.5t-14.5 35.5v409q0 96 69 164t166 68t166 -68t69 -164zM435 219q0 55 -39.5 93.5t-95.5 38.5t-95.5 -38.5t-39.5 -93.5v-81q52 -52 135 -52q56 0 95.5 39t39.5 94z" />
    <glyph glyph-name="uni03C2" unicode="&#x3c2;" 
d="M535 -190q0 -21 -14.5 -35.5t-35.5 -14.5t-35.5 14.5t-14.5 35.5v120q0 30 -22.5 50t-53.5 20h-40q-104 0 -179 65t-75 161q0 95 75 160t179 65q66 0 122.5 -34t87.5 -93q6 -11 6 -23q0 -21 -14.5 -35.5t-35.5 -14.5q-30 0 -44 26q-18 34 -51 54t-71 20
q-63 0 -108.5 -35.5t-45.5 -89.5q0 -55 45.5 -90.5t108.5 -35.5h40q72 0 124 -49.5t52 -120.5v-120z" />
    <glyph glyph-name="sigma" unicode="&#x3c3;" 
d="M622 451q0 -34 -32 -47q-55 -20 -100 -28q68 -68 68 -159q0 -98 -75 -165.5t-183 -67.5t-183 67.5t-75 165.5q0 99 75 166t186 67q29 0 58 -6q82 10 193 54q9 3 18 3q21 0 35.5 -14.5t14.5 -35.5zM458 217q0 56 -45.5 94.5t-110.5 38.5q-68 0 -114 -38t-46 -95
q0 -56 45.5 -94.5t112.5 -38.5t112.5 38.5t45.5 94.5z" />
    <glyph glyph-name="tau" unicode="&#x3c4;" 
d="M510 40q0 -21 -14.5 -35.5t-35.5 -14.5q-86 0 -148 53t-62 132v162h-110q-21 0 -35.5 14.5t-14.5 35.5t14.5 35.5t35.5 14.5h320q21 0 35.5 -14.5t14.5 -35.5t-14.5 -35.5t-35.5 -14.5h-110v-162q0 -38 32.5 -61.5t77.5 -23.5q21 0 35.5 -14.5t14.5 -35.5z" />
    <glyph glyph-name="upsilon" unicode="&#x3c5;" 
d="M535 250q0 -108 -72.5 -186t-176.5 -78q-90 0 -155.5 37.5t-65.5 105.5v258q0 21 14.5 35.5t35.5 14.5t35.5 -14.5t14.5 -35.5v-258q0 -15 10 -24.5t31 -13t36 -4.5t44 -1q63 0 106 48.5t43 115.5q0 62 -24 117q-4 8 -4 20q0 21 14.5 35.5t35.5 14.5q32 0 46 -30
q32 -76 32 -157z" />
    <glyph glyph-name="phi" unicode="&#x3c6;" 
d="M535 219q0 -83 -52.5 -147t-132.5 -81v-181q0 -21 -14.5 -35.5t-35.5 -14.5t-35.5 14.5t-14.5 35.5v181q-80 17 -133 81t-53 147q0 66 30 125t84 97q13 10 29 10q21 0 35.5 -14.5t14.5 -35.5q0 -25 -21 -40q-72 -54 -72 -142q0 -42 24 -75.5t62 -48.5v155
q0 82 38.5 141.5t104.5 59.5q70 0 106 -68.5t36 -163.5zM435 219q0 31 -1 47.5t-4.5 39.5t-12.5 34t-24 11t-24 -8.5t-13 -25t-5 -31t-1 -36.5v-155q38 15 61.5 48.5t23.5 75.5z" />
    <glyph glyph-name="chi" unicode="&#x3c7;" 
d="M535 -190q0 -21 -14.5 -35.5t-35.5 -14.5t-35.5 14.5t-14.5 35.5q0 62 -35.5 114t-99.5 108q-64 -56 -99.5 -108t-35.5 -114q0 -21 -14.5 -35.5t-35.5 -14.5t-35.5 14.5t-14.5 35.5q0 139 160 288q-75 70 -117.5 140t-42.5 149q0 21 14.5 35.5t35.5 14.5t35.5 -14.5
t14.5 -35.5q0 -62 35.5 -114t99.5 -108q64 56 99.5 108t35.5 114q0 21 14.5 35.5t35.5 14.5t35.5 -14.5t14.5 -35.5q0 -139 -160 -288q75 -70 117.5 -140t42.5 -149z" />
    <glyph glyph-name="psi" unicode="&#x3c8;" 
d="M535 129q0 -61 -52.5 -96.5t-131.5 -43.5v-179q0 -21 -15 -35.5t-35 -14.5q-21 0 -35.5 14.5t-14.5 35.5v179q-80 8 -132.5 43.5t-52.5 96.5v258q0 21 14.5 35.5t35.5 14.5t35.5 -14.5t14.5 -35.5v-258q0 -38 84 -42l1 446q0 21 14.5 35.5t35.5 14.5q20 0 35 -14.5
t15 -35.5v-446q84 4 84 42v258q0 21 14.5 35.5t35.5 14.5t35.5 -14.5t14.5 -35.5v-258z" />
    <glyph glyph-name="omega" unicode="&#x3c9;" 
d="M568 212q0 -92 -43 -159t-116 -67q-71 0 -110 64q-41 -64 -108 -64q-73 0 -115.5 67t-42.5 159q0 102 36 193q13 32 47 32q20 0 35 -14.5t15 -35.5q0 -11 -4 -18q-29 -76 -29 -157q0 -126 58 -126q56 0 67 89q-8 51 -8 116q0 21 14.5 35.5t35.5 14.5t35.5 -14.5
t14.5 -35.5q0 -31 0.5 -48t2 -45.5t5 -44.5t10 -33.5t17 -25.5t24.5 -8q59 0 59 126q0 78 -30 157q-4 7 -4 18q0 21 15 35.5t35 14.5q34 0 47 -32q37 -94 37 -193z" />
    <glyph glyph-name="uni03D1" unicode="&#x3d1;" 
d="M585 350q0 -21 -14.5 -35.5t-35.5 -14.5h-50v-125q0 -80 -62 -134.5t-148 -54.5t-148 54.5t-62 134.5v116q0 21 14.5 35.5t35.5 14.5t35.5 -14.5t14.5 -35.5v-116q0 -39 33 -64t77 -25t77 25t33 64v127q-67 3 -117 11t-95.5 25.5t-69.5 49.5t-24 78q0 72 58.5 119.5
t137.5 47.5q86 0 148 -57t62 -139v-37h50q21 0 35.5 -15t14.5 -35zM385 402v35q0 41 -32.5 68.5t-77.5 27.5q-39 0 -67.5 -18t-28.5 -49q0 -57 206 -64z" />
    <glyph glyph-name="uni03D5" unicode="&#x3d5;" 
d="M558 217q0 -86 -58.5 -149.5t-149.5 -79.5v-178q0 -21 -14.5 -35.5t-35.5 -14.5t-35.5 14.5t-14.5 35.5v178q-91 16 -149.5 79.5t-58.5 149.5t58.5 149.5t149.5 79.5v87q0 21 14.5 35.5t35.5 14.5t35.5 -14.5t14.5 -35.5v-87q89 -15 148.5 -79.5t59.5 -149.5zM458 217
q0 44 -30 79t-78 48v-254q49 14 78.5 48t29.5 79zM250 343q-49 -13 -78.5 -47t-29.5 -79t29.5 -79t78.5 -48v253z" />
    <glyph glyph-name="uni03D6" unicode="&#x3d6;" 
d="M568 212q0 -92 -43 -159t-116 -67q-71 0 -110 64q-41 -64 -108 -64q-73 0 -115.5 67t-42.5 159q0 102 36 193q13 32 47 32q20 0 35 -14.5t15 -35.5q0 -11 -4 -18q-29 -76 -29 -157q0 -126 58 -126q56 0 67 89q-8 51 -8 116q0 21 14.5 35.5t35.5 14.5t35.5 -14.5
t14.5 -35.5q0 -31 0.5 -48t2 -45.5t5 -44.5t10 -33.5t17 -25.5t24.5 -8q59 0 59 126q0 78 -30 157q-26 64 -58 102.5t-80 38.5q-81 0 -152 -43q-14 -7 -26 -7q-21 0 -35.5 14.5t-14.5 35.5q0 29 24 43q94 57 204 57q78 0 137 -58t94 -147q37 -94 37 -193z" />
    <glyph glyph-name="uni03F1" unicode="&#x3f1;" 
d="M558 -200q0 -21 -14.5 -35.5t-35.5 -14.5t-35.5 14.5t-14.5 35.5q0 16 -121 11q-75 -3 -140 35q-155 94 -155 371q0 99 75 166t186 67q106 0 180.5 -68t74.5 -165q0 -98 -75 -165.5t-183 -67.5q-64 0 -123 27q25 -51 72 -79q38 -23 83 -21q43 2 81.5 -2.5t72 -16.5
t53 -35.5t19.5 -56.5zM458 217q0 56 -45.5 94.5t-110.5 38.5q-68 0 -114 -38t-46 -95q0 -56 45.5 -94.5t112.5 -38.5t112.5 38.5t45.5 94.5z" />
    <glyph glyph-name="uni03F5" unicode="&#x3f5;" 
d="M565 89q0 -42 -67 -73.5t-175 -31.5q-128 0 -198.5 60t-70.5 163q0 107 71.5 175t184.5 68q86 0 144 -30q9 30 38 30q48 0 48 -66v-56h-129q-33 22 -101 22q-51 0 -88 -22t-55 -60l233 1q21 0 35.5 -15t14.5 -35q0 -21 -14.5 -35.5t-35.5 -14.5h-241q25 -85 171 -85
q87 0 129 25h102q4 -12 4 -20z" />
    <glyph glyph-name="baht" unicode="&#xe3f;" 
d="M571 160q0 -72 -54 -116t-143 -44h-23v-33q0 -17 -11.5 -28.5t-28.5 -11.5t-28.5 11.5t-11.5 28.5v33h-192q-66 0 -66 50q0 24 13 37t49 13h19v383h-20q-37 0 -49 13t-12 37q0 50 66 50h192v33q0 16 11.5 28t28.5 12t28.5 -12t11.5 -28v-34q78 -5 127.5 -51t49.5 -113
q0 -64 -63 -113q106 -53 106 -145zM428 419q0 30 -27 47t-74 17h-133v-141h113q54 0 87.5 21.5t33.5 55.5zM471 154q0 38 -39 63t-103 25h-135v-142h175q102 0 102 54z" />
    <glyph glyph-name="Ddotbelow" unicode="&#x1e0c;" 
d="M550 258q0 -114 -72.5 -186t-193.5 -72h-204q-67 0 -67 50q0 24 16 37t45 13v383q-61 0 -61 50t67 50h212q109 0 183.5 -80t74.5 -198v-47zM450 261v46q0 74 -45 125t-121 51h-110v-383h111q80 0 122.5 42.5t42.5 118.5zM312 -144q0 -24 -17.5 -41.5t-42.5 -17.5
t-42.5 17.5t-17.5 42.5t17.5 42.5t42.5 17.5t42.5 -17.5t17.5 -43.5z" />
    <glyph glyph-name="ddotbelow" unicode="&#x1e0d;" 
d="M613 50q0 -50 -66 -50h-116v35q-72 -49 -151 -49q-110 0 -178.5 67t-68.5 166t69 165.5t179 66.5q87 0 150 -50v124h-16q-66 0 -66 50q0 49 66 49h116v-524h16q66 0 66 -50zM431 217q0 58 -41.5 96t-108.5 38q-66 0 -107 -38.5t-41 -93.5q0 -56 41 -94.5t108 -38.5
q66 0 107.5 38.5t41.5 92.5zM360 -144q0 -24 -17.5 -41.5t-42.5 -17.5t-42.5 17.5t-17.5 42.5t17.5 42.5t42.5 17.5t42.5 -17.5t17.5 -43.5z" />
    <glyph glyph-name="Dlinebelow" unicode="&#x1e0e;" 
d="M550 258q0 -114 -72.5 -186t-193.5 -72h-204q-67 0 -67 50q0 24 16 37t45 13v383q-61 0 -61 50t67 50h212q109 0 183.5 -80t74.5 -198v-47zM450 261v46q0 74 -45 125t-121 51h-110v-383h111q80 0 122.5 42.5t42.5 118.5zM477 -143q0 -40 -53 -40h-344q-53 0 -53 40t53 40
h344q53 0 53 -40z" />
    <glyph glyph-name="dlinebelow" unicode="&#x1e0f;" 
d="M613 50q0 -50 -66 -50h-116v35q-72 -49 -151 -49q-110 0 -178.5 67t-68.5 166t69 165.5t179 66.5q87 0 150 -50v124h-16q-66 0 -66 50q0 49 66 49h116v-524h16q66 0 66 -50zM431 217q0 58 -41.5 96t-108.5 38q-66 0 -107 -38.5t-41 -93.5q0 -56 41 -94.5t108 -38.5
q66 0 107.5 38.5t41.5 92.5zM525 -143q0 -40 -53 -40h-344q-53 0 -53 40t53 40h344q53 0 53 -40z" />
    <glyph glyph-name="Hdotbelow" unicode="&#x1e24;" 
d="M581 50q0 -50 -66 -50h-121q-66 0 -66 50q0 24 13 37t49 13h19v141h-214v-141h19q37 0 49.5 -13.5t12.5 -36.5q0 -50 -66 -50h-121q-66 0 -66 50t72 50v383q-52 5 -52 50q0 50 66 50h101q66 0 66 -50q0 -24 -13.5 -37t-48.5 -13h-19v-142h214v142h-19q-36 0 -49 13
t-13 37q0 50 66 50h101q66 0 66 -50q0 -45 -52 -50v-383q37 0 54.5 -14.5t17.5 -35.5zM362 -144q0 -24 -17.5 -41.5t-42.5 -17.5t-42.5 17.5t-17.5 42.5t17.5 42.5t42.5 17.5t42.5 -17.5t17.5 -43.5z" />
    <glyph glyph-name="hdotbelow" unicode="&#x1e25;" 
d="M581 50q0 -50 -66 -50h-112q-67 0 -67 50t67 50h6v171q0 44 -22 61.5t-66 17.5q-35 0 -59 -13t-67 -54v-183h6q67 0 67 -50t-67 -50h-112q-66 0 -66 50t66 50h6v424h-16q-66 0 -66 50t66 50h116v-235q60 61 137 61q80 0 128.5 -45.5t48.5 -120.5v-184h6q66 0 66 -50z
M357 -144q0 -24 -17.5 -41.5t-42.5 -17.5t-42.5 17.5t-17.5 42.5t17.5 42.5t42.5 17.5t42.5 -17.5t17.5 -43.5z" />
    <glyph glyph-name="Hdieresis" unicode="&#x1e26;" 
d="M581 50q0 -50 -66 -50h-121q-66 0 -66 50q0 24 13 37t49 13h19v141h-214v-141h19q37 0 49.5 -13.5t12.5 -36.5q0 -50 -66 -50h-121q-66 0 -66 50t72 50v383q-52 5 -52 50q0 50 66 50h101q66 0 66 -50q0 -24 -13.5 -37t-48.5 -13h-19v-142h214v142h-19q-36 0 -49 13
t-13 37q0 50 66 50h101q66 0 66 -50q0 -45 -52 -50v-383q37 0 54.5 -14.5t17.5 -35.5zM470 715q0 -24 -17.5 -41.5t-42.5 -17.5t-42.5 17.5t-17.5 42.5t17.5 42.5t42.5 17.5t42.5 -17.5t17.5 -43.5zM254 715q0 -24 -17.5 -41.5t-42.5 -17.5t-42.5 17.5t-17.5 42.5t17.5 42.5
t42.5 17.5t42.5 -17.5t17.5 -43.5z" />
    <glyph glyph-name="hdieresis" unicode="&#x1e27;" 
d="M581 50q0 -50 -66 -50h-112q-67 0 -67 50t67 50h6v171q0 44 -22 61.5t-66 17.5q-35 0 -59 -13t-67 -54v-183h6q67 0 67 -50t-67 -50h-112q-66 0 -66 50t66 50h6v424h-16q-66 0 -66 50t66 50h116v-235q60 61 137 61q80 0 128.5 -45.5t48.5 -120.5v-184h6q66 0 66 -50z
M468 756q0 -24 -17.5 -41.5t-42.5 -17.5t-42.5 17.5t-17.5 42.5t17.5 42.5t42.5 17.5t42.5 -17.5t17.5 -43.5zM252 756q0 -24 -17.5 -41.5t-42.5 -17.5t-42.5 17.5t-17.5 42.5t17.5 42.5t42.5 17.5t42.5 -17.5t17.5 -43.5z" />
    <glyph glyph-name="Hbrevebelow" unicode="&#x1e2a;" 
d="M581 50q0 -50 -66 -50h-121q-66 0 -66 50q0 24 13 37t49 13h19v141h-214v-141h19q37 0 49.5 -13.5t12.5 -36.5q0 -50 -66 -50h-121q-66 0 -66 50t72 50v383q-52 5 -52 50q0 50 66 50h101q66 0 66 -50q0 -24 -13.5 -37t-48.5 -13h-19v-142h214v142h-19q-36 0 -49 13
t-13 37q0 50 66 50h101q66 0 66 -50q0 -45 -52 -50v-383q37 0 54.5 -14.5t17.5 -35.5zM483 -87q0 -66 -54 -109t-127 -43t-127 43t-54 109q0 17 11.5 28.5t28.5 11.5t28.5 -11.5t11.5 -28.5q0 -33 30 -52t71 -19t71 19t30 52q0 17 11.5 28.5t28.5 11.5t28.5 -11.5
t11.5 -28.5z" />
    <glyph glyph-name="hbrevebelow" unicode="&#x1e2b;" 
d="M581 50q0 -50 -66 -50h-112q-67 0 -67 50t67 50h6v171q0 44 -22 61.5t-66 17.5q-35 0 -59 -13t-67 -54v-183h6q67 0 67 -50t-67 -50h-112q-66 0 -66 50t66 50h6v424h-16q-66 0 -66 50t66 50h116v-235q60 61 137 61q80 0 128.5 -45.5t48.5 -120.5v-184h6q66 0 66 -50z
M478 -87q0 -66 -54 -109t-127 -43t-127 43t-54 109q0 17 12 28.5t28 11.5t28 -11.5t12 -28.5q0 -33 30 -52t71 -19t71 19t30 52q0 17 12 28.5t28 11.5t28 -11.5t12 -28.5z" />
    <glyph glyph-name="Idieresisacute" unicode="&#x1e2e;" 
d="M517 50q0 -50 -66 -50h-302q-66 0 -66 50t66 50h101v383h-101q-66 0 -66 50t66 50h302q66 0 66 -50t-66 -50h-101v-383h101q66 0 66 -50zM468 715q0 -24 -17.5 -41.5t-42.5 -17.5t-42.5 17.5t-17.5 42.5t17.5 42.5t42.5 17.5t42.5 -17.5t17.5 -43.5zM252 715
q0 -24 -17.5 -41.5t-42.5 -17.5t-42.5 17.5t-17.5 42.5t17.5 42.5t42.5 17.5t42.5 -17.5t17.5 -43.5zM461 965q0 -22 -18 -33l-161 -112q-10 -7 -22 -7q-16 0 -28 11.5t-12 28.5q0 22 17 33l161 112q10 7 23 7q17 0 28.5 -11.5t11.5 -28.5z" />
    <glyph glyph-name="idieresisacute" unicode="&#x1e2f;" 
d="M538 50q0 -50 -66 -50h-344q-66 0 -66 50t66 50h122v237h-78q-67 0 -67 50t67 50h178v-337h122q66 0 66 -50zM468 579q0 -24 -17.5 -41.5t-42.5 -17.5t-42.5 17.5t-17.5 42.5t17.5 42.5t42.5 17.5t42.5 -17.5t17.5 -43.5zM252 579q0 -24 -17.5 -41.5t-42.5 -17.5
t-42.5 17.5t-17.5 42.5t17.5 42.5t42.5 17.5t42.5 -17.5t17.5 -43.5zM461 843q0 -22 -18 -33l-161 -112q-10 -7 -22 -7q-16 0 -28 11.5t-12 28.5q0 22 17 33l161 112q10 7 23 7q17 0 28.5 -11.5t11.5 -28.5z" />
    <glyph glyph-name="Ldotbelow" unicode="&#x1e36;" 
d="M571 0h-472q-66 0 -66 50t66 50h57v383h-57q-66 0 -66 50t66 50h214q66 0 66 -50t-66 -50h-57v-383h215v92q0 67 50 67t50 -67v-192zM360 -144q0 -24 -17.5 -41.5t-42.5 -17.5t-42.5 17.5t-17.5 42.5t17.5 42.5t42.5 17.5t42.5 -17.5t17.5 -43.5z" />
    <glyph glyph-name="ldotbelow" unicode="&#x1e37;" 
d="M538 50q0 -50 -66 -50h-344q-66 0 -66 50t66 50h122v424h-78q-67 0 -67 50t67 50h178v-524h122q66 0 66 -50zM360 -144q0 -24 -17.5 -41.5t-42.5 -17.5t-42.5 17.5t-17.5 42.5t17.5 42.5t42.5 17.5t42.5 -17.5t17.5 -43.5z" />
    <glyph glyph-name="Ldotbelowmacron" unicode="&#x1e38;" 
d="M571 0h-472q-66 0 -66 50t66 50h57v383h-57q-66 0 -66 50t66 50h214q66 0 66 -50t-66 -50h-57v-383h215v92q0 67 50 67t50 -67v-192zM360 -144q0 -24 -17.5 -41.5t-42.5 -17.5t-42.5 17.5t-17.5 42.5t17.5 42.5t42.5 17.5t42.5 -17.5t17.5 -43.5zM431 716q0 -40 -53 -40
h-344q-53 0 -53 40t53 40h344q53 0 53 -40z" />
    <glyph glyph-name="ldotbelowmacron" unicode="&#x1e39;" 
d="M538 50q0 -50 -66 -50h-344q-66 0 -66 50t66 50h122v424h-78q-67 0 -67 50t67 50h178v-524h122q66 0 66 -50zM360 -144q0 -24 -17.5 -41.5t-42.5 -17.5t-42.5 17.5t-17.5 42.5t17.5 42.5t42.5 17.5t42.5 -17.5t17.5 -43.5zM525 757q0 -40 -53 -40h-344q-53 0 -53 40
t53 40h344q53 0 53 -40z" />
    <glyph glyph-name="Mdotbelow" unicode="&#x1e42;" 
d="M623 50q0 -50 -66 -50h-130q-66 0 -66 50t66 50h35v289l-111 -251h-91l-118 251v-289h35q66 0 66 -50t-66 -50h-129q-67 0 -67 50t61 50v383q-52 5 -52 51q0 50 62 50h113l138 -298l135 297h110q66 0 66 -50q0 -45 -52 -50v-383q61 0 61 -50zM360 -144q0 -24 -17.5 -41.5
t-42.5 -17.5t-42.5 17.5t-17.5 42.5t17.5 42.5t42.5 17.5t42.5 -17.5t17.5 -43.5z" />
    <glyph glyph-name="mdotbelow" unicode="&#x1e43;" 
d="M623 50q0 -50 -66 -50h-94v311q0 22 -7.5 30.5t-27.5 8.5t-35.5 -9t-40.5 -36v-205q28 0 44 -13.5t16 -36.5q0 -50 -66 -50h-94v311q0 21 -8 30t-27 9q-36 0 -76 -45v-205q61 0 61 -50t-66 -50h-88q-67 0 -67 50t60 50v237q-60 2 -60 50q0 50 67 50h93v-24q46 37 85 37
q57 0 102 -49q45 49 104 49q56 0 93.5 -37.5t37.5 -93.5v-219q60 0 60 -50zM360 -144q0 -24 -17.5 -41.5t-42.5 -17.5t-42.5 17.5t-17.5 42.5t17.5 42.5t42.5 17.5t42.5 -17.5t17.5 -43.5z" />
    <glyph glyph-name="Ndotaccent" unicode="&#x1e44;" 
d="M592 533q0 -50 -61 -50v-483h-99l-259 394v-294h35q66 0 66 -50t-66 -50h-129q-67 0 -67 50t61 50v383h-19q-36 0 -49 13.5t-13 36.5q0 50 66 50h115l258 -392v292h-35q-66 0 -66 50t66 50h130q66 0 66 -50zM362 715q0 -24 -17.5 -41.5t-42.5 -17.5t-42.5 17.5
t-17.5 42.5t17.5 42.5t42.5 17.5t42.5 -17.5t17.5 -43.5z" />
    <glyph glyph-name="ndotaccent" unicode="&#x1e45;" 
d="M571 50q0 -50 -66 -50h-89q-67 0 -67 50t61 50v178q0 72 -90 72q-35 0 -62.5 -15t-62.5 -53v-182h6q66 0 66 -50t-66 -50h-112q-66 0 -66 50t66 50h6v237q-61 2 -61 50q0 50 67 50h94v-48q36 34 66 47.5t71 13.5q78 0 128 -45t50 -123v-182q61 0 61 -50zM363 579
q0 -24 -17.5 -41.5t-42.5 -17.5t-42.5 17.5t-17.5 42.5t17.5 42.5t42.5 17.5t42.5 -17.5t17.5 -43.5z" />
    <glyph glyph-name="Ndotbelow" unicode="&#x1e46;" 
d="M592 533q0 -50 -61 -50v-483h-99l-259 394v-294h35q66 0 66 -50t-66 -50h-129q-67 0 -67 50t61 50v383h-19q-36 0 -49 13.5t-13 36.5q0 50 66 50h115l258 -392v292h-35q-66 0 -66 50t66 50h130q66 0 66 -50zM362 -144q0 -24 -17.5 -41.5t-42.5 -17.5t-42.5 17.5
t-17.5 42.5t17.5 42.5t42.5 17.5t42.5 -17.5t17.5 -43.5z" />
    <glyph glyph-name="ndotbelow" unicode="&#x1e47;" 
d="M571 50q0 -50 -66 -50h-89q-67 0 -67 50t61 50v178q0 72 -90 72q-35 0 -62.5 -15t-62.5 -53v-182h6q66 0 66 -50t-66 -50h-112q-66 0 -66 50t66 50h6v237q-61 2 -61 50q0 50 67 50h94v-48q36 34 66 47.5t71 13.5q78 0 128 -45t50 -123v-182q61 0 61 -50zM363 -144
q0 -24 -17.5 -41.5t-42.5 -17.5t-42.5 17.5t-17.5 42.5t17.5 42.5t42.5 17.5t42.5 -17.5t17.5 -43.5z" />
    <glyph glyph-name="Rdotaccent" unicode="&#x1e58;" 
d="M619 50q0 -50 -66 -50h-79q-37 72 -94.5 141.5t-89.5 80.5h-96v-122h35q66 0 66 -50t-66 -50h-150q-66 0 -66 50q0 24 13 37t49 13h19v383h-19q-36 0 -49 13.5t-13 36.5q0 50 66 50h223q97 0 158.5 -49.5t61.5 -128.5q0 -92 -108 -151q65 -57 126 -154h17q36 0 49 -12.5
t13 -37.5zM416 408q0 32 -31 53.5t-79 21.5h-112v-161h76q63 0 104.5 24.5t41.5 61.5zM350 715q0 -24 -17.5 -41.5t-42.5 -17.5t-42.5 17.5t-17.5 42.5t17.5 42.5t42.5 17.5t42.5 -17.5t17.5 -43.5z" />
    <glyph glyph-name="rdotaccent" unicode="&#x1e59;" 
d="M571 364q0 -21 -15 -36t-35 -15q-13 0 -39.5 18t-38.5 18q-24 0 -58.5 -21.5t-106.5 -80.5v-147h139q67 0 67 -50t-67 -50h-297q-66 0 -66 50t66 50h58v237h-35q-66 0 -66 50t66 50h135v-65q60 45 95 61t72 16q39 0 82.5 -26.5t43.5 -58.5zM338 579q0 -24 -17.5 -41.5
t-42.5 -17.5t-42.5 17.5t-17.5 42.5t17.5 42.5t42.5 17.5t42.5 -17.5t17.5 -43.5z" />
    <glyph glyph-name="Rdotbelow" unicode="&#x1e5a;" 
d="M619 50q0 -50 -66 -50h-79q-37 72 -94.5 141.5t-89.5 80.5h-96v-122h35q66 0 66 -50t-66 -50h-150q-66 0 -66 50q0 24 13 37t49 13h19v383h-19q-36 0 -49 13.5t-13 36.5q0 50 66 50h223q97 0 158.5 -49.5t61.5 -128.5q0 -92 -108 -151q65 -57 126 -154h17q36 0 49 -12.5
t13 -37.5zM416 408q0 32 -31 53.5t-79 21.5h-112v-161h76q63 0 104.5 24.5t41.5 61.5zM350 -144q0 -24 -17.5 -41.5t-42.5 -17.5t-42.5 17.5t-17.5 42.5t17.5 42.5t42.5 17.5t42.5 -17.5t17.5 -43.5z" />
    <glyph glyph-name="rdotbelow" unicode="&#x1e5b;" 
d="M571 364q0 -21 -15 -36t-35 -15q-13 0 -39.5 18t-38.5 18q-24 0 -58.5 -21.5t-106.5 -80.5v-147h139q67 0 67 -50t-67 -50h-297q-66 0 -66 50t66 50h58v237h-35q-66 0 -66 50t66 50h135v-65q60 45 95 61t72 16q39 0 82.5 -26.5t43.5 -58.5zM329 -144q0 -24 -17.5 -41.5
t-42.5 -17.5t-42.5 17.5t-17.5 42.5t17.5 42.5t42.5 17.5t42.5 -17.5t17.5 -43.5z" />
    <glyph glyph-name="Rdotbelowmacron" unicode="&#x1e5c;" 
d="M619 50q0 -50 -66 -50h-79q-37 72 -94.5 141.5t-89.5 80.5h-96v-122h35q66 0 66 -50t-66 -50h-150q-66 0 -66 50q0 24 13 37t49 13h19v383h-19q-36 0 -49 13.5t-13 36.5q0 50 66 50h223q97 0 158.5 -49.5t61.5 -128.5q0 -92 -108 -151q65 -57 126 -154h17q36 0 49 -12.5
t13 -37.5zM416 408q0 32 -31 53.5t-79 21.5h-112v-161h76q63 0 104.5 24.5t41.5 61.5zM350 -144q0 -24 -17.5 -41.5t-42.5 -17.5t-42.5 17.5t-17.5 42.5t17.5 42.5t42.5 17.5t42.5 -17.5t17.5 -43.5zM515 716q0 -40 -53 -40h-344q-53 0 -53 40t53 40h344q53 0 53 -40z" />
    <glyph glyph-name="rdotbelowmacron" unicode="&#x1e5d;" 
d="M571 364q0 -21 -15 -36t-35 -15q-13 0 -39.5 18t-38.5 18q-24 0 -58.5 -21.5t-106.5 -80.5v-147h139q67 0 67 -50t-67 -50h-297q-66 0 -66 50t66 50h58v237h-35q-66 0 -66 50t66 50h135v-65q60 45 95 61t72 16q39 0 82.5 -26.5t43.5 -58.5zM329 -144q0 -24 -17.5 -41.5
t-42.5 -17.5t-42.5 17.5t-17.5 42.5t17.5 42.5t42.5 17.5t42.5 -17.5t17.5 -43.5zM503 592q0 -40 -53 -40h-344q-53 0 -53 40t53 40h344q53 0 53 -40z" />
    <glyph glyph-name="Sdotbelow" unicode="&#x1e62;" 
d="M538 160q0 -78 -63 -126t-166 -48q-83 0 -156 39q-20 -24 -40 -24q-51 0 -51 66v66q0 66 50 66q20 0 31 -8.5t20 -39.5q7 -27 48 -46t91 -19q56 0 94 22t38 54q0 31 -26 47.5t-115 32.5q-110 19 -160.5 61.5t-50.5 116.5q0 76 62 126.5t155 50.5q77 0 130 -33q8 19 16 26
t23 7q49 0 49 -66v-88q0 -67 -49 -67q-22 0 -32 9t-18 45q-7 30 -39.5 48.5t-79.5 18.5t-80 -22t-33 -54q0 -16 10.5 -31.5t26.5 -23.5q23 -12 100 -26q73 -14 117 -30t65 -40t27 -47.5t6 -62.5zM364 -144q0 -24 -17.5 -41.5t-42.5 -17.5t-42.5 17.5t-17.5 42.5t17.5 42.5
t42.5 17.5t42.5 -17.5t17.5 -43.5z" />
    <glyph glyph-name="sdotbelow" unicode="&#x1e63;" 
d="M527 125q0 -61 -63 -101t-160 -40q-87 0 -148 29q-15 -12 -32 -12q-51 0 -51 66v33q0 67 51 67q38 0 51 -44q43 -39 125 -39q48 0 82.5 13t34.5 30q0 20 -25 32t-101 20q-105 11 -152 43t-47 91q0 60 58 98.5t148 38.5q73 0 129 -26q11 26 32 26q47 0 47 -66v-37
q0 -66 -50 -66q-30 0 -47 31l-5 9q-41 29 -103 29q-38 0 -68.5 -10.5t-30.5 -24.5t26 -24q15 -5 84 -15q120 -16 167.5 -51.5t47.5 -99.5zM361 -144q0 -24 -17.5 -41.5t-42.5 -17.5t-42.5 17.5t-17.5 42.5t17.5 42.5t42.5 17.5t42.5 -17.5t17.5 -43.5z" />
    <glyph glyph-name="Tdotbelow" unicode="&#x1e6c;" 
d="M558 390q0 -66 -50 -66t-50 66v93h-109v-383h66q66 0 66 -50t-66 -50h-231q-66 0 -66 50t66 50h65v383h-107v-93q0 -66 -50 -66t-50 66v193h516v-193zM359 -144q0 -24 -17.5 -41.5t-42.5 -17.5t-42.5 17.5t-17.5 42.5t17.5 42.5t42.5 17.5t42.5 -17.5t17.5 -43.5z" />
    <glyph glyph-name="tdotbelow" unicode="&#x1e6d;" 
d="M529 78q0 -38 -78 -66t-152 -28q-85 0 -135 37t-50 101v215h-35q-66 0 -66 50t66 50h35v88q0 66 50 66t50 -66v-88h181q66 0 66 -50t-66 -50h-181v-196q0 -35 19 -46t67 -11q79 0 146 34q21 11 35 11q20 0 34 -15t14 -36zM331 -144q0 -24 -17.5 -41.5t-42.5 -17.5
t-42.5 17.5t-17.5 42.5t17.5 42.5t42.5 17.5t42.5 -17.5t17.5 -43.5z" />
    <glyph glyph-name="Tlinebelow" unicode="&#x1e6e;" 
d="M558 390q0 -66 -50 -66t-50 66v93h-109v-383h66q66 0 66 -50t-66 -50h-231q-66 0 -66 50t66 50h65v383h-107v-93q0 -66 -50 -66t-50 66v193h516v-193zM524 -143q0 -40 -53 -40h-344q-53 0 -53 40t53 40h344q53 0 53 -40z" />
    <glyph glyph-name="tlinebelow" unicode="&#x1e6f;" 
d="M529 78q0 -38 -78 -66t-152 -28q-85 0 -135 37t-50 101v215h-35q-66 0 -66 50t66 50h35v88q0 66 50 66t50 -66v-88h181q66 0 66 -50t-66 -50h-181v-196q0 -35 19 -46t67 -11q79 0 146 34q21 11 35 11q20 0 34 -15t14 -36zM496 -143q0 -40 -53 -40h-344q-53 0 -53 40
t53 40h344q53 0 53 -40z" />
    <glyph glyph-name="Wgrave" unicode="&#x1e80;" 
d="M610 533q0 -42 -47 -50l-60 -483h-110l-93 277l-91 -277h-111l-62 483q-46 6 -46 48q0 52 66 52h131q67 0 67 -50t-67 -50h-48l36 -272l76 226h104l76 -226l35 272h-53q-66 0 -66 50t66 50h131q66 0 66 -50zM383 660q0 -16 -11.5 -28t-28.5 -12q-11 0 -22 7l-161 112
q-18 11 -18 33q0 16 12 28t28 12q12 0 23 -7l161 -112q17 -11 17 -33z" />
    <glyph glyph-name="wgrave" unicode="&#x1e81;" 
d="M600 387q0 -46 -52 -49l-84 -338h-92l-71 181l-68 -181h-94l-85 338q-26 2 -40 14.5t-14 34.5q0 50 66 50h92q66 0 66 -50q0 -49 -64 -49l39 -153l60 158h88l61 -158l40 153h-7q-66 0 -66 49q0 50 66 50h93q66 0 66 -50zM383 524q0 -16 -11.5 -28t-28.5 -12q-11 0 -22 7
l-161 112q-18 11 -18 33q0 16 12 28t28 12q12 0 23 -7l161 -112q17 -11 17 -33z" />
    <glyph glyph-name="Wacute" unicode="&#x1e82;" 
d="M610 533q0 -42 -47 -50l-60 -483h-110l-93 277l-91 -277h-111l-62 483q-46 6 -46 48q0 52 66 52h131q67 0 67 -50t-67 -50h-48l36 -272l76 226h104l76 -226l35 272h-53q-66 0 -66 50t66 50h131q66 0 66 -50zM464 772q0 -22 -18 -33l-161 -112q-11 -7 -22 -7
q-17 0 -28.5 12t-11.5 28q0 22 17 33l161 112q10 7 23 7q16 0 28 -12t12 -28z" />
    <glyph glyph-name="wacute" unicode="&#x1e83;" 
d="M600 387q0 -46 -52 -49l-84 -338h-92l-71 181l-68 -181h-94l-85 338q-26 2 -40 14.5t-14 34.5q0 50 66 50h92q66 0 66 -50q0 -49 -64 -49l39 -153l60 158h88l61 -158l40 153h-7q-66 0 -66 49q0 50 66 50h93q66 0 66 -50zM464 636q0 -22 -18 -33l-161 -112q-11 -7 -22 -7
q-17 0 -28.5 12t-11.5 28q0 22 17 33l161 112q11 7 23 7q16 0 28 -12t12 -28z" />
    <glyph glyph-name="Wdieresis" unicode="&#x1e84;" 
d="M610 533q0 -42 -47 -50l-60 -483h-110l-93 277l-91 -277h-111l-62 483q-46 6 -46 48q0 52 66 52h131q67 0 67 -50t-67 -50h-48l36 -272l76 226h104l76 -226l35 272h-53q-66 0 -66 50t66 50h131q66 0 66 -50zM471 715q0 -24 -17.5 -41.5t-42.5 -17.5t-42.5 17.5
t-17.5 42.5t17.5 42.5t42.5 17.5t42.5 -17.5t17.5 -43.5zM255 715q0 -24 -17.5 -41.5t-42.5 -17.5t-42.5 17.5t-17.5 42.5t17.5 42.5t42.5 17.5t42.5 -17.5t17.5 -43.5z" />
    <glyph glyph-name="wdieresis" unicode="&#x1e85;" 
d="M600 387q0 -46 -52 -49l-84 -338h-92l-71 181l-68 -181h-94l-85 338q-26 2 -40 14.5t-14 34.5q0 50 66 50h92q66 0 66 -50q0 -49 -64 -49l39 -153l60 158h88l61 -158l40 153h-7q-66 0 -66 49q0 50 66 50h93q66 0 66 -50zM471 579q0 -24 -17.5 -41.5t-42.5 -17.5
t-42.5 17.5t-17.5 42.5t17.5 42.5t42.5 17.5t42.5 -17.5t17.5 -43.5zM255 579q0 -24 -17.5 -41.5t-42.5 -17.5t-42.5 17.5t-17.5 42.5t17.5 42.5t42.5 17.5t42.5 -17.5t17.5 -43.5z" />
    <glyph glyph-name="Zdotbelow" unicode="&#x1e92;" 
d="M527 0h-454v100l302 383h-179v-70q0 -66 -50 -66t-50 66v170h408v-97l-303 -386h226v72q0 66 50 66t50 -66v-172zM360 -144q0 -24 -17.5 -41.5t-42.5 -17.5t-42.5 17.5t-17.5 42.5t17.5 42.5t42.5 17.5t42.5 -17.5t17.5 -43.5z" />
    <glyph glyph-name="zdotbelow" unicode="&#x1e93;" 
d="M519 0h-434v83l261 254h-149v-9q0 -66 -50 -66t-50 66v109h409v-81l-262 -256h175q3 54 50 54q50 0 50 -66v-88zM362 -144q0 -24 -17.5 -41.5t-42.5 -17.5t-42.5 17.5t-17.5 42.5t17.5 42.5t42.5 17.5t42.5 -17.5t17.5 -43.5z" />
    <glyph glyph-name="tdieresis" unicode="&#x1e97;" 
d="M529 78q0 -38 -78 -66t-152 -28q-85 0 -135 37t-50 101v215h-35q-66 0 -66 50t66 50h35v88q0 66 50 66t50 -66v-88h181q66 0 66 -50t-66 -50h-181v-196q0 -35 19 -46t67 -11q79 0 146 34q21 11 35 11q20 0 34 -15t14 -36zM332 723q0 -24 -17.5 -41.5t-42.5 -17.5
t-42.5 17.5t-17.5 42.5t17.5 42.5t42.5 17.5t42.5 -17.5t17.5 -43.5zM116 723q0 -24 -17.5 -41.5t-42.5 -17.5t-42.5 17.5t-17.5 42.5t17.5 42.5t42.5 17.5t42.5 -17.5t17.5 -43.5z" />
    <glyph glyph-name="Adotbelow" unicode="&#x1ea0;" 
d="M621 50q0 -50 -66 -50h-139q-66 0 -66 50t66 50h23l-23 58h-238l-23 -58h23q66 0 66 -50t-66 -50h-133q-66 0 -66 50t67 50l155 383h-63q-67 0 -67 50t67 50h216l199 -483q68 0 68 -50zM375 258l-78 192l-79 -192h157zM360 -144q0 -24 -17.5 -41.5t-42.5 -17.5
t-42.5 17.5t-17.5 42.5t17.5 42.5t42.5 17.5t42.5 -17.5t17.5 -43.5z" />
    <glyph glyph-name="adotbelow" unicode="&#x1ea1;" 
d="M571 50q0 -50 -66 -50h-117v23q-75 -39 -166 -39q-74 0 -127 39.5t-53 95.5q0 73 70.5 121t171.5 48q45 0 104 -10v23q0 49 -93 49q-51 0 -116 -17q-25 -6 -40 -6q-21 0 -35 14.5t-14 36.5q0 32 30 42q85 30 172 30q92 0 144.5 -39t52.5 -109v-202h16q66 0 66 -50z
M389 135v50q-63 11 -111 11q-51 0 -90.5 -22t-39.5 -51q0 -17 22 -28t54 -11q82 0 165 51zM352 -144q0 -24 -17.5 -41.5t-42.5 -17.5t-42.5 17.5t-17.5 42.5t17.5 42.5t42.5 17.5t42.5 -17.5t17.5 -43.5z" />
    <glyph glyph-name="Ahookabove" unicode="&#x1ea2;" 
d="M621 50q0 -50 -66 -50h-139q-66 0 -66 50t66 50h23l-23 58h-238l-23 -58h23q66 0 66 -50t-66 -50h-133q-66 0 -66 50t67 50l155 383h-63q-67 0 -67 50t67 50h216l199 -483q68 0 68 -50zM375 258l-78 192l-79 -192h157zM414 758q0 -35 -17 -55.5t-63 -42.5q0 -17 -12 -30
t-28 -13q-19 0 -30.5 13t-11.5 36v41q89 18 89 54q0 15 -12.5 28.5t-31.5 13.5q-25 0 -45 -9q0 -31 -7.5 -44t-26.5 -13q-37 0 -37 49v52q65 37 115 37q56 0 87 -32t31 -85z" />
    <glyph glyph-name="ahookabove" unicode="&#x1ea3;" 
d="M571 50q0 -50 -66 -50h-117v23q-75 -39 -166 -39q-74 0 -127 39.5t-53 95.5q0 73 70.5 121t171.5 48q45 0 104 -10v23q0 49 -93 49q-51 0 -116 -17q-25 -6 -40 -6q-21 0 -35 14.5t-14 36.5q0 32 30 42q85 30 172 30q92 0 144.5 -39t52.5 -109v-202h16q66 0 66 -50z
M389 135v50q-63 11 -111 11q-51 0 -90.5 -22t-39.5 -51q0 -17 22 -28t54 -11q82 0 165 51zM409 612q0 -35 -17 -55.5t-63 -42.5q0 -17 -12 -30t-28 -13q-19 0 -30.5 13t-11.5 36v41q89 18 89 54q0 15 -12.5 28.5t-31.5 13.5q-26 0 -45 -9q0 -31 -7.5 -44t-26.5 -13
q-37 0 -37 49v52q65 37 115 37q56 0 87 -32t31 -85z" />
    <glyph glyph-name="Acircumflexacute" unicode="&#x1ea4;" 
d="M621 50q0 -50 -66 -50h-139q-66 0 -66 50t66 50h23l-23 58h-238l-23 -58h23q66 0 66 -50t-66 -50h-133q-66 0 -66 50t67 50l155 383h-63q-67 0 -67 50t67 50h216l199 -483q68 0 68 -50zM375 258l-78 192l-79 -192h157zM408 964q0 -22 -18 -33l-161 -111q-8 -7 -22 -7
q-17 0 -28.5 11.5t-11.5 28.5q0 21 17 32l161 112q11 7 23 7q16 0 28 -12t12 -28zM470 660q0 -17 -11.5 -29t-28.5 -12q-14 0 -26 10l-107 91l-107 -91q-12 -10 -25 -10q-17 0 -29 12t-12 29q0 18 15 30l132 113q12 10 26 10t26 -10l132 -113q15 -12 15 -30z" />
    <glyph glyph-name="acircumflexacute" unicode="&#x1ea5;" 
d="M571 50q0 -50 -66 -50h-117v23q-75 -39 -166 -39q-74 0 -127 39.5t-53 95.5q0 73 70.5 121t171.5 48q45 0 104 -10v23q0 49 -93 49q-51 0 -116 -17q-25 -6 -40 -6q-21 0 -35 14.5t-14 36.5q0 32 30 42q85 30 172 30q92 0 144.5 -39t52.5 -109v-202h16q66 0 66 -50z
M389 135v50q-63 11 -111 11q-51 0 -90.5 -22t-39.5 -51q0 -17 22 -28t54 -11q82 0 165 51zM403 818q0 -22 -18 -33l-161 -111q-8 -7 -22 -7q-17 0 -28.5 11.5t-11.5 28.5q0 21 17 32l161 112q10 7 23 7q17 0 28.5 -12t11.5 -28zM465 514q0 -17 -11.5 -29t-28.5 -12
q-14 0 -26 10l-107 91l-107 -91q-12 -10 -25 -10q-17 0 -29 12t-12 29q0 18 15 30l132 113q12 10 26 10t26 -10l132 -113q15 -12 15 -30z" />
    <glyph glyph-name="Acircumflexgrave" unicode="&#x1ea6;" 
d="M621 50q0 -50 -66 -50h-139q-66 0 -66 50t66 50h23l-23 58h-238l-23 -58h23q66 0 66 -50t-66 -50h-133q-66 0 -66 50t67 50l155 383h-63q-67 0 -67 50t67 50h216l199 -483q68 0 68 -50zM375 258l-78 192l-79 -192h157zM427 853q0 -17 -11.5 -28.5t-28.5 -11.5
q-14 0 -22 7l-161 111q-18 11 -18 33q0 16 12 28t28 12q12 0 23 -7l161 -112q17 -11 17 -32zM470 660q0 -17 -11.5 -29t-28.5 -12q-14 0 -26 10l-107 91l-107 -91q-12 -10 -25 -10q-17 0 -29 12t-12 29q0 18 15 30l132 113q12 10 26 10t26 -10l132 -113q15 -12 15 -30z" />
    <glyph glyph-name="acircumflexgrave" unicode="&#x1ea7;" 
d="M571 50q0 -50 -66 -50h-117v23q-75 -39 -166 -39q-74 0 -127 39.5t-53 95.5q0 73 70.5 121t171.5 48q45 0 104 -10v23q0 49 -93 49q-51 0 -116 -17q-25 -6 -40 -6q-21 0 -35 14.5t-14 36.5q0 32 30 42q85 30 172 30q92 0 144.5 -39t52.5 -109v-202h16q66 0 66 -50z
M389 135v50q-63 11 -111 11q-51 0 -90.5 -22t-39.5 -51q0 -17 22 -28t54 -11q82 0 165 51zM422 707q0 -17 -11.5 -28.5t-28.5 -11.5q-14 0 -22 7l-161 111q-18 11 -18 33q0 16 11.5 28t28.5 12q13 0 23 -7l161 -112q17 -11 17 -32zM465 514q0 -17 -11.5 -29t-28.5 -12
q-14 0 -26 10l-107 91l-107 -91q-12 -10 -25 -10q-17 0 -29 12t-12 29q0 18 15 30l132 113q12 10 26 10t26 -10l132 -113q15 -12 15 -30z" />
    <glyph glyph-name="Acircumflexhookabove" unicode="&#x1ea8;" 
d="M621 50q0 -50 -66 -50h-139q-66 0 -66 50t66 50h23l-23 58h-238l-23 -58h23q66 0 66 -50t-66 -50h-133q-66 0 -66 50t67 50l155 383h-63q-67 0 -67 50t67 50h216l199 -483q68 0 68 -50zM375 258l-78 192l-79 -192h157zM498 954q0 -35 -17 -55.5t-63 -42.5q0 -17 -12 -30
t-28 -13q-19 0 -30.5 13t-11.5 36v41q89 18 89 54q0 15 -12.5 28.5t-31.5 13.5q-25 0 -45 -9q0 -31 -7.5 -44t-26.5 -13q-37 0 -37 49v52q65 37 115 37q56 0 87 -32t31 -85zM470 660q0 -17 -11.5 -29t-28.5 -12q-14 0 -26 10l-107 91l-107 -91q-12 -10 -25 -10q-17 0 -29 12
t-12 29q0 18 15 30l132 113q12 10 26 10t26 -10l132 -113q15 -12 15 -30z" />
    <glyph glyph-name="acircumflexhookabove" unicode="&#x1ea9;" 
d="M571 50q0 -50 -66 -50h-117v23q-75 -39 -166 -39q-74 0 -127 39.5t-53 95.5q0 73 70.5 121t171.5 48q45 0 104 -10v23q0 49 -93 49q-51 0 -116 -17q-25 -6 -40 -6q-21 0 -35 14.5t-14 36.5q0 32 30 42q85 30 172 30q92 0 144.5 -39t52.5 -109v-202h16q66 0 66 -50z
M389 135v50q-63 11 -111 11q-51 0 -90.5 -22t-39.5 -51q0 -17 22 -28t54 -11q82 0 165 51zM493 808q0 -35 -17 -55.5t-63 -42.5q0 -17 -12 -30t-28 -13q-19 0 -30.5 13t-11.5 36v41q89 18 89 54q0 15 -12.5 28.5t-31.5 13.5q-26 0 -45 -9q0 -31 -7.5 -44t-26.5 -13
q-37 0 -37 49v52q65 37 115 37q56 0 87 -32t31 -85zM465 514q0 -17 -11.5 -29t-28.5 -12q-14 0 -26 10l-107 91l-107 -91q-12 -10 -25 -10q-17 0 -29 12t-12 29q0 18 15 30l132 113q12 10 26 10t26 -10l132 -113q15 -12 15 -30z" />
    <glyph glyph-name="Acircumflextilde" unicode="&#x1eaa;" 
d="M621 50q0 -50 -66 -50h-139q-66 0 -66 50t66 50h23l-23 58h-238l-23 -58h23q66 0 66 -50t-66 -50h-133q-66 0 -66 50t67 50l155 383h-63q-67 0 -67 50t67 50h216l199 -483q68 0 68 -50zM375 258l-78 192l-79 -192h157zM482 928q0 -29 -38.5 -67t-70.5 -38q-34 0 -99 43
q-31 21 -50 21q-13 0 -23 -8.5t-32 -37.5q-11 -15 -26 -15q-13 0 -22 9t-9 21q0 31 38 65.5t72 34.5q17 0 34 -7.5t56 -30.5q43 -26 58 -26q11 0 17.5 5.5t23.5 28.5q21 30 39 30q13 0 22.5 -8.5t9.5 -19.5zM470 660q0 -17 -11.5 -29t-28.5 -12q-14 0 -26 10l-107 91
l-107 -91q-12 -10 -25 -10q-17 0 -29 12t-12 29q0 18 15 30l132 113q12 10 26 10t26 -10l132 -113q15 -12 15 -30z" />
    <glyph glyph-name="acircumflextilde" unicode="&#x1eab;" 
d="M571 50q0 -50 -66 -50h-117v23q-75 -39 -166 -39q-74 0 -127 39.5t-53 95.5q0 73 70.5 121t171.5 48q45 0 104 -10v23q0 49 -93 49q-51 0 -116 -17q-25 -6 -40 -6q-21 0 -35 14.5t-14 36.5q0 32 30 42q85 30 172 30q92 0 144.5 -39t52.5 -109v-202h16q66 0 66 -50z
M389 135v50q-63 11 -111 11q-51 0 -90.5 -22t-39.5 -51q0 -17 22 -28t54 -11q82 0 165 51zM477 782q0 -29 -38.5 -67t-70.5 -38q-34 0 -99 43q-32 21 -50 21q-13 0 -23 -8.5t-32 -37.5q-11 -15 -26 -15q-13 0 -22 9t-9 21q0 31 38 65.5t72 34.5q17 0 34 -7.5t56 -30.5
q43 -26 58 -26q11 0 17.5 5.5t23.5 28.5q21 30 39 30q13 0 22.5 -8.5t9.5 -19.5zM465 514q0 -17 -11.5 -29t-28.5 -12q-14 0 -26 10l-107 91l-107 -91q-12 -10 -25 -10q-17 0 -29 12t-12 29q0 18 15 30l132 113q12 10 26 10t26 -10l132 -113q15 -12 15 -30z" />
    <glyph glyph-name="Acircumflexdotbelow" unicode="&#x1eac;" 
d="M621 50q0 -50 -66 -50h-139q-66 0 -66 50t66 50h23l-23 58h-238l-23 -58h23q66 0 66 -50t-66 -50h-133q-66 0 -66 50t67 50l155 383h-63q-67 0 -67 50t67 50h216l199 -483q68 0 68 -50zM375 258l-78 192l-79 -192h157zM470 660q0 -17 -11.5 -29t-28.5 -12q-14 0 -26 10
l-107 91l-107 -91q-12 -10 -25 -10q-17 0 -29 12t-12 29q0 18 15 30l132 113q12 10 26 10t26 -10l132 -113q15 -12 15 -30zM360 -144q0 -24 -17.5 -41.5t-42.5 -17.5t-42.5 17.5t-17.5 42.5t17.5 42.5t42.5 17.5t42.5 -17.5t17.5 -43.5z" />
    <glyph glyph-name="acircumflexdotbelow" unicode="&#x1ead;" 
d="M571 50q0 -50 -66 -50h-117v23q-75 -39 -166 -39q-74 0 -127 39.5t-53 95.5q0 73 70.5 121t171.5 48q45 0 104 -10v23q0 49 -93 49q-51 0 -116 -17q-25 -6 -40 -6q-21 0 -35 14.5t-14 36.5q0 32 30 42q85 30 172 30q92 0 144.5 -39t52.5 -109v-202h16q66 0 66 -50z
M389 135v50q-63 11 -111 11q-51 0 -90.5 -22t-39.5 -51q0 -17 22 -28t54 -11q82 0 165 51zM465 524q0 -17 -11.5 -29t-28.5 -12q-14 0 -26 10l-107 91l-107 -91q-12 -10 -25 -10q-17 0 -29 12t-12 29q0 18 15 30l132 113q12 10 26 10t26 -10l132 -113q15 -12 15 -30z
M352 -144q0 -24 -17.5 -41.5t-42.5 -17.5t-42.5 17.5t-17.5 42.5t17.5 42.5t42.5 17.5t42.5 -17.5t17.5 -43.5z" />
    </font>
</defs>
</svg>
