<?xml version="1.0" standalone="no"?>
<!DOCTYPE svg PUBLIC "-//W3C//DTD SVG 1.1//EN" "http://www.w3.org/Graphics/SVG/1.1/DTD/svg11.dtd" >
<svg xmlns="http://www.w3.org/2000/svg" xmlns:xlink="http://www.w3.org/1999/xlink" version="1.1">
<metadata>
Created by FontForge
</metadata>
<defs>
<font id="qdb" horiz-adv-x="788" >
  <font-face 
    font-family="qdb"
    font-weight="400"
    font-stretch="normal"
    units-per-em="1000"
    panose-1="1 1 6 1 1 1 1 1 1 1"
    ascent="857"
    descent="-143"
    x-height="691"
    cap-height="719"
    bbox="-1 -144 981 819"
    underline-thickness="36"
    underline-position="-90"
    unicode-range="U+0020-00FE"
  />
<missing-glyph horiz-adv-x="278" 
 />
    <glyph glyph-name=".notdef" horiz-adv-x="278" 
 />
    <glyph glyph-name="space" unicode=" " horiz-adv-x="278" 
 />
    <glyph glyph-name="space" unicode="&#xa0;" horiz-adv-x="278" 
 />
    <glyph glyph-name="a1" unicode="!" horiz-adv-x="974" 
d="M128 233c-35 0 -64 -25 -64 -57c0 -40 41 -78 85 -78c34 0 62 27 62 61c0 42 -36 74 -83 74zM153 589c-31 0 -57 -25 -57 -56c0 -37 46 -76 91 -76c27 0 49 24 49 56c0 38 -41 76 -83 76zM617 120l-92 -8l-101 114c-10 -2 -17 -2 -19 -3l-65 -6c-19 -2 -31 -3 -34 -3
l-54 1c-10 1 -19 -6 -19 -14c0 -3 2 -12 5 -26c1 -5 2 -10 2 -17c0 -51 -38 -87 -92 -87c-60 0 -113 50 -113 106c0 45 39 84 84 84c18 0 39 -3 63 -9c28 -8 52 -11 68 -11c36 0 88 26 122 61c-26 50 -90 100 -146 113l-55 13c-64 16 -104 57 -104 107c0 45 37 82 83 82
c61 0 116 -51 116 -108c0 -16 -3 -25 -16 -51c-2 -5 -3 -9 -3 -12c0 -10 2 -11 67 -36c32 -13 61 -35 110 -81l265 15c18 1 36 2 50 2c62 0 128 -20 200 -61l-418 -55z" />
    <glyph glyph-name="a2" unicode="&#x22;" horiz-adv-x="961" 
d="M147 248c-41 0 -76 -34 -76 -73c0 -37 28 -62 68 -62c45 0 74 28 74 71c0 38 -27 64 -66 64zM138 578c-41 0 -70 -27 -70 -65c0 -39 34 -70 78 -70c39 0 66 27 66 66c0 40 -31 69 -74 69zM549 347l378 -141c-28 -29 -54 -40 -95 -40c-31 0 -63 7 -102 21l-309 114l-15 -6
c-79 -31 -92 -35 -152 -43c-16 -2 -24 -7 -24 -16c0 -4 1 -9 4 -14l6 -15c4 -9 6 -20 6 -32c0 -55 -44 -94 -105 -94s-103 38 -103 93c0 61 55 109 123 107l77 -1c51 -1 103 29 116 67c-18 40 -67 67 -118 66l-81 -2c-65 -2 -120 44 -120 101c0 58 43 98 104 98
c59 0 106 -41 106 -92c0 -14 -5 -31 -11 -45c-3 -7 -5 -13 -5 -17c0 -10 11 -15 38 -17c36 -2 101 -22 154 -46l312 118c39 14 74 22 101 22c36 0 57 -9 92 -41z" />
    <glyph glyph-name="a202" unicode="#" horiz-adv-x="974" 
d="M147 587c-44 0 -83 -36 -83 -77c0 -32 29 -57 64 -57c47 0 83 32 83 74c0 35 -27 60 -64 60zM186 230c-43 0 -90 -40 -90 -77c0 -30 25 -56 55 -56c43 0 85 38 85 77c0 32 -22 56 -50 56zM617 567l-96 -111l418 -54c-72 -41 -138 -61 -198 -61c-13 0 -33 0 -52 2l-265 15
c-50 -48 -78 -69 -110 -81c-64 -25 -67 -27 -67 -37c0 -3 1 -7 3 -12c13 -25 16 -35 16 -51c0 -57 -55 -108 -116 -108c-46 0 -83 36 -83 82c0 50 40 92 104 107l55 13c56 14 120 64 146 114c-34 34 -86 60 -121 60c-17 0 -41 -3 -69 -11c-24 -6 -45 -9 -63 -9
c-45 0 -84 39 -84 84c0 57 53 106 113 106c54 0 92 -36 92 -86c0 -7 0 -12 -2 -17c-3 -14 -5 -23 -5 -26c0 -8 9 -15 19 -14l54 1c3 0 16 -1 34 -3l65 -7c2 0 9 -1 19 -2l101 114z" />
    <glyph glyph-name="a3" unicode="$" horiz-adv-x="980" 
d="M441 440c-9 14 -16 18 -29 18c-8 0 -15 -1 -22 -3l-23 -7c-6 -2 -16 -3 -30 -3c-45 0 -71 9 -71 26c0 4 1 7 3 9l12 20c9 13 14 33 14 54c0 65 -51 113 -120 113c-68 0 -116 -51 -116 -123c0 -77 55 -127 139 -127h67c38 0 66 -11 82 -32zM491 264l156 -104
c73 -48 114 -65 159 -65c32 0 58 11 93 38l-305 194zM910 541c-35 30 -62 41 -98 41c-33 0 -75 -13 -115 -36l-45 -26l-293 -171c1 -3 1 -8 1 -10c0 -44 -32 -65 -98 -65h-57c-91 0 -143 -46 -143 -128c0 -73 48 -122 119 -122c68 0 116 49 116 118c0 23 -7 45 -19 59l-6 8
c-3 4 -4 8 -4 12s2 8 5 11c12 10 42 21 57 20l75 -3c5 0 14 3 19 6zM945 535l-325 -194l322 -204c-33 -38 -88 -61 -144 -61c-39 0 -97 20 -140 48l-191 127l-48 -30c-4 -3 -8 -4 -13 -4c-7 0 -15 1 -23 3c-21 4 -37 6 -50 6c-8 0 -17 -2 -33 -5c22 -33 29 -57 29 -88
c0 -77 -60 -133 -145 -133c-88 0 -146 59 -146 148c0 48 17 87 50 113c39 31 73 39 174 41c50 2 76 16 76 42c0 31 -19 38 -105 43c-136 6 -198 56 -198 157c0 88 59 147 147 147c82 0 148 -59 148 -133c0 -28 -8 -51 -30 -84c10 -4 16 -5 29 -5c20 0 37 2 69 10
c7 2 13 3 17 3c15 0 29 -7 52 -27l162 95c65 38 122 56 173 56c56 0 94 -18 143 -71zM472 382c-15 0 -27 -13 -27 -31c0 -17 10 -30 25 -30c14 0 26 15 26 33c0 16 -11 28 -24 28zM469 401c26 0 46 -22 46 -50c0 -29 -21 -54 -46 -54c-24 0 -44 23 -44 52s20 52 44 52z
M183 614c-33 0 -62 -29 -62 -63s29 -63 62 -63s59 28 59 63s-26 63 -59 63zM180 639c49 0 88 -40 88 -89s-40 -89 -88 -89c-49 0 -89 40 -89 89s39 89 89 89zM186 205c-34 0 -63 -30 -63 -65s29 -64 63 -64s60 28 60 64c0 37 -26 65 -60 65zM181 230c49 0 89 -39 89 -89
c0 -49 -40 -89 -89 -89s-89 40 -89 89c0 50 39 89 89 89z" />
    <glyph glyph-name="a4" unicode="%" horiz-adv-x="719" 
d="M34 408c18 -6 26 -7 51 -7c42 0 69 2 108 7c-9 -27 -22 -31 -109 -31c-34 0 -40 3 -50 31zM685 408c-10 -28 -15 -31 -51 -31l-41 1c-46 0 -60 6 -66 30c36 -5 56 -7 83 -7c40 0 52 1 75 7zM360 401c-53 0 -97 -43 -97 -96c0 -54 44 -97 97 -97c54 0 97 43 97 97
c0 53 -43 96 -97 96zM284 431h11c27 2 49 3 64 3s37 -1 64 -3h11l17 41c-6 1 -12 1 -16 2c-41 5 -53 6 -76 6s-35 -1 -76 -6c-3 -1 -10 -1 -16 -2zM140 200c14 39 23 66 28 78l31 77c7 18 9 21 23 37l20 23c10 11 11 12 11 25c0 11 -1 19 -3 30c-33 -7 -43 -16 -54 -43
c-31 -7 -58 -9 -105 -9c-26 0 -36 1 -57 5c5 49 14 74 32 88c38 30 172 55 293 55s255 -25 292 -55c19 -14 28 -39 32 -88c-20 -4 -30 -5 -55 -5c-49 0 -75 2 -106 9c-11 27 -22 36 -55 43c-2 -12 -2 -19 -2 -30c0 -13 0 -14 10 -25l20 -23c14 -16 16 -19 23 -37l32 -77
c4 -12 14 -39 27 -78c-1 -29 -3 -53 -6 -59c-1 -2 -3 -2 -8 -3h-8h-392h-8c-6 1 -8 1 -9 3c-2 6 -5 30 -6 59z" />
    <glyph glyph-name="a5" unicode="&#x26;" horiz-adv-x="789" 
d="M356 235c4 -4 7 -7 9 -8c22 -18 27 -24 27 -31c0 -17 -15 -47 -35 -69c-10 -12 -26 -23 -33 -23c-9 0 -30 9 -46 20c41 26 61 54 78 111zM511 592c29 -10 44 -24 44 -40c0 -26 -4 -44 -18 -69c-11 -21 -13 -23 -27 -23c-16 0 -27 2 -41 7c27 37 37 67 42 125zM160 124
c-12 -4 -11 -3 -15 -3c-7 0 -16 3 -23 9c-49 42 -87 140 -87 223c0 192 164 353 359 353c198 0 361 -162 361 -361c0 -200 -163 -358 -370 -358c-108 0 -190 52 -190 119c0 18 6 35 17 49c3 3 4 5 4 7c0 1 -2 4 -4 6l-4 5c-2 3 -4 11 -4 19c0 97 68 256 155 361
c42 51 50 56 93 56c29 0 37 -3 37 -18c0 -62 -23 -113 -52 -118c-33 -4 -45 -16 -75 -69c-25 -45 -46 -100 -46 -119c0 -11 3 -18 17 -31c4 -4 6 -7 6 -12c0 -19 -16 -50 -38 -74c-19 -21 -35 -33 -44 -33c-6 0 -15 3 -20 6c-3 1 -5 2 -6 2c-6 0 -12 -13 -12 -28
c0 -55 67 -95 160 -95c191 0 343 145 343 327c0 177 -148 323 -328 323c-178 0 -326 -147 -326 -323c0 -77 28 -150 82 -212l3 -4l3 -2c0 -1 2 -3 4 -5z" />
    <glyph glyph-name="a119" unicode="'" horiz-adv-x="790" 
d="M395 680c-184 0 -334 -150 -334 -334s150 -334 334 -334s334 150 334 334s-150 334 -334 334zM395 706c199 0 360 -162 360 -360c0 -199 -161 -360 -360 -360s-360 161 -360 360c0 198 161 360 360 360zM396 447c56 0 101 -45 101 -101s-45 -101 -101 -101
s-101 45 -101 101c0 55 45 101 101 101zM441 639l28 -185c-21 15 -42 22 -71 22c-28 0 -49 -7 -74 -22l21 185c14 4 28 6 51 6c21 0 30 -1 45 -6zM116 245l150 110c1 -58 21 -94 68 -123l-166 -76c-20 22 -39 54 -52 89zM617 146l-163 86c47 23 71 62 72 117l145 -117
c-9 -29 -35 -69 -54 -86z" />
    <glyph glyph-name="a118" unicode="(" horiz-adv-x="791" 
d="M35 347l35 11l-33 119l51 -8l74 -99l12 2l60 5c32 3 53 5 63 5l41 1c25 1 38 10 38 26c0 7 -1 15 -4 25l-19 74l-87 197h37c18 0 24 -4 41 -28l39 -55h61c6 0 11 -7 11 -16s-5 -17 -11 -17h-33l49 -69h60c6 0 12 -8 12 -17s-6 -17 -13 -17h-31l74 -100c5 0 8 -1 9 -1
l70 -2c76 -4 120 -16 120 -35c0 -22 -43 -36 -120 -39l-70 -3c-1 0 -4 0 -9 -1l-74 -99h31c7 0 13 -9 13 -18c0 -8 -6 -16 -12 -16h-60l-49 -69h33c6 0 11 -9 11 -17c0 -9 -5 -17 -11 -17h-61l-39 -54c-17 -24 -23 -28 -41 -28h-37l87 197c23 87 23 87 23 98
c0 17 -12 25 -38 26l-41 1c-9 0 -31 2 -63 5c-31 3 -53 5 -60 6l-12 1l-74 -99l-51 -7l33 119z" />
    <glyph glyph-name="a117" unicode=")" horiz-adv-x="690" 
d="M636 537h-582l208 -162c16 36 45 55 83 55s67 -19 83 -55zM636 515l-208 -162v-6v-6l208 -162v336zM636 156l-208 162c-16 -35 -45 -55 -83 -55s-67 19 -83 55l-208 -162h582zM54 515v-336l208 162v6v6zM655 556v-419h-620v419h620z" />
    <glyph glyph-name="a11" unicode="*" horiz-adv-x="960" 
d="M141 494c-53 -1 -82 -65 -82 -177c0 -99 28 -158 75 -158c1 0 4 0 7 1c-9 -11 -17 -15 -28 -15c-48 0 -78 66 -78 172c0 108 37 193 84 193c9 0 14 -4 22 -16zM615 219c1 -8 2 -16 2 -23c0 -28 -16 -43 -54 -51c-59 -13 -129 -23 -162 -23c-42 0 -44 1 -120 43
c-22 13 -23 13 -48 15c-1 0 -7 1 -17 2l-34 4l-35 7c-12 2 -14 3 -19 14c-16 35 -25 77 -25 123c0 88 25 138 70 142l29 2c33 2 44 5 72 21c31 17 78 40 124 59c25 11 39 14 62 14c46 0 108 -6 198 -20c34 -6 36 -6 112 -32c114 -39 155 -61 155 -85c0 -19 -40 -32 -102 -32
c-19 0 -27 2 -66 11c-34 8 -74 14 -95 14h-18l11 -10c25 -21 34 -36 34 -54c0 -22 -17 -39 -52 -53c15 -16 19 -26 19 -44c0 -24 -10 -34 -41 -44z" />
    <glyph glyph-name="a12" unicode="+" horiz-adv-x="939" 
d="M667 238c-1 0 -4 -1 -8 -4c0 0 -11 -5 -26 -12l-25 -12c-1 0 -10 -2 -22 -5l-35 -9c-15 -3 -18 -5 -18 -13c0 -16 19 -28 43 -28c25 0 56 8 81 22c15 8 29 23 29 31c0 7 -5 19 -12 27c-2 2 -5 3 -7 3zM648 319c-4 0 -7 -1 -25 -10l-57 -28c-15 -7 -26 -12 -31 -13
c-27 -8 -33 -12 -33 -26c0 -13 13 -25 28 -25c21 0 62 10 95 24c28 11 47 32 47 53c0 12 -12 25 -24 25zM629 395l-1 -1l-2 -2l-1 -2l-2 -2c-20 -22 -47 -35 -77 -35c-15 0 -30 3 -45 9c-5 2 -9 3 -11 3c-5 0 -18 -6 -26 -12c-13 -9 -22 -24 -22 -37c0 -18 18 -34 38 -34
c8 0 11 0 26 5c20 7 56 21 77 30c49 22 63 34 63 54c0 9 -4 15 -17 24zM534 517l71 -81c19 -1 33 -1 37 -1c47 0 106 2 179 7c14 2 26 4 35 7c9 4 15 13 15 22c0 23 -31 37 -98 43c-37 3 -115 7 -153 7c-27 0 -44 -1 -86 -4zM235 449v-197c32 -1 50 -5 65 -14l39 -25
c32 -20 74 -29 125 -29h36l8 1v13c-26 6 -34 18 -36 54c-36 7 -43 14 -58 62h-54l-67 23l8 15c6 -1 10 -2 13 -3c23 -5 42 -8 55 -8c31 0 64 15 87 41l-42 54l12 14l58 -49l14 -12c14 -12 35 -20 50 -20c21 0 41 14 41 29c0 11 -8 25 -20 38l-71 71c-15 16 -38 25 -59 25
c-20 0 -57 -15 -90 -36l-38 -24c-27 -17 -42 -22 -76 -23zM139 484l10 -272h53v272h-63zM35 507l200 11v-34c5 0 10 -1 12 -1c27 0 47 8 90 35c46 30 76 41 107 41c21 0 37 -5 56 -18c33 4 53 5 75 5c119 0 234 -9 268 -20c37 -12 61 -35 61 -58c0 -36 -38 -53 -122 -58
l-102 -6h-20c13 -15 18 -24 18 -36c0 -6 -2 -12 -7 -23c24 -15 33 -32 33 -56c0 -12 -1 -17 -9 -27c19 -22 25 -34 25 -48c0 -41 -71 -81 -143 -81c-29 0 -49 9 -62 28h-9h-51c-49 -1 -79 7 -122 30c-49 27 -54 29 -98 31v-49h-83l-11 -25l-106 13v346z" />
    <glyph glyph-name="a13" unicode="," horiz-adv-x="549" 
d="M331 276c-31 4 -41 6 -68 14l23 -55zM149 373c-1 0 -3 -1 -6 -4l-2 -2l-5 -3c-11 -9 -17 -19 -17 -26c0 -21 35 -80 74 -123c13 -15 31 -26 42 -26c12 0 24 11 24 20c0 11 -4 19 -22 53c-27 52 -46 84 -56 94c-12 12 -21 18 -27 18c-1 0 -3 0 -5 -1zM400 413
c15 37 34 93 52 154c13 45 16 55 16 66c0 13 -11 26 -23 26c-19 0 -27 -14 -54 -90l-26 -73c-5 -14 -13 -38 -25 -71zM283 425c-13 40 -22 67 -26 76l-45 122c-12 34 -23 47 -39 47c-11 0 -22 -12 -22 -27c0 -24 10 -64 28 -113l35 -95l5 -10c14 2 25 4 32 4s18 -2 32 -4z
M246 402c-6 -12 -9 -22 -9 -29c0 -29 33 -54 82 -63l31 -6l43 4c4 0 11 1 19 1h8v-27c-34 -6 -49 -13 -70 -31c-33 -28 -68 -84 -68 -107c0 -8 5 -28 13 -58c1 -2 2 -7 3 -12l-10 -9c-32 31 -37 42 -42 91h-22c1 -7 1 -14 1 -19c0 -24 -21 -44 -47 -44c-38 0 -71 28 -100 83
v23h8c6 -18 16 -32 35 -50c15 -15 32 -26 41 -26c8 0 17 4 24 10c5 4 8 9 8 12s-3 9 -7 15l-50 76c-12 18 -23 26 -35 26c-8 0 -16 -4 -24 -10c-10 -9 -20 -26 -20 -35c0 -3 1 -8 4 -16l19 -60c2 -4 7 -15 16 -30c16 -25 28 -42 37 -50c24 -21 72 -34 120 -34
c136 0 230 102 230 248c0 52 -18 86 -49 91l-155 26c-4 0 -16 4 -34 10zM312 449c19 49 34 87 43 112c33 94 60 130 95 130c27 0 50 -27 50 -60c0 -32 -14 -86 -46 -177l-19 -52c10 -3 18 -6 23 -7c25 -6 32 -11 39 -29c13 -30 19 -64 19 -105c0 -155 -109 -271 -255 -271
c-72 0 -137 27 -170 70c-37 47 -62 114 -62 163c0 37 29 68 63 68h2c-6 20 -8 37 -8 52c0 8 3 18 8 27c13 21 45 42 63 42c8 0 19 -4 34 -10c-6 21 -8 29 -36 103c-19 53 -37 120 -37 140c0 32 29 61 60 61c34 0 59 -42 100 -164c13 -40 21 -62 34 -93z" />
    <glyph glyph-name="a14" unicode="-" horiz-adv-x="855" 
d="M670 387l3 -25c7 -42 9 -67 9 -88c0 -53 -7 -101 -23 -156l106 9c12 44 16 77 16 127c0 56 -6 91 -23 133h-88zM303 278c9 -2 17 -3 24 -3c25 0 55 51 55 95zM98 202c5 -1 9 -1 13 -1c20 0 35 26 35 63c0 11 -2 16 -9 23zM67 109c-2 -3 -4 -12 -4 -16c0 -6 6 -12 12 -12
c4 0 7 1 10 2l31 11c8 3 12 7 12 13c0 7 -7 21 -17 35c-5 6 -10 10 -14 10c-2 0 -6 -2 -8 -5l-7 -12zM398 507c-30 23 -39 29 -47 29c-3 0 -9 -2 -21 -9c-26 -12 -50 -28 -65 -42l-75 -66c-21 -19 -23 -22 -26 -32l-27 -90l18 -10l9 -27l-27 -58h18c27 23 43 42 50 58l26 66
zM643 378l-65 9l-120 70l-60 -70c3 -9 5 -16 5 -19s-1 -9 -2 -16c-1 -4 -2 -12 -3 -21l-47 -53c6 0 11 -1 14 -1c19 0 41 7 82 24c-7 -18 -12 -25 -32 -41h-124c-12 0 -24 -2 -30 -5l-14 -9l-28 -13c-16 -8 -27 -26 -27 -46c0 -13 9 -22 23 -22h20l14 -1c8 0 14 10 14 24
c0 13 -5 26 -14 39c-1 1 -1 2 -1 2c0 1 1 2 3 2c19 0 36 -19 36 -39c0 -11 -2 -16 -16 -27c-2 -2 -4 -4 -4 -5c0 -3 7 -6 21 -8l32 -4c4 0 7 -1 8 -1c12 0 30 3 54 8c14 3 37 6 65 10l27 -4c27 -5 46 -7 58 -7c23 0 58 6 98 18l17 5c8 45 10 67 10 92c0 32 -3 57 -14 109z
M82 202l35 90c11 47 17 67 38 127c83 81 122 109 194 143l60 -35l86 96c4 5 13 8 20 8c23 0 43 -24 43 -52c0 -7 -2 -11 -7 -17l-74 -84l92 -59c23 -15 34 -18 64 -20l14 20l150 -9l23 -71v-103l-23 -142h-150l-14 56l-92 -23l-104 11c-74 -7 -108 -9 -126 -9
c-35 0 -62 5 -122 21l-52 -56l-88 -32c-5 -2 -8 -3 -10 -3s-4 1 -5 3v1c0 1 2 5 5 11l56 111z" />
    <glyph glyph-name="a15" unicode="." horiz-adv-x="911" 
d="M231 349l-111 -21l414 -253c18 10 44 33 62 54zM306 474l-63 -105l369 -223c27 23 55 70 63 105zM290 599l28 -105l366 -219c3 19 4 29 4 44c0 14 -1 23 -4 40zM713 316c-8 -110 -47 -176 -142 -241h181c3 0 6 0 10 1l14 2c8 3 16 10 24 22c10 13 16 27 16 34
s-3 15 -9 24l-13 20zM257 616l-124 -23l-69 -115l33 -130l121 26l73 123zM265 641l419 -255s4 -3 10 -6c16 -9 20 -14 32 -34l143 -251c5 -10 7 -14 7 -20c0 -16 -12 -24 -36 -24h-277c-18 0 -39 5 -53 14l-434 261l-41 154l81 136zM193 554c16 0 29 -15 29 -35
c0 -43 -38 -94 -69 -94c-16 0 -31 17 -31 35c0 42 39 94 71 94z" />
    <glyph glyph-name="a16" unicode="/" horiz-adv-x="933" 
d="M640 247h-393l-68 -76h430c10 21 14 32 27 66zM643 278c5 18 7 33 7 65c0 33 -2 48 -7 66h-388v-131h388zM600 519h-415l66 -80h384c-12 35 -22 58 -35 80zM805 302c7 16 9 26 9 43s-2 27 -9 44l-158 109c28 -63 40 -107 40 -152c0 -46 -12 -93 -40 -154zM227 268v155
l-82 98l-82 -95v-162l82 -95zM136 141l-101 118v172l101 119h460l11 -1c16 0 20 -1 26 -5l10 -7l225 -157l21 -15c6 -4 10 -12 10 -19c0 -8 -4 -16 -10 -20l-21 -15l-225 -157l-10 -7c-6 -4 -10 -5 -26 -6h-11h-460zM145 424c25 0 39 -28 39 -78c0 -51 -14 -79 -39 -79
s-39 28 -39 78c0 51 14 79 39 79z" />
    <glyph glyph-name="a105" unicode="0" horiz-adv-x="911" 
d="M231 340l364 219c-17 20 -44 43 -61 53l-414 -251zM306 215l368 222c-7 36 -35 82 -62 104l-369 -221zM290 91l394 239c3 17 4 25 4 40s-1 25 -4 44l-366 -219zM713 373l81 137l13 20c6 9 9 17 9 23c0 7 -5 18 -13 31c-10 14 -18 22 -27 25l-14 2c-4 1 -7 1 -10 1h-181
c95 -64 134 -130 142 -239zM257 74l34 118l-73 123l-121 26l-33 -129l69 -115zM265 50l-149 25l-81 134l41 154l434 259c15 9 34 14 53 14h277c24 0 36 -8 36 -24c0 -6 -2 -9 -8 -20l-142 -249c-12 -21 -16 -25 -32 -34c-6 -3 -10 -5 -10 -6zM153 264c32 0 69 -50 69 -93
c0 -20 -13 -35 -28 -35c-33 0 -72 51 -72 94c0 18 15 34 31 34z" />
    <glyph glyph-name="a17" unicode="1" horiz-adv-x="945" 
d="M736 355v75c-24 17 -48 31 -96 57c-48 25 -64 31 -86 31c-31 0 -48 -13 -74 -56c-33 -55 -55 -73 -92 -73c-41 0 -71 24 -91 73h-130c-55 0 -99 -53 -99 -119c0 -61 43 -116 91 -116h138c15 40 50 65 93 65c38 0 58 -16 93 -72c21 -34 41 -49 67 -49c33 0 134 48 186 87
v73h-96c-12 -49 -34 -73 -66 -73c-37 0 -66 37 -66 82c0 47 31 85 68 85c32 0 52 -22 64 -70h96zM909 343c-39 -35 -75 -62 -129 -97c-119 -75 -191 -107 -239 -107c-30 0 -53 15 -76 53l-13 20c-21 34 -40 48 -63 48c-34 0 -58 -23 -70 -66h-159c-74 0 -125 60 -125 147
c0 90 55 154 132 154h152c13 -49 36 -74 66 -74c28 0 54 22 77 69c22 43 45 60 82 60c38 0 80 -16 162 -64c94 -55 115 -69 191 -133z" />
    <glyph glyph-name="a18" unicode="2" horiz-adv-x="974" 
d="M670 362c-14 35 -36 54 -64 54c-34 0 -62 -32 -62 -71s27 -70 62 -70c28 0 50 19 64 54c7 1 12 1 12 1l72 2c36 1 81 4 99 8c6 1 11 4 11 6c0 5 -15 8 -56 10c-35 3 -53 4 -55 4l-71 2h-12zM938 346c-91 -22 -135 -55 -209 -160c-43 -59 -76 -83 -119 -83
c-49 0 -97 38 -110 88l-12 43c-13 46 -28 61 -61 61c-23 0 -32 -6 -46 -27c-41 -66 -38 -65 -194 -65c-60 0 -77 2 -96 10c-35 16 -56 65 -56 130c0 63 17 108 48 128c19 11 40 15 88 15c175 0 171 1 204 -56c16 -28 29 -37 53 -37c34 0 46 14 61 65l8 32
c16 55 64 97 112 97c42 0 76 -23 118 -81c72 -98 118 -136 187 -154l8 -2c3 -1 5 -1 5 -1l4 -1c2 0 4 -1 7 -2z" />
    <glyph glyph-name="a19" unicode="3" horiz-adv-x="755" 
d="M721 705v-16c-109 -110 -343 -428 -440 -597l-47 -82c-11 -20 -23 -24 -73 -24c-41 0 -47 2 -55 19c-38 72 -72 175 -72 217c0 13 5 21 18 31c28 22 60 35 83 35c11 0 16 -5 22 -20l29 -71c7 -16 14 -25 20 -25c5 0 11 7 25 30c63 106 138 219 201 302
c53 71 109 139 125 153c35 28 100 47 164 48z" />
    <glyph glyph-name="a20" unicode="4" horiz-adv-x="846" 
d="M172 486c29 0 46 -15 46 -42c0 -12 3 -32 8 -61c2 -8 6 -36 13 -79c4 -26 19 -44 37 -44c5 0 13 5 22 13l17 16l77 73c17 15 24 22 52 50l75 78c89 91 136 135 219 200c17 14 25 16 46 16s27 -6 27 -25v-14v-82c-2 -4 -11 -15 -27 -30c-12 -11 -17 -17 -58 -62l-84 -96
c-46 -52 -99 -107 -161 -166l-148 -141c-83 -78 -117 -103 -140 -103c-3 0 -7 0 -12 1l-13 2c-12 3 -52 29 -73 48c-34 30 -37 36 -39 67c-1 14 -1 18 -5 48c-2 24 -5 48 -9 73c-4 31 -6 60 -6 82c0 5 0 11 1 18l2 46c2 21 3 23 18 42l25 31c24 29 51 41 90 41z" />
    <glyph glyph-name="a21" unicode="5" horiz-adv-x="762" 
d="M727 633l-288 -286l288 -288l-59 -59l-287 289l-287 -289l-59 59l288 288l-288 286l59 59l287 -288l287 288z" />
    <glyph glyph-name="a22" unicode="6" horiz-adv-x="761" 
d="M727 518l-174 -171l174 -173l-174 -174l-172 174l-172 -174l-174 174l174 173l-174 171l174 174l172 -174l172 174z" />
    <glyph glyph-name="a23" unicode="7" horiz-adv-x="571" 
d="M374 367c14 -26 23 -44 26 -50l42 -88c32 -69 33 -71 41 -91c-4 -7 -6 -10 -15 -14v-7c-4 -4 -8 -6 -10 -8c-6 -4 -10 -8 -10 -10c0 -1 1 -2 1 -4c3 -4 4 -7 4 -9c0 -3 -4 -9 -10 -14c-7 -6 -16 -11 -22 -11c-8 0 -13 6 -32 34l-43 63c-19 27 -33 50 -58 92
c-30 -43 -49 -72 -89 -132c-49 -75 -66 -102 -109 -175c-10 -7 -34 -12 -52 -12c-7 0 -10 1 -15 10l-17 27c-3 5 -5 10 -5 15c0 2 1 5 2 8c3 10 5 17 5 19c0 1 -1 4 -2 7c-5 10 -7 17 -7 18c0 5 6 16 16 28c4 6 17 28 36 63c12 22 37 56 73 100l86 107c1 1 9 10 20 23
c-5 14 -9 24 -11 29l-35 94l-32 93l-6 16c-1 2 -1 3 -1 3c0 5 7 18 13 25c5 6 10 9 15 9c4 0 8 -2 16 -7c3 1 6 1 8 1c1 0 4 0 8 -1l6 6l6 8c2 2 5 3 8 3c5 0 9 -2 12 -7l40 -82l35 -65c1 -1 3 -6 7 -14c9 12 15 20 17 22l65 75c46 54 76 88 80 92c3 2 6 4 7 4
c5 0 22 -10 35 -20c4 3 6 5 7 6l10 11c2 1 4 3 4 3h1c1 0 2 -2 6 -8c2 -3 3 -6 4 -7l9 -10c3 -3 6 -7 7 -11c0 -1 1 -1 1 -1c0 -3 -2 -4 -12 -16c-35 -39 -121 -150 -186 -240z" />
    <glyph glyph-name="a24" unicode="8" horiz-adv-x="677" 
d="M411 345c46 -60 53 -69 114 -145c16 -19 22 -27 34 -38c-5 -27 -10 -35 -37 -55c-12 -10 -16 -13 -16 -14v-1l3 -11l-7 -7l-18 -15s-1 -1 -3 -2c-1 -1 -2 -1 -3 -1c-2 0 -6 2 -10 5c-3 3 -7 6 -10 8s-5 3 -6 3c0 1 -1 1 -2 1c0 0 -1 0 -3 -2c-21 -22 -33 -32 -39 -32
c-1 0 -4 1 -7 3c-28 29 -41 46 -68 86c-25 37 -30 45 -45 64c-6 -8 -10 -13 -10 -14l-69 -90c-6 -8 -8 -11 -26 -34c-12 -17 -25 -35 -37 -52l-11 -16h-13l-19 21c0 4 1 6 2 8c1 3 1 5 1 6s-1 3 -2 4s-3 2 -3 2c-5 0 -10 -2 -18 -6c-1 0 -3 -1 -6 -3c-7 4 -7 3 -25 30
l-10 15c-2 3 -3 5 -3 7s2 5 5 9c5 7 7 13 7 18c0 2 0 4 -1 6l-9 17c-1 3 -3 8 -5 15c28 37 49 64 76 95l82 94s3 4 8 10c-23 40 -39 71 -66 131c-30 64 -43 98 -51 131c13 21 18 27 37 44c7 -5 12 -10 15 -13c4 -4 7 -6 8 -6c6 0 12 7 13 15c2 18 11 28 24 28
c8 0 12 -3 20 -12c49 -79 73 -116 108 -166l13 -17c70 78 105 114 209 215c15 14 22 21 24 21c1 0 3 -1 7 -4c12 -9 26 -22 30 -27c1 -2 0 -5 -3 -8l-2 -4c0 -1 1 -2 2 -4c2 -2 3 -4 4 -5l10 -6c1 -1 2 -1 2 -1l15 2h1c1 -1 3 -4 5 -8c3 -5 8 -13 15 -22
c-2 -7 -3 -9 -10 -18c-3 -3 -4 -5 -4 -7c0 -1 1 -2 2 -4l-14 -14c-67 -69 -140 -150 -197 -220z" />
    <glyph glyph-name="a25" unicode="9" horiz-adv-x="763" 
d="M462 659h-161v-231h-231v-161h231v-231h161v231h231v161h-231v231zM497 694v-231h231v-232h-231v-230h-232v230h-230v232h230v231h232zM428 624v-230h230v-92h-230v-231h-92v231h-231v92h231v230h92z" />
    <glyph glyph-name="a26" unicode=":" horiz-adv-x="760" 
d="M496 691v-230h230v-231h-230v-230h-231v230h-230v231h230v230h231z" />
    <glyph glyph-name="a27" unicode=";" horiz-adv-x="759" 
d="M435 400h290v-110h-290v110zM435 400h-110v-110h-290v110h290v290h110v-290zM435 290v-290h-110v290h110z" />
    <glyph glyph-name="a28" unicode="&#x3c;" horiz-adv-x="754" 
d="M482 447h238v-209h-238v209zM482 447h-209v-209h-238v209h238v238h209v-238zM482 238v-238h-209v238h209z" />
    <glyph glyph-name="a6" unicode="=" horiz-adv-x="494" 
d="M202 691h91v-181h167v-92h-167v-418h-91v418h-167v92h167v181z" />
    <glyph glyph-name="a7" unicode="&#x3e;" horiz-adv-x="552" 
d="M205 667v-147h-146v-94h146v-355h93v355h141v94h-141v147h-93zM181 691h117l76 -71v-77h65l78 -69v-123h-143v-351h-107l-86 71v280h-56l-90 75v117h146v148z" />
    <glyph glyph-name="a8" unicode="?" horiz-adv-x="537" 
d="M201 666v-152h-141v-135h141v-354h141v354h136v135h-136v152h-141zM176 690h191v-151h136v-185h-136v-354h-191v354h-141v185h141v151zM225 641h91v-152h137v-85h-137v-354h-91v354h-140v85h140v152z" />
    <glyph glyph-name="a9" unicode="@" horiz-adv-x="577" 
d="M105 595h366v-22c-104 -2 -163 -77 -163 -208c6 0 11 1 14 1c73 2 106 13 145 50c34 30 47 61 51 113h24v-367h-24v1c0 93 -79 163 -184 163c-7 0 -16 0 -26 -1v-11c0 -115 65 -193 163 -195v-23h-366v23c102 2 160 71 163 192v14h-14c-115 0 -189 -62 -195 -163h-24v367
h24c0 -98 77 -164 189 -164h20c1 128 -56 200 -163 208v22z" />
    <glyph glyph-name="a10" unicode="A" horiz-adv-x="692" 
d="M158 384l60 104h-119zM220 202l-62 105l-61 -105h123zM411 169h-124l59 -108zM534 307l-60 -105h119zM473 488l61 -104l60 104h-121zM346 630l-63 -109h125zM262 488l-82 -142l82 -144h168l82 144l-82 142h-168zM346 702l105 -181h206l-102 -175l102 -177h-206l-105 -183
l-106 183h-205l102 177l-102 175h205z" />
    <glyph glyph-name="a29" unicode="B" horiz-adv-x="786" 
d="M410 361l13 2c47 6 79 14 114 25l72 23c16 6 34 8 53 8c51 0 89 -33 89 -77c0 -43 -37 -74 -87 -74c-18 0 -36 3 -52 8l-76 26c-46 15 -88 24 -126 27c2 -33 12 -79 24 -117l24 -78c7 -22 11 -42 11 -61c0 -47 -34 -86 -75 -86c-43 0 -76 37 -76 86c0 20 3 40 10 59
l26 80c2 7 4 15 11 43c5 23 8 34 9 43c3 14 3 18 3 31c-28 -2 -86 -14 -123 -26l-73 -23c-20 -6 -40 -10 -60 -10c-48 0 -86 35 -86 77s38 75 85 75c19 0 37 -3 54 -8l82 -28c31 -11 56 -16 106 -23l15 -2c-2 33 -12 80 -30 137l-21 68c-5 17 -8 34 -8 52c0 47 35 87 77 87
s75 -38 75 -87c0 -26 0 -26 -31 -119c-19 -59 -28 -104 -29 -138z" />
    <glyph glyph-name="a30" unicode="C" 
d="M386 408c-1 5 -1 9 -1 12c-1 58 -6 72 -39 98c-35 29 -50 55 -50 89c0 52 44 96 98 96c53 0 97 -43 97 -96c0 -34 -15 -60 -50 -89c-32 -26 -38 -40 -39 -98v-12c33 -7 48 -22 55 -56c5 0 9 0 12 1c58 1 72 6 98 39c29 35 54 50 89 50c52 0 96 -44 96 -97
c0 -54 -44 -98 -97 -98c-34 0 -59 14 -88 50c-26 32 -40 38 -98 39h-12c-7 -33 -22 -48 -55 -55v-12c1 -58 7 -72 39 -98c36 -29 50 -55 50 -89c0 -52 -44 -96 -97 -96s-98 44 -98 96c0 34 14 60 50 89c33 26 38 40 39 98v12c-33 7 -48 22 -55 55h-12c-58 -1 -72 -7 -98 -39
c-29 -36 -55 -50 -88 -50c-53 0 -97 44 -97 97s44 98 96 98c34 0 60 -15 89 -50c26 -33 40 -38 98 -39c3 -1 7 -1 12 -1c7 34 22 49 56 56z" />
    <glyph glyph-name="a31" unicode="D" 
d="M412 363c36 1 66 17 99 53l16 17c24 27 60 43 97 43c71 0 129 -58 129 -130s-57 -129 -129 -129c-42 0 -71 14 -110 55c-40 43 -65 57 -102 58c1 -34 18 -66 51 -98l24 -23c25 -24 40 -59 40 -93c0 -71 -58 -130 -130 -130c-71 0 -130 60 -130 130c0 43 13 68 58 110
c36 34 54 66 54 97v7c-47 -6 -60 -14 -117 -73c-29 -29 -58 -42 -95 -42c-71 0 -132 61 -132 132c0 70 59 129 130 129c38 0 70 -15 101 -46c58 -60 70 -67 113 -67c-3 36 -19 66 -58 103c-41 40 -56 69 -56 110c0 70 59 128 130 128c72 0 130 -57 130 -128
c0 -42 -16 -73 -55 -109c-43 -40 -54 -60 -58 -104z" />
    <glyph glyph-name="a32" unicode="E" horiz-adv-x="790" 
d="M413 336v-142c18 12 32 16 50 16c36 0 62 -26 62 -62c0 -38 -25 -63 -68 -68c7 -13 9 -19 9 -29c0 -35 -31 -65 -67 -65s-66 29 -66 65c0 10 2 16 7 29c-43 3 -70 29 -70 67c0 37 26 63 62 63c18 0 31 -4 48 -17v143h-137c12 -19 17 -33 17 -52c0 -34 -29 -63 -62 -63
c-36 0 -62 27 -68 70c-13 -7 -20 -8 -30 -8c-35 0 -65 29 -65 63c0 33 29 60 64 60c10 0 18 -1 31 -6c3 46 25 70 65 70c36 0 66 -29 66 -64c0 -16 -5 -27 -18 -46h137v139c-17 -12 -30 -17 -48 -17c-37 0 -64 29 -64 67c0 37 24 58 72 64c-6 22 -8 29 -8 39
c0 29 31 55 64 55c37 0 68 -30 68 -67c0 -10 -2 -16 -7 -27c40 -5 67 -31 67 -67s-27 -65 -62 -65c-15 0 -27 4 -49 18v-139h140c-15 17 -20 30 -20 49c0 35 28 62 64 62c34 0 55 -22 66 -71c16 7 24 9 36 9c33 0 57 -26 57 -62c0 -38 -25 -63 -61 -63c-11 0 -19 1 -32 7
c-7 -45 -30 -68 -66 -68c-35 0 -64 28 -64 63c0 18 5 31 20 50h-140z" />
    <glyph glyph-name="a33" unicode="F" horiz-adv-x="793" 
d="M395 705c4 0 7 -5 9 -12l3 -18c28 -131 194 -286 341 -320c8 -2 11 -4 11 -8c0 -5 -3 -8 -12 -10c-85 -19 -158 -61 -224 -130c-62 -66 -108 -143 -125 -210c-2 -7 -4 -10 -8 -10c-3 0 -6 3 -7 10c-16 77 -61 158 -123 217c-59 56 -152 112 -214 128c-7 2 -11 5 -11 9
s3 7 12 9c76 19 155 65 207 119c68 72 118 152 133 215c2 7 4 11 8 11z" />
    <glyph glyph-name="a34" unicode="G" horiz-adv-x="794" 
d="M392 663c-30 -144 -38 -170 -76 -240c-69 -36 -105 -47 -247 -74c155 -33 176 -39 247 -77c35 -64 48 -107 76 -239c25 133 38 175 75 239c65 35 86 42 203 66c10 2 27 6 48 11c-145 25 -177 35 -251 74c-37 69 -49 108 -75 240zM401 705c23 -87 63 -155 131 -222
c67 -65 122 -96 227 -125v-19c-176 -43 -308 -172 -358 -353h-17c-41 172 -166 299 -349 353v19c176 51 296 171 349 347h17z" />
    <glyph glyph-name="a35" unicode="H" horiz-adv-x="816" 
d="M409 707l85 -270h288l-231 -174l89 -276l-231 170l-230 -170l90 276l-234 174h287z" />
    <glyph glyph-name="a36" unicode="I" horiz-adv-x="823" 
d="M414 687l-65 -262l-279 18l235 -154l-100 -257l209 184l213 -184l-106 257l232 154l-278 -18zM414 719l98 -242l275 -22l-207 -184l70 -269l-236 151l-230 -151l60 269l-209 184l276 22z" />
    <glyph glyph-name="a37" unicode="J" horiz-adv-x="789" 
d="M394 680l-75 -224h-242l191 -146l-79 -234l205 146l194 -146l-72 234l198 146h-244zM395 706c198 0 359 -161 359 -359c0 -199 -161 -360 -359 -360c-199 0 -360 161 -360 360c0 198 161 359 360 359z" />
    <glyph glyph-name="a38" unicode="K" horiz-adv-x="841" 
d="M414 419c-59 0 -107 -48 -107 -107s48 -107 107 -107s106 48 106 107s-47 107 -106 107zM413 706l82 -292l312 12l-265 -156l113 -284l-242 191l-232 -191l104 284l-250 156l295 -12z" />
    <glyph glyph-name="a39" unicode="L" horiz-adv-x="823" 
d="M68 430l239 -155c-5 19 -7 35 -7 48c0 28 18 59 50 88zM628 19l-104 255c-26 -48 -55 -68 -109 -75zM756 430l-277 -19c35 -30 51 -61 51 -97c0 -13 -1 -23 -6 -38zM415 672l-63 -261c22 12 38 16 61 16c22 0 39 -4 63 -16zM415 706l99 -244l275 -21l-209 -184l69 -269
l-234 151l-233 -151l64 269l-211 184l278 21zM415 199c-50 3 -79 23 -107 75l-103 -259z" />
    <glyph glyph-name="a40" unicode="M" horiz-adv-x="833" 
d="M417 632l-88 -228h-218l168 -133l-61 -220l199 131l198 -131l-70 220l176 133h-215zM417 706l107 -278h274l-222 -167l90 -275l-249 163l-246 -163l77 275l-213 167h277zM417 551l69 -177h146l-122 -92l55 -164l-148 98l-151 -98l45 163l-116 93h155z" />
    <glyph glyph-name="a41" unicode="N" horiz-adv-x="816" 
d="M410 595l-72 -183l-191 -12l145 -113l-53 -205l171 116l167 -116l-50 205l147 113l-190 12zM520 462l254 -27c6 0 8 -2 8 -6c0 -3 -1 -4 -4 -7l-193 -156l59 -269v-3c0 -4 -2 -7 -5 -7c-2 0 -4 1 -6 2l-223 147l-226 -143c-2 -2 -4 -2 -6 -2s-5 3 -5 6v4l61 265l-195 156
c-2 2 -4 5 -4 6c0 4 3 7 8 7l258 27l102 238c2 4 4 5 7 5c4 0 5 -1 7 -5zM410 489l45 -117h120l-93 -71l34 -130l-106 77l-110 -77l37 130l-88 71h116z" />
    <glyph glyph-name="a42" unicode="O" horiz-adv-x="831" 
d="M420 707l95 -274h281l-221 -165l101 -281l-256 176l-249 -176l96 281l-232 165h288zM420 315l-333 99l204 -146zM420 315l-213 -283l213 153v130zM420 316l321 98h-243zM420 316l222 -284l-90 236zM420 316v339l-82 -241z" />
    <glyph glyph-name="a43" unicode="P" horiz-adv-x="923" 
d="M416 669l-81 -246h-238l190 -141l-81 -239l210 152l201 -152l-75 239l203 141h-247zM407 706l123 -19l82 -245h213l63 -19l-215 -153l90 -260h-133l-146 107l-178 -130l-131 23l86 260l-226 172h284z" />
    <glyph glyph-name="a44" unicode="Q" horiz-adv-x="744" 
d="M448 691v-223l184 118l78 -133l-197 -109l197 -110l-78 -132l-184 117v-219h-150v219l-185 -117l-78 132l197 110l-197 109l78 133l185 -118v223h150z" />
    <glyph glyph-name="a45" unicode="R" horiz-adv-x="723" 
d="M633 125l-210 122l54 95l211 -122zM90 565l210 -121l-54 -95l-211 122zM35 220l211 122l54 -95l-210 -122zM688 471l-211 -122l-54 95l210 121zM307 0v243h109v-243h-109zM416 691v-243h-109v243h109z" />
    <glyph glyph-name="a46" unicode="S" horiz-adv-x="749" 
d="M397 691l-12 -320l215 230l31 -31l-234 -212l317 13v-43h-317l234 -210l-31 -32l-215 229l12 -315h-49l14 315l-206 -229l-37 32l229 210h-313v43l313 -13l-229 212l27 31l216 -230l-14 320h49z" />
    <glyph glyph-name="a47" unicode="T" horiz-adv-x="790" 
d="M358 421l22 281c0 2 3 4 7 4c3 0 6 -3 6 -7l29 -278l219 186c0 1 2 1 3 1c4 0 8 -3 8 -6c0 -2 -1 -5 -3 -7l-180 -218l282 -22c3 0 5 -3 5 -7s-3 -7 -7 -8l-280 -26l173 -215c0 -1 1 -3 1 -4c0 -3 -3 -7 -6 -7c-2 0 -4 1 -6 3l-209 178l-22 -279c0 -2 -4 -5 -7 -5
c-4 0 -7 3 -7 8l-28 276l-215 -178c-1 -1 -2 -2 -4 -2c-3 0 -7 4 -7 7c0 2 1 4 3 7l177 211l-273 21c-3 1 -5 4 -5 7c0 4 3 6 7 7l271 28l-180 215c-1 1 -1 2 -1 3c0 4 3 8 5 8c3 0 5 -1 7 -3z" />
    <glyph glyph-name="a48" unicode="U" horiz-adv-x="792" 
d="M279 395l106 -39l-215 217zM276 295l104 49l-313 -3zM348 223l42 111l-223 -224zM446 223l-46 108v-309zM517 295l-104 39l215 -213zM524 395l-109 -46h304zM453 466l-43 -107l220 219zM351 468l49 -107v309zM405 705l47 -218l203 123l7 -8l-125 -192l221 -54v-12
l-217 -49l117 -195l-9 -8l-188 119l-56 -225h-11l-46 216l-200 -118l-8 8l119 189l-224 53v10l224 51l-119 203l8 7l188 -121l58 221h11z" />
    <glyph glyph-name="a49" unicode="V" horiz-adv-x="695" 
d="M466 345l192 -174c2 -1 3 -3 3 -4c0 -3 -2 -5 -4 -5c-1 0 -2 0 -4 1l-246 80l-54 -254c-1 -3 -2 -5 -5 -5c-2 0 -4 2 -5 5l-54 254l-246 -80c-2 -1 -3 -1 -4 -1c-2 0 -4 2 -4 4s1 4 3 5l192 174l-192 173c-2 2 -3 4 -3 5c0 2 2 4 5 4h3l246 -80l54 253c1 4 3 6 5 6
s4 -2 5 -6l54 -253l246 80h3c3 0 5 -1 5 -4c0 -2 -1 -3 -3 -5z" />
    <glyph glyph-name="a50" unicode="W" horiz-adv-x="776" 
d="M490 456l242 44h3c3 0 6 -3 6 -6c0 -2 -1 -4 -4 -6l-203 -142l203 -142c2 -2 4 -4 4 -6c0 -4 -3 -7 -6 -7c0 0 -1 0 -3 1l-242 48l43 -237c1 -1 1 -2 1 -3c0 -4 -3 -7 -5 -7s-5 1 -7 4l-136 195l-137 -196c-2 -2 -4 -4 -6 -4c0 0 -1 1 -2 1c-2 1 -3 2 -3 3v3l-1 1l1 1
l43 239l-236 -39h-4c-3 0 -6 2 -6 5s1 5 5 7l198 133l-196 141c-2 2 -4 5 -4 7c0 3 3 6 6 6h3l234 -44l-43 233l-1 1l1 1v4s1 1 2 1c1 1 2 2 3 2c2 0 5 -2 6 -4l137 -194l132 191c2 3 5 4 8 4c4 0 8 -3 8 -6c0 0 0 -1 -1 -3z" />
    <glyph glyph-name="a51" unicode="X" horiz-adv-x="768" 
d="M531 698l-14 -217l217 16l-167 -147l167 -146l-217 15l14 -226l-148 169l-145 -169l14 226l-217 -15l168 146l-168 147l217 -16l-14 217l145 -168z" />
    <glyph glyph-name="a52" unicode="Y" horiz-adv-x="792" 
d="M583 672l-49 -175l174 44l-125 -130l174 -50l-174 -54l125 -131l-174 46l49 -175l-140 129l-50 -177l-45 177l-131 -129l45 175l-176 -46l131 131l-182 54l182 50l-131 130l176 -44l-45 175l131 -131l45 179l50 -179z" />
    <glyph glyph-name="a53" unicode="Z" horiz-adv-x="759" 
d="M364 693h33v-269l96 250l35 -14l-107 -248l189 193l27 -27l-193 -189l247 107l15 -35l-251 -99h270v-33h-270l251 -97l-15 -36l-247 110l193 -191l-27 -27l-189 197l107 -251l-35 -14l-96 255v-275h-33v275l-97 -255l-36 14l106 251l-187 -197l-27 27l195 191l-250 -110
l-14 36l254 97h-273v33h273l-254 99l14 35l250 -107l-195 189l27 27l187 -193l-106 248l36 14l97 -250v269z" />
    <glyph glyph-name="a54" unicode="[" horiz-adv-x="707" 
d="M354 243l1 -3l12 -26c27 -58 44 -125 44 -168c0 -34 -23 -57 -57 -57s-58 23 -58 56c0 52 17 112 56 195zM354 450l-2 3c-39 83 -56 143 -56 195c0 33 24 56 57 56c35 0 58 -23 58 -57c0 -44 -17 -110 -44 -168l-12 -26zM354 431c46 0 84 -38 84 -84
c0 -47 -38 -85 -84 -85c-47 0 -85 38 -85 85c0 46 38 84 85 84zM443 295l4 -1c84 -6 136 -19 186 -43c28 -13 39 -29 39 -52c0 -32 -27 -62 -57 -62c-38 0 -108 64 -170 155zM264 398h-3c-83 7 -137 20 -186 44c-28 13 -40 29 -40 52c0 32 28 62 58 62
c34 0 101 -58 152 -131l17 -24zM443 398l2 3c63 91 132 155 170 155c30 0 57 -30 57 -62c0 -23 -11 -38 -35 -51c-50 -25 -106 -38 -190 -45h-4zM264 295l-2 -3l-17 -24c-51 -73 -119 -131 -152 -131c-30 0 -58 30 -58 62c0 22 11 38 36 51c49 24 105 38 190 44z" />
    <glyph glyph-name="a55" unicode="\" horiz-adv-x="708" 
d="M354 419c-40 0 -73 -33 -73 -74s33 -74 73 -74s73 33 73 74s-32 74 -73 74zM270 266c-11 0 -36 -20 -61 -49c-55 -62 -81 -80 -116 -80c-31 0 -58 26 -58 55c0 48 35 72 135 91c49 10 75 23 75 36c0 2 -1 6 -2 11c-1 4 -1 9 -1 15s0 11 1 14c1 6 2 10 2 12
c0 13 -26 25 -75 35c-100 20 -135 44 -135 92c0 29 27 55 57 55c36 0 61 -17 116 -80c26 -28 51 -49 60 -49c4 0 10 4 17 9c9 7 18 13 25 15c16 5 19 9 19 23s-4 32 -14 64c-17 51 -22 75 -22 98c0 39 27 71 60 71c35 0 61 -30 61 -71c0 -26 -7 -56 -22 -98
c-10 -26 -14 -47 -14 -63c0 -14 4 -20 18 -24c7 -2 16 -8 25 -15c7 -5 14 -9 17 -9c11 0 37 21 61 49c54 62 80 80 116 80c31 0 57 -25 57 -54c0 -50 -34 -73 -134 -93c-51 -9 -75 -22 -75 -37c0 -1 0 -5 1 -10c1 -3 1 -8 1 -14s0 -11 -1 -15s-1 -8 -1 -9
c0 -15 24 -28 75 -37c99 -20 134 -43 134 -92c0 -30 -26 -55 -57 -55c-36 0 -63 18 -116 80c-24 28 -50 49 -60 49c-4 0 -11 -4 -18 -9c-9 -7 -18 -13 -25 -15c-14 -4 -18 -10 -18 -24c0 -16 5 -37 14 -63c15 -42 22 -72 22 -98c0 -41 -26 -71 -61 -71c-33 0 -60 32 -60 70
c0 24 6 50 22 99c11 32 15 50 15 64c0 15 -3 18 -19 23c-7 3 -15 8 -25 15c-8 7 -13 9 -16 9z" />
    <glyph glyph-name="a56" unicode="]" horiz-adv-x="682" 
d="M351 327v-3c0 -46 8 -72 50 -172c11 -28 17 -52 17 -71c0 -37 -27 -66 -77 -84c-50 18 -77 47 -77 84c0 19 6 43 18 71c40 96 49 127 49 172v3l-3 -1c-40 -23 -60 -44 -125 -129c-33 -44 -57 -59 -89 -59c-28 0 -45 8 -75 33c-3 15 -4 28 -4 37c0 52 36 83 109 92
c97 13 125 19 159 36l14 8l3 1l-3 2c-40 23 -68 30 -173 44c-73 9 -109 39 -109 91c0 10 1 23 4 38c30 25 48 33 75 33c33 0 56 -16 89 -59c65 -85 85 -106 125 -129l3 -2v4c0 44 -10 76 -49 172c-12 28 -18 52 -18 71c0 36 27 66 77 84c50 -18 77 -47 77 -84
c0 -19 -6 -43 -17 -71c-42 -100 -50 -127 -50 -172v-4l3 2c40 23 60 44 125 129c33 43 56 59 89 59c28 0 45 -8 75 -33c3 -15 4 -28 4 -37c0 -52 -36 -83 -109 -92c-104 -14 -135 -22 -173 -44l-3 -2l3 -1c42 -24 67 -30 173 -44c73 -9 109 -40 109 -92c0 -10 -1 -22 -4 -37
c-30 -25 -47 -33 -75 -33c-32 0 -56 15 -89 59c-67 87 -82 103 -125 128z" />
    <glyph glyph-name="a57" unicode="^" horiz-adv-x="701" 
d="M386 317l106 -123c23 -26 54 -44 78 -44c26 0 44 7 72 28c1 11 2 21 2 29c0 50 -35 89 -88 97l-161 27zM315 317l-9 14l-161 -27c-52 -8 -88 -48 -88 -96c0 -8 1 -19 2 -30c28 -21 47 -28 72 -28s54 16 78 44zM350 685c-49 -18 -70 -46 -70 -94c0 -16 2 -32 8 -48
l54 -153h17l54 153c5 15 8 32 8 48c0 48 -21 76 -71 94zM350 370c-12 0 -22 -10 -22 -23c0 -12 10 -22 22 -22c13 0 23 10 23 22c0 13 -10 23 -23 23zM350 708c74 -33 105 -65 105 -107c0 -21 -6 -44 -17 -68l-65 -143l99 125c25 31 64 51 98 51c23 0 50 -10 94 -33
c1 -20 2 -37 2 -52c0 -69 -36 -107 -109 -115l-162 -19l162 -18c73 -9 109 -47 109 -116c0 -15 -1 -31 -2 -51c-42 -21 -73 -33 -88 -33c-35 0 -81 23 -104 51l-99 125l65 -143l5 -12c8 -16 11 -33 11 -51c0 -47 -29 -78 -104 -112c-74 34 -104 65 -104 110c0 18 5 37 13 56
l4 9l65 143l-99 -125c-22 -27 -70 -51 -103 -51c-17 0 -47 11 -89 33c-1 19 -2 37 -2 51c0 69 36 107 109 116l162 18l-162 19c-73 8 -109 47 -109 115c0 15 1 32 2 52c44 23 71 33 95 33c34 0 72 -20 97 -51l99 -125l-65 143c-11 24 -17 48 -17 68c0 42 32 74 104 107z" />
    <glyph glyph-name="a58" unicode="_" horiz-adv-x="826" 
d="M413 444c-65 0 -117 -53 -117 -117s53 -117 117 -117s117 53 117 117c0 65 -52 117 -117 117zM413 165c-6 0 -11 -5 -11 -10c0 -1 1 -3 1 -6c2 -6 3 -12 3 -17c0 -81 -62 -150 -133 -150c-77 0 -151 69 -151 142c0 63 66 136 124 139c8 0 13 3 13 9c0 7 -5 13 -11 13
c-3 0 -4 -1 -8 -4c-15 -9 -37 -14 -69 -14c-80 0 -136 53 -136 129c0 84 60 151 133 151c51 0 118 -41 132 -81c3 -7 5 -10 11 -10s11 6 11 12c0 4 -1 6 -6 10c-23 17 -43 69 -43 109c0 75 58 129 140 129s140 -54 140 -129c0 -41 -20 -91 -43 -109c-5 -4 -6 -7 -6 -10
c0 -6 5 -12 11 -12c5 0 8 3 11 10c14 40 81 81 132 81c73 0 133 -67 133 -151c0 -76 -56 -129 -136 -129c-32 0 -54 5 -69 14c-4 3 -6 4 -8 4c-6 0 -11 -6 -11 -12s5 -10 13 -10c58 -3 124 -76 124 -139c0 -73 -74 -142 -151 -142c-71 0 -133 70 -133 149c0 6 1 11 3 18
c1 2 1 5 1 6c0 5 -5 10 -11 10z" />
    <glyph glyph-name="a59" unicode="`" horiz-adv-x="815" 
d="M292 257c-79 -29 -121 -76 -121 -136c0 -51 41 -92 92 -92c69 0 117 65 120 162l-34 8l-67 -68c-4 -4 -8 -6 -11 -6c-4 0 -8 4 -8 7c0 2 2 6 4 10l46 92zM312 411c-44 55 -82 77 -137 77c-51 0 -94 -41 -94 -91c0 -60 57 -106 132 -106c19 0 32 3 64 12l-2 35l-86 43
c-6 3 -10 7 -10 10c0 5 4 8 9 8h1h2h4l94 -16zM523 257l-19 -30l44 -85c3 -4 4 -7 4 -9c0 -5 -4 -8 -8 -8c-3 0 -7 2 -11 6l-67 68l-34 -8c3 -97 51 -162 120 -162c51 0 92 41 92 92c0 60 -42 107 -121 136zM503 411l23 -28l94 16h4h2c6 0 10 -2 10 -8c0 -3 -3 -7 -10 -10
l-86 -43l-2 -35c32 -9 45 -12 63 -12c76 0 133 46 133 106c0 50 -42 91 -94 91c-54 0 -94 -22 -137 -77zM384 452l14 95c1 8 4 13 9 13c6 0 9 -5 10 -13l14 -95l33 -13c30 45 39 69 39 109c0 64 -40 110 -96 110c-55 0 -95 -46 -95 -110c0 -40 9 -65 39 -109zM315 447
c-28 61 -37 92 -37 126c0 74 57 132 129 132c73 0 130 -58 130 -132c0 -35 -9 -64 -37 -126c67 62 103 81 151 81c71 0 129 -58 129 -128c0 -81 -61 -134 -155 -134c-17 0 -34 1 -68 6c97 -55 130 -95 130 -158c0 -72 -58 -130 -130 -130c-44 0 -85 23 -111 62
c-17 28 -26 54 -39 117c-12 -60 -20 -86 -36 -113c-25 -42 -67 -66 -113 -66c-72 0 -130 58 -130 129c0 64 33 104 130 159c-34 -5 -51 -6 -68 -6c-94 0 -155 53 -155 134c0 70 58 128 129 128c48 0 84 -19 151 -81z" />
    <glyph glyph-name="a60" unicode="a" horiz-adv-x="789" 
d="M496 281l95 -60c18 -11 28 -30 28 -50c0 -28 -22 -50 -50 -50c-20 0 -40 11 -50 28l-60 95l-10 -7l46 -103c13 -29 42 -47 74 -47c46 0 84 38 84 83c0 33 -18 61 -47 74l-104 46zM511 371l110 25c4 1 8 2 13 2c32 0 58 -23 58 -53c0 -29 -25 -53 -58 -53c-4 0 -9 1 -13 2
l-110 25l-2 -12l106 -40c9 -4 19 -5 28 -5c46 0 82 37 82 83s-36 83 -82 83c-10 0 -19 -2 -28 -5l-106 -40zM459 446l60 95c11 18 30 29 50 29c28 0 50 -22 50 -50c0 -20 -11 -40 -28 -51l-95 -60l6 -9l104 46c29 13 47 41 47 74c0 46 -38 84 -84 84c-32 0 -60 -18 -74 -48
l-46 -103zM368 462l-25 109c-1 6 -1 11 -1 15c0 31 23 56 52 56c30 0 53 -25 53 -57c0 -5 0 -9 -1 -14l-25 -109l11 -2l41 106c3 9 5 18 5 28c0 45 -37 82 -83 82c-47 0 -84 -37 -84 -83c0 -9 2 -19 5 -27l41 -106zM293 409l-95 60c-17 11 -28 31 -28 50c0 29 22 51 50 51
c20 0 39 -11 51 -29l59 -95l10 7l-46 103c-14 30 -42 48 -74 48c-46 0 -84 -38 -84 -84c0 -33 18 -61 47 -74l104 -46zM278 319l-110 -25c-4 -1 -9 -2 -13 -2c-32 0 -58 24 -58 53s26 53 58 53c4 0 9 -1 13 -2l110 -25l2 12l-106 40c-9 3 -19 5 -28 5c-45 0 -82 -37 -82 -83
s37 -83 82 -83c9 0 19 1 28 5l106 40zM330 244l-60 -95c-10 -17 -30 -28 -50 -28c-28 0 -50 22 -50 50c0 20 11 39 28 50l95 60l-6 9l-104 -46c-29 -13 -47 -41 -47 -73c0 -46 38 -84 84 -84c32 0 61 18 74 47l46 103zM421 228l25 -109c1 -5 1 -9 1 -14
c0 -32 -23 -57 -53 -57c-29 0 -52 25 -52 56c0 5 0 10 1 15l25 109l-11 2l-41 -106c-3 -8 -5 -18 -5 -27c0 -46 38 -83 84 -83c45 0 83 37 83 82c0 10 -2 19 -5 28l-41 106zM395 435c-50 0 -91 -40 -91 -90c0 -49 41 -90 91 -90c49 0 90 40 90 90s-40 90 -90 90zM654 233
c17 -28 26 -54 26 -72c0 -47 -58 -102 -106 -102c-17 0 -36 7 -69 24c-19 -65 -55 -97 -110 -97c-56 0 -92 32 -111 97c-33 -17 -52 -24 -69 -24c-48 0 -105 55 -105 102c0 18 8 44 25 72c-70 18 -100 51 -100 112s30 94 100 112c-17 28 -26 54 -26 73c0 46 58 102 106 102
c17 0 37 -7 69 -25c19 65 55 97 110 97c56 0 92 -32 111 -97c32 18 52 25 69 25c48 0 106 -56 106 -102c0 -19 -9 -45 -26 -73c70 -17 100 -51 100 -112s-30 -94 -100 -112z" />
    <glyph glyph-name="a61" unicode="b" horiz-adv-x="789" 
d="M393 517c-94 0 -170 -77 -170 -171c0 -96 77 -173 173 -173c94 0 170 76 170 171c0 96 -77 173 -173 173zM642 98l-68 165c-20 -44 -54 -78 -97 -98zM147 592l68 -164c20 44 53 77 97 97zM45 345l164 -69c-9 24 -12 42 -12 69s3 46 12 69zM744 345l-164 69
c9 -24 12 -42 12 -69s-3 -45 -12 -69zM147 98l165 67c-43 20 -77 54 -97 98zM642 592l-165 -67c44 -20 77 -53 97 -97zM394 -4l69 164c-25 -10 -43 -13 -68 -13c-26 0 -44 3 -69 13zM394 695l-68 -164c24 9 43 12 68 12c26 0 45 -3 69 -12zM395 704c198 0 359 -161 359 -359
s-161 -359 -359 -359s-360 161 -360 359s161 359 360 359z" />
    <glyph glyph-name="a62" unicode="c" horiz-adv-x="707" 
d="M326 374l-264 152c-8 -18 -12 -34 -12 -47c0 -25 26 -49 72 -67c42 -16 84 -24 204 -38zM326 343l-264 -153c22 -27 37 -38 54 -38c29 0 66 21 105 61c27 28 50 56 105 130zM353 327v-305c54 7 73 25 73 71c0 55 -17 110 -73 234zM382 343l263 -153c8 19 12 35 12 48
c0 25 -26 48 -72 66c-42 17 -86 25 -203 39zM382 374l263 152c-21 28 -37 39 -54 39c-29 0 -66 -21 -104 -61c-28 -29 -52 -58 -105 -130zM354 390v304c-54 -6 -73 -24 -73 -70c0 -55 17 -109 73 -234zM338 385c-58 130 -81 200 -81 248c0 39 31 65 97 84
c63 -20 88 -44 88 -84c0 -58 -20 -126 -72 -248c111 153 163 202 212 202c21 0 46 -15 83 -49c4 -22 6 -41 6 -57c0 -64 -76 -97 -286 -123c227 -24 288 -49 288 -115c0 -18 -3 -40 -8 -64c-34 -29 -59 -43 -76 -43c-51 0 -115 56 -219 196c58 -132 80 -200 80 -249
c0 -39 -30 -65 -97 -83c-63 20 -88 44 -88 84c0 58 19 123 73 248c-113 -154 -163 -202 -212 -202c-22 0 -47 15 -83 49c-5 22 -7 41 -7 57c0 64 76 96 286 122c-229 26 -288 49 -288 116c0 18 3 40 9 64c33 29 58 43 75 43c52 0 114 -55 220 -196z" />
    <glyph glyph-name="a63" unicode="d" horiz-adv-x="687" 
d="M378 344l139 -81l111 55l19 -26l-96 -48l100 -56l-19 -32l-98 58l7 -107l-33 4l-8 123l-139 81v-162l102 -68l-13 -30l-89 59l2 -114h-38l2 114l-90 -59l-13 30l103 68v162l-140 -81l-8 -123l-32 -4l6 107l-98 -58l-19 32l100 56l-96 48l19 26l111 -55l139 81l-139 81
l-111 -55l-19 26l96 48l-100 56l19 32l98 -59l-6 108l32 -4l8 -123l140 -81v162l-103 68l13 30l90 -59l-2 114h38l-2 -114l89 59l13 -30l-102 -68v-162l139 81l8 123l33 4l-7 -108l98 59l19 -32l-100 -56l96 -48l-19 -26l-111 55z" />
    <glyph glyph-name="a64" unicode="e" horiz-adv-x="696" 
d="M82 346l113 -65l115 65l-115 66zM215 116l114 65v132l-114 -66v-131zM481 116v131l-114 66v-132zM614 346l-113 66l-115 -66l115 -65zM481 577l-114 -65v-133l114 67v131zM215 577v-131l114 -67v133zM195 611l132 -75l-9 151c0 4 2 6 7 6h1h1l21 -4l21 4h1c6 0 8 -2 8 -6
l-10 -151l133 75v-152l126 84c2 1 3 1 4 1c2 0 5 -3 6 -6l7 -20l14 -17c4 -4 4 -8 -1 -10l-135 -68l131 -77l-131 -76l135 -68c2 0 4 -2 4 -4c0 -1 -1 -2 -1 -2c-1 -2 -1 -4 -2 -4l-14 -17l-7 -20c-1 -2 -2 -3 -3 -5c-2 -1 -3 -1 -3 -1c-1 0 -2 0 -4 1l-126 84v-152l-133 75
l10 -151c0 -3 -1 -5 -5 -6h-3h-1l-21 4l-21 -4h-1h-1h-2c-4 1 -5 3 -5 6l9 151l-132 -75v152l-126 -84c-2 -1 -3 -1 -3 -1c-2 0 -6 3 -7 6l-7 20l-14 17c-1 1 -2 2 -2 4c-1 1 -1 2 -1 3s1 2 4 3l135 68l-132 76l132 77l-135 68c-2 1 -4 3 -4 4v2c1 2 2 3 3 4l14 17l7 20
c1 3 4 6 7 6c0 0 1 0 3 -1l126 -84v152z" />
    <glyph glyph-name="a65" unicode="f" horiz-adv-x="689" 
d="M370 341l105 -62l158 34l22 -48l-99 -31l92 -49l-17 -29l-88 55l22 -102l-52 -4l-50 154l-105 59l-2 -121l109 -120l-30 -43l-77 70l4 -104h-34l4 104l-77 -70l-30 43l109 120l-2 121l-105 -59l-50 -154l-52 4l22 102l-88 -55l-17 29l92 49l-99 31l22 48l158 -34l105 62
l-105 61l-158 -34l-22 48l99 31l-92 49l17 30l88 -56l-22 102l52 4l50 -154l105 -59l2 121l-109 120l30 43l77 -70l-4 104h34l-4 -104l77 70l30 -43l-109 -120l2 -121l105 59l50 154l52 -4l-22 -102l88 56l17 -30l-92 -49l99 -31l-22 -48l-158 34z" />
    <glyph glyph-name="a66" unicode="g" horiz-adv-x="786" 
d="M34 345c5 34 17 50 37 50c103 0 166 -10 218 -33l16 -8c8 -3 13 -7 13 -9c0 -4 -5 -8 -28 -17c-61 -25 -91 -32 -150 -33l-53 -1l-17 -1c-11 0 -11 0 -20 13c-14 21 -16 27 -16 36v3zM751 345c0 -2 -2 -10 -5 -21c-2 -7 -5 -14 -9 -20c-5 -7 -12 -10 -23 -10
c-103 0 -164 9 -218 33c-22 10 -29 14 -29 17c0 4 6 8 28 17c61 25 92 32 150 33l60 1l10 1c17 0 33 -22 36 -51zM392 -14c-34 5 -51 17 -51 37c0 102 11 167 34 218l7 16c4 8 8 13 10 13c4 0 7 -5 17 -28c25 -60 32 -91 33 -150l1 -53l1 -16c0 -12 0 -13 -13 -21
c-21 -14 -27 -16 -36 -16h-3zM392 703c36 -6 51 -17 51 -37c0 -102 -10 -167 -33 -218l-7 -16c-4 -8 -8 -13 -10 -13c-4 0 -7 5 -17 28c-25 61 -31 90 -33 150l-1 54l-1 16c0 11 1 11 13 20c21 14 27 16 35 16h3zM391 404c34 0 60 -26 60 -59s-27 -60 -60 -60
c-32 0 -59 27 -59 60s26 59 59 59zM664 654c10 -19 15 -24 34 -35l-218 -205c-3 -1 -6 -1 -9 -1c-7 0 -9 3 -9 11v8zM121 35c-10 19 -15 24 -34 35l218 206c1 -1 2 -1 2 -1c1 0 3 1 5 1h2c6 0 9 -4 9 -12v-7zM702 73c-19 -10 -24 -15 -35 -34l-205 218c-1 3 -1 6 -1 8
c0 8 3 10 12 10h7zM83 616c19 10 24 15 35 34l205 -218c1 -3 1 -6 1 -9c0 -6 -3 -9 -12 -9h-7z" />
    <glyph glyph-name="a67" unicode="h" horiz-adv-x="787" 
d="M36 345c9 50 46 84 92 84c31 0 53 -8 102 -38c16 -10 28 -17 38 -22l26 -15c4 -2 7 -4 8 -6l1 -2v-1v-1l-2 -3c-1 -2 -4 -4 -7 -5l-25 -13c-7 -4 -19 -11 -36 -22c-48 -32 -72 -41 -99 -41c-45 0 -99 42 -99 77c0 1 0 4 1 8zM751 345c-13 -55 -46 -86 -93 -86
c-29 0 -51 9 -102 39c-16 10 -29 17 -37 22l-26 15c-4 2 -7 4 -8 6c0 1 -1 2 -1 2l-1 1l1 1l2 3c1 2 3 3 7 5c25 13 34 18 61 35c50 32 72 42 95 42c47 0 104 -42 104 -77c0 -2 -1 -5 -2 -8zM393 -14c-51 10 -85 47 -85 93c0 29 9 52 39 102c11 17 18 30 22 38l15 26
c2 4 4 7 6 8c1 0 2 1 2 1h1l4 -2c2 -1 3 -4 5 -7c13 -25 19 -37 35 -61c32 -49 41 -71 41 -100c0 -45 -42 -99 -77 -99c-1 0 -4 0 -8 1zM393 703c48 -6 85 -46 85 -93c0 -30 -9 -53 -38 -102c-10 -16 -17 -28 -22 -38c-19 -33 -20 -35 -24 -35c-3 0 -7 4 -9 9l-13 25
c-4 7 -12 20 -22 36c-31 48 -41 72 -41 100c0 45 41 99 77 99c2 0 4 -1 7 -1zM394 426c45 0 82 -36 82 -82c0 -45 -37 -82 -82 -82s-82 37 -82 82s37 82 82 82zM106 35l-21 21l199 199l20 -21zM681 654l21 -21l-199 -199l-20 21zM702 56l-21 -21l-198 199l20 21zM85 633
l21 21l198 -199l-20 -21z" />
    <glyph glyph-name="a68" unicode="i" horiz-adv-x="713" 
d="M373 376l133 77c-4 16 -5 23 -5 30c0 45 41 84 89 84c49 0 88 -37 88 -84c0 -49 -40 -89 -88 -89c-27 0 -47 9 -68 32l-131 -78l131 -78c22 23 42 32 67 32c49 0 88 -41 88 -90c0 -47 -38 -84 -88 -84c-46 0 -87 39 -87 82c0 8 1 19 4 33l-133 76v-157
c47 -18 70 -47 70 -88c0 -47 -39 -87 -85 -87c-47 0 -88 40 -88 86c0 41 24 72 70 89v157l-133 -76c4 -15 5 -21 5 -30c0 -46 -41 -85 -88 -85c-49 0 -89 38 -89 84c0 49 41 90 89 90c26 0 45 -9 67 -32l132 78l-132 78c-22 -24 -41 -33 -67 -33c-48 0 -88 41 -88 91
c0 46 39 83 88 83c46 0 87 -38 87 -82c0 -8 -1 -19 -4 -32l133 -77v157c-47 18 -70 47 -70 88c0 47 39 87 86 87s87 -39 87 -86c0 -41 -24 -71 -70 -89v-157z" />
    <glyph glyph-name="a69" unicode="j" horiz-adv-x="791" 
d="M396 442c53 0 95 -42 95 -95s-43 -96 -95 -96c-53 0 -96 43 -96 95c0 53 43 96 96 96zM309 445l-12 -12l-134 88c-25 17 -34 30 -34 50c0 24 18 42 42 42c21 0 33 -8 50 -34zM482 248l12 12l134 -88c26 -17 34 -30 34 -50c0 -24 -18 -43 -42 -43c-20 0 -33 10 -50 35z
M264 355v-17l-156 -32c-11 -3 -21 -4 -28 -4c-23 0 -45 21 -45 44c0 24 22 45 46 45c7 0 16 -1 27 -4zM527 338v17l156 32c11 3 20 4 27 4c25 0 46 -21 46 -45c0 -23 -21 -44 -45 -44c-7 0 -17 1 -28 4zM297 260l12 -12l-88 -134c-17 -26 -30 -34 -50 -34
c-24 0 -42 18 -42 42c0 20 9 33 34 50zM494 433l-12 12l88 134c17 25 30 34 50 34c24 0 42 -18 42 -43c0 -20 -8 -32 -34 -49zM387 215h17l32 -156c3 -11 4 -21 4 -28c0 -23 -22 -45 -45 -45s-44 22 -44 45c0 6 1 16 4 28zM404 478h-17l-32 156c-3 12 -4 22 -4 28
c0 23 21 45 44 45c24 0 45 -22 45 -45c0 -7 -1 -17 -4 -28z" />
    <glyph glyph-name="a70" unicode="k" horiz-adv-x="785" 
d="M369 424l-32 186c-2 13 -3 24 -3 31c0 32 27 60 57 60c29 0 57 -28 57 -58c0 -7 -1 -18 -4 -33l-31 -185c9 -2 13 -4 20 -7l109 154c23 31 38 42 63 42c31 0 55 -24 55 -55c0 -25 -11 -41 -42 -63l-153 -109c3 -6 5 -10 8 -19l187 32c15 2 26 3 33 3c30 0 58 -27 58 -57
s-28 -57 -59 -57c-8 0 -19 1 -32 3l-186 32c-1 -7 -4 -13 -7 -20l155 -109c32 -23 42 -38 42 -63c0 -31 -23 -54 -54 -54c-26 0 -42 10 -64 41l-109 153c-7 -4 -12 -7 -19 -9l32 -186c2 -13 3 -24 3 -32c0 -31 -27 -59 -57 -59c-29 0 -57 28 -57 59c0 7 1 18 4 32l31 185
c-9 2 -13 4 -20 7l-109 -154c-23 -31 -39 -42 -63 -42c-31 0 -55 24 -55 55c0 25 11 41 42 63l153 109c-3 6 -6 11 -8 19l-187 -32c-14 -2 -25 -3 -32 -3c-31 0 -59 27 -59 57c0 29 28 57 58 57c8 0 19 -1 33 -4l186 -31c2 7 4 13 7 19l-155 110c-31 22 -42 39 -42 63
c0 31 24 54 55 54c25 0 41 -10 63 -41l109 -153c6 4 12 7 19 9z" />
    <glyph glyph-name="a71" unicode="l" horiz-adv-x="791" 
d="M396 708c199 0 361 -162 361 -361s-162 -361 -361 -361s-361 162 -361 361s162 361 361 361z" />
    <glyph glyph-name="a72" unicode="m" horiz-adv-x="873" 
d="M392 671c-179 0 -324 -145 -324 -324s145 -324 324 -324c178 0 324 145 324 324s-145 324 -324 324zM434 705c234 0 404 -151 404 -359c0 -210 -169 -359 -407 -359c-231 0 -396 150 -396 360c0 207 168 358 399 358z" />
    <glyph glyph-name="a73" unicode="n" horiz-adv-x="761" 
d="M726 0h-691v691h691v-691z" />
    <glyph glyph-name="a74" unicode="o" horiz-adv-x="762" 
d="M590 658h-522v-528h522v528zM622 691v-104h105v-587h-585v97h-107v594h587z" />
    <glyph glyph-name="a203" unicode="p" horiz-adv-x="762" 
d="M590 33v524h-522v-524h522zM622 0h-587v589h107v102h585v-587h-105v-104z" />
    <glyph glyph-name="a75" unicode="q" horiz-adv-x="759" 
d="M598 658h-530v-535h530v535zM599 691l126 -119v-572h-571l-119 115v576h564z" />
    <glyph glyph-name="a204" unicode="r" horiz-adv-x="759" 
d="M598 33v535h-530v-535h530zM599 0h-564v576l119 115h571v-571z" />
    <glyph glyph-name="a76" unicode="s" horiz-adv-x="892" 
d="M858 0h-823l412 705z" />
    <glyph glyph-name="a77" unicode="t" horiz-adv-x="892" 
d="M858 691l-411 -705l-412 705h823z" />
    <glyph glyph-name="a78" unicode="u" 
d="M395 -14l-360 360l360 359l359 -359z" />
    <glyph glyph-name="a79" unicode="v" horiz-adv-x="784" 
d="M35 348l159 149l149 -149l-149 -148zM392 -14l-149 164l149 150l151 -150zM749 348l-160 -153l-149 153l149 149zM392 705l147 -161l-147 -149l-149 149z" />
    <glyph glyph-name="a81" unicode="w" horiz-adv-x="438" 
d="M35 705c203 0 368 -160 368 -359c0 -142 -89 -277 -217 -331c-45 -19 -90 -28 -151 -29v719z" />
    <glyph glyph-name="a82" unicode="x" horiz-adv-x="138" 
d="M104 691v-691h-69v691h69z" />
    <glyph glyph-name="a83" unicode="y" horiz-adv-x="277" 
d="M242 691v-691h-207v691h207z" />
    <glyph glyph-name="a84" unicode="z" horiz-adv-x="415" 
d="M380 691v-691h-345v691h345z" />
    <glyph glyph-name="a97" unicode="{" horiz-adv-x="392" 
d="M346 704v-21h-11l-28 1c-42 0 -109 -19 -137 -41c-26 -20 -46 -52 -46 -75c0 -16 11 -28 26 -28c6 0 6 0 19 6c11 4 26 7 42 7c82 0 146 -64 146 -145c0 -82 -69 -145 -160 -145c-98 0 -162 71 -162 178c0 161 109 264 279 264c7 0 19 0 32 -1z" />
    <glyph glyph-name="a98" unicode="|" horiz-adv-x="392" 
d="M45 264v21h13h13c106 0 196 52 196 115c0 16 -10 28 -25 28c-4 0 -7 -1 -9 -2l-11 -4c-11 -4 -27 -7 -43 -7c-80 0 -145 65 -145 145c0 82 70 145 160 145c98 0 163 -71 163 -179c0 -158 -111 -263 -278 -263c-7 0 -19 0 -34 1z" />
    <glyph glyph-name="a99" unicode="}" horiz-adv-x="668" 
d="M337 680c-108 -2 -191 -52 -218 -132c28 13 47 18 72 18c57 0 102 -26 135 -79c46 146 138 219 280 218l20 -25c-108 -4 -196 -57 -219 -132c30 14 49 18 74 18c84 0 152 -68 152 -152s-67 -151 -152 -151c-66 0 -113 33 -144 102c-20 -61 -78 -102 -143 -102
c-91 0 -159 76 -159 177c0 147 124 265 280 265h3z" />
    <glyph glyph-name="a100" unicode="~" horiz-adv-x="668" 
d="M331 288c107 2 191 52 219 132c-28 -13 -48 -19 -74 -19c-55 0 -100 27 -134 80c-44 -145 -137 -218 -279 -218l-20 25c105 3 196 57 218 132c-32 -14 -49 -19 -74 -19c-83 0 -151 69 -151 153c0 85 67 151 152 151c66 0 113 -33 143 -102c21 61 79 102 144 102
c91 0 159 -75 159 -177c0 -149 -123 -264 -283 -265z" />
    <glyph glyph-name="a89" horiz-adv-x="390" 
d="M356 694c-128 -45 -209 -179 -209 -348c0 -170 81 -305 209 -349l-8 -11l-18 5c-92 27 -141 51 -182 90c-72 67 -113 164 -113 265c0 86 29 168 84 234c49 58 107 91 211 120l18 5z" />
    <glyph glyph-name="a90" horiz-adv-x="390" 
d="M35 694l8 11l18 -5c88 -25 139 -51 181 -90c72 -67 113 -163 113 -264c0 -87 -30 -169 -84 -235c-49 -58 -102 -89 -210 -120l-18 -5l-8 11c127 43 207 179 207 348c0 170 -80 305 -207 349z" />
    <glyph glyph-name="a93" horiz-adv-x="317" 
d="M283 691c-45 -62 -84 -219 -84 -342c0 -121 25 -223 84 -349h-109c-91 106 -139 225 -139 345s46 234 139 346h109z" />
    <glyph glyph-name="a94" horiz-adv-x="317" 
d="M35 691h109c93 -111 139 -226 139 -346c0 -121 -49 -242 -139 -345h-109c58 120 84 228 84 346c0 120 -23 218 -79 334z" />
    <glyph glyph-name="a91" horiz-adv-x="276" 
d="M137 691h105l-104 -346l104 -345h-105l-102 345z" />
    <glyph glyph-name="a92" unicode="&#x85;" horiz-adv-x="276" 
d="M138 691l104 -346l-104 -345h-103l103 345l-103 346h103z" />
    <glyph glyph-name="a205" horiz-adv-x="509" 
d="M278 0l-243 346l243 345h197l-243 -345l243 -346h-197z" />
    <glyph glyph-name="a85" horiz-adv-x="509" 
d="M232 0h-197l243 346l-243 345h197l243 -345z" />
    <glyph glyph-name="a206" horiz-adv-x="410" 
d="M135 691h240l-100 -345l100 -346h-240l-100 346z" />
    <glyph glyph-name="a86" horiz-adv-x="410" 
d="M275 691l100 -345l-100 -346h-240l100 346l-100 345h240z" />
    <glyph glyph-name="a87" horiz-adv-x="234" 
d="M199 694l-114 -78v-541l114 -78l-22 -11l-142 89v541l142 89z" />
    <glyph glyph-name="a88" horiz-adv-x="234" 
d="M35 694l22 11l142 -89v-541l-142 -89l-22 11l114 78v541z" />
    <glyph glyph-name="a95" horiz-adv-x="334" 
d="M299 691v-12c-58 0 -67 -13 -67 -96v-109c0 -90 -14 -113 -80 -129c65 -15 80 -38 80 -128v-109c0 -80 10 -96 61 -96h6v-12c-25 0 -44 -1 -57 -1c-128 0 -157 17 -157 87l1 34v132c0 72 -8 85 -51 87v12c35 2 51 22 51 66v22v132l-1 33c0 71 29 88 158 88
c12 0 31 -1 56 -1z" />
    <glyph glyph-name="a96" horiz-adv-x="334" 
d="M35 691h57c128 0 157 -16 157 -87l-1 -33v-132v-22c0 -44 16 -64 51 -66v-12c-43 -2 -51 -15 -51 -87v-132l1 -33c0 -72 -29 -88 -158 -88c-12 0 -31 1 -56 1v12h5c53 0 62 15 62 96v109c0 90 15 113 80 128c-66 16 -80 39 -80 129v109c0 83 -9 96 -67 96v12z" />
    <glyph glyph-name="a101" unicode="&#xa1;" horiz-adv-x="732" 
d="M480 652h-97c-8 -45 -14 -135 -14 -196c0 -25 2 -72 4 -101c3 -27 4 -35 10 -62c40 -19 63 -26 97 -30v389zM697 691l-17 -23c-47 -13 -75 -17 -118 -17c-10 0 -24 0 -43 1v-319v-58c0 -137 -12 -219 -41 -285c-35 -80 -114 -134 -197 -134c-94 0 -167 65 -167 148
c0 65 48 118 107 118c47 0 85 -35 85 -78c0 -34 -23 -60 -54 -63c-33 -2 -41 -8 -41 -29c0 -34 40 -63 88 -63c64 0 119 43 149 117c21 51 29 111 32 239c-55 -8 -108 -13 -155 -13c-181 0 -290 87 -290 231c0 105 69 194 169 215c46 10 89 13 179 13h97v104l39 10v-114h178
z" />
    <glyph glyph-name="a102" unicode="&#xa2;" horiz-adv-x="544" 
d="M272 270c79 0 142 -63 142 -142s-63 -142 -142 -142s-142 63 -142 142s63 142 142 142zM272 297l-4 11c-18 54 -34 71 -87 99c-100 53 -125 83 -125 149c0 36 13 71 37 97c37 41 75 52 179 52s142 -11 179 -52c24 -26 37 -61 37 -96c0 -67 -25 -97 -125 -150
c-53 -28 -69 -46 -87 -99z" />
    <glyph glyph-name="a103" unicode="&#xa3;" horiz-adv-x="544" 
d="M271 270c78 0 142 -64 142 -142c0 -79 -64 -142 -142 -142s-142 63 -142 142c0 78 64 142 142 142zM271 626c34 58 64 78 117 78c73 0 120 -55 120 -139c0 -61 -29 -114 -76 -135l-48 -23c-61 -28 -87 -54 -113 -111c-26 57 -52 83 -113 111l-48 23
c-46 21 -76 74 -76 135c0 84 48 139 120 139c53 0 84 -20 117 -78z" />
    <glyph glyph-name="a104" unicode="&#xa4;" horiz-adv-x="910" 
d="M455 474c16 41 23 56 35 77c37 61 107 100 182 100c118 0 203 -87 203 -207c0 -69 -24 -121 -72 -159c-31 -25 -64 -42 -149 -79c-122 -54 -155 -82 -199 -166c-43 84 -77 112 -199 166c-70 30 -104 47 -129 64c-65 44 -92 96 -92 176c0 118 86 205 203 205
c75 0 144 -39 182 -100c12 -21 19 -36 35 -77z" />
    <glyph glyph-name="a106" unicode="&#xa5;" horiz-adv-x="667" 
d="M633 316c-15 2 -22 3 -32 3c-88 0 -168 -64 -204 -163l-20 -54c-25 -70 -91 -115 -165 -115c-98 0 -177 78 -177 175c0 88 55 151 152 176v18c-97 22 -152 86 -152 175c0 96 80 175 178 175c48 0 92 -19 125 -55c21 -22 30 -38 55 -103c44 -111 114 -170 200 -170
c10 0 24 1 40 3v-65z" />
    <glyph glyph-name="a107" unicode="&#xa6;" horiz-adv-x="760" 
d="M379 361l18 -7c40 69 75 93 131 93c62 0 113 -56 113 -126c0 -73 -38 -118 -143 -169c-76 -37 -97 -56 -97 -87c0 -30 26 -54 60 -54c45 0 71 30 80 92c8 10 14 13 27 13c25 0 43 -16 43 -38c0 -49 -75 -91 -160 -91c-164 0 -306 141 -306 305c0 106 56 182 135 182
c62 0 99 -39 99 -103v-10zM450 554v1l1 1c0 1 1 2 1 2v2l1 3c3 8 5 22 5 31c0 41 -28 77 -60 77c-17 0 -33 -16 -33 -34c0 -27 40 -66 85 -83zM325 634v31c25 28 42 38 68 38c47 0 84 -44 84 -101c0 -17 -2 -30 -8 -57c31 -22 70 -35 103 -35c38 0 72 31 72 67
c0 15 -7 30 -16 36l-12 8c-5 3 -7 8 -7 17c0 39 24 67 57 67c34 0 60 -28 60 -65c0 -57 -48 -109 -126 -136c-19 -7 -50 -13 -66 -13c-17 0 -38 6 -75 22c-14 -36 -23 -57 -32 -75l-22 -41c-1 -2 -3 -7 -7 -14c-2 9 -3 14 -3 19c0 14 2 20 18 51c5 10 11 24 18 42l10 26
c-25 14 -37 21 -86 52c-96 61 -140 82 -177 82c-50 0 -93 -43 -93 -92c0 -13 5 -28 14 -38c11 -14 11 -14 11 -18c0 -17 -22 -35 -41 -35s-34 18 -34 40c0 81 92 175 171 175c38 0 71 -14 119 -53z" />
    <glyph glyph-name="a108" unicode="&#xa7;" horiz-adv-x="760" 
d="M71 278c74 25 117 62 117 102c0 3 0 8 -1 14c-64 -3 -114 -53 -116 -116zM0 216c3 23 7 31 22 47c1 68 70 133 157 152c-10 20 -11 21 -73 34c-46 10 -64 27 -64 60c0 36 28 61 70 61h9c-13 -10 -19 -19 -19 -31c0 -18 14 -38 36 -52l21 -12c29 -18 42 -33 54 -60
c43 0 77 -13 117 -46c-13 30 -17 45 -17 66c0 48 46 88 101 88c50 0 101 -27 128 -69c21 -31 23 -41 30 -117c8 -78 28 -109 72 -109c32 0 56 24 56 56c0 10 -1 17 -6 32c9 14 18 19 31 19c20 0 33 -12 33 -32c0 -24 -21 -48 -78 -88c-86 -61 -173 -94 -247 -94
c-103 0 -186 58 -186 132c0 38 17 60 65 86c-19 34 -51 52 -99 55c-3 -65 -50 -117 -138 -154c7 -29 24 -43 50 -43c17 0 28 5 44 19c1 -16 2 -22 2 -31c0 -38 -22 -60 -61 -60c-48 0 -82 36 -88 91h-9h-13z" />
    <glyph glyph-name="a112" unicode="&#xa8;" horiz-adv-x="776" 
d="M630 0h-484v20l12 2c93 18 138 45 178 107c26 40 33 70 38 164c-47 -91 -108 -136 -183 -136c-86 0 -156 73 -156 162c0 87 63 157 142 157c24 0 39 -4 72 -21c4 -2 11 -5 20 -10c-28 41 -39 71 -39 107c0 85 71 153 158 153c88 0 158 -68 158 -153
c0 -37 -11 -66 -39 -107c9 5 16 8 20 10c34 16 48 21 72 21c79 0 142 -70 142 -157c0 -89 -70 -162 -156 -162c-75 0 -136 45 -183 136c5 -85 10 -114 28 -147c38 -72 89 -105 188 -124l12 -2v-20z" />
    <glyph glyph-name="a111" unicode="&#xa9;" horiz-adv-x="595" 
d="M296 705c28 -49 59 -96 119 -176c60 -81 107 -141 145 -183c-15 -16 -19 -21 -32 -37c-24 -29 -80 -100 -103 -132c-55 -73 -98 -137 -129 -191c-15 29 -34 58 -65 102c-52 74 -96 133 -124 168l-61 75l-12 15c19 22 34 40 69 85l63 80c48 62 94 130 130 194z" />
    <glyph glyph-name="a110" unicode="&#xaa;" horiz-adv-x="694" 
d="M348 -14c-23 87 -61 156 -145 268l-66 86c-80 107 -102 153 -102 216c0 83 64 148 147 148c79 0 133 -47 166 -144c26 93 84 144 164 144s147 -65 147 -142c0 -76 -31 -140 -122 -256c-79 -98 -99 -128 -135 -190c-28 -49 -40 -78 -54 -130z" />
    <glyph glyph-name="a109" unicode="&#xab;" horiz-adv-x="626" 
d="M329 238c5 -44 10 -66 24 -92c38 -71 89 -105 188 -124l12 -2v-20h-481v20l12 2c93 18 138 45 178 107c21 32 28 57 34 109c-33 -51 -81 -80 -134 -80c-71 0 -128 56 -128 127c0 63 25 101 125 192c98 90 127 132 154 228c26 -96 55 -138 154 -228
c100 -91 124 -129 124 -192c0 -71 -57 -127 -128 -127c-53 0 -101 29 -134 80z" />
    <glyph glyph-name="a120" unicode="&#xac;" 
d="M395 673c-181 0 -327 -146 -327 -327c0 -180 146 -327 327 -327c180 0 326 147 326 327c0 181 -146 327 -326 327zM395 706c198 0 359 -161 359 -360c0 -198 -161 -359 -359 -359c-199 0 -360 161 -360 359c0 199 161 360 360 360zM446 588v-373c0 -47 13 -64 52 -64h36
v-33h-259v33h27c47 0 57 12 57 64v239c0 27 -4 32 -28 32h-70v27c81 11 123 32 153 75h32z" />
    <glyph glyph-name="a121" unicode="&#xad;" 
d="M395 673c-181 0 -327 -146 -327 -327c0 -180 146 -327 327 -327c180 0 326 147 326 327c0 181 -146 327 -326 327zM395 706c198 0 359 -161 359 -360c0 -198 -161 -359 -359 -359c-199 0 -360 161 -360 359c0 199 161 360 360 360zM532 297h32v-179h-336
c-1 11 -2 20 -2 26c0 57 36 112 105 165c89 67 118 108 118 168c0 51 -25 85 -62 85c-24 0 -53 -20 -53 -37c0 -2 1 -4 2 -7l6 -15c2 -4 3 -9 3 -15c0 -26 -22 -48 -48 -48c-28 0 -49 24 -49 55c0 59 58 100 140 100c102 0 166 -50 166 -129c0 -64 -35 -104 -131 -149
c-76 -36 -116 -69 -137 -112h197h19c22 0 30 13 30 49v43z" />
    <glyph glyph-name="a122" unicode="&#xae;" 
d="M395 673c-181 0 -327 -146 -327 -327c0 -180 146 -327 327 -327c180 0 326 147 326 327c0 181 -146 327 -326 327zM395 706c198 0 359 -161 359 -360c0 -198 -161 -359 -359 -359c-199 0 -360 161 -360 359c0 199 161 360 360 360zM321 355v36c10 -1 18 -1 23 -1
c62 0 103 39 103 98c0 45 -28 75 -69 75c-25 0 -50 -14 -50 -28c0 -1 1 -2 2 -4l2 -5c1 -3 3 -12 3 -17c0 -25 -22 -47 -48 -47c-25 0 -45 20 -45 46c0 52 62 88 151 88c93 0 145 -37 145 -103c0 -49 -28 -83 -83 -99c-15 -5 -19 -6 -19 -9s4 -5 11 -5
c73 -6 125 -55 125 -120c0 -87 -82 -149 -195 -149c-90 0 -156 44 -156 104c0 31 21 52 53 52c31 0 52 -20 52 -49c0 -6 -1 -11 -2 -15l-4 -10c-1 -2 -2 -6 -2 -9c0 -19 22 -33 53 -33c55 0 99 53 99 117c0 58 -37 94 -98 94c-15 0 -26 -2 -51 -7z" />
    <glyph glyph-name="a123" unicode="&#xaf;" 
d="M395 672c-181 0 -327 -146 -327 -327c0 -180 146 -327 327 -327c180 0 326 147 326 327c0 181 -146 327 -326 327zM395 705c198 0 359 -161 359 -360c0 -198 -161 -359 -359 -359c-199 0 -360 161 -360 359c0 199 161 360 360 360zM373 495l-135 -211h135v211zM460 588
v-304h110v-45h-110v-45c0 -33 8 -43 36 -43h32v-33h-241v33h48c30 0 38 11 38 50v38h-193v28l213 321h67z" />
    <glyph glyph-name="a124" unicode="&#xb0;" 
d="M395 673c-181 0 -327 -146 -327 -327c0 -180 146 -327 327 -327c180 0 326 147 326 327c0 181 -146 327 -326 327zM395 706c198 0 359 -161 359 -360c0 -198 -161 -359 -359 -359c-199 0 -360 161 -360 359c0 199 161 360 360 360zM270 592l12 -2c74 -12 112 -17 145 -17
c52 0 88 6 126 19c-21 -93 -40 -105 -174 -105c-30 0 -48 1 -82 4l-11 -121c30 24 66 36 114 36c93 0 159 -59 159 -140c0 -88 -86 -155 -199 -155c-86 0 -151 42 -151 98c0 32 21 54 51 54c28 0 52 -21 52 -44c0 -8 -1 -16 -5 -23c-7 -15 -7 -15 -7 -20
c0 -18 23 -33 51 -33c53 0 96 53 96 117c0 61 -34 105 -80 105c-29 0 -54 -15 -81 -50l-41 17l3 20c9 74 18 178 21 229z" />
    <glyph glyph-name="a125" unicode="&#xb1;" 
d="M395 673c-181 0 -327 -146 -327 -327c0 -180 146 -327 327 -327c180 0 326 147 326 327c0 181 -146 327 -326 327zM395 706c198 0 359 -161 359 -360c0 -198 -161 -359 -359 -359c-199 0 -360 161 -360 359c0 199 161 360 360 360zM401 364c-54 0 -96 -48 -96 -110
c0 -65 38 -111 91 -111c52 0 88 45 88 110c0 67 -33 111 -83 111zM303 334c38 53 78 75 134 75c79 0 137 -56 137 -133c0 -95 -76 -165 -180 -165c-119 0 -196 92 -196 233c0 150 80 251 201 251c85 0 147 -39 147 -92c0 -31 -20 -54 -47 -54c-24 0 -47 20 -47 41
c0 6 2 16 6 28c1 4 2 8 2 11c0 19 -23 34 -51 34c-64 0 -107 -76 -107 -187v-24l1 -6v-12z" />
    <glyph glyph-name="a126" unicode="&#xb2;" 
d="M395 673c-181 0 -327 -146 -327 -327c0 -180 146 -327 327 -327c180 0 326 147 326 327c0 181 -146 327 -326 327zM395 706c198 0 359 -161 359 -360c0 -198 -161 -359 -359 -359c-199 0 -360 161 -360 359c0 199 161 360 360 360zM219 585h356l-6 -12l-42 -67l-51 -86
c-44 -74 -49 -83 -55 -98c-14 -31 -21 -59 -21 -83c0 -7 1 -16 4 -25l7 -30c1 -5 2 -11 2 -17c0 -33 -25 -56 -60 -56s-61 27 -61 63c0 46 26 103 80 171c23 30 40 52 41 54l72 100h-182l-12 -1c-21 -1 -23 -4 -34 -45l-8 -35h-30v167z" />
    <glyph glyph-name="a127" unicode="&#xb3;" 
d="M395 673c-181 0 -327 -146 -327 -327c0 -180 146 -327 327 -327c180 0 326 147 326 327c0 181 -146 327 -326 327zM395 706c198 0 359 -161 359 -360c0 -198 -161 -359 -359 -359c-199 0 -360 161 -360 359c0 199 161 360 360 360zM357 350c-44 -26 -68 -65 -68 -109
c0 -56 41 -98 97 -98c53 0 94 38 94 87c0 36 -19 61 -65 87zM424 416c34 21 50 45 50 78c0 40 -30 68 -72 68c-40 0 -70 -26 -70 -60c0 -25 15 -44 50 -63zM458 400c78 -38 108 -77 108 -138c0 -89 -74 -151 -179 -151c-98 0 -163 50 -163 126c0 56 25 89 100 132
c-52 33 -68 59 -68 103c0 72 61 123 146 123c75 0 128 -41 128 -97c0 -38 -18 -62 -72 -98z" />
    <glyph glyph-name="a128" unicode="&#xb4;" 
d="M395 673c-181 0 -327 -146 -327 -327c0 -180 146 -327 327 -327c180 0 326 147 326 327c0 181 -146 327 -326 327zM395 706c198 0 359 -161 359 -360c0 -198 -161 -359 -359 -359c-199 0 -360 161 -360 359c0 199 161 360 360 360zM393 562c-52 0 -88 -44 -88 -109
c0 -67 33 -111 83 -111c55 0 96 47 96 110c0 65 -37 110 -91 110zM485 372c-37 -53 -78 -75 -134 -75c-79 0 -137 56 -137 133c0 95 76 165 181 165c119 0 196 -92 196 -233c0 -151 -81 -251 -201 -251c-86 0 -148 39 -148 92c0 31 20 54 48 54c23 0 46 -20 46 -41
c0 -7 -2 -16 -5 -27c-2 -5 -3 -9 -3 -12c0 -19 23 -34 52 -34c63 0 107 76 107 188c0 9 0 14 -1 23v6z" />
    <glyph glyph-name="a129" unicode="&#xb5;" 
d="M395 673c-181 0 -327 -146 -327 -327c0 -180 146 -327 327 -327c180 0 326 147 326 327c0 181 -146 327 -326 327zM395 706c198 0 359 -161 359 -360c0 -198 -161 -359 -359 -359c-199 0 -360 161 -360 359c0 199 161 360 360 360zM509 562c-34 0 -52 -71 -52 -208
s18 -208 52 -208s51 68 51 208s-17 208 -51 208zM508 595c98 0 148 -84 148 -246c0 -165 -46 -238 -149 -238c-97 0 -145 80 -145 242c0 158 50 242 146 242zM318 589v-389c0 -38 8 -47 39 -47h19v-35h-198v35h25c29 0 33 5 33 40v265v16c-1 20 -7 26 -33 26h-51v26
c73 5 106 21 132 63h34z" />
    <glyph glyph-name="a130" unicode="&#xb6;" 
d="M454 613h-36c-33 -44 -85 -71 -161 -82l-12 -2v-30h77c27 0 31 -5 31 -35v-265l1 -17c0 -38 -19 -55 -64 -55h-30v-34h292v34h-40c-43 0 -58 19 -58 72v414zM395 706c198 0 359 -161 359 -359c0 -199 -161 -360 -359 -360c-199 0 -360 161 -360 360
c0 198 161 359 360 359z" />
    <glyph glyph-name="a131" unicode="&#xb7;" 
d="M546 293v-46c0 -41 -9 -55 -33 -56l-21 1h-217c23 49 65 83 152 123c107 50 145 94 145 164c0 86 -72 141 -185 141c-91 0 -156 -46 -156 -109c0 -34 24 -59 55 -59c30 0 53 22 53 50c0 6 -1 12 -3 16l-6 16c-1 2 -2 5 -2 6c0 18 31 40 58 40c40 0 67 -37 67 -92
c0 -67 -30 -109 -129 -183c-78 -59 -116 -118 -116 -184c0 -6 1 -16 2 -28h373v200h-37zM395 706c198 0 359 -161 359 -360c0 -198 -161 -359 -359 -359c-199 0 -360 161 -360 359c0 199 161 360 360 360z" />
    <glyph glyph-name="a132" unicode="&#xb8;" 
d="M313 351c26 5 38 6 54 6c66 0 105 -38 105 -103c0 -70 -47 -128 -105 -128c-33 0 -57 15 -57 36c0 4 1 7 2 10l4 11c1 5 2 11 2 17c0 32 -23 54 -56 54c-36 0 -59 -24 -59 -60c0 -69 73 -118 173 -118c124 0 214 69 214 164c0 43 -19 79 -52 103c-17 12 -65 28 -86 29
c-8 0 -12 3 -12 6s3 5 20 10c56 16 89 55 89 107c0 75 -57 116 -160 116c-95 0 -163 -39 -163 -92c0 -29 21 -50 49 -50c29 0 54 23 54 51c0 5 -2 15 -4 19l-2 5c-1 1 -1 2 -1 2c0 16 26 32 54 32c45 0 76 -33 76 -83c0 -62 -46 -106 -112 -106c-6 0 -16 1 -27 2v-40z
M394 706c199 0 360 -161 360 -360c0 -198 -161 -359 -360 -359c-198 0 -359 161 -359 359c0 199 161 360 359 360z" />
    <glyph glyph-name="a133" unicode="&#xb9;" 
d="M468 613h-75l-237 -354v-33h214v-43c0 -43 -9 -55 -43 -55h-52v-35h268v35h-35c-31 0 -40 11 -40 48v50h120v54h-120v333zM395 706c198 0 359 -161 359 -359c0 -199 -161 -360 -359 -360c-199 0 -360 161 -360 360c0 198 161 359 360 359zM370 510v-230h-150z" />
    <glyph glyph-name="a134" unicode="&#xba;" 
d="M256 618v-13c-6 -83 -14 -170 -23 -253l-3 -22l44 -19c30 38 57 54 88 54c51 0 89 -49 89 -116c0 -73 -47 -131 -105 -131c-30 0 -56 16 -56 36c0 7 0 6 8 23c4 8 6 17 6 25c0 28 -26 51 -58 51c-34 0 -57 -25 -57 -60c0 -60 72 -108 165 -108c127 0 223 74 223 171
c0 90 -74 155 -176 155c-52 0 -93 -13 -127 -40l13 134c37 -3 57 -4 90 -4c149 0 170 13 193 117c-45 -15 -78 -20 -134 -20c-44 0 -69 3 -166 18zM395 706c198 0 359 -161 359 -360c0 -198 -161 -359 -359 -359c-199 0 -360 161 -360 359c0 199 161 360 360 360z" />
    <glyph glyph-name="a135" unicode="&#xbb;" 
d="M294 337v2l-1 3v3v2v3v7l-1 10v13c0 125 47 210 117 210c32 0 56 -16 56 -38c0 -3 0 -7 -2 -12c-3 -13 -4 -23 -4 -30c0 -24 24 -46 50 -46c31 0 53 24 53 58c0 58 -68 101 -162 101c-63 0 -113 -21 -148 -61c-47 -53 -75 -136 -75 -219c0 -156 85 -258 217 -258
c116 0 200 77 200 184c0 87 -64 150 -152 150c-61 0 -110 -27 -148 -82zM395 706c198 0 359 -161 359 -360c0 -198 -161 -359 -359 -359c-199 0 -360 161 -360 359c0 199 161 360 360 360zM403 367c53 0 88 -48 88 -120c0 -71 -38 -119 -95 -119s-97 49 -97 119
c0 69 44 120 104 120z" />
    <glyph glyph-name="a136" unicode="&#xbc;" 
d="M200 611v-186h33l9 38c12 45 15 49 38 50l13 1h202l-81 -111c-1 -2 -19 -24 -45 -59c-59 -76 -88 -138 -88 -186c0 -43 26 -73 66 -73s66 25 66 65c0 6 0 11 -1 16l-5 33c-2 10 -3 19 -3 27c0 25 6 49 18 82c9 23 8 21 64 119l56 95l45 75c1 2 4 7 7 14h-394zM394 706
c199 0 360 -161 360 -360c0 -198 -161 -359 -360 -359c-198 0 -359 161 -359 359c0 199 161 360 359 360z" />
    <glyph glyph-name="a137" unicode="&#xbd;" 
d="M465 410c61 39 81 66 81 109c0 62 -60 106 -143 106c-94 0 -162 -56 -162 -136c0 -49 18 -76 75 -114c-82 -47 -110 -85 -110 -149c0 -85 72 -141 181 -141c115 0 198 71 198 170c0 68 -35 112 -120 155zM395 706c198 0 359 -161 359 -360c0 -198 -161 -359 -359 -359
c-199 0 -360 161 -360 359c0 199 161 360 360 360zM353 354l65 -36c49 -28 70 -55 70 -94c0 -52 -44 -92 -102 -92c-60 0 -105 45 -105 105c0 48 26 90 72 117zM428 428l-47 25c-37 19 -54 42 -54 70c0 37 32 65 76 65c45 0 77 -31 77 -75c0 -36 -17 -63 -52 -85z" />
    <glyph glyph-name="a138" unicode="&#xbe;" 
d="M493 363v-9v-4v-7v-10c0 -126 -46 -211 -116 -211c-31 0 -56 18 -56 38c0 4 1 12 4 23c1 5 1 11 1 16c0 30 -21 53 -49 53c-30 0 -54 -28 -54 -63c0 -60 68 -104 160 -104c74 0 128 25 164 76c39 55 60 129 60 208c0 155 -86 256 -217 256c-114 0 -198 -77 -198 -180
c0 -88 64 -148 157 -148c62 0 106 20 144 66zM394 706c199 0 360 -161 360 -360c0 -198 -161 -359 -360 -359c-198 0 -359 161 -359 359c0 199 161 360 359 360zM389 587c57 0 98 -50 98 -118c0 -69 -42 -119 -98 -119c-57 0 -95 46 -95 116c0 73 38 121 95 121z" />
    <glyph glyph-name="a139" unicode="&#xbf;" 
d="M522 621c-106 0 -161 -92 -161 -269s53 -267 158 -267c116 0 168 80 168 260c0 183 -55 276 -165 276zM309 613h-38c-30 -47 -65 -63 -148 -70v-29h57c29 0 37 -6 37 -28v-17v-294c0 -38 -4 -44 -36 -44h-28v-38h220v38h-21c-35 0 -43 10 -43 52v430zM394 706
c199 0 360 -161 360 -360s-161 -359 -360 -359c-198 0 -359 161 -359 359c0 199 161 360 359 360zM524 588c41 0 61 -77 61 -235s-20 -235 -61 -235c-40 0 -61 81 -61 235s21 235 61 235z" />
    <glyph glyph-name="a140" unicode="&#xc0;" 
d="M395 673c-181 0 -327 -146 -327 -327c0 -180 146 -327 327 -327c180 0 326 147 326 327c0 181 -146 327 -326 327zM395 706c198 0 359 -161 359 -360c0 -198 -161 -359 -359 -359c-199 0 -360 161 -360 359c0 199 161 360 360 360zM393 588h37v-470h-61v356h-97v41
c82 1 110 18 121 73z" />
    <glyph glyph-name="a141" unicode="&#xc1;" 
d="M395 673c-181 0 -327 -146 -327 -327c0 -180 146 -327 327 -327c180 0 326 147 326 327c0 181 -146 327 -326 327zM395 706c198 0 359 -161 359 -360c0 -198 -161 -359 -359 -359c-199 0 -360 161 -360 359c0 199 161 360 360 360zM538 169v-51h-289c-1 7 -2 13 -2 17
c0 54 38 104 116 154c94 61 118 92 118 154c0 59 -38 101 -92 101c-53 0 -88 -40 -88 -101c0 -3 0 -8 1 -14h-61v14c0 85 62 146 148 146c89 0 153 -62 153 -148c0 -77 -30 -115 -151 -197c-55 -37 -64 -45 -78 -75h225z" />
    <glyph glyph-name="a142" unicode="&#xc2;" 
d="M395 673c-181 0 -327 -146 -327 -327c0 -180 146 -327 327 -327c180 0 326 147 326 327c0 181 -146 327 -326 327zM395 706c198 0 359 -161 359 -360c0 -198 -161 -359 -359 -359c-199 0 -360 161 -360 359c0 199 161 360 360 360zM310 462h-54c5 85 54 132 137 132
c81 0 140 -55 140 -130c0 -49 -19 -79 -67 -101c54 -18 80 -55 80 -114c0 -82 -62 -139 -150 -139c-80 0 -141 52 -141 119c0 6 0 13 1 21l54 11c0 -66 31 -101 90 -101c53 0 91 37 91 88c0 57 -39 90 -107 90h-34v43h9c10 -1 18 -2 21 -2c54 0 93 37 93 88s-32 82 -83 82
c-52 0 -78 -28 -80 -87z" />
    <glyph glyph-name="a143" unicode="&#xc3;" 
d="M395 673c-181 0 -327 -146 -327 -327c0 -180 146 -327 327 -327c180 0 326 147 326 327c0 181 -146 327 -326 327zM395 706c198 0 359 -161 359 -360c0 -198 -161 -359 -359 -359c-199 0 -360 161 -360 359c0 199 161 360 360 360zM408 514l-152 -229h152v229zM538 285
v-50h-75v-117h-55v117h-208v50l207 308h56v-308h75z" />
    <glyph glyph-name="a144" unicode="&#xc4;" 
d="M395 673c-181 0 -327 -146 -327 -327c0 -180 146 -327 327 -327c180 0 326 147 326 327c0 181 -146 327 -326 327zM395 706c198 0 359 -161 359 -360c0 -198 -161 -359 -359 -359c-199 0 -360 161 -360 359c0 199 161 360 360 360zM269 585h246v-50h-201v-133
c22 31 49 44 96 44c87 0 148 -65 148 -160c0 -102 -67 -176 -160 -176c-75 0 -125 47 -129 121l45 12c1 -49 36 -83 88 -83c62 0 96 50 96 139c0 60 -38 101 -94 101c-48 0 -80 -29 -90 -81h-45v266z" />
    <glyph glyph-name="a145" unicode="&#xc5;" 
d="M395 673c-181 0 -327 -146 -327 -327c0 -180 146 -327 327 -327c180 0 326 147 326 327c0 181 -146 327 -326 327zM395 706c198 0 359 -161 359 -360c0 -198 -161 -359 -359 -359c-199 0 -360 161 -360 359c0 199 161 360 360 360zM390 380c-54 0 -95 -46 -95 -107
c0 -67 42 -118 97 -118c52 0 85 43 85 111c0 69 -34 114 -87 114zM520 488l-51 -14c-14 57 -32 75 -73 75c-67 0 -107 -66 -107 -178c0 -4 0 -11 1 -19c21 45 57 68 108 68c79 0 135 -61 135 -147c0 -93 -62 -163 -146 -163c-100 0 -154 83 -154 237c0 160 58 247 166 247
c66 0 108 -36 121 -106z" />
    <glyph glyph-name="a146" unicode="&#xc6;" 
d="M395 673c-181 0 -327 -146 -327 -327c0 -180 146 -327 327 -327c180 0 326 147 326 327c0 181 -146 327 -326 327zM395 706c198 0 359 -161 359 -360c0 -198 -161 -359 -359 -359c-199 0 -360 161 -360 359c0 199 161 360 360 360zM238 584h312v-41
c-33 -45 -74 -114 -108 -179c-43 -84 -62 -141 -83 -246h-67c11 72 33 139 76 227c35 70 58 106 124 189h-254v50z" />
    <glyph glyph-name="a147" unicode="&#xc7;" 
d="M395 673c-181 0 -327 -146 -327 -327c0 -180 146 -327 327 -327c180 0 326 147 326 327c0 181 -146 327 -326 327zM395 706c198 0 359 -161 359 -360c0 -198 -161 -359 -359 -359c-199 0 -360 161 -360 359c0 199 161 360 360 360zM394 340c-55 0 -93 -38 -93 -93
c0 -57 40 -97 94 -97s92 40 92 97c0 59 -34 93 -93 93zM396 555c-49 0 -82 -35 -82 -85c0 -52 32 -85 83 -85s86 35 86 86c0 52 -33 84 -87 84zM458 366c58 -20 85 -57 85 -117c0 -81 -63 -139 -150 -139s-148 57 -148 137c0 63 26 96 90 119c-49 23 -72 56 -72 106
c0 71 58 122 138 122c78 0 132 -50 132 -123c0 -54 -21 -83 -75 -105z" />
    <glyph glyph-name="a148" unicode="&#xc8;" 
d="M395 673c-181 0 -327 -146 -327 -327c0 -180 146 -327 327 -327c180 0 326 147 326 327c0 181 -146 327 -326 327zM395 706c198 0 359 -161 359 -360c0 -198 -161 -359 -359 -359c-199 0 -360 161 -360 359c0 199 161 360 360 360zM386 555c-52 0 -86 -43 -86 -111
c0 -73 32 -116 88 -116c55 0 93 44 93 109c0 69 -40 118 -95 118zM488 356c-23 -47 -57 -68 -111 -68c-78 0 -133 60 -133 147c0 92 63 159 147 159c100 0 153 -81 153 -238c0 -104 -21 -168 -68 -210c-25 -23 -61 -36 -96 -36c-66 0 -104 34 -116 103l49 10
c10 -44 35 -67 72 -67c29 0 53 14 72 42c21 32 28 67 31 158z" />
    <glyph glyph-name="a149" unicode="&#xc9;" 
d="M395 673c-181 0 -327 -146 -327 -327c0 -180 146 -327 327 -327c180 0 326 147 326 327c0 181 -146 327 -326 327zM395 706c198 0 359 -161 359 -360c0 -198 -161 -359 -359 -359c-199 0 -360 161 -360 359c0 199 161 360 360 360zM253 588h41v-470h-60v354h-83v40
c61 2 94 27 102 76zM478 555c-56 0 -85 -67 -85 -198c0 -132 32 -207 88 -207c55 0 82 65 82 197c0 140 -28 208 -85 208zM480 594c94 0 142 -82 142 -244c0 -156 -51 -240 -145 -240c-92 0 -143 88 -143 247c0 157 49 237 146 237z" />
    <glyph glyph-name="a150" unicode="&#xca;" 
d="M380 601c-10 -54 -33 -72 -95 -73h-26v-54h95v-357h91v484h-65zM395 706c198 0 359 -161 359 -360c0 -198 -161 -359 -359 -359c-199 0 -360 161 -360 359c0 199 161 360 360 360z" />
    <glyph glyph-name="a151" unicode="&#xcb;" 
d="M552 183h-222c9 19 22 30 67 61c132 88 162 126 162 205c0 90 -71 156 -168 156c-94 0 -164 -64 -164 -149c0 -6 0 -13 1 -23l88 -8c-1 9 -1 16 -1 20c0 62 28 99 75 99c46 0 77 -38 77 -96c0 -57 -25 -90 -109 -144c-87 -57 -124 -106 -124 -166c0 -4 0 -11 1 -21h317
v66zM395 706c198 0 359 -161 359 -360c0 -198 -161 -359 -359 -359c-199 0 -360 161 -360 359c0 199 161 360 360 360z" />
    <glyph glyph-name="a152" unicode="&#xcc;" 
d="M324 458c1 64 20 89 67 89c43 0 67 -28 67 -79c0 -46 -32 -75 -83 -75c-8 0 -18 1 -39 4v-62c26 4 38 4 51 4c54 0 85 -30 85 -82c0 -48 -31 -81 -75 -81c-53 0 -73 28 -73 102l-82 -17c-1 -9 -1 -17 -1 -24c0 -76 65 -131 155 -131c95 0 162 61 162 149
c0 57 -15 82 -71 116c39 22 58 54 58 100c0 79 -65 137 -153 137c-93 0 -145 -50 -150 -141zM394 706c199 0 360 -161 360 -360c0 -198 -161 -359 -360 -359c-198 0 -359 161 -359 359c0 199 161 360 359 360z" />
    <glyph glyph-name="a153" unicode="&#xcd;" 
d="M551 301h-75v305h-72l-218 -305v-66h208v-118h82v118h75v66zM394 706c199 0 360 -161 360 -360c0 -198 -161 -359 -360 -359c-198 0 -359 161 -359 359c0 199 161 360 359 360zM394 485v-184h-123z" />
    <glyph glyph-name="a154" unicode="&#xce;" 
d="M255 600v-281h71c10 54 35 81 76 81c53 0 80 -37 80 -109c0 -78 -30 -120 -83 -120c-45 0 -73 33 -73 84v6l-71 -19c4 -81 59 -132 142 -132c103 0 175 76 175 183c0 100 -66 167 -164 167c-31 0 -48 -4 -82 -19v94h210v65h-281zM395 706c198 0 359 -161 359 -359
c0 -199 -161 -360 -359 -360c-199 0 -360 161 -360 360c0 198 161 359 360 359z" />
    <glyph glyph-name="a155" unicode="&#xcf;" 
d="M534 491c-15 76 -59 113 -134 113c-116 0 -181 -91 -181 -253c0 -80 12 -136 36 -174c28 -43 80 -71 132 -71c92 0 160 73 160 170c0 92 -61 157 -146 157c-40 0 -63 -10 -98 -40c10 115 32 152 90 152c35 0 49 -13 60 -56c1 -4 3 -10 5 -18zM395 706
c198 0 359 -161 359 -360c0 -198 -161 -359 -359 -359c-199 0 -360 161 -360 359c0 199 161 360 360 360zM389 376c45 0 73 -41 73 -105c0 -62 -27 -100 -70 -100c-47 0 -83 46 -83 107c0 56 34 98 80 98z" />
    <glyph glyph-name="a156" unicode="&#xd0;" 
d="M223 599v-65h262c-99 -124 -164 -267 -189 -416h95c20 116 34 161 73 247c31 68 60 122 99 184v50h-340zM394 706c199 0 360 -161 360 -359c0 -199 -161 -360 -360 -360c-198 0 -359 161 -359 360c0 198 161 359 359 359z" />
    <glyph glyph-name="a157" unicode="&#xd1;" 
d="M480 374c48 27 66 54 66 103c0 77 -61 132 -146 132c-84 0 -150 -57 -150 -131c0 -46 23 -84 64 -104c-55 -22 -82 -62 -82 -119c0 -85 69 -150 161 -150c93 0 163 66 163 153c0 53 -19 82 -76 116zM395 706c198 0 359 -161 359 -360c0 -198 -161 -359 -359 -359
c-199 0 -360 161 -360 359c0 199 161 360 360 360zM393 340c52 0 81 -30 81 -83c0 -52 -32 -88 -79 -88s-80 36 -80 89c0 49 31 82 78 82zM397 551c43 0 69 -28 69 -75c0 -46 -28 -78 -69 -78s-65 29 -65 77c0 46 25 76 65 76z" />
    <glyph glyph-name="a158" unicode="&#xd2;" 
d="M472 321c-8 -104 -36 -155 -87 -155c-32 0 -50 22 -60 73l-76 -14c13 -81 55 -120 131 -120c115 0 177 91 177 257c0 162 -57 246 -166 246c-93 0 -161 -71 -161 -168c0 -91 60 -157 143 -157c41 0 72 12 99 38zM395 706c198 0 359 -161 359 -360
c0 -198 -161 -359 -359 -359c-199 0 -360 161 -360 359c0 199 161 360 360 360zM384 551c48 0 83 -46 83 -107c0 -56 -34 -98 -80 -98c-45 0 -73 41 -73 105c0 62 27 100 70 100z" />
    <glyph glyph-name="a159" unicode="&#xd3;" 
d="M487 608c-106 0 -161 -84 -161 -246c0 -166 55 -256 157 -256c105 0 160 86 160 251s-53 251 -156 251zM235 601c-9 -57 -33 -75 -103 -75v-54h83v-354h86v483h-66zM395 706c198 0 359 -161 359 -359c0 -199 -161 -360 -359 -360c-199 0 -360 161 -360 360
c0 198 161 359 360 359zM484 549c46 0 71 -68 71 -194c0 -125 -23 -190 -68 -190s-73 75 -73 196c0 123 24 188 70 188z" />
    <glyph glyph-name="a160" unicode="&#xd4;" horiz-adv-x="894" 
d="M398 633h179l283 -288l-283 -287h-179l215 224h-578v132h578z" />
    <glyph glyph-name="a161" unicode="&#xd5;" horiz-adv-x="838" 
d="M35 354h589c-48 46 -76 114 -77 184c78 -101 162 -165 256 -195c-42 -11 -81 -31 -138 -73c-48 -34 -74 -61 -118 -118c1 66 19 109 77 182h-589v20z" />
    <glyph glyph-name="a163" unicode="&#xd6;" horiz-adv-x="1016" 
d="M213 354h590c-48 46 -77 114 -77 184c76 -100 162 -165 255 -194c-87 -23 -181 -94 -255 -192c0 66 19 110 77 182h-590c48 -48 76 -114 77 -182c-73 96 -163 163 -256 192c88 24 183 96 256 194c0 -66 -20 -114 -77 -184z" />
    <glyph glyph-name="a164" unicode="&#xd7;" horiz-adv-x="458" 
d="M238 640v-589c47 48 115 77 184 77c-98 -74 -163 -161 -194 -256c-23 88 -95 182 -193 256c65 0 111 -19 184 -77v589c-48 -49 -115 -77 -184 -77c99 77 164 162 193 256c25 -89 97 -184 194 -256c-66 0 -114 20 -184 77z" />
    <glyph glyph-name="a196" unicode="&#xd8;" horiz-adv-x="748" 
d="M123 597l325 -277l78 117l172 -343l-378 51l83 112l-368 215z" />
    <glyph glyph-name="a165" unicode="&#xd9;" horiz-adv-x="924" 
d="M35 440l542 -67l-80 178l393 -205l-393 -206l80 178l-542 -66v188z" />
    <glyph glyph-name="a192" unicode="&#xda;" horiz-adv-x="748" 
d="M123 94l-88 125l368 215l-83 113l378 50l-172 -342l-78 116z" />
    <glyph glyph-name="a166" unicode="&#xdb;" horiz-adv-x="918" 
d="M35 368l363 -14c-39 51 -71 102 -105 168v4l39 -17c216 -92 328 -127 528 -160l24 -4c-58 -5 -113 -16 -219 -43c-109 -28 -169 -49 -333 -118l-39 -17c33 67 66 120 105 171l-363 -15v45z" />
    <glyph glyph-name="a167" unicode="&#xdc;" horiz-adv-x="927" 
d="M582 260h-423h-21c-62 1 -103 36 -103 90c0 53 40 88 103 89h21h423l-50 50c-31 30 -47 58 -47 84c0 49 42 91 92 91c26 0 51 -13 73 -39l14 -15l228 -260l-228 -266l-13 -16c-24 -27 -49 -40 -77 -40c-50 0 -93 42 -93 93c0 28 14 52 48 86z" />
    <glyph glyph-name="a168" unicode="&#xdd;" horiz-adv-x="928" 
d="M35 362h637v200l219 -217l-219 -216v200h-637v33z" />
    <glyph glyph-name="a169" unicode="&#xde;" horiz-adv-x="928" 
d="M35 400h639v161l219 -217l-219 -215v159h-639v112z" />
    <glyph glyph-name="a170" unicode="&#xdf;" horiz-adv-x="834" 
d="M35 434h24v-177h-24v177zM125 434h45v-177h-45v177zM208 434h76v-177h-76v177zM310 434h261v103l228 -191l-228 -191v102h-261v177z" />
    <glyph glyph-name="a171" unicode="&#xe0;" horiz-adv-x="873" 
d="M35 488h19v-287h-19v287zM129 488h33v-287h-33v287zM220 488h50v-287h-50v287zM309 488h71v-287h-71v287zM408 488h175v106h7c43 -115 133 -207 248 -253c-111 -45 -203 -135 -248 -244h-7v104h-175v287z" />
    <glyph glyph-name="a172" unicode="&#xe1;" horiz-adv-x="828" 
d="M35 491h511v97l245 -242l-245 -242v97h-511v290z" />
    <glyph glyph-name="a173" unicode="&#xe2;" horiz-adv-x="924" 
d="M157 537l217 -197l421 -10zM35 610l854 -280l-854 -248l294 256z" />
    <glyph glyph-name="a162" unicode="&#xe3;" horiz-adv-x="924" 
d="M157 154l638 207l-421 -10zM35 82l294 271l-294 257l854 -249z" />
    <glyph glyph-name="a174" unicode="&#xe4;" horiz-adv-x="917" 
d="M35 688l847 -342l-847 -342l201 342z" />
    <glyph glyph-name="a175" unicode="&#xe5;" horiz-adv-x="930" 
d="M545 548l351 -232l-351 -233v83h-315h-30c-65 1 -111 24 -140 73c-20 32 -25 59 -25 142v226h40c0 -112 29 -143 133 -143l46 1h291v83z" />
    <glyph glyph-name="a176" unicode="&#xe6;" horiz-adv-x="931" 
d="M545 144v84h-291h-44c-101 1 -135 -33 -135 -133v-12h-40v228c0 66 5 101 16 126c27 57 78 87 149 88h30h315v83l351 -233z" />
    <glyph glyph-name="a177" unicode="&#xe7;" horiz-adv-x="463" 
d="M429 346l-266 -446v145h-128v601h128v144z" />
    <glyph glyph-name="a178" unicode="&#xe8;" horiz-adv-x="883" 
d="M35 528h395v93h11c62 -92 110 -141 179 -186c71 -46 152 -76 228 -85v-8c-180 -32 -291 -105 -401 -263l-6 -9h-11v93h-395v365z" />
    <glyph glyph-name="a179" unicode="&#xe9;" horiz-adv-x="836" 
d="M433 626v-160h-374v-243h374v-160l250 281zM410 648h128l264 -304l-264 -301h-128v156h-375v291h375v158z" />
    <glyph glyph-name="a193" unicode="&#xea;" horiz-adv-x="836" 
d="M520 626v-160h-373v-243h373v-160l250 280zM407 648h130l265 -305l-265 -300h-130v156h-372v291h372v158z" />
    <glyph glyph-name="a180" unicode="&#xeb;" horiz-adv-x="867" 
d="M669 557l-60 -72h-385l-168 -175h414l-59 -77l399 167zM668 589l164 -182v-117l-449 -189v92h-348v127l180 184h385z" />
    <glyph glyph-name="a199" unicode="&#xec;" horiz-adv-x="867" 
d="M670 133l140 158l-398 167l59 -76h-415l168 -177h386zM669 101l-68 85h-386l-180 186v127h349v92l448 -189v-118z" />
    <glyph glyph-name="a181" unicode="&#xed;" horiz-adv-x="696" 
d="M307 124l259 242l-259 227v-78h-248v-294h248v-97zM283 651l378 -328l-294 -279l-84 63v17h-166l-82 81v341h248v105z" />
    <glyph glyph-name="a200" unicode="&#xee;" horiz-adv-x="696" 
d="M307 469h-248v-287h248v-80l259 225l-259 239v-97zM283 44v105h-248v337l82 80h166v17l84 63l294 -277z" />
    <glyph glyph-name="a182" unicode="&#xef;" horiz-adv-x="874" 
d="M590 557v-57h-514l54 -132l-67 -132h521v-50l192 182zM571 614l269 -272l-275 -267v96h-462l-68 65l68 132l-62 155h530v91z" />
    <glyph glyph-name="a201" unicode="&#xf1;" horiz-adv-x="874" 
d="M590 132l186 189l-192 182v-51h-521l67 -131l-54 -132h514v-57zM571 75v90h-536l68 156l-68 131l68 66h462v95l275 -267z" />
    <glyph glyph-name="a183" unicode="&#xf2;" horiz-adv-x="760" 
d="M35 542c4 35 15 54 39 76c47 42 156 72 260 72c226 0 391 -145 391 -344s-165 -345 -390 -345c-97 0 -202 27 -251 65c-31 23 -44 45 -49 83h354v-120l311 317l-311 317v-121h-354z" />
    <glyph glyph-name="a184" unicode="&#xf3;" horiz-adv-x="946" 
d="M431 330l-102 -152h48l102 152h-48zM350 330l-102 -152h49l102 152h-49zM268 330l-102 -152h51l101 152h-50zM186 330l-100 -152h48l101 152h-49zM327 508l104 -154h49l-104 154h-49zM247 508l102 -154h50l-104 154h-48zM164 508l104 -154h50l-104 154h-50zM83 508
l104 -154h48l-104 154h-48zM731 532c47 -106 104 -166 180 -189c-74 -23 -119 -68 -173 -171l-7 -13c-23 23 -34 50 -34 86c0 35 10 61 34 85h-219l-121 -171h-356l130 184l-130 189h356l121 -178h219c-24 28 -34 53 -34 87c0 36 10 63 34 91z" />
    <glyph glyph-name="a197" unicode="&#xf4;" horiz-adv-x="771" 
d="M210 655l260 -218c0 -6 -1 -12 -1 -15c0 -38 8 -106 17 -152l-259 217c-8 44 -16 124 -17 168zM295 227l-261 218c42 7 88 11 157 13l12 1l259 -218c-61 0 -98 -3 -167 -14zM490 267l125 -105c8 49 32 81 71 93c-1 -14 -2 -25 -2 -32c0 -52 18 -111 52 -175l-8 -12
c-44 15 -98 24 -147 24c-23 0 -40 -3 -66 -12c4 40 36 77 76 85l-125 105z" />
    <glyph glyph-name="a185" unicode="&#xf5;" horiz-adv-x="865" 
d="M35 483h339c41 -47 82 -88 125 -123h-343c-19 16 -31 27 -59 57c-35 36 -45 47 -62 66zM375 209h-339c32 37 70 75 120 118h343c-45 -36 -69 -58 -113 -106zM499 327v33h161c-14 26 -18 43 -18 67c0 26 4 38 18 56c36 -58 77 -91 154 -123c4 -1 9 -4 16 -7v-12
c-77 -33 -139 -81 -170 -132c-14 17 -19 32 -19 58c0 23 6 40 19 59h-161v1z" />
    <glyph glyph-name="a194" unicode="&#xf6;" horiz-adv-x="771" 
d="M210 36c1 44 9 124 17 168l259 218c-9 -46 -17 -114 -17 -153c0 -3 1 -8 1 -15zM295 465l15 -3c57 -8 87 -11 136 -11l16 -1l-259 -217h-12c-68 2 -114 6 -157 13zM490 425l-24 28l125 105c-39 8 -72 45 -76 85c28 -9 47 -13 74 -13c43 0 93 9 139 25l8 -12
c-33 -62 -52 -125 -52 -175c0 -7 1 -18 2 -32c-39 12 -64 44 -71 94z" />
    <glyph glyph-name="a198" unicode="&#xf7;" horiz-adv-x="888" 
d="M295 711l259 -217c-26 -44 -38 -82 -38 -125c0 -64 22 -102 95 -164l101 -85c0 9 -1 16 -1 20c0 54 30 125 77 184c0 -6 0 -11 -1 -15c-1 -17 -2 -28 -2 -33c0 -9 1 -22 5 -56c6 -66 7 -78 13 -101c12 -49 26 -89 50 -137c-51 15 -100 22 -167 22c-60 0 -101 -5 -183 -22
c76 77 115 100 187 113l-102 87c-49 42 -100 66 -139 66c-51 0 -104 -23 -154 -66l-261 218c59 53 112 75 180 75c18 0 33 -3 65 -13c-21 42 -27 65 -27 109c0 46 13 89 43 140z" />
    <glyph glyph-name="a186" unicode="&#xf8;" horiz-adv-x="967" 
d="M35 548h338c9 -63 36 -116 75 -148c34 -28 76 -38 154 -38h132c-46 49 -70 119 -73 206c79 -106 166 -178 271 -223c-85 -32 -168 -98 -256 -204l-15 -18c11 109 25 150 73 206h-134c-67 0 -117 -12 -147 -35c-40 -32 -68 -85 -80 -152h-338c16 105 62 169 147 203
c-85 36 -128 96 -147 203z" />
    <glyph glyph-name="a195" unicode="&#xf9;" horiz-adv-x="888" 
d="M294 -20l-4 8c-29 53 -39 88 -39 134c0 39 7 68 27 108c-33 -11 -47 -14 -63 -14c-68 0 -123 22 -181 74l260 219c50 -43 104 -66 154 -66c38 0 91 25 139 66l102 88c-71 11 -110 35 -187 112c86 -17 126 -22 184 -22c65 0 115 7 167 23c-43 -78 -68 -187 -68 -296
c0 -11 0 -22 2 -47c-47 59 -77 131 -77 185c0 4 1 10 1 19l-101 -85c-71 -60 -97 -103 -97 -162c0 -44 10 -77 40 -127z" />
    <glyph glyph-name="a187" unicode="&#xfa;" horiz-adv-x="831" 
d="M796 352v-13c-94 -26 -133 -62 -164 -148c-21 -58 -42 -78 -82 -78s-72 31 -72 70c0 17 8 37 19 50c32 36 70 54 188 93l42 13c-194 -6 -257 -17 -454 -73c-69 -20 -99 -25 -134 -25c-62 0 -104 41 -104 104c0 64 41 105 106 105c34 0 65 -6 132 -25
c197 -56 256 -66 454 -73l-42 14c-118 38 -155 56 -188 92c-11 13 -19 32 -19 50c0 39 31 70 72 70c40 0 61 -19 82 -77c31 -87 70 -123 164 -149z" />
    <glyph glyph-name="a188" unicode="&#xfb;" horiz-adv-x="873" 
d="M838 350v-10c-102 -43 -196 -142 -214 -225c-49 33 -75 78 -75 130c0 40 16 65 61 94h-25c-80 0 -153 -25 -207 -72l-27 -23c-54 -47 -93 -66 -138 -66c-59 0 -95 35 -122 115c-13 40 -24 51 -55 57c31 6 41 15 55 54c29 81 61 110 125 110c49 0 76 -14 148 -76
c77 -67 130 -85 246 -86c-43 27 -62 56 -62 92c0 52 27 100 76 132c16 -81 110 -181 214 -226z" />
    <glyph glyph-name="a189" unicode="&#xfc;" horiz-adv-x="927" 
d="M50 477c-9 14 -14 28 -14 38c0 17 16 27 44 27h242h19c17 0 29 -8 46 -29l54 -66c35 -42 46 -48 94 -48h82c26 0 36 7 36 24c0 9 -2 18 -6 26l-11 20c-4 6 -5 13 -5 21c0 22 27 38 66 38c16 0 33 -7 46 -19l121 -110c17 -15 27 -34 27 -53s-8 -34 -29 -53l-107 -101
c-24 -22 -41 -31 -61 -31c-28 0 -63 21 -63 38c0 7 2 16 7 26c12 26 15 34 15 44c0 15 -12 24 -33 24h-81c-53 0 -63 -5 -97 -48l-48 -59c-27 -33 -35 -37 -78 -37h-244c-21 0 -37 13 -37 31c0 6 2 12 5 17l9 12l62 100l10 17c4 6 6 14 6 21c0 10 -2 15 -18 40z" />
    <glyph glyph-name="a190" unicode="&#xfd;" horiz-adv-x="970" 
d="M46 486c-9 28 -11 38 -11 55c0 53 27 74 93 74h222c78 0 99 -12 135 -78l43 -78c23 -43 39 -55 68 -55c26 0 40 9 40 26c0 9 -2 19 -5 30c-14 52 -15 58 -15 78c0 37 23 63 58 63c22 0 36 -9 67 -40l148 -151l17 -17c20 -20 25 -29 25 -47c0 -19 -4 -26 -31 -54l-17 -18
l-144 -144c-31 -32 -45 -40 -65 -40c-31 0 -59 27 -59 56c0 14 7 49 15 78c4 14 6 26 6 35c0 17 -13 27 -34 27c-39 0 -50 -9 -82 -66l-39 -69c-36 -65 -55 -76 -131 -76h-220c-71 0 -95 19 -95 72c0 15 2 28 7 44l27 90c3 10 6 19 10 29c5 15 8 27 8 34c0 5 -2 16 -6 30
l-5 18z" />
    <glyph glyph-name="a191" unicode="&#xfe;" horiz-adv-x="918" 
d="M34 258v45h635c-76 -55 -142 -127 -188 -204h-56c27 54 80 124 119 159h-510zM423 592h56c13 -25 40 -60 79 -104c37 -42 62 -65 111 -103h-635v45h510c-52 55 -98 117 -121 162zM565 592h62c15 -28 40 -61 79 -103c49 -54 89 -86 178 -145c-125 -82 -200 -153 -257 -245
h-62l5 7c64 95 113 146 210 221l22 17c-105 79 -172 148 -237 248z" />
  </font>
</defs>
</svg>
