<?xml version="1.0" standalone="no"?>
<!DOCTYPE svg PUBLIC "-//W3C//DTD SVG 1.1//EN" "http://www.w3.org/Graphics/SVG/1.1/DTD/svg11.dtd" >
<svg xmlns="http://www.w3.org/2000/svg" xmlns:xlink="http://www.w3.org/1999/xlink" version="1.1">
<metadata>Created by FontForge</metadata>
<defs>
<font id="qsym" horiz-adv-x="549" >
  <font-face 
    font-family="qsym"
    font-weight="400"
    font-stretch="normal"
    units-per-em="1000"
    panose-1="5 5 1 2 1 7 6 2 5 7"
    ascent="778"
    descent="-222"
    x-height="513"
    cap-height="673"
    bbox="-180 -293 1090 1010"
    underline-thickness="46"
    underline-position="-252"
    stemh="56"
    stemv="54"
    unicode-range="U+0020-00FE"
  />
<missing-glyph horiz-adv-x="250" 
 />
    <glyph glyph-name=".notdef" horiz-adv-x="250" 
 />
    <glyph glyph-name="space" unicode=" " horiz-adv-x="250" 
 />
    <glyph glyph-name="exclam" unicode="!" horiz-adv-x="333" 
d="M184 100c-31 0 -56 -26 -56 -57s25 -56 56 -56c30 0 56 25 56 56s-26 57 -56 57zM173 186h23l36 356l5 46c2 12 2 23 2 32c0 41 -21 66 -56 66s-55 -25 -55 -71c0 -15 2 -34 6 -72z" />
    <glyph glyph-name="universal" unicode="&#x22;" horiz-adv-x="713" 
d="M191 430h334l-162 -365zM681 673h-53l-82 -194h-378l-85 194h-52l303 -673h57z" />
    <glyph glyph-name="numbersign" unicode="#" horiz-adv-x="500" 
d="M328 386l-19 -129h-126l19 129h126zM458 257h-94l18 129h99v52h-91l28 192h-54l-28 -192h-126l28 192h-53l-29 -192h-111v-53h101l-17 -128h-109v-52h101l-31 -205h56l29 205h126l-30 -205h55l30 205h102v52z" />
    <glyph glyph-name="existential" unicode="$" 
d="M478 673h-453v-51h398v-245h-353v-49h353v-279h-398v-49h453v673z" />
    <glyph glyph-name="percent" unicode="%" horiz-adv-x="833" 
d="M669 324c40 0 70 -32 70 -75c0 -57 -28 -125 -70 -171c-27 -29 -69 -49 -105 -49c-33 0 -54 24 -54 60c0 105 88 235 159 235zM657 360c-113 0 -224 -122 -224 -246c0 -71 51 -121 124 -121c53 0 95 21 133 65c50 58 81 132 81 196s-45 106 -114 106zM359 595
c4 -9 5 -17 5 -39c0 -62 -18 -115 -56 -160c-31 -38 -71 -61 -106 -61c-38 0 -62 23 -62 58c0 50 25 119 63 176c30 44 57 66 81 66c5 0 8 0 13 -2c17 -17 25 -23 51 -33zM231 0l419 673h-53c-24 -43 -80 -71 -141 -71c-30 0 -50 8 -85 31c-42 29 -58 36 -89 36
c-109 0 -219 -121 -219 -242c0 -77 49 -128 124 -128c108 0 205 117 205 249c0 15 -1 22 -5 39c19 -7 46 -11 70 -11c35 0 64 7 103 27l-383 -603h54z" />
    <glyph glyph-name="ampersand" unicode="&#x26;" horiz-adv-x="778" 
d="M257 339l5 -11c47 -92 90 -159 142 -224c-40 -42 -86 -65 -134 -65c-72 0 -132 65 -132 143c0 65 44 122 119 157zM324 413c-24 48 -39 102 -39 139c0 54 29 90 74 90c47 0 80 -36 80 -87c0 -38 -19 -76 -52 -105c-16 -14 -29 -22 -63 -37zM496 426v-21
c46 -2 64 -15 64 -46c0 -42 -40 -121 -91 -180c-39 43 -94 129 -129 202c37 18 58 29 77 44c50 36 77 81 77 130c0 69 -56 120 -132 120c-84 0 -158 -71 -158 -153c0 -44 13 -96 37 -151l-10 -5c-79 -43 -96 -54 -126 -82c-42 -39 -64 -87 -64 -138c0 -96 71 -159 178 -159
c80 0 150 30 211 91c53 -60 113 -91 173 -91c59 0 102 33 147 113l-16 12c-29 -38 -54 -54 -86 -54c-52 0 -101 28 -155 92c27 32 47 61 69 97l49 83c31 54 50 68 103 75v21h-218z" />
    <glyph glyph-name="suchthat" unicode="'" horiz-adv-x="439" 
d="M48 6c35 -14 60 -19 96 -19c71 0 132 24 184 72c54 51 86 119 86 186c0 136 -125 258 -265 258c-22 0 -39 -3 -70 -11v-37c18 1 27 2 36 2c61 0 119 -22 154 -57c35 -36 52 -72 61 -131h-218v-48h218c-8 -56 -23 -89 -55 -125c-35 -38 -95 -62 -154 -62
c-22 0 -45 2 -73 9v-37z" />
    <glyph glyph-name="parenleft" unicode="(" horiz-adv-x="333" 
d="M300 -155c-34 23 -50 38 -70 64c-55 72 -85 196 -85 345c0 136 26 254 72 326c22 35 41 53 83 83l-13 17c-46 -24 -66 -38 -92 -62c-90 -83 -142 -218 -142 -364c0 -137 45 -263 125 -348c31 -32 55 -49 109 -78z" />
    <glyph glyph-name="parenright" unicode=")" horiz-adv-x="333" 
d="M30 -155l13 -17c46 24 66 38 92 62c90 83 142 217 142 364c0 138 -45 263 -125 347c-32 33 -55 51 -109 79l-13 -17c36 -25 51 -39 70 -64c55 -72 85 -196 85 -345c0 -137 -26 -254 -72 -326c-23 -35 -42 -55 -83 -83z" />
    <glyph glyph-name="asteriskmath" unicode="*" horiz-adv-x="500" 
d="M246 546c-22 0 -38 -15 -38 -36c0 -10 2 -18 9 -41l6 -19l3 -8c7 -24 10 -42 10 -57c0 -13 -4 -21 -11 -21c-12 0 -36 16 -55 38l-5 5l-6 6c-2 3 -7 8 -13 15c-23 25 -35 33 -49 33c-17 0 -32 -20 -32 -41c0 -23 13 -33 56 -42c8 -2 15 -4 19 -5l7 -1
c41 -10 66 -23 66 -35c0 -14 -27 -27 -73 -37c-26 -6 -40 -10 -47 -12c-19 -8 -28 -19 -28 -35c0 -21 15 -42 32 -42c14 0 25 8 49 34l13 15l6 6c25 27 47 44 60 44c7 0 11 -8 11 -22c0 -15 -3 -32 -10 -57l-3 -8l-6 -19c-7 -22 -9 -31 -9 -42c0 -20 16 -35 38 -35
s38 15 38 35c0 11 -2 21 -9 42l-6 19c-10 31 -14 48 -14 65c0 14 5 22 12 22c13 0 35 -17 60 -44l5 -6l14 -15c23 -26 35 -34 49 -34c16 0 32 21 32 42c0 15 -8 26 -25 33c-8 4 -18 6 -50 14c-46 10 -74 23 -74 36c0 12 25 26 60 34l7 2l7 1c3 1 10 3 19 5c42 9 56 19 56 42
c0 21 -15 41 -32 41c-14 0 -27 -8 -49 -33c-7 -8 -12 -13 -14 -15l-5 -6l-5 -5c-19 -22 -43 -38 -55 -38c-7 0 -12 7 -12 21c0 18 4 34 14 65l6 19c7 21 9 31 9 42c0 20 -16 35 -38 35z" />
    <glyph glyph-name="plus" unicode="+" 
d="M302 533h-55v-239h-237v-55h237v-239h55v239h237v55h-237v239z" />
    <glyph glyph-name="comma" unicode="," horiz-adv-x="250" 
d="M146 -8c-1 -27 -7 -39 -27 -61c-18 -19 -33 -27 -63 -35v-16c37 4 55 11 83 31c38 29 55 61 55 104c0 49 -33 87 -77 87c-30 0 -54 -25 -54 -57s24 -58 53 -58c9 0 15 1 30 5z" />
    <glyph glyph-name="minus" unicode="-" 
d="M11 294v-55h524v55h-524z" />
    <glyph glyph-name="period" unicode="." horiz-adv-x="250" 
d="M125 100c-31 0 -56 -26 -56 -57s25 -56 56 -56c30 0 56 25 56 56s-26 57 -56 57z" />
    <glyph glyph-name="slash" unicode="/" horiz-adv-x="278" 
d="M254 673h-56l-198 -673h56z" />
    <glyph glyph-name="zero" unicode="0" horiz-adv-x="500" 
d="M249 650c88 0 126 -95 126 -311c0 -217 -39 -311 -127 -311c-45 0 -78 25 -99 73c-19 47 -30 132 -30 238c0 93 9 175 24 220c20 60 56 91 106 91zM251 686c-86 0 -150 -47 -189 -137c-27 -63 -39 -129 -39 -212c0 -213 88 -350 224 -350c137 0 224 136 224 349
c0 211 -87 350 -220 350z" />
    <glyph glyph-name="one" unicode="1" horiz-adv-x="500" 
d="M390 26c-84 6 -95 19 -95 116v531h-18c-40 -25 -75 -43 -160 -85v-29c31 13 50 19 62 19c22 0 32 -17 33 -56l1 -38v-342c0 -96 -13 -111 -96 -116v-26h273v26z" />
    <glyph glyph-name="two" unicode="2" horiz-adv-x="500" 
d="M25 0h396l54 134h-25c-31 -53 -49 -61 -136 -61h-192c81 79 121 121 161 172c81 102 116 179 116 259c0 105 -74 182 -176 182c-52 0 -94 -20 -128 -61c-28 -33 -40 -64 -50 -125h17c11 33 19 48 33 65c24 29 60 46 96 46c70 0 131 -69 131 -147
c0 -96 -71 -221 -198 -349l-75 -77c-3 -2 -11 -11 -24 -24v-14z" />
    <glyph glyph-name="three" unicode="3" horiz-adv-x="500" 
d="M188 361v-25h9c53 0 87 -14 117 -49c29 -32 44 -72 44 -120c0 -79 -49 -134 -120 -134c-39 0 -63 8 -104 38c-30 21 -44 28 -59 28c-20 0 -36 -17 -36 -37c0 -40 70 -75 147 -75c137 0 249 104 249 233c0 75 -34 126 -111 166c69 53 96 98 96 158c0 81 -66 142 -152 142
s-138 -43 -172 -141l15 -9c37 61 71 84 124 84c63 0 108 -47 108 -113c0 -37 -15 -71 -41 -98c-27 -28 -71 -48 -103 -48h-11z" />
    <glyph glyph-name="four" unicode="4" horiz-adv-x="500" 
d="M288 556v-309h-218zM288 0h82v183h99v64h-99v433h-51l-303 -433v-64h272v-183z" />
    <glyph glyph-name="five" unicode="5" horiz-adv-x="500" 
d="M398 596l45 95l-15 8c-16 -21 -26 -26 -50 -26h-186l-115 -262c59 -2 98 -11 143 -35c76 -41 121 -109 121 -183c0 -81 -58 -149 -129 -149c-31 0 -63 10 -92 30c-30 20 -28 19 -33 21c-9 4 -17 6 -24 6c-19 0 -34 -17 -34 -36c0 -42 61 -78 133 -78
c133 0 246 113 246 246c0 74 -33 143 -93 192c-39 32 -78 49 -158 69l44 102h197z" />
    <glyph glyph-name="six" unicode="6" horiz-adv-x="500" 
d="M130 335c0 0 2 1 7 3c9 5 13 8 20 11c32 16 55 22 84 22c51 0 84 -21 107 -69c20 -39 31 -89 31 -136c0 -87 -44 -143 -112 -143c-87 0 -143 91 -143 232c0 32 1 53 6 80zM433 667v18h-20c-90 0 -165 -29 -233 -88c-89 -80 -144 -207 -144 -332c0 -159 93 -278 216 -278
c118 0 215 103 215 229c0 119 -81 203 -197 203c-45 0 -87 -13 -131 -42c12 54 34 104 68 154c57 82 124 123 226 136z" />
    <glyph glyph-name="seven" unicode="7" horiz-adv-x="500" 
d="M448 673h-362l-62 -164h30c12 25 23 41 39 58c21 20 37 25 83 25h29h155l-210 -583c24 -6 32 -8 57 -16z" />
    <glyph glyph-name="eight" unicode="8" horiz-adv-x="500" 
d="M266 388c0 0 -8 5 -19 14c-18 13 -35 27 -52 42c-44 40 -62 72 -62 109c0 53 50 97 111 97c66 0 114 -51 114 -120c0 -57 -24 -94 -92 -142zM224 313l23 -19c96 -84 121 -120 121 -172c0 -56 -48 -97 -112 -97c-78 0 -125 49 -125 132c0 58 28 105 93 156zM196 334
c-39 -26 -56 -38 -78 -59c-41 -38 -64 -85 -64 -131c0 -91 81 -157 194 -157c111 0 192 71 192 168c0 71 -38 125 -148 212c92 51 134 103 134 164c0 87 -80 155 -181 155c-105 0 -183 -68 -183 -160c0 -34 12 -69 36 -100c22 -28 43 -48 98 -92z" />
    <glyph glyph-name="nine" unicode="9" horiz-adv-x="500" 
d="M362 331c0 0 -2 -1 -7 -3c-9 -5 -14 -7 -20 -9c-36 -15 -60 -21 -88 -21c-75 0 -121 79 -121 206c0 89 44 147 110 147c81 0 136 -89 136 -220c0 -35 -2 -60 -10 -100zM46 8v-20c15 -1 28 -1 35 -1c202 0 379 197 379 423c0 64 -17 129 -48 180c-36 61 -99 96 -172 96
c-120 0 -209 -97 -209 -229c0 -121 79 -204 193 -204c42 0 70 8 128 38c-36 -118 -97 -201 -182 -249c-39 -22 -65 -30 -124 -34z" />
    <glyph glyph-name="colon" unicode=":" horiz-adv-x="278" 
d="M137 463c-31 0 -56 -26 -56 -56c0 -31 25 -57 56 -57c30 0 56 26 56 57c0 30 -26 56 -56 56zM137 100c-31 0 -56 -26 -56 -57s25 -56 56 -56c30 0 56 25 56 56s-26 57 -56 57z" />
    <glyph glyph-name="semicolon" unicode=";" horiz-adv-x="278" 
d="M173 -8c-1 -27 -7 -39 -27 -61c-18 -19 -33 -27 -63 -35v-16c37 4 55 11 83 31c38 29 55 61 55 104c0 49 -33 87 -77 87c-30 0 -54 -25 -54 -57s24 -58 53 -58c9 0 15 1 30 5zM154 463c-30 0 -55 -25 -55 -56c0 -32 25 -57 55 -57c32 0 57 25 57 57c0 31 -25 56 -57 56z
" />
    <glyph glyph-name="less" unicode="&#x3c;" 
d="M523 522l-497 -234v-55l497 -233v62l-418 199l418 199v62z" />
    <glyph glyph-name="equal" unicode="=" 
d="M537 197h-526v-55h526v55zM537 391h-526v-55h526v55z" />
    <glyph glyph-name="greater" unicode="&#x3e;" 
d="M26 522v-62l418 -199l-418 -199v-62l497 233v55z" />
    <glyph glyph-name="question" unicode="?" horiz-adv-x="444" 
d="M239 99c-31 0 -56 -26 -56 -56c0 -31 25 -56 56 -56c30 0 56 25 56 56s-26 56 -56 56zM243 176c1 29 3 43 7 61c8 32 27 69 48 93l42 45c48 55 72 106 72 161c0 88 -71 150 -173 150c-94 0 -169 -62 -169 -140c0 -43 23 -75 55 -75c24 0 43 18 43 41c0 11 -4 22 -14 34
c-17 24 -18 27 -18 40c0 38 37 67 85 67c60 0 96 -46 96 -121c0 -25 -4 -46 -13 -72c-6 -18 -11 -29 -38 -83c-37 -74 -42 -99 -45 -201h22z" />
    <glyph glyph-name="congruent" unicode="@" 
d="M489 475c-22 -26 -31 -35 -42 -43c-18 -13 -41 -21 -63 -21c-18 0 -32 3 -99 24c-74 23 -97 28 -125 28c-57 0 -104 -27 -143 -84l43 -34c45 53 61 63 99 63c18 0 29 -2 64 -12l48 -15l49 -15c24 -7 44 -10 65 -10c65 0 113 28 144 86zM537 55h-526v-55h526v55zM537 245
h-526v-55h526v55z" />
    <glyph glyph-name="Alpha" unicode="A" horiz-adv-x="722" 
d="M317 501l109 -246h-215zM353 673h-12l-223 -531c-40 -95 -51 -106 -114 -116v-26h194v26c-38 2 -55 15 -55 41c0 16 4 32 23 74l30 73h243l31 -73l8 -20c12 -28 15 -40 15 -54c0 -25 -13 -37 -47 -41v-26h238v26c-46 10 -58 21 -80 68l-22 48z" />
    <glyph glyph-name="Beta" unicode="B" horiz-adv-x="667" 
d="M222 332h70c116 0 177 -50 177 -146s-60 -146 -174 -146c-36 0 -60 2 -68 5c-3 2 -5 5 -5 11v276zM222 370v251c0 7 2 11 7 11c5 1 34 2 54 2c52 0 78 -3 100 -12c43 -17 71 -63 71 -116c0 -84 -61 -136 -162 -136h-70zM29 0h326c58 0 102 8 137 26c64 33 100 90 100 158
c0 57 -26 101 -78 132c-27 16 -50 24 -100 34c88 15 143 70 143 144c0 65 -34 120 -94 152c-37 19 -83 27 -162 27h-272v-27h3c32 0 60 -11 73 -31c12 -17 15 -32 15 -84v-389c0 -52 -3 -67 -15 -85c-13 -19 -41 -31 -73 -31h-3v-26z" />
    <glyph glyph-name="Chi" unicode="C" horiz-adv-x="722" 
d="M385 0h319v26c-49 4 -72 11 -97 31c-23 18 -32 30 -66 84l-142 229l120 161c66 90 98 110 185 116v26h-251v-26h14c35 0 50 -10 50 -32c0 -10 -5 -21 -16 -37c-11 -15 -27 -37 -34 -47l-94 -122l-78 122c-30 49 -39 67 -39 80c0 23 19 36 52 36h21v26h-325v-26
c51 -4 74 -11 100 -31c24 -18 32 -29 68 -85l136 -210l-140 -180c-44 -57 -52 -66 -78 -84c-28 -19 -50 -26 -99 -31v-26h248v26h-14c-33 0 -49 10 -49 32c0 10 5 21 17 37l34 46l101 138l91 -137c24 -38 39 -68 39 -82c0 -22 -20 -34 -57 -34h-16v-26z" />
    <glyph glyph-name="Delta" unicode="D" horiz-adv-x="612" 
d="M77 51l213 458l189 -458h-402zM6 0h602l-281 687z" />
    <glyph glyph-name="Epsilon" unicode="E" horiz-adv-x="611" 
d="M32 0h532l53 173h-26l-4 -8c-38 -95 -83 -124 -190 -124h-130c-36 0 -42 7 -42 51v237h142c87 0 106 -17 109 -97h25v238h-25v-1c0 -32 -4 -53 -16 -70c-15 -22 -38 -29 -93 -29h-142v262h165c88 0 127 -34 140 -121h26l-10 162h-514v-26h3c32 0 60 -12 73 -31
c12 -18 15 -33 15 -85v-389c0 -52 -3 -68 -15 -85c-13 -19 -41 -31 -73 -31h-3v-26z" />
    <glyph glyph-name="Phi" unicode="F" horiz-adv-x="763" 
d="M433 167v345c134 -8 200 -65 200 -176c0 -60 -22 -102 -71 -133c-34 -21 -67 -30 -129 -36zM335 512v-345c-135 8 -201 65 -201 176c0 60 22 102 71 133c35 21 68 30 130 36zM335 549h-7c-57 -1 -106 -9 -146 -22c-99 -34 -156 -104 -156 -191c0 -76 47 -140 129 -176
c48 -21 99 -31 169 -31h11c-1 -46 -5 -60 -17 -75c-17 -19 -41 -28 -80 -28v-26h292v26c-36 0 -57 7 -75 23c-17 15 -21 30 -22 80h10c181 0 298 82 298 207c0 81 -50 148 -137 184c-45 18 -99 28 -164 29h-7c1 41 5 56 16 70c18 19 41 27 81 28v26h-292v-26
c36 -1 56 -7 75 -23c16 -15 20 -30 22 -75z" />
    <glyph glyph-name="Gamma" unicode="G" horiz-adv-x="603" 
d="M217 632h226c88 0 127 -34 140 -121h26l-11 162h-574v-26h3c32 0 60 -12 73 -31c12 -18 15 -33 15 -85v-389c0 -52 -3 -68 -15 -85c-13 -19 -41 -31 -73 -31h-3v-26h301v26h-10c-38 0 -70 12 -84 31c-12 16 -14 32 -14 85v490z" />
    <glyph glyph-name="Eta" unicode="H" horiz-adv-x="722" 
d="M232 364v167c0 52 3 67 14 85c14 19 41 31 74 31h3v26h-284v-26h3c32 0 60 -12 73 -31c12 -18 15 -33 15 -85v-389c0 -52 -3 -68 -15 -85c-13 -19 -41 -31 -73 -31h-3v-26h284v26h-3c-33 0 -60 12 -74 31c-11 17 -14 33 -14 85v180h304v-180c0 -52 -3 -68 -14 -85
c-14 -19 -41 -31 -74 -31h-3v-26h284v26h-3c-33 0 -60 12 -73 31c-12 17 -15 33 -15 85v389c0 52 3 67 15 85c13 19 40 31 73 31h3v26h-284v-26h3c33 0 60 -12 74 -31c11 -18 14 -33 14 -85v-167h-304z" />
    <glyph glyph-name="Iota" unicode="I" horiz-adv-x="333" 
d="M316 26h-3c-33 0 -60 12 -74 31c-11 17 -14 33 -14 85v389c0 52 3 67 14 85c14 19 41 31 74 31h3v26h-284v-26h3c32 0 60 -12 73 -31c12 -18 15 -33 15 -85v-389c0 -52 -3 -68 -15 -85c-13 -19 -41 -31 -73 -31h-3v-26h284v26z" />
    <glyph glyph-name="theta1" unicode="J" horiz-adv-x="631" 
d="M470 382c-116 46 -190 123 -190 198c0 41 25 70 62 70c29 0 59 -21 78 -54c25 -45 35 -88 48 -193zM623 267v63l-8 2c-12 4 -20 6 -24 7l-26 9c-4 2 -10 4 -17 6l-2 17c-5 64 -15 120 -25 152c-13 40 -37 82 -65 111c-33 35 -68 52 -104 52c-61 0 -106 -49 -106 -117
c0 -94 80 -180 224 -240c0 -19 1 -37 1 -48c0 -73 -17 -148 -43 -192c-27 -44 -62 -66 -107 -66c-36 0 -68 18 -83 46c-10 20 -18 57 -18 84c0 12 0 20 2 39c1 20 3 39 6 59l7 59c3 24 4 47 4 60c0 53 -41 93 -95 93c-53 0 -89 -35 -119 -114l-7 -19h27c29 53 40 65 62 65
c25 0 44 -18 44 -43c0 -8 -1 -21 -3 -36l-7 -52c-6 -46 -9 -86 -9 -115c0 -97 67 -162 167 -162c107 0 181 53 220 157c20 52 28 99 29 155c6 -3 10 -4 11 -5l26 -11c23 -10 26 -11 38 -16z" />
    <glyph glyph-name="Kappa" unicode="K" horiz-adv-x="722" 
d="M228 336v195c0 52 3 67 14 85c14 19 41 31 74 31h3v26h-284v-26h3c32 0 60 -12 73 -31c12 -18 15 -33 15 -85v-389c0 -52 -3 -68 -15 -85c-13 -19 -41 -31 -73 -31h-3v-26h284v26h-3c-33 0 -60 12 -74 31c-11 17 -14 33 -14 85v143l39 33c51 -50 65 -65 155 -172
c49 -57 63 -79 63 -96c0 -16 -14 -24 -45 -24h-33v-26h315v26c-50 5 -85 23 -123 66l-34 39l-222 256l17 17c15 15 20 20 26 25l71 77l57 58c66 69 91 83 156 83h8v26h-271v-26h23c38 -1 57 -10 57 -27c0 -11 -20 -38 -73 -99c-30 -33 -37 -41 -99 -102
c-52 -51 -57 -56 -87 -83z" />
    <glyph glyph-name="Lambda" unicode="L" horiz-adv-x="686" 
d="M313 501l153 -359l8 -21c12 -28 15 -40 15 -54c0 -25 -13 -37 -47 -41v-26h238v26c-46 10 -58 21 -80 68l-22 48l-235 545l-229 -545c-39 -92 -50 -104 -108 -116v-26h188v26c-38 2 -55 15 -55 41c0 16 5 33 23 75z" />
    <glyph glyph-name="Mu" unicode="M" horiz-adv-x="889" 
d="M424 1l270 540v-399c0 -52 -3 -68 -14 -85c-14 -19 -41 -31 -74 -31h-3v-26h284v26h-3c-33 0 -60 12 -74 31c-11 17 -14 33 -14 85v389c0 52 3 68 14 85c14 19 42 31 74 31h3v26h-174l-253 -503l-245 503h-187v-26h3c33 0 60 -12 73 -31c12 -18 15 -33 15 -85v-389
c0 -52 -3 -68 -15 -85c-13 -19 -41 -31 -73 -31h-3v-26h226v26h-3c-33 0 -60 12 -74 31c-12 18 -14 33 -14 85v399z" />
    <glyph glyph-name="Nu" unicode="N" horiz-adv-x="722" 
d="M258 26h-5c-33 0 -61 12 -74 31c-12 17 -14 33 -14 85v390l419 -532h45v531c0 53 3 68 14 85c14 19 41 31 72 31h5v26h-224v-26h3c33 0 60 -12 74 -31c12 -18 14 -32 14 -85v-371l-398 513h-159v-26h4c33 0 60 -12 73 -31c12 -17 15 -32 15 -84v-390
c0 -56 -2 -66 -15 -85c-13 -20 -39 -31 -73 -31h-5v-26h229v26z" />
    <glyph glyph-name="Omicron" unicode="O" horiz-adv-x="722" 
d="M370 647c137 0 227 -126 227 -319c0 -113 -32 -206 -86 -257c-31 -28 -79 -45 -128 -45c-135 0 -224 125 -224 316c0 189 80 305 211 305zM378 686c-195 0 -337 -147 -337 -349c0 -203 142 -350 336 -350c196 0 338 146 338 349s-142 350 -337 350z" />
    <glyph glyph-name="Pi" unicode="P" horiz-adv-x="768" 
d="M25 0h284v26h-3c-33 0 -60 12 -74 31c-11 17 -14 33 -14 85v378v32c0 62 21 78 97 79c30 1 70 1 98 1c134 0 139 -4 139 -112v-378c0 -52 -3 -68 -15 -85c-13 -19 -40 -31 -73 -31h-3v-26h284v26h-3c-33 0 -60 12 -74 31c-11 17 -14 33 -14 85v389c0 52 3 67 14 84
c14 20 41 31 74 31h3v27h-720v-27h3c32 0 60 -11 73 -31c12 -17 15 -32 15 -84v-389c0 -52 -3 -68 -15 -85c-13 -19 -41 -31 -73 -31h-3v-26z" />
    <glyph glyph-name="Theta" unicode="Q" horiz-adv-x="741" 
d="M370 647c137 0 227 -126 227 -319c0 -113 -32 -206 -86 -257c-31 -28 -79 -45 -128 -45c-135 0 -224 125 -224 316c0 189 80 305 211 305zM378 686c-195 0 -337 -147 -337 -349c0 -203 142 -350 336 -350c196 0 338 146 338 349s-142 350 -337 350zM504 457h-24
c-5 -60 -21 -75 -86 -75h-34c-62 0 -80 17 -85 75h-24v-229h24c6 62 22 76 87 76h33c66 0 81 -14 85 -76h24v229z" />
    <glyph glyph-name="Rho" unicode="R" horiz-adv-x="556" 
d="M221 359v253c0 16 8 20 41 20l44 1c90 1 141 -50 141 -140c0 -50 -17 -93 -48 -119c-23 -18 -54 -27 -97 -27c-24 0 -44 3 -81 12zM337 26h-15c-38 0 -72 12 -87 31c-11 15 -14 32 -14 85v173c34 -8 76 -12 108 -12c72 0 133 16 170 46c40 31 64 85 64 142
c0 104 -71 170 -191 180c-25 2 -37 2 -98 2h-246v-26h3c32 0 60 -12 73 -31c12 -18 15 -33 15 -85v-389c0 -52 -3 -68 -15 -85c-13 -19 -41 -31 -73 -31h-3v-26h309v26z" />
    <glyph glyph-name="Sigma" unicode="S" horiz-adv-x="592" 
d="M167 632h169c116 0 147 -23 164 -122h26l-10 163h-494l218 -353l-235 -320h530l54 180h-26c-32 -80 -62 -97 -178 -97h-267l211 286z" />
    <glyph glyph-name="Tau" unicode="T" horiz-adv-x="611" 
d="M479 26h-20c-33 0 -60 12 -74 31c-12 18 -14 32 -14 85v486h74c97 0 128 -26 137 -113h25l-11 158h-552l-11 -158h26c7 85 43 113 145 113h65v-486c0 -52 -3 -68 -15 -85c-13 -19 -41 -31 -73 -31h-20v-26h318v26z" />
    <glyph glyph-name="Upsilon" unicode="U" horiz-adv-x="690" 
d="M396 291l146 240c54 90 75 105 152 116v26h-229v-26h11c40 0 55 -10 55 -35c0 -16 -13 -47 -34 -81l-118 -184l-114 184c-7 12 -22 39 -27 47c-7 13 -11 27 -11 36c0 21 19 33 55 33h19v26h-309v-26c80 -10 102 -26 156 -116l146 -240v-149c0 -52 -3 -68 -15 -85
c-13 -19 -41 -31 -73 -31h-3v-26h284v26h-3c-33 0 -61 12 -74 31c-12 17 -14 33 -14 85v149z" />
    <glyph glyph-name="sigma1" unicode="V" horiz-adv-x="439" 
d="M239 433c9 0 23 -1 39 -4l11 -2l11 -2l27 -6c10 -2 22 -3 32 -3c36 0 57 15 57 40c0 33 -47 57 -112 57c-143 0 -264 -139 -264 -304c0 -122 74 -216 171 -216c2 0 10 0 19 1h33c4 1 8 1 11 1h12c14 1 24 1 30 2c9 0 18 1 23 1c35 0 53 -19 53 -52c0 -43 -28 -77 -64 -77
c-5 0 -11 1 -17 3l-17 6l-7 2l-8 2c-10 3 -22 5 -32 5c-35 0 -57 -18 -57 -46c0 -34 38 -63 81 -63c90 0 165 84 165 185c0 46 -17 86 -46 112c-22 19 -44 27 -80 27c-11 0 -29 0 -45 -1l-13 -1c-5 0 -10 0 -12 -1c-21 -1 -38 -2 -46 -2c-62 0 -112 64 -112 144
c0 102 74 192 157 192z" />
    <glyph glyph-name="Omega" unicode="W" horiz-adv-x="768" 
d="M326 0l-18 154c-78 45 -128 134 -128 228c0 52 15 111 41 158c36 65 96 102 164 102c69 0 128 -37 164 -102c26 -47 41 -105 41 -158c0 -94 -50 -183 -128 -228l-18 -154h292v153h-24c-7 -44 -29 -63 -69 -63h-146l3 38c36 13 57 22 80 38c77 49 122 130 122 216
c0 67 -28 140 -77 196c-60 70 -145 108 -240 108s-180 -38 -240 -108c-48 -56 -77 -130 -77 -196c0 -86 45 -167 122 -216c23 -15 44 -25 80 -38l3 -38h-146c-40 0 -62 19 -69 63h-24v-153h292z" />
    <glyph glyph-name="Xi" unicode="X" horiz-adv-x="645" 
d="M446 457h-24c-6 -60 -22 -75 -87 -75h-34c-62 0 -80 16 -84 75h-24v-229h24c5 62 21 76 87 76h32c66 0 82 -14 86 -76h24v229zM571 180c-25 -82 -49 -96 -173 -96h-172c-112 0 -135 14 -160 96h-26l38 -180h482l39 180h-28zM560 673h-482l-10 -168h26c12 72 28 84 113 84
h225c83 0 99 -13 112 -84h26z" />
    <glyph glyph-name="Psi" unicode="Y" horiz-adv-x="795" 
d="M447 271c80 -1 135 8 177 28c66 32 107 98 106 171l-2 92c0 37 7 70 20 85c6 8 16 12 33 16v23c-120 -12 -158 -57 -164 -196c-5 -105 -15 -134 -55 -159c-25 -15 -54 -20 -115 -20v220c0 90 18 113 93 116v26h-284v-26c75 -3 93 -26 93 -116v-220c-33 0 -46 0 -66 4
c-48 7 -80 32 -92 71c-5 17 -10 56 -12 104c-6 139 -44 184 -164 196v-23c17 -4 27 -8 33 -16c13 -15 20 -48 20 -85l-2 -92c-1 -64 32 -125 85 -159c46 -29 105 -41 198 -40v-114c0 -59 -5 -88 -20 -105c-12 -13 -43 -24 -69 -24h-19v-28h314v28h-19c-26 0 -57 11 -69 24
c-14 17 -20 46 -20 105v114z" />
    <glyph glyph-name="Zeta" unicode="Z" horiz-adv-x="611" 
d="M618 673h-502l-17 -176h26c13 111 39 133 158 133h182l-421 -630h555l37 171h-26c-18 -74 -63 -120 -126 -126c-18 -2 -48 -4 -59 -4h-230z" />
    <glyph glyph-name="bracketleft" unicode="[" horiz-adv-x="333" 
d="M299 -165v34h-103c-17 0 -23 6 -23 23v718c0 24 4 29 27 29h99v34h-213v-838h213z" />
    <glyph glyph-name="therefore" unicode="\" horiz-adv-x="863" 
d="M639 112c-34 0 -62 -28 -62 -63c0 -34 28 -62 62 -62s62 28 62 62s-28 63 -62 63zM429 433c-34 0 -62 -28 -62 -62c0 -35 28 -63 62 -63s62 28 62 63c0 34 -28 62 -62 62zM225 112c-34 0 -62 -28 -62 -63c0 -34 28 -62 62 -62s62 28 62 62s-28 63 -62 63z" />
    <glyph glyph-name="bracketright" unicode="]" horiz-adv-x="333" 
d="M33 -165h213v838h-213v-34h99c23 0 27 -5 27 -29v-714c0 -22 -5 -27 -29 -27h-97v-34z" />
    <glyph glyph-name="perpendicular" unicode="^" horiz-adv-x="658" 
d="M361 673h-55v-617h-291v-56h637v56h-291v617z" />
    <glyph glyph-name="underscore" unicode="_" horiz-adv-x="500" 
d="M-2 -206v-46h504v46h-504z" />
    <glyph glyph-name="radicalex" unicode="`" horiz-adv-x="500" 
d="M480 913v-56h610v56h-610z" />
    <glyph glyph-name="alpha" unicode="a" horiz-adv-x="631" 
d="M406 241l-23 -65c-35 -103 -75 -151 -125 -151c-31 0 -62 19 -78 49c-21 40 -34 103 -34 176s14 133 41 177c18 29 40 43 71 43c71 0 117 -57 137 -171zM496 500l-61 -172c-26 122 -87 185 -178 185c-46 0 -95 -18 -132 -50c-57 -49 -84 -120 -84 -219
c0 -160 79 -257 209 -257c88 0 153 45 194 134c5 -19 12 -38 23 -62c26 -56 43 -72 75 -72c52 0 77 46 80 151v13h-26c-2 -52 -21 -89 -46 -89c-33 0 -66 54 -78 123l113 315h-89z" />
    <glyph glyph-name="beta" unicode="b" 
d="M159 99v485c0 70 41 119 101 119c63 0 108 -57 108 -137c0 -54 -27 -111 -54 -111c-2 0 -6 0 -10 1l-12 3c-2 0 -4 1 -5 1c-9 2 -17 3 -25 3c-25 0 -44 -15 -44 -35c0 -19 17 -31 44 -31c6 0 11 1 21 3c11 2 23 3 30 3c13 0 20 -2 26 -7c45 -42 72 -118 72 -201
c0 -53 -11 -95 -34 -121c-19 -22 -53 -37 -83 -37c-51 0 -101 23 -135 62zM352 433c77 41 112 87 112 144c0 89 -89 163 -196 163c-108 0 -189 -71 -189 -166v-636c0 -14 -3 -66 -6 -96c-2 -22 -5 -39 -12 -64h82c11 20 16 51 16 105v22v137c53 -40 97 -55 155 -55
c119 0 201 88 201 216c0 109 -53 184 -163 230z" />
    <glyph glyph-name="chi" unicode="c" 
d="M391 500l-129 -237l-36 149c-6 26 -20 56 -32 69c-19 20 -45 32 -70 32c-60 0 -102 -66 -112 -178h27c7 60 36 99 74 99c25 0 50 -16 66 -40c8 -13 17 -36 23 -63l30 -123l-218 -399h106l142 265l16 -88l5 -23c14 -73 20 -93 38 -123s49 -50 78 -50c35 0 72 26 94 65
c17 31 26 68 29 120h-24l-3 -7c-11 -39 -17 -52 -33 -66c-13 -11 -31 -18 -49 -18c-47 0 -72 41 -102 165l-19 79l203 372h-104z" />
    <glyph glyph-name="delta" unicode="d" horiz-adv-x="494" 
d="M284 418c1 0 2 -2 8 -7l11 -11c14 -15 26 -31 37 -48c28 -44 43 -97 43 -153c0 -99 -47 -165 -117 -165s-118 78 -118 193c0 108 45 171 136 191zM256 444c-52 -16 -83 -29 -112 -49c-66 -45 -104 -115 -104 -190c0 -119 95 -218 210 -218c60 0 114 24 162 74
c47 49 69 103 69 171c0 86 -37 160 -109 220c-20 17 -39 30 -95 63c-36 22 -52 32 -71 47c-39 30 -59 56 -59 77c0 33 32 59 72 59c37 0 58 -11 95 -48l10 -11c30 -30 48 -40 70 -40c27 0 47 18 47 42c0 55 -87 99 -193 99c-93 0 -151 -38 -151 -99c0 -37 16 -64 61 -106z
" />
    <glyph glyph-name="epsilon" unicode="e" horiz-adv-x="439" 
d="M130 261c-40 -14 -59 -25 -77 -45c-19 -21 -31 -52 -31 -81c0 -86 88 -148 212 -148c111 0 173 41 193 129l-24 9c-21 -63 -58 -88 -129 -88c-49 0 -89 12 -116 36c-20 17 -29 37 -29 69c0 59 35 97 87 97c10 0 19 -1 29 -3c13 -3 26 -4 35 -4c30 0 52 14 52 32
c0 16 -12 24 -34 24c-9 0 -20 -1 -35 -2l-6 -1h-6l-15 -2c-9 -1 -17 -1 -23 -1c-50 0 -84 35 -84 89c0 60 42 107 95 107c31 0 58 -16 67 -41l2 -7l2 -6l4 -10c9 -26 28 -43 51 -43c26 0 48 22 48 50c0 54 -67 92 -161 92c-64 0 -109 -14 -148 -45c-36 -28 -53 -58 -53 -96
c0 -33 15 -64 40 -82c14 -9 23 -14 54 -29z" />
    <glyph glyph-name="phi" unicode="f" horiz-adv-x="521" 
d="M279 466c70 -26 113 -120 113 -248c0 -119 -40 -187 -113 -191v439zM238 33c-28 11 -49 27 -63 50c-32 49 -51 125 -51 204c0 113 43 183 114 186v-440zM279 -8c124 17 211 129 211 271c0 138 -84 235 -211 245v80c0 37 1 56 3 79l-47 19c2 -20 2 -27 2 -45
c1 -16 1 -35 1 -44v-89l-2 -1c-119 -13 -209 -128 -209 -265c0 -139 86 -241 211 -251v-101c0 -11 0 -32 -1 -50c0 -21 0 -29 -2 -51l47 -11c-2 25 -2 37 -3 53v27v27v107z" />
    <glyph glyph-name="gamma" unicode="g" horiz-adv-x="411" 
d="M377 500l-111 -344l-30 155c-30 153 -61 202 -129 202c-31 0 -57 -13 -73 -36c-22 -32 -27 -57 -29 -141v-13h22c2 27 4 43 8 56c11 33 35 53 64 53c27 0 46 -17 65 -58c24 -52 50 -143 60 -218l12 -83l-5 -15l-29 -81c-19 -55 -25 -84 -25 -118c0 -47 21 -78 52 -78
c42 0 69 51 69 131c0 29 -5 79 -16 144l-1 11l203 433h-107z" />
    <glyph glyph-name="eta" unicode="h" horiz-adv-x="603" 
d="M119 0h88v364c36 55 71 79 115 79c57 0 92 -39 92 -103v-439c0 -34 6 -73 20 -123h93c-16 49 -22 75 -22 100v491c0 84 -60 144 -143 144c-59 0 -100 -27 -155 -102c-5 30 -10 43 -19 57c-16 23 -45 37 -75 37c-41 0 -79 -25 -98 -65c-11 -23 -15 -45 -15 -82h24
c6 62 20 91 44 91c31 0 52 -38 52 -93z" />
    <glyph glyph-name="iota" unicode="i" horiz-adv-x="329" 
d="M175 513c-46 -20 -113 -40 -175 -53v-25c19 2 31 3 39 3c32 0 46 -15 48 -49c0 -10 1 -25 1 -32v-241c0 -53 5 -75 20 -96c16 -21 42 -33 71 -33c38 0 74 19 96 51c11 17 18 35 26 69l-28 1l-2 -7c-8 -42 -24 -62 -47 -62c-33 0 -50 31 -50 92z" />
    <glyph glyph-name="phi1" unicode="j" horiz-adv-x="603" 
d="M349 42l-12 263c-1 11 -1 21 -1 27c0 66 19 104 53 104c55 0 110 -101 110 -201c0 -109 -60 -186 -150 -193zM249 508c-46 -3 -77 -13 -114 -38c-65 -45 -99 -113 -99 -200c0 -147 105 -262 246 -269v-223h67v223c130 2 238 123 238 267c0 131 -88 245 -189 245
c-75 0 -125 -63 -125 -157v-22l1 -17l8 -273c-87 12 -136 99 -136 239c0 109 34 175 103 202v23z" />
    <glyph glyph-name="kappa" unicode="k" 
d="M197 290v223c-32 -17 -38 -19 -87 -34c-34 -9 -48 -13 -77 -19v-25c18 2 29 3 37 3c32 0 46 -15 48 -49c0 -10 1 -25 1 -32v-357h78v250l145 -176l9 -12c12 -14 14 -18 14 -23c0 -13 -7 -16 -39 -19h-5v-20h237v24h-9c-15 0 -25 2 -38 7c-21 10 -26 15 -63 60l-17 20
l-155 195l44 41l16 15c51 48 73 63 90 63c8 0 15 -3 27 -13l6 -4l5 -5c11 -8 20 -11 33 -11c34 0 61 23 61 53c0 33 -31 56 -75 56c-25 0 -45 -6 -69 -22c-35 -22 -114 -89 -166 -142c-9 -9 -16 -15 -19 -18z" />
    <glyph glyph-name="lambda" unicode="l" 
d="M75 569c7 57 36 91 81 91c33 0 59 -25 74 -70c7 -21 16 -54 25 -92l-231 -498h94l170 358l4 -21l9 -57c5 -32 17 -93 23 -120c9 -46 18 -77 25 -95c21 -51 55 -78 96 -78c39 0 70 24 87 68c11 27 15 54 16 101h-21c-8 -52 -31 -81 -67 -81c-22 0 -46 13 -60 33
c-17 24 -29 60 -41 122l-5 25l-27 129c-1 3 -2 9 -4 19c-7 42 -24 117 -35 157c-16 62 -34 110 -48 131c-22 31 -52 49 -85 49c-61 0 -93 -52 -104 -171h24z" />
    <glyph glyph-name="mu" unicode="m" horiz-adv-x="576" 
d="M442 500h-89v-369c-35 -51 -69 -73 -112 -73c-57 0 -91 41 -91 111v331h-88v-480c0 -22 -4 -46 -12 -76l-9 -36c-5 -20 -8 -39 -8 -55c0 -43 21 -72 50 -72c28 0 48 30 48 74c0 21 -2 34 -19 92c-9 35 -11 46 -11 73v13c41 -36 64 -46 98 -46c50 0 102 31 155 93
c8 -32 12 -44 23 -59c15 -22 42 -34 71 -34c62 0 105 44 119 121l-27 1c-4 -38 -25 -69 -49 -69c-30 0 -50 37 -50 91z" />
    <glyph glyph-name="nu" unicode="n" horiz-adv-x="521" 
d="M-9 459c55 -1 60 -4 83 -63l161 -409h30l5 13c11 27 20 49 26 62l27 55l9 19l59 110l9 17c12 22 38 75 48 97c17 39 27 72 27 94c0 32 -26 59 -57 59c-29 0 -54 -25 -54 -55c0 -5 1 -11 2 -17l5 -22l2 -9l1 -9c5 -24 7 -39 7 -50c0 -24 -9 -53 -25 -84l-7 -12l-69 -134
l-155 392c-48 -16 -82 -22 -134 -25v-29z" />
    <glyph glyph-name="omicron" unicode="o" 
d="M251 476c90 0 151 -105 151 -259c0 -122 -43 -193 -118 -193c-39 0 -77 22 -99 56c-32 50 -51 127 -51 207c0 117 45 189 117 189zM273 513c-133 0 -238 -119 -238 -271c0 -147 96 -255 227 -255c134 0 239 121 239 276c0 146 -95 250 -228 250z" />
    <glyph glyph-name="pi" unicode="p" 
d="M30 348l6 10c26 41 47 53 92 53h46l-26 -222c-3 -28 -17 -49 -50 -81c-32 -29 -41 -44 -41 -66c0 -31 25 -55 55 -55c40 0 67 37 77 105c4 27 8 58 15 117c4 32 5 43 6 50l2 23l12 129h109c-12 -82 -21 -186 -21 -248c0 -108 39 -176 100 -176c38 0 74 27 97 74
c14 28 18 47 21 97h-24c-5 -48 -24 -73 -57 -73c-20 0 -41 14 -52 35c-9 18 -12 34 -12 65c0 40 3 118 6 159c1 25 3 41 6 67h126v89h-350c-54 0 -73 -7 -102 -35s-43 -57 -61 -117h20z" />
    <glyph glyph-name="theta" unicode="q" horiz-adv-x="521" 
d="M382 368h-236v3c2 117 20 197 53 239c19 24 44 39 65 39c19 0 40 -12 58 -32c38 -41 57 -122 60 -246v-3zM382 312v-3c-3 -122 -20 -200 -54 -244c-18 -23 -44 -39 -64 -39c-19 0 -41 12 -59 32c-38 42 -57 122 -59 251v3h236zM264 686c-40 0 -78 -16 -116 -47
c-68 -56 -105 -162 -105 -303c0 -131 33 -235 92 -291c40 -38 85 -58 129 -58c39 0 78 15 116 47c68 56 105 161 105 302c0 131 -33 235 -92 292c-40 37 -85 58 -129 58z" />
    <glyph glyph-name="rho" unicode="r" 
d="M144 322v19c0 64 34 112 80 112c95 0 174 -108 174 -236c0 -108 -55 -181 -137 -181c-34 0 -68 18 -91 49c-14 18 -19 33 -20 58v12zM150 46c26 -38 67 -59 117 -59c119 0 223 130 223 280c0 142 -91 246 -216 246c-33 0 -55 -5 -79 -19c-38 -21 -72 -50 -98 -82
c-28 -34 -37 -69 -37 -140v-392c0 -41 -2 -66 -10 -100h94c5 31 5 35 6 92v23v151z" />
    <glyph glyph-name="sigma" unicode="s" horiz-adv-x="603" 
d="M322 413l11 -12c73 -76 94 -119 94 -197c0 -104 -50 -174 -123 -174c-93 0 -169 101 -169 224c0 95 62 159 156 159h31zM588 413v87h-227c-79 0 -133 -9 -179 -29c-97 -44 -152 -122 -152 -216c0 -65 25 -130 71 -182c52 -60 109 -86 188 -86c68 0 126 20 172 62
c45 41 72 97 72 151c0 77 -57 151 -163 213h218z" />
    <glyph glyph-name="tau" unicode="t" horiz-adv-x="439" 
d="M36 309c11 30 24 54 39 73c14 17 27 22 54 22h73l-3 -22c-7 -56 -10 -79 -12 -108c-4 -56 -6 -93 -6 -120c0 -103 38 -167 99 -167c40 0 80 29 96 70c12 29 16 57 18 104h-25c-8 -57 -23 -77 -53 -77c-44 0 -79 42 -79 94c0 18 2 49 6 84c1 17 3 41 5 72c2 36 3 47 6 70
h164v96h-227c-52 0 -83 -13 -115 -48c-32 -36 -49 -73 -66 -143h26z" />
    <glyph glyph-name="upsilon" unicode="u" horiz-adv-x="576" 
d="M7 364h30c13 45 35 69 63 69s37 -22 38 -93l3 -162c2 -121 65 -191 170 -191c66 0 124 24 161 67c39 47 63 121 63 195c0 71 -22 135 -62 181c-32 37 -63 57 -130 83l-8 -25c40 -22 57 -36 74 -59c28 -39 44 -98 44 -162c0 -60 -13 -122 -37 -171
c-21 -44 -52 -68 -91 -68c-57 0 -98 61 -99 147l-3 176c-1 117 -28 162 -94 162c-31 0 -57 -13 -76 -40c-17 -23 -23 -36 -41 -94c-1 -3 -3 -8 -5 -15z" />
    <glyph glyph-name="omega1" unicode="v" horiz-adv-x="713" 
d="M411 493c37 -11 59 -23 81 -43c42 -41 69 -121 69 -212c0 -66 -12 -127 -31 -163c-12 -23 -38 -38 -64 -38c-32 0 -63 21 -78 54c-9 20 -12 35 -18 68l4 10c19 57 25 91 25 138c0 69 -20 111 -53 111s-54 -42 -54 -111c0 -46 7 -82 26 -138l4 -10c-6 -33 -9 -48 -18 -68
c-15 -33 -46 -55 -78 -55c-26 0 -52 16 -64 39c-19 36 -31 98 -31 163c0 83 23 161 60 202c23 26 48 41 90 53h130zM506 493h165v90h-500c-37 0 -57 -7 -86 -30c-34 -28 -56 -62 -73 -111h17c48 38 80 49 152 51h3c-97 -27 -159 -130 -159 -263c0 -137 78 -243 180 -243
c61 0 107 33 141 101c34 -68 80 -101 141 -101c102 0 180 105 180 243c0 134 -63 238 -161 263z" />
    <glyph glyph-name="omega" unicode="w" horiz-adv-x="686" 
d="M363 88c34 -68 80 -101 141 -101c102 0 180 105 180 244c0 118 -48 217 -125 257c-33 17 -71 24 -131 25v-26c37 -10 59 -22 81 -42c43 -40 69 -118 69 -208c0 -65 -12 -126 -31 -162c-12 -23 -38 -38 -63 -38c-50 0 -83 41 -97 122l4 10c19 57 25 91 25 138
c0 69 -19 111 -53 111c-33 0 -53 -42 -53 -112c0 -46 6 -81 25 -137l4 -10c-14 -81 -47 -123 -96 -123c-26 0 -52 16 -64 39c-19 35 -31 98 -31 162c0 82 23 158 60 199c23 25 48 39 90 51v26c-53 -1 -89 -7 -120 -20c-83 -36 -136 -138 -136 -262c0 -138 78 -244 180 -244
c61 0 107 33 141 101z" />
    <glyph glyph-name="xi" unicode="x" horiz-adv-x="493" 
d="M173 764c-10 2 -18 2 -23 2c-45 0 -84 -36 -84 -77c0 -37 21 -59 70 -73c-24 -24 -37 -53 -37 -87c0 -38 16 -70 53 -106c-33 -26 -51 -41 -67 -61c-36 -43 -58 -104 -58 -161c0 -80 41 -152 101 -182c32 -16 71 -22 132 -22c11 0 23 0 33 1h11l11 1l34 1
c39 0 68 -27 68 -66s-27 -66 -64 -66c-6 0 -22 2 -45 5l-9 2c-12 1 -24 3 -32 3c-25 0 -42 -17 -42 -42c0 -34 35 -58 83 -58c47 0 84 19 116 63c29 38 45 84 45 130c0 45 -16 79 -49 104c-23 17 -45 23 -91 23h-86c-44 0 -77 4 -95 12c-44 18 -72 66 -72 118
c0 41 20 90 51 123c20 21 41 37 75 56c28 -9 49 -13 80 -13c79 0 127 22 127 56c0 23 -26 36 -70 36c-37 0 -76 -11 -131 -36l-15 -6c-42 30 -56 51 -56 83c0 31 19 61 56 89c50 2 84 8 111 22c35 17 56 42 56 65c0 19 -16 30 -44 30c-38 0 -80 -23 -143 -80
c-31 1 -52 20 -52 46c0 22 17 37 52 47v18z" />
    <glyph glyph-name="psi" unicode="y" horiz-adv-x="686" 
d="M389 500h-65v-460c-37 8 -59 23 -77 53c-13 21 -17 38 -23 95l-18 169l-2 20c-9 79 -62 136 -128 136c-18 0 -32 -3 -64 -13v-19c55 -10 72 -22 78 -57l4 -23c1 -7 2 -11 2 -13l14 -163c10 -119 94 -209 214 -228v-219h65v219c120 19 204 109 214 228l14 163l2 13l3 23
c4 22 19 40 41 48c11 4 17 5 38 9v19c-32 10 -46 13 -65 13c-65 0 -118 -57 -127 -136l-2 -20l-18 -169c-5 -49 -9 -67 -17 -84c-17 -36 -42 -55 -83 -64v460z" />
    <glyph glyph-name="zeta" unicode="z" horiz-adv-x="494" 
d="M215 615c-36 11 -53 30 -53 59c0 27 19 48 53 62v20c-68 -5 -113 -43 -113 -96c0 -39 23 -58 90 -74c-95 -126 -132 -226 -132 -356c0 -98 22 -153 80 -198c34 -26 68 -38 110 -38c5 0 12 0 22 1c10 0 17 1 20 1h11l12 1c14 1 28 1 35 1c47 0 76 -24 76 -63
s-32 -73 -67 -73c-5 0 -10 0 -16 2l-20 5l-10 3l-9 2c-14 4 -25 6 -34 6c-31 0 -56 -21 -56 -47c0 -32 37 -55 87 -55c98 0 166 73 166 178c0 93 -61 143 -173 143h-21h-12c-4 0 -8 0 -12 -1h-19c-72 0 -120 62 -120 155c0 120 60 258 144 333c49 5 84 16 117 35
c39 24 64 53 64 78c0 18 -16 32 -39 32c-35 0 -91 -35 -181 -116z" />
    <glyph glyph-name="braceleft" unicode="{" horiz-adv-x="480" 
d="M140 277c52 10 65 14 87 29c28 18 39 41 39 78v172c0 44 9 60 40 75c23 10 46 15 90 18v24h-14c-47 0 -73 -1 -89 -4c-26 -3 -48 -10 -66 -21c-32 -18 -48 -49 -48 -91v-178c0 -35 -7 -50 -32 -64c-24 -14 -38 -18 -89 -26v-24c47 -6 62 -10 86 -22c27 -14 35 -29 35 -68
v-214c0 -93 48 -127 180 -127c8 0 21 1 38 1v24c-34 1 -61 6 -83 15c-38 15 -48 30 -48 78v213c0 39 -14 68 -42 85c-21 13 -37 18 -84 27z" />
    <glyph glyph-name="bar" unicode="|" horiz-adv-x="200" 
d="M65 673v-850h70v850h-70z" />
    <glyph glyph-name="braceright" unicode="}" horiz-adv-x="480" 
d="M335 277c-46 -9 -62 -14 -84 -27c-27 -17 -42 -46 -42 -85v-213c0 -46 -8 -62 -43 -77c-23 -9 -51 -15 -87 -16v-24c15 0 29 -1 35 -1c135 0 183 34 183 127v214c0 39 8 54 35 68c24 12 39 16 86 22v24c-50 8 -65 12 -89 26c-25 14 -32 29 -32 64v178c0 39 -15 70 -42 88
c-33 21 -68 28 -156 28h-19v-24c42 -3 63 -7 85 -16c35 -15 44 -31 44 -77v-172c0 -37 12 -60 40 -78c22 -15 35 -19 86 -29z" />
    <glyph glyph-name="similar" unicode="~" 
d="M489 325c-22 -25 -31 -34 -42 -42c-18 -14 -41 -22 -63 -22c-18 0 -30 3 -99 25c-73 22 -97 27 -125 27c-58 0 -104 -27 -143 -84l43 -33c45 52 61 62 99 62c19 0 28 -2 64 -12l48 -15l49 -15c23 -7 44 -10 65 -10c65 0 113 29 144 86z" />
    <glyph glyph-name="apple" horiz-adv-x="790" 
d="M566 808c-58 -16 -85 -31 -109 -58c-29 -34 -52 -85 -52 -117v-6s1 -6 1 -11c57 8 84 18 111 45c30 30 50 75 50 116c0 1 0 7 -1 16v15zM733 213c-47 22 -65 37 -85 68c-18 29 -29 66 -29 99c0 29 8 64 21 87c14 25 31 43 72 75c-53 58 -96 78 -169 78
c-30 0 -44 -3 -73 -16c-28 -12 -44 -16 -62 -16c-16 0 -29 3 -56 15c-32 14 -45 17 -80 17c-125 0 -216 -99 -216 -236c0 -115 46 -237 124 -328c33 -39 69 -61 101 -61c18 0 28 3 58 15c35 14 55 20 74 20c15 0 27 -4 65 -20c21 -9 36 -13 55 -13c38 0 59 10 91 42
c17 18 29 30 33 34c15 19 32 50 76 140z" />
    <glyph glyph-name="Euro" unicode="&#xa0;" horiz-adv-x="750" 
d="M47 361h93c-1 -16 -1 -21 -1 -27c0 -5 0 -13 1 -28h-69l-23 -57h102c42 -152 173 -253 327 -253c77 0 148 26 215 78v80c-57 -66 -132 -101 -216 -101c-121 0 -234 82 -267 196h373l23 57h-408c-1 13 -2 20 -2 28s1 14 2 27h431l24 56l-75 1l-368 -1
c36 117 144 197 267 197c85 0 158 -35 216 -101l24 57c-70 67 -149 100 -239 100c-154 0 -286 -101 -327 -253h-80z" />
    <glyph glyph-name="Upsilon1" unicode="&#xa1;" horiz-adv-x="620" 
d="M10 643c22 4 33 5 47 5c78 0 134 -46 158 -128c17 -58 27 -135 27 -210v-168c0 -53 -3 -67 -15 -85c-13 -19 -41 -31 -73 -31h-5v-26h287v26h-5c-33 0 -61 12 -74 31c-12 18 -14 32 -14 85v172c0 178 45 302 110 302c14 0 19 -4 36 -25c23 -28 37 -36 61 -36
c37 0 60 22 60 60c0 44 -34 72 -89 72c-57 0 -106 -25 -143 -73c-37 -47 -55 -104 -68 -214l-3 -29c-3 82 -8 136 -19 177c-23 84 -107 138 -214 138c-28 0 -45 -2 -76 -11z" />
    <glyph glyph-name="minute" unicode="&#xa2;" horiz-adv-x="247" 
d="M27 486l15 -10l166 173c16 17 20 26 20 40c0 24 -27 46 -56 46c-14 0 -29 -11 -37 -28l-6 -11z" />
    <glyph glyph-name="lessequal" unicode="&#xa3;" 
d="M526 639l-497 -234v-55l497 -233v62l-418 199l418 199v62zM526 55h-497v-55h497v55z" />
    <glyph glyph-name="fraction" unicode="&#xa4;" horiz-adv-x="167" 
d="M-180 0h49l471 673h-50z" />
    <glyph glyph-name="infinity" unicode="&#xa5;" horiz-adv-x="713" 
d="M324 266c0 0 -2 -3 -5 -7c-6 -7 -13 -15 -22 -24c-47 -46 -90 -68 -134 -68c-52 0 -87 41 -87 100c0 56 37 95 90 95c52 0 92 -24 158 -96zM391 264c0 0 2 3 6 8c12 17 27 33 44 46c34 29 72 44 106 44c53 0 91 -41 91 -98c0 -59 -35 -97 -89 -97c-51 0 -89 23 -152 91z
M357 303c-57 72 -123 111 -186 111c-85 0 -145 -63 -145 -151c0 -87 58 -148 141 -148c69 0 121 30 185 106l5 6c16 -20 30 -34 50 -50c51 -44 94 -62 142 -62c82 0 139 61 139 151c0 88 -58 148 -145 148c-67 0 -131 -38 -186 -111z" />
    <glyph glyph-name="florin" unicode="&#xa6;" horiz-adv-x="500" 
d="M116 422l-10 -32h108l-3 -21c-5 -41 -9 -73 -13 -107c-6 -58 -12 -115 -15 -151c-8 -85 -15 -147 -21 -172c-7 -26 -13 -44 -22 -58c-12 -18 -30 -30 -48 -30c-10 0 -17 5 -17 11c0 4 1 7 3 10l6 10c3 5 6 16 6 23c0 21 -16 36 -38 36c-29 0 -50 -21 -50 -49
c0 -39 35 -66 82 -66c51 0 90 28 122 88c34 66 65 201 85 373l10 85l2 18h119l10 32h-125l2 15c2 19 5 39 7 57c5 35 7 48 10 64c8 41 15 61 28 79c10 15 26 24 42 24c12 0 20 -5 20 -13c0 -2 0 -5 -2 -7l-5 -9c-3 -7 -5 -14 -5 -20c0 -22 17 -37 41 -37c28 0 49 21 49 49
c0 37 -37 63 -88 63c-97 0 -153 -81 -187 -265h-103z" />
    <glyph glyph-name="club" unicode="&#xa7;" horiz-adv-x="753" 
d="M307 -26h132c-31 46 -39 68 -39 119c0 29 5 45 13 45c7 0 12 -4 39 -31c35 -36 64 -50 103 -50c65 0 105 46 105 119c0 80 -44 135 -109 135c-25 0 -52 -9 -81 -27l-20 -12c-8 -5 -17 -8 -24 -8c-10 0 -15 5 -15 15c0 11 4 16 33 36c42 29 65 68 65 110
c0 67 -59 119 -136 119c-76 0 -136 -52 -136 -119c0 -42 23 -81 65 -110c29 -20 33 -25 33 -36c0 -10 -5 -15 -15 -15c-7 0 -16 3 -23 8l-21 12c-28 18 -55 27 -81 27c-64 0 -109 -55 -109 -135c0 -73 41 -119 105 -119c39 0 67 14 103 50c27 28 32 31 39 31
c8 0 12 -16 12 -44c0 -52 -7 -74 -38 -120z" />
    <glyph glyph-name="diamond" unicode="&#xa8;" horiz-adv-x="753" 
d="M374 -36l226 293l-226 293l-232 -293z" />
    <glyph glyph-name="heart" unicode="&#xa9;" horiz-adv-x="753" 
d="M374 -33l54 76c11 16 27 38 47 63l66 85c70 91 90 135 90 202c0 80 -46 135 -113 135c-61 0 -98 -31 -125 -103c-7 -20 -10 -24 -19 -24c-8 0 -12 4 -19 24c-27 72 -64 103 -124 103c-68 0 -114 -55 -114 -135c0 -66 21 -113 91 -202c7 -10 18 -24 26 -34
c25 -32 33 -43 39 -51c17 -22 33 -43 47 -63z" />
    <glyph glyph-name="spade" unicode="&#xaa;" horiz-adv-x="753" 
d="M306 -36h130c-30 42 -37 66 -37 122c0 22 4 35 11 35c5 0 6 -1 21 -26c21 -34 49 -50 86 -50c64 0 112 52 112 119c0 48 -21 98 -72 169l-186 258l-186 -258c-51 -71 -72 -121 -72 -169c0 -67 48 -119 112 -119c37 0 66 17 86 50c14 23 16 26 21 26c7 0 12 -13 12 -34
c0 -57 -7 -80 -38 -123z" />
    <glyph glyph-name="arrowboth" unicode="&#xab;" horiz-adv-x="1042" 
d="M905 276h-762l8 9l9 9c38 42 45 50 85 96c32 38 45 54 68 84l-38 38c-96 -113 -171 -192 -251 -264c83 -75 153 -149 251 -264l38 38c-20 26 -34 43 -60 74c-43 50 -56 65 -93 106l-9 9l-8 9h762l-8 -9l-9 -9c-36 -40 -47 -52 -85 -96c-33 -39 -46 -56 -68 -84l38 -38
c98 115 168 189 251 264c-80 72 -155 151 -251 264l-38 -38c21 -27 35 -44 60 -74c45 -52 54 -63 93 -106l9 -9z" />
    <glyph glyph-name="arrowleft" unicode="&#xac;" horiz-adv-x="987" 
d="M152 220h790v56h-790l8 9l8 8c32 35 46 51 85 97c31 36 45 53 68 83l-38 38c-22 -25 -33 -38 -62 -72c-47 -52 -64 -70 -115 -122c-34 -34 -50 -49 -74 -69c17 -15 24 -21 37 -34c30 -28 75 -74 102 -102c27 -30 78 -87 112 -127l38 38c-24 31 -37 46 -68 83
c-25 29 -45 52 -54 62l-31 34l-8 9z" />
    <glyph glyph-name="arrowup" unicode="&#xad;" horiz-adv-x="603" 
d="M308 910c-17 -20 -24 -27 -45 -50c-36 -36 -81 -80 -113 -109c-28 -25 -66 -58 -87 -76l-18 -16l38 -38c29 22 44 35 83 68c30 26 52 45 62 54l34 31l9 8l9 8v-790h56v790l9 -8l8 -8l35 -31c8 -7 22 -20 43 -38c20 -17 36 -31 47 -40c21 -18 33 -27 55 -44l38 38
c-26 22 -39 34 -72 62c-52 47 -74 68 -122 115c-33 33 -48 49 -69 74z" />
    <glyph glyph-name="arrowright" unicode="&#xae;" horiz-adv-x="987" 
d="M839 220l-8 -9l-8 -9l-31 -34c-7 -8 -20 -23 -38 -43c-18 -21 -31 -37 -40 -47c-16 -20 -26 -32 -44 -55l38 -38c22 26 33 39 62 71c46 52 65 72 115 123c34 34 50 49 74 69c-17 14 -24 20 -37 33c-30 28 -76 76 -102 103c-26 29 -78 87 -112 127l-38 -38
c21 -28 35 -45 60 -74c43 -50 60 -69 93 -106l8 -8l8 -9h-790v-56h790z" />
    <glyph glyph-name="arrowdown" unicode="&#xaf;" horiz-adv-x="603" 
d="M308 -22c15 17 21 24 34 38c28 30 72 73 102 101c32 30 87 79 127 112l-38 38c-29 -22 -44 -34 -83 -68c-30 -26 -52 -44 -62 -54l-35 -31l-8 -8l-9 -8v790h-56v-790l-9 8l-9 8l-34 31c-8 8 -23 20 -43 38c-21 17 -36 31 -47 40c-21 18 -33 27 -55 44l-38 -38l18 -15
c77 -66 141 -126 200 -186c21 -22 28 -30 45 -50z" />
    <glyph glyph-name="degree" unicode="&#xb0;" horiz-adv-x="400" 
d="M201 629c51 0 92 -42 92 -96s-41 -96 -93 -96s-94 44 -94 96c0 53 43 96 95 96zM202 686c-84 0 -152 -68 -152 -152c0 -86 66 -154 150 -154s150 67 150 153c0 87 -64 153 -148 153z" />
    <glyph glyph-name="plusminus" unicode="&#xb1;" 
d="M302 662h-55v-239h-237v-55h237v-239h55v239h237v55h-237v239zM11 55v-55h524v55h-524z" />
    <glyph glyph-name="second" unicode="&#xb2;" horiz-adv-x="411" 
d="M212 486l15 -10l166 173c15 17 20 26 20 40c0 24 -27 46 -56 46c-15 0 -29 -10 -37 -28l-6 -11zM20 486l15 -10l166 173c16 17 20 26 20 40c0 24 -27 46 -56 46c-14 0 -29 -11 -37 -28l-6 -11z" />
    <glyph glyph-name="greaterequal" unicode="&#xb3;" 
d="M29 639v-62l418 -199l-418 -199v-62l497 233v55zM526 55h-497v-55h497v55z" />
    <glyph glyph-name="multiply" unicode="&#xb4;" 
d="M236 267l-219 -220l39 -38l219 219l219 -219l39 38l-219 220l219 219l-39 39l-219 -220l-219 220l-39 -39z" />
    <glyph glyph-name="proportional" unicode="&#xb5;" horiz-adv-x="713" 
d="M351 264c0 -1 -4 -6 -11 -13c-5 -6 -10 -12 -16 -17c-43 -44 -91 -67 -137 -67c-64 0 -110 41 -110 97c0 31 12 56 34 72s50 25 76 25c57 0 107 -30 164 -97zM418 264c25 27 50 47 87 67c41 23 66 29 125 30l9 52c-13 0 -28 1 -35 1c-91 0 -147 -29 -219 -113
c-10 13 -16 21 -31 36c-56 54 -104 76 -164 76c-94 0 -163 -63 -163 -149c0 -87 69 -150 163 -150c60 0 108 23 164 77c15 14 21 22 31 36c72 -85 128 -113 220 -113h34l-9 52c-53 1 -78 6 -111 23c-41 20 -73 44 -101 75z" />
    <glyph glyph-name="partialdiff" unicode="&#xb6;" horiz-adv-x="494" 
d="M366 312c1 -1 0 -7 -5 -40l-12 -60c-7 -37 -19 -72 -35 -105c-26 -53 -70 -86 -113 -86c-55 0 -88 53 -88 138c0 114 67 208 148 208c37 0 63 -13 105 -55zM66 725l41 -51c45 22 77 31 112 31c102 0 160 -94 160 -258c0 -28 -2 -52 -7 -101c-64 51 -100 66 -151 66
c-50 0 -90 -18 -126 -56c-44 -47 -69 -110 -69 -172c0 -108 83 -194 187 -194c108 0 184 75 222 218c17 62 27 136 27 195c0 116 -33 208 -102 278c-48 49 -101 72 -165 72c-40 0 -73 -7 -129 -28z" />
    <glyph glyph-name="bullet" unicode="&#xb7;" horiz-adv-x="460" 
d="M231 518c-100 0 -181 -81 -181 -180c0 -102 80 -183 180 -183c101 0 180 80 180 182c0 101 -79 181 -179 181z" />
    <glyph glyph-name="divide" unicode="&#xb8;" 
d="M10 294v-55h526v55h-526zM273 525c-34 0 -62 -28 -62 -62s28 -62 62 -62s62 28 62 62s-28 62 -62 62zM273 125c-34 0 -62 -28 -62 -62s28 -62 62 -62s62 28 62 62s-28 62 -62 62z" />
    <glyph glyph-name="notequal" unicode="&#xb9;" 
d="M187 142l-72 -143l46 -24l84 167h295v55h-267l70 139h197v55h-169l68 134l-48 24l-79 -158h-297v-55h270l-70 -139h-200v-55h172z" />
    <glyph glyph-name="equivalence" unicode="&#xba;" 
d="M538 446h-524v-55h524v55zM538 142h-524v-55h524v55zM538 294h-524v-55h524v55z" />
    <glyph glyph-name="approxequal" unicode="&#xbb;" 
d="M489 408c-22 -25 -31 -34 -42 -43c-18 -13 -40 -21 -63 -21c-19 0 -32 4 -99 25c-72 22 -97 27 -125 27c-59 0 -106 -27 -146 -84l43 -34c46 53 62 63 102 63c19 0 28 -2 64 -12l48 -15l49 -15c23 -7 44 -10 65 -10c64 0 112 29 142 86zM489 251c-22 -26 -31 -34 -42 -43
c-18 -13 -41 -21 -63 -21c-18 0 -30 3 -99 24c-73 23 -97 28 -125 28c-59 0 -106 -27 -146 -84l43 -34c46 53 63 63 102 63c18 0 29 -2 64 -12l48 -15l49 -15c24 -7 43 -10 65 -10c64 0 111 28 142 85z" />
    <glyph glyph-name="ellipsis" unicode="&#xbc;" horiz-adv-x="1000" 
d="M833 100c-31 0 -56 -26 -56 -57s25 -56 56 -56s56 25 56 56s-26 57 -56 57zM500 100c-31 0 -56 -26 -56 -57s25 -56 56 -56s56 25 56 56s-26 57 -56 57zM167 100c-31 0 -56 -26 -56 -57s25 -56 56 -56c30 0 56 25 56 56s-26 57 -56 57z" />
    <glyph glyph-name="arrowvertex" unicode="&#xbd;" horiz-adv-x="603" 
d="M336 1010h-56v-1130h56v1130z" />
    <glyph glyph-name="arrowhorizex" unicode="&#xbe;" horiz-adv-x="1000" 
d="M-60 220h1110v56h-1110v-56z" />
    <glyph glyph-name="carriagereturn" unicode="&#xbf;" horiz-adv-x="658" 
d="M602 68v561h-55v-505h-362v84l-170 -112l170 -112v84h417z" />
    <glyph glyph-name="aleph" unicode="&#xc0;" horiz-adv-x="823" 
d="M471 319l-279 355c-12 -23 -17 -46 -17 -69c0 -21 8 -38 30 -66l77 -95l-63 -115c-19 -36 -30 -67 -30 -88c0 -22 10 -47 32 -84c28 -47 28 -47 28 -60c0 -19 -13 -30 -38 -30h-19v-67h90c45 0 74 4 88 11c20 11 32 36 32 70c0 44 -10 64 -70 145c-37 50 -51 80 -51 112
c0 21 5 33 26 72l325 -410c12 23 18 43 18 64c0 24 -9 42 -37 78l-42 53c-23 29 -31 41 -39 57c-7 15 -12 37 -12 52c0 19 6 48 16 71l47 116h24c25 0 35 -9 40 -38c10 33 14 63 14 94c0 56 -19 78 -66 78h-75c-42 0 -56 12 -56 47v17c-33 -34 -48 -69 -48 -113
c0 -29 9 -56 24 -70c11 -11 27 -15 60 -15h44z" />
    <glyph glyph-name="Ifraktur" unicode="&#xc1;" horiz-adv-x="686" 
d="M10 62l18 -19l27 12c13 5 26 8 35 8c12 0 20 -3 43 -15l162 -89c17 -9 30 -13 39 -13c13 0 25 4 46 16c16 10 47 29 64 41l48 35c57 40 86 88 86 144c0 24 -5 43 -15 62l-86 161c-20 36 -30 66 -30 87c0 16 8 33 25 52l92 107c-59 31 -102 50 -132 60
c-48 17 -96 25 -138 25c-137 0 -237 -87 -237 -206c0 -61 30 -118 77 -149c31 -20 62 -28 121 -31l2 26c-44 3 -67 9 -90 22c-42 25 -68 72 -68 123c0 73 64 126 153 126c58 0 101 -12 215 -63l-65 -76c-21 -25 -30 -49 -30 -77c0 -25 7 -49 22 -76l83 -152
c15 -27 23 -53 23 -77c0 -27 -10 -50 -29 -65c-21 -17 -56 -29 -85 -29c-15 0 -24 3 -49 16l-147 78c-15 8 -28 12 -39 12c-12 0 -26 -5 -40 -14z" />
    <glyph glyph-name="Rfraktur" unicode="&#xc2;" horiz-adv-x="795" 
d="M73 33l19 -16c22 14 34 18 47 18c15 0 30 -7 55 -28c6 -5 16 -13 29 -23c29 18 42 27 59 40c37 31 71 66 98 99c42 54 56 102 56 200l1 71c0 45 -6 108 -19 198l65 42c14 9 23 12 34 12c16 0 28 -6 48 -24l84 -76l-192 -133l13 -22h10c16 0 29 -8 38 -24
c12 -22 26 -79 34 -143l9 -77c12 -98 31 -132 88 -161l110 88l-17 23c-21 -8 -29 -11 -38 -11c-19 0 -28 14 -32 45c-6 50 -20 125 -33 175c-16 66 -27 90 -68 147l181 129l-155 133c-13 12 -20 15 -28 15c-10 0 -17 -3 -36 -17l-127 -93c-38 78 -85 109 -168 109
c-122 0 -212 -84 -212 -199c0 -34 9 -66 26 -92c15 -22 29 -33 66 -52l48 -23c29 -14 39 -24 39 -36c0 -9 -5 -16 -19 -28l25 -18l36 53c7 11 10 22 10 33c0 21 -15 41 -43 55l-54 27c-45 23 -62 34 -72 44c-16 17 -25 39 -25 63c0 63 57 113 128 113c34 0 66 -11 90 -32
c27 -24 41 -58 50 -121c5 -37 9 -89 9 -120l1 -58c0 -26 -3 -74 -7 -110c-9 -72 -20 -102 -59 -163l-73 51c-7 5 -14 8 -18 8c-5 0 -11 -4 -19 -10z" />
    <glyph glyph-name="weierstrass" unicode="&#xc3;" horiz-adv-x="987" 
d="M269 97c50 -98 65 -143 65 -192c0 -24 -8 -48 -20 -62c-10 -12 -20 -16 -40 -16c-46 0 -72 36 -72 101c0 57 17 101 67 169zM480 558l-9 16c-95 -64 -131 -93 -168 -138c-53 -65 -81 -129 -81 -191c0 -38 7 -65 33 -122c-37 -47 -51 -67 -63 -89
c-21 -38 -33 -82 -33 -120c0 -30 11 -61 30 -84c22 -29 49 -41 87 -41c73 0 119 65 119 168c0 58 -13 105 -62 221c153 197 259 283 351 283c57 0 89 -38 89 -104c0 -39 -7 -71 -24 -115c-15 -38 -33 -74 -51 -102c-51 -78 -107 -118 -168 -118c-33 0 -60 28 -60 61
c0 10 2 22 5 36c6 0 11 -1 15 -1c28 0 51 22 51 48c0 22 -16 38 -38 38c-37 0 -66 -44 -66 -99c0 -72 46 -118 117 -118c55 0 107 22 162 68c41 35 75 79 113 149c25 45 41 104 41 151c0 88 -60 142 -158 142c-82 0 -152 -35 -244 -121c-37 -35 -66 -68 -147 -169
c-8 30 -12 56 -12 83c0 73 31 140 94 205c19 19 34 32 77 63z" />
    <glyph glyph-name="circlemultiply" unicode="&#xc4;" horiz-adv-x="768" 
d="M387 633c161 0 290 -128 290 -287c0 -160 -129 -288 -289 -288s-289 128 -289 286c0 160 129 289 288 289zM387 691c-188 0 -344 -157 -344 -346s155 -345 344 -345s346 156 346 344c0 190 -156 347 -346 347zM205 490l144 -141l-144 -144l39 -38l144 144l141 -144l38 38
l-141 144l141 141l-38 39l-141 -141l-144 141z" />
    <glyph glyph-name="circleplus" unicode="&#xc5;" horiz-adv-x="768" 
d="M389 635c159 0 288 -130 288 -292c0 -159 -130 -290 -289 -290s-289 131 -289 292c0 160 130 290 290 290zM388 689c-191 0 -345 -154 -345 -345s154 -344 345 -344s345 153 345 344s-154 345 -345 345zM360 585v-213h-208v-55h208v-214h56v214h208v55h-208v213h-56z" />
    <glyph glyph-name="emptyset" unicode="&#xc6;" horiz-adv-x="823" 
d="M652 552c47 -54 74 -126 74 -200c0 -171 -139 -309 -310 -309c-73 0 -145 26 -200 73zM179 153c-48 58 -73 126 -73 199c0 170 139 309 310 309c73 0 145 -26 199 -72zM140 114l-101 -101l37 -37l100 100c67 -57 152 -89 240 -89c202 0 365 163 365 365
c0 87 -30 168 -87 237l-2 2l89 90l-37 37l-90 -90l-2 2c-67 57 -149 87 -236 87c-201 0 -365 -164 -365 -365c0 -88 32 -173 89 -238z" />
    <glyph glyph-name="intersection" unicode="&#xc7;" horiz-adv-x="768" 
d="M732 0v176c-1 89 -19 149 -63 204c-65 83 -165 127 -283 127c-201 0 -346 -131 -346 -313v-194h57l1 203c0 141 125 248 288 248c90 0 174 -35 227 -93c46 -49 62 -95 62 -174v-184h57z" />
    <glyph glyph-name="union" unicode="&#xc8;" horiz-adv-x="768" 
d="M40 489v-176c1 -89 19 -149 63 -204c65 -82 165 -127 283 -127c201 0 345 131 346 313v194h-57v-203c-1 -140 -126 -248 -289 -248c-89 0 -174 35 -227 93c-46 49 -62 96 -62 175v183h-57z" />
    <glyph glyph-name="propersuperset" unicode="&#xc9;" horiz-adv-x="713" 
d="M20 0h306h57c34 0 48 1 61 2c52 3 91 14 120 32c68 44 109 120 109 201c0 50 -15 97 -44 138c-35 50 -81 80 -141 90c-34 6 -53 7 -162 7h-306v-56h308h50c30 0 43 -1 55 -1c46 -3 82 -13 105 -27c51 -32 80 -88 80 -151c0 -40 -12 -78 -34 -108
c-27 -36 -60 -56 -109 -64c-32 -6 -51 -7 -147 -7h-308v-56z" />
    <glyph glyph-name="reflexsuperset" unicode="&#xca;" horiz-adv-x="713" 
d="M20 0h306h57c34 0 48 1 61 2c52 3 91 14 120 32c68 44 109 120 109 201c0 50 -15 97 -44 138c-35 50 -81 80 -141 90c-34 6 -53 7 -162 7h-306v-56h308h50c30 0 43 -1 55 -1c46 -3 82 -13 105 -27c51 -32 80 -88 80 -151c0 -40 -12 -78 -34 -108
c-27 -36 -60 -56 -109 -64c-32 -6 -51 -7 -147 -7h-308v-56zM20 -69v-56h648v56h-648z" />
    <glyph glyph-name="notsubset" unicode="&#xcb;" horiz-adv-x="713" 
d="M299 57h-4c-73 1 -117 16 -152 50c-33 33 -52 79 -52 128c0 40 12 78 35 108c27 37 60 56 108 65c33 5 51 6 147 6h81zM538 470l32 70h-50l-32 -70h-104h-57c-34 0 -48 0 -61 -1c-52 -4 -92 -15 -121 -33c-67 -43 -109 -120 -109 -201c0 -62 24 -121 67 -165
c43 -45 89 -64 167 -69h3l-32 -71h50l32 71l367 -1v56h-341l163 358h178v56h-152z" />
    <glyph glyph-name="propersubset" unicode="&#xcc;" horiz-adv-x="713" 
d="M690 470h-306h-57c-34 0 -48 0 -61 -1c-52 -4 -91 -15 -120 -33c-67 -44 -109 -120 -109 -201c0 -49 15 -97 43 -137c36 -51 82 -81 142 -91c34 -6 53 -7 162 -7h306v56h-309h-49c-30 0 -43 1 -55 2c-46 3 -83 12 -106 26c-50 32 -80 89 -80 151c0 40 12 78 35 108
c27 37 59 56 108 65c33 5 51 6 147 6h309v56z" />
    <glyph glyph-name="reflexsubset" unicode="&#xcd;" horiz-adv-x="713" 
d="M690 470h-306h-57c-34 0 -48 0 -61 -1c-52 -4 -91 -15 -120 -33c-67 -44 -109 -120 -109 -201c0 -49 15 -97 43 -137c36 -51 82 -81 142 -91c34 -6 53 -7 162 -7h306v56h-309h-49c-30 0 -43 1 -55 2c-46 3 -83 12 -106 26c-50 32 -80 89 -80 151c0 40 12 78 35 108
c27 37 59 56 108 65c33 5 51 6 147 6h309v56zM37 -69v-56h648v56h-648z" />
    <glyph glyph-name="element" unicode="&#xce;" horiz-adv-x="713" 
d="M101 263c13 79 63 131 141 145c33 5 51 6 148 6h115v56h-113h-57c-34 0 -48 0 -61 -1c-52 -4 -91 -15 -120 -33c-67 -44 -109 -120 -109 -201c0 -49 15 -97 43 -137c36 -51 82 -81 142 -91c34 -6 53 -7 162 -7h113v56h-115c-81 0 -102 1 -126 4c-54 6 -84 18 -113 47
c-27 26 -43 59 -50 100h404v56h-404z" />
    <glyph glyph-name="notelement" unicode="&#xcf;" horiz-adv-x="713" 
d="M164 96c-36 29 -55 64 -63 111h119zM324 414l-76 -151h-147c4 27 12 49 25 69c35 56 89 81 180 82h9h9zM383 414h122v56h-94l31 61l-47 24l-43 -85h-28c-88 -1 -131 -9 -170 -34c-67 -43 -109 -120 -109 -201c0 -74 33 -142 93 -189l-40 -80l46 -24l39 78
c14 -5 29 -10 47 -13c35 -6 52 -7 162 -7h113v56h-115c-78 0 -99 1 -122 3c-23 3 -43 7 -59 12l69 136h227v56h-199z" />
    <glyph glyph-name="angle" unicode="&#xd0;" horiz-adv-x="768" 
d="M26 0l675 -1l2 58h-534l569 574l-45 40z" />
    <glyph glyph-name="gradient" unicode="&#xd1;" horiz-adv-x="713" 
d="M610 636l-234 -458l-211 458h445zM681 688h-645l303 -688z" />
    <glyph glyph-name="registerserif" unicode="&#xd2;" horiz-adv-x="790" 
d="M395 645c162 0 294 -137 294 -307c0 -169 -132 -306 -294 -306s-294 137 -294 306c0 170 132 307 294 307zM395 690c-190 0 -345 -158 -345 -352c0 -193 155 -351 345 -351s345 157 345 351c0 195 -155 352 -345 352zM335 361v131c0 21 2 22 37 22c63 0 92 -23 92 -75
c0 -56 -33 -78 -113 -78h-16zM502 158h99v18c-26 2 -38 10 -62 38l-105 127c64 9 102 46 102 99c0 41 -20 72 -59 89c-25 11 -51 15 -106 15h-157v-18c46 -3 53 -10 53 -47v-256c0 -37 -7 -44 -53 -47v-18h174v18c-46 3 -53 9 -53 47v110h27z" />
    <glyph glyph-name="copyrightserif" unicode="&#xd3;" horiz-adv-x="790" 
d="M396 645c162 0 294 -137 294 -307c0 -169 -132 -306 -294 -306s-294 137 -294 306c0 170 132 307 294 307zM396 690c-190 0 -345 -158 -345 -352c0 -193 155 -351 345 -351s345 157 345 351c0 195 -155 352 -345 352zM558 403l-5 136h-20c-9 -18 -11 -21 -21 -21
c-5 0 -14 2 -21 5l-5 2c-22 9 -52 14 -79 14c-122 0 -207 -84 -207 -204c0 -117 82 -197 204 -197c64 0 114 23 162 75l-15 17c-48 -44 -83 -59 -136 -59c-86 0 -139 64 -139 168c0 105 51 169 135 169c65 0 108 -36 125 -105h22z" />
    <glyph glyph-name="trademarkserif" unicode="&#xd4;" horiz-adv-x="890" 
d="M344 673h-326v-110h20c3 32 10 52 24 61c11 7 43 12 77 13h6v-314c0 -26 -8 -31 -55 -32h-8v-22h193v22c-52 0 -61 3 -61 23v7v316h3c86 0 101 -11 104 -74h23v110zM855 673h-134l-118 -291l-119 291h-120v-22h8h11c20 0 22 -2 22 -17v-303c0 -33 -6 -39 -41 -40h-8v-22
h135v22h-9c-28 1 -38 12 -38 39v269l132 -330h22l139 346v-290c0 -26 -11 -33 -52 -34v-22h170v22c-42 3 -49 8 -49 34v309c0 14 6 17 33 17h13h3v22z" />
    <glyph glyph-name="product" unicode="&#xd5;" horiz-adv-x="823" 
d="M25 -124h290v26h-3c-33 0 -61 12 -74 31c-12 17 -14 33 -14 85v576c0 99 10 112 91 114h97h60c39 0 47 0 58 -1c29 -2 45 -7 56 -17c14 -13 18 -35 18 -96v-576c0 -52 -3 -67 -14 -85c-14 -19 -41 -31 -74 -31h-3v-26h290v26h-3c-33 0 -60 12 -74 31
c-11 17 -14 33 -14 85v591c0 52 3 68 14 85c14 19 41 31 74 31h3v26h-778v-26h3c32 0 60 -12 73 -31c12 -17 15 -33 15 -85v-591c0 -52 -3 -68 -15 -85c-13 -19 -41 -31 -73 -31h-3v-26z" />
    <glyph glyph-name="radical" unicode="&#xd6;" 
d="M363 -35l152 943l-35 5l-127 -790l-197 397l-146 -71l16 -35l95 47z" />
    <glyph glyph-name="dotmath" unicode="&#xd7;" horiz-adv-x="250" 
d="M119 312c-28 0 -50 -23 -50 -52c0 -28 22 -51 50 -51s50 23 50 51c0 29 -22 52 -50 52z" />
    <glyph glyph-name="logicalnot" unicode="&#xd8;" horiz-adv-x="713" 
d="M15 367v-60h606v-267h59v327h-665z" />
    <glyph glyph-name="logicaland" unicode="&#xd9;" horiz-adv-x="603" 
d="M304 476l-281 -447l46 -30l234 371l234 -370l46 32z" />
    <glyph glyph-name="logicalor" unicode="&#xda;" horiz-adv-x="603" 
d="M303 -1l275 447l-46 30l-228 -370l-228 369l-46 -32z" />
    <glyph glyph-name="arrowdblboth" unicode="&#xdb;" horiz-adv-x="1042" 
d="M193 321h664c8 -9 14 -15 39 -40c21 -21 26 -26 40 -38c-11 -9 -15 -13 -23 -20l-48 -48l-8 -9h-664l-8 9c-10 9 -34 33 -43 43c-13 12 -16 15 -28 25c16 14 24 22 40 38l32 32c0 1 3 4 7 8zM241 375c19 22 30 35 42 50l27 36c1 1 4 5 9 11l-43 34l-7 -8
c-55 -68 -80 -96 -139 -157c-43 -44 -71 -70 -103 -98c30 -25 53 -47 89 -84c66 -66 96 -99 153 -170l7 -8l43 34c-5 6 -8 10 -9 11l-27 36c-12 15 -24 28 -42 49h568c-19 -22 -30 -35 -42 -49l-27 -36c-1 -1 -4 -5 -9 -11l43 -34l7 8c55 68 79 96 139 157
c43 43 70 69 103 97c-30 26 -52 47 -89 84c-66 66 -96 99 -153 171l-7 8l-43 -34c5 -6 8 -10 9 -11l27 -36c12 -15 23 -28 42 -50h-568z" />
    <glyph glyph-name="arrowdblleft" unicode="&#xdc;" horiz-adv-x="987" 
d="M117 243c15 13 22 20 40 38l34 34l6 6h742v54h-695c19 22 30 35 42 50l27 36c1 1 4 5 9 11l-43 34c-64 -84 -172 -197 -249 -263c30 -25 53 -46 89 -83c67 -67 96 -100 153 -171l7 -8l43 34c-5 6 -8 10 -9 11l-27 36c-12 14 -23 27 -42 49h695v55h-742c-8 8 -7 6 -20 20
l-20 20c-16 16 -24 24 -40 37z" />
    <glyph glyph-name="arrowdblup" unicode="&#xdd;" horiz-adv-x="603" 
d="M303 822c13 -15 20 -23 38 -40l33 -34l6 -6v-742h55v695c22 -19 35 -30 50 -42l35 -27c2 -1 6 -5 13 -10l34 43c-88 68 -195 170 -264 250c-20 -24 -33 -38 -57 -62c-47 -49 -108 -106 -139 -133l-59 -47l-9 -8l34 -43c6 5 11 9 13 10l35 27c15 12 28 23 50 42v-695h55
v742c3 4 6 7 6 7l33 33c16 16 24 24 38 40z" />
    <glyph glyph-name="arrowdblright" unicode="&#xde;" horiz-adv-x="987" 
d="M867 243c-17 -14 -26 -23 -40 -37c-30 -31 -31 -32 -40 -40h-742v-55h695c-19 -22 -30 -35 -42 -49l-27 -36c-1 -1 -4 -5 -9 -11l43 -34l7 8c54 68 78 95 139 157c43 44 70 69 103 97c-30 26 -53 47 -89 84c-66 66 -96 100 -153 171l-7 8l-43 -34c5 -6 8 -10 9 -11
l27 -36c12 -15 23 -28 42 -50h-695v-54h742l20 -20c8 -8 14 -13 20 -20c16 -16 24 -24 40 -38z" />
    <glyph glyph-name="arrowdbldown" unicode="&#xdf;" horiz-adv-x="603" 
d="M308 87c-13 15 -19 21 -38 40l-33 34l-6 6v742h-55v-695c-22 19 -35 30 -50 42l-35 27c-2 1 -6 5 -13 10l-34 -43l10 -7c88 -70 190 -168 254 -243c25 30 47 53 84 89c66 67 100 96 170 153l10 8l-34 43c-7 -5 -11 -9 -13 -10l-35 -27c-15 -12 -28 -23 -50 -42v695h-55
v-742c-7 -8 -6 -7 -20 -20c-5 -5 -15 -16 -19 -20c-17 -16 -24 -24 -38 -40z" />
    <glyph glyph-name="lozenge" unicode="&#xe0;" horiz-adv-x="494" 
d="M240 58l-159 318l164 307l157 -310zM209 0l60 -1l197 375l-189 366h-63l-196 -364z" />
    <glyph glyph-name="angleleft" unicode="&#xe1;" horiz-adv-x="329" 
d="M254 757l-229 -454l229 -455l52 25l-215 430l215 430z" />
    <glyph glyph-name="registersans" unicode="&#xe2;" horiz-adv-x="790" 
d="M396 641c167 0 302 -138 302 -308c0 -169 -136 -307 -303 -307s-303 138 -303 307c0 170 136 308 304 308zM396 679c-191 0 -346 -155 -346 -346c0 -190 155 -345 345 -345c191 0 345 154 345 345s-154 346 -344 346zM300 486h99c67 0 98 -22 98 -70
c0 -49 -34 -72 -106 -72h-91v142zM250 527v-390h50v168h88c83 0 100 -16 105 -93l2 -29c1 -24 4 -37 8 -46h51c-7 15 -9 26 -11 63c-2 38 -2 39 -3 47c-2 21 -6 34 -14 46c-11 15 -23 24 -46 32c45 19 68 50 68 95c0 38 -18 70 -49 89c-22 13 -48 18 -89 18h-160z" />
    <glyph glyph-name="copyrightsans" unicode="&#xe3;" horiz-adv-x="790" 
d="M395 641c167 0 302 -138 302 -308c0 -169 -136 -307 -303 -307c-166 0 -303 138 -303 307c0 170 136 308 304 308zM395 679c-191 0 -346 -155 -346 -346c0 -190 155 -345 345 -345s345 155 345 345c0 191 -154 346 -344 346zM577 296h-50c-10 -77 -57 -122 -130 -122
c-84 0 -140 64 -140 161c0 96 57 161 141 161c65 0 112 -35 124 -94h49c-7 79 -79 137 -171 137c-115 0 -194 -83 -194 -204s77 -204 191 -204c101 0 172 66 180 165z" />
    <glyph glyph-name="trademarksans" unicode="&#xe4;" horiz-adv-x="786" 
d="M180 623h110v50h-285v-50h112v-346h63v346zM537 277l133 346v-346h55v396h-89l-115 -291l-111 291h-90v-396h56v346l128 -346h33z" />
    <glyph glyph-name="summation" unicode="&#xe5;" horiz-adv-x="713" 
d="M176 711h268c115 0 145 -23 162 -124h26l-10 165h-599l233 -467l-242 -408h627l54 210h-26c-32 -81 -62 -98 -178 -98h-328l201 352z" />
    <glyph glyph-name="parenlefttp" unicode="&#xe6;" horiz-adv-x="384" 
d="M40 -293h52v431c0 114 19 242 55 362c26 91 55 154 96 217c59 88 125 157 193 198l-14 11c-92 -50 -145 -91 -194 -150c-118 -140 -188 -367 -188 -608v-461z" />
    <glyph glyph-name="parenleftex" unicode="&#xe7;" horiz-adv-x="384" 
d="M40 -79h52v1004h-52v-1004z" />
    <glyph glyph-name="parenleftbt" unicode="&#xe8;" horiz-adv-x="384" 
d="M40 926v-461c0 -223 60 -435 163 -578c55 -75 108 -119 219 -180l14 10c-79 55 -131 105 -178 171c-105 147 -166 372 -166 607v431h-52z" />
    <glyph glyph-name="bracketlefttp" unicode="&#xe9;" horiz-adv-x="384" 
d="M0 -80h55v951h286v55h-341v-1006z" />
    <glyph glyph-name="bracketleftex" unicode="&#xea;" horiz-adv-x="384" 
d="M0 925v-1010h55v1010h-55z" />
    <glyph glyph-name="bracketleftbt" unicode="&#xeb;" horiz-adv-x="384" 
d="M0 926v-1006h340v55h-285v951h-55z" />
    <glyph glyph-name="bracelefttp" unicode="&#xec;" horiz-adv-x="494" 
d="M255 -75v694c0 113 15 171 57 215c32 34 72 56 127 70v22c-70 -12 -100 -21 -136 -44c-73 -45 -102 -114 -102 -245v-712h54z" />
    <glyph glyph-name="braceleftmid" unicode="&#xed;" horiz-adv-x="494" 
d="M255 935h-54v-240c0 -87 -14 -136 -48 -172c-34 -35 -73 -52 -139 -62v-61c61 -9 95 -22 128 -52c43 -37 59 -87 59 -182v-251h54v272c0 81 -13 126 -48 169c-29 36 -62 55 -133 75c64 17 95 33 123 63c42 43 58 93 58 180v261z" />
    <glyph glyph-name="braceleftbt" unicode="&#xee;" horiz-adv-x="494" 
d="M255 926h-54v-707c0 -131 29 -200 102 -246c36 -22 66 -32 136 -43v22c-50 13 -87 31 -118 61c-49 46 -66 103 -66 224v689z" />
    <glyph glyph-name="braceex" unicode="&#xef;" horiz-adv-x="494" 
d="M201 925v-1004h54v1004h-54z" />
    <glyph glyph-name="angleright" unicode="&#xf1;" horiz-adv-x="329" 
d="M73 757l-52 -24l215 -430l-215 -430l52 -25l229 455z" />
    <glyph glyph-name="integral" unicode="&#xf2;" horiz-adv-x="274" 
d="M180 576c0 71 -2 121 -5 170c-2 29 -3 55 -3 71c0 39 11 61 30 61c5 0 10 -2 12 -6l9 -13c7 -12 20 -20 32 -20c20 0 36 14 36 32c0 27 -24 45 -60 45c-62 0 -95 -45 -107 -150c-7 -58 -11 -129 -11 -189v-345c0 -67 1 -115 4 -169c2 -30 3 -58 3 -75
c0 -34 -12 -57 -31 -57c-8 0 -14 5 -21 17c-9 16 -17 22 -31 22c-19 0 -35 -15 -35 -33c0 -26 24 -44 60 -44c62 0 94 45 107 150c7 58 11 127 11 189v344z" />
    <glyph glyph-name="integraltp" unicode="&#xf3;" horiz-adv-x="686" 
d="M332 -83h83v468c0 174 32 332 83 410c30 47 65 74 96 74c4 0 8 -1 15 -3c-15 -13 -21 -24 -21 -41c0 -30 27 -54 61 -54c38 0 66 30 66 71c0 46 -36 80 -84 80c-59 0 -126 -48 -183 -132c-78 -114 -116 -263 -116 -457v-416z" />
    <glyph glyph-name="integralex" unicode="&#xf4;" horiz-adv-x="686" 
d="M332 -88h83v1063h-83v-1063z" />
    <glyph glyph-name="integralbt" unicode="&#xf5;" horiz-adv-x="686" 
d="M415 921h-83v-465c0 -174 -32 -332 -83 -411c-30 -46 -65 -73 -96 -73c-4 0 -8 1 -15 3c15 13 21 24 21 40c0 31 -27 55 -61 55s-59 -30 -59 -71c0 -46 33 -80 78 -80c58 0 124 48 182 132c78 114 116 263 116 457v413z" />
    <glyph glyph-name="parenrighttp" unicode="&#xf6;" horiz-adv-x="384" 
d="M450 -293v461c0 223 -61 437 -164 578c-55 75 -113 123 -218 180l-14 -11c108 -66 214 -200 266 -336c50 -130 78 -290 78 -441v-431h52z" />
    <glyph glyph-name="parenrightex" unicode="&#xf7;" horiz-adv-x="384" 
d="M450 935h-52v-1005h52v1005z" />
    <glyph glyph-name="parenrightbt" unicode="&#xf8;" horiz-adv-x="384" 
d="M450 926h-52v-431c0 -151 -28 -311 -78 -441c-37 -98 -101 -194 -182 -272c-31 -29 -48 -42 -84 -65l14 -10c88 47 143 89 194 150c118 140 188 366 188 608v461z" />
    <glyph glyph-name="bracketrighttp" unicode="&#xf9;" horiz-adv-x="384" 
d="M360 -80v1006h-338v-55h283v-951h55z" />
    <glyph glyph-name="bracketrightex" unicode="&#xfa;" horiz-adv-x="384" 
d="M305 925v-1010h55v1010h-55z" />
    <glyph glyph-name="bracketrightbt" unicode="&#xfb;" horiz-adv-x="384" 
d="M360 926h-55v-951h-285v-55h340v1006z" />
    <glyph glyph-name="bracerighttp" unicode="&#xfc;" horiz-adv-x="494" 
d="M201 -75h54v712c0 131 -28 200 -101 245c-37 23 -67 32 -137 44v-22c50 -13 87 -32 119 -62c48 -45 65 -103 65 -223v-694z" />
    <glyph glyph-name="bracerightmid" unicode="&#xfd;" horiz-adv-x="494" 
d="M201 935v-261c0 -80 13 -126 49 -169c30 -36 63 -55 133 -74c-64 -19 -95 -34 -123 -64c-43 -43 -59 -93 -59 -180v-272h54v251c0 92 12 135 48 172c34 35 73 53 139 62v61c-61 9 -95 22 -128 52c-45 38 -59 82 -59 182v240h-54z" />
    <glyph glyph-name="bracerightbt" unicode="&#xfe;" horiz-adv-x="494" 
d="M201 926v-689c0 -114 -15 -171 -56 -215c-33 -34 -73 -56 -128 -70v-22c70 11 100 21 137 43c73 46 101 114 101 246v707h-54z" />
  </font>
</defs>
</svg>
