<?xml version="1.0" standalone="no"?>
<!DOCTYPE svg PUBLIC "-//W3C//DTD SVG 1.1//EN" "http://www.w3.org/Graphics/SVG/1.1/DTD/svg11.dtd" >
<svg xmlns="http://www.w3.org/2000/svg" xmlns:xlink="http://www.w3.org/1999/xlink" version="1.1">
<metadata>Created by FontForge</metadata>
<defs>
<font id="qtmbi" horiz-adv-x="500" >
  <font-face 
    font-family="qtm"
    font-weight="700"
    font-style="italic"
    font-stretch="normal"
    units-per-em="1000"
    panose-1="0 0 8 0 0 0 0 0 0 0"
    ascent="795"
    descent="-205"
    x-height="449"
    cap-height="669"
    bbox="-488 -324 1358 1082"
    underline-thickness="88"
    underline-position="-188"
    slope="-15"
    unicode-range="U+0020-FB04"
  />
<missing-glyph horiz-adv-x="280" 
 />
    <glyph glyph-name="I_J" unicode="IJ" horiz-adv-x="819" 
d="M379 0h-296v25q37 4 52.5 18.5t27.5 53.5l123 449q10 38 10 61q0 15 -9 22t-32 10q-22 4 -32 5v25h298v-25q-38 -5 -54 -18.5t-28 -53.5l-114 -420q-18 -64 -18 -87q0 -21 15 -29.5t57 -10.5v-25zM947 644q-37 -5 -52.5 -18.5t-28.5 -53.5l-128 -479q-26 -98 -77 -145
t-132 -47q-66 0 -109 28.5t-43 72.5q0 30 18.5 50t45.5 20q26 0 44.5 -18t18.5 -45q0 -18 -13 -33q-10 -11 -10 -21q0 -18 27 -18q28 0 44.5 32.5t45.5 144.5l114 432q11 42 11 61q0 26 -42 32l-31 5v25h297v-25z" />
    <glyph glyph-name="i_j" unicode="ij" horiz-adv-x="580" 
d="M377 127q-52 -79 -87 -107.5t-80 -28.5q-31 0 -50 17.5t-19 45.5q0 22 13 69l58 215q7 30 7 40q0 29 -46 29h-13v27q116 9 202 28l-91 -334q-9 -38 -9 -52q0 -6 4.5 -10.5t10.5 -4.5q24 0 64 60l14 20zM405 590q0 -28 -20 -47.5t-49 -19.5q-28 0 -47 20t-19 49
q0 26 20 46t46 20q28 0 48.5 -20t20.5 -48zM542 24q-60 -231 -209 -231q-47 0 -76 21t-29 56q0 22 14.5 37.5t34.5 15.5t34.5 -14.5t14.5 -34.5q0 -14 -10 -28q-5 -7 -5 -10q0 -4 7.5 -8t16.5 -4q21 0 36.5 28t34.5 103l92 355q12 45 12 67q0 30 -42 30h-20v27
q134 12 208 28zM701 590q0 -28 -20 -47.5t-49 -19.5q-28 0 -47 20t-19 49q0 26 20 46t46 20q28 0 48.5 -20t20.5 -48z" />
    <glyph glyph-name="f_k" unicode="fk" horiz-adv-x="771" 
d="M372 449l30 119q-21 15 -21 39q0 17 15 38l6 11q0 7 -11 13t-25 6q-52 0 -89 -62q-27 -44 -56 -164h151zM718 116q-37 -69 -67.5 -96.5t-68.5 -27.5q-46 0 -72.5 47.5t-50.5 175.5l-39 -27l-50 -188h-122l112 407h-147l-79 -326q-69 -286 -223 -286q-43 0 -70 22.5
t-27 58.5q0 25 13.5 39t38.5 14q21 0 34 -12.5t13 -33.5q0 -14 -10 -28q-6 -7 -6 -13q0 -12 22 -12q26 0 42 33.5t41 141.5l92 402h-74l10 42h74q26 82 44.5 121t48.5 71q57 63 156 63q23 0 88 -12l13 -3l99 12l-119 -462q95 75 129.5 109t34.5 53q0 12 -11 16.5t-40 6.5v25
h207v-25q-34 -4 -59 -18t-76 -58l-63 -55q30 -148 43.5 -189t34.5 -41q14 0 28 14t34 50z" />
    <glyph glyph-name="f_f" unicode="ff" horiz-adv-x="617" 
d="M421 564q-19 16 -19 42q0 20 15 36q7 10 7 15q0 16 -26 16q-59 0 -90 -37q-24 -29 -38 -63.5t-39 -123.5h150q23 79 40 115zM706 618q0 -23 -14.5 -38t-36.5 -15q-21 0 -35 14t-14 35q0 14 11 31l5 11q0 13 -17 13q-53 0 -91 -149l-18 -71h92l-9 -42h-90
q-61 -287 -95 -394q-22 -71 -41 -108.5t-45 -63.5q-26 -25 -46.5 -35.5t-51.5 -10.5q-45 0 -72 21.5t-27 57.5q0 22 15.5 38t35.5 16q19 0 34.5 -15t15.5 -33q0 -16 -12 -34l-4 -9q0 -11 18 -11q23 0 32.5 22t23.5 96q2 14 4 22t4.5 22t5.5 27l88 392h-151l-94 -385
q-19 -80 -83 -160q-24 -31 -61 -49t-74 -18q-42 0 -69.5 22t-27.5 56q0 24 13.5 39t35.5 15t36.5 -14t14.5 -35q0 -14 -12 -27q-7 -8 -7 -13q0 -9 17 -9q35 0 56.5 33t43.5 134l92 411h-75l10 42h76q27 79 47 118t51 71q60 65 164 65q81 0 121 -43q49 38 111 38
q46 0 72.5 -21.5t26.5 -58.5z" />
    <glyph glyph-name="f_i" unicode="fi" horiz-adv-x="556" 
d="M514 127q-52 -79 -87 -107.5t-80 -28.5q-34 0 -52.5 17.5t-18.5 48.5q0 17 16 81l69 269h-150l-94 -385q-10 -39 -32 -85t-45 -75q-53 -67 -131 -67q-42 0 -69.5 22t-27.5 56q0 24 13.5 39t35.5 15t36.5 -14t14.5 -35q0 -14 -12 -27q-7 -8 -7 -13q0 -9 17 -9q33 0 50 31
t40 136l92 411h-75l10 42h76q27 79 47 118t51 71q60 65 164 65q63 0 102.5 -26.5t39.5 -68.5q0 -25 -16 -41t-41 -16t-41.5 16t-16.5 39q0 20 15 36q7 10 7 15q0 16 -26 16q-59 0 -90 -37q-24 -29 -38 -63.5t-39 -123.5h118q32 0 108 7l47 3l-73 -283l-1 -4q-21 -76 -21 -95
q0 -6 5 -11t10 -5q23 0 78 79z" />
    <glyph glyph-name="f_l" unicode="fl" horiz-adv-x="556" 
d="M511 126q-51 -79 -85 -107t-78 -28q-32 0 -52 16t-20 42q0 15 5 37l79 321h-147l-79 -326q-69 -286 -223 -286q-43 0 -70 22.5t-27 58.5q0 25 13.5 39t38.5 14q21 0 34 -12.5t13 -33.5q0 -14 -10 -28q-6 -7 -6 -13q0 -12 22 -12q26 0 42 33.5t41 141.5l92 402h-74l10 42
h74q26 82 44.5 121t48.5 71q57 63 156 63q23 0 88 -12l13 -3l99 12l-151 -602q-4 -15 -4 -20q0 -7 5 -12t12 -5q26 0 76 75zM372 449l30 119q-21 15 -21 39q0 17 15 38l6 11q0 7 -11 13t-25 6q-52 0 -89 -62q-27 -44 -56 -164h151z" />
    <glyph glyph-name="f_f_i" unicode="&#xfb00;i" horiz-adv-x="834" 
d="M427 560q-25 17 -25 46q0 20 15 36q7 10 7 15q0 16 -26 16q-59 0 -90 -37q-24 -29 -38 -63.5t-39 -123.5h152q27 79 44 111zM794 127q-52 -79 -87 -107.5t-80 -28.5q-34 0 -52.5 17.5t-18.5 48.5q0 17 16 81l69 269h-150l-94 -385q-28 -110 -67 -160q-53 -67 -121 -67
q-42 0 -69.5 22t-27.5 56q0 24 13.5 39t35.5 15t36.5 -14t14.5 -35q0 -14 -12 -27q-7 -8 -7 -13q0 -9 17 -9q25 0 34 17t22 82q8 41 14 68l92 411h-151l-94 -385q-19 -80 -83 -160q-24 -31 -61 -49t-74 -18q-42 0 -69.5 22t-27.5 56q0 24 13.5 39t35.5 15t36.5 -14t14.5 -35
q0 -14 -12 -27q-7 -8 -7 -13q0 -9 17 -9q35 0 56.5 33t43.5 134l92 411h-75l10 42h76q27 79 47 118t51 71q60 65 164 65q88 0 125 -47q60 47 145 47q63 0 102.5 -26.5t39.5 -68.5q0 -25 -16 -41t-41 -16t-41.5 16t-16.5 39q0 20 15 36q7 10 7 15q0 16 -26 16q-59 0 -90 -37
q-24 -29 -38 -63.5t-39 -123.5h118q32 0 108 7l47 3l-73 -283l-1 -4q-21 -76 -21 -95q0 -6 5 -11t10 -5q23 0 78 79z" />
    <glyph glyph-name="f_f_l" unicode="ffl" horiz-adv-x="819" 
d="M650 449l30 119q-21 15 -21 39q0 17 15 38l6 11q0 7 -11 13t-25 6q-52 0 -89 -62q-27 -44 -56 -164h151zM423 563q-21 16 -21 43q0 20 15 36q7 10 7 15q0 16 -26 16q-59 0 -90 -37q-24 -29 -38 -63.5t-39 -123.5h151q26 83 41 114zM789 126q-51 -79 -85 -107t-78 -28
q-32 0 -52 16t-20 42q0 15 5 37l79 321h-147l-79 -326q-36 -149 -82 -217.5t-121 -68.5q-43 0 -70 22.5t-27 58.5q0 25 13.5 39t38.5 14q21 0 34 -12.5t13 -33.5q0 -14 -10 -28q-6 -7 -6 -13q0 -12 22 -12q6 0 10.5 1t8 4.5t6 7.5t5.5 12.5t5 17t5 23l6 29t7.5 37t9.5 43.5
l92 402h-151l-94 -385q-19 -80 -83 -160q-24 -31 -61 -49t-74 -18q-42 0 -69.5 22t-27.5 56q0 24 13.5 39t35.5 15t36.5 -14t14.5 -35q0 -14 -12 -27q-7 -8 -7 -13q0 -9 17 -9q35 0 56.5 33t43.5 134l92 411h-75l10 42h76q27 79 47 118t51 71q60 65 164 65q82 0 121 -42
q56 43 135 43q23 0 88 -12l13 -3l99 12l-151 -602q-4 -15 -4 -20q0 -7 5 -12t12 -5q26 0 76 75z" />
    <glyph glyph-name=".notdef" horiz-adv-x="280" 
 />
    <glyph glyph-name=".null" horiz-adv-x="0" 
 />
    <glyph glyph-name="nonmarkingreturn" horiz-adv-x="333" 
 />
    <glyph glyph-name="space" unicode=" " horiz-adv-x="250" 
 />
    <glyph glyph-name="exclam" unicode="!" horiz-adv-x="389" 
d="M370 611q0 -33 -31 -89q-84 -166 -143 -318l-29 8q46 240 53 354q2 50 12 72q22 46 69 46q31 0 50 -20t19 -53zM213 58q0 -30 -21.5 -50.5t-52.5 -20.5t-51.5 20t-20.5 51q0 32 21 53.5t52 21.5q29 0 51 -22.5t22 -52.5z" />
    <glyph glyph-name="quotedbl" unicode="&#x22;" horiz-adv-x="555" 
d="M276 636q0 -15 -15 -47l-2 -5l-82 -186h-41l16 214q2 29 26 51t53 22q19 0 32 -14.5t13 -34.5zM536 636q0 -15 -15 -47l-2 -5l-82 -186h-41l16 214q2 29 26 51t53 22q19 0 32 -14.5t13 -34.5z" />
    <glyph glyph-name="numbersign" unicode="#" 
d="M533 490l-20 -73h-97l-54 -134h87l-20 -73h-97l-85 -210h-78l85 210h-113l-85 -210h-78l85 210h-96l20 73h106l54 134h-96l20 73h105l87 210h77l-86 -210h113l87 210h77l-86 -210h88zM338 417h-113l-54 -134h113z" />
    <glyph glyph-name="dollar" unicode="$" 
d="M432 201q0 -82 -65.5 -141.5t-156.5 -59.5h-9h-23l-28 -100h-52l29 107q-47 11 -77 27.5t-70 51.5l42 142l22 -6q2 -81 21.5 -118.5t71.5 -61.5l74 261q-80 61 -106 97.5t-26 87.5q0 77 56 129.5t140 52.5q16 0 38 -2l18 65h50l-20 -72q57 -10 118 -49l18 -14l-42 -133
l-21 5q1 11 1 30q0 52 -19.5 81t-64.5 44l-59 -215q84 -73 112 -114.5t28 -94.5zM303 635q-5 2 -15 2q-50 0 -80 -26t-30 -69q0 -30 15 -53t55 -53zM323 157q0 35 -14.5 59.5t-55.5 57.5l-67 -242h16q54 0 87.5 34.5t33.5 90.5z" />
    <glyph glyph-name="percent" unicode="%" horiz-adv-x="833" 
d="M793 260q0 -57 -23.5 -115t-63.5 -101q-51 -54 -123 -54q-60 0 -96.5 38t-36.5 100q0 50 26 103.5t70 91.5q60 53 130 53q52 0 84.5 -32t32.5 -84zM759 256q0 29 -14 48t-37 21q-38 2 -76 -55q-22 -34 -42.5 -89.5t-22.5 -87.5q-1 -24 13 -40.5t37 -16.5q55 0 101 83
q41 74 41 137zM644 692l-394 -700h-56l349 620q-64 -27 -119 -27q-15 0 -43 5q-1 -122 -61 -208q-60 -88 -152 -88q-57 0 -93 38.5t-36 98.5q0 94 69.5 171t154.5 77q38 0 77 -28t96 -28q90 0 169 69h39zM347 577q0 17 -4 22t-25 13q-9 4 -16 11q-9 8 -15 8q-29 3 -65 -53
q-25 -37 -45.5 -93t-22.5 -91q-1 -23 12.5 -38.5t35.5 -15.5q52 0 98.5 75.5t46.5 161.5z" />
    <glyph glyph-name="ampersand" unicode="&#x26;" horiz-adv-x="778" 
d="M699 80q-46 -55 -83 -76.5t-87 -21.5q-76 0 -139 62q-92 -63 -192 -63q-86 0 -139.5 46.5t-53.5 120.5q0 72 57 132q26 27 61 47t122 57q-11 56 -11 92q0 92 51.5 149t133.5 57q60 0 99 -32t39 -82t-44 -92t-138 -80q19 -120 86 -227q43 53 58.5 80.5t15.5 48.5
q0 17 -12 25t-44 13v25h212v-25q-34 -7 -53.5 -20t-47.5 -47t-104 -136q55 -72 110 -72q37 0 77 40zM362 80q-42 65 -66 122.5t-43 140.5q-63 -31 -89 -65.5t-26 -87.5q0 -59 36 -98.5t91 -39.5q44 0 97 28zM477 582q0 32 -13.5 49.5t-38.5 17.5q-70 0 -70 -119
q0 -28 11 -96q59 34 85 68.5t26 79.5z" />
    <glyph glyph-name="quotesingle" unicode="'" horiz-adv-x="278" 
d="M268 636q0 -15 -15 -47l-2 -5l-82 -186h-41l16 214q2 29 26 51t53 22q19 0 32 -14.5t13 -34.5z" />
    <glyph glyph-name="parenleft" unicode="(" horiz-adv-x="333" 
d="M193 -164l-23 -15q-76 104 -109 193.5t-33 192.5q0 108 40 197q34 78 89 137.5t169 143.5l18 -20q-61 -56 -94 -99.5t-60 -103.5q-68 -152 -68 -352q0 -87 15 -144t56 -130z" />
    <glyph glyph-name="parenright" unicode=")" horiz-adv-x="333" 
d="M271 299q0 -149 -83 -273q-38 -57 -83.5 -100.5t-131.5 -104.5l-17 20q59 54 88 91t54 88q36 74 57.5 177.5t21.5 201.5q0 85 -15.5 144t-56.5 127l23 15q70 -95 100 -172q43 -107 43 -214z" />
    <glyph glyph-name="asterisk" unicode="*" 
d="M456 388q0 -22 -15 -38t-35 -16q-19 0 -32.5 10.5t-29.5 37.5t-28 39t-37 27l-11 6v-12q0 -44 26 -89q17 -29 17 -50q0 -23 -14 -37t-37 -14t-36.5 14t-13.5 38q0 20 17 49q26 45 26 89v12l-11 -6q-25 -15 -37 -27t-28 -39t-29.5 -37.5t-32.5 -10.5q-20 0 -35 16t-15 38
q0 26 26 41q19 10 53 10q35 2 50.5 5.5t39.5 17.5l11 6l-11 6q-25 14 -41 18t-49 5q-36 0 -53 11q-26 17 -26 41q0 21 15 37.5t34 16.5q33 0 63 -48q18 -29 30.5 -41.5t34.5 -25.5l11 -6v12q0 46 -26 90q-17 29 -17 49q0 24 13.5 38t36.5 14t37 -14t14 -38q0 -20 -17 -49
q-26 -44 -26 -90v-12l11 6q22 13 34.5 25.5t30.5 41.5q30 48 63 48q19 0 34 -16.5t15 -37.5q0 -24 -26 -41q-17 -11 -53 -11q-33 -1 -49 -5t-41 -18l-11 -6l11 -6q24 -14 39.5 -17.5t50.5 -5.5q34 0 53 -10q26 -15 26 -41z" />
    <glyph glyph-name="plus" unicode="+" horiz-adv-x="570" 
d="M514 206h-197v-197h-88v197h-197v88h197v197h88v-197h197v-88z" />
    <glyph glyph-name="comma" unicode="," horiz-adv-x="250" 
d="M144 36q0 -61 -52 -120.5t-139 -97.5l-13 24q118 63 118 117q0 19 -30 39q-40 27 -40 63q0 32 20 52.5t51 20.5q38 0 61.5 -27t23.5 -71z" />
    <glyph glyph-name="hyphen" unicode="-" horiz-adv-x="333" 
d="M248 166h-246l24 116h245z" />
    <glyph glyph-name="period" unicode="." horiz-adv-x="250" 
d="M159 61q0 -31 -21.5 -52.5t-53.5 -21.5q-31 0 -52 21t-21 52q0 32 21.5 53.5t53.5 21.5q30 0 51.5 -21.5t21.5 -52.5z" />
    <glyph glyph-name="slash" unicode="/" horiz-adv-x="278" 
d="M342 685l-319 -703h-87l319 703h87z" />
    <glyph glyph-name="zero" unicode="0" 
d="M477 442q0 -119 -53 -240t-130 -176q-55 -40 -117 -40q-72 0 -116 60t-44 160q0 111 42.5 222t112.5 183t155 72q68 0 109 -65.5t41 -175.5zM276 159q46 142 86 330q12 67 12 93q0 34 -13 53t-36 19q-29 0 -53.5 -35.5t-52.5 -119.5q-35 -100 -67 -235.5t-32 -182.5
q0 -30 13.5 -48t36.5 -18q31 0 55.5 33t50.5 111z" />
    <glyph glyph-name="one" unicode="1" 
d="M350 0h-345v23q54 0 80 16.5t39 57.5l128 459q4 18 4 24q0 33 -46 33q-30 0 -63 -5l2 23q141 21 270 52l-154 -560q-12 -45 -12 -54q0 -28 19 -36.5t78 -9.5v-23z" />
    <glyph glyph-name="two" unicode="2" 
d="M419 191l-79 -191h-367v24l90 90q141 140 195 220t54 149q0 52 -24.5 81t-68.5 29q-75 0 -133 -86l-22 12q38 74 80 111q62 53 138 53q69 0 116.5 -48.5t47.5 -119.5q0 -114 -144 -237l-196 -167h149q58 0 84 15t55 65h25z" />
    <glyph glyph-name="three" unicode="3" 
d="M408 250q0 -110 -84.5 -186.5t-205.5 -76.5q-61 0 -97 21.5t-36 58.5q0 26 16 41t44 15q20 0 34 -10t31 -36q7 -10 13 -19t8.5 -12.5t3.5 -4.5q14 -14 40 -14q46 0 78 47.5t32 114.5q0 104 -74 140q-29 15 -83 18l4 22q97 20 143 57.5t46 95.5q0 41 -23.5 65.5
t-63.5 24.5q-35 0 -60 -16t-56 -59l-21 13q47 70 95 101.5t109 31.5q64 0 106.5 -38.5t42.5 -97.5q0 -90 -107 -144l-12 -6q43 -32 60 -65t17 -82z" />
    <glyph glyph-name="four" unicode="4" 
d="M453 248l-27 -98h-68l-42 -150h-128l41 150h-244l28 105l427 428h63l-119 -435h69zM335 528l-282 -280h203z" />
    <glyph glyph-name="five" unicode="5" 
d="M412 251q0 -112 -84 -188t-208 -76q-59 0 -95 21.5t-36 57.5q0 25 16.5 41t42.5 16q22 0 37.5 -11.5t33.5 -41.5q16 -26 27 -34.5t27 -8.5q53 0 93.5 49t40.5 113q0 49 -26.5 90t-74.5 65q-47 24 -133 28l131 297h283l-36 -109h-254l-34 -76q71 -15 100.5 -25t55.5 -28
q93 -62 93 -180z" />
    <glyph glyph-name="six" unicode="6" 
d="M443 251q0 -111 -71.5 -188.5t-174.5 -77.5q-82 0 -128 55.5t-46 154.5q0 109 56 210t156 171q58 41 114 62.5t154 40.5l6 -24q-101 -38 -166.5 -96.5t-111.5 -149.5q35 13 62 13q70 0 110 -45.5t40 -125.5zM251 56q25 47 46.5 129.5t21.5 129.5q0 67 -68 67
q-25 0 -36.5 -12t-27.5 -55q-52 -135 -52 -220q0 -78 55 -78q40 0 61 39z" />
    <glyph glyph-name="seven" unicode="7" 
d="M525 669l-381 -669h-92l332 556h-133q-78 0 -109 -14t-59 -63h-26l87 190h381z" />
    <glyph glyph-name="eight" unicode="8" 
d="M419 193q0 -89 -62.5 -147.5t-159.5 -58.5q-86 0 -140 46t-54 120q0 64 43.5 109t136.5 78v5q-42 44 -58 77.5t-16 76.5q0 79 54 131.5t137 52.5q42 0 81.5 -16t63.5 -43q31 -34 31 -84q0 -53 -32.5 -89.5t-110.5 -69.5v-5q46 -50 66 -92.5t20 -90.5zM306 147
q0 39 -16.5 68.5t-80.5 105.5q-59 -41 -84 -82.5t-25 -97.5q0 -58 26.5 -91t72.5 -33q47 0 77 36.5t30 93.5zM383 544q0 48 -22 77t-59 29q-36 0 -59 -27.5t-23 -68.5q0 -38 19 -70t71 -81q43 45 58 74t15 67z" />
    <glyph glyph-name="nine" unicode="9" 
d="M475 476q0 -109 -57 -212t-155 -172q-58 -41 -114.5 -62.5t-154.5 -39.5l-6 25q184 56 277 244q-32 -14 -61 -14q-68 0 -109.5 46t-41.5 121q0 114 71.5 192.5t174.5 78.5q74 0 118 -44q58 -60 58 -163zM320 377q43 128 43 205q0 69 -49 69q-48 0 -79 -63
q-23 -47 -40.5 -117.5t-17.5 -118.5q0 -64 66 -64q32 0 44.5 14.5t32.5 74.5z" />
    <glyph glyph-name="colon" unicode=":" horiz-adv-x="333" 
d="M171 61q0 -31 -21.5 -52.5t-53.5 -21.5q-31 0 -52 21t-21 53t21.5 53t53.5 21q30 0 51.5 -22t21.5 -52zM264 385q0 -31 -21.5 -52.5t-53.5 -21.5q-31 0 -52 21t-21 53t21.5 53t53.5 21q30 0 51.5 -22t21.5 -52z" />
    <glyph glyph-name="semicolon" unicode=";" horiz-adv-x="333" 
d="M179 35q0 -61 -52 -120.5t-139 -97.5l-13 24q118 63 118 117q0 19 -30 39q-23 15 -31.5 28.5t-8.5 34.5q0 32 20 52.5t51 20.5q38 0 61.5 -27t23.5 -71zM264 385q0 -31 -21.5 -52.5t-53.5 -21.5q-31 0 -52 21t-21 53t21.5 53t53.5 21q30 0 51.5 -22t21.5 -52z" />
    <glyph glyph-name="less" unicode="&#x3c;" horiz-adv-x="570" 
d="M470 2l-414 209v78l414 209v-98l-296 -150l296 -150v-98z" />
    <glyph glyph-name="equal" unicode="=" horiz-adv-x="570" 
d="M514 290h-482v88h482v-88zM514 122h-482v88h482v-88z" />
    <glyph glyph-name="greater" unicode="&#x3e;" horiz-adv-x="570" 
d="M470 211l-414 -209v98l296 150l-296 150v98l414 -209v-78z" />
    <glyph glyph-name="question" unicode="?" 
d="M470 540q0 -47 -29.5 -87.5t-96.5 -83.5l-66 -43q-29 -19 -45 -42.5t-37 -75.5l-29 7q6 76 71 159l41 51q64 80 64 149q0 37 -18.5 58t-50.5 21q-24 0 -43 -11.5t-19 -26.5q0 -8 11 -22q18 -24 18 -45q0 -25 -18 -42.5t-43 -17.5q-26 0 -43.5 19t-17.5 48q0 56 49.5 92.5
t125.5 36.5q79 0 127.5 -39.5t48.5 -104.5zM227 61q0 -31 -21.5 -52.5t-53.5 -21.5q-31 0 -52 21t-21 53t21.5 53t53.5 21q30 0 51.5 -22t21.5 -52z" />
    <glyph glyph-name="at" unicode="@" horiz-adv-x="832" 
d="M770 387q0 -99 -55.5 -172t-131.5 -73q-37 0 -64 22t-29 53q-56 -74 -125 -74q-39 0 -66 33t-27 81q0 55 22.5 110t60.5 96q50 52 118 52q27 0 41 -10t31 -42l11 38h71l-65 -257q-2 -6 -2 -20q0 -45 37 -45q46 0 82 53q45 68 45 147q0 110 -84.5 188.5t-202.5 78.5
q-124 0 -203.5 -91t-79.5 -233q0 -128 83 -211t212 -83q94 0 198 48l13 -35q-73 -34 -120 -46.5t-101 -12.5q-159 0 -267.5 100t-108.5 246q0 149 108.5 253t264.5 104q142 0 238 -86t96 -212zM528 402q3 62 -42 65q-44 3 -91 -55t-47 -137q0 -39 16 -62t43 -23q47 0 82 68
q36 70 39 144z" />
    <glyph glyph-name="A" unicode="A" horiz-adv-x="667" 
d="M593 0h-304v25q48 5 63.5 16.5t15.5 42.5q0 20 -8 72q-4 16 -7 52h-215l-59 -102q-15 -26 -15 -46q0 -35 65 -35v-25h-196v25q27 6 43 19.5t40 50.5l372 588h25l96 -572q10 -57 22 -69.5t62 -16.5v-25zM346 248l-37 243l-148 -243h185z" />
    <glyph glyph-name="B" unicode="B" horiz-adv-x="667" 
d="M572 206q0 -96 -79 -151t-216 -55h-301v25q36 4 52 19t28 53l122 449q11 39 11 57q0 21 -15 30t-58 11v25h272q236 0 236 -146q0 -67 -47 -106q-26 -22 -56 -35t-86 -27q77 -25 107 -58t30 -91zM419 229q0 58 -35 85q-28 21 -115 24l-66 -244q-5 -17 -5 -29q0 -33 57 -33
q65 0 105 40q27 27 43 70t16 87zM477 536q0 101 -87 101q-24 0 -34.5 -8.5t-17.5 -35.5l-61 -225q99 4 139 30q61 40 61 138z" />
    <glyph glyph-name="C" unicode="C" horiz-adv-x="667" 
d="M576 131q-40 -55 -78 -84q-86 -65 -194 -65q-122 0 -197 71.5t-75 187.5q0 182 120.5 313t287.5 131q64 0 131 -21q24 -8 38 -8q20 0 38 29h30l-51 -234l-32 6q3 19 3 35q0 73 -35 115.5t-96 42.5q-63 0 -120 -48q-68 -59 -114 -172t-46 -221q0 -82 40 -128t110 -46
q48 0 90 18q32 14 57.5 35t62.5 65z" />
    <glyph glyph-name="D" unicode="D" horiz-adv-x="722" 
d="M685 396q0 -171 -126.5 -283.5t-318.5 -112.5h-286v25q36 5 52.5 19.5t27.5 52.5l121 446q12 44 12 59q0 18 -9 26t-33 11l-31 5v25h290q142 0 221.5 -72.5t79.5 -200.5zM538 457q0 181 -165 181q-25 0 -37.5 -8.5t-17.5 -29.5l-128 -474l-1 -4q-12 -36 -12 -54
q0 -34 54 -34q142 0 223 118q39 58 61.5 140t22.5 165z" />
    <glyph glyph-name="E" unicode="E" horiz-adv-x="667" 
d="M586 194l-59 -194h-554v25q39 6 53.5 19t26.5 53l123 449q10 38 10 61q0 28 -42 33l-31 4v25h540l-43 -190l-27 5q0 46 -6.5 69.5t-23.5 41.5q-42 42 -154 42q-31 0 -43 -9t-20 -35l-61 -223q99 -1 134.5 17.5t70.5 88.5l28 -4l-74 -273l-28 5q4 25 4 44q0 52 -29.5 70.5
t-114.5 19.5l-56 -209q-15 -31 -15 -63q0 -34 61 -34q131 0 214 61q28 20 47 42t44 64z" />
    <glyph glyph-name="F" unicode="F" horiz-adv-x="667" 
d="M617 479l-27 5q0 76 -26 107q-42 46 -151 46q-31 0 -43 -9t-20 -35l-61 -223q98 1 130.5 18t67.5 88l28 -4l-74 -273l-28 5q4 25 4 44q0 51 -28.5 70t-108.5 20l-54 -201l-4 -15q-11 -36 -11 -53q0 -23 14.5 -32t56.5 -12v-25h-295v25q39 6 53.5 19t26.5 53l123 449
q10 38 10 61q0 28 -42 33l-31 4v25h533z" />
    <glyph glyph-name="G" unicode="G" horiz-adv-x="722" 
d="M706 304q-40 -3 -52.5 -16t-26.5 -66l-48 -181l-28 -13q-42 -20 -108.5 -33t-125.5 -13q-132 0 -214 74.5t-82 194.5q0 115 60 219t159 162q92 53 208 53q64 0 124 -21q24 -9 36 -9q27 0 42 30h31l-51 -221l-29 4q-1 51 -7.5 78t-23.5 52q-35 51 -108 51q-70 0 -129 -51
q-68 -59 -112 -169.5t-44 -220.5q0 -91 42 -139.5t122 -48.5q29 0 56.5 8.5t37.5 21.5q4 6 29 91q29 95 29 127q0 16 -12 24q-14 8 -62 12v26h287v-26z" />
    <glyph glyph-name="H" unicode="H" horiz-adv-x="778" 
d="M657 0h-317v25q50 3 70.5 17.5t30.5 54.5l64 232h-239l-50 -181l-4 -16q-13 -40 -13 -64t12.5 -31.5t60.5 -11.5v-25h-296v25q37 5 52.5 19t27.5 53l122 449q11 38 11 58q0 17 -9 24.5t-33 10.5l-31 5v25h317v-25q-49 -1 -69 -16t-32 -56l-54 -199h239l47 173
q10 38 10 61q0 15 -9 22t-32 10l-32 5v25h298v-25q-38 -5 -53.5 -18.5t-27.5 -53.5l-109 -397l-6 -22q-19 -66 -19 -87q0 -22 16 -30.5t57 -10.5v-25z" />
    <glyph glyph-name="I" unicode="I" horiz-adv-x="389" 
d="M264 0h-296v25q37 4 52.5 18.5t27.5 53.5l123 449q10 38 10 61q0 15 -9 22t-32 10q-22 4 -32 5v25h298v-25q-38 -5 -54 -18.5t-28 -53.5l-114 -420q-18 -64 -18 -87q0 -21 15 -29.5t57 -10.5v-25z" />
    <glyph glyph-name="J" unicode="J" 
d="M524 644q-37 -5 -52.5 -18.5t-28.5 -53.5l-128 -479q-26 -98 -77 -145t-132 -47q-66 0 -109 28.5t-43 72.5q0 30 18.5 50t45.5 20q26 0 44.5 -18t18.5 -45q0 -18 -13 -33q-10 -11 -10 -21q0 -18 27 -18q28 0 44.5 32.5t45.5 144.5l114 432q11 42 11 61q0 26 -42 32l-31 5
v25h297v-25z" />
    <glyph glyph-name="K" unicode="K" horiz-adv-x="667" 
d="M612 0h-280v25l27 3q38 3 38 24q0 14 -13 43l-113 242l-67 -249q-2 -10 -2 -17q0 -25 13.5 -34t52.5 -12v-25h-289v25q37 5 52.5 18.5t27.5 53.5l122 449q11 38 11 58q0 17 -9 24.5t-33 10.5l-31 5v25h310v-25q-44 -4 -63 -18.5t-31 -53.5l-62 -228l197 175q77 72 77 98
q0 21 -35 25l-21 2v25h211v-25q-33 -5 -47.5 -12t-46.5 -36l-216 -198l157 -338q8 -18 21 -25t42 -10v-25z" />
    <glyph glyph-name="L" unicode="L" horiz-adv-x="611" 
d="M590 194l-59 -194h-553v25q37 4 52.5 18.5t27.5 53.5l123 449q10 38 10 61q0 15 -9 22t-32 10q-22 4 -32 5v25h317v-25q-50 -3 -69.5 -17t-31.5 -55l-129 -478q-5 -18 -5 -32q0 -30 64 -30q127 0 211 61q29 22 48 44t43 62z" />
    <glyph glyph-name="M" unicode="M" horiz-adv-x="889" 
d="M775 0h-312v25q49 3 68.5 17t31.5 55l125 464l-375 -573h-28l-67 559l-101 -369q-19 -68 -19 -92q0 -31 16 -43t64 -18v-25h-207v25q40 9 55.5 32t45.5 121l109 373q11 41 11 58q0 21 -12.5 27t-59.5 8v25h221l54 -480l310 480h212v-25q-38 -4 -54 -18.5t-27 -53.5
l-123 -449q-10 -26 -10 -55q0 -24 14 -32.5t58 -10.5v-25z" />
    <glyph glyph-name="N" unicode="N" horiz-adv-x="722" 
d="M748 644q-31 -7 -45 -18t-25 -37t-32 -98l-143 -506h-28l-257 549l-99 -356q-18 -63 -18 -94q0 -29 18 -42t62 -17v-25h-208v25q41 8 56.5 31.5t44.5 121.5l120 411q-14 33 -28 42t-55 13v25h195l215 -465l80 287q18 67 18 94q0 29 -18 42t-62 17v25h209v-25z" />
    <glyph glyph-name="O" unicode="O" horiz-adv-x="722" 
d="M691 454q0 -112 -59 -223t-154 -178q-98 -71 -215 -71q-106 0 -171 66t-65 173q0 106 60 217t153 176q101 71 209 71q104 0 173 -65.5t69 -165.5zM547 532q0 53 -28 86t-73 33q-99 0 -175 -142q-39 -73 -69.5 -186t-30.5 -186q0 -56 27.5 -88.5t74.5 -32.5q81 0 149 102
q49 74 87 200t38 214z" />
    <glyph glyph-name="P" unicode="P" horiz-adv-x="611" 
d="M613 514q0 -90 -74 -143.5t-199 -53.5q-37 0 -81 5l-54 -199q-10 -34 -10 -59q0 -20 15 -28.5t57 -10.5v-25h-294v25q39 6 53.5 19t26.5 53l123 449q10 38 10 61q0 28 -42 33l-31 4v25h287q104 0 158.5 -39.5t54.5 -115.5zM445 436q22 52 22 110q0 43 -22 67t-62 24
q-26 0 -39 -14q-4 -6 -11 -30l-64 -239q34 -2 42 -2q53 0 84 19t50 65z" />
    <glyph glyph-name="Q" unicode="Q" horiz-adv-x="722" 
d="M655 -59q-61 -82 -119 -115.5t-140 -33.5q-55 0 -136 26q-68 21 -104 21q-43 0 -114 -28l-14 24l156 130q10 8 14 12q1 1 5 7q-4 5 -14 9q-40 14 -56.5 23t-35.5 28q-70 65 -70 167q0 119 60 229.5t158 177.5t204 67q105 0 173.5 -66t68.5 -167q0 -100 -47 -199
t-130 -173q-58 -52 -111 -71.5t-151 -25.5l-46 -47q0 -6 38 -8q65 -4 110 -18l42 -13q46 -15 83 -15q46 0 79 16.5t76 61.5zM547 532q0 53 -28 86t-73 33q-99 0 -175 -142q-40 -72 -70 -185t-30 -188q0 -55 27.5 -87t74.5 -32q81 0 149 103q49 73 87 198t38 214z" />
    <glyph glyph-name="R" unicode="R" horiz-adv-x="667" 
d="M602 0h-202l-107 331h-29l-55 -193q-14 -50 -14 -71q0 -22 14 -30.5t58 -11.5v-25h-296v25q37 4 52.5 18.5t27.5 53.5l123 449q10 38 10 61q0 15 -9 22t-32 10q-22 4 -32 5v25h276q236 0 236 -143q0 -88 -83 -143q-38 -26 -109 -40l83 -246q16 -44 31 -56t57 -16v-25z
M472 542q0 46 -23.5 70.5t-66.5 24.5q-23 0 -32.5 -8.5t-16.5 -35.5l-60 -230q91 1 127 25q33 20 52.5 62t19.5 92z" />
    <glyph glyph-name="S" unicode="S" horiz-adv-x="556" 
d="M468 185q0 -93 -62 -148t-167 -55q-54 0 -123 24q-32 11 -46 11t-21.5 -6.5t-16.5 -28.5h-30l36 224l29 -2q5 -82 32 -123q41 -65 122 -65q73 0 107 58q19 33 19 68q0 67 -113 153q-85 66 -119 130q-13 28 -13 66q0 83 58 138.5t143 55.5q41 0 98 -19q36 -11 51 -11
q31 0 44 26h30l-40 -201l-27 4q-10 88 -41 127t-91 39q-48 0 -76 -28t-28 -77q0 -34 15 -56.5t62 -57.5q92 -70 130 -125.5t38 -120.5z" />
    <glyph glyph-name="T" unicode="T" horiz-adv-x="611" 
d="M614 477l-27 2q-4 83 -35.5 118.5t-102.5 36.5l-140 -506q-11 -42 -11 -62q0 -24 15 -31.5t68 -9.5v-25h-331v25h14q38 0 59.5 16.5t31.5 55.5l148 537q-77 -2 -127.5 -35t-89.5 -108l-25 7l38 171h551z" />
    <glyph glyph-name="U" unicode="U" horiz-adv-x="722" 
d="M744 644q-41 -8 -56.5 -31t-45.5 -122l-66 -228q-42 -147 -89 -201q-68 -80 -197 -80q-98 0 -160.5 46.5t-62.5 119.5q0 54 34 175l55 206q15 58 15 76q0 16 -9 23.5t-33 11.5l-31 4v25h311v-25q-46 -2 -63.5 -15.5t-30.5 -56.5l-82 -300q-28 -101 -28 -133
q0 -47 32.5 -74t89.5 -27q82 0 133 60q43 53 79 184l58 209q19 70 19 96q0 27 -18.5 40t-61.5 17v25h208v-25z" />
    <glyph glyph-name="V" unicode="V" horiz-adv-x="667" 
d="M715 644q-41 -13 -59 -40l-393 -622h-32l-76 509q-16 107 -29.5 130t-60.5 23v25h298v-25q-51 -4 -63.5 -11.5t-12.5 -33.5q0 -10 1 -16l51 -401l190 302q59 94 59 127q0 27 -40 31l-25 2v25h192v-25z" />
    <glyph glyph-name="W" unicode="W" horiz-adv-x="889" 
d="M940 645q-32 -5 -47.5 -18.5t-36.5 -54.5l-286 -590h-29l-59 489l-233 -489h-29l-78 579q-7 53 -18 64.5t-59 19.5v24h277v-25q-36 -5 -48.5 -15.5t-12.5 -37.5q0 -11 1 -16l39 -349l150 311q-1 64 -13.5 83t-57.5 25v24h269v-25q-40 -4 -51.5 -14.5t-11.5 -43.5
q0 -12 6 -65l33 -295l156 327q15 30 15 46q0 27 -10.5 34.5t-52.5 10.5v25h187v-24z" />
    <glyph glyph-name="X" unicode="X" horiz-adv-x="667" 
d="M586 0h-308v25q41 4 54.5 11.5t13.5 26.5q0 33 -38 141l-19 60l-134 -148q-30 -33 -30 -51q0 -34 65 -40v-25h-214v25q32 6 72 42.5t159 167.5l68 74l-84 272q-12 35 -29 47t-62 16v25h305v-25l-30 -3q-25 -3 -34.5 -11t-9.5 -25q0 -24 34 -129q1 -3 17 -55l94 99
q70 74 70 98q0 21 -33 24l-22 2v25h203v-25q-27 -4 -46.5 -16t-52.5 -45l-199 -205l74 -237q22 -70 42 -90t74 -26v-25z" />
    <glyph glyph-name="Y" unicode="Y" horiz-adv-x="611" 
d="M659 644q-28 -6 -46.5 -20t-44.5 -49l-190 -267l-52 -191q-8 -29 -8 -45q0 -28 14 -36.5t63 -10.5v-25h-322v25q52 4 69.5 16.5t31.5 55.5l60 216l-88 268q-14 40 -24.5 49t-48.5 14v25h283v-25q-42 -2 -56 -9t-14 -28q0 -24 33 -119l19 -59l25 -77l129 186q26 37 26 60
q0 26 -13.5 35t-53.5 11v25h208v-25z" />
    <glyph glyph-name="Z" unicode="Z" horiz-adv-x="611" 
d="M554 194l-59 -194h-506v29l434 605h-78q-82 0 -137.5 -32t-114.5 -115l-28 4l57 178h468v-29l-434 -605h70q127 0 192 45q61 41 109 119z" />
    <glyph glyph-name="bracketleft" unicode="[" horiz-adv-x="333" 
d="M182 -159h-219l199 833h200l-7 -35h-69q-27 0 -34 -9t-18 -54l-158 -676v-2q0 -22 35 -22h78z" />
    <glyph glyph-name="backslash" unicode="\" horiz-adv-x="278" 
d="M279 -18h-84l-196 703h85z" />
    <glyph glyph-name="bracketright" unicode="]" horiz-adv-x="333" 
d="M143 -157h-199l7 35h68q27 0 34 8.5t18 52.5l158 677v2q0 21 -35 21h-78l7 35h220z" />
    <glyph glyph-name="asciicircum" unicode="^" horiz-adv-x="570" 
d="M503 304h-89l-129 272l-129 -272h-89l178 365h80z" />
    <glyph glyph-name="underscore" unicode="_" 
d="M500 -125h-500v50h500v-50z" />
    <glyph glyph-name="grave" unicode="`" horiz-adv-x="333" 
d="M281 499h-49l-105 87q-16 13 -19 23t5 24q10 19 31.5 33t41.5 14q13 0 22.5 -10.5t20.5 -39.5z" />
    <glyph glyph-name="a" unicode="a" 
d="M455 112q-84 -126 -151 -126q-28 0 -47.5 19t-19.5 47q0 19 14 67q-43 -72 -80.5 -102t-83.5 -30q-49 0 -78.5 35t-29.5 92q0 76 42 158t106.5 136t124.5 54q32 0 49.5 -17t24.5 -55l18 59l111 7l-71 -236q-34 -112 -34 -148q0 -15 12 -15t26.5 14t45.5 56zM303 373
q0 20 -10 32.5t-27 14.5q-42 3 -90 -82q-31 -56 -52.5 -121.5t-21.5 -104.5q0 -23 13 -38.5t32 -15.5q43 0 84 75q29 52 50.5 123.5t21.5 116.5z" />
    <glyph glyph-name="b" unicode="b" 
d="M444 338q0 -134 -99 -242.5t-221 -108.5q-49 0 -93.5 19.5t-44.5 40.5q0 9 20 81l94 327q39 136 39 157q0 30 -45 30h-18v27q118 13 208 30l-90 -328q38 51 69 71t69 20q49 0 80.5 -34.5t31.5 -89.5zM319 325q0 69 -44 69q-51 0 -89 -84q-27 -57 -49 -134
q-28 -99 -28 -129q0 -12 8.5 -19.5t22.5 -7.5q65 0 116 91q27 46 45 108t18 106z" />
    <glyph glyph-name="c" unicode="c" horiz-adv-x="444" 
d="M346 123q-44 -63 -77 -91q-53 -45 -121 -45t-110.5 42t-42.5 109q0 120 89.5 222t195.5 102q50 0 81 -25t31 -65q0 -31 -17 -50.5t-45 -19.5q-25 0 -41.5 14.5t-16.5 37.5q0 16 13 39q8 12 8 19q0 17 -22 17q-45 0 -86 -71q-27 -49 -44.5 -110t-17.5 -108q0 -40 20 -64.5
t53 -24.5q32 0 59 20t63 70z" />
    <glyph glyph-name="d" unicode="d" 
d="M449 115q-41 -66 -76.5 -96t-72.5 -30q-28 0 -44 16t-16 45q0 20 11 68q-43 -71 -80.5 -101t-85.5 -30q-46 0 -76 35t-30 90q0 76 42 158.5t106.5 137t123.5 54.5q39 0 72 -33l18 68q29 106 29 118q0 28 -41 28h-21v27q129 10 209 29l-111 -405q-57 -208 -57 -223
q0 -12 11 -12q22 0 67 72zM308 371q0 21 -10.5 34.5t-26.5 14.5q-47 3 -98 -87q-27 -49 -47.5 -110t-22.5 -101q-2 -26 10 -44.5t31 -18.5q44 0 86 74q26 48 52 126.5t26 111.5z" />
    <glyph glyph-name="e" unicode="e" horiz-adv-x="444" 
d="M346 125q-45 -74 -88.5 -106t-101.5 -32q-65 0 -108 41.5t-43 105.5q0 124 89.5 226t198.5 102q46 0 75.5 -24.5t29.5 -62.5q0 -56 -54 -105q-38 -35 -82 -54t-121 -34q-6 -30 -6 -49q0 -82 64 -82q32 0 58 19.5t60 71.5zM306 395q0 34 -28 34q-74 0 -130 -215
q74 23 109 61q49 51 49 120z" />
    <glyph glyph-name="f" unicode="f" horiz-adv-x="333" 
d="M446 618q0 -23 -14.5 -38t-36.5 -15q-21 0 -35 14t-14 35q0 14 11 31l5 11q0 13 -17 13q-53 0 -91 -149l-18 -71h92l-9 -42h-90q-63 -298 -95 -394q-42 -126 -90 -172q-47 -46 -114 -46q-45 0 -72 21.5t-27 57.5q0 22 15.5 38t35.5 16q19 0 34.5 -15t15.5 -33
q0 -16 -12 -34l-4 -9q0 -11 18 -11q30 0 48.5 39t41.5 150l88 392h-73l9 42h73q22 76 40.5 115t49.5 73q55 61 136 61q46 0 72.5 -21.5t26.5 -58.5z" />
    <glyph glyph-name="g" unicode="g" 
d="M375 -53q0 -66 -66.5 -108t-172.5 -42q-86 0 -137 28.5t-51 77.5q0 38 27 62q30 24 106 42q-62 21 -62 66q0 28 17 45t79 52q-80 34 -80 110t65 129t157 53q63 0 110 -33h111v-56h-67q6 -24 6 -42q0 -93 -89 -144q-59 -34 -127 -34q-16 0 -31 4q-11 4 -20 4
q-10 0 -19 -12t-9 -24q0 -24 51 -38l53 -15q82 -23 115.5 -51t33.5 -74zM266 -100q0 36 -41 57q-17 8 -59 22t-51 15q-6 1 -23.5 -9.5t-27.5 -20.5q-29 -28 -29 -55q0 -34 31 -56t80 -22q57 0 88.5 18t31.5 51zM271 253q29 63 29 119q0 26 -12.5 42.5t-32.5 16.5
q-38 0 -66 -49q-38 -69 -38 -139q0 -59 42 -59q47 0 78 69z" />
    <glyph glyph-name="h" unicode="h" horiz-adv-x="556" 
d="M498 127q-50 -77 -85.5 -106.5t-81.5 -29.5q-29 0 -47.5 16t-18.5 42q0 52 61 231q27 81 27 89t-6.5 14.5t-15.5 6.5q-40 0 -104 -94q-36 -53 -58 -108t-61 -188h-121l154 567q8 29 8 42q0 34 -41 34l-22 -1v27q97 8 208 30l-107 -416q74 106 117.5 142.5t94.5 36.5
q35 0 55.5 -20t20.5 -55q0 -29 -30 -122l-58 -178q-3 -8 -3 -12q0 -5 5.5 -10.5t11.5 -5.5q17 0 75 83z" />
    <glyph glyph-name="i" unicode="i" horiz-adv-x="278" 
d="M238 127q-52 -79 -87 -107.5t-80 -28.5q-31 0 -50 17.5t-19 45.5q0 22 13 69l58 215q7 30 7 40q0 29 -46 29h-13v27q116 9 202 28l-91 -334q-9 -38 -9 -52q0 -6 4.5 -10.5t10.5 -4.5q24 0 64 60l14 20zM266 590q0 -28 -20 -47.5t-49 -19.5q-28 0 -47 20t-19 49
q0 26 20 46t46 20q28 0 48.5 -20t20.5 -48z" />
    <glyph glyph-name="j" unicode="j" horiz-adv-x="278" 
d="M125 24q-60 -231 -209 -231q-47 0 -76 21t-29 56q0 22 14.5 37.5t34.5 15.5t34.5 -14.5t14.5 -34.5q0 -14 -10 -28q-5 -8 -5 -10q0 -4 7.5 -8t16.5 -4q21 0 36.5 28t34.5 103l92 355q12 45 12 67q0 30 -42 30h-20v27q134 12 208 28zM284 590q0 -28 -20 -47.5t-49 -19.5
q-28 0 -47 20t-19 49q0 26 20 46t46 20q28 0 48.5 -20t20.5 -48z" />
    <glyph glyph-name="k" unicode="k" 
d="M447 116q-37 -69 -67.5 -96.5t-68.5 -27.5q-46 0 -72.5 47.5t-50.5 175.5l-39 -27l-50 -188h-122l156 567q8 29 8 42q0 34 -42 34l-21 -1v27q99 10 208 30l-123 -460q95 75 129.5 109t34.5 53q0 12 -11 16.5t-40 6.5v25h207v-25q-34 -4 -59 -18t-76 -58l-63 -55
q30 -148 43.5 -189t34.5 -41q14 0 28 14t34 50z" />
    <glyph glyph-name="l" unicode="l" horiz-adv-x="278" 
d="M238 127q-52 -79 -87 -107.5t-81 -28.5q-31 0 -49.5 16.5t-18.5 43.5q0 37 34 158l75 264q33 120 33 142q0 28 -42 28q-10 0 -21 -1v27q96 9 209 30l-145 -523q-22 -79 -22 -100q0 -6 4.5 -10.5t10.5 -4.5q13 0 30.5 17.5t47.5 62.5z" />
    <glyph glyph-name="m" unicode="m" horiz-adv-x="778" 
d="M722 122q-44 -74 -79 -102.5t-81 -28.5q-67 0 -67 63q0 48 36 153l45 131q7 23 7 30q0 8 -7 14.5t-16 6.5q-47 0 -112 -116q-27 -48 -42.5 -89t-58.5 -184h-120l65 207q45 138 45 160q0 9 -5.5 15.5t-12.5 6.5q-25 0 -65 -47q-43 -51 -75 -126t-72 -216h-121l67 238
q35 126 35 144q0 25 -54 25v27q130 10 200 27l-64 -199q48 75 76 110t56 56q41 34 86 34q31 0 49 -18t18 -50q0 -36 -26 -104q62 99 104.5 135.5t93.5 36.5q33 0 55 -20t22 -51q0 -41 -23 -107l-45 -133q-21 -67 -21 -78q0 -14 16 -14q21 0 57 58q6 11 12 18z" />
    <glyph glyph-name="n" unicode="n" horiz-adv-x="556" 
d="M493 122q-44 -73 -79 -102t-80 -29q-32 0 -50 16t-18 44q0 47 28 131l55 166q5 17 5 21q0 8 -7.5 14.5t-17.5 6.5q-14 0 -34 -14.5t-35 -34.5q-46 -60 -77.5 -135t-67.5 -206h-121l56 204q46 162 46 178q0 14 -11 19t-43 6v27q92 3 200 27l-64 -198q78 116 123 158
q43 41 100 41q73 0 73 -75q0 -39 -26 -115l-36 -109q-25 -74 -25 -87q0 -17 14 -17q13 0 26.5 15t43.5 61z" />
    <glyph glyph-name="o" unicode="o" 
d="M441 311q0 -127 -86.5 -225.5t-198.5 -98.5q-69 0 -114 42t-45 106q0 126 88 226.5t199 100.5q69 0 113 -42.5t44 -108.5zM260 110q25 54 43.5 134t18.5 131q0 27 -12.5 42.5t-34.5 15.5q-49 0 -90 -75q-26 -47 -47.5 -135t-21.5 -145q0 -29 13 -45.5t36 -16.5
q52 0 95 94z" />
    <glyph glyph-name="p" unicode="p" 
d="M446 341q0 -85 -40.5 -167.5t-105.5 -134.5t-131 -52q-25 0 -68 22q-10 -38 -11 -41q-26 -96 -26 -114t13.5 -24.5t51.5 -7.5v-27h-249v27q36 -1 48.5 11.5t26.5 62.5l100 388q22 82 22 98q0 14 -10 18.5t-44 6.5v27l193 28l-38 -115q44 62 80.5 88.5t79.5 26.5
q50 0 79 -33t29 -88zM321 334q2 24 -9 40t-30 17t-42.5 -16t-42.5 -47q-18 -27 -46 -121q-38 -128 -38 -149q0 -15 11.5 -25.5t27.5 -10.5q50 0 97 82q27 49 48 115t24 115z" />
    <glyph glyph-name="q" unicode="q" 
d="M371 -205h-267v27q46 2 61.5 13t28.5 50l63 213q-39 -61 -73 -86t-79 -25q-49 0 -76.5 34.5t-27.5 95.5q0 84 52 175q44 77 105 123.5t118 46.5q37 0 54 -22q10 -13 17 -50l15 59h109l-85 -304q-80 -264 -80 -295q0 -28 51 -28h14v-27zM325 371q0 46 -35 48
q-45 3 -95 -85q-31 -54 -50 -115t-19 -103q0 -57 39 -57q45 0 88 74q26 46 49 122t23 116z" />
    <glyph glyph-name="r" unicode="r" horiz-adv-x="389" 
d="M389 396q0 -31 -16.5 -52t-41.5 -21q-23 0 -45 25q-9 13 -16 13q-22 0 -65 -76q-34 -58 -72 -181l-33 -104h-121q102 345 102 382q0 14 -10 18.5t-44 6.5v27q131 11 200 28l-66 -209q59 119 96 164t75 45q26 0 41.5 -18t15.5 -48z" />
    <glyph glyph-name="s" unicode="s" horiz-adv-x="389" 
d="M279 119q0 -56 -42 -94t-106 -38q-27 0 -63 12q-21 8 -31 8q-22 0 -29 -20h-27l22 166l27 -3q19 -133 96 -133q24 0 40.5 15.5t16.5 38.5q0 38 -56 104q-50 59 -65 90t-15 71q0 58 36.5 92t97.5 34q25 0 58 -13q23 -9 36 -9q11 0 16 3.5t13 17.5h29l-23 -153l-27 2
q-12 62 -33 90.5t-55 28.5q-24 0 -38.5 -14.5t-14.5 -38.5q0 -33 56 -98q81 -94 81 -159z" />
    <glyph glyph-name="t" unicode="t" horiz-adv-x="278" 
d="M225 127q-50 -77 -85.5 -106.5t-80.5 -29.5q-32 0 -51 18t-19 47q0 30 24 113l68 238h-51v35q59 22 100.5 57t82.5 95h35l-39 -145h72v-42h-83l-33 -119q-54 -186 -54 -212q0 -6 5 -10.5t11 -4.5q25 0 76 80z" />
    <glyph glyph-name="u" unicode="u" horiz-adv-x="556" 
d="M492 120q-75 -129 -161 -129q-65 0 -65 60q0 37 24 110q-77 -108 -113.5 -139t-86.5 -31q-75 0 -75 74q0 33 21 108l40 133q14 45 14 73q0 15 -10.5 20.5t-45.5 7.5v27q66 3 181 23q10 2 28 5l-94 -308q-15 -48 -15 -66q0 -25 21 -25q28 0 73 55q43 54 71.5 120t70.5 211
h118l-78 -268q-25 -80 -25 -105q0 -17 14 -17q24 0 72 74z" />
    <glyph glyph-name="v" unicode="v" horiz-adv-x="444" 
d="M401 395q0 -66 -61 -154q-42 -61 -88.5 -112.5t-140.5 -141.5h-26l4 136q1 20 1 41q0 173 -27 227q-5 10 -14.5 13t-32.5 3v27q99 14 155 28q16 -61 22 -125t9 -209q74 85 100 123.5t26 64.5q0 14 -20 37q-24 27 -24 51q0 23 17 40.5t39 17.5q24 0 42.5 -20.5t18.5 -46.5
z" />
    <glyph glyph-name="w" unicode="w" horiz-adv-x="667" 
d="M614 400q0 -125 -272 -413h-27l-23 285l-113 -199l-57 -86h-27q2 73 0 163q-5 224 -38 249q-9 8 -41 8v27q119 20 155 28q29 -108 33 -275l156 275h27l32 -332q119 139 119 181q0 15 -20 42q-21 29 -21 49q0 24 17 42t39 18q25 0 43 -18.5t18 -43.5z" />
    <glyph glyph-name="x" unicode="x" 
d="M421 109q-46 -66 -80.5 -94t-70.5 -28q-37 0 -58.5 34.5t-38.5 120.5l-24 -39q-44 -72 -69 -94t-62 -22q-28 0 -46 16.5t-18 42.5q0 24 16 40t39 16q17 0 40 -13q13 -8 21 -8q14 0 23.5 8t24.5 33l44 70l-30 154q-8 37 -20 52t-36 15q-16 0 -35 -2v27l167 24
q23 -34 45 -138q59 83 91 110.5t67 27.5q23 0 40.5 -18.5t17.5 -42.5q0 -22 -16.5 -37.5t-39.5 -15.5q-15 0 -32 11q-18 9 -25 9q-32 0 -83 -82q-3 -4 -5.5 -7.5t-3.5 -5.5l32 -156q6 -29 14.5 -41t22.5 -12q13 0 25.5 10.5t41.5 48.5z" />
    <glyph glyph-name="y" unicode="y" horiz-adv-x="444" 
d="M392 398q0 -76 -75.5 -227t-173.5 -270q-41 -50 -87.5 -78t-87.5 -28q-26 0 -44 17.5t-18 42.5q0 22 15 38.5t35 16.5q30 0 60 -21q18 -14 34 -14q13 0 32 15t35 37q25 35 25 69q0 50 -50 288q-23 107 -48 122q-9 5 -30 5v27q84 8 149 24q29 -75 66 -277l12 -75
q53 101 70 141.5t17 63.5q0 17 -24 35q-31 23 -31 55q0 23 17.5 40t39.5 17q25 0 43.5 -19t18.5 -45z" />
    <glyph glyph-name="z" unicode="z" horiz-adv-x="389" 
d="M346 13q0 -39 -31 -65t-77 -26q-57 0 -131 50q-48 33 -74 33q-13 0 -32 -14q-12 -10 -19 -14l-25 22l292 354h-145q-23 0 -36.5 -13.5t-26.5 -47.5l-28 3l43 154h312v-10l-281 -335q39 -17 61 -39t46 -67q13 -26 23.5 -36.5t23.5 -10.5q22 0 22 16q0 5 -7 15
q-13 14 -13 31q0 21 15 36.5t35 15.5q21 0 37 -15.5t16 -36.5z" />
    <glyph glyph-name="braceleft" unicode="{" horiz-adv-x="348" 
d="M210 -187q-104 2 -143 21.5t-39 69.5q0 56 35 159q26 80 26 116q0 26 -19 42t-65 28q66 14 94 38t43 78l46 179q23 82 76 112t172 30l-3 -12q-61 -11 -92 -39t-46 -85l-45 -171q-17 -64 -47.5 -90t-103.5 -40q56 -15 74 -30t18 -46q0 -38 -29 -130q-30 -99 -30 -140
q0 -34 18.5 -52t62.5 -26z" />
    <glyph glyph-name="bar" unicode="|" horiz-adv-x="220" 
d="M142 -159h-88v833h88v-833z" />
    <glyph glyph-name="braceright" unicode="}" horiz-adv-x="348" 
d="M302 250q-67 -15 -94.5 -38.5t-42.5 -77.5l-46 -179q-23 -82 -76 -112t-172 -30l3 12q61 11 92 39t46 85l45 171q17 64 47.5 90t103.5 40q-56 15 -74 30t-18 46q0 33 28 130q31 102 31 141q0 33 -19 51t-62 26l3 12q70 -1 104.5 -8t53.5 -24q24 -21 24 -56
q0 -57 -35 -162q-26 -80 -26 -116q0 -26 19 -42t65 -28z" />
    <glyph glyph-name="asciitilde" unicode="~" horiz-adv-x="570" 
d="M516 260q-34 -48 -61 -66.5t-62 -18.5q-43 0 -105 33q-62 35 -112 35q-22 0 -36.5 -9t-32.5 -33l-53 46q48 84 121 84q27 0 53 -8t83 -33q60 -27 82 -27q33 0 68 45z" />
    <glyph glyph-name="uni00A0" unicode="&#xa0;" horiz-adv-x="333" 
 />
    <glyph glyph-name="exclamdown" unicode="&#xa1;" horiz-adv-x="389" 
d="M277 -189q-22 -46 -69 -46q-31 0 -50 20t-19 53t31 89q84 166 143 318l29 -8q-46 -240 -53 -354q-2 -50 -12 -72zM442 391q0 -32 -21 -53.5t-52 -21.5q-29 0 -51 22.5t-22 52.5t21.5 50.5t52.5 20.5t51.5 -20t20.5 -51z" />
    <glyph glyph-name="cent" unicode="&#xa2;" 
d="M392 123q-47 -68 -82 -95.5t-85 -37.5l-47 -133h-34l46 130q-71 5 -109.5 44.5t-38.5 106.5q0 121 89.5 222.5t195.5 101.5q10 0 28 -3l41 117h35l-45 -127q53 -29 53 -79q0 -29 -18.5 -48.5t-46.5 -19.5q-21 0 -35 11l-92 -261q59 3 118 89zM339 413v2q-2 14 -22 14
q-45 0 -86 -73q-27 -48 -44.5 -107t-17.5 -102q0 -64 45 -90z" />
    <glyph glyph-name="sterling" unicode="&#xa3;" 
d="M434 155q-15 -75 -45 -114q-42 -53 -106 -53q-58 0 -127 61q-38 -60 -98 -60q-40 0 -65 24t-25 62q0 39 26.5 63t69.5 24q28 0 61 -14l19 162h-109l10 60h105q19 93 40 144.5t58 92.5q65 76 153 76q47 0 78 -26t31 -65q0 -29 -17.5 -48.5t-43.5 -19.5q-23 0 -38 14.5
t-15 36.5q0 10 4 34q3 11 3 19q0 9 -7 15t-17 6q-45 0 -60 -77l-39 -202h114l-10 -60h-115q-22 -100 -64 -169l-11 -17q82 -32 125 -32q36 0 54.5 13t35.5 50h25zM113 90q-33 30 -64 30q-23 0 -37 -13.5t-14 -36.5t15.5 -37t40.5 -14q43 0 59 71z" />
    <glyph glyph-name="currency" unicode="&#xa4;" 
d="M526 92l-58 -58l-96 98q-60 -37 -122 -37t-122 37l-96 -98l-58 58l98 98q-37 56 -37 120q0 65 37 122l-98 98l58 56l96 -96q56 35 122 35t122 -35l96 96l58 -56l-98 -98q37 -59 37 -122q0 -69 -37 -120zM377 308q0 57 -37 96t-90 39t-90 -38.5t-37 -94.5t37 -94.5
t90 -38.5q52 0 89.5 39t37.5 92z" />
    <glyph glyph-name="yen" unicode="&#xa5;" 
d="M628 644q-30 -6 -48.5 -20t-44.5 -49l-166 -233h135l-13 -50h-150l-21 -78h152l-14 -50h-152l-3 -11q-16 -59 -16 -85q0 -25 15.5 -33t65.5 -10v-25h-322v25q57 4 76 16.5t33 55.5l19 67h-141l14 50h141l22 78h-142l14 50h125l-79 239q-15 38 -28 48t-54 15v25h280v-25
q-43 -2 -59 -8.5t-16 -23.5q0 -14 6 -32l80 -236l135 194q26 37 26 60q0 26 -14 35t-56 11v25h200v-25z" />
    <glyph glyph-name="brokenbar" unicode="&#xa6;" horiz-adv-x="220" 
d="M142 341h-88v333h88v-333zM142 -159h-88v333h88v-333z" />
    <glyph glyph-name="section" unicode="&#xa7;" 
d="M435 243q0 -50 -34.5 -86t-82.5 -36q-14 0 -30 4l-2 -4q59 -74 59 -130t-47.5 -95t-116.5 -39q-61 0 -103 30.5t-42 74.5q0 26 16.5 43t41.5 17t40.5 -14t15.5 -36q0 -26 -22 -45q-13 -10 -13 -18q0 -11 20.5 -20t46.5 -9q38 0 62 21t24 55q0 25 -15 49.5t-68 89.5
l-66 80q-51 63 -51 124q0 53 30.5 89.5t73.5 36.5q23 0 49 -6l2 3q-55 61 -55 129q0 59 43 96.5t112 37.5q59 0 97.5 -27.5t38.5 -70.5q0 -26 -16.5 -43.5t-41.5 -17.5q-23 0 -39 16t-16 38q0 20 22 38q14 10 14 17q0 11 -18 19.5t-41 8.5q-38 0 -61.5 -20.5t-23.5 -52.5
q0 -43 68 -123l69 -81q60 -69 60 -143zM364 206q0 50 -62.5 122t-106.5 72q-24 0 -40 -16.5t-16 -41.5q0 -33 29 -76q47 -64 79 -91q31 -27 58 -27q24 0 41.5 17.5t17.5 40.5z" />
    <glyph glyph-name="dieresis" unicode="&#xa8;" horiz-adv-x="333" 
d="M169 589q0 -26 -19.5 -45t-46.5 -19q-25 0 -44.5 19.5t-19.5 44.5q0 27 19 46.5t45 19.5q27 0 46.5 -19.5t19.5 -46.5zM379 589q0 -26 -19.5 -45t-46.5 -19q-25 0 -44.5 19.5t-19.5 44.5q0 27 19 46.5t45 19.5q27 0 46.5 -19.5t19.5 -46.5z" />
    <glyph glyph-name="copyright" unicode="&#xa9;" horiz-adv-x="747" 
d="M706 325q0 -142 -100.5 -242.5t-243.5 -100.5q-142 0 -242.5 100t-100.5 243t100.5 243.5t242.5 100.5t243 -100.5t101 -243.5zM668 325q0 127 -89.5 216.5t-216.5 89.5t-216 -89.5t-89 -216.5t89 -216t216 -89t216.5 89t89.5 216zM558 521l-29 -136l-32 5q2 9 2 22
q-1 37 -20 59t-52 22t-65 -24q-39 -32 -64.5 -92.5t-24.5 -118.5q2 -43 24 -67t61 -24q29 0 52 10q33 13 71 56l25 -17q-23 -31 -49 -50q-51 -36 -117 -36q-76 0 -124.5 40t-49.5 105q-3 101 69.5 173.5t175.5 72.5q38 0 80 -12q11 -4 21 -4q11 0 20 16h26z" />
    <glyph glyph-name="ordfeminine" unicode="&#xaa;" horiz-adv-x="266" 
d="M326 475q-54 -76 -97 -76q-18 0 -31 11.5t-13 26.5q0 14 11 51q-28 -49 -52.5 -68.5t-57.5 -19.5q-31 0 -50.5 21t-19.5 55q0 72 59 140.5t121 68.5q37 0 47 -45l11 36l76 4l-46 -140q-22 -66 -22 -89q0 -9 5 -9q11 0 41 36l5 6zM218 630q0 26 -20 28q-26 3 -65 -66
t-39 -119q0 -11 7 -19.5t17 -8.5q31 0 64 62q14 28 25 65t11 58zM297 351h-316v30h316v-30z" />
    <glyph glyph-name="guillemotleft" unicode="&#xab;" 
d="M210 47q0 -15 -15 -15q-6 0 -15 10l-168 175v9l170 124q30 21 47 37q28 28 41 28q5 0 9 -3.5t4 -8.5q0 -30 -101 -134l-45 -49l40 -83q33 -69 33 -90zM395 47q0 -15 -15 -15q-6 0 -15 10l-168 175v9l170 124q30 21 47 37q28 28 41 28q5 0 9 -3.5t4 -8.5q0 -30 -101 -134
l-45 -49l40 -83q33 -69 33 -90z" />
    <glyph glyph-name="logicalnot" unicode="&#xac;" horiz-adv-x="570" 
d="M514 378v-212h-88v124h-394v88h482z" />
    <glyph glyph-name="uni00AD" unicode="&#xad;" horiz-adv-x="333" 
d="M248 166h-246l24 116h245z" />
    <glyph glyph-name="registered" unicode="&#xae;" horiz-adv-x="747" 
d="M706 325q0 -142 -100.5 -242.5t-243.5 -100.5q-142 0 -242.5 100t-100.5 243t100.5 243.5t242.5 100.5t243 -100.5t101 -243.5zM668 325q0 127 -89.5 216.5t-216.5 89.5t-216 -89.5t-89 -216.5t89 -216t216 -89t216.5 89t89.5 216zM558 429q2 -50 -50 -80
q-21 -14 -61 -22l52 -130q10 -23 18.5 -29t35.5 -8v-21h-134l-72 187l-31 -109q-8 -28 -7 -37q0 -11 7.5 -14.5t30.5 -4.5v-22h-181v22q20 1 27.5 8.5t13.5 27.5l67 244q7 22 5 32q0 12 -19 13q-12 3 -19 3l-1 22h167q148 0 151 -82zM453 438q-2 47 -48 47q-11 0 -15 -4
t-7 -16l-31 -120q45 1 62 12q39 22 39 81z" />
    <glyph glyph-name="macron" unicode="&#xaf;" horiz-adv-x="333" 
d="M364 555h-326l17 70h325z" />
    <glyph glyph-name="degree" unicode="&#xb0;" horiz-adv-x="400" 
d="M369 540q0 -61 -41.5 -102t-103.5 -41q-58 0 -99.5 42t-41.5 101q0 60 41.5 101.5t101.5 41.5t101.5 -41.5t41.5 -101.5zM328 540q0 43 -30.5 75t-71.5 32q-42 0 -72 -31.5t-30 -75.5t30 -75.5t71 -31.5q43 0 73 31.5t30 75.5z" />
    <glyph glyph-name="plusminus" unicode="&#xb1;" horiz-adv-x="570" 
d="M514 294h-197v-127h-88v127h-197v88h197v197h88v-197h197v-88zM514 0h-482v88h482v-88z" />
    <glyph glyph-name="two.superior" unicode="&#xb2;" horiz-adv-x="300" 
d="M291 388l-51 -114h-238v16q119 113 148 145q70 77 70 121q0 31 -15.5 48.5t-43.5 17.5q-39 0 -82 -48l-18 11q53 98 144 98q46 0 77 -28.5t31 -70.5q0 -36 -21 -67.5t-71 -72.5l-125 -101h89q37 0 54 8.5t36 36.5h16z" />
    <glyph glyph-name="three.superior" unicode="&#xb3;" horiz-adv-x="300" 
d="M294 423q0 -65 -56 -111.5t-135 -46.5q-86 0 -86 50q0 18 10.5 29.5t26.5 11.5q24 0 43 -28q16 -21 22 -25.5t20 -4.5q30 0 50.5 26.5t20.5 65.5q0 87 -100 91l2 14q121 22 121 85q0 24 -15 38t-40 14q-38 0 -75 -42l-14 13q57 80 133 80q42 0 70.5 -23.5t28.5 -57.5
q0 -28 -14 -44.5t-58 -42.5l-7 -4q29 -20 40.5 -39.5t11.5 -48.5z" />
    <glyph glyph-name="acute" unicode="&#xb4;" horiz-adv-x="333" 
d="M329 633q0 -14 -8.5 -24t-30.5 -23l-152 -87h-49l122 131q47 50 70 50q20 0 34 -14t14 -33z" />
    <glyph glyph-name="uni00B5" unicode="&#xb5;" horiz-adv-x="576" 
d="M521 100q-14 -50 -45.5 -82t-80.5 -32q-37 0 -59.5 23t-24.5 60l-1 38h-2q-23 -36 -40 -58t-49.5 -42.5t-69.5 -20.5q-53 0 -76 43q-22 -62 -19 -132q5 -113 -60 -113q-22 0 -35 16t-14 38q-1 27 41 105.5t57 137.5l90 358h125l-71 -282q-11 -37 -11 -64q1 -15 11 -25
t25 -10q32 0 69.5 48t63.5 154l44 179h125l-73 -289q-17 -68 -17 -82q1 -10 8.5 -18.5t17.5 -8.5q15 0 30 23.5t23 45.5z" />
    <glyph glyph-name="paragraph" unicode="&#xb6;" 
d="M346 -168l-7 -25h-171l217 837h-55l-217 -837h-170l7 25q64 5 78 18q9 9 28 82l85 326q-65 3 -98 25q-47 33 -47 105q0 57 22 118.5t54 96.5q62 66 195 66h295l-6 -25q-61 -5 -74 -13.5t-24 -49.5l-169 -649l-16 -73q0 -20 50 -25zM147 283l94 361q-49 -12 -74 -29.5
t-47 -55.5q-45 -77 -45 -165q0 -81 72 -111z" />
    <glyph glyph-name="periodcentered" unicode="&#xb7;" horiz-adv-x="250" 
d="M197 250q0 -34 -24.5 -59t-59.5 -25t-59.5 25t-24.5 59t24.5 59t59.5 25t59.5 -25t24.5 -59z" />
    <glyph glyph-name="cedilla" unicode="&#xb8;" horiz-adv-x="333" 
d="M156 -131q0 -37 -35.5 -62t-88.5 -25q-51 0 -112 25l22 33q38 -17 67 -17q26 0 41 11t15 30q0 36 -47 36q-14 0 -30 -4l-13 12l66 97h44l-45 -67q15 3 26 3q39 0 64.5 -20.5t25.5 -51.5z" />
    <glyph glyph-name="one.superior" unicode="&#xb9;" horiz-adv-x="300" 
d="M254 274h-224v19q42 0 58.5 15t29.5 65q2 8 13 41t26 81t25 82.5t9 35.5q-4 21 -26 21q-4 0 -32 -2l-11 -1l2 21q103 16 177 31l-100 -330q-6 -18 -6 -34t11 -21t48 -5v-19z" />
    <glyph glyph-name="ordmasculine" unicode="&#xba;" horiz-adv-x="300" 
d="M347 587q-4 -74 -60 -130.5t-125 -56.5q-46 0 -76 25t-30 64q0 75 57.5 135.5t129.5 60.5q48 0 77 -27.5t27 -70.5zM230 485q33 70 36 142q2 36 -25 38q-34 2 -60 -48q-17 -30 -30.5 -79.5t-13.5 -82.5q0 -35 28 -35q35 0 65 65zM292 352h-275v30h275v-30z" />
    <glyph glyph-name="guillemotright" unicode="&#xbb;" 
d="M468 221l-170 -124q-31 -23 -47 -38q-29 -27 -41 -27q-13 0 -13 12q0 30 101 134l45 49l-40 83q-33 67 -33 90q0 15 15 15q6 0 15 -10l168 -175v-9zM283 221l-170 -124q-31 -23 -47 -38q-29 -27 -41 -27q-13 0 -13 12q0 30 101 134l45 49l-40 83q-33 67 -33 90
q0 15 15 15q6 0 15 -10l168 -175v-9z" />
    <glyph glyph-name="onequarter" unicode="&#xbc;" horiz-adv-x="750" 
d="M688 149l-17 -61h-44l-28 -88h-86l27 88h-159l16 67l278 255h46l-78 -261h45zM609 319l-184 -170h132zM629 683l-435 -697h-58l435 697h58zM231 274h-224v19q42 0 58.5 15t29.5 65q10 31 13 41q60 178 60 199q0 8 -8 14.5t-18 6.5q-4 0 -32 -2l-11 -1l2 21q103 16 177 31
l-100 -330q-6 -18 -6 -34t11 -21t48 -5v-19z" />
    <glyph glyph-name="onehalf" unicode="&#xbd;" horiz-adv-x="750" 
d="M614 683l-435 -697h-58l435 697h58zM701 114l-51 -114h-238v16q119 113 148 145q70 77 70 121q0 31 -15.5 48.5t-43.5 17.5q-39 0 -82 -48l-18 11q53 98 144 98q46 0 77 -28.5t31 -70.5q0 -36 -21 -67.5t-71 -72.5l-125 -101h89q37 0 54 8.5t36 36.5h16zM215 274h-224v19
q42 0 58.5 15t29.5 65q10 31 13 41q60 178 60 199q0 8 -8 14.5t-18 6.5q-4 0 -32 -2l-11 -1l2 21q103 16 177 31l-100 -330q-6 -18 -6 -34t11 -21t48 -5v-19z" />
    <glyph glyph-name="threequarters" unicode="&#xbe;" horiz-adv-x="750" 
d="M693 149l-17 -61h-44l-28 -88h-86l27 88h-159l16 67l278 255h46l-78 -261h45zM614 319l-184 -170h132zM634 683l-435 -697h-58l435 697h58zM284 423q0 -65 -56 -111.5t-135 -46.5q-86 0 -86 50q0 18 10.5 29.5t26.5 11.5q24 0 43 -28q16 -21 22 -25.5t20 -4.5
q30 0 50.5 26.5t20.5 64.5q0 88 -100 92l2 14q121 22 121 85q0 24 -15 38t-40 14q-38 0 -75 -42l-14 13q57 80 133 80q42 0 70.5 -23.5t28.5 -57.5q0 -28 -14.5 -45t-57.5 -42l-7 -4q29 -20 40.5 -39.5t11.5 -48.5z" />
    <glyph glyph-name="questiondown" unicode="&#xbf;" 
d="M501 -106q0 -56 -49.5 -92.5t-125.5 -36.5q-79 0 -127.5 39.5t-48.5 104.5q0 47 29.5 87.5t96.5 83.5l66 43q29 19 45 42.5t37 75.5l29 -7q-6 -76 -71 -159l-41 -51q-64 -80 -64 -149q0 -37 18.5 -58t50.5 -21q24 0 43 11.5t19 26.5q0 8 -11 22q-18 24 -18 45
q0 25 18 42.5t43 17.5q26 0 43.5 -19t17.5 -48zM541 388q0 -32 -21.5 -53t-53.5 -21q-30 0 -51.5 22t-21.5 52q0 31 21.5 52.5t53.5 21.5q31 0 52 -21t21 -53z" />
    <glyph glyph-name="Agrave" unicode="&#xc0;" horiz-adv-x="667" 
d="M593 0h-304v25q48 5 63.5 16.5t15.5 42.5q0 20 -8 72q-4 16 -7 52h-215l-59 -102q-15 -26 -15 -46q0 -35 65 -35v-25h-196v25q27 6 43 19.5t40 50.5l372 588h25l96 -572q10 -57 22 -69.5t62 -16.5v-25zM346 248l-37 243l-148 -243h185zM515 717h-53l-126 71
q-19 11 -23.5 18.5t1.5 18.5q8 15 30 26.5t42 11.5q27 0 54 -40z" />
    <glyph glyph-name="Aacute" unicode="&#xc1;" horiz-adv-x="667" 
d="M593 0h-304v25q48 5 63.5 16.5t15.5 42.5q0 20 -8 72q-4 16 -7 52h-215l-59 -102q-15 -26 -15 -46q0 -35 65 -35v-25h-196v25q27 6 43 19.5t40 50.5l372 588h25l96 -572q10 -57 22 -69.5t62 -16.5v-25zM346 248l-37 243l-148 -243h185zM563 825q0 -11 -8.5 -19t-33.5 -18
l-164 -71h-53l132 106q49 40 76 40q20 0 35.5 -11.5t15.5 -26.5z" />
    <glyph glyph-name="Acircumflex" unicode="&#xc2;" horiz-adv-x="667" 
d="M593 0h-304v25q48 5 63.5 16.5t15.5 42.5q0 20 -8 72q-4 16 -7 52h-215l-59 -102q-15 -26 -15 -46q0 -35 65 -35v-25h-196v25q27 6 43 19.5t40 50.5l372 588h25l96 -572q10 -57 22 -69.5t62 -16.5v-25zM346 248l-37 243l-148 -243h185zM587 720h-55l-96 77l-141 -77h-61
l172 141h87z" />
    <glyph glyph-name="Atilde" unicode="&#xc3;" horiz-adv-x="667" 
d="M593 0h-304v25q48 5 63.5 16.5t15.5 42.5q0 20 -8 72q-4 16 -7 52h-215l-59 -102q-15 -26 -15 -46q0 -35 65 -35v-25h-196v25q27 6 43 19.5t40 50.5l372 588h25l96 -572q10 -57 22 -69.5t62 -16.5v-25zM346 248l-37 243l-148 -243h185zM609 850q-16 -63 -44 -91t-73 -28
q-25 0 -57 13l-59 23q-21 8 -38 8q-31 0 -48 -43h-40q10 54 41.5 86t74.5 32q38 0 97 -26q39 -16 54 -16q17 0 28.5 9t22.5 33h41z" />
    <glyph glyph-name="Adieresis" unicode="&#xc4;" horiz-adv-x="667" 
d="M593 0h-304v25q48 5 63.5 16.5t15.5 42.5q0 20 -8 72q-4 16 -7 52h-215l-59 -102q-15 -26 -15 -46q0 -35 65 -35v-25h-196v25q27 6 43 19.5t40 50.5l372 588h25l96 -572q10 -57 22 -69.5t62 -16.5v-25zM346 248l-37 243l-148 -243h185zM389 789q0 -26 -19.5 -45
t-46.5 -19q-25 0 -44.5 19.5t-19.5 44.5q0 27 19 46.5t45 19.5q27 0 46.5 -19.5t19.5 -46.5zM599 789q0 -26 -19.5 -45t-46.5 -19q-25 0 -44.5 19.5t-19.5 44.5q0 27 19 46.5t45 19.5q27 0 46.5 -19.5t19.5 -46.5z" />
    <glyph glyph-name="Aring" unicode="&#xc5;" horiz-adv-x="667" 
d="M593 0h-304v25q48 5 63.5 16.5t15.5 42.5q0 20 -8 72q-4 16 -7 52h-215l-59 -102q-15 -26 -15 -46q0 -35 65 -35v-25h-196v25q27 6 43 19.5t40 50.5l372 588h25l96 -572q10 -57 22 -69.5t62 -16.5v-25zM346 248l-37 243l-148 -243h185zM541 810q0 -44 -31.5 -75.5
t-75.5 -31.5t-75 31.5t-31 76.5q0 43 31.5 74t75.5 31q43 0 74.5 -31t31.5 -75zM493 808q0 25 -17.5 42.5t-42.5 17.5q-23 0 -40 -17.5t-17 -41.5t17 -41t40 -17q25 0 42.5 17t17.5 40z" />
    <glyph glyph-name="AE" unicode="&#xc6;" horiz-adv-x="944" 
d="M850 196l-59 -196h-527v25q39 6 52.5 18.5t25.5 52.5l46 159h-192l-114 -157q-15 -20 -15 -39q0 -16 14 -23.5t50 -10.5v-25h-195v25q19 2 30 9q7 3 58 68l366 472q20 27 20 44q0 14 -16 19.5t-65 8.5v23h589l-45 -190l-24 5l-2 40q-6 113 -162 113q-32 0 -43 -6t-16 -26
l-65 -235h10h9q76 0 110.5 20.5t64.5 85.5l26 -4l-73 -273l-25 5q0 4 0.5 8t1 6.5t0.5 5.5q1 14 1 26q0 50 -25 66.5t-108 21.5l-63 -241q-5 -20 -5 -28q0 -20 13.5 -28.5t44.5 -8.5q112 0 179 48q28 19 49.5 44.5t52.5 74.5zM490 627h-12l-253 -333h173z" />
    <glyph glyph-name="Ccedilla" unicode="&#xc7;" horiz-adv-x="667" 
d="M576 131q-40 -55 -78 -84q-86 -65 -194 -65q-30 0 -63 6l-34 -50q15 3 26 3q39 0 64.5 -20.5t25.5 -51.5q0 -37 -35.5 -62t-88.5 -25q-52 0 -112 25l22 33q37 -17 67 -17q26 0 41 11t15 30q0 36 -47 36q-14 0 -30 -4l-13 12l61 90q-82 27 -126.5 90.5t-44.5 152.5
q0 182 120.5 313t287.5 131q64 0 131 -21q24 -8 38 -8q20 0 38 29h30l-51 -234l-32 6q3 19 3 35q0 73 -35 115.5t-96 42.5q-63 0 -120 -48q-68 -59 -114 -172t-46 -221q0 -82 40 -128t110 -46q48 0 90 18q32 14 57.5 35t62.5 65z" />
    <glyph glyph-name="Egrave" unicode="&#xc8;" horiz-adv-x="667" 
d="M586 194l-59 -194h-554v25q39 6 53.5 19t26.5 53l123 449q10 38 10 61q0 28 -42 33l-31 4v25h540l-43 -190l-27 5q0 46 -6.5 69.5t-23.5 41.5q-42 42 -154 42q-31 0 -43 -9t-20 -35l-61 -223q99 -1 134.5 17.5t70.5 88.5l28 -4l-74 -273l-28 5q4 25 4 44q0 52 -29.5 70.5
t-114.5 19.5l-56 -209q-15 -31 -15 -63q0 -34 61 -34q131 0 214 61q28 20 47 42t44 64zM547 717h-53l-126 71q-19 11 -23.5 18.5t1.5 18.5q8 15 30 26.5t42 11.5q27 0 54 -40z" />
    <glyph glyph-name="Eacute" unicode="&#xc9;" horiz-adv-x="667" 
d="M586 194l-59 -194h-554v25q39 6 53.5 19t26.5 53l123 449q10 38 10 61q0 28 -42 33l-31 4v25h540l-43 -190l-27 5q0 46 -6.5 69.5t-23.5 41.5q-42 42 -154 42q-31 0 -43 -9t-20 -35l-61 -223q99 -1 134.5 17.5t70.5 88.5l28 -4l-74 -273l-28 5q4 25 4 44q0 52 -29.5 70.5
t-114.5 19.5l-56 -209q-15 -31 -15 -63q0 -34 61 -34q131 0 214 61q28 20 47 42t44 64zM595 825q0 -11 -8.5 -19t-33.5 -18l-164 -71h-53l132 106q49 40 76 40q20 0 35.5 -11.5t15.5 -26.5z" />
    <glyph glyph-name="Ecircumflex" unicode="&#xca;" horiz-adv-x="667" 
d="M586 194l-59 -194h-554v25q39 6 53.5 19t26.5 53l123 449q10 38 10 61q0 28 -42 33l-31 4v25h540l-43 -190l-27 5q0 46 -6.5 69.5t-23.5 41.5q-42 42 -154 42q-31 0 -43 -9t-20 -35l-61 -223q99 -1 134.5 17.5t70.5 88.5l28 -4l-74 -273l-28 5q4 25 4 44q0 52 -29.5 70.5
t-114.5 19.5l-56 -209q-15 -31 -15 -63q0 -34 61 -34q131 0 214 61q28 20 47 42t44 64zM619 720h-55l-96 77l-141 -77h-61l172 141h87z" />
    <glyph glyph-name="Edieresis" unicode="&#xcb;" horiz-adv-x="667" 
d="M586 194l-59 -194h-554v25q39 6 53.5 19t26.5 53l123 449q10 38 10 61q0 28 -42 33l-31 4v25h540l-43 -190l-27 5q0 46 -6.5 69.5t-23.5 41.5q-42 42 -154 42q-31 0 -43 -9t-20 -35l-61 -223q99 -1 134.5 17.5t70.5 88.5l28 -4l-74 -273l-28 5q4 25 4 44q0 52 -29.5 70.5
t-114.5 19.5l-56 -209q-15 -31 -15 -63q0 -34 61 -34q131 0 214 61q28 20 47 42t44 64zM421 789q0 -26 -19.5 -45t-46.5 -19q-25 0 -44.5 19.5t-19.5 44.5q0 27 19 46.5t45 19.5q27 0 46.5 -19.5t19.5 -46.5zM631 789q0 -26 -19.5 -45t-46.5 -19q-25 0 -44.5 19.5
t-19.5 44.5q0 27 19 46.5t45 19.5q27 0 46.5 -19.5t19.5 -46.5z" />
    <glyph glyph-name="Igrave" unicode="&#xcc;" horiz-adv-x="389" 
d="M264 0h-296v25q37 4 52.5 18.5t27.5 53.5l123 449q10 38 10 61q0 15 -9 22t-32 10q-22 4 -32 5v25h298v-25q-38 -5 -54 -18.5t-28 -53.5l-114 -420q-18 -64 -18 -87q0 -21 15 -29.5t57 -10.5v-25zM395 717h-53l-126 71q-19 11 -23.5 18.5t1.5 18.5q8 15 30 26.5t42 11.5
q27 0 54 -40z" />
    <glyph glyph-name="Iacute" unicode="&#xcd;" horiz-adv-x="389" 
d="M264 0h-296v25q37 4 52.5 18.5t27.5 53.5l123 449q10 38 10 61q0 15 -9 22t-32 10q-22 4 -32 5v25h298v-25q-38 -5 -54 -18.5t-28 -53.5l-114 -420q-18 -64 -18 -87q0 -21 15 -29.5t57 -10.5v-25zM443 825q0 -11 -8.5 -19t-33.5 -18l-164 -71h-53l132 106q49 40 76 40
q20 0 35.5 -11.5t15.5 -26.5z" />
    <glyph glyph-name="Icircumflex" unicode="&#xce;" horiz-adv-x="389" 
d="M264 0h-296v25q37 4 52.5 18.5t27.5 53.5l123 449q10 38 10 61q0 15 -9 22t-32 10q-22 4 -32 5v25h298v-25q-38 -5 -54 -18.5t-28 -53.5l-114 -420q-18 -64 -18 -87q0 -21 15 -29.5t57 -10.5v-25zM467 720h-55l-96 77l-141 -77h-61l172 141h87z" />
    <glyph glyph-name="Idieresis" unicode="&#xcf;" horiz-adv-x="389" 
d="M264 0h-296v25q37 4 52.5 18.5t27.5 53.5l123 449q10 38 10 61q0 15 -9 22t-32 10q-22 4 -32 5v25h298v-25q-38 -5 -54 -18.5t-28 -53.5l-114 -420q-18 -64 -18 -87q0 -21 15 -29.5t57 -10.5v-25zM269 789q0 -26 -19.5 -45t-46.5 -19q-25 0 -44.5 19.5t-19.5 44.5
q0 27 19 46.5t45 19.5q27 0 46.5 -19.5t19.5 -46.5zM479 789q0 -26 -19.5 -45t-46.5 -19q-25 0 -44.5 19.5t-19.5 44.5q0 27 19 46.5t45 19.5q27 0 46.5 -19.5t19.5 -46.5z" />
    <glyph glyph-name="Eth" unicode="&#xd0;" horiz-adv-x="722" 
d="M700 396q0 -171 -126.5 -283.5t-318.5 -112.5h-286v25q36 5 52.5 19.5t27.5 52.5l63 232h-102l12 44h102l46 170q12 44 12 59q0 18 -9 26t-33 11l-31 5v25h290q142 0 221.5 -72.5t79.5 -200.5zM553 457q0 181 -165 181q-46 0 -55 -38l-61 -227h122l-12 -44h-122l-55 -203
l-1 -4q-12 -36 -12 -54q0 -34 54 -34q142 0 223 118q39 58 61.5 140t22.5 165z" />
    <glyph glyph-name="Ntilde" unicode="&#xd1;" horiz-adv-x="722" 
d="M748 644q-31 -7 -45 -18t-25 -37t-32 -98l-143 -506h-28l-257 549l-99 -356q-18 -63 -18 -94q0 -29 18 -42t62 -17v-25h-208v25q41 8 56.5 31.5t44.5 121.5l120 411q-14 33 -28 42t-55 13v25h195l215 -465l80 287q18 67 18 94q0 29 -18 42t-62 17v25h209v-25zM667 850
q-16 -63 -44 -91t-73 -28q-25 0 -57 13l-59 23q-21 8 -38 8q-31 0 -48 -43h-40q10 54 41.5 86t74.5 32q38 0 97 -26q39 -16 54 -16q17 0 28.5 9t22.5 33h41z" />
    <glyph glyph-name="Ograve" unicode="&#xd2;" horiz-adv-x="722" 
d="M691 454q0 -112 -59 -223t-154 -178q-98 -71 -215 -71q-106 0 -171 66t-65 173q0 106 60 217t153 176q101 71 209 71q104 0 173 -65.5t69 -165.5zM547 532q0 53 -28 86t-73 33q-99 0 -175 -142q-39 -73 -69.5 -186t-30.5 -186q0 -56 27.5 -88.5t74.5 -32.5q81 0 149 102
q49 74 87 200t38 214zM569 717h-53l-126 71q-19 11 -23.5 18.5t1.5 18.5q8 15 30 26.5t42 11.5q27 0 54 -40z" />
    <glyph glyph-name="Oacute" unicode="&#xd3;" horiz-adv-x="722" 
d="M691 454q0 -112 -59 -223t-154 -178q-98 -71 -215 -71q-106 0 -171 66t-65 173q0 106 60 217t153 176q101 71 209 71q104 0 173 -65.5t69 -165.5zM547 532q0 53 -28 86t-73 33q-99 0 -175 -142q-39 -73 -69.5 -186t-30.5 -186q0 -56 27.5 -88.5t74.5 -32.5q81 0 149 102
q49 74 87 200t38 214zM617 825q0 -11 -8.5 -19t-33.5 -18l-164 -71h-53l132 106q49 40 76 40q20 0 35.5 -11.5t15.5 -26.5z" />
    <glyph glyph-name="Ocircumflex" unicode="&#xd4;" horiz-adv-x="722" 
d="M691 454q0 -112 -59 -223t-154 -178q-98 -71 -215 -71q-106 0 -171 66t-65 173q0 106 60 217t153 176q101 71 209 71q104 0 173 -65.5t69 -165.5zM547 532q0 53 -28 86t-73 33q-99 0 -175 -142q-39 -73 -69.5 -186t-30.5 -186q0 -56 27.5 -88.5t74.5 -32.5q81 0 149 102
q49 74 87 200t38 214zM641 720h-55l-96 77l-141 -77h-61l172 141h87z" />
    <glyph glyph-name="Otilde" unicode="&#xd5;" horiz-adv-x="722" 
d="M691 454q0 -112 -59 -223t-154 -178q-98 -71 -215 -71q-106 0 -171 66t-65 173q0 106 60 217t153 176q101 71 209 71q104 0 173 -65.5t69 -165.5zM547 532q0 53 -28 86t-73 33q-99 0 -175 -142q-39 -73 -69.5 -186t-30.5 -186q0 -56 27.5 -88.5t74.5 -32.5q81 0 149 102
q49 74 87 200t38 214zM663 850q-16 -63 -44 -91t-73 -28q-25 0 -57 13l-59 23q-21 8 -38 8q-31 0 -48 -43h-40q10 54 41.5 86t74.5 32q38 0 97 -26q39 -16 54 -16q17 0 28.5 9t22.5 33h41z" />
    <glyph glyph-name="Odieresis" unicode="&#xd6;" horiz-adv-x="722" 
d="M691 454q0 -112 -59 -223t-154 -178q-98 -71 -215 -71q-106 0 -171 66t-65 173q0 106 60 217t153 176q101 71 209 71q104 0 173 -65.5t69 -165.5zM547 532q0 53 -28 86t-73 33q-99 0 -175 -142q-39 -73 -69.5 -186t-30.5 -186q0 -56 27.5 -88.5t74.5 -32.5q81 0 149 102
q49 74 87 200t38 214zM443 789q0 -26 -19.5 -45t-46.5 -19q-25 0 -44.5 19.5t-19.5 44.5q0 27 19 46.5t45 19.5q27 0 46.5 -19.5t19.5 -46.5zM653 789q0 -26 -19.5 -45t-46.5 -19q-25 0 -44.5 19.5t-19.5 44.5q0 27 19 46.5t45 19.5q27 0 46.5 -19.5t19.5 -46.5z" />
    <glyph glyph-name="multiply" unicode="&#xd7;" horiz-adv-x="570" 
d="M475 111l-63 -63l-139 140l-139 -140l-63 63l140 139l-140 139l63 63l139 -140l139 140l63 -63l-140 -139z" />
    <glyph glyph-name="Oslash" unicode="&#xd8;" horiz-adv-x="722" 
d="M691 453q0 -112 -59 -222t-154 -178q-100 -71 -212 -71q-43 0 -83 13l-70 -120h-48l79 136q-39 23 -61 47q-56 65 -56 154t36 176t94 152t135.5 105t156.5 40q40 0 82 -13l53 92h49l-63 -108q54 -31 78 -66q43 -61 43 -137zM506 630q-27 21 -63 21q-92 0 -165 -130
q-43 -77 -75 -190t-32 -190q0 -33 11 -64zM547 527q0 30 -14 66l-325 -555q28 -22 65 -22q81 0 149 103q48 71 86.5 197t38.5 211z" />
    <glyph glyph-name="Ugrave" unicode="&#xd9;" horiz-adv-x="722" 
d="M744 644q-41 -8 -56.5 -31t-45.5 -122l-66 -228q-42 -147 -89 -201q-68 -80 -197 -80q-98 0 -160.5 46.5t-62.5 119.5q0 54 34 175l55 206q15 58 15 76q0 16 -9 23.5t-33 11.5l-31 4v25h311v-25q-46 -2 -63.5 -15.5t-30.5 -56.5l-82 -300q-28 -101 -28 -133
q0 -47 32.5 -74t89.5 -27q82 0 133 60q43 53 79 184l58 209q19 70 19 96q0 27 -18.5 40t-61.5 17v25h208v-25zM611 717h-53l-126 71q-19 11 -23.5 18.5t1.5 18.5q8 15 30 26.5t42 11.5q27 0 54 -40z" />
    <glyph glyph-name="Uacute" unicode="&#xda;" horiz-adv-x="722" 
d="M744 644q-41 -8 -56.5 -31t-45.5 -122l-66 -228q-42 -147 -89 -201q-68 -80 -197 -80q-98 0 -160.5 46.5t-62.5 119.5q0 54 34 175l55 206q15 58 15 76q0 16 -9 23.5t-33 11.5l-31 4v25h311v-25q-46 -2 -63.5 -15.5t-30.5 -56.5l-82 -300q-28 -101 -28 -133
q0 -47 32.5 -74t89.5 -27q82 0 133 60q43 53 79 184l58 209q19 70 19 96q0 27 -18.5 40t-61.5 17v25h208v-25zM659 825q0 -11 -8.5 -19t-33.5 -18l-164 -71h-53l132 106q49 40 76 40q20 0 35.5 -11.5t15.5 -26.5z" />
    <glyph glyph-name="Ucircumflex" unicode="&#xdb;" horiz-adv-x="722" 
d="M744 644q-41 -8 -56.5 -31t-45.5 -122l-66 -228q-42 -147 -89 -201q-68 -80 -197 -80q-98 0 -160.5 46.5t-62.5 119.5q0 54 34 175l55 206q15 58 15 76q0 16 -9 23.5t-33 11.5l-31 4v25h311v-25q-46 -2 -63.5 -15.5t-30.5 -56.5l-82 -300q-28 -101 -28 -133
q0 -47 32.5 -74t89.5 -27q82 0 133 60q43 53 79 184l58 209q19 70 19 96q0 27 -18.5 40t-61.5 17v25h208v-25zM683 720h-55l-96 77l-141 -77h-61l172 141h87z" />
    <glyph glyph-name="Udieresis" unicode="&#xdc;" horiz-adv-x="722" 
d="M744 644q-41 -8 -56.5 -31t-45.5 -122l-66 -228q-42 -147 -89 -201q-68 -80 -197 -80q-98 0 -160.5 46.5t-62.5 119.5q0 54 34 175l55 206q15 58 15 76q0 16 -9 23.5t-33 11.5l-31 4v25h311v-25q-46 -2 -63.5 -15.5t-30.5 -56.5l-82 -300q-28 -101 -28 -133
q0 -47 32.5 -74t89.5 -27q82 0 133 60q43 53 79 184l58 209q19 70 19 96q0 27 -18.5 40t-61.5 17v25h208v-25zM485 789q0 -26 -19.5 -45t-46.5 -19q-25 0 -44.5 19.5t-19.5 44.5q0 27 19 46.5t45 19.5q27 0 46.5 -19.5t19.5 -46.5zM695 789q0 -26 -19.5 -45t-46.5 -19
q-25 0 -44.5 19.5t-19.5 44.5q0 27 19 46.5t45 19.5q27 0 46.5 -19.5t19.5 -46.5z" />
    <glyph glyph-name="Yacute" unicode="&#xdd;" horiz-adv-x="611" 
d="M659 644q-28 -6 -46.5 -20t-44.5 -49l-190 -267l-52 -191q-8 -29 -8 -45q0 -28 14 -36.5t63 -10.5v-25h-322v25q52 4 69.5 16.5t31.5 55.5l60 216l-88 268q-14 40 -24.5 49t-48.5 14v25h283v-25q-42 -2 -56 -9t-14 -28q0 -24 33 -119l19 -59l25 -77l129 186q26 37 26 60
q0 26 -13.5 35t-53.5 11v25h208v-25zM568 825q0 -11 -8.5 -19t-33.5 -18l-164 -71h-53l132 106q49 40 76 40q20 0 35.5 -11.5t15.5 -26.5z" />
    <glyph glyph-name="Thorn" unicode="&#xde;" horiz-adv-x="611" 
d="M573 379q0 -90 -74 -143.5t-199 -53.5q-37 0 -81 5l-14 -64q-10 -44 -10 -59q0 -20 15 -28.5t57 -10.5v-25h-294v25q39 6 53.5 19t26.5 53l123 449q10 38 10 61q0 28 -42 33l-31 4v25h294l-1 -25q-40 -6 -53 -17.5t-28 -54.5l-13 -38h48q104 0 158.5 -39.5t54.5 -115.5z
M405 301q22 52 22 110q0 43 -22 67t-62 24q-26 0 -39 -14q-4 -6 -11 -30l-64 -239q34 -2 42 -2q53 0 84 19t50 65z" />
    <glyph glyph-name="germandbls" unicode="&#xdf;" 
d="M435 255q0 -104 -66.5 -183t-153.5 -79q-41 0 -73 22l20 35l4 -5q14 -18 43 -18q35 0 62 60q18 40 31 104.5t13 112.5q0 49 -24 65q-12 10 -50 15l7 37q26 0 50 14.5t35 38.5q29 63 29 140q0 61 -46 61q-34 0 -58 -39t-44 -127l-91 -407q-68 -302 -226 -302q-43 0 -70 21
t-27 56q0 24 14 38.5t37 14.5q22 0 35 -12t13 -33q0 -20 -11 -31q-6 -6 -6 -12q0 -11 16 -11q26 0 39 17q25 33 47 132l92 423q66 302 251 302q64 0 105 -37t41 -94q0 -59 -41 -97q-25 -25 -53.5 -40.5t-87.5 -37.5q71 -14 101 -42q43 -37 43 -102z" />
    <glyph glyph-name="agrave" unicode="&#xe0;" 
d="M455 112q-84 -126 -151 -126q-28 0 -47.5 19t-19.5 47q0 19 14 67q-43 -72 -80.5 -102t-83.5 -30q-49 0 -78.5 35t-29.5 92q0 76 42 158t106.5 136t124.5 54q32 0 49.5 -17t24.5 -55l18 59l111 7l-71 -236q-34 -112 -34 -148q0 -15 12 -15t26.5 14t45.5 56zM303 373
q0 20 -10 32.5t-27 14.5q-42 3 -90 -82q-31 -56 -52.5 -121.5t-21.5 -104.5q0 -23 13 -38.5t32 -15.5q43 0 84 75q29 52 50.5 123.5t21.5 116.5zM358 499h-49l-105 87q-16 13 -19 23t5 24q10 19 31.5 33t41.5 14q13 0 22.5 -10.5t20.5 -39.5z" />
    <glyph glyph-name="aacute" unicode="&#xe1;" 
d="M455 112q-84 -126 -151 -126q-28 0 -47.5 19t-19.5 47q0 19 14 67q-43 -72 -80.5 -102t-83.5 -30q-49 0 -78.5 35t-29.5 92q0 76 42 158t106.5 136t124.5 54q32 0 49.5 -17t24.5 -55l18 59l111 7l-71 -236q-34 -112 -34 -148q0 -15 12 -15t26.5 14t45.5 56zM303 373
q0 20 -10 32.5t-27 14.5q-42 3 -90 -82q-31 -56 -52.5 -121.5t-21.5 -104.5q0 -23 13 -38.5t32 -15.5q43 0 84 75q29 52 50.5 123.5t21.5 116.5zM406 633q0 -14 -8.5 -24t-30.5 -23l-152 -87h-49l122 131q47 50 70 50q20 0 34 -14t14 -33z" />
    <glyph glyph-name="acircumflex" unicode="&#xe2;" 
d="M455 112q-84 -126 -151 -126q-28 0 -47.5 19t-19.5 47q0 19 14 67q-43 -72 -80.5 -102t-83.5 -30q-49 0 -78.5 35t-29.5 92q0 76 42 158t106.5 136t124.5 54q32 0 49.5 -17t24.5 -55l18 59l111 7l-71 -236q-34 -112 -34 -148q0 -15 12 -15t26.5 14t45.5 56zM303 373
q0 20 -10 32.5t-27 14.5q-42 3 -90 -82q-31 -56 -52.5 -121.5t-21.5 -104.5q0 -23 13 -38.5t32 -15.5q43 0 84 75q29 52 50.5 123.5t21.5 116.5zM427 503h-51l-88 95l-131 -95h-57l160 174h81z" />
    <glyph glyph-name="atilde" unicode="&#xe3;" 
d="M455 112q-84 -126 -151 -126q-28 0 -47.5 19t-19.5 47q0 19 14 67q-43 -72 -80.5 -102t-83.5 -30q-49 0 -78.5 35t-29.5 92q0 76 42 158t106.5 136t124.5 54q32 0 49.5 -17t24.5 -55l18 59l111 7l-71 -236q-34 -112 -34 -148q0 -15 12 -15t26.5 14t45.5 56zM303 373
q0 20 -10 32.5t-27 14.5q-42 3 -90 -82q-31 -56 -52.5 -121.5t-21.5 -104.5q0 -23 13 -38.5t32 -15.5q43 0 84 75q29 52 50.5 123.5t21.5 116.5zM467 650q-16 -63 -44 -91t-73 -28q-25 0 -57 13l-59 23q-21 8 -38 8q-31 0 -48 -43h-40q10 54 41.5 86t74.5 32q38 0 97 -26
q39 -16 54 -16q17 0 28.5 9t22.5 33h41z" />
    <glyph glyph-name="adieresis" unicode="&#xe4;" 
d="M455 112q-84 -126 -151 -126q-28 0 -47.5 19t-19.5 47q0 19 14 67q-43 -72 -80.5 -102t-83.5 -30q-49 0 -78.5 35t-29.5 92q0 76 42 158t106.5 136t124.5 54q32 0 49.5 -17t24.5 -55l18 59l111 7l-71 -236q-34 -112 -34 -148q0 -15 12 -15t26.5 14t45.5 56zM303 373
q0 20 -10 32.5t-27 14.5q-42 3 -90 -82q-31 -56 -52.5 -121.5t-21.5 -104.5q0 -23 13 -38.5t32 -15.5q43 0 84 75q29 52 50.5 123.5t21.5 116.5zM246 589q0 -26 -19.5 -45t-46.5 -19q-26 0 -45 19.5t-19 44.5q0 27 19 46.5t45 19.5q27 0 46.5 -19.5t19.5 -46.5zM456 589
q0 -26 -19.5 -45t-46.5 -19q-26 0 -45 19.5t-19 44.5q0 27 19 46.5t45 19.5q27 0 46.5 -19.5t19.5 -46.5z" />
    <glyph glyph-name="aring" unicode="&#xe5;" 
d="M455 112q-84 -126 -151 -126q-28 0 -47.5 19t-19.5 47q0 19 14 67q-43 -72 -80.5 -102t-83.5 -30q-49 0 -78.5 35t-29.5 92q0 76 42 158t106.5 136t124.5 54q32 0 49.5 -17t24.5 -55l18 59l111 7l-71 -236q-34 -112 -34 -148q0 -15 12 -15t26.5 14t45.5 56zM303 373
q0 20 -10 32.5t-27 14.5q-42 3 -90 -82q-31 -56 -52.5 -121.5t-21.5 -104.5q0 -23 13 -38.5t32 -15.5q43 0 84 75q29 52 50.5 123.5t21.5 116.5zM393 591q0 -44 -31.5 -75.5t-75.5 -31.5t-75 31.5t-31 76.5q0 43 31.5 74t75.5 31q43 0 74.5 -31.5t31.5 -74.5zM345 589
q0 25 -17.5 42.5t-42.5 17.5q-23 0 -40 -17.5t-17 -41.5t17 -41t40 -17q25 0 42.5 17t17.5 40z" />
    <glyph glyph-name="ae" unicode="&#xe6;" horiz-adv-x="722" 
d="M619 122q-66 -135 -194 -135q-75 0 -110 44q-23 28 -33 87q-42 -70 -82.5 -100t-90.5 -30q-49 0 -81.5 33.5t-32.5 84.5q0 79 42 163t107 138.5t126 54.5q33 0 51 -14.5t31 -51.5l18 58l103 5l-20 -65q32 37 57.5 51t62.5 14q47 0 73.5 -23t26.5 -64q0 -62 -59.5 -109.5
t-168.5 -72.5l-39 -9q-5 -25 -5 -46q0 -40 17.5 -62.5t48.5 -22.5q73 0 124 89zM333 363q0 25 -13.5 40.5t-34.5 15.5q-48 0 -97 -87q-62 -109 -67 -208q-1 -30 12 -48t36 -18q51 0 93 79q29 51 50 118t21 108zM583 388q0 41 -33 41q-73 0 -132 -198l-5 -17q39 5 85 34
q85 56 85 140z" />
    <glyph glyph-name="ccedilla" unicode="&#xe7;" horiz-adv-x="444" 
d="M346 123q-44 -63 -77 -91q-51 -45 -121 -45q-11 0 -18 1l-34 -50q15 3 26 3q39 0 64.5 -20.5t25.5 -51.5q0 -37 -35.5 -62t-88.5 -25q-51 0 -112 25l22 33q37 -17 67 -17q26 0 41 11t15 30q0 36 -47 36q-14 0 -30 -4l-13 12l60 88q-46 16 -71 53.5t-25 88.5
q0 120 89.5 222t195.5 102q50 0 81 -25t31 -65q0 -31 -17 -50.5t-45 -19.5q-25 0 -41.5 14.5t-16.5 37.5q0 16 13 39q8 12 8 19q0 17 -22 17q-45 0 -86 -71q-27 -49 -44.5 -110t-17.5 -108q0 -40 20 -64.5t53 -24.5q32 0 59 20t63 70z" />
    <glyph glyph-name="egrave" unicode="&#xe8;" horiz-adv-x="444" 
d="M346 125q-45 -74 -88.5 -106t-101.5 -32q-65 0 -108 41.5t-43 105.5q0 124 89.5 226t198.5 102q46 0 75.5 -24.5t29.5 -62.5q0 -56 -54 -105q-38 -35 -82 -54t-121 -34q-6 -30 -6 -49q0 -82 64 -82q32 0 58 19.5t60 71.5zM306 395q0 34 -28 34q-74 0 -130 -215
q74 23 109 61q49 51 49 120zM375 499h-49l-105 87q-16 13 -19 23t5 24q10 19 31.5 33t41.5 14q13 0 22.5 -10.5t20.5 -39.5z" />
    <glyph glyph-name="eacute" unicode="&#xe9;" horiz-adv-x="444" 
d="M346 125q-45 -74 -88.5 -106t-101.5 -32q-65 0 -108 41.5t-43 105.5q0 124 89.5 226t198.5 102q46 0 75.5 -24.5t29.5 -62.5q0 -56 -54 -105q-38 -35 -82 -54t-121 -34q-6 -30 -6 -49q0 -82 64 -82q32 0 58 19.5t60 71.5zM306 395q0 34 -28 34q-74 0 -130 -215
q74 23 109 61q49 51 49 120zM423 633q0 -14 -8.5 -24t-30.5 -23l-152 -87h-49l122 131q47 50 70 50q20 0 34 -14t14 -33z" />
    <glyph glyph-name="ecircumflex" unicode="&#xea;" horiz-adv-x="444" 
d="M346 125q-45 -74 -88.5 -106t-101.5 -32q-65 0 -108 41.5t-43 105.5q0 124 89.5 226t198.5 102q46 0 75.5 -24.5t29.5 -62.5q0 -56 -54 -105q-38 -35 -82 -54t-121 -34q-6 -30 -6 -49q0 -82 64 -82q32 0 58 19.5t60 71.5zM306 395q0 34 -28 34q-74 0 -130 -215
q74 23 109 61q49 51 49 120zM444 503h-51l-88 95l-131 -95h-57l160 174h81z" />
    <glyph glyph-name="edieresis" unicode="&#xeb;" horiz-adv-x="444" 
d="M346 125q-45 -74 -88.5 -106t-101.5 -32q-65 0 -108 41.5t-43 105.5q0 124 89.5 226t198.5 102q46 0 75.5 -24.5t29.5 -62.5q0 -56 -54 -105q-38 -35 -82 -54t-121 -34q-6 -30 -6 -49q0 -82 64 -82q32 0 58 19.5t60 71.5zM306 395q0 34 -28 34q-74 0 -130 -215
q74 23 109 61q49 51 49 120zM263 589q0 -26 -19.5 -45t-46.5 -19q-25 0 -44.5 19.5t-19.5 44.5q0 27 19 46.5t45 19.5q27 0 46.5 -19.5t19.5 -46.5zM473 589q0 -26 -19.5 -45t-46.5 -19q-25 0 -44.5 19.5t-19.5 44.5q0 27 19 46.5t45 19.5q27 0 46.5 -19.5t19.5 -46.5z" />
    <glyph glyph-name="igrave" unicode="&#xec;" horiz-adv-x="278" 
d="M238 127q-52 -79 -87 -107.5t-80 -28.5q-31 0 -50 17.5t-19 45.5q0 22 13 69l58 215q7 30 7 40q0 29 -46 29h-13v27q116 9 202 28l-91 -334q-9 -38 -9 -52q0 -6 4.5 -10.5t10.5 -4.5q24 0 64 60l14 20zM270 499h-49l-105 87q-16 13 -19 23t5 24q10 19 31.5 33t41.5 14
q13 0 22.5 -10.5t20.5 -39.5z" />
    <glyph glyph-name="iacute" unicode="&#xed;" horiz-adv-x="278" 
d="M238 127q-52 -79 -87 -107.5t-80 -28.5q-31 0 -50 17.5t-19 45.5q0 22 13 69l58 215q7 30 7 40q0 29 -46 29h-13v27q116 9 202 28l-91 -334q-9 -38 -9 -52q0 -6 4.5 -10.5t10.5 -4.5q24 0 64 60l14 20zM318 633q0 -14 -8.5 -24t-30.5 -23l-152 -87h-49l122 131
q47 50 70 50q20 0 34 -14t14 -33z" />
    <glyph glyph-name="icircumflex" unicode="&#xee;" horiz-adv-x="278" 
d="M238 127q-52 -79 -87 -107.5t-80 -28.5q-31 0 -50 17.5t-19 45.5q0 22 13 69l58 215q7 30 7 40q0 29 -46 29h-13v27q116 9 202 28l-91 -334q-9 -38 -9 -52q0 -6 4.5 -10.5t10.5 -4.5q24 0 64 60l14 20zM339 503h-51l-88 95l-131 -95h-57l160 174h81z" />
    <glyph glyph-name="idieresis" unicode="&#xef;" horiz-adv-x="278" 
d="M238 127q-52 -79 -87 -107.5t-80 -28.5q-31 0 -50 17.5t-19 45.5q0 22 13 69l58 215q7 30 7 40q0 29 -46 29h-13v27q116 9 202 28l-91 -334q-9 -38 -9 -52q0 -6 4.5 -10.5t10.5 -4.5q24 0 64 60l14 20zM158 589q0 -26 -19.5 -45t-46.5 -19q-26 0 -45 19.5t-19 44.5
q0 27 19 46.5t45 19.5q27 0 46.5 -19.5t19.5 -46.5zM368 589q0 -26 -19.5 -45t-46.5 -19q-26 0 -45 19.5t-19 44.5q0 27 19 46.5t45 19.5q27 0 46.5 -19.5t19.5 -46.5z" />
    <glyph glyph-name="eth" unicode="&#xf0;" 
d="M441 372q0 -157 -85 -271t-201 -114q-68 0 -113 42t-45 105q0 81 39.5 157.5t103.5 123.5t132 47q44 0 71 -42l2 4q-6 78 -62 150l-119 -62l-33 31l122 64q-58 55 -116 65l44 27q71 -10 132 -60l107 57l34 -32l-107 -56q51 -60 72.5 -114t21.5 -122zM260 110
q25 54 43.5 134t18.5 131q0 27 -12.5 42.5t-33.5 15.5q-49 0 -87 -68q-27 -49 -50 -136.5t-23 -142.5q0 -70 49 -70q52 0 95 94z" />
    <glyph glyph-name="ntilde" unicode="&#xf1;" horiz-adv-x="556" 
d="M493 122q-44 -73 -79 -102t-80 -29q-32 0 -50 16t-18 44q0 47 28 131l55 166q5 17 5 21q0 8 -7.5 14.5t-17.5 6.5q-14 0 -34 -14.5t-35 -34.5q-46 -60 -77.5 -135t-67.5 -206h-121l56 204q46 162 46 178q0 14 -11 19t-43 6v27q92 3 200 27l-64 -198q78 116 123 158
q43 41 100 41q73 0 73 -75q0 -39 -26 -115l-36 -109q-25 -74 -25 -87q0 -17 14 -17q13 0 26.5 15t43.5 61zM524 650q-16 -63 -44 -91t-73 -28q-25 0 -57 13l-59 23q-21 8 -38 8q-31 0 -48 -43h-40q10 54 41.5 86t74.5 32q38 0 97 -26q39 -16 54 -16q17 0 28.5 9t22.5 33h41z
" />
    <glyph glyph-name="ograve" unicode="&#xf2;" 
d="M441 311q0 -127 -86.5 -225.5t-198.5 -98.5q-69 0 -114 42t-45 106q0 126 88 226.5t199 100.5q69 0 113 -42.5t44 -108.5zM260 110q25 54 43.5 134t18.5 131q0 27 -12.5 42.5t-34.5 15.5q-49 0 -90 -75q-26 -47 -47.5 -135t-21.5 -145q0 -29 13 -45.5t36 -16.5
q52 0 95 94zM388 499h-49l-105 87q-16 13 -19 23t5 24q10 19 31.5 33t41.5 14q13 0 22.5 -10.5t20.5 -39.5z" />
    <glyph glyph-name="oacute" unicode="&#xf3;" 
d="M441 311q0 -127 -86.5 -225.5t-198.5 -98.5q-69 0 -114 42t-45 106q0 126 88 226.5t199 100.5q69 0 113 -42.5t44 -108.5zM260 110q25 54 43.5 134t18.5 131q0 27 -12.5 42.5t-34.5 15.5q-49 0 -90 -75q-26 -47 -47.5 -135t-21.5 -145q0 -29 13 -45.5t36 -16.5
q52 0 95 94zM436 633q0 -14 -8.5 -24t-30.5 -23l-152 -87h-49l122 131q47 50 70 50q20 0 34 -14t14 -33z" />
    <glyph glyph-name="ocircumflex" unicode="&#xf4;" 
d="M441 311q0 -127 -86.5 -225.5t-198.5 -98.5q-69 0 -114 42t-45 106q0 126 88 226.5t199 100.5q69 0 113 -42.5t44 -108.5zM260 110q25 54 43.5 134t18.5 131q0 27 -12.5 42.5t-34.5 15.5q-49 0 -90 -75q-26 -47 -47.5 -135t-21.5 -145q0 -29 13 -45.5t36 -16.5
q52 0 95 94zM457 503h-51l-88 95l-131 -95h-57l160 174h81z" />
    <glyph glyph-name="otilde" unicode="&#xf5;" 
d="M441 311q0 -127 -86.5 -225.5t-198.5 -98.5q-69 0 -114 42t-45 106q0 126 88 226.5t199 100.5q69 0 113 -42.5t44 -108.5zM260 110q25 54 43.5 134t18.5 131q0 27 -12.5 42.5t-34.5 15.5q-49 0 -90 -75q-26 -47 -47.5 -135t-21.5 -145q0 -29 13 -45.5t36 -16.5
q52 0 95 94zM497 650q-16 -63 -44 -91t-73 -28q-25 0 -57 13l-59 23q-21 8 -38 8q-31 0 -48 -43h-40q10 54 41.5 86t74.5 32q38 0 97 -26q39 -16 54 -16q17 0 28.5 9t22.5 33h41z" />
    <glyph glyph-name="odieresis" unicode="&#xf6;" 
d="M441 311q0 -127 -86.5 -225.5t-198.5 -98.5q-69 0 -114 42t-45 106q0 126 88 226.5t199 100.5q69 0 113 -42.5t44 -108.5zM260 110q25 54 43.5 134t18.5 131q0 27 -12.5 42.5t-34.5 15.5q-49 0 -90 -75q-26 -47 -47.5 -135t-21.5 -145q0 -29 13 -45.5t36 -16.5
q52 0 95 94zM276 589q0 -26 -19.5 -45t-46.5 -19q-26 0 -45 19.5t-19 44.5q0 27 19 46.5t45 19.5q27 0 46.5 -19.5t19.5 -46.5zM486 589q0 -26 -19.5 -45t-46.5 -19q-26 0 -45 19.5t-19 44.5q0 27 19 46.5t45 19.5q27 0 46.5 -19.5t19.5 -46.5z" />
    <glyph glyph-name="divide" unicode="&#xf7;" horiz-adv-x="570" 
d="M514 206h-482v88h482v-88zM357 417q0 -35 -24.5 -59.5t-59.5 -24.5t-59.5 24.5t-24.5 59.5t24.5 59.5t59.5 24.5t59.5 -24.5t24.5 -59.5zM357 83q0 -35 -24.5 -59.5t-59.5 -24.5t-59.5 24.5t-24.5 59.5t24.5 59.5t59.5 24.5t59.5 -24.5t24.5 -59.5z" />
    <glyph glyph-name="oslash" unicode="&#xf8;" 
d="M441 311q0 -127 -86.5 -225.5t-197.5 -98.5q-24 0 -51 8l-64 -114h-40l72 126q-77 44 -77 127q0 128 88.5 228t200.5 100q20 0 42 -6l59 104h37l-65 -116q82 -40 82 -133zM307 419q-14 14 -32 14q-48 0 -86 -68q-27 -49 -50 -136.5t-23 -142.5v-8zM266 125q22 52 39 127
t17 120q0 3 -1 5l-193 -343q14 -18 37 -18q57 0 101 109z" />
    <glyph glyph-name="ugrave" unicode="&#xf9;" horiz-adv-x="556" 
d="M492 120q-75 -129 -161 -129q-65 0 -65 60q0 37 24 110q-77 -108 -113.5 -139t-86.5 -31q-75 0 -75 74q0 33 21 108l40 133q14 45 14 73q0 15 -10.5 20.5t-45.5 7.5v27q66 3 181 23q10 2 28 5l-94 -308q-15 -48 -15 -66q0 -25 21 -25q28 0 73 55q43 54 71.5 120t70.5 211
h118l-78 -268q-25 -80 -25 -105q0 -17 14 -17q24 0 72 74zM414 499h-49l-105 87q-16 13 -19 23t5 24q10 19 31.5 33t41.5 14q13 0 22.5 -10.5t20.5 -39.5z" />
    <glyph glyph-name="uacute" unicode="&#xfa;" horiz-adv-x="556" 
d="M492 120q-75 -129 -161 -129q-65 0 -65 60q0 37 24 110q-77 -108 -113.5 -139t-86.5 -31q-75 0 -75 74q0 33 21 108l40 133q14 45 14 73q0 15 -10.5 20.5t-45.5 7.5v27q66 3 181 23q10 2 28 5l-94 -308q-15 -48 -15 -66q0 -25 21 -25q28 0 73 55q43 54 71.5 120t70.5 211
h118l-78 -268q-25 -80 -25 -105q0 -17 14 -17q24 0 72 74zM462 633q0 -14 -8.5 -24t-30.5 -23l-152 -87h-49l122 131q47 50 70 50q20 0 34 -14t14 -33z" />
    <glyph glyph-name="ucircumflex" unicode="&#xfb;" horiz-adv-x="556" 
d="M492 120q-75 -129 -161 -129q-65 0 -65 60q0 37 24 110q-77 -108 -113.5 -139t-86.5 -31q-75 0 -75 74q0 33 21 108l40 133q14 45 14 73q0 15 -10.5 20.5t-45.5 7.5v27q66 3 181 23q10 2 28 5l-94 -308q-15 -48 -15 -66q0 -25 21 -25q28 0 73 55q43 54 71.5 120t70.5 211
h118l-78 -268q-25 -80 -25 -105q0 -17 14 -17q24 0 72 74zM483 503h-51l-88 95l-131 -95h-57l160 174h81z" />
    <glyph glyph-name="udieresis" unicode="&#xfc;" horiz-adv-x="556" 
d="M492 120q-75 -129 -161 -129q-65 0 -65 60q0 37 24 110q-77 -108 -113.5 -139t-86.5 -31q-75 0 -75 74q0 33 21 108l40 133q14 45 14 73q0 15 -10.5 20.5t-45.5 7.5v27q66 3 181 23q10 2 28 5l-94 -308q-15 -48 -15 -66q0 -25 21 -25q28 0 73 55q43 54 71.5 120t70.5 211
h118l-78 -268q-25 -80 -25 -105q0 -17 14 -17q24 0 72 74zM302 589q0 -26 -19.5 -45t-46.5 -19q-26 0 -45 19.5t-19 44.5q0 27 19 46.5t45 19.5q27 0 46.5 -19.5t19.5 -46.5zM512 589q0 -26 -19.5 -45t-46.5 -19q-26 0 -45 19.5t-19 44.5q0 27 19 46.5t45 19.5
q27 0 46.5 -19.5t19.5 -46.5z" />
    <glyph glyph-name="yacute" unicode="&#xfd;" horiz-adv-x="444" 
d="M392 398q0 -76 -75.5 -227t-173.5 -270q-41 -50 -87.5 -78t-87.5 -28q-26 0 -44 17.5t-18 42.5q0 22 15 38.5t35 16.5q30 0 60 -21q18 -14 34 -14q13 0 32 15t35 37q25 35 25 69q0 50 -50 288q-23 107 -48 122q-9 5 -30 5v27q84 8 149 24q29 -75 66 -277l12 -75
q53 101 70 141.5t17 63.5q0 17 -24 35q-31 23 -31 55q0 23 17.5 40t39.5 17q25 0 43.5 -19t18.5 -45zM400 633q0 -14 -8.5 -24t-30.5 -23l-152 -87h-49l122 131q47 50 70 50q20 0 34 -14t14 -33z" />
    <glyph glyph-name="thorn" unicode="&#xfe;" 
d="M446 341q0 -85 -40.5 -167.5t-105.5 -134.5t-131 -52q-25 0 -68 22q-10 -38 -11 -41q-26 -96 -26 -114t13.5 -24.5t51.5 -7.5v-27h-249v27q37 -1 51 14t27 71l162 630q17 64 17 75q0 30 -45 30h-18v27q117 13 206 30l-95 -340l3 -3q38 57 73 81.5t78 24.5q49 0 78 -33
t29 -88zM321 334q2 24 -9 40t-30 17t-42.5 -16t-42.5 -47q-18 -27 -46 -121q-38 -128 -38 -149q0 -15 11.5 -25.5t27.5 -10.5q50 0 97 82q27 49 48 115t24 115z" />
    <glyph glyph-name="ydieresis" unicode="&#xff;" horiz-adv-x="444" 
d="M392 398q0 -76 -75.5 -227t-173.5 -270q-41 -50 -87.5 -78t-87.5 -28q-26 0 -44 17.5t-18 42.5q0 22 15 38.5t35 16.5q30 0 60 -21q18 -14 34 -14q13 0 32 15t35 37q25 35 25 69q0 50 -50 288q-23 107 -48 122q-9 5 -30 5v27q84 8 149 24q29 -75 66 -277l12 -75
q53 101 70 141.5t17 63.5q0 17 -24 35q-31 23 -31 55q0 23 17.5 40t39.5 17q25 0 43.5 -19t18.5 -45zM240 589q0 -26 -19.5 -45t-46.5 -19q-26 0 -45 19.5t-19 44.5q0 27 19 46.5t45 19.5q27 0 46.5 -19.5t19.5 -46.5zM450 589q0 -26 -19.5 -45t-46.5 -19q-26 0 -45 19.5
t-19 44.5q0 27 19 46.5t45 19.5q27 0 46.5 -19.5t19.5 -46.5z" />
    <glyph glyph-name="Amacron" unicode="&#x100;" horiz-adv-x="667" 
d="M593 0h-304v25q48 5 63.5 16.5t15.5 42.5q0 20 -8 72q-4 16 -7 52h-215l-59 -102q-15 -26 -15 -46q0 -35 65 -35v-25h-196v25q27 6 43 19.5t40 50.5l372 588h25l96 -572q10 -57 22 -69.5t62 -16.5v-25zM346 248l-37 243l-148 -243h185zM584 755h-326l17 70h325z" />
    <glyph glyph-name="amacron" unicode="&#x101;" 
d="M455 112q-84 -126 -151 -126q-28 0 -47.5 19t-19.5 47q0 19 14 67q-43 -72 -80.5 -102t-83.5 -30q-49 0 -78.5 35t-29.5 92q0 76 42 158t106.5 136t124.5 54q32 0 49.5 -17t24.5 -55l18 59l111 7l-71 -236q-34 -112 -34 -148q0 -15 12 -15t26.5 14t45.5 56zM303 373
q0 20 -10 32.5t-27 14.5q-42 3 -90 -82q-31 -56 -52.5 -121.5t-21.5 -104.5q0 -23 13 -38.5t32 -15.5q43 0 84 75q29 52 50.5 123.5t21.5 116.5zM441 555h-326l17 70h325z" />
    <glyph glyph-name="Abreve" unicode="&#x102;" horiz-adv-x="667" 
d="M593 0h-304v25q48 5 63.5 16.5t15.5 42.5q0 20 -8 72q-4 16 -7 52h-215l-59 -102q-15 -26 -15 -46q0 -35 65 -35v-25h-196v25q27 6 43 19.5t40 50.5l372 588h25l96 -572q10 -57 22 -69.5t62 -16.5v-25zM346 248l-37 243l-148 -243h185zM604 856q-14 -63 -63.5 -97
t-128.5 -34q-76 0 -112.5 31.5t-36.5 99.5h47q9 -73 109 -73q53 0 85 16.5t58 56.5h42z" />
    <glyph glyph-name="abreve" unicode="&#x103;" 
d="M455 112q-84 -126 -151 -126q-28 0 -47.5 19t-19.5 47q0 19 14 67q-43 -72 -80.5 -102t-83.5 -30q-49 0 -78.5 35t-29.5 92q0 76 42 158t106.5 136t124.5 54q32 0 49.5 -17t24.5 -55l18 59l111 7l-71 -236q-34 -112 -34 -148q0 -15 12 -15t26.5 14t45.5 56zM303 373
q0 20 -10 32.5t-27 14.5q-42 3 -90 -82q-31 -56 -52.5 -121.5t-21.5 -104.5q0 -23 13 -38.5t32 -15.5q43 0 84 75q29 52 50.5 123.5t21.5 116.5zM444 671q-14 -78 -60 -120t-119 -42q-137 0 -137 149v13h43q9 -90 102 -90q49 0 79 20t53 70h39z" />
    <glyph glyph-name="Aogonek" unicode="&#x104;" horiz-adv-x="667" 
d="M550 -160q-22 -40 -55.5 -65t-70.5 -25q-31 0 -53.5 24.5t-21.5 65.5q2 84 110 160h-170v25q48 5 63.5 16.5t15.5 42.5q0 20 -8 72q-4 16 -7 52h-215l-59 -102q-15 -26 -15 -46q0 -35 65 -35v-25h-196v25q27 6 43 19.5t40 50.5l372 588h25l96 -572q10 -57 22 -69.5
t62 -16.5v-25q-89 0 -129 -60q-20 -30 -26 -64q-2 -57 37 -57q34 0 62 33zM346 248l-37 243l-148 -243h185z" />
    <glyph glyph-name="aogonek" unicode="&#x105;" 
d="M382 -160q-22 -40 -55.5 -65t-70.5 -25q-31 0 -53.5 24.5t-21.5 65.5q2 79 97 151q-41 17 -41 61q0 19 14 67q-43 -72 -80.5 -102t-83.5 -30q-49 0 -78.5 35t-29.5 92q0 76 42 158t106.5 136t124.5 54q32 0 49.5 -17t24.5 -55l18 59l111 7l-71 -236q-34 -112 -34 -148
q0 -15 12 -15t26.5 14t45.5 56l21 -15q-45 -66 -80 -96q-74 -62 -92 -98q-10 -23 -13 -42q-2 -57 37 -57q34 0 62 33zM303 373q0 20 -10 32.5t-27 14.5q-42 3 -90 -82q-31 -56 -52.5 -121.5t-21.5 -104.5q0 -23 13 -38.5t32 -15.5q43 0 84 75q29 52 50.5 123.5t21.5 116.5z
" />
    <glyph glyph-name="Cacute" unicode="&#x106;" horiz-adv-x="667" 
d="M576 131q-40 -55 -78 -84q-86 -65 -194 -65q-122 0 -197 71.5t-75 187.5q0 182 120.5 313t287.5 131q64 0 131 -21q24 -8 38 -8q20 0 38 29h30l-51 -234l-32 6q3 19 3 35q0 73 -35 115.5t-96 42.5q-63 0 -120 -48q-68 -59 -114 -172t-46 -221q0 -82 40 -128t110 -46
q48 0 90 18q32 14 57.5 35t62.5 65zM602 825q0 -11 -8.5 -19t-33.5 -18l-164 -71h-53l132 106q49 40 76 40q20 0 35.5 -11.5t15.5 -26.5z" />
    <glyph glyph-name="cacute" unicode="&#x107;" horiz-adv-x="444" 
d="M346 123q-44 -63 -77 -91q-53 -45 -121 -45t-110.5 42t-42.5 109q0 120 89.5 222t195.5 102q50 0 81 -25t31 -65q0 -31 -17 -50.5t-45 -19.5q-25 0 -41.5 14.5t-16.5 37.5q0 16 13 39q8 12 8 19q0 17 -22 17q-45 0 -86 -71q-27 -49 -44.5 -110t-17.5 -108q0 -40 20 -64.5
t53 -24.5q32 0 59 20t63 70zM411 633q0 -14 -8.5 -24t-30.5 -23l-152 -87h-49l122 131q47 50 70 50q20 0 34 -14t14 -33z" />
    <glyph glyph-name="Ccircumflex" unicode="&#x108;" horiz-adv-x="667" 
d="M576 131q-40 -55 -78 -84q-86 -65 -194 -65q-122 0 -197 71.5t-75 187.5q0 182 120.5 313t287.5 131q64 0 131 -21q24 -8 38 -8q20 0 38 29h30l-51 -234l-32 6q3 19 3 35q0 73 -35 115.5t-96 42.5q-63 0 -120 -48q-68 -59 -114 -172t-46 -221q0 -82 40 -128t110 -46
q48 0 90 18q32 14 57.5 35t62.5 65zM626 720h-55l-96 77l-141 -77h-61l172 141h87z" />
    <glyph glyph-name="ccircumflex" unicode="&#x109;" horiz-adv-x="444" 
d="M346 123q-44 -63 -77 -91q-53 -45 -121 -45t-110.5 42t-42.5 109q0 120 89.5 222t195.5 102q50 0 81 -25t31 -65q0 -31 -17 -50.5t-45 -19.5q-25 0 -41.5 14.5t-16.5 37.5q0 16 13 39q8 12 8 19q0 17 -22 17q-45 0 -86 -71q-27 -49 -44.5 -110t-17.5 -108q0 -40 20 -64.5
t53 -24.5q32 0 59 20t63 70zM432 503h-51l-88 95l-131 -95h-57l160 174h81z" />
    <glyph glyph-name="Cdotaccent" unicode="&#x10a;" horiz-adv-x="667" 
d="M576 131q-40 -55 -78 -84q-86 -65 -194 -65q-122 0 -197 71.5t-75 187.5q0 182 120.5 313t287.5 131q64 0 131 -21q24 -8 38 -8q20 0 38 29h30l-51 -234l-32 6q3 19 3 35q0 73 -35 115.5t-96 42.5q-63 0 -120 -48q-68 -59 -114 -172t-46 -221q0 -82 40 -128t110 -46
q48 0 90 18q32 14 57.5 35t62.5 65zM536 790q0 -28 -20 -47.5t-49 -19.5q-28 0 -47 20t-19 49q0 26 20 46t46 20q28 0 48.5 -20t20.5 -48z" />
    <glyph glyph-name="cdotaccent" unicode="&#x10b;" horiz-adv-x="444" 
d="M346 123q-44 -63 -77 -91q-53 -45 -121 -45t-110.5 42t-42.5 109q0 120 89.5 222t195.5 102q50 0 81 -25t31 -65q0 -31 -17 -50.5t-45 -19.5q-25 0 -41.5 14.5t-16.5 37.5q0 16 13 39q8 12 8 19q0 17 -22 17q-45 0 -86 -71q-27 -49 -44.5 -110t-17.5 -108q0 -40 20 -64.5
t53 -24.5q32 0 59 20t63 70zM359 590q0 -28 -20 -47.5t-49 -19.5q-28 0 -47 20t-19 49q0 26 20 46t46 20q28 0 48.5 -20t20.5 -48z" />
    <glyph glyph-name="Ccaron" unicode="&#x10c;" horiz-adv-x="667" 
d="M576 131q-40 -55 -78 -84q-86 -65 -194 -65q-122 0 -197 71.5t-75 187.5q0 182 120.5 313t287.5 131q64 0 131 -21q24 -8 38 -8q20 0 38 29h30l-51 -234l-32 6q3 19 3 35q0 73 -35 115.5t-96 42.5q-63 0 -120 -48q-68 -59 -114 -172t-46 -221q0 -82 40 -128t110 -46
q48 0 90 18q32 14 57.5 35t62.5 65zM665 861l-172 -141h-87l-94 141h55l95 -77l142 77h61z" />
    <glyph glyph-name="ccaron" unicode="&#x10d;" horiz-adv-x="444" 
d="M346 123q-44 -63 -77 -91q-53 -45 -121 -45t-110.5 42t-42.5 109q0 120 89.5 222t195.5 102q50 0 81 -25t31 -65q0 -31 -17 -50.5t-45 -19.5q-25 0 -41.5 14.5t-16.5 37.5q0 16 13 39q8 12 8 19q0 17 -22 17q-45 0 -86 -71q-27 -49 -44.5 -110t-17.5 -108q0 -40 20 -64.5
t53 -24.5q32 0 59 20t63 70zM471 677l-162 -174h-82l-88 174h50l91 -97l135 97h56z" />
    <glyph glyph-name="Dcaron" unicode="&#x10e;" horiz-adv-x="722" 
d="M685 396q0 -171 -126.5 -283.5t-318.5 -112.5h-286v25q36 5 52.5 19.5t27.5 52.5l121 446q12 44 12 59q0 18 -9 26t-33 11l-31 5v25h290q142 0 221.5 -72.5t79.5 -200.5zM538 457q0 181 -165 181q-25 0 -37.5 -8.5t-17.5 -29.5l-128 -474l-1 -4q-12 -36 -12 -54
q0 -34 54 -34q142 0 223 118q39 58 61.5 140t22.5 165zM648 861l-172 -141h-87l-94 141h55l95 -77l142 77h61z" />
    <glyph glyph-name="dcaron" unicode="&#x10f;" 
d="M449 115q-41 -66 -76.5 -96t-72.5 -30q-28 0 -44 16t-16 45q0 20 11 68q-43 -71 -80.5 -101t-85.5 -30q-46 0 -76 35t-30 90q0 76 42 158.5t106.5 137t123.5 54.5q39 0 72 -33l18 68q29 106 29 118q0 28 -41 28h-21v27q129 10 209 29l-111 -405q-57 -208 -57 -223
q0 -12 11 -12q22 0 67 72zM308 371q0 21 -10.5 34.5t-26.5 14.5q-47 3 -98 -87q-27 -49 -47.5 -110t-22.5 -101q-2 -26 10 -44.5t31 -18.5q44 0 86 74q26 48 52 126.5t26 111.5zM687 611q1 -55 -46 -108t-125 -88l-12 21q106 57 106 105q0 18 -28 35q-36 25 -36 57
q0 29 18 47.5t46 18.5q35 0 56 -24t21 -64z" />
    <glyph glyph-name="Dcroat" unicode="&#x110;" horiz-adv-x="722" 
d="M700 396q0 -171 -126.5 -283.5t-318.5 -112.5h-286v25q36 5 52.5 19.5t27.5 52.5l63 232h-102l12 44h102l46 170q12 44 12 59q0 18 -9 26t-33 11l-31 5v25h290q142 0 221.5 -72.5t79.5 -200.5zM553 457q0 181 -165 181q-46 0 -55 -38l-61 -227h122l-12 -44h-122l-55 -203
l-1 -4q-12 -36 -12 -54q0 -34 54 -34q142 0 223 118q39 58 61.5 140t22.5 165z" />
    <glyph glyph-name="dcroat" unicode="&#x111;" 
d="M448 115q-77 -126 -148 -126q-28 0 -44 16.5t-16 45.5q0 14 10 67q-42 -71 -80 -101t-85 -30q-46 0 -76 35.5t-31 89.5q0 76 41.5 158.5t105.5 137t123 54.5q39 0 73 -33l21 84h-139l9 31h138q4 13 8 29q9 33 9 42q-2 28 -42 28h-21v27q129 10 209 29l-42 -155h66l-8 -31
h-66l-59 -219q-55 -205 -55 -223q0 -4 3.5 -8t7.5 -4q24 0 66 72zM306 370q0 21 -10.5 35t-26.5 15q-47 3 -98 -87q-27 -49 -47 -109.5t-22 -101.5q-1 -26 11 -44.5t31 -18.5q44 0 85 74q26 47 51.5 126.5t25.5 110.5z" />
    <glyph glyph-name="Emacron" unicode="&#x112;" horiz-adv-x="667" 
d="M586 194l-59 -194h-554v25q39 6 53.5 19t26.5 53l123 449q10 38 10 61q0 28 -42 33l-31 4v25h540l-43 -190l-27 5q0 46 -6.5 69.5t-23.5 41.5q-42 42 -154 42q-31 0 -43 -9t-20 -35l-61 -223q99 -1 134.5 17.5t70.5 88.5l28 -4l-74 -273l-28 5q4 25 4 44q0 52 -29.5 70.5
t-114.5 19.5l-56 -209q-15 -31 -15 -63q0 -34 61 -34q131 0 214 61q28 20 47 42t44 64zM616 755h-326l17 70h325z" />
    <glyph glyph-name="emacron" unicode="&#x113;" horiz-adv-x="444" 
d="M346 125q-45 -74 -88.5 -106t-101.5 -32q-65 0 -108 41.5t-43 105.5q0 124 89.5 226t198.5 102q46 0 75.5 -24.5t29.5 -62.5q0 -56 -54 -105q-38 -35 -82 -54t-121 -34q-6 -30 -6 -49q0 -82 64 -82q32 0 58 19.5t60 71.5zM306 395q0 34 -28 34q-74 0 -130 -215
q74 23 109 61q49 51 49 120zM458 555h-326l17 70h325z" />
    <glyph glyph-name="Ebreve" unicode="&#x114;" horiz-adv-x="667" 
d="M586 194l-59 -194h-554v25q39 6 53.5 19t26.5 53l123 449q10 38 10 61q0 28 -42 33l-31 4v25h540l-43 -190l-27 5q0 46 -6.5 69.5t-23.5 41.5q-42 42 -154 42q-31 0 -43 -9t-20 -35l-61 -223q99 -1 134.5 17.5t70.5 88.5l28 -4l-74 -273l-28 5q4 25 4 44q0 52 -29.5 70.5
t-114.5 19.5l-56 -209q-15 -31 -15 -63q0 -34 61 -34q131 0 214 61q28 20 47 42t44 64zM636 856q-14 -63 -63.5 -97t-128.5 -34q-76 0 -112.5 31.5t-36.5 99.5h47q9 -73 109 -73q53 0 85 16.5t58 56.5h42z" />
    <glyph glyph-name="ebreve" unicode="&#x115;" horiz-adv-x="444" 
d="M346 125q-45 -74 -88.5 -106t-101.5 -32q-65 0 -108 41.5t-43 105.5q0 124 89.5 226t198.5 102q46 0 75.5 -24.5t29.5 -62.5q0 -56 -54 -105q-38 -35 -82 -54t-121 -34q-6 -30 -6 -49q0 -82 64 -82q32 0 58 19.5t60 71.5zM306 395q0 34 -28 34q-74 0 -130 -215
q74 23 109 61q49 51 49 120zM461 671q-14 -78 -60 -120t-119 -42q-137 0 -137 149v13h43q9 -90 102 -90q49 0 79 20t53 70h39z" />
    <glyph glyph-name="Edotaccent" unicode="&#x116;" horiz-adv-x="667" 
d="M586 194l-59 -194h-554v25q39 6 53.5 19t26.5 53l123 449q10 38 10 61q0 28 -42 33l-31 4v25h540l-43 -190l-27 5q0 46 -6.5 69.5t-23.5 41.5q-42 42 -154 42q-31 0 -43 -9t-20 -35l-61 -223q99 -1 134.5 17.5t70.5 88.5l28 -4l-74 -273l-28 5q4 25 4 44q0 52 -29.5 70.5
t-114.5 19.5l-56 -209q-15 -31 -15 -63q0 -34 61 -34q131 0 214 61q28 20 47 42t44 64zM529 790q0 -28 -20 -47.5t-49 -19.5q-28 0 -47 20t-19 49q0 26 20 46t46 20q28 0 48.5 -20t20.5 -48z" />
    <glyph glyph-name="edotaccent" unicode="&#x117;" horiz-adv-x="444" 
d="M346 125q-45 -74 -88.5 -106t-101.5 -32q-65 0 -108 41.5t-43 105.5q0 124 89.5 226t198.5 102q46 0 75.5 -24.5t29.5 -62.5q0 -56 -54 -105q-38 -35 -82 -54t-121 -34q-6 -30 -6 -49q0 -82 64 -82q32 0 58 19.5t60 71.5zM306 395q0 34 -28 34q-74 0 -130 -215
q74 23 109 61q49 51 49 120zM371 590q0 -28 -20 -47.5t-49 -19.5q-28 0 -47 20t-19 49q0 26 20 46t46 20q28 0 48.5 -20t20.5 -48z" />
    <glyph glyph-name="Eogonek" unicode="&#x118;" horiz-adv-x="667" 
d="M586 194l-59 -194q-109 0 -148 -60q-22 -32 -26 -64q-2 -57 37 -57q34 0 62 33l13 -12q-22 -40 -56 -65t-71 -25q-31 0 -53 24.5t-21 65.5q2 85 110 160h-401v25q39 6 53.5 19t26.5 53l123 449q10 38 10 61q0 28 -42 33l-31 4v25h540l-43 -190l-27 5q0 46 -6.5 69.5
t-23.5 41.5q-42 42 -154 42q-31 0 -43 -9t-20 -35l-61 -223q99 -1 134.5 17.5t70.5 88.5l28 -4l-74 -273l-28 5q4 25 4 44q0 52 -29.5 70.5t-114.5 19.5l-56 -209q-15 -31 -15 -63q0 -34 61 -34q131 0 214 61q28 20 47 42t44 64z" />
    <glyph glyph-name="eogonek" unicode="&#x119;" horiz-adv-x="444" 
d="M346 125q-62 -101 -126 -127q-64 -23 -87 -58q-21 -34 -25 -64q-2 -57 37 -57q32 0 62 33l13 -12q-22 -40 -56 -65t-71 -25q-31 0 -53 24.5t-21 65.5q1 80 98 151q-51 12 -81.5 50.5t-30.5 92.5q0 124 89.5 226t198.5 102q46 0 75.5 -24.5t29.5 -62.5q0 -56 -54 -105
q-38 -35 -82 -54t-121 -34q-6 -30 -6 -49q0 -82 64 -82q32 0 58 19.5t60 71.5zM306 395q0 34 -28 34q-74 0 -130 -215q74 23 109 61q49 51 49 120z" />
    <glyph glyph-name="Ecaron" unicode="&#x11a;" horiz-adv-x="667" 
d="M586 194l-59 -194h-554v25q39 6 53.5 19t26.5 53l123 449q10 38 10 61q0 28 -42 33l-31 4v25h540l-43 -190l-27 5q0 46 -6.5 69.5t-23.5 41.5q-42 42 -154 42q-31 0 -43 -9t-20 -35l-61 -223q99 -1 134.5 17.5t70.5 88.5l28 -4l-74 -273l-28 5q4 25 4 44q0 52 -29.5 70.5
t-114.5 19.5l-56 -209q-15 -31 -15 -63q0 -34 61 -34q131 0 214 61q28 20 47 42t44 64zM658 861l-172 -141h-87l-94 141h55l95 -77l142 77h61z" />
    <glyph glyph-name="ecaron" unicode="&#x11b;" horiz-adv-x="444" 
d="M346 125q-45 -74 -88.5 -106t-101.5 -32q-65 0 -108 41.5t-43 105.5q0 124 89.5 226t198.5 102q46 0 75.5 -24.5t29.5 -62.5q0 -56 -54 -105q-38 -35 -82 -54t-121 -34q-6 -30 -6 -49q0 -82 64 -82q32 0 58 19.5t60 71.5zM306 395q0 34 -28 34q-74 0 -130 -215
q74 23 109 61q49 51 49 120zM483 677l-162 -174h-82l-88 174h50l91 -97l135 97h56z" />
    <glyph glyph-name="Gcircumflex" unicode="&#x11c;" horiz-adv-x="722" 
d="M706 304q-40 -3 -52.5 -16t-26.5 -66l-48 -181l-28 -13q-42 -20 -108.5 -33t-125.5 -13q-132 0 -214 74.5t-82 194.5q0 115 60 219t159 162q92 53 208 53q64 0 124 -21q24 -9 36 -9q27 0 42 30h31l-51 -221l-29 4q-1 51 -7.5 78t-23.5 52q-35 51 -108 51q-70 0 -129 -51
q-68 -59 -112 -169.5t-44 -220.5q0 -91 42 -139.5t122 -48.5q29 0 56.5 8.5t37.5 21.5q4 6 29 91q29 95 29 127q0 16 -12 24q-14 8 -62 12v26h287v-26zM634 720h-55l-96 77l-141 -77h-61l172 141h87z" />
    <glyph glyph-name="gcircumflex" unicode="&#x11d;" 
d="M375 -53q0 -66 -66.5 -108t-172.5 -42q-86 0 -137 28.5t-51 77.5q0 38 27 62q30 24 106 42q-62 21 -62 66q0 28 17 45t79 52q-80 34 -80 110t65 129t157 53q63 0 110 -33h111v-56h-67q6 -24 6 -42q0 -93 -89 -144q-59 -34 -127 -34q-16 0 -31 4q-11 4 -20 4
q-10 0 -19 -12t-9 -24q0 -24 51 -38l53 -15q82 -23 115.5 -51t33.5 -74zM266 -100q0 36 -41 57q-17 8 -59 22t-51 15q-6 1 -23.5 -9.5t-27.5 -20.5q-29 -28 -29 -55q0 -34 31 -56t80 -22q57 0 88.5 18t31.5 51zM271 253q29 63 29 119q0 26 -12.5 42.5t-32.5 16.5
q-38 0 -66 -49q-38 -69 -38 -139q0 -59 42 -59q47 0 78 69zM432 503h-51l-88 95l-131 -95h-57l160 174h81z" />
    <glyph glyph-name="Gbreve" unicode="&#x11e;" horiz-adv-x="722" 
d="M706 304q-40 -3 -52.5 -16t-26.5 -66l-48 -181l-28 -13q-42 -20 -108.5 -33t-125.5 -13q-132 0 -214 74.5t-82 194.5q0 115 60 219t159 162q92 53 208 53q64 0 124 -21q24 -9 36 -9q27 0 42 30h31l-51 -221l-29 4q-1 51 -7.5 78t-23.5 52q-35 51 -108 51q-70 0 -129 -51
q-68 -59 -112 -169.5t-44 -220.5q0 -91 42 -139.5t122 -48.5q29 0 56.5 8.5t37.5 21.5q4 6 29 91q29 95 29 127q0 16 -12 24q-14 8 -62 12v26h287v-26zM651 856q-14 -63 -63.5 -97t-128.5 -34q-76 0 -112.5 31.5t-36.5 99.5h47q9 -73 109 -73q53 0 85 16.5t58 56.5h42z" />
    <glyph glyph-name="gbreve" unicode="&#x11f;" 
d="M375 -53q0 -66 -66.5 -108t-172.5 -42q-86 0 -137 28.5t-51 77.5q0 38 27 62q30 24 106 42q-62 21 -62 66q0 28 17 45t79 52q-80 34 -80 110t65 129t157 53q63 0 110 -33h111v-56h-67q6 -24 6 -42q0 -93 -89 -144q-59 -34 -127 -34q-16 0 -31 4q-11 4 -20 4
q-10 0 -19 -12t-9 -24q0 -24 51 -38l53 -15q82 -23 115.5 -51t33.5 -74zM266 -100q0 36 -41 57q-17 8 -59 22t-51 15q-6 1 -23.5 -9.5t-27.5 -20.5q-29 -28 -29 -55q0 -34 31 -56t80 -22q57 0 88.5 18t31.5 51zM271 253q29 63 29 119q0 26 -12.5 42.5t-32.5 16.5
q-38 0 -66 -49q-38 -69 -38 -139q0 -59 42 -59q47 0 78 69zM449 671q-14 -78 -60 -120t-119 -42q-137 0 -137 149v13h43q9 -90 102 -90q49 0 79 20t53 70h39z" />
    <glyph glyph-name="Gdotaccent" unicode="&#x120;" horiz-adv-x="722" 
d="M706 304q-40 -3 -52.5 -16t-26.5 -66l-48 -181l-28 -13q-42 -20 -108.5 -33t-125.5 -13q-132 0 -214 74.5t-82 194.5q0 115 60 219t159 162q92 53 208 53q64 0 124 -21q24 -9 36 -9q27 0 42 30h31l-51 -221l-29 4q-1 51 -7.5 78t-23.5 52q-35 51 -108 51q-70 0 -129 -51
q-68 -59 -112 -169.5t-44 -220.5q0 -91 42 -139.5t122 -48.5q29 0 56.5 8.5t37.5 21.5q4 6 29 91q29 95 29 127q0 16 -12 24q-14 8 -62 12v26h287v-26zM544 790q0 -28 -20 -47.5t-49 -19.5q-28 0 -47 20t-19 49q0 26 20 46t46 20q28 0 48.5 -20t20.5 -48z" />
    <glyph glyph-name="gdotaccent" unicode="&#x121;" 
d="M375 -53q0 -66 -66.5 -108t-172.5 -42q-86 0 -137 28.5t-51 77.5q0 38 27 62q30 24 106 42q-62 21 -62 66q0 28 17 45t79 52q-80 34 -80 110t65 129t157 53q63 0 110 -33h111v-56h-67q6 -24 6 -42q0 -93 -89 -144q-59 -34 -127 -34q-16 0 -31 4q-11 4 -20 4
q-10 0 -19 -12t-9 -24q0 -24 51 -38l53 -15q82 -23 115.5 -51t33.5 -74zM266 -100q0 36 -41 57q-17 8 -59 22t-51 15q-6 1 -23.5 -9.5t-27.5 -20.5q-29 -28 -29 -55q0 -34 31 -56t80 -22q57 0 88.5 18t31.5 51zM271 253q29 63 29 119q0 26 -12.5 42.5t-32.5 16.5
q-38 0 -66 -49q-38 -69 -38 -139q0 -59 42 -59q47 0 78 69zM359 590q0 -28 -20 -47.5t-49 -19.5q-28 0 -47 20t-19 49q0 26 20 46t46 20q28 0 48.5 -20t20.5 -48z" />
    <glyph glyph-name="Gcommaaccent" unicode="&#x122;" horiz-adv-x="722" 
d="M706 304q-40 -3 -52.5 -16t-26.5 -66l-48 -181l-28 -13q-42 -20 -108.5 -33t-125.5 -13q-132 0 -214 74.5t-82 194.5q0 115 60 219t159 162q92 53 208 53q64 0 124 -21q24 -9 36 -9q27 0 42 30h31l-51 -221l-29 4q-1 51 -7.5 78t-23.5 52q-35 51 -108 51q-70 0 -129 -51
q-68 -59 -112 -169.5t-44 -220.5q0 -91 42 -139.5t122 -48.5q29 0 56.5 8.5t37.5 21.5q4 6 29 91q29 95 29 127q0 16 -12 24q-14 8 -62 12v26h287v-26zM332 -128q0 -55 -46.5 -108.5t-124.5 -87.5l-12 21q105 57 105 105q0 17 -27 35q-36 25 -36 57q-1 28 17 47t46 19
q34 0 55.5 -24t22.5 -64z" />
    <glyph glyph-name="gcommaaccent" unicode="&#x123;" 
d="M357 558q0 -29 -18 -47.5t-46 -18.5q-35 0 -56 24t-21 64q-1 55 45.5 108t124.5 88l13 -21q-106 -57 -106 -105q0 -17 27 -35q37 -25 37 -57zM375 -53q0 -66 -66.5 -108t-172.5 -42q-86 0 -137 28.5t-51 77.5q0 38 27 62q30 24 106 42q-62 21 -62 66q0 28 17 45t79 52
q-80 34 -80 110t65 129t157 53q63 0 110 -33h111v-56h-67q6 -24 6 -42q0 -93 -89 -144q-59 -34 -127 -34q-16 0 -31 4q-11 4 -20 4q-10 0 -19 -12t-9 -24q0 -24 51 -38l53 -15q82 -23 115.5 -51t33.5 -74zM266 -100q0 36 -41 57q-17 8 -59 22t-51 15q-6 1 -23.5 -9.5
t-27.5 -20.5q-29 -28 -29 -55q0 -34 31 -56t80 -22q57 0 88.5 18t31.5 51zM271 253q29 63 29 119q0 26 -12.5 42.5t-32.5 16.5q-38 0 -66 -49q-38 -69 -38 -139q0 -59 42 -59q47 0 78 69z" />
    <glyph glyph-name="Hcircumflex" unicode="&#x124;" horiz-adv-x="778" 
d="M657 0h-317v25q50 3 70.5 17.5t30.5 54.5l64 232h-239l-50 -181l-4 -16q-13 -40 -13 -64t12.5 -31.5t60.5 -11.5v-25h-296v25q37 5 52.5 19t27.5 53l122 449q11 38 11 58q0 17 -9 24.5t-33 10.5l-31 5v25h317v-25q-49 -1 -69 -16t-32 -56l-54 -199h239l47 173
q10 38 10 61q0 15 -9 22t-32 10l-32 5v25h298v-25q-38 -5 -53.5 -18.5t-27.5 -53.5l-109 -397l-6 -22q-19 -66 -19 -87q0 -22 16 -30.5t57 -10.5v-25zM657 720h-55l-96 77l-141 -77h-61l172 141h87z" />
    <glyph glyph-name="hcircumflex" unicode="&#x125;" horiz-adv-x="556" 
d="M498 127q-50 -77 -85.5 -106.5t-81.5 -29.5q-29 0 -47.5 16t-18.5 42q0 52 61 231q27 81 27 89t-6.5 14.5t-15.5 6.5q-40 0 -104 -94q-36 -53 -58 -108t-61 -188h-121l154 567q8 29 8 42q0 34 -41 34l-22 -1v27q97 8 208 30l-107 -416q74 106 117.5 142.5t94.5 36.5
q35 0 55.5 -20t20.5 -55q0 -29 -30 -122l-58 -178q-3 -8 -3 -12q0 -5 5.5 -10.5t11.5 -5.5q17 0 75 83zM655 750h-55l-96 77l-141 -77h-61l172 141h87z" />
    <glyph glyph-name="Hbar" unicode="&#x126;" horiz-adv-x="778" 
d="M791 487h-96l-86 -312l-6 -22q-19 -66 -19 -87q0 -22 16 -30.5t57 -10.5v-25h-317v25q50 3 70.5 17.5t30.5 54.5l64 232h-239l-50 -181l-4 -16q-13 -40 -13 -64t12.5 -31.5t60.5 -11.5v-25h-296v25q37 5 52.5 19t27.5 53l106 390h-91l1 30h98l8 29q11 38 11 58
q0 17 -9 24.5t-33 10.5l-31 5v25h317v-25q-49 -1 -69 -16t-32 -56l-15 -55h239l8 29q10 38 10 61q0 15 -9 22t-32 10l-32 5v25h298v-25q-38 -5 -53.5 -18.5t-27.5 -53.5l-15 -55h89zM548 487h-239l-31 -114h239z" />
    <glyph glyph-name="hbar" unicode="&#x127;" horiz-adv-x="649" 
d="M639 127q-50 -77 -85.5 -106.5t-81.5 -29.5q-29 0 -47.5 16t-18.5 42q0 52 61 231q27 81 27 89t-6.5 14.5t-15.5 6.5q-40 0 -104 -94q-36 -53 -58 -108t-61 -188h-121l148 544h-78v30h86q6 26 6 35q0 34 -41 34l-22 -1v27q97 8 208 30l-32 -125h166v-30h-174l-67 -261
q74 106 117.5 142.5t94.5 36.5q35 0 55.5 -20t20.5 -55q0 -29 -30 -122l-58 -178q-3 -8 -3 -12q0 -5 5.5 -10.5t11.5 -5.5q17 0 75 83z" />
    <glyph glyph-name="Itilde" unicode="&#x128;" horiz-adv-x="389" 
d="M264 0h-296v25q37 4 52.5 18.5t27.5 53.5l123 449q10 38 10 61q0 15 -9 22t-32 10q-22 4 -32 5v25h298v-25q-38 -5 -54 -18.5t-28 -53.5l-114 -420q-18 -64 -18 -87q0 -21 15 -29.5t57 -10.5v-25zM489 850q-16 -63 -44 -91t-73 -28q-25 0 -57 13l-59 23q-21 8 -38 8
q-31 0 -48 -43h-40q10 54 41.5 86t74.5 32q38 0 97 -26q39 -16 54 -16q17 0 28.5 9t22.5 33h41z" />
    <glyph glyph-name="itilde" unicode="&#x129;" horiz-adv-x="278" 
d="M238 127q-52 -79 -87 -107.5t-80 -28.5q-31 0 -50 17.5t-19 45.5q0 22 13 69l58 215q7 30 7 40q0 29 -46 29h-13v27q116 9 202 28l-91 -334q-9 -38 -9 -52q0 -6 4.5 -10.5t10.5 -4.5q24 0 64 60l14 20zM379 650q-16 -63 -44 -91t-73 -28q-25 0 -57 13l-59 23q-21 8 -38 8
q-31 0 -48 -43h-40q10 54 41.5 86t74.5 32q38 0 97 -26q39 -16 54 -16q17 0 28.5 9t22.5 33h41z" />
    <glyph glyph-name="Imacron" unicode="&#x12a;" horiz-adv-x="389" 
d="M264 0h-296v25q37 4 52.5 18.5t27.5 53.5l123 449q10 38 10 61q0 15 -9 22t-32 10q-22 4 -32 5v25h298v-25q-38 -5 -54 -18.5t-28 -53.5l-114 -420q-18 -64 -18 -87q0 -21 15 -29.5t57 -10.5v-25zM464 755h-326l17 70h325z" />
    <glyph glyph-name="imacron" unicode="&#x12b;" horiz-adv-x="278" 
d="M238 127q-52 -79 -87 -107.5t-80 -28.5q-31 0 -50 17.5t-19 45.5q0 22 13 69l58 215q7 30 7 40q0 29 -46 29h-13v27q116 9 202 28l-91 -334q-9 -38 -9 -52q0 -6 4.5 -10.5t10.5 -4.5q24 0 64 60l14 20zM353 555h-326l17 70h325z" />
    <glyph glyph-name="Ibreve" unicode="&#x12c;" horiz-adv-x="389" 
d="M264 0h-296v25q37 4 52.5 18.5t27.5 53.5l123 449q10 38 10 61q0 15 -9 22t-32 10q-22 4 -32 5v25h298v-25q-38 -5 -54 -18.5t-28 -53.5l-114 -420q-18 -64 -18 -87q0 -21 15 -29.5t57 -10.5v-25zM484 856q-14 -63 -63.5 -97t-128.5 -34q-76 0 -112.5 31.5t-36.5 99.5h47
q9 -73 109 -73q53 0 85 16.5t58 56.5h42z" />
    <glyph glyph-name="ibreve" unicode="&#x12d;" horiz-adv-x="278" 
d="M238 127q-52 -79 -87 -107.5t-80 -28.5q-31 0 -50 17.5t-19 45.5q0 22 13 69l58 215q7 30 7 40q0 29 -46 29h-13v27q116 9 202 28l-91 -334q-9 -38 -9 -52q0 -6 4.5 -10.5t10.5 -4.5q24 0 64 60l14 20zM356 671q-14 -78 -60 -120t-119 -42q-137 0 -137 149v13h43
q9 -90 102 -90q49 0 79 20t53 70h39z" />
    <glyph glyph-name="Iogonek" unicode="&#x12e;" horiz-adv-x="389" 
d="M221 -160q-22 -40 -55.5 -65t-70.5 -25q-31 0 -53.5 24.5t-21.5 65.5q2 84 110 160h-162v25q37 4 52.5 18.5t27.5 53.5l123 449q10 38 10 61q0 15 -9 22t-32 10q-22 4 -32 5v25h298v-25q-38 -5 -54 -18.5t-28 -53.5l-114 -420q-18 -64 -18 -87q0 -21 15 -29.5t57 -10.5
v-25q-89 0 -129 -60q-20 -30 -26 -64q-2 -57 37 -57q34 0 62 33z" />
    <glyph glyph-name="iogonek" unicode="&#x12f;" horiz-adv-x="278" 
d="M161 -160q-22 -40 -56 -65t-71 -25q-31 0 -53 24.5t-21 65.5q2 80 99 152q-26 3 -41.5 19.5t-15.5 42.5q0 22 13 69l58 215q7 30 7 40q0 29 -46 29h-13v27q116 9 202 28l-91 -334q-9 -38 -9 -52q0 -6 4.5 -10.5t10.5 -4.5q24 0 64 60l14 20l22 -14q-52 -78 -87 -108
q-39 -31 -66 -65q-31 -39 -36 -78q-2 -57 37 -57q34 0 62 33zM266 590q0 -28 -20 -47.5t-49 -19.5q-28 0 -47 20t-19 49q0 26 20 46t46 20q28 0 48.5 -20t20.5 -48z" />
    <glyph glyph-name="Idotaccent" unicode="&#x130;" horiz-adv-x="389" 
d="M264 0h-296v25q37 4 52.5 18.5t27.5 53.5l123 449q10 38 10 61q0 15 -9 22t-32 10q-22 4 -32 5v25h298v-25q-38 -5 -54 -18.5t-28 -53.5l-114 -420q-18 -64 -18 -87q0 -21 15 -29.5t57 -10.5v-25zM377 790q0 -28 -20 -47.5t-49 -19.5q-28 0 -47 20t-19 49q0 26 20 46
t46 20q28 0 48.5 -20t20.5 -48z" />
    <glyph glyph-name="dotlessi" unicode="&#x131;" horiz-adv-x="278" 
d="M238 127q-52 -79 -87 -107.5t-80 -28.5q-31 0 -50 17.5t-19 45.5q0 22 13 69l58 215q7 30 7 40q0 29 -46 29h-13v27q116 9 202 28l-91 -334q-9 -38 -9 -52q0 -6 4.5 -10.5t10.5 -4.5q24 0 64 60l14 20z" />
    <glyph glyph-name="Jcircumflex" unicode="&#x134;" 
d="M524 644q-37 -5 -52.5 -18.5t-28.5 -53.5l-128 -479q-26 -98 -77 -145t-132 -47q-66 0 -109 28.5t-43 72.5q0 30 18.5 50t45.5 20q26 0 44.5 -18t18.5 -45q0 -18 -13 -33q-10 -11 -10 -21q0 -18 27 -18q28 0 44.5 32.5t45.5 144.5l114 432q11 42 11 61q0 26 -42 32l-31 5
v25h297v-25zM586 720h-55l-96 77l-141 -77h-61l172 141h87z" />
    <glyph glyph-name="jcircumflex" unicode="&#x135;" horiz-adv-x="278" 
d="M125 24q-60 -231 -209 -231q-47 0 -76 21t-29 56q0 22 14.5 37.5t34.5 15.5t34.5 -14.5t14.5 -34.5q0 -14 -10 -28q-5 -8 -5 -10q0 -4 7.5 -8t16.5 -4q21 0 36.5 28t34.5 103l92 355q12 45 12 67q0 30 -42 30h-20v27q134 12 208 28zM357 503h-51l-88 95l-131 -95h-57
l160 174h81z" />
    <glyph glyph-name="Kcommaaccent" unicode="&#x136;" horiz-adv-x="667" 
d="M612 0h-280v25l27 3q38 3 38 24q0 14 -13 43l-113 242l-67 -249q-2 -10 -2 -17q0 -25 13.5 -34t52.5 -12v-25h-289v25q37 5 52.5 18.5t27.5 53.5l122 449q11 38 11 58q0 17 -9 24.5t-33 10.5l-31 5v25h310v-25q-44 -4 -63 -18.5t-31 -53.5l-62 -228l197 175q77 72 77 98
q0 21 -35 25l-21 2v25h211v-25q-33 -5 -47.5 -12t-46.5 -36l-216 -198l157 -338q8 -18 21 -25t42 -10v-25zM367 -128q0 -55 -46.5 -108.5t-124.5 -87.5l-12 21q105 57 105 105q0 17 -27 35q-36 25 -36 57q-1 28 17 47t46 19q34 0 55.5 -24t22.5 -64z" />
    <glyph glyph-name="kcommaaccent" unicode="&#x137;" 
d="M447 116q-37 -69 -67.5 -96.5t-68.5 -27.5q-46 0 -72.5 47.5t-50.5 175.5l-39 -27l-50 -188h-122l156 567q8 29 8 42q0 34 -42 34l-21 -1v27q99 10 208 30l-123 -460q95 75 129.5 109t34.5 53q0 12 -11 16.5t-40 6.5v25h207v-25q-34 -4 -59 -18t-76 -58l-63 -55
q30 -148 43.5 -189t34.5 -41q14 0 28 14t34 50zM243 -128q0 -55 -46.5 -108.5t-124.5 -87.5l-12 21q105 57 105 105q0 17 -27 35q-36 25 -36 57q-1 28 17 47t46 19q34 0 55.5 -24t22.5 -64z" />
    <glyph glyph-name="Lacute" unicode="&#x139;" horiz-adv-x="611" 
d="M590 194l-59 -194h-553v25q37 4 52.5 18.5t27.5 53.5l123 449q10 38 10 61q0 15 -9 22t-32 10q-22 4 -32 5v25h317v-25q-50 -3 -69.5 -17t-31.5 -55l-129 -478q-5 -18 -5 -32q0 -30 64 -30q127 0 211 61q29 22 48 44t43 62zM446 825q0 -11 -8.5 -19t-33.5 -18l-164 -71
h-53l132 106q49 40 76 40q20 0 35.5 -11.5t15.5 -26.5z" />
    <glyph glyph-name="lacute" unicode="&#x13a;" horiz-adv-x="278" 
d="M238 127q-52 -79 -87 -107.5t-81 -28.5q-31 0 -49.5 16.5t-18.5 43.5q0 37 34 158l75 264q33 120 33 142q0 28 -42 28q-10 0 -21 -1v27q96 9 209 30l-145 -523q-22 -79 -22 -100q0 -6 4.5 -10.5t10.5 -4.5q13 0 30.5 17.5t47.5 62.5zM389 855q0 -11 -8.5 -19t-33.5 -18
l-164 -71h-53l132 106q49 40 76 40q20 0 35.5 -11.5t15.5 -26.5z" />
    <glyph glyph-name="Lcommaaccent" unicode="&#x13b;" horiz-adv-x="611" 
d="M590 194l-59 -194h-553v25q37 4 52.5 18.5t27.5 53.5l123 449q10 38 10 61q0 15 -9 22t-32 10q-22 4 -32 5v25h317v-25q-50 -3 -69.5 -17t-31.5 -55l-129 -478q-5 -18 -5 -32q0 -30 64 -30q127 0 211 61q29 22 48 44t43 62zM373 -128q0 -55 -46.5 -108.5t-124.5 -87.5
l-12 21q105 57 105 105q0 17 -27 35q-36 25 -36 57q-1 28 17 47t46 19q34 0 55.5 -24t22.5 -64z" />
    <glyph glyph-name="lcommaaccent" unicode="&#x13c;" horiz-adv-x="278" 
d="M238 127q-52 -79 -87 -107.5t-81 -28.5q-31 0 -49.5 16.5t-18.5 43.5q0 37 34 158l75 264q33 120 33 142q0 28 -42 28q-10 0 -21 -1v27q96 9 209 30l-145 -523q-22 -79 -22 -100q0 -6 4.5 -10.5t10.5 -4.5q13 0 30.5 17.5t47.5 62.5zM111 -128q0 -55 -46.5 -108.5
t-124.5 -87.5l-12 21q105 57 105 105q0 17 -27 35q-36 25 -36 57q-1 28 17 47t46 19q34 0 55.5 -24t22.5 -64z" />
    <glyph glyph-name="Lcaron" unicode="&#x13d;" horiz-adv-x="611" 
d="M590 194l-59 -194h-553v25q37 4 52.5 18.5t27.5 53.5l123 449q10 38 10 61q0 15 -9 22t-32 10q-22 4 -32 5v25h317v-25q-50 -3 -69.5 -17t-31.5 -55l-129 -478q-5 -18 -5 -32q0 -30 64 -30q127 0 211 61q29 22 48 44t43 62zM612 581q0 -55 -46.5 -108.5t-124.5 -87.5
l-12 21q107 57 105 105q0 17 -27 35q-36 25 -36 57q0 29 17.5 47.5t45.5 18.5q35 0 56.5 -24t21.5 -64z" />
    <glyph glyph-name="lcaron" unicode="&#x13e;" horiz-adv-x="278" 
d="M238 127q-52 -79 -87 -107.5t-81 -28.5q-31 0 -49.5 16.5t-18.5 43.5q0 37 34 158l75 264q33 120 33 142q0 28 -42 28q-10 0 -21 -1v27q96 9 209 30l-145 -523q-22 -79 -22 -100q0 -6 4.5 -10.5t10.5 -4.5q13 0 30.5 17.5t47.5 62.5zM460 611q1 -55 -46 -108t-125 -88
l-12 21q106 57 106 105q0 18 -28 35q-36 25 -36 57q0 29 18 47.5t46 18.5q35 0 56 -24t21 -64z" />
    <glyph glyph-name="Ldot" unicode="&#x13f;" horiz-adv-x="611" 
d="M590 194l-59 -194h-553v25q37 4 52.5 18.5t27.5 53.5l123 449q10 38 10 61q0 15 -9 22t-32 10q-22 4 -32 5v25h317v-25q-50 -3 -69.5 -17t-31.5 -55l-129 -478q-5 -18 -5 -32q0 -30 64 -30q127 0 211 61q29 22 48 44t43 62zM579 369q0 -28 -20 -47.5t-49 -19.5
q-28 0 -47 20t-19 49q0 26 20 46t46 20q28 0 48.5 -20t20.5 -48z" />
    <glyph glyph-name="ldot" unicode="&#x140;" horiz-adv-x="316" 
d="M238 127q-52 -79 -87 -107.5t-81 -28.5q-31 0 -49.5 16.5t-18.5 43.5q0 37 34 158l75 264q33 120 33 142q0 28 -42 28q-10 0 -21 -1v27q96 9 209 30l-145 -523q-22 -79 -22 -100q0 -6 4.5 -10.5t10.5 -4.5q13 0 30.5 17.5t47.5 62.5zM365 369q0 -28 -20 -47.5t-49 -19.5
q-28 0 -47 20t-19 49q0 26 20 46t46 20q28 0 48.5 -20t20.5 -48z" />
    <glyph glyph-name="Lslash" unicode="&#x141;" horiz-adv-x="611" 
d="M590 194l-59 -194h-553v25q37 4 52.5 18.5t27.5 53.5l44 163l-70 -48l22 70l67 46l60 218q10 38 10 61q0 15 -9 22t-32 10q-22 4 -32 5v25h317v-25q-50 -3 -69.5 -17t-31.5 -55l-41 -151l177 120l-21 -70l-174 -118l-70 -259q-5 -18 -5 -32q0 -30 64 -30q127 0 211 61
q29 22 48 44t43 62z" />
    <glyph glyph-name="lslash" unicode="&#x142;" horiz-adv-x="278" 
d="M238 127q-52 -79 -87 -107.5t-81 -28.5q-31 0 -49.5 16.5t-18.5 43.5q0 37 34 158l27 103l-67 -56l19 71l68 56l28 90q33 120 33 142q0 28 -42 28q-10 0 -21 -1v27q96 9 209 30l-61 -221l90 75l-20 -71l-90 -75l-64 -231q-22 -79 -22 -100q0 -6 4.5 -10.5t10.5 -4.5
q13 0 30.5 17.5t47.5 62.5z" />
    <glyph glyph-name="Nacute" unicode="&#x143;" horiz-adv-x="722" 
d="M748 644q-31 -7 -45 -18t-25 -37t-32 -98l-143 -506h-28l-257 549l-99 -356q-18 -63 -18 -94q0 -29 18 -42t62 -17v-25h-208v25q41 8 56.5 31.5t44.5 121.5l120 411q-14 33 -28 42t-55 13v25h195l215 -465l80 287q18 67 18 94q0 29 -18 42t-62 17v25h209v-25zM621 825
q0 -11 -8.5 -19t-33.5 -18l-164 -71h-53l132 106q49 40 76 40q20 0 35.5 -11.5t15.5 -26.5z" />
    <glyph glyph-name="nacute" unicode="&#x144;" horiz-adv-x="556" 
d="M493 122q-44 -73 -79 -102t-80 -29q-32 0 -50 16t-18 44q0 47 28 131l55 166q5 17 5 21q0 8 -7.5 14.5t-17.5 6.5q-14 0 -34 -14.5t-35 -34.5q-46 -60 -77.5 -135t-67.5 -206h-121l56 204q46 162 46 178q0 14 -11 19t-43 6v27q92 3 200 27l-64 -198q78 116 123 158
q43 41 100 41q73 0 73 -75q0 -39 -26 -115l-36 -109q-25 -74 -25 -87q0 -17 14 -17q13 0 26.5 15t43.5 61zM463 633q0 -14 -8.5 -24t-30.5 -23l-152 -87h-49l122 131q47 50 70 50q20 0 34 -14t14 -33z" />
    <glyph glyph-name="Ncommaaccent" unicode="&#x145;" horiz-adv-x="722" 
d="M748 644q-31 -7 -45 -18t-25 -37t-32 -98l-143 -506h-28l-257 549l-99 -356q-18 -63 -18 -94q0 -29 18 -42t62 -17v-25h-208v25q41 8 56.5 31.5t44.5 121.5l120 411q-14 33 -28 42t-55 13v25h195l215 -465l80 287q18 67 18 94q0 29 -18 42t-62 17v25h209v-25zM342 -128
q0 -55 -46.5 -108.5t-124.5 -87.5l-12 21q105 57 105 105q0 17 -27 35q-36 25 -36 57q-1 28 17 47t46 19q34 0 55.5 -24t22.5 -64z" />
    <glyph glyph-name="ncommaaccent" unicode="&#x146;" horiz-adv-x="556" 
d="M493 122q-44 -73 -79 -102t-80 -29q-32 0 -50 16t-18 44q0 47 28 131l55 166q5 17 5 21q0 8 -7.5 14.5t-17.5 6.5q-14 0 -34 -14.5t-35 -34.5q-46 -60 -77.5 -135t-67.5 -206h-121l56 204q46 162 46 178q0 14 -11 19t-43 6v27q92 3 200 27l-64 -198q78 116 123 158
q43 41 100 41q73 0 73 -75q0 -39 -26 -115l-36 -109q-25 -74 -25 -87q0 -17 14 -17q13 0 26.5 15t43.5 61zM252 -128q0 -55 -46.5 -108.5t-124.5 -87.5l-12 21q105 57 105 105q0 17 -27 35q-36 25 -36 57q-1 28 17 47t46 19q34 0 55.5 -24t22.5 -64z" />
    <glyph glyph-name="Ncaron" unicode="&#x147;" horiz-adv-x="722" 
d="M748 644q-31 -7 -45 -18t-25 -37t-32 -98l-143 -506h-28l-257 549l-99 -356q-18 -63 -18 -94q0 -29 18 -42t62 -17v-25h-208v25q41 8 56.5 31.5t44.5 121.5l120 411q-14 33 -28 42t-55 13v25h195l215 -465l80 287q18 67 18 94q0 29 -18 42t-62 17v25h209v-25zM684 861
l-172 -141h-87l-94 141h55l95 -77l142 77h61z" />
    <glyph glyph-name="ncaron" unicode="&#x148;" horiz-adv-x="556" 
d="M493 122q-44 -73 -79 -102t-80 -29q-32 0 -50 16t-18 44q0 47 28 131l55 166q5 17 5 21q0 8 -7.5 14.5t-17.5 6.5q-14 0 -34 -14.5t-35 -34.5q-46 -60 -77.5 -135t-67.5 -206h-121l56 204q46 162 46 178q0 14 -11 19t-43 6v27q92 3 200 27l-64 -198q78 116 123 158
q43 41 100 41q73 0 73 -75q0 -39 -26 -115l-36 -109q-25 -74 -25 -87q0 -17 14 -17q13 0 26.5 15t43.5 61zM523 677l-162 -174h-82l-88 174h50l91 -97l135 97h56z" />
    <glyph glyph-name="Eng" unicode="&#x14a;" horiz-adv-x="722" 
d="M875 651q-50 -8 -69 -22.5t-30 -57.5l-155 -579q-16 -59 -27 -91t-31 -66t-47.5 -48t-67.5 -14q-62 0 -100 23q-24 17 -34.5 47.5t-2.5 61.5q8 29 34.5 50.5t54.5 21.5q29 0 45 -22.5t8 -52.5q-5 -19 -25 -38q-16 -15 -19 -26q-4 -14 6 -23t30 -9q37 0 67 21.5t41 65.5
l29 107l-293 526l-108 -402q-14 -53 -0.5 -72.5t69.5 -26.5l-7 -25h-227l7 25q56 7 77 22t32 58l127 474q-25 43 -38 57.5t-28 14.5l7 25h211l234 -429l82 305q15 53 1 73.5t-68 25.5l7 25h215z" />
    <glyph glyph-name="eng" unicode="&#x14b;" horiz-adv-x="556" 
d="M491 2q-23 -82 -61 -126q-64 -75 -170 -75q-62 0 -94 27.5t-20 70.5q7 26 28.5 43t49.5 17q24 0 37.5 -15.5t7.5 -37.5q-5 -15 -24 -36q-11 -12 -15 -22q-3 -17 28 -17q48 0 68 75l110 411q22 81 -30 81q-36 0 -79 -34q-21 -16 -23 -23l-91 -341h-139l99 370
q8 32 1.5 42.5t-38.5 15.5l6 24h191l-20 -74q79 86 166 86q62 0 88.5 -37.5t9.5 -101.5z" />
    <glyph glyph-name="Omacron" unicode="&#x14c;" horiz-adv-x="722" 
d="M691 454q0 -112 -59 -223t-154 -178q-98 -71 -215 -71q-106 0 -171 66t-65 173q0 106 60 217t153 176q101 71 209 71q104 0 173 -65.5t69 -165.5zM547 532q0 53 -28 86t-73 33q-99 0 -175 -142q-39 -73 -69.5 -186t-30.5 -186q0 -56 27.5 -88.5t74.5 -32.5q81 0 149 102
q49 74 87 200t38 214zM638 755h-326l17 70h325z" />
    <glyph glyph-name="omacron" unicode="&#x14d;" 
d="M441 311q0 -127 -86.5 -225.5t-198.5 -98.5q-69 0 -114 42t-45 106q0 126 88 226.5t199 100.5q69 0 113 -42.5t44 -108.5zM260 110q25 54 43.5 134t18.5 131q0 27 -12.5 42.5t-34.5 15.5q-49 0 -90 -75q-26 -47 -47.5 -135t-21.5 -145q0 -29 13 -45.5t36 -16.5
q52 0 95 94zM471 555h-326l17 70h325z" />
    <glyph glyph-name="Obreve" unicode="&#x14e;" horiz-adv-x="722" 
d="M691 454q0 -112 -59 -223t-154 -178q-98 -71 -215 -71q-106 0 -171 66t-65 173q0 106 60 217t153 176q101 71 209 71q104 0 173 -65.5t69 -165.5zM547 532q0 53 -28 86t-73 33q-99 0 -175 -142q-39 -73 -69.5 -186t-30.5 -186q0 -56 27.5 -88.5t74.5 -32.5q81 0 149 102
q49 74 87 200t38 214zM658 856q-14 -63 -63.5 -97t-128.5 -34q-76 0 -112.5 31.5t-36.5 99.5h47q9 -73 109 -73q53 0 85 16.5t58 56.5h42z" />
    <glyph glyph-name="obreve" unicode="&#x14f;" 
d="M441 311q0 -127 -86.5 -225.5t-198.5 -98.5q-69 0 -114 42t-45 106q0 126 88 226.5t199 100.5q69 0 113 -42.5t44 -108.5zM260 110q25 54 43.5 134t18.5 131q0 27 -12.5 42.5t-34.5 15.5q-49 0 -90 -75q-26 -47 -47.5 -135t-21.5 -145q0 -29 13 -45.5t36 -16.5
q52 0 95 94zM474 671q-14 -78 -60 -120t-119 -42q-137 0 -137 149v13h43q9 -90 102 -90q49 0 79 20t53 70h39z" />
    <glyph glyph-name="Ohungarumlaut" unicode="&#x150;" horiz-adv-x="722" 
d="M691 454q0 -112 -59 -223t-154 -178q-98 -71 -215 -71q-106 0 -171 66t-65 173q0 106 60 217t153 176q101 71 209 71q104 0 173 -65.5t69 -165.5zM547 532q0 53 -28 86t-73 33q-99 0 -175 -142q-39 -73 -69.5 -186t-30.5 -186q0 -56 27.5 -88.5t74.5 -32.5q81 0 149 102
q49 74 87 200t38 214zM777 825q0 -11 -8.5 -19t-33.5 -18l-164 -71h-53l132 106q49 40 76 40q20 0 35.5 -11.5t15.5 -26.5zM601 825q0 -11 -8.5 -19t-33.5 -18l-164 -71h-53l132 106q49 40 76 40q20 0 35.5 -11.5t15.5 -26.5z" />
    <glyph glyph-name="ohungarumlaut" unicode="&#x151;" 
d="M441 311q0 -127 -86.5 -225.5t-198.5 -98.5q-69 0 -114 42t-45 106q0 126 88 226.5t199 100.5q69 0 113 -42.5t44 -108.5zM260 110q25 54 43.5 134t18.5 131q0 27 -12.5 42.5t-34.5 15.5q-49 0 -90 -75q-26 -47 -47.5 -135t-21.5 -145q0 -29 13 -45.5t36 -16.5
q52 0 95 94zM368 659q0 -20 -38 -58l-118 -116h-49l95 162q29 49 67 49q43 0 43 -37zM552 649q0 -7 -2.5 -11.5t-5.5 -7.5t-12 -10t-16 -13l-135 -122h-49l102 160q32 51 70 51q20 0 34 -14t14 -33z" />
    <glyph glyph-name="OE" unicode="&#x152;" horiz-adv-x="944" 
d="M878 194l-60 -194h-296h-28l-24 -1h-22l-154 -7h-18q-120 0 -184 57q-69 61 -69 175q0 108 55 212.5t146 170.5q53 38 107 54t133 16q26 0 56 -3q70 -5 91 -5h335l-46 -191l-25 6q2 28 2 37q0 59 -40 87q-41 29 -125 29q-26 0 -35.5 -8t-17.5 -39l-61 -220h21h4
q67 -1 103.5 22t60.5 81l27 -3l-72 -272l-27 5l1 19q3 26 3 41q0 31 -21 48q-11 10 -31.5 14.5t-77.5 10.5l-64 -245q-4 -18 -4 -25q0 -34 73 -34q88 0 146.5 38t110.5 129zM500 514q12 41 12 69q0 62 -73 62q-90 0 -161 -106q-46 -68 -80 -181.5t-34 -199.5q0 -60 33 -96.5
t88 -36.5q43 0 67.5 22.5t39.5 75.5z" />
    <glyph glyph-name="oe" unicode="&#x153;" horiz-adv-x="722" 
d="M619 124q-37 -68 -72 -97q-52 -40 -116 -40q-63 0 -117 57q-63 -57 -148 -57q-71 0 -115.5 43.5t-44.5 113.5q0 76 45 157q44 75 110 118t139 43q40 0 66 -14t50 -48q44 35 75.5 48.5t70.5 13.5q52 0 82 -24.5t30 -65.5q0 -71 -87 -127q-34 -22 -65 -33t-108 -28
q-8 -39 -8 -56q0 -78 67 -78q35 0 59.5 18.5t58.5 70.5zM586 392q0 40 -37 40q-22 0 -36 -16q-24 -27 -39 -60t-53 -138q58 17 89.5 38.5t53.5 58.5q22 41 22 77zM274 113q22 48 42.5 127.5t20.5 118.5q0 74 -55 74q-37 0 -67 -42.5t-61 -138.5q-30 -96 -30 -155
q0 -81 53 -81q54 0 97 97z" />
    <glyph glyph-name="Racute" unicode="&#x154;" horiz-adv-x="667" 
d="M602 0h-202l-107 331h-29l-55 -193q-14 -50 -14 -71q0 -22 14 -30.5t58 -11.5v-25h-296v25q37 4 52.5 18.5t27.5 53.5l123 449q10 38 10 61q0 15 -9 22t-32 10q-22 4 -32 5v25h276q236 0 236 -143q0 -88 -83 -143q-38 -26 -109 -40l83 -246q16 -44 31 -56t57 -16v-25z
M472 542q0 46 -23.5 70.5t-66.5 24.5q-23 0 -32.5 -8.5t-16.5 -35.5l-60 -230q91 1 127 25q33 20 52.5 62t19.5 92zM557 825q0 -11 -8.5 -19t-33.5 -18l-164 -71h-53l132 106q49 40 76 40q20 0 35.5 -11.5t15.5 -26.5z" />
    <glyph glyph-name="racute" unicode="&#x155;" horiz-adv-x="389" 
d="M389 396q0 -31 -16.5 -52t-41.5 -21q-23 0 -45 25q-9 13 -16 13q-22 0 -65 -76q-34 -58 -72 -181l-33 -104h-121q102 345 102 382q0 14 -10 18.5t-44 6.5v27q131 11 200 28l-66 -209q59 119 96 164t75 45q26 0 41.5 -18t15.5 -48zM371 633q0 -14 -8.5 -24t-30.5 -23
l-152 -87h-49l122 131q47 50 70 50q20 0 34 -14t14 -33z" />
    <glyph glyph-name="Rcommaaccent" unicode="&#x156;" horiz-adv-x="667" 
d="M602 0h-202l-107 331h-29l-55 -193q-14 -50 -14 -71q0 -22 14 -30.5t58 -11.5v-25h-296v25q37 4 52.5 18.5t27.5 53.5l123 449q10 38 10 61q0 15 -9 22t-32 10q-22 4 -32 5v25h276q236 0 236 -143q0 -88 -83 -143q-38 -26 -109 -40l83 -246q16 -44 31 -56t57 -16v-25z
M472 542q0 46 -23.5 70.5t-66.5 24.5q-23 0 -32.5 -8.5t-16.5 -35.5l-60 -230q91 1 127 25q33 20 52.5 62t19.5 92zM278 -128q0 -55 -46.5 -108.5t-124.5 -87.5l-12 21q105 57 105 105q0 17 -27 35q-36 25 -36 57q-1 28 17 47t46 19q34 0 55.5 -24t22.5 -64z" />
    <glyph glyph-name="rcommaaccent" unicode="&#x157;" horiz-adv-x="389" 
d="M389 396q0 -31 -16.5 -52t-41.5 -21q-23 0 -45 25q-9 13 -16 13q-22 0 -65 -76q-34 -58 -72 -181l-33 -104h-121q102 345 102 382q0 14 -10 18.5t-44 6.5v27q131 11 200 28l-66 -209q59 119 96 164t75 45q26 0 41.5 -18t15.5 -48zM109 -128q0 -55 -46.5 -108.5
t-124.5 -87.5l-12 21q105 57 105 105q0 17 -27 35q-36 25 -36 57q-1 28 17 47t46 19q34 0 55.5 -24t22.5 -64z" />
    <glyph glyph-name="Rcaron" unicode="&#x158;" horiz-adv-x="667" 
d="M602 0h-202l-107 331h-29l-55 -193q-14 -50 -14 -71q0 -22 14 -30.5t58 -11.5v-25h-296v25q37 4 52.5 18.5t27.5 53.5l123 449q10 38 10 61q0 15 -9 22t-32 10q-22 4 -32 5v25h276q236 0 236 -143q0 -88 -83 -143q-38 -26 -109 -40l83 -246q16 -44 31 -56t57 -16v-25z
M472 542q0 46 -23.5 70.5t-66.5 24.5q-23 0 -32.5 -8.5t-16.5 -35.5l-60 -230q91 1 127 25q33 20 52.5 62t19.5 92zM620 861l-172 -141h-87l-94 141h55l95 -77l142 77h61z" />
    <glyph glyph-name="rcaron" unicode="&#x159;" horiz-adv-x="389" 
d="M389 396q0 -31 -16.5 -52t-41.5 -21q-23 0 -45 25q-9 13 -16 13q-22 0 -65 -76q-34 -58 -72 -181l-33 -104h-121q102 345 102 382q0 14 -10 18.5t-44 6.5v27q131 11 200 28l-66 -209q59 119 96 164t75 45q26 0 41.5 -18t15.5 -48zM431 677l-162 -174h-82l-88 174h50
l91 -97l135 97h56z" />
    <glyph glyph-name="Sacute" unicode="&#x15a;" horiz-adv-x="556" 
d="M468 185q0 -93 -62 -148t-167 -55q-54 0 -123 24q-32 11 -46 11t-21.5 -6.5t-16.5 -28.5h-30l36 224l29 -2q5 -82 32 -123q41 -65 122 -65q73 0 107 58q19 33 19 68q0 67 -113 153q-85 66 -119 130q-13 28 -13 66q0 83 58 138.5t143 55.5q41 0 98 -19q36 -11 51 -11
q31 0 44 26h30l-40 -201l-27 4q-10 88 -41 127t-91 39q-48 0 -76 -28t-28 -77q0 -34 15 -56.5t62 -57.5q92 -70 130 -125.5t38 -120.5zM498 825q0 -11 -8.5 -19t-33.5 -18l-164 -71h-53l132 106q49 40 76 40q20 0 35.5 -11.5t15.5 -26.5z" />
    <glyph glyph-name="sacute" unicode="&#x15b;" horiz-adv-x="389" 
d="M279 119q0 -56 -42 -94t-106 -38q-27 0 -63 12q-21 8 -31 8q-22 0 -29 -20h-27l22 166l27 -3q19 -133 96 -133q24 0 40.5 15.5t16.5 38.5q0 38 -56 104q-50 59 -65 90t-15 71q0 58 36.5 92t97.5 34q25 0 58 -13q23 -9 36 -9q11 0 16 3.5t13 17.5h29l-23 -153l-27 2
q-12 62 -33 90.5t-55 28.5q-24 0 -38.5 -14.5t-14.5 -38.5q0 -33 56 -98q81 -94 81 -159zM358 633q0 -14 -8.5 -24t-30.5 -23l-152 -87h-49l122 131q47 50 70 50q20 0 34 -14t14 -33z" />
    <glyph glyph-name="Scircumflex" unicode="&#x15c;" horiz-adv-x="556" 
d="M468 185q0 -93 -62 -148t-167 -55q-54 0 -123 24q-32 11 -46 11t-21.5 -6.5t-16.5 -28.5h-30l36 224l29 -2q5 -82 32 -123q41 -65 122 -65q73 0 107 58q19 33 19 68q0 67 -113 153q-85 66 -119 130q-13 28 -13 66q0 83 58 138.5t143 55.5q41 0 98 -19q36 -11 51 -11
q31 0 44 26h30l-40 -201l-27 4q-10 88 -41 127t-91 39q-48 0 -76 -28t-28 -77q0 -34 15 -56.5t62 -57.5q92 -70 130 -125.5t38 -120.5zM522 720h-55l-96 77l-141 -77h-61l172 141h87z" />
    <glyph glyph-name="scircumflex" unicode="&#x15d;" horiz-adv-x="389" 
d="M279 119q0 -56 -42 -94t-106 -38q-27 0 -63 12q-21 8 -31 8q-22 0 -29 -20h-27l22 166l27 -3q19 -133 96 -133q24 0 40.5 15.5t16.5 38.5q0 38 -56 104q-50 59 -65 90t-15 71q0 58 36.5 92t97.5 34q25 0 58 -13q23 -9 36 -9q11 0 16 3.5t13 17.5h29l-23 -153l-27 2
q-12 62 -33 90.5t-55 28.5q-24 0 -38.5 -14.5t-14.5 -38.5q0 -33 56 -98q81 -94 81 -159zM379 503h-51l-88 95l-131 -95h-57l160 174h81z" />
    <glyph glyph-name="Scedilla" unicode="&#x15e;" horiz-adv-x="556" 
d="M468 185q0 -89 -57 -143.5t-154 -59.5l-37 -54q15 3 26 3q39 0 64.5 -20.5t25.5 -51.5q0 -37 -35.5 -62t-88.5 -25q-51 0 -112 25l22 33q38 -17 67 -17q26 0 41 11t15 30q0 36 -47 36q-14 0 -30 -4l-13 12l58 85q-42 4 -97 23q-32 11 -46 11t-21.5 -6.5t-16.5 -28.5h-30
l36 224l29 -2q5 -82 32 -123q41 -65 122 -65q73 0 107 58q19 33 19 68q0 67 -113 153q-85 66 -119 130q-13 28 -13 66q0 83 58 138.5t143 55.5q41 0 98 -19q36 -11 51 -11q31 0 44 26h30l-40 -201l-27 4q-10 88 -41 127t-91 39q-48 0 -76 -28t-28 -77q0 -34 15 -56.5
t62 -57.5q92 -70 130 -125.5t38 -120.5z" />
    <glyph glyph-name="scedilla" unicode="&#x15f;" horiz-adv-x="389" 
d="M226 -131q0 -37 -35.5 -62t-88.5 -25q-51 0 -112 25l22 33q38 -17 67 -17q26 0 41 11t15 30q0 36 -47 36q-14 0 -30 -4l-13 12l56 82q-15 3 -33 9q-21 8 -31 8q-22 0 -29 -20h-27l22 166l27 -3q19 -133 96 -133q24 0 40.5 15.5t16.5 38.5q0 38 -56 104q-50 59 -65 90
t-15 71q0 58 36.5 92t97.5 34q25 0 58 -13q23 -9 36 -9q11 0 16 3.5t13 17.5h29l-23 -153l-27 2q-12 62 -33 90.5t-55 28.5q-24 0 -38.5 -14.5t-14.5 -38.5q0 -33 56 -98q81 -94 81 -159q0 -53 -38.5 -90.5t-97.5 -41.5l-33 -49q15 3 26 3q39 0 64.5 -20.5t25.5 -51.5z" />
    <glyph glyph-name="Scaron" unicode="&#x160;" horiz-adv-x="556" 
d="M468 185q0 -93 -62 -148t-167 -55q-54 0 -123 24q-32 11 -46 11t-21.5 -6.5t-16.5 -28.5h-30l36 224l29 -2q5 -82 32 -123q41 -65 122 -65q73 0 107 58q19 33 19 68q0 67 -113 153q-85 66 -119 130q-13 28 -13 66q0 83 58 138.5t143 55.5q41 0 98 -19q36 -11 51 -11
q31 0 44 26h30l-40 -201l-27 4q-10 88 -41 127t-91 39q-48 0 -76 -28t-28 -77q0 -34 15 -56.5t62 -57.5q92 -70 130 -125.5t38 -120.5zM561 861l-172 -141h-87l-94 141h55l95 -77l142 77h61z" />
    <glyph glyph-name="scaron" unicode="&#x161;" horiz-adv-x="389" 
d="M279 119q0 -56 -42 -94t-106 -38q-27 0 -63 12q-21 8 -31 8q-22 0 -29 -20h-27l22 166l27 -3q19 -133 96 -133q24 0 40.5 15.5t16.5 38.5q0 38 -56 104q-50 59 -65 90t-15 71q0 58 36.5 92t97.5 34q25 0 58 -13q23 -9 36 -9q11 0 16 3.5t13 17.5h29l-23 -153l-27 2
q-12 62 -33 90.5t-55 28.5q-24 0 -38.5 -14.5t-14.5 -38.5q0 -33 56 -98q81 -94 81 -159zM418 677l-162 -174h-82l-88 174h50l91 -97l135 97h56z" />
    <glyph glyph-name="Tcedilla" unicode="&#x162;" horiz-adv-x="611" 
d="M614 477l-27 2q-4 83 -35.5 118.5t-102.5 36.5l-140 -506q-11 -42 -11 -62q0 -24 15 -31.5t68 -9.5v-25h-144l-47 -72q15 3 26 3q39 0 64.5 -20.5t25.5 -51.5q0 -37 -35.5 -62t-88.5 -25q-51 0 -112 25l22 33q38 -17 67 -17q26 0 41 11t15 30q0 36 -47 36q-14 0 -30 -4
l-13 12l68 102h-143v25h14q38 0 59.5 16.5t31.5 55.5l148 537q-77 -2 -127.5 -35t-89.5 -108l-25 7l38 171h551z" />
    <glyph glyph-name="tcedilla" unicode="&#x163;" horiz-adv-x="278" 
d="M156 -131q0 -37 -35.5 -62t-88.5 -25q-51 0 -112 25l22 33q38 -17 67 -17q26 0 41 11t15 30q0 36 -47 36q-14 0 -30 -4l-13 12l59 87q-45 13 -45 61q0 30 24 113l68 238h-51v35q59 22 100.5 57t82.5 95h35l-39 -145h72v-42h-83l-33 -119q-54 -186 -54 -212q0 -6 5 -10.5
t11 -4.5q25 0 76 80l22 -14q-44 -70 -77.5 -100.5t-71.5 -34.5l-36 -54q15 3 26 3q39 0 64.5 -20.5t25.5 -51.5z" />
    <glyph glyph-name="Tcaron" unicode="&#x164;" horiz-adv-x="611" 
d="M614 477l-27 2q-4 83 -35.5 118.5t-102.5 36.5l-140 -506q-11 -42 -11 -62q0 -24 15 -31.5t68 -9.5v-25h-331v25h14q38 0 59.5 16.5t31.5 55.5l148 537q-77 -2 -127.5 -35t-89.5 -108l-25 7l38 171h551zM615 861l-172 -141h-87l-94 141h55l95 -77l142 77h61z" />
    <glyph glyph-name="tcaron" unicode="&#x165;" horiz-adv-x="278" 
d="M225 127q-50 -77 -85.5 -106.5t-80.5 -29.5q-32 0 -51 18t-19 47q0 30 24 113l68 238h-51v35q59 22 100.5 57t82.5 95h35l-39 -145h72v-42h-83l-33 -119q-54 -186 -54 -212q0 -6 5 -10.5t11 -4.5q25 0 76 80zM439 667q1 -55 -46 -108t-125 -88l-12 21q106 57 106 105
q0 17 -27 35q-37 25 -37 57q0 29 18 47.5t46 18.5q35 0 56 -24t21 -64z" />
    <glyph glyph-name="Utilde" unicode="&#x168;" horiz-adv-x="722" 
d="M744 644q-41 -8 -56.5 -31t-45.5 -122l-66 -228q-42 -147 -89 -201q-68 -80 -197 -80q-98 0 -160.5 46.5t-62.5 119.5q0 54 34 175l55 206q15 58 15 76q0 16 -9 23.5t-33 11.5l-31 4v25h311v-25q-46 -2 -63.5 -15.5t-30.5 -56.5l-82 -300q-28 -101 -28 -133
q0 -47 32.5 -74t89.5 -27q82 0 133 60q43 53 79 184l58 209q19 70 19 96q0 27 -18.5 40t-61.5 17v25h208v-25zM705 850q-16 -63 -44 -91t-73 -28q-25 0 -57 13l-59 23q-21 8 -38 8q-31 0 -48 -43h-40q10 54 41.5 86t74.5 32q38 0 97 -26q39 -16 54 -16q17 0 28.5 9t22.5 33
h41z" />
    <glyph glyph-name="utilde" unicode="&#x169;" horiz-adv-x="556" 
d="M492 120q-75 -129 -161 -129q-65 0 -65 60q0 37 24 110q-77 -108 -113.5 -139t-86.5 -31q-75 0 -75 74q0 33 21 108l40 133q14 45 14 73q0 15 -10.5 20.5t-45.5 7.5v27q66 3 181 23q10 2 28 5l-94 -308q-15 -48 -15 -66q0 -25 21 -25q28 0 73 55q43 54 71.5 120t70.5 211
h118l-78 -268q-25 -80 -25 -105q0 -17 14 -17q24 0 72 74zM523 650q-16 -63 -44 -91t-73 -28q-25 0 -57 13l-59 23q-21 8 -38 8q-31 0 -48 -43h-40q10 54 41.5 86t74.5 32q38 0 97 -26q39 -16 54 -16q17 0 28.5 9t22.5 33h41z" />
    <glyph glyph-name="Umacron" unicode="&#x16a;" horiz-adv-x="722" 
d="M744 644q-41 -8 -56.5 -31t-45.5 -122l-66 -228q-42 -147 -89 -201q-68 -80 -197 -80q-98 0 -160.5 46.5t-62.5 119.5q0 54 34 175l55 206q15 58 15 76q0 16 -9 23.5t-33 11.5l-31 4v25h311v-25q-46 -2 -63.5 -15.5t-30.5 -56.5l-82 -300q-28 -101 -28 -133
q0 -47 32.5 -74t89.5 -27q82 0 133 60q43 53 79 184l58 209q19 70 19 96q0 27 -18.5 40t-61.5 17v25h208v-25zM680 755h-326l17 70h325z" />
    <glyph glyph-name="umacron" unicode="&#x16b;" horiz-adv-x="556" 
d="M492 120q-75 -129 -161 -129q-65 0 -65 60q0 37 24 110q-77 -108 -113.5 -139t-86.5 -31q-75 0 -75 74q0 33 21 108l40 133q14 45 14 73q0 15 -10.5 20.5t-45.5 7.5v27q66 3 181 23q10 2 28 5l-94 -308q-15 -48 -15 -66q0 -25 21 -25q28 0 73 55q43 54 71.5 120t70.5 211
h118l-78 -268q-25 -80 -25 -105q0 -17 14 -17q24 0 72 74zM497 555h-326l17 70h325z" />
    <glyph glyph-name="Ubreve" unicode="&#x16c;" horiz-adv-x="722" 
d="M744 644q-41 -8 -56.5 -31t-45.5 -122l-66 -228q-42 -147 -89 -201q-68 -80 -197 -80q-98 0 -160.5 46.5t-62.5 119.5q0 54 34 175l55 206q15 58 15 76q0 16 -9 23.5t-33 11.5l-31 4v25h311v-25q-46 -2 -63.5 -15.5t-30.5 -56.5l-82 -300q-28 -101 -28 -133
q0 -47 32.5 -74t89.5 -27q82 0 133 60q43 53 79 184l58 209q19 70 19 96q0 27 -18.5 40t-61.5 17v25h208v-25zM700 856q-14 -63 -63.5 -97t-128.5 -34q-76 0 -112.5 31.5t-36.5 99.5h47q9 -73 109 -73q53 0 85 16.5t58 56.5h42z" />
    <glyph glyph-name="ubreve" unicode="&#x16d;" horiz-adv-x="556" 
d="M492 120q-75 -129 -161 -129q-65 0 -65 60q0 37 24 110q-77 -108 -113.5 -139t-86.5 -31q-75 0 -75 74q0 33 21 108l40 133q14 45 14 73q0 15 -10.5 20.5t-45.5 7.5v27q66 3 181 23q10 2 28 5l-94 -308q-15 -48 -15 -66q0 -25 21 -25q28 0 73 55q43 54 71.5 120t70.5 211
h118l-78 -268q-25 -80 -25 -105q0 -17 14 -17q24 0 72 74zM500 671q-14 -78 -60 -120t-119 -42q-137 0 -137 149v13h43q9 -90 102 -90q49 0 79 20t53 70h39z" />
    <glyph glyph-name="Uring" unicode="&#x16e;" horiz-adv-x="722" 
d="M744 644q-41 -8 -56.5 -31t-45.5 -122l-66 -228q-42 -147 -89 -201q-68 -80 -197 -80q-98 0 -160.5 46.5t-62.5 119.5q0 54 34 175l55 206q15 58 15 76q0 16 -9 23.5t-33 11.5l-31 4v25h311v-25q-46 -2 -63.5 -15.5t-30.5 -56.5l-82 -300q-28 -101 -28 -133
q0 -47 32.5 -74t89.5 -27q82 0 133 60q43 53 79 184l58 209q19 70 19 96q0 27 -18.5 40t-61.5 17v25h208v-25zM637 810q0 -44 -31.5 -75.5t-75.5 -31.5t-75 31.5t-31 76.5q0 43 31.5 74t75.5 31q43 0 74.5 -31t31.5 -75zM589 808q0 25 -17.5 42.5t-42.5 17.5
q-23 0 -40 -17.5t-17 -41.5t17 -41t40 -17q25 0 42.5 17t17.5 40z" />
    <glyph glyph-name="uring" unicode="&#x16f;" horiz-adv-x="556" 
d="M492 120q-75 -129 -161 -129q-65 0 -65 60q0 37 24 110q-77 -108 -113.5 -139t-86.5 -31q-75 0 -75 74q0 33 21 108l40 133q14 45 14 73q0 15 -10.5 20.5t-45.5 7.5v27q66 3 181 23q10 2 28 5l-94 -308q-15 -48 -15 -66q0 -25 21 -25q28 0 73 55q43 54 71.5 120t70.5 211
h118l-78 -268q-25 -80 -25 -105q0 -17 14 -17q24 0 72 74zM449 591q0 -44 -31.5 -75.5t-75.5 -31.5t-75 31.5t-31 76.5q0 43 31.5 74t75.5 31q43 0 74.5 -31.5t31.5 -74.5zM401 589q0 25 -17.5 42.5t-42.5 17.5q-23 0 -40 -17.5t-17 -41.5t17 -41t40 -17q25 0 42.5 17
t17.5 40z" />
    <glyph glyph-name="Uhungarumlaut" unicode="&#x170;" horiz-adv-x="722" 
d="M744 644q-41 -8 -56.5 -31t-45.5 -122l-66 -228q-42 -147 -89 -201q-68 -80 -197 -80q-98 0 -160.5 46.5t-62.5 119.5q0 54 34 175l55 206q15 58 15 76q0 16 -9 23.5t-33 11.5l-31 4v25h311v-25q-46 -2 -63.5 -15.5t-30.5 -56.5l-82 -300q-28 -101 -28 -133
q0 -47 32.5 -74t89.5 -27q82 0 133 60q43 53 79 184l58 209q19 70 19 96q0 27 -18.5 40t-61.5 17v25h208v-25zM819 825q0 -11 -8.5 -19t-33.5 -18l-164 -71h-53l132 106q49 40 76 40q20 0 35.5 -11.5t15.5 -26.5zM643 825q0 -11 -8.5 -19t-33.5 -18l-164 -71h-53l132 106
q49 40 76 40q20 0 35.5 -11.5t15.5 -26.5z" />
    <glyph glyph-name="uhungarumlaut" unicode="&#x171;" horiz-adv-x="556" 
d="M492 120q-75 -129 -161 -129q-65 0 -65 60q0 37 24 110q-77 -108 -113.5 -139t-86.5 -31q-75 0 -75 74q0 33 21 108l40 133q14 45 14 73q0 15 -10.5 20.5t-45.5 7.5v27q66 3 181 23q10 2 28 5l-94 -308q-15 -48 -15 -66q0 -25 21 -25q28 0 73 55q43 54 71.5 120t70.5 211
h118l-78 -268q-25 -80 -25 -105q0 -17 14 -17q24 0 72 74zM394 659q0 -20 -38 -58l-118 -116h-49l95 162q29 49 67 49q43 0 43 -37zM578 649q0 -7 -2.5 -11.5t-5.5 -7.5t-12 -10t-16 -13l-135 -122h-49l102 160q32 51 70 51q20 0 34 -14t14 -33z" />
    <glyph glyph-name="Uogonek" unicode="&#x172;" horiz-adv-x="722" 
d="M744 644q-41 -8 -56.5 -31t-45.5 -122l-66 -228q-36 -126 -70 -176q-20 -31 -81 -74t-81 -73t-26 -64q-1 -27 9.5 -42t28.5 -15q32 0 62 33l12 -12q-22 -40 -55.5 -65t-70.5 -25q-31 0 -53.5 24.5t-21.5 65.5q2 76 87 143q-8 -1 -26 -1q-98 0 -160.5 46.5t-62.5 119.5
q0 54 34 175l55 206q15 58 15 76q0 16 -9 23.5t-33 11.5l-31 4v25h311v-25q-46 -2 -63.5 -15.5t-30.5 -56.5l-82 -300q-28 -101 -28 -133q0 -47 32.5 -74t89.5 -27q82 0 133 60q43 53 79 184l58 209q19 70 19 96q0 27 -18.5 40t-61.5 17v25h208v-25z" />
    <glyph glyph-name="uogonek" unicode="&#x173;" horiz-adv-x="556" 
d="M417 -160q-22 -40 -56 -65t-71 -25q-31 0 -53 24.5t-21 65.5q2 80 99 152q-49 6 -49 59q0 37 24 110q-77 -108 -113.5 -139t-86.5 -31q-75 0 -75 74q0 33 21 108l40 133q14 45 14 73q0 15 -10.5 20.5t-45.5 7.5v27q66 3 181 23q10 2 28 5l-94 -308q-15 -48 -15 -66
q0 -25 21 -25q28 0 73 55q43 54 71.5 120t70.5 211h118l-78 -268q-25 -80 -25 -105q0 -17 14 -17q24 0 72 74l21 -13q-47 -80 -93 -109q-36 -23 -68 -71q-22 -32 -26 -64q-2 -57 37 -57q34 0 62 33z" />
    <glyph glyph-name="Wcircumflex" unicode="&#x174;" horiz-adv-x="889" 
d="M940 645q-32 -5 -47.5 -18.5t-36.5 -54.5l-286 -590h-29l-59 489l-233 -489h-29l-78 579q-7 53 -18 64.5t-59 19.5v24h277v-25q-36 -5 -48.5 -15.5t-12.5 -37.5q0 -11 1 -16l39 -349l150 311q-1 64 -13.5 83t-57.5 25v24h269v-25q-40 -4 -51.5 -14.5t-11.5 -43.5
q0 -12 6 -65l33 -295l156 327q15 30 15 46q0 27 -10.5 34.5t-52.5 10.5v25h187v-24zM725 720h-55l-96 77l-141 -77h-61l172 141h87z" />
    <glyph glyph-name="wcircumflex" unicode="&#x175;" horiz-adv-x="667" 
d="M614 400q0 -125 -272 -413h-27l-23 285l-113 -199l-57 -86h-27q2 73 0 163q-5 224 -38 249q-9 8 -41 8v27q119 20 155 28q29 -108 33 -275l156 275h27l32 -332q119 139 119 181q0 15 -20 42q-21 29 -21 49q0 24 17 42t39 18q25 0 43 -18.5t18 -43.5zM632 503h-51l-88 95
l-131 -95h-57l160 174h81z" />
    <glyph glyph-name="Ycircumflex" unicode="&#x176;" horiz-adv-x="611" 
d="M659 644q-28 -6 -46.5 -20t-44.5 -49l-190 -267l-52 -191q-8 -29 -8 -45q0 -28 14 -36.5t63 -10.5v-25h-322v25q52 4 69.5 16.5t31.5 55.5l60 216l-88 268q-14 40 -24.5 49t-48.5 14v25h283v-25q-42 -2 -56 -9t-14 -28q0 -24 33 -119l19 -59l25 -77l129 186q26 37 26 60
q0 26 -13.5 35t-53.5 11v25h208v-25zM592 720h-55l-96 77l-141 -77h-61l172 141h87z" />
    <glyph glyph-name="ycircumflex" unicode="&#x177;" horiz-adv-x="444" 
d="M392 398q0 -76 -75.5 -227t-173.5 -270q-41 -50 -87.5 -78t-87.5 -28q-26 0 -44 17.5t-18 42.5q0 22 15 38.5t35 16.5q30 0 60 -21q18 -14 34 -14q13 0 32 15t35 37q25 35 25 69q0 50 -50 288q-23 107 -48 122q-9 5 -30 5v27q84 8 149 24q29 -75 66 -277l12 -75
q53 101 70 141.5t17 63.5q0 17 -24 35q-31 23 -31 55q0 23 17.5 40t39.5 17q25 0 43.5 -19t18.5 -45zM421 503h-51l-88 95l-131 -95h-57l160 174h81z" />
    <glyph glyph-name="Ydieresis" unicode="&#x178;" horiz-adv-x="611" 
d="M659 644q-28 -6 -46.5 -20t-44.5 -49l-190 -267l-52 -191q-8 -29 -8 -45q0 -28 14 -36.5t63 -10.5v-25h-322v25q52 4 69.5 16.5t31.5 55.5l60 216l-88 268q-14 40 -24.5 49t-48.5 14v25h283v-25q-42 -2 -56 -9t-14 -28q0 -24 33 -119l19 -59l25 -77l129 186q26 37 26 60
q0 26 -13.5 35t-53.5 11v25h208v-25zM394 789q0 -26 -19.5 -45t-46.5 -19q-26 0 -45 19.5t-19 44.5q0 27 19 46.5t45 19.5q27 0 46.5 -19.5t19.5 -46.5zM604 789q0 -26 -19.5 -45t-46.5 -19q-26 0 -45 19.5t-19 44.5q0 27 19 46.5t45 19.5q27 0 46.5 -19.5t19.5 -46.5z" />
    <glyph glyph-name="Zacute" unicode="&#x179;" horiz-adv-x="611" 
d="M554 194l-59 -194h-506v29l434 605h-78q-82 0 -137.5 -32t-114.5 -115l-28 4l57 178h468v-29l-434 -605h70q127 0 192 45q61 41 109 119zM522 825q0 -11 -8.5 -19t-33.5 -18l-164 -71h-53l132 106q49 40 76 40q20 0 35.5 -11.5t15.5 -26.5z" />
    <glyph glyph-name="zacute" unicode="&#x17a;" horiz-adv-x="389" 
d="M346 13q0 -39 -31 -65t-77 -26q-57 0 -131 50q-48 33 -74 33q-13 0 -32 -14q-12 -10 -19 -14l-25 22l292 354h-145q-23 0 -36.5 -13.5t-26.5 -47.5l-28 3l43 154h312v-10l-281 -335q39 -17 61 -39t46 -67q13 -26 23.5 -36.5t23.5 -10.5q22 0 22 16q0 5 -7 15
q-13 14 -13 31q0 21 15 36.5t35 15.5q21 0 37 -15.5t16 -36.5zM369 633q0 -14 -8.5 -24t-30.5 -23l-152 -87h-49l122 131q47 50 70 50q20 0 34 -14t14 -33z" />
    <glyph glyph-name="Zdotaccent" unicode="&#x17b;" horiz-adv-x="611" 
d="M554 194l-59 -194h-506v29l434 605h-78q-82 0 -137.5 -32t-114.5 -115l-28 4l57 178h468v-29l-434 -605h70q127 0 192 45q61 41 109 119zM456 790q0 -28 -20 -47.5t-49 -19.5q-28 0 -47 20t-19 49q0 26 20 46t46 20q28 0 48.5 -20t20.5 -48z" />
    <glyph glyph-name="zdotaccent" unicode="&#x17c;" horiz-adv-x="389" 
d="M346 13q0 -39 -31 -65t-77 -26q-57 0 -131 50q-48 33 -74 33q-13 0 -32 -14q-12 -10 -19 -14l-25 22l292 354h-145q-23 0 -36.5 -13.5t-26.5 -47.5l-28 3l43 154h312v-10l-281 -335q39 -17 61 -39t46 -67q13 -26 23.5 -36.5t23.5 -10.5q22 0 22 16q0 5 -7 15
q-13 14 -13 31q0 21 15 36.5t35 15.5q21 0 37 -15.5t16 -36.5zM317 590q0 -28 -20 -47.5t-49 -19.5q-28 0 -47 20t-19 49q0 26 20 46t46 20q28 0 48.5 -20t20.5 -48z" />
    <glyph glyph-name="Zcaron" unicode="&#x17d;" horiz-adv-x="611" 
d="M554 194l-59 -194h-506v29l434 605h-78q-82 0 -137.5 -32t-114.5 -115l-28 4l57 178h468v-29l-434 -605h70q127 0 192 45q61 41 109 119zM585 861l-172 -141h-87l-94 141h55l95 -77l142 77h61z" />
    <glyph glyph-name="zcaron" unicode="&#x17e;" horiz-adv-x="389" 
d="M346 13q0 -39 -31 -65t-77 -26q-57 0 -131 50q-48 33 -74 33q-13 0 -32 -14q-12 -10 -19 -14l-25 22l292 354h-145q-23 0 -36.5 -13.5t-26.5 -47.5l-28 3l43 154h312v-10l-281 -335q39 -17 61 -39t46 -67q13 -26 23.5 -36.5t23.5 -10.5q22 0 22 16q0 5 -7 15
q-13 14 -13 31q0 21 15 36.5t35 15.5q21 0 37 -15.5t16 -36.5zM429 677l-162 -174h-82l-88 174h50l91 -97l135 97h56z" />
    <glyph glyph-name="longs" unicode="&#x17f;" horiz-adv-x="333" 
d="M443 618q0 -23 -14.5 -38t-36.5 -15q-20 0 -34.5 14.5t-14.5 34.5q-1 14 10 31l5 11q0 13 -17 13q-52 0 -90 -149l-111 -490q-46 -145 -99 -192q-46 -43 -110 -43q-45 0 -72 21.5t-27 57.5q0 22 15 38t36 16q19 0 34.5 -15t15.5 -33t-12 -34l-4 -9q0 -11 18 -11
q30 0 48 39t41 150l86 392h-73l8 42h73q22 76 40 115t49 73q56 61 136 61q45 0 72 -21.5t28 -58.5z" />
    <glyph glyph-name="Ereversed" unicode="&#x18e;" horiz-adv-x="667" 
d="M713 669l-13 -25l-33 -4q-45 -5 -60 -33q-10 -19 -23 -61l-117 -449q-10 -40 -2.5 -53t43.5 -19l-13 -25h-554l45 194l27 5q3 -42 10.5 -64t24.5 -42q49 -61 181 -61q61 0 79 34t19 63l56 209q-86 -1 -125 -19.5t-67 -70.5q-11 -19 -20 -44l-31 -5l73 273l30 4
q-3 -70 22.5 -88.5t125.5 -17.5l59 223q6 26 -1.5 35t-38.5 9q-112 0 -176 -42q-27 -18 -46.5 -41.5t-43.5 -69.5l-30 -5l59 190h540z" />
    <glyph glyph-name="florin" unicode="&#x192;" 
d="M537 620q0 -28 -16.5 -44.5t-43.5 -16.5q-24 0 -38.5 13.5t-14.5 36.5q0 21 20 40q9 9 9 13q0 15 -25 15q-32 0 -54 -37q-22 -39 -49 -200h118l-9 -44h-116l-27 -154q-35 -202 -101 -300t-167 -98q-49 0 -79.5 24t-30.5 63q0 26 16 43t41 17q22 0 37.5 -14.5t15.5 -35.5
q0 -17 -18 -38q-10 -10 -10 -17q0 -13 25 -13q24 0 38 15q34 34 55 144l70 364h-105l8 44h107q28 126 89.5 196.5t144.5 70.5q47 0 78.5 -25t31.5 -62z" />
    <glyph glyph-name="Ohorn" unicode="&#x1a0;" horiz-adv-x="722" 
d="M688 454q1 -110 -55 -219t-148 -177q-102 -76 -222 -76q-106 0 -171 66t-66 173q-1 104 56.5 213t148.5 175q102 76 214 76q74 0 133 -36q10 8 10 22q0 9 -10.5 23t-10.5 30q0 21 16.5 36t34.5 15q25 0 41 -18.5t16 -40.5q0 -56 -67 -88q80 -66 80 -174zM544 531
q0 54 -28.5 87t-74.5 33q-93 0 -167 -131q-40 -72 -72 -189t-32 -194q1 -56 28.5 -88.5t74.5 -32.5q79 0 144 97q50 74 89 201t38 217z" />
    <glyph glyph-name="ohorn" unicode="&#x1a1;" 
d="M439 311q1 -127 -85 -225.5t-198 -98.5q-69 0 -114 42t-46 106q-1 126 87 226.5t198 100.5q55 0 98 -30q15 8 14 25q0 9 -10.5 23t-10.5 30q0 21 16.5 36t34.5 15q25 0 41 -18.5t16 -40.5q0 -62 -77 -92q36 -41 36 -99zM258 107q24 52 43 134.5t19 133.5q0 27 -12.5 42.5
t-34.5 15.5q-48 0 -87 -69q-26 -47 -48.5 -137.5t-21.5 -148.5q0 -28 13 -45t36 -17q52 0 93 91z" />
    <glyph glyph-name="Uhorn" unicode="&#x1af;" horiz-adv-x="722" 
d="M795 716q0 -35 -38 -66t-89 -43l-103 -363q-39 -136 -78 -182q-68 -80 -197 -80q-98 0 -160.5 46.5t-63.5 119.5q0 47 32 175l55 206q15 55 15 76q-1 16 -10 23.5t-33 11.5q-3 0 -31 4v25h311v-25q-47 -2 -64.5 -15.5t-28.5 -56.5l-81 -300q-27 -102 -27 -133
q1 -47 33.5 -74t89.5 -27q83 0 132 60q43 53 78 184l57 209q19 71 19 97q-1 26 -19.5 39t-61.5 17v25h153l-10 -33q33 16 33 35q0 9 -10.5 23t-10.5 30q0 21 16.5 36t34.5 15q25 0 41 -18.5t16 -40.5z" />
    <glyph glyph-name="uhorn" unicode="&#x1b0;" horiz-adv-x="579" 
d="M598 502q0 -40 -37 -69t-93 -37l-59 -215q-24 -87 -24 -101q0 -21 14 -21q24 0 71 74l21 -13q-74 -129 -160 -129q-65 0 -65 60q0 40 23 110q-77 -108 -113 -139t-86 -31q-75 0 -75 74q-2 39 20 108l39 133q14 45 14 73q0 15 -10.5 20.5t-45.5 7.5v27q58 2 208 28
l-92 -308q-15 -50 -14 -66q0 -25 21 -25q29 0 72 55t71.5 121.5t68.5 209.5h116l-6 -24q15 5 25 13.5t9 18.5q0 9 -10.5 23t-10.5 30q0 21 16.5 36t34.5 15q25 0 41 -18.5t16 -40.5z" />
    <glyph glyph-name="Acaron" unicode="&#x1cd;" horiz-adv-x="667" 
d="M593 0h-304v25q48 5 63.5 16.5t15.5 42.5q0 20 -8 72q-4 16 -7 52h-215l-59 -102q-15 -26 -15 -46q0 -35 65 -35v-25h-196v25q27 6 43 19.5t40 50.5l372 588h25l96 -572q10 -57 22 -69.5t62 -16.5v-25zM346 248l-37 243l-148 -243h185zM626 861l-172 -141h-87l-94 141h55
l95 -77l142 77h61z" />
    <glyph glyph-name="acaron" unicode="&#x1ce;" 
d="M455 112q-84 -126 -151 -126q-28 0 -47.5 19t-19.5 47q0 19 14 67q-43 -72 -80.5 -102t-83.5 -30q-49 0 -78.5 35t-29.5 92q0 76 42 158t106.5 136t124.5 54q32 0 49.5 -17t24.5 -55l18 59l111 7l-71 -236q-34 -112 -34 -148q0 -15 12 -15t26.5 14t45.5 56zM303 373
q0 20 -10 32.5t-27 14.5q-42 3 -90 -82q-31 -56 -52.5 -121.5t-21.5 -104.5q0 -23 13 -38.5t32 -15.5q43 0 84 75q29 52 50.5 123.5t21.5 116.5zM466 677l-162 -174h-82l-88 174h50l91 -97l135 97h56z" />
    <glyph glyph-name="Icaron" unicode="&#x1cf;" horiz-adv-x="389" 
d="M264 0h-296v25q37 4 52.5 18.5t27.5 53.5l123 449q10 38 10 61q0 15 -9 22t-32 10q-22 4 -32 5v25h298v-25q-38 -5 -54 -18.5t-28 -53.5l-114 -420q-18 -64 -18 -87q0 -21 15 -29.5t57 -10.5v-25zM506 861l-172 -141h-87l-94 141h55l95 -77l142 77h61z" />
    <glyph glyph-name="icaron" unicode="&#x1d0;" horiz-adv-x="278" 
d="M238 127q-52 -79 -87 -107.5t-80 -28.5q-31 0 -50 17.5t-19 45.5q0 22 13 69l58 215q7 30 7 40q0 29 -46 29h-13v27q116 9 202 28l-91 -334q-9 -38 -9 -52q0 -6 4.5 -10.5t10.5 -4.5q24 0 64 60l14 20zM378 677l-162 -174h-82l-88 174h50l91 -97l135 97h56z" />
    <glyph glyph-name="Ocaron" unicode="&#x1d1;" horiz-adv-x="722" 
d="M691 454q0 -112 -59 -223t-154 -178q-98 -71 -215 -71q-106 0 -171 66t-65 173q0 106 60 217t153 176q101 71 209 71q104 0 173 -65.5t69 -165.5zM547 532q0 53 -28 86t-73 33q-99 0 -175 -142q-39 -73 -69.5 -186t-30.5 -186q0 -56 27.5 -88.5t74.5 -32.5q81 0 149 102
q49 74 87 200t38 214zM680 861l-172 -141h-87l-94 141h55l95 -77l142 77h61z" />
    <glyph glyph-name="ocaron" unicode="&#x1d2;" 
d="M441 311q0 -127 -86.5 -225.5t-198.5 -98.5q-69 0 -114 42t-45 106q0 126 88 226.5t199 100.5q69 0 113 -42.5t44 -108.5zM260 110q25 54 43.5 134t18.5 131q0 27 -12.5 42.5t-34.5 15.5q-49 0 -90 -75q-26 -47 -47.5 -135t-21.5 -145q0 -29 13 -45.5t36 -16.5
q52 0 95 94zM496 677l-162 -174h-82l-88 174h50l91 -97l135 97h56z" />
    <glyph glyph-name="Ucaron" unicode="&#x1d3;" horiz-adv-x="722" 
d="M744 644q-41 -8 -56.5 -31t-45.5 -122l-66 -228q-42 -147 -89 -201q-68 -80 -197 -80q-98 0 -160.5 46.5t-62.5 119.5q0 54 34 175l55 206q15 58 15 76q0 16 -9 23.5t-33 11.5l-31 4v25h311v-25q-46 -2 -63.5 -15.5t-30.5 -56.5l-82 -300q-28 -101 -28 -133
q0 -47 32.5 -74t89.5 -27q82 0 133 60q43 53 79 184l58 209q19 70 19 96q0 27 -18.5 40t-61.5 17v25h208v-25zM722 861l-172 -141h-87l-94 141h55l95 -77l142 77h61z" />
    <glyph glyph-name="ucaron" unicode="&#x1d4;" horiz-adv-x="556" 
d="M492 120q-75 -129 -161 -129q-65 0 -65 60q0 37 24 110q-77 -108 -113.5 -139t-86.5 -31q-75 0 -75 74q0 33 21 108l40 133q14 45 14 73q0 15 -10.5 20.5t-45.5 7.5v27q66 3 181 23q10 2 28 5l-94 -308q-15 -48 -15 -66q0 -25 21 -25q28 0 73 55q43 54 71.5 120t70.5 211
h118l-78 -268q-25 -80 -25 -105q0 -17 14 -17q24 0 72 74zM522 677l-162 -174h-82l-88 174h50l91 -97l135 97h56z" />
    <glyph glyph-name="Udieresisacute" unicode="&#x1d7;" horiz-adv-x="722" 
d="M744 644q-41 -8 -56.5 -31t-45.5 -122l-66 -228q-42 -147 -89 -201q-68 -80 -197 -80q-98 0 -160.5 46.5t-62.5 119.5q0 54 34 175l55 206q15 58 15 76q0 16 -9 23.5t-33 11.5l-31 4v25h311v-25q-46 -2 -63.5 -15.5t-30.5 -56.5l-82 -300q-28 -101 -28 -133
q0 -47 32.5 -74t89.5 -27q82 0 133 60q43 53 79 184l58 209q19 70 19 96q0 27 -18.5 40t-61.5 17v25h208v-25zM485 789q0 -26 -19.5 -45t-46.5 -19q-25 0 -44.5 19.5t-19.5 44.5q0 27 19 46.5t45 19.5q27 0 46.5 -19.5t19.5 -46.5zM695 789q0 -26 -19.5 -45t-46.5 -19
q-25 0 -44.5 19.5t-19.5 44.5q0 27 19 46.5t45 19.5q27 0 46.5 -19.5t19.5 -46.5zM709 1011q0 -11 -8.5 -19t-33.5 -18l-164 -71h-53l132 106q49 40 76 40q20 0 35.5 -11.5t15.5 -26.5z" />
    <glyph glyph-name="udieresisacute" unicode="&#x1d8;" horiz-adv-x="556" 
d="M492 120q-75 -129 -161 -129q-65 0 -65 60q0 37 24 110q-77 -108 -113.5 -139t-86.5 -31q-75 0 -75 74q0 33 21 108l40 133q14 45 14 73q0 15 -10.5 20.5t-45.5 7.5v27q66 3 181 23q10 2 28 5l-94 -308q-15 -48 -15 -66q0 -25 21 -25q28 0 73 55q43 54 71.5 120t70.5 211
h118l-78 -268q-25 -80 -25 -105q0 -17 14 -17q24 0 72 74zM302 589q0 -26 -19.5 -45t-46.5 -19q-26 0 -45 19.5t-19 44.5q0 27 19 46.5t45 19.5q27 0 46.5 -19.5t19.5 -46.5zM512 589q0 -26 -19.5 -45t-46.5 -19q-26 0 -45 19.5t-19 44.5q0 27 19 46.5t45 19.5
q27 0 46.5 -19.5t19.5 -46.5zM526 811q0 -11 -8.5 -19t-33.5 -18l-164 -71h-53l132 106q49 40 76 40q20 0 35.5 -11.5t15.5 -26.5z" />
    <glyph glyph-name="Udieresiscaron" unicode="&#x1d9;" horiz-adv-x="722" 
d="M744 644q-41 -8 -56.5 -31t-45.5 -122l-66 -228q-42 -147 -89 -201q-68 -80 -197 -80q-98 0 -160.5 46.5t-62.5 119.5q0 54 34 175l55 206q15 58 15 76q0 16 -9 23.5t-33 11.5l-31 4v25h311v-25q-46 -2 -63.5 -15.5t-30.5 -56.5l-82 -300q-28 -101 -28 -133
q0 -47 32.5 -74t89.5 -27q82 0 133 60q43 53 79 184l58 209q19 70 19 96q0 27 -18.5 40t-61.5 17v25h208v-25zM485 789q0 -26 -19.5 -45t-46.5 -19q-25 0 -44.5 19.5t-19.5 44.5q0 27 19 46.5t45 19.5q27 0 46.5 -19.5t19.5 -46.5zM695 789q0 -26 -19.5 -45t-46.5 -19
q-25 0 -44.5 19.5t-19.5 44.5q0 27 19 46.5t45 19.5q27 0 46.5 -19.5t19.5 -46.5zM772 1047l-172 -141h-87l-94 141h55l95 -77l142 77h61z" />
    <glyph glyph-name="udieresiscaron" unicode="&#x1da;" horiz-adv-x="556" 
d="M492 120q-75 -129 -161 -129q-65 0 -65 60q0 37 24 110q-77 -108 -113.5 -139t-86.5 -31q-75 0 -75 74q0 33 21 108l40 133q14 45 14 73q0 15 -10.5 20.5t-45.5 7.5v27q66 3 181 23q10 2 28 5l-94 -308q-15 -48 -15 -66q0 -25 21 -25q28 0 73 55q43 54 71.5 120t70.5 211
h118l-78 -268q-25 -80 -25 -105q0 -17 14 -17q24 0 72 74zM302 589q0 -26 -19.5 -45t-46.5 -19q-26 0 -45 19.5t-19 44.5q0 27 19 46.5t45 19.5q27 0 46.5 -19.5t19.5 -46.5zM512 589q0 -26 -19.5 -45t-46.5 -19q-26 0 -45 19.5t-19 44.5q0 27 19 46.5t45 19.5
q27 0 46.5 -19.5t19.5 -46.5zM589 847l-172 -141h-87l-94 141h55l95 -77l142 77h61z" />
    <glyph glyph-name="Udieresisgrave" unicode="&#x1db;" horiz-adv-x="722" 
d="M744 644q-41 -8 -56.5 -31t-45.5 -122l-66 -228q-42 -147 -89 -201q-68 -80 -197 -80q-98 0 -160.5 46.5t-62.5 119.5q0 54 34 175l55 206q15 58 15 76q0 16 -9 23.5t-33 11.5l-31 4v25h311v-25q-46 -2 -63.5 -15.5t-30.5 -56.5l-82 -300q-28 -101 -28 -133
q0 -47 32.5 -74t89.5 -27q82 0 133 60q43 53 79 184l58 209q19 70 19 96q0 27 -18.5 40t-61.5 17v25h208v-25zM485 789q0 -26 -19.5 -45t-46.5 -19q-25 0 -44.5 19.5t-19.5 44.5q0 27 19 46.5t45 19.5q27 0 46.5 -19.5t19.5 -46.5zM695 789q0 -26 -19.5 -45t-46.5 -19
q-25 0 -44.5 19.5t-19.5 44.5q0 27 19 46.5t45 19.5q27 0 46.5 -19.5t19.5 -46.5zM661 903h-53l-126 71q-19 11 -23.5 18.5t1.5 18.5q8 15 30 26.5t42 11.5q27 0 54 -40z" />
    <glyph glyph-name="udieresisgrave" unicode="&#x1dc;" horiz-adv-x="556" 
d="M492 120q-75 -129 -161 -129q-65 0 -65 60q0 37 24 110q-77 -108 -113.5 -139t-86.5 -31q-75 0 -75 74q0 33 21 108l40 133q14 45 14 73q0 15 -10.5 20.5t-45.5 7.5v27q66 3 181 23q10 2 28 5l-94 -308q-15 -48 -15 -66q0 -25 21 -25q28 0 73 55q43 54 71.5 120t70.5 211
h118l-78 -268q-25 -80 -25 -105q0 -17 14 -17q24 0 72 74zM302 589q0 -26 -19.5 -45t-46.5 -19q-26 0 -45 19.5t-19 44.5q0 27 19 46.5t45 19.5q27 0 46.5 -19.5t19.5 -46.5zM512 589q0 -26 -19.5 -45t-46.5 -19q-26 0 -45 19.5t-19 44.5q0 27 19 46.5t45 19.5
q27 0 46.5 -19.5t19.5 -46.5zM478 703h-53l-126 71q-19 11 -23.5 18.5t1.5 18.5q8 15 30 26.5t42 11.5q27 0 54 -40z" />
    <glyph glyph-name="eturned" unicode="&#x1dd;" horiz-adv-x="444" 
d="M386 315q0 -124 -89.5 -226t-198.5 -102q-46 0 -75.5 24.5t-29.5 62.5q0 56 54 105q38 35 82 54t121 34q6 30 6 49q0 82 -64 82q-32 0 -58 -19.5t-60 -71.5l-29 17q45 74 88.5 106t101.5 32q65 0 108 -41.5t43 -105.5zM243 235q-74 -23 -109 -61q-49 -51 -49 -120
q0 -34 28 -34q74 0 130 215z" />
    <glyph glyph-name="Gcaron" unicode="&#x1e6;" horiz-adv-x="722" 
d="M706 304q-40 -3 -52.5 -16t-26.5 -66l-48 -181l-28 -13q-42 -20 -108.5 -33t-125.5 -13q-132 0 -214 74.5t-82 194.5q0 115 60 219t159 162q92 53 208 53q64 0 124 -21q24 -9 36 -9q27 0 42 30h31l-51 -221l-29 4q-1 51 -7.5 78t-23.5 52q-35 51 -108 51q-70 0 -129 -51
q-68 -59 -112 -169.5t-44 -220.5q0 -91 42 -139.5t122 -48.5q29 0 56.5 8.5t37.5 21.5q4 6 29 91q29 95 29 127q0 16 -12 24q-14 8 -62 12v26h287v-26zM673 861l-172 -141h-87l-94 141h55l95 -77l142 77h61z" />
    <glyph glyph-name="gcaron" unicode="&#x1e7;" 
d="M375 -53q0 -66 -66.5 -108t-172.5 -42q-86 0 -137 28.5t-51 77.5q0 38 27 62q30 24 106 42q-62 21 -62 66q0 28 17 45t79 52q-80 34 -80 110t65 129t157 53q63 0 110 -33h111v-56h-67q6 -24 6 -42q0 -93 -89 -144q-59 -34 -127 -34q-16 0 -31 4q-11 4 -20 4
q-10 0 -19 -12t-9 -24q0 -24 51 -38l53 -15q82 -23 115.5 -51t33.5 -74zM266 -100q0 36 -41 57q-17 8 -59 22t-51 15q-6 1 -23.5 -9.5t-27.5 -20.5q-29 -28 -29 -55q0 -34 31 -56t80 -22q57 0 88.5 18t31.5 51zM271 253q29 63 29 119q0 26 -12.5 42.5t-32.5 16.5
q-38 0 -66 -49q-38 -69 -38 -139q0 -59 42 -59q47 0 78 69zM471 677l-162 -174h-82l-88 174h50l91 -97l135 97h56z" />
    <glyph glyph-name="Oogonek" unicode="&#x1ea;" horiz-adv-x="722" 
d="M691 454q0 -112 -59 -223t-154 -178q-21 -15 -50 -31q-82 -42 -102 -68q-30 -36 -37 -78q-1 -27 9.5 -42t28.5 -15q32 0 62 33l12 -12q-22 -40 -55.5 -65t-70.5 -25q-31 0 -53.5 24.5t-21.5 65.5q2 76 87 143q-8 -1 -24 -1q-106 0 -171 66t-65 173q0 106 60 217t153 176
q101 71 209 71q104 0 173 -65.5t69 -165.5zM547 532q0 53 -28 86t-73 33q-99 0 -175 -142q-39 -73 -69.5 -186t-30.5 -186q0 -56 27.5 -88.5t74.5 -32.5q81 0 149 102q49 74 87 200t38 214z" />
    <glyph glyph-name="oogonek" unicode="&#x1eb;" 
d="M441 311q0 -87 -44 -165t-114 -121q-53 -32 -82 -71q-30 -39 -37 -78q-1 -27 9.5 -42t28.5 -15q32 0 62 33l12 -12q-22 -40 -55.5 -65t-70.5 -25q-31 0 -53.5 24.5t-21.5 65.5q2 78 93 147h-12q-69 0 -114 42t-45 106q0 126 88 226.5t199 100.5q69 0 113 -42.5t44 -108.5
zM260 110q25 54 43.5 134t18.5 131q0 27 -12.5 42.5t-34.5 15.5q-49 0 -90 -75q-26 -47 -47.5 -135t-21.5 -145q0 -29 13 -45.5t36 -16.5q52 0 95 94z" />
    <glyph glyph-name="jcaron" unicode="&#x1f0;" horiz-adv-x="278" 
d="M125 24q-60 -231 -209 -231q-47 0 -76 21t-29 56q0 22 14.5 37.5t34.5 15.5t34.5 -14.5t14.5 -34.5q0 -14 -10 -28q-5 -8 -5 -10q0 -4 7.5 -8t16.5 -4q21 0 36.5 28t34.5 103l92 355q12 45 12 67q0 30 -42 30h-20v27q134 12 208 28zM396 677l-162 -174h-82l-88 174h50
l91 -97l135 97h56z" />
    <glyph glyph-name="Gacute" unicode="&#x1f4;" horiz-adv-x="722" 
d="M706 304q-40 -3 -52.5 -16t-26.5 -66l-48 -181l-28 -13q-42 -20 -108.5 -33t-125.5 -13q-132 0 -214 74.5t-82 194.5q0 115 60 219t159 162q92 53 208 53q64 0 124 -21q24 -9 36 -9q27 0 42 30h31l-51 -221l-29 4q-1 51 -7.5 78t-23.5 52q-35 51 -108 51q-70 0 -129 -51
q-68 -59 -112 -169.5t-44 -220.5q0 -91 42 -139.5t122 -48.5q29 0 56.5 8.5t37.5 21.5q4 6 29 91q29 95 29 127q0 16 -12 24q-14 8 -62 12v26h287v-26zM610 825q0 -11 -8.5 -19t-33.5 -18l-164 -71h-53l132 106q49 40 76 40q20 0 35.5 -11.5t15.5 -26.5z" />
    <glyph glyph-name="gacute" unicode="&#x1f5;" 
d="M375 -53q0 -66 -66.5 -108t-172.5 -42q-86 0 -137 28.5t-51 77.5q0 38 27 62q30 24 106 42q-62 21 -62 66q0 28 17 45t79 52q-80 34 -80 110t65 129t157 53q63 0 110 -33h111v-56h-67q6 -24 6 -42q0 -93 -89 -144q-59 -34 -127 -34q-16 0 -31 4q-11 4 -20 4
q-10 0 -19 -12t-9 -24q0 -24 51 -38l53 -15q82 -23 115.5 -51t33.5 -74zM266 -100q0 36 -41 57q-17 8 -59 22t-51 15q-6 1 -23.5 -9.5t-27.5 -20.5q-29 -28 -29 -55q0 -34 31 -56t80 -22q57 0 88.5 18t31.5 51zM271 253q29 63 29 119q0 26 -12.5 42.5t-32.5 16.5
q-38 0 -66 -49q-38 -69 -38 -139q0 -59 42 -59q47 0 78 69zM411 633q0 -14 -8.5 -24t-30.5 -23l-152 -87h-49l122 131q47 50 70 50q20 0 34 -14t14 -33z" />
    <glyph glyph-name="Aringacute" unicode="&#x1fa;" horiz-adv-x="667" 
d="M593 0h-304v25q48 5 63.5 16.5t15.5 42.5q0 20 -8 72q-4 16 -7 52h-215l-59 -102q-15 -26 -15 -46q0 -35 65 -35v-25h-196v25q27 6 43 19.5t40 50.5l372 588h25l96 -572q10 -57 22 -69.5t62 -16.5v-25zM346 248l-37 243l-148 -243h185zM621 1044q0 -11 -8.5 -18.5
t-32.5 -18.5l-164 -71h-53l131 106q49 40 76 40q20 0 35.5 -11.5t15.5 -26.5zM541 810q0 -44 -31.5 -75.5t-75.5 -31.5t-75 31.5t-31 76.5q0 43 31.5 74t75.5 31q43 0 74.5 -31t31.5 -75zM493 808q0 25 -17.5 42.5t-42.5 17.5q-23 0 -40 -17.5t-17 -41.5t17 -41t40 -17
q25 0 42.5 17t17.5 40z" />
    <glyph glyph-name="aringacute" unicode="&#x1fb;" 
d="M455 112q-84 -126 -151 -126q-28 0 -47.5 19t-19.5 47q0 19 14 67q-43 -72 -80.5 -102t-83.5 -30q-49 0 -78.5 35t-29.5 92q0 76 42 158t106.5 136t124.5 54q32 0 49.5 -17t24.5 -55l18 59l111 7l-71 -236q-34 -112 -34 -148q0 -15 12 -15t26.5 14t45.5 56zM303 373
q0 20 -10 32.5t-27 14.5q-42 3 -90 -82q-31 -56 -52.5 -121.5t-21.5 -104.5q0 -23 13 -38.5t32 -15.5q43 0 84 75q29 52 50.5 123.5t21.5 116.5zM473 824q0 -11 -8.5 -18.5t-32.5 -18.5l-164 -71h-53l131 106q49 40 76 40q20 0 35.5 -11.5t15.5 -26.5zM393 590
q0 -44 -31.5 -75.5t-75.5 -31.5t-75 31.5t-31 76.5q0 43 31.5 74t75.5 31q43 0 74.5 -31t31.5 -75zM345 588q0 25 -17.5 42.5t-42.5 17.5q-23 0 -40 -17.5t-17 -41.5t17 -41t40 -17q25 0 42.5 17t17.5 40z" />
    <glyph glyph-name="AEacute" unicode="&#x1fc;" horiz-adv-x="944" 
d="M850 196l-59 -196h-527v25q39 6 52.5 18.5t25.5 52.5l46 159h-192l-114 -157q-15 -20 -15 -39q0 -16 14 -23.5t50 -10.5v-25h-195v25q19 2 30 9q7 3 58 68l366 472q20 27 20 44q0 14 -16 19.5t-65 8.5v23h589l-45 -190l-24 5l-2 40q-6 113 -162 113q-32 0 -43 -6t-16 -26
l-65 -235h10h9q76 0 110.5 20.5t64.5 85.5l26 -4l-73 -273l-25 5q0 4 0.5 8t1 6.5t0.5 5.5q1 14 1 26q0 50 -25 66.5t-108 21.5l-63 -241q-5 -20 -5 -28q0 -20 13.5 -28.5t44.5 -8.5q112 0 179 48q28 19 49.5 44.5t52.5 74.5zM490 627h-12l-253 -333h173zM817 825
q0 -11 -8.5 -19t-33.5 -18l-164 -71h-53l132 106q49 40 76 40q20 0 35.5 -11.5t15.5 -26.5z" />
    <glyph glyph-name="aeacute" unicode="&#x1fd;" horiz-adv-x="722" 
d="M619 122q-66 -135 -194 -135q-75 0 -110 44q-23 28 -33 87q-42 -70 -82.5 -100t-90.5 -30q-49 0 -81.5 33.5t-32.5 84.5q0 79 42 163t107 138.5t126 54.5q33 0 51 -14.5t31 -51.5l18 58l103 5l-20 -65q32 37 57.5 51t62.5 14q47 0 73.5 -23t26.5 -64q0 -62 -59.5 -109.5
t-168.5 -72.5l-39 -9q-5 -25 -5 -46q0 -40 17.5 -62.5t48.5 -22.5q73 0 124 89zM333 363q0 25 -13.5 40.5t-34.5 15.5q-48 0 -97 -87q-62 -109 -67 -208q-1 -30 12 -48t36 -18q51 0 93 79q29 51 50 118t21 108zM583 388q0 41 -33 41q-73 0 -132 -198l-5 -17q39 5 85 34
q85 56 85 140zM639 633q0 -14 -8.5 -24t-30.5 -23l-152 -87h-49l122 131q47 50 70 50q20 0 34 -14t14 -33z" />
    <glyph glyph-name="Oslashacute" unicode="&#x1fe;" horiz-adv-x="722" 
d="M691 453q0 -112 -59 -222t-154 -178q-100 -71 -212 -71q-43 0 -83 13l-70 -120h-48l79 136q-39 23 -61 47q-56 65 -56 154t36 176t94 152t135.5 105t156.5 40q40 0 82 -13l53 92h49l-63 -108q54 -31 78 -66q43 -61 43 -137zM506 630q-27 21 -63 21q-92 0 -165 -130
q-43 -77 -75 -190t-32 -190q0 -33 11 -64zM547 527q0 30 -14 66l-325 -555q28 -22 65 -22q81 0 149 103q48 71 86.5 197t38.5 211zM584 825q0 -11 -8.5 -19t-33.5 -18l-164 -71h-53l132 106q49 40 76 40q20 0 35.5 -11.5t15.5 -26.5z" />
    <glyph glyph-name="oslashacute" unicode="&#x1ff;" 
d="M441 311q0 -127 -86.5 -225.5t-197.5 -98.5q-24 0 -51 8l-64 -114h-40l72 126q-77 44 -77 127q0 128 88.5 228t200.5 100q20 0 42 -6l59 104h37l-65 -116q82 -40 82 -133zM307 419q-14 14 -32 14q-48 0 -86 -68q-27 -49 -50 -136.5t-23 -142.5v-8zM266 125q22 52 39 127
t17 120q0 3 -1 5l-193 -343q14 -18 37 -18q57 0 101 109zM406 633q0 -14 -8.5 -24t-30.5 -23l-152 -87h-49l122 131q47 50 70 50q20 0 34 -14t14 -33z" />
    <glyph glyph-name="Adblgrave" unicode="&#x200;" horiz-adv-x="667" 
d="M593 0h-304v25q48 5 63.5 16.5t15.5 42.5q0 20 -8 72q-4 16 -7 52h-215l-59 -102q-15 -26 -15 -46q0 -35 65 -35v-25h-196v25q27 6 43 19.5t40 50.5l372 588h25l96 -572q10 -57 22 -69.5t62 -16.5v-25zM346 248l-37 243l-148 -243h185zM355 717h-53l-126 71
q-19 11 -23.5 18.5t1.5 18.5q8 15 30 26.5t42 11.5q27 0 54 -40zM531 717h-53l-126 71q-19 11 -23.5 18.5t1.5 18.5q8 15 30 26.5t42 11.5q27 0 54 -40z" />
    <glyph glyph-name="adblgrave" unicode="&#x201;" 
d="M455 112q-84 -126 -151 -126q-28 0 -47.5 19t-19.5 47q0 19 14 67q-43 -72 -80.5 -102t-83.5 -30q-49 0 -78.5 35t-29.5 92q0 76 42 158t106.5 136t124.5 54q32 0 49.5 -17t24.5 -55l18 59l111 7l-71 -236q-34 -112 -34 -148q0 -15 12 -15t26.5 14t45.5 56zM303 373
q0 20 -10 32.5t-27 14.5q-42 3 -90 -82q-31 -56 -52.5 -121.5t-21.5 -104.5q0 -23 13 -38.5t32 -15.5q43 0 84 75q29 52 50.5 123.5t21.5 116.5zM384 485h-49l-56 116q-10 22 -11.5 31t4.5 27q20 37 63 37q11 0 18.5 -2.5t14.5 -14t8 -32.5zM215 485h-49l-70 122q-4 6 -9 13
t-6.5 10t-1.5 7.5t4 11.5q10 19 31.5 33t41.5 14q37 0 43 -51z" />
    <glyph glyph-name="Edblgrave" unicode="&#x204;" horiz-adv-x="667" 
d="M586 194l-59 -194h-554v25q39 6 53.5 19t26.5 53l123 449q10 38 10 61q0 28 -42 33l-31 4v25h540l-43 -190l-27 5q0 46 -6.5 69.5t-23.5 41.5q-42 42 -154 42q-31 0 -43 -9t-20 -35l-61 -223q99 -1 134.5 17.5t70.5 88.5l28 -4l-74 -273l-28 5q4 25 4 44q0 52 -29.5 70.5
t-114.5 19.5l-56 -209q-15 -31 -15 -63q0 -34 61 -34q131 0 214 61q28 20 47 42t44 64zM387 717h-53l-126 71q-19 11 -23.5 18.5t1.5 18.5q8 15 30 26.5t42 11.5q27 0 54 -40zM563 717h-53l-126 71q-19 11 -23.5 18.5t1.5 18.5q8 15 30 26.5t42 11.5q27 0 54 -40z" />
    <glyph glyph-name="edblgrave" unicode="&#x205;" horiz-adv-x="444" 
d="M346 125q-45 -74 -88.5 -106t-101.5 -32q-65 0 -108 41.5t-43 105.5q0 124 89.5 226t198.5 102q46 0 75.5 -24.5t29.5 -62.5q0 -56 -54 -105q-38 -35 -82 -54t-121 -34q-6 -30 -6 -49q0 -82 64 -82q32 0 58 19.5t60 71.5zM306 395q0 34 -28 34q-74 0 -130 -215
q74 23 109 61q49 51 49 120zM401 485h-49l-56 116q-10 22 -11.5 31t4.5 27q20 37 63 37q11 0 18.5 -2.5t14.5 -14t8 -32.5zM232 485h-49l-70 122q-4 6 -9 13t-6.5 10t-1.5 7.5t4 11.5q10 19 31.5 33t41.5 14q37 0 43 -51z" />
    <glyph glyph-name="Idblgrave" unicode="&#x208;" horiz-adv-x="389" 
d="M264 0h-296v25q37 4 52.5 18.5t27.5 53.5l123 449q10 38 10 61q0 15 -9 22t-32 10q-22 4 -32 5v25h298v-25q-38 -5 -54 -18.5t-28 -53.5l-114 -420q-18 -64 -18 -87q0 -21 15 -29.5t57 -10.5v-25zM235 717h-53l-126 71q-19 11 -23.5 18.5t1.5 18.5q8 15 30 26.5t42 11.5
q27 0 54 -40zM411 717h-53l-126 71q-19 11 -23.5 18.5t1.5 18.5q8 15 30 26.5t42 11.5q27 0 54 -40z" />
    <glyph glyph-name="idblgrave" unicode="&#x209;" horiz-adv-x="278" 
d="M238 127q-52 -79 -87 -107.5t-80 -28.5q-31 0 -50 17.5t-19 45.5q0 22 13 69l58 215q7 30 7 40q0 29 -46 29h-13v27q116 9 202 28l-91 -334q-9 -38 -9 -52q0 -6 4.5 -10.5t10.5 -4.5q24 0 64 60l14 20zM296 485h-49l-56 116q-10 22 -11.5 31t4.5 27q20 37 63 37
q11 0 18.5 -2.5t14.5 -14t8 -32.5zM127 485h-49l-70 122q-4 6 -9 13t-6.5 10t-1.5 7.5t4 11.5q10 19 31.5 33t41.5 14q37 0 43 -51z" />
    <glyph glyph-name="Odblgrave" unicode="&#x20c;" horiz-adv-x="722" 
d="M691 454q0 -112 -59 -223t-154 -178q-98 -71 -215 -71q-106 0 -171 66t-65 173q0 106 60 217t153 176q101 71 209 71q104 0 173 -65.5t69 -165.5zM547 532q0 53 -28 86t-73 33q-99 0 -175 -142q-39 -73 -69.5 -186t-30.5 -186q0 -56 27.5 -88.5t74.5 -32.5q81 0 149 102
q49 74 87 200t38 214zM409 717h-53l-126 71q-19 11 -23.5 18.5t1.5 18.5q8 15 30 26.5t42 11.5q27 0 54 -40zM585 717h-53l-126 71q-19 11 -23.5 18.5t1.5 18.5q8 15 30 26.5t42 11.5q27 0 54 -40z" />
    <glyph glyph-name="odblgrave" unicode="&#x20d;" 
d="M441 311q0 -127 -86.5 -225.5t-198.5 -98.5q-69 0 -114 42t-45 106q0 126 88 226.5t199 100.5q69 0 113 -42.5t44 -108.5zM260 110q25 54 43.5 134t18.5 131q0 27 -12.5 42.5t-34.5 15.5q-49 0 -90 -75q-26 -47 -47.5 -135t-21.5 -145q0 -29 13 -45.5t36 -16.5
q52 0 95 94zM414 485h-49l-56 116q-10 22 -11.5 31t4.5 27q20 37 63 37q11 0 18.5 -2.5t14.5 -14t8 -32.5zM245 485h-49l-70 122q-4 6 -9 13t-6.5 10t-1.5 7.5t4 11.5q10 19 31.5 33t41.5 14q37 0 43 -51z" />
    <glyph glyph-name="Rdblgrave" unicode="&#x210;" horiz-adv-x="667" 
d="M602 0h-202l-107 331h-29l-55 -193q-14 -50 -14 -71q0 -22 14 -30.5t58 -11.5v-25h-296v25q37 4 52.5 18.5t27.5 53.5l123 449q10 38 10 61q0 15 -9 22t-32 10q-22 4 -32 5v25h276q236 0 236 -143q0 -88 -83 -143q-38 -26 -109 -40l83 -246q16 -44 31 -56t57 -16v-25z
M472 542q0 46 -23.5 70.5t-66.5 24.5q-23 0 -32.5 -8.5t-16.5 -35.5l-60 -230q91 1 127 25q33 20 52.5 62t19.5 92zM349 717h-53l-126 71q-19 11 -23.5 18.5t1.5 18.5q8 15 30 26.5t42 11.5q27 0 54 -40zM525 717h-53l-126 71q-19 11 -23.5 18.5t1.5 18.5q8 15 30 26.5
t42 11.5q27 0 54 -40z" />
    <glyph glyph-name="rdblgrave" unicode="&#x211;" horiz-adv-x="389" 
d="M389 396q0 -31 -16.5 -52t-41.5 -21q-23 0 -45 25q-9 13 -16 13q-22 0 -65 -76q-34 -58 -72 -181l-33 -104h-121q102 345 102 382q0 14 -10 18.5t-44 6.5v27q131 11 200 28l-66 -209q59 119 96 164t75 45q26 0 41.5 -18t15.5 -48zM349 485h-49l-56 116q-10 22 -11.5 31
t4.5 27q20 37 63 37q11 0 18.5 -2.5t14.5 -14t8 -32.5zM180 485h-49l-70 122q-4 6 -9 13t-6.5 10t-1.5 7.5t4 11.5q10 19 31.5 33t41.5 14q37 0 43 -51z" />
    <glyph glyph-name="Udblgrave" unicode="&#x214;" horiz-adv-x="722" 
d="M744 644q-41 -8 -56.5 -31t-45.5 -122l-66 -228q-42 -147 -89 -201q-68 -80 -197 -80q-98 0 -160.5 46.5t-62.5 119.5q0 54 34 175l55 206q15 58 15 76q0 16 -9 23.5t-33 11.5l-31 4v25h311v-25q-46 -2 -63.5 -15.5t-30.5 -56.5l-82 -300q-28 -101 -28 -133
q0 -47 32.5 -74t89.5 -27q82 0 133 60q43 53 79 184l58 209q19 70 19 96q0 27 -18.5 40t-61.5 17v25h208v-25zM451 717h-53l-126 71q-19 11 -23.5 18.5t1.5 18.5q8 15 30 26.5t42 11.5q27 0 54 -40zM627 717h-53l-126 71q-19 11 -23.5 18.5t1.5 18.5q8 15 30 26.5t42 11.5
q27 0 54 -40z" />
    <glyph glyph-name="udblgrave" unicode="&#x215;" horiz-adv-x="556" 
d="M492 120q-75 -129 -161 -129q-65 0 -65 60q0 37 24 110q-77 -108 -113.5 -139t-86.5 -31q-75 0 -75 74q0 33 21 108l40 133q14 45 14 73q0 15 -10.5 20.5t-45.5 7.5v27q66 3 181 23q10 2 28 5l-94 -308q-15 -48 -15 -66q0 -25 21 -25q28 0 73 55q43 54 71.5 120t70.5 211
h118l-78 -268q-25 -80 -25 -105q0 -17 14 -17q24 0 72 74zM440 485h-49l-56 116q-10 22 -11.5 31t4.5 27q20 37 63 37q11 0 18.5 -2.5t14.5 -14t8 -32.5zM271 485h-49l-70 122q-4 6 -9 13t-6.5 10t-1.5 7.5t4 11.5q10 19 31.5 33t41.5 14q37 0 43 -51z" />
    <glyph glyph-name="uni0218" unicode="&#x218;" horiz-adv-x="556" 
d="M468 185q0 -93 -62 -148t-167 -55q-54 0 -123 24q-32 11 -46 11t-21.5 -6.5t-16.5 -28.5h-30l36 224l29 -2q5 -82 32 -123q41 -65 122 -65q73 0 107 58q19 33 19 68q0 67 -113 153q-85 66 -119 130q-13 28 -13 66q0 83 58 138.5t143 55.5q41 0 98 -19q36 -11 51 -11
q31 0 44 26h30l-40 -201l-27 4q-10 88 -41 127t-91 39q-48 0 -76 -28t-28 -77q0 -34 15 -56.5t62 -57.5q92 -70 130 -125.5t38 -120.5zM220 -128q0 -55 -46.5 -108.5t-124.5 -87.5l-12 21q105 57 105 105q0 17 -27 35q-36 25 -36 57q-1 28 17 47t46 19q34 0 55.5 -24
t22.5 -64z" />
    <glyph glyph-name="uni0219" unicode="&#x219;" horiz-adv-x="389" 
d="M279 119q0 -56 -42 -94t-106 -38q-27 0 -63 12q-21 8 -31 8q-22 0 -29 -20h-27l22 166l27 -3q19 -133 96 -133q24 0 40.5 15.5t16.5 38.5q0 38 -56 104q-50 59 -65 90t-15 71q0 58 36.5 92t97.5 34q25 0 58 -13q23 -9 36 -9q11 0 16 3.5t13 17.5h29l-23 -153l-27 2
q-12 62 -33 90.5t-55 28.5q-24 0 -38.5 -14.5t-14.5 -38.5q0 -33 56 -98q81 -94 81 -159zM147 -128q0 -55 -46.5 -108.5t-124.5 -87.5l-12 21q105 57 105 105q0 17 -27 35q-36 25 -36 57q-1 28 17 47t46 19q34 0 55.5 -24t22.5 -64z" />
    <glyph glyph-name="uni021A" unicode="&#x21a;" horiz-adv-x="611" 
d="M614 477l-27 2q-4 83 -35.5 118.5t-102.5 36.5l-140 -506q-11 -42 -11 -62q0 -24 15 -31.5t68 -9.5v-25h-331v25h14q38 0 59.5 16.5t31.5 55.5l148 537q-77 -2 -127.5 -35t-89.5 -108l-25 7l38 171h551zM273 -128q0 -55 -46.5 -108.5t-124.5 -87.5l-12 21q105 57 105 105
q0 17 -27 35q-36 25 -36 57q-1 28 17 47t46 19q34 0 55.5 -24t22.5 -64z" />
    <glyph glyph-name="uni021B" unicode="&#x21b;" horiz-adv-x="278" 
d="M225 127q-50 -77 -85.5 -106.5t-80.5 -29.5q-32 0 -51 18t-19 47q0 30 24 113l68 238h-51v35q59 22 100.5 57t82.5 95h35l-39 -145h72v-42h-83l-33 -119q-54 -186 -54 -212q0 -6 5 -10.5t11 -4.5q25 0 76 80zM155 -128q0 -55 -46.5 -108.5t-124.5 -87.5l-12 21
q105 57 105 105q0 17 -27 35q-36 25 -36 57q-1 28 17 47t46 19q34 0 55.5 -24t22.5 -64z" />
    <glyph glyph-name="uni0237" unicode="&#x237;" horiz-adv-x="278" 
d="M125 24q-60 -231 -209 -231q-47 0 -76 21t-29 56q0 22 14.5 37.5t34.5 15.5t34.5 -14.5t14.5 -34.5q0 -14 -10 -28q-5 -8 -5 -10q0 -4 7.5 -8t16.5 -4q21 0 36.5 28t34.5 103l92 355q12 45 12 67q0 30 -42 30h-20v27q134 12 208 28z" />
    <glyph glyph-name="ereversed" unicode="&#x258;" horiz-adv-x="444" 
d="M338 134q-35 -64 -100 -105.5t-130 -41.5q-58 0 -84.5 32t-31.5 106l38 17q7 -52 22 -71.5t47 -19.5q64 0 108 82q10 18 21 49q-70 15 -103.5 34t-52.5 54q-28 49 2 105q20 38 63 62.5t89 24.5q71 0 113 -48.5t41 -121.5t-42 -158zM238 214q59 215 -15 215q-28 0 -46 -34
q-38 -69 -16 -120q9 -22 25 -35t52 -26z" />
    <glyph glyph-name="schwa" unicode="&#x259;" horiz-adv-x="444" 
d="M386 315q0 -124 -89.5 -226t-198.5 -102q-46 0 -75.5 24.5t-29.5 62.5q0 56 54 105q38 35 82 54t121 34q6 30 6 49q0 82 -64 82q-32 0 -58 -19.5t-60 -71.5l-29 17q45 74 88.5 106t101.5 32q65 0 108 -41.5t43 -105.5zM243 235q-74 -23 -109 -61q-49 -51 -49 -120
q0 -34 28 -34q74 0 130 215z" />
    <glyph glyph-name="ringhalfright" unicode="&#x2be;" horiz-adv-x="348" 
d="M354 546q1 -83 -61.5 -153.5t-136.5 -70.5q-37 0 -59.5 19t-22.5 49q-1 24 13 39.5t36 15.5q21 0 33.5 -12.5t13.5 -30.5q-2 -16 -10 -30q-1 -2 -3 -5t-2 -4q1 -3 8 -3q25 0 50 43q40 73 40 142q0 23 -11 37t-29 14q-20 0 -36 -12.5t-39 -44.5q-3 -3 -7 -3q-3 0 -4 1
l-19 12q-4 4 -4 7q0 1 1 2.5t1 2.5q31 43 53 62q37 32 86 32t79.5 -30.5t29.5 -78.5z" />
    <glyph glyph-name="ringhalfleft" unicode="&#x2bf;" horiz-adv-x="348" 
d="M328 421q0 -1 -1 -2.5t-1 -2.5q-31 -43 -53 -62q-37 -32 -86 -32t-79.5 30.5t-29.5 78.5q-1 83 61.5 153.5t136.5 70.5q37 0 59.5 -19t22.5 -49q1 -24 -13 -39.5t-36 -15.5q-21 0 -33.5 12.5t-13.5 30.5q2 16 10 30q1 2 3 5t2 4q-1 3 -8 3q-25 0 -50 -43
q-40 -73 -40 -142q0 -23 11 -37t29 -14q20 0 36 12.5t39 44.5q3 3 7 3q3 0 4 -1l19 -12q4 -4 4 -7z" />
    <glyph glyph-name="circumflex" unicode="&#x2c6;" horiz-adv-x="333" 
d="M350 503h-51l-88 95l-131 -95h-57l160 174h81z" />
    <glyph glyph-name="caron" unicode="&#x2c7;" horiz-adv-x="333" 
d="M389 677l-162 -174h-82l-88 174h50l91 -97l135 97h56z" />
    <glyph glyph-name="breve" unicode="&#x2d8;" horiz-adv-x="333" 
d="M367 671q-14 -78 -60 -120t-119 -42q-137 0 -137 149v13h43q9 -90 102 -90q49 0 79 20t53 70h39z" />
    <glyph glyph-name="dotaccent" unicode="&#x2d9;" horiz-adv-x="333" 
d="M277 590q0 -28 -20 -47.5t-49 -19.5q-28 0 -47 20t-19 49q0 26 20 46t46 20q28 0 48.5 -20t20.5 -48z" />
    <glyph glyph-name="ring" unicode="&#x2da;" horiz-adv-x="333" 
d="M316 591q0 -44 -31.5 -75.5t-75.5 -31.5t-75 31.5t-31 76.5q0 43 31.5 74t75.5 31t75 -31.5t31 -74.5zM268 589q0 25 -17.5 42.5t-42.5 17.5q-23 0 -40 -17.5t-17 -41.5t17 -41t40 -17q25 0 42.5 17t17.5 40z" />
    <glyph glyph-name="ogonek" unicode="&#x2db;" horiz-adv-x="333" 
d="M271 -160q-22 -40 -55.5 -65t-70.5 -25q-31 0 -53.5 24.5t-21.5 65.5q3 92 135 177h52q-29 -26 -44 -41.5t-32.5 -43.5t-21.5 -56q-1 -27 9.5 -42t28.5 -15q32 0 62 33z" />
    <glyph glyph-name="tilde" unicode="&#x2dc;" horiz-adv-x="333" 
d="M390 650q-16 -63 -44 -91t-73 -28q-25 0 -57 13l-59 23q-21 8 -38 8q-31 0 -48 -43h-40q10 54 41.5 86t74.5 32q38 0 97 -26q39 -16 54 -16q17 0 28.5 9t22.5 33h41z" />
    <glyph glyph-name="hungarumlaut" unicode="&#x2dd;" horiz-adv-x="333" 
d="M261 659q0 -20 -38 -58l-118 -116h-49l95 162q29 49 67 49q43 0 43 -37zM445 649q0 -7 -2.5 -11.5t-5.5 -7.5t-12 -10t-16 -13l-135 -122h-49l102 160q32 51 70 51q20 0 34 -14t14 -33z" />
    <glyph glyph-name="uni0300" unicode="&#x300;" horiz-adv-x="0" 
d="M-20 499h-49l-105 87q-16 13 -19 23t5 24q10 19 31.5 33t41.5 14q13 0 22.5 -10.5t20.5 -39.5z" />
    <glyph glyph-name="uni0301" unicode="&#x301;" horiz-adv-x="0" 
d="M28 633q0 -14 -8.5 -24t-30.5 -23l-152 -87h-49l122 131q47 50 70 50q20 0 34 -14t14 -33z" />
    <glyph glyph-name="uni0302" unicode="&#x302;" horiz-adv-x="0" 
d="M49 503h-51l-88 95l-131 -95h-57l160 174h81z" />
    <glyph glyph-name="uni0303" unicode="&#x303;" horiz-adv-x="0" 
d="M89 650q-16 -63 -44 -91t-73 -28q-25 0 -57 13l-59 23q-21 8 -38 8q-31 0 -48 -43h-40q10 54 41.5 86t74.5 32q38 0 97 -26q39 -16 54 -16q17 0 28.5 9t22.5 33h41z" />
    <glyph glyph-name="uni0304" unicode="&#x304;" horiz-adv-x="0" 
d="M63 555h-326l17 70h325z" />
    <glyph glyph-name="uni0306" unicode="&#x306;" horiz-adv-x="0" 
d="M66 671q-14 -78 -60 -120t-119 -42q-137 0 -137 149v13h43q9 -90 102 -90q49 0 79 20t53 70h39z" />
    <glyph glyph-name="uni0307" unicode="&#x307;" horiz-adv-x="0" 
d="M-24 590q0 -28 -20 -47.5t-49 -19.5q-28 0 -47 20t-19 49q0 26 20 46t46 20q28 0 48.5 -20t20.5 -48z" />
    <glyph glyph-name="uni0308" unicode="&#x308;" horiz-adv-x="0" 
d="M-132 589q0 -26 -19.5 -45t-46.5 -19q-26 0 -45 19.5t-19 44.5q0 27 19 46.5t45 19.5q27 0 46.5 -19.5t19.5 -46.5zM78 589q0 -26 -19.5 -45t-46.5 -19q-26 0 -45 19.5t-19 44.5q0 27 19 46.5t45 19.5q27 0 46.5 -19.5t19.5 -46.5z" />
    <glyph glyph-name="uni0309" unicode="&#x309;" horiz-adv-x="0" 
d="M18 633q0 -18 -20 -40.5t-36 -32.5q-1 -1 -8 -6t-10.5 -8t-11 -8.5t-12.5 -11t-10.5 -12t-9.5 -13.5t-7 -14h-25q16 48 49.5 92t33.5 56q0 8 -10.5 14t-26.5 6q-10 0 -19 -1.5t-14 -3.5t-5 -4q0 -1 4.5 -11t4.5 -18q-6 -27 -31 -27q-15 0 -24 9.5t-9 24.5q-1 29 32 49
t77 20q87 0 88 -60z" />
    <glyph glyph-name="uni030A" unicode="&#x30a;" horiz-adv-x="0" 
d="M15 591q0 -44 -31.5 -75.5t-75.5 -31.5t-75 31.5t-31 76.5q0 43 31.5 74t75.5 31q43 0 74.5 -31.5t31.5 -74.5zM-33 589q0 25 -17.5 42.5t-42.5 17.5q-23 0 -40 -17.5t-17 -41.5t17 -41t40 -17q25 0 42.5 17t17.5 40z" />
    <glyph glyph-name="uni030B" unicode="&#x30b;" horiz-adv-x="0" 
d="M-40 659q0 -20 -38 -58l-118 -116h-49l95 162q29 49 67 49q43 0 43 -37zM144 649q0 -7 -2.5 -11.5t-5.5 -7.5t-12 -10t-16 -13l-135 -122h-49l102 160q32 51 70 51q20 0 34 -14t14 -33z" />
    <glyph glyph-name="uni030C" unicode="&#x30c;" horiz-adv-x="0" 
d="M88 677l-162 -174h-82l-88 174h50l91 -97l135 97h56z" />
    <glyph glyph-name="uni030F" unicode="&#x30f;" horiz-adv-x="0" 
d="M6 485h-49l-56 116q-10 22 -11.5 31t4.5 27q20 37 63 37q11 0 18.5 -2.5t14.5 -14t8 -32.5zM-163 485h-49l-70 122q-4 6 -9 13t-6.5 10t-1.5 7.5t4 11.5q10 19 31.5 33t41.5 14q37 0 43 -51z" />
    <glyph glyph-name="uni0311" unicode="&#x311;" horiz-adv-x="0" 
d="M24 509h-43q-9 90 -102 90q-49 0 -79 -20t-53 -70h-39q14 78 60 120t119 42q137 0 137 -149v-13z" />
    <glyph glyph-name="uni0323" unicode="&#x323;" horiz-adv-x="0" 
d="M-220 -141q0 -28 -20 -47.5t-49 -19.5q-28 0 -47 20t-19 49q0 26 20 46t46 20q28 0 48.5 -20t20.5 -48z" />
    <glyph glyph-name="uni0326" unicode="&#x326;" horiz-adv-x="0" 
d="M-244 -128q0 -55 -46.5 -108.5t-124.5 -87.5l-12 21q105 57 105 105q0 17 -27 35q-36 25 -36 57q-1 28 17 47t46 19q34 0 55.5 -24t22.5 -64z" />
    <glyph glyph-name="uni032E" unicode="&#x32e;" horiz-adv-x="0" 
d="M-113 -75q-13 -63 -63 -97t-129 -34q-76 0 -112 31.5t-37 99.5h47q10 -73 110 -73q53 0 85 16.5t57 56.5h42z" />
    <glyph glyph-name="uni032F" unicode="&#x32f;" horiz-adv-x="0" 
d="M-147 -206h-47q-10 73 -110 73q-53 0 -85 -16.5t-57 -56.5h-42q13 63 63 97t129 34q76 0 112 -31.5t37 -99.5z" />
    <glyph glyph-name="uni0330" unicode="&#x330;" horiz-adv-x="0" 
d="M-107 -81q-16 -63 -44 -91t-73 -28q-25 0 -57 13l-59 23q-21 8 -38 8q-31 0 -48 -43h-40q10 54 41.5 86t74.5 32q38 0 97 -26q39 -16 54 -16q17 0 28.5 9t22.5 33h41z" />
    <glyph glyph-name="uni0331" unicode="&#x331;" horiz-adv-x="0" 
d="M-133 -176h-326l17 70h325z" />
    <glyph glyph-name="uni0332" unicode="&#x332;" horiz-adv-x="0" 
d="M-133 -176h-326l17 70h325z" />
    <glyph glyph-name="Alpha" unicode="&#x391;" horiz-adv-x="667" 
d="M593 0h-304v25q48 5 63.5 16.5t15.5 42.5q0 20 -8 72q-4 16 -7 52h-215l-59 -102q-15 -26 -15 -46q0 -35 65 -35v-25h-196v25q27 6 43 19.5t40 50.5l372 588h25l96 -572q10 -57 22 -69.5t62 -16.5v-25zM346 248l-37 243l-148 -243h185z" />
    <glyph glyph-name="Beta" unicode="&#x392;" horiz-adv-x="667" 
d="M572 206q0 -96 -79 -151t-216 -55h-301v25q36 4 52 19t28 53l122 449q11 39 11 57q0 21 -15 30t-58 11v25h272q236 0 236 -146q0 -67 -47 -106q-26 -22 -56 -35t-86 -27q77 -25 107 -58t30 -91zM419 229q0 58 -35 85q-28 21 -115 24l-66 -244q-5 -17 -5 -29q0 -33 57 -33
q65 0 105 40q27 27 43 70t16 87zM477 536q0 101 -87 101q-24 0 -34.5 -8.5t-17.5 -35.5l-61 -225q99 4 139 30q61 40 61 138z" />
    <glyph glyph-name="Gamma" unicode="&#x393;" horiz-adv-x="667" 
d="M617 479l-27 5q0 76 -26 107q-42 46 -151 46q-31 0 -43 -9t-20 -35l-128 -471q-11 -36 -11 -53q0 -23 14.5 -32t56.5 -12v-25h-295v25q39 6 53.5 19t26.5 53l123 449q10 38 10 61q0 28 -42 33l-31 4v25h533z" />
    <glyph glyph-name="Delta" unicode="&#x394;" horiz-adv-x="659" 
d="M610 0h-652l493 669h31zM473 141l-79 404l-295 -404h374z" />
    <glyph glyph-name="Epsilon" unicode="&#x395;" horiz-adv-x="667" 
d="M586 194l-59 -194h-554v25q39 6 53.5 19t26.5 53l123 449q10 38 10 61q0 28 -42 33l-31 4v25h540l-43 -190l-27 5q0 46 -6.5 69.5t-23.5 41.5q-42 42 -154 42q-31 0 -43 -9t-20 -35l-61 -223q99 -1 134.5 17.5t70.5 88.5l28 -4l-74 -273l-28 5q4 25 4 44q0 52 -29.5 70.5
t-114.5 19.5l-56 -209q-15 -31 -15 -63q0 -34 61 -34q131 0 214 61q28 20 47 42t44 64z" />
    <glyph glyph-name="Zeta" unicode="&#x396;" horiz-adv-x="611" 
d="M554 194l-59 -194h-506v29l434 605h-78q-82 0 -137.5 -32t-114.5 -115l-28 4l57 178h468v-29l-434 -605h70q127 0 192 45q61 41 109 119z" />
    <glyph glyph-name="Eta" unicode="&#x397;" horiz-adv-x="778" 
d="M657 0h-317v25q50 3 70.5 17.5t30.5 54.5l64 232h-239l-50 -181l-4 -16q-13 -40 -13 -64t12.5 -31.5t60.5 -11.5v-25h-296v25q37 5 52.5 19t27.5 53l122 449q11 38 11 58q0 17 -9 24.5t-33 10.5l-31 5v25h317v-25q-49 -1 -69 -16t-32 -56l-54 -199h239l47 173
q10 38 10 61q0 15 -9 22t-32 10l-32 5v25h298v-25q-38 -5 -53.5 -18.5t-27.5 -53.5l-109 -397l-6 -22q-19 -66 -19 -87q0 -22 16 -30.5t57 -10.5v-25z" />
    <glyph glyph-name="Theta" unicode="&#x398;" horiz-adv-x="722" 
d="M751 454q0 -112 -59 -223t-154 -178q-98 -71 -215 -71q-106 0 -171 66t-65 173q0 106 60 217t153 176q101 71 209 71q104 0 173 -65.5t69 -165.5zM607 532q0 53 -28 86t-73 33q-99 0 -175 -142q-39 -73 -69.5 -186t-30.5 -186q0 -56 27.5 -88.5t74.5 -32.5q81 0 149 102
q49 74 87 200t38 214zM487 205h-18q17 65 -59 65q-43 0 -61 -6q-35 -11 -49 -59h-19l65 243h19q-10 -36 4 -49.5t63 -13.5q48 0 70 13.5t32 49.5h18z" />
    <glyph glyph-name="Iota" unicode="&#x399;" horiz-adv-x="389" 
d="M264 0h-296v25q37 4 52.5 18.5t27.5 53.5l123 449q10 38 10 61q0 15 -9 22t-32 10q-22 4 -32 5v25h298v-25q-38 -5 -54 -18.5t-28 -53.5l-114 -420q-18 -64 -18 -87q0 -21 15 -29.5t57 -10.5v-25z" />
    <glyph glyph-name="Kappa" unicode="&#x39a;" horiz-adv-x="667" 
d="M612 0h-280v25l27 3q38 3 38 24q0 14 -13 43l-113 242l-67 -249q-2 -10 -2 -17q0 -25 13.5 -34t52.5 -12v-25h-289v25q37 5 52.5 18.5t27.5 53.5l122 449q11 38 11 58q0 17 -9 24.5t-33 10.5l-31 5v25h310v-25q-44 -4 -63 -18.5t-31 -53.5l-62 -228l197 175q77 72 77 98
q0 21 -35 25l-21 2v25h211v-25q-33 -5 -47.5 -12t-46.5 -36l-216 -198l157 -338q8 -18 21 -25t42 -10v-25z" />
    <glyph glyph-name="Lambda" unicode="&#x39b;" horiz-adv-x="667" 
d="M593 0h-304v25q48 5 63.5 16.5t15.5 42.5q0 20 -8 72l-51 335l-230 -385q-15 -26 -15 -46q0 -35 65 -35v-25h-196v25q27 6 43 19.5t40 50.5l372 588h25l96 -572q10 -57 22 -69.5t62 -16.5v-25z" />
    <glyph glyph-name="Mu" unicode="&#x39c;" horiz-adv-x="889" 
d="M775 0h-312v25q49 3 68.5 17t31.5 55l125 464l-375 -573h-28l-67 559l-101 -369q-19 -68 -19 -92q0 -31 16 -43t64 -18v-25h-207v25q40 9 55.5 32t45.5 121l109 373q11 41 11 58q0 21 -12.5 27t-59.5 8v25h221l54 -480l310 480h212v-25q-38 -4 -54 -18.5t-27 -53.5
l-123 -449q-10 -26 -10 -55q0 -24 14 -32.5t58 -10.5v-25z" />
    <glyph glyph-name="Nu" unicode="&#x39d;" horiz-adv-x="722" 
d="M748 644q-31 -7 -45 -18t-25 -37t-32 -98l-143 -506h-28l-257 549l-99 -356q-18 -63 -18 -94q0 -29 18 -42t62 -17v-25h-208v25q41 8 56.5 31.5t44.5 121.5l120 411q-14 33 -28 42t-55 13v25h195l215 -465l80 287q18 67 18 94q0 29 -18 42t-62 17v25h209v-25z" />
    <glyph glyph-name="Xi" unicode="&#x39e;" horiz-adv-x="677" 
d="M738 473h-19q6 31 -7 45t-49 14h-362q-36 0 -57 -13.5t-31 -45.5h-18l50 189h543zM575 216h-18q7 34 -5 48.5t-50 14.5h-167q-44 0 -64 -13t-33 -50h-18l65 242h18q-6 -26 2 -45q9 -17 59 -17h169q37 0 57 14t32 48h18zM622 0h-566l59 222h18q-12 -51 -9 -66
q3 -14 20 -20t59 -6h356q39 0 55 9q18 9 27.5 25t21.5 58h18z" />
    <glyph glyph-name="Omicron" unicode="&#x39f;" horiz-adv-x="722" 
d="M691 454q0 -112 -59 -223t-154 -178q-98 -71 -215 -71q-106 0 -171 66t-65 173q0 106 60 217t153 176q101 71 209 71q104 0 173 -65.5t69 -165.5zM547 532q0 53 -28 86t-73 33q-99 0 -175 -142q-39 -73 -69.5 -186t-30.5 -186q0 -56 27.5 -88.5t74.5 -32.5q81 0 149 102
q49 74 87 200t38 214z" />
    <glyph glyph-name="Pi" unicode="&#x3a0;" horiz-adv-x="779" 
d="M657 0h-317v25q50 3 70.5 17.5t30.5 54.5l123 449q10 38 10 61q0 15 -9 22t-32 10l-32 5h-68q-49 -1 -69 -16t-32 -56l-120 -440q-13 -40 -13 -64t12.5 -31.5t60.5 -11.5v-25h-296v25q37 5 52.5 19t27.5 53l122 449q11 38 11 58q0 17 -9 24.5t-33 10.5l-31 5v25h683v-25
q-38 -5 -53.5 -18.5t-27.5 -53.5l-109 -397l-6 -22q-19 -66 -19 -87q0 -22 16 -30.5t57 -10.5v-25z" />
    <glyph glyph-name="Rho" unicode="&#x3a1;" horiz-adv-x="611" 
d="M613 514q0 -90 -74 -143.5t-199 -53.5q-37 0 -81 5l-54 -199q-10 -34 -10 -59q0 -20 15 -28.5t57 -10.5v-25h-294v25q39 6 53.5 19t26.5 53l123 449q10 38 10 61q0 28 -42 33l-31 4v25h287q104 0 158.5 -39.5t54.5 -115.5zM445 436q22 52 22 110q0 43 -22 67t-62 24
q-26 0 -39 -14q-4 -6 -11 -30l-64 -239q34 -2 42 -2q53 0 84 19t50 65z" />
    <glyph glyph-name="Sigma" unicode="&#x3a3;" horiz-adv-x="659" 
d="M669 161l-92 -161h-564l301 312l-114 357h539l-25 -126h-23q3 59 -20 77t-101 18h-241l94 -283l-253 -269h295q78 0 112 14t68 61h24z" />
    <glyph glyph-name="Tau" unicode="&#x3a4;" horiz-adv-x="611" 
d="M614 477l-27 2q-4 83 -35.5 118.5t-102.5 36.5l-140 -506q-11 -42 -11 -62q0 -24 15 -31.5t68 -9.5v-25h-331v25h14q38 0 59.5 16.5t31.5 55.5l148 537q-77 -2 -127.5 -35t-89.5 -108l-25 7l38 171h551z" />
    <glyph glyph-name="Upsilon" unicode="&#x3a5;" horiz-adv-x="611" 
d="M676 442l-29 8q9 32 -1 56.5t-37 24.5q-86 0 -151 -85t-98 -205l-34 -124q-8 -29 -8 -45q0 -28 14 -36.5t63 -10.5v-25h-322v25q52 4 69.5 16.5t31.5 55.5l42 162q73 272 -63 272q-40 0 -76.5 -25.5t-46.5 -63.5l-28 8q10 38 17.5 63t21.5 57.5t28.5 51.5t36 33t47.5 14
q65 0 104 -37t50 -99.5t4.5 -135.5t-28.5 -156l11 18q109 410 315 410q34 0 54.5 -19.5t26 -53t2 -72t-15.5 -82.5z" />
    <glyph glyph-name="Phi" unicode="&#x3a6;" horiz-adv-x="688" 
d="M734 334q-20 -76 -96.5 -121t-178.5 -57l-1 -4q-18 -64 -18 -87q0 -21 15 -29.5t57 -10.5v-25h-296v25q37 4 52.5 18.5t27.5 53.5l16 60q-95 13 -146.5 58t-31.5 120q20 76 96.5 121t179.5 57l9 33q10 38 10 61q0 15 -9 22t-32 10q-22 4 -32 5v25h298v-25
q-38 -5 -54 -18.5t-28 -53.5l-16 -60q95 -13 146.5 -58t31.5 -120zM398 468q-43 -20 -74.5 -55.5t-43.5 -78.5q-11 -43 1 -79t43 -55zM588 335q11 43 -1 79t-43 55l-72 -267q41 20 72.5 55.5t43.5 77.5z" />
    <glyph glyph-name="Chi" unicode="&#x3a7;" horiz-adv-x="667" 
d="M586 0h-308v25q41 4 54.5 11.5t13.5 26.5q0 33 -38 141l-19 60l-134 -148q-30 -33 -30 -51q0 -34 65 -40v-25h-214v25q32 6 72 42.5t159 167.5l68 74l-84 272q-12 35 -29 47t-62 16v25h305v-25l-30 -3q-25 -3 -34.5 -11t-9.5 -25q0 -24 34 -129q1 -3 17 -55l94 99
q70 74 70 98q0 21 -33 24l-22 2v25h203v-25q-27 -4 -46.5 -16t-52.5 -45l-199 -205l74 -237q22 -70 42 -90t74 -26v-25z" />
    <glyph glyph-name="Psi" unicode="&#x3a8;" horiz-adv-x="823" 
d="M918 520q-14 0 -25.5 -5.5t-21 -18.5t-16.5 -24.5t-14 -32.5t-11 -33.5t-10 -36.5q-23 -85 -105.5 -140.5t-188.5 -71.5l-1 -5q-18 -64 -18 -87q0 -21 15 -29.5t57 -10.5v-25h-296v25q37 4 52.5 18.5t27.5 53.5l17 62q-97 16 -149.5 71.5t-29.5 139.5q27 102 18 130
q-8 19 -28 20v30q83 0 130 -52t26 -129q-14 -54 -2 -100t46 -69l95 346q10 38 10 61q0 15 -9 22t-32 10q-22 4 -32 5v25h298v-25q-38 -5 -54 -18.5t-28 -53.5l-100 -369q48 24 84.5 69t50.5 98q21 76 92.5 128t151.5 52v-30z" />
    <glyph glyph-name="Omega" unicode="&#x3a9;" horiz-adv-x="766" 
d="M728 0h-283l65 187q32 13 59 36q48 48 86 191q22 84 19 133q-5 49 -34.5 77.5t-82.5 28.5q-68 0 -129 -53q-60 -54 -96 -190q-32 -116 -23 -164t47 -59l-35 -187h-283l51 190h17q-9 -30 -2 -42t12 -17q8 -7 44 -7h150l8 40q-101 19 -138 91q-20 43 -20 91q0 30 10 70
q29 109 133 191q105 84 265 84t219 -84q41 -54 41 -124q0 -33 -9 -67q-22 -85 -94 -158q-68 -71 -189 -94l-14 -40h149q35 0 46 6q13 6 23 18q15 13 22 42h17z" />
    <glyph glyph-name="alpha" unicode="&#x3b1;" horiz-adv-x="708" 
d="M687 87q-11 -43 -39 -74.5t-61 -31.5q-101 0 -127 111q-86 -111 -173 -111q-103 0 -156.5 72t-25.5 174q26 100 115.5 170.5t188.5 70.5q65 0 111 -31t67 -85q59 91 90 117l55 -70q-90 -69 -131 -109q3 -40 -5 -77q-9 -48 -12.5 -70t-8.5 -60t-2 -55t14 -17q24 0 43 24.5
t28 58.5zM454 134q-4 47 7 106q6 33 9.5 57t3.5 52.5t-5.5 46.5t-20.5 30t-39 12q-101 0 -158 -212q-12 -46 -18 -77.5t-6.5 -66.5t14.5 -53t46 -18q82 0 167 123z" />
    <glyph glyph-name="beta" unicode="&#x3b2;" horiz-adv-x="538" 
d="M547 182q-23 -87 -112 -144t-189 -57q-35 0 -63 14l-3 -13q-35 -129 -87 -217h-161q84 140 114 253l121 449q24 90 99.5 155.5t160.5 65.5q76 0 118 -48t24 -119q-13 -47 -49.5 -87t-85.5 -61q65 -20 98 -72t15 -119zM401 184q21 62 10 116.5t-61 54.5v30q24 0 40 37
t33 100q8 31 12 48t7.5 41t-0.5 35.5t-15 11.5q-23 0 -43 -19t-36 -58.5t-25 -69t-23 -80.5l-109 -406q23 -14 55 -14q53 0 94.5 51t60.5 122z" />
    <glyph glyph-name="gamma" unicode="&#x3b3;" horiz-adv-x="574" 
d="M651 449q-14 -54 -59.5 -122t-81 -109t-105.5 -116l-42 -44l-33 -124q-8 -29 -12.5 -44t-13 -41t-17 -40t-20 -29.5t-26 -22.5t-31.5 -7q-38 0 -51.5 30t1.5 77t55 91q37 41 117 121q12 71 13.5 128.5t-25.5 94t-84 36.5q-31 0 -58.5 -24t-35.5 -57h-31q24 91 77.5 157
t121.5 66q45 0 69 -28t27 -80.5t-4.5 -110.5t-24.5 -135l6 6q126 137 177 327h91zM301 -59l19 73l-83 -87q-56 -61 -59 -111q-2 -36 32 -36q17 0 31 13.5t25.5 41.5t18 49t16.5 57z" />
    <glyph glyph-name="delta" unicode="&#x3b4;" horiz-adv-x="521" 
d="M531 201q-24 -90 -103.5 -155t-168.5 -65q-91 0 -138.5 65t-22.5 157q20 72 93 116.5t167 55.5q-71 98 -46 189q14 50 55.5 87t87.5 37q63 0 104.5 -31.5t39.5 -85.5l-88 2q2 36 -12 60.5t-44 24.5q-31 0 -54 -31.5t-35 -76.5q-7 -26 2.5 -55t22 -47.5t35.5 -46.5
q37 -47 54.5 -71.5t37 -65t13.5 -63.5zM385 203q24 89 -4 142q-47 -11 -85 -51.5t-52 -92.5q-31 -119 -24 -156q6 -34 39 -34q22 0 40 12.5t29.5 28t23.5 46.5t17.5 49.5t15.5 55.5z" />
    <glyph glyph-name="epsilon" unicode="&#x3b5;" horiz-adv-x="520" 
d="M499 85q-35 -39 -82 -61.5t-94 -22.5q-73 0 -129.5 14.5t-89 52t-17.5 93.5q18 68 120 92q-57 33 -39 99q26 97 229 97q84 0 133 -58l-23 -19q-41 47 -110 47q-32 0 -58.5 -30.5t-37.5 -72.5q-8 -33 21 -51l94 1l-5 -48q-49 0 -85 4q-87 -29 -106 -97q-11 -42 20 -68
t83 -26q87 0 153 74z" />
    <glyph glyph-name="zeta" unicode="&#x3b6;" horiz-adv-x="417" 
d="M357 -139q-7 -25 -12 -40.5t-14 -34t-21.5 -27.5t-28.5 -9q-23 0 -35 16t-6 38l29 -8q-4 -16 12 -16q25 0 47 89q5 17 7 27t5.5 26t4 25t-0.5 19t-6.5 14.5t-13.5 4.5q-116 0 -187 47.5t-48 135.5q37 137 106.5 249t161.5 157q-40 39 -17 95h95q-18 -44 -11 -72
q20 3 41 3q17 0 28 -1t23.5 -4t17 -10.5t1.5 -18.5q-3 -13 -17 -19t-26 -7t-35 -1q-31 0 -56 9q-37 -28 -71 -98t-51.5 -128t-43.5 -156q-17 -61 8 -106t81 -45q75 0 33 -154z" />
    <glyph glyph-name="eta" unicode="&#x3b7;" horiz-adv-x="506" 
d="M322 -200h-130l157 548q5 17 5 21q0 8 -7.5 14.5t-17.5 6.5q-14 0 -34 -14.5t-35 -34.5q-46 -60 -77.5 -135t-67.5 -206h-121l56 204q46 162 46 178q0 14 -11 19t-43 6v27q92 3 200 27l-64 -198q78 116 123 158q43 41 100 41q73 0 73 -75q0 -14 -26 -115z" />
    <glyph glyph-name="theta" unicode="&#x3b8;" horiz-adv-x="496" 
d="M542 336q-18 -68 -45 -129t-63.5 -113t-84.5 -82.5t-102 -30.5q-55 0 -88 30.5t-43 82.5t-5 113t23 130q14 53 33.5 102t47 95t59 79.5t71.5 54t83 20.5q54 0 87.5 -30t43.5 -81.5t5.5 -112t-22.5 -128.5zM400 352q17 64 27.5 107.5t19.5 94.5t4 77.5t-23 26.5
q-14 0 -28 -12.5t-27.5 -37.5t-24.5 -51t-23.5 -65.5t-21 -68.5t-19.5 -71h116zM392 322h-116q-18 -69 -27.5 -109.5t-19.5 -94.5t-5 -80.5t23 -26.5q21 0 41.5 26.5t40.5 79.5t32.5 95.5t30.5 109.5z" />
    <glyph glyph-name="iota" unicode="&#x3b9;" horiz-adv-x="425" 
d="M410 108q-14 -52 -50 -89.5t-78 -37.5q-81 0 -129.5 41t-30.5 108l86 319h143l-95 -355q-10 -30 -4.5 -56.5t30.5 -26.5q33 0 60 31t39 74z" />
    <glyph glyph-name="kappa" unicode="&#x3ba;" horiz-adv-x="514" 
d="M500 112q-14 -53 -51.5 -92t-81.5 -39q-67 0 -100 50t-14 120q10 35 -15 60l-56 -211h-138l120 449h138l-24 -92q57 111 125 111q43 0 70 -26t27 -68h-30q0 28 -19 46t-48 18q-30 0 -53 -26t-46 -69q-22 -43 -50 -73l-3 -11q71 -6 112.5 -32.5t27.5 -77.5
q-36 -138 -24 -138q34 0 62.5 30t39.5 71h31z" />
    <glyph glyph-name="lambda" unicode="&#x3bb;" horiz-adv-x="606" 
d="M596 127q-38 -135 -104 -135q-69 0 -84 272l-188 -249h-172l350 464l-1 27q-1 20 -2 30t-5 25t-12.5 21.5t-21.5 6.5q-23 0 -44 -16t-27 -39l-29 8q36 135 100 135q15 0 26.5 -6.5t18.5 -21t12 -28t7.5 -37t4 -37.5t2.5 -40l16 -348q4 -79 49 -79q24 0 46 16t29 39z" />
    <glyph glyph-name="mu.greek" unicode="&#x3bc;" horiz-adv-x="683" 
d="M668 108q-14 -52 -44 -89.5t-69 -37.5q-79 0 -119 51q-58 -51 -120 -51q-79 0 -129 32q-22 -134 -4 -263h-162q72 198 121 380l85 319h143l-95 -355q-9 -33 2 -58t39 -25q56 0 106 47q-13 34 -2 72l85 319h143l-95 -355q-5 -18 -7.5 -29t-4 -25.5t1.5 -21.5t12 -7
q55 0 84 105z" />
    <glyph glyph-name="nu" unicode="&#x3bd;" horiz-adv-x="554" 
d="M585 279q-38 -146 -134 -195l-205 -103l-9 277q-1 17 8 43t18.5 48.5t15.5 43.5t-1.5 33t-32.5 12q-18 0 -33 -12t-26 -38t-17 -44t-15 -53h-32q11 39 19.5 64t23.5 54.5t35 44t45 14.5q54 0 82 -41.5t30 -102.5l9 -249l71 36q84 42 119 176q5 19 -7.5 41.5t-26 36.5
t-39.5 37l92 102q26 -22 31.5 -63t-0.5 -75t-21 -87z" />
    <glyph glyph-name="xi" unicode="&#x3be;" horiz-adv-x="468" 
d="M598 566q-5 -18 -29 -22.5t-65 -4.5q-35 0 -66 11q-41 -22 -72.5 -63.5t-45.5 -89.5q-18 -69 57 -99q39 4 86 4l-5 -48q-45 0 -87 3q-56 -20 -97 -58t-54 -87q-11 -43 18.5 -68t86.5 -45q47 -17 71 -53.5t11 -84.5q-9 -33 -16.5 -53.5t-24 -39t-37.5 -18.5
q-22 0 -34.5 15t-7.5 38l30 -6q-3 -17 12 -17q27 0 49 89q10 35 -8.5 62t-54.5 40q-53 19 -86 32t-77 33t-63.5 40t-14.5 38q30 112 183 160q-107 32 -82 124q17 66 75 114t137 71q-33 34 -24 86h89q-7 -46 7 -72q27 3 53 3q22 0 34 -0.5t28 -3.5t21.5 -10.5t2.5 -19.5z" />
    <glyph glyph-name="omicron" unicode="&#x3bf;" 
d="M441 311q0 -127 -86.5 -225.5t-198.5 -98.5q-69 0 -114 42t-45 106q0 126 88 226.5t199 100.5q69 0 113 -42.5t44 -108.5zM260 110q25 54 43.5 134t18.5 131q0 27 -12.5 42.5t-34.5 15.5q-49 0 -90 -75q-26 -47 -47.5 -135t-21.5 -145q0 -29 13 -45.5t36 -16.5
q52 0 95 94z" />
    <glyph glyph-name="pi" unicode="&#x3c0;" horiz-adv-x="690" 
d="M740 351q-73 -31 -142 -40l-61 -228q-10 -35 19 -53.5t76 -18.5l-8 -30q-60 0 -91.5 2t-73.5 10.5t-56 31t-4 58.5l62 232q-16 3 -58 12t-66 13l-37 -137q-24 -93 -91 -162t-145 -69v88q68 0 129 43.5t78 107.5l36 133q-26 2 -39 2q-100 0 -103 -13l-29 8
q16 58 51.5 100.5t80.5 42.5q48 0 138 -20t139 -19q70 2 139 33z" />
    <glyph glyph-name="rho" unicode="&#x3c1;" horiz-adv-x="596" 
d="M613 226q-28 -102 -120.5 -173.5t-195.5 -71.5q-46 0 -79 16q-6 -51 -19 -98q-23 -89 -89 -164l-104 90q45 51 60 110q14 49 20 146t19 146q27 101 119 171t195 70q106 0 163.5 -70.5t30.5 -171.5zM467 227q56 211 -48 211q-60 0 -102 -61t-66 -151q-6 -24 -11 -51.5
t-7.5 -46t-6 -52.5t-5.5 -48q34 -17 76 -17q61 0 103 62t67 154z" />
    <glyph glyph-name="uni03C2" unicode="&#x3c2;" horiz-adv-x="455" 
d="M526 432l-74 -48q-31 46 -46 52q-4 2 -8 2q-94 0 -144 -184q-10 -38 -14 -59.5t-1 -49.5t20 -43q7 -7 35 -31t41 -39q41 -47 28 -98q-8 -30 -30.5 -52t-48.5 -22q-76 0 -137 32l14 26q56 -28 123 -28q17 0 30.5 15t19.5 36q9 37 -22 72q-12 14 -39 37.5t-34 29.5
q-42 39 -65.5 64t-43 67t-9.5 79q21 79 102.5 128.5t174.5 49.5q34 0 52 -1t41.5 -9.5t34.5 -25.5z" />
    <glyph glyph-name="sigma" unicode="&#x3c3;" horiz-adv-x="635" 
d="M717 472q-108 -30 -248 -35q66 -43 66 -126q0 -127 -86.5 -225.5t-198.5 -98.5q-69 0 -114 42t-45 106q0 126 88 226.5t199 100.5q11 0 29 -2q115 5 298 56zM354 110q25 54 43.5 134t18.5 131q0 27 -12.5 42.5t-34.5 15.5q-49 0 -90 -75q-26 -47 -47.5 -135t-21.5 -145
q0 -29 13 -45.5t36 -16.5q52 0 95 94z" />
    <glyph glyph-name="tau" unicode="&#x3c4;" horiz-adv-x="588" 
d="M640 358q-91 -63 -196 -65l-53 -199q-10 -30 -4 -56.5t30 -26.5q33 0 60.5 31t38.5 74l29 -8q-13 -51 -49.5 -89t-78.5 -38q-81 0 -129 41t-30 108l53 200q-24 16 -43 16q-100 0 -103 -13l-29 8q16 58 51.5 100.5t80.5 42.5q21 0 127 -44q38 -14 82 -5.5t85 36.5z" />
    <glyph glyph-name="upsilon" unicode="&#x3c5;" horiz-adv-x="569" 
d="M591 246q-29 -107 -102 -186t-160 -79q-86 0 -136.5 47.5t-30.5 122.5q9 34 37.5 101.5t38.5 102.5q18 74 10 81q-2 2 -5 2q-50 0 -77 -101h-31q15 55 42.5 93t65.5 38q68 0 106.5 -43t21.5 -106q-7 -28 -31.5 -84.5t-31.5 -85.5q-5 -21 -8 -33.5t-6.5 -31t-2.5 -29.5
t4 -22t11.5 -16.5t22.5 -5.5q78 0 142.5 72t90.5 171q23 84 -97 136l56 126q65 -28 81 -107t-11 -163z" />
    <glyph glyph-name="phi" unicode="&#x3c6;" horiz-adv-x="696" 
d="M712 224q-23 -87 -101.5 -149.5t-178.5 -84.5q-13 -63 -21 -91q-27 -103 -117 -173l-85 108q54 44 69 101l12 50q-102 16 -156.5 81t-29.5 159q10 38 33.5 72.5t61 65.5t68.5 52t79 51l16 -26q-23 -14 -41.5 -37t-32 -57.5t-20.5 -58t-18 -63.5q-19 -65 -6.5 -123
t54.5 -79q2 12 19.5 104.5t30.5 141.5q22 81 91 140.5t146 59.5q85 0 119.5 -73t7.5 -171zM566 225q12 46 19 74t13.5 65t3 55.5t-16.5 18.5q-17 0 -32.5 -17.5t-29 -53.5t-21.5 -62.5t-20 -72.5q-14 -53 -40 -190q44 29 77 78t47 105z" />
    <glyph glyph-name="chi" unicode="&#x3c7;" horiz-adv-x="545" 
d="M520 -95q-38 -144 -106 -144q-77 0 -89 125l-12 114q-94 -129 -120 -231h-143q11 41 28 80t49 87.5t48 71t64 83.5t57 73l-13 123q-3 27 -6 40.5t-13.5 27.5t-28.5 14q-25 0 -47.5 -18.5t-30.5 -44.5l-29 7q40 144 107 144q21 0 36 -14t23 -42.5t11.5 -50.5t6.5 -59
l10 -92q105 142 134 250h143q-11 -43 -31 -85.5t-50.5 -88t-53.5 -77t-64.5 -84.5t-60.5 -78l16 -147q2 -19 18.5 -29.5t40.5 -10.5q25 0 47.5 18.5t29.5 44.5z" />
    <glyph glyph-name="psi" unicode="&#x3c8;" horiz-adv-x="644" 
d="M666 246q-29 -107 -112.5 -186t-179.5 -79l-22 1l-62 -232h-30l63 234q-86 10 -132.5 53.5t-28.5 113.5q9 34 37.5 101.5t38.5 102.5q18 74 10 81q-2 2 -5 2q-50 0 -77 -101h-31q15 55 42.5 93t65.5 38q68 0 106.5 -43t21.5 -106q-7 -28 -31.5 -84.5t-31.5 -85.5
q-11 -39 -4.5 -74.5t29.5 -51.5l54 202q60 225 65 444h138q-114 -222 -173 -444l-57 -213q5 -1 14 -1q87 0 162 72.5t101 170.5q23 84 -97 136l56 126q65 -28 81 -107t-11 -163z" />
    <glyph glyph-name="omega" unicode="&#x3c9;" horiz-adv-x="660" 
d="M670 205q-24 -91 -100 -157.5t-161 -66.5q-57 0 -76 45q-37 -45 -85 -45q-92 0 -130 77t-10 182q20 72 87.5 123.5t171.5 99.5l13 -28q-31 -14 -54.5 -38t-39.5 -60.5t-24.5 -61.5t-20.5 -70q-32 -124 -27 -161q6 -33 34 -33q45 0 77 50q-7 62 42 250l85 -23
q-11 -40 -16.5 -62t-15 -60.5t-13.5 -61t-7.5 -46.5t-0.5 -35.5t10 -11.5q23 0 43 19t36.5 59.5t25 69t23.5 81.5q20 74 20 123.5t-38 72.5l15 26q177 -106 136 -257z" />
    <glyph glyph-name="uni03D1" unicode="&#x3d1;" horiz-adv-x="638" 
d="M715 449q-56 -8 -83 -10q-4 -44 -19 -103q-25 -93 -64.5 -170t-102 -131t-134.5 -54q-87 0 -138 47.5t-31 122.5q9 34 47 101.5t48 102.5q3 12 4.5 18.5t4.5 18t4.5 18t2.5 14t0 11t-3 3.5q-30 0 -52.5 -30.5t-33.5 -74.5l-29 8q14 52 45 89.5t70 37.5q65 0 101 -43.5
t19 -105.5q-8 -30 -41 -85.5t-41 -84.5q-17 -49 -15.5 -93.5t38.5 -44.5q16 0 32 13t30.5 41.5t26 54.5t25 71t21 71.5t20.5 75.5l27 103q-41 19 -74 117q-17 45 0.5 87.5t53.5 42.5q83 0 122 -60.5t37 -158.5q48 6 77 10zM501 472q41 186 -27 186q-24 0 -31 -29t5 -61
q29 -79 53 -96z" />
    <glyph glyph-name="uni03D5" unicode="&#x3d5;" horiz-adv-x="507" 
d="M535 311q0 -122 -81.5 -219t-188.5 -104l-64 -238h-30l64 238q-63 5 -103.5 46t-40.5 101q0 119 79 216t184 110q21 112 35 208h88q-43 -106 -77 -208q60 -7 97.5 -48t37.5 -102zM243 18l56 207q27 102 48 204q-36 -12 -68 -71q-26 -47 -47.5 -135t-21.5 -145
q0 -48 33 -60zM354 110q25 54 43.5 134t18.5 131q0 41 -27 54q-33 -102 -60 -204l-56 -207q44 10 81 92z" />
    <glyph glyph-name="uni03D6" unicode="&#x3d6;" horiz-adv-x="660" 
d="M670 205q-24 -91 -100 -157.5t-161 -66.5q-57 0 -76 45q-37 -45 -85 -45q-92 0 -130 77t-10 182q20 72 87.5 123.5t171.5 99.5l13 -28q-31 -14 -54.5 -38t-39.5 -60.5t-24.5 -61.5t-20.5 -70q-32 -124 -27 -161q6 -33 34 -33q45 0 77 50q-7 62 42 250l85 -23
q-11 -40 -16.5 -62t-15 -60.5t-13.5 -61t-7.5 -46.5t-0.5 -35.5t10 -11.5q23 0 43 19t36.5 59.5t25 69t23.5 81.5q43 163 41 222q-4 82 -70 82q-110 0 -224 -30l-7 30q117 30 231 30q61 0 103 -31t60 -83.5t18 -118t-19 -136.5z" />
    <glyph glyph-name="uni03F1" unicode="&#x3f1;" horiz-adv-x="508" 
d="M397 -250h-31q9 35 -34 56q-14 4 -23.5 3t-26.5 -4.5t-26 -3.5q-36 0 -63 12t-44.5 36t-29 51.5t-17 66.5t-8 72.5t-2.5 77.5q-1 6 -1 18q0 126 88 226.5t199 100.5q69 0 113 -42.5t44 -108.5q0 -127 -86.5 -225.5t-198.5 -98.5q-72 0 -119 47q26 -123 124 -123
q114 0 124 -5q23 -11 29.5 -38.5t2.5 -52.5t-14 -65zM354 110q25 54 43.5 134t18.5 131q0 27 -12.5 42.5t-34.5 15.5q-49 0 -90 -75q-26 -47 -47.5 -135t-21.5 -145q0 -29 13 -45.5t36 -16.5q52 0 95 94z" />
    <glyph glyph-name="uni03F5" unicode="&#x3f5;" horiz-adv-x="488" 
d="M454 36q-29 -34 -70.5 -44.5t-99.5 -10.5q-103 0 -154 76t-22 182q27 101 132.5 165t224.5 64h59v-30h-59q-67 0 -126 -56t-82 -134q14 3 35 10.5t37.5 13t34.5 10t34.5 3.5t29.5 -8l-41 -78q-14 7 -33 10.5t-33 3.5t-38.5 -1t-35.5 -1q-12 -44 -17 -74t-5 -61.5
t14.5 -48t44.5 -16.5q16 0 36 14.5t33 28.5t34 39z" />
    <glyph glyph-name="baht" unicode="&#xe3f;" horiz-adv-x="667" 
d="M572 206q0 -96 -79 -151t-216 -55h-1l-23 -83h-31l23 83h-269v25q36 4 52 19t28 53l122 449q11 39 11 57q0 21 -15 30t-58 11v25h272q24 0 36 -1l22 84h31l-23 -87q170 -18 170 -142q0 -67 -47 -106q-26 -22 -56 -35t-86 -27q77 -25 107 -58t30 -91zM419 229q0 58 -35 85
q-5 4 -21 12l-78 -292q44 7 75 38q27 27 43 70t16 87zM334 333q-19 3 -65 5l-66 -244q-5 -17 -5 -29q0 -33 55 -33zM477 536q0 63 -34 87l-65 -243q24 8 38 18q61 40 61 138zM415 635q-16 2 -25 2q-24 0 -34.5 -8.5t-17.5 -35.5l-61 -225q32 1 68 5z" />
    <glyph glyph-name="Ddotbelow" unicode="&#x1e0c;" horiz-adv-x="722" 
d="M685 396q0 -171 -126.5 -283.5t-318.5 -112.5h-286v25q36 5 52.5 19.5t27.5 52.5l121 446q12 44 12 59q0 18 -9 26t-33 11l-31 5v25h290q142 0 221.5 -72.5t79.5 -200.5zM538 457q0 181 -165 181q-25 0 -37.5 -8.5t-17.5 -29.5l-128 -474l-1 -4q-12 -36 -12 -54
q0 -34 54 -34q142 0 223 118q39 58 61.5 140t22.5 165zM270 -141q0 -28 -20 -47.5t-49 -19.5q-28 0 -47 20t-19 49q0 26 20 46t46 20q28 0 48.5 -20t20.5 -48z" />
    <glyph glyph-name="ddotbelow" unicode="&#x1e0d;" 
d="M449 115q-41 -66 -76.5 -96t-72.5 -30q-28 0 -44 16t-16 45q0 20 11 68q-43 -71 -80.5 -101t-85.5 -30q-46 0 -76 35t-30 90q0 76 42 158.5t106.5 137t123.5 54.5q39 0 72 -33l18 68q29 106 29 118q0 28 -41 28h-21v27q129 10 209 29l-111 -405q-57 -208 -57 -223
q0 -12 11 -12q22 0 67 72zM308 371q0 21 -10.5 34.5t-26.5 14.5q-47 3 -98 -87q-27 -49 -47.5 -110t-22.5 -101q-2 -26 10 -44.5t31 -18.5q44 0 86 74q26 48 52 126.5t26 111.5zM280 -141q0 -28 -20 -47.5t-49 -19.5q-28 0 -47 20t-19 49q0 26 20 46t46 20q28 0 48.5 -20
t20.5 -48z" />
    <glyph glyph-name="Dlinebelow" unicode="&#x1e0e;" horiz-adv-x="722" 
d="M685 396q0 -171 -126.5 -283.5t-318.5 -112.5h-286v25q36 5 52.5 19.5t27.5 52.5l121 446q12 44 12 59q0 18 -9 26t-33 11l-31 5v25h290q142 0 221.5 -72.5t79.5 -200.5zM538 457q0 181 -165 181q-25 0 -37.5 -8.5t-17.5 -29.5l-128 -474l-1 -4q-12 -36 -12 -54
q0 -34 54 -34q142 0 223 118q39 58 61.5 140t22.5 165zM357 -176h-326l17 70h325z" />
    <glyph glyph-name="dlinebelow" unicode="&#x1e0f;" 
d="M449 115q-41 -66 -76.5 -96t-72.5 -30q-28 0 -44 16t-16 45q0 20 11 68q-43 -71 -80.5 -101t-85.5 -30q-46 0 -76 35t-30 90q0 76 42 158.5t106.5 137t123.5 54.5q39 0 72 -33l18 68q29 106 29 118q0 28 -41 28h-21v27q129 10 209 29l-111 -405q-57 -208 -57 -223
q0 -12 11 -12q22 0 67 72zM308 371q0 21 -10.5 34.5t-26.5 14.5q-47 3 -98 -87q-27 -49 -47.5 -110t-22.5 -101q-2 -26 10 -44.5t31 -18.5q44 0 86 74q26 48 52 126.5t26 111.5zM367 -176h-326l17 70h325z" />
    <glyph glyph-name="Hdotbelow" unicode="&#x1e24;" horiz-adv-x="778" 
d="M657 0h-317v25q50 3 70.5 17.5t30.5 54.5l64 232h-239l-50 -181l-4 -16q-13 -40 -13 -64t12.5 -31.5t60.5 -11.5v-25h-296v25q37 5 52.5 19t27.5 53l122 449q11 38 11 58q0 17 -9 24.5t-33 10.5l-31 5v25h317v-25q-49 -1 -69 -16t-32 -56l-54 -199h239l47 173
q10 38 10 61q0 15 -9 22t-32 10l-32 5v25h298v-25q-38 -5 -53.5 -18.5t-27.5 -53.5l-109 -397l-6 -22q-19 -66 -19 -87q0 -22 16 -30.5t57 -10.5v-25zM317 -141q0 -28 -20 -47.5t-49 -19.5q-28 0 -47 20t-19 49q0 26 20 46t46 20q28 0 48.5 -20t20.5 -48z" />
    <glyph glyph-name="hdotbelow" unicode="&#x1e25;" horiz-adv-x="556" 
d="M498 127q-50 -77 -85.5 -106.5t-81.5 -29.5q-29 0 -47.5 16t-18.5 42q0 52 61 231q27 81 27 89t-6.5 14.5t-15.5 6.5q-40 0 -104 -94q-36 -53 -58 -108t-61 -188h-121l154 567q8 29 8 42q0 34 -41 34l-22 -1v27q97 8 208 30l-107 -416q74 106 117.5 142.5t94.5 36.5
q35 0 55.5 -20t20.5 -55q0 -29 -30 -122l-58 -178q-3 -8 -3 -12q0 -5 5.5 -10.5t11.5 -5.5q17 0 75 83zM215 -141q0 -28 -20 -47.5t-49 -19.5q-28 0 -47 20t-19 49q0 26 20 46t46 20q28 0 48.5 -20t20.5 -48z" />
    <glyph glyph-name="Hdieresis" unicode="&#x1e26;" horiz-adv-x="778" 
d="M657 0h-317v25q50 3 70.5 17.5t30.5 54.5l64 232h-239l-50 -181l-4 -16q-13 -40 -13 -64t12.5 -31.5t60.5 -11.5v-25h-296v25q37 5 52.5 19t27.5 53l122 449q11 38 11 58q0 17 -9 24.5t-33 10.5l-31 5v25h317v-25q-49 -1 -69 -16t-32 -56l-54 -199h239l47 173
q10 38 10 61q0 15 -9 22t-32 10l-32 5v25h298v-25q-38 -5 -53.5 -18.5t-27.5 -53.5l-109 -397l-6 -22q-19 -66 -19 -87q0 -22 16 -30.5t57 -10.5v-25zM459 789q0 -26 -19.5 -45t-46.5 -19q-25 0 -44.5 19.5t-19.5 44.5q0 27 19 46.5t45 19.5q27 0 46.5 -19.5t19.5 -46.5z
M669 789q0 -26 -19.5 -45t-46.5 -19q-25 0 -44.5 19.5t-19.5 44.5q0 27 19 46.5t45 19.5q27 0 46.5 -19.5t19.5 -46.5z" />
    <glyph glyph-name="hdieresis" unicode="&#x1e27;" horiz-adv-x="556" 
d="M498 127q-50 -77 -85.5 -106.5t-81.5 -29.5q-29 0 -47.5 16t-18.5 42q0 52 61 231q27 81 27 89t-6.5 14.5t-15.5 6.5q-40 0 -104 -94q-36 -53 -58 -108t-61 -188h-121l154 567q8 29 8 42q0 34 -41 34l-22 -1v27q97 8 208 30l-107 -416q74 106 117.5 142.5t94.5 36.5
q35 0 55.5 -20t20.5 -55q0 -29 -30 -122l-58 -178q-3 -8 -3 -12q0 -5 5.5 -10.5t11.5 -5.5q17 0 75 83zM457 819q0 -26 -19.5 -45t-46.5 -19q-25 0 -44.5 19.5t-19.5 44.5q0 27 19 46.5t45 19.5q27 0 46.5 -19.5t19.5 -46.5zM667 819q0 -26 -19.5 -45t-46.5 -19
q-25 0 -44.5 19.5t-19.5 44.5q0 27 19 46.5t45 19.5q27 0 46.5 -19.5t19.5 -46.5z" />
    <glyph glyph-name="Hbrevebelow" unicode="&#x1e2a;" horiz-adv-x="778" 
d="M657 0h-317v25q50 3 70.5 17.5t30.5 54.5l64 232h-239l-50 -181l-4 -16q-13 -40 -13 -64t12.5 -31.5t60.5 -11.5v-25h-296v25q37 5 52.5 19t27.5 53l122 449q11 38 11 58q0 17 -9 24.5t-33 10.5l-31 5v25h317v-25q-49 -1 -69 -16t-32 -56l-54 -199h239l47 173
q10 38 10 61q0 15 -9 22t-32 10l-32 5v25h298v-25q-38 -5 -53.5 -18.5t-27.5 -53.5l-109 -397l-6 -22q-19 -66 -19 -87q0 -22 16 -30.5t57 -10.5v-25zM424 -75q-13 -63 -63 -97t-129 -34q-76 0 -112 31.5t-37 99.5h47q10 -73 110 -73q53 0 85 16.5t57 56.5h42z" />
    <glyph glyph-name="hbrevebelow" unicode="&#x1e2b;" horiz-adv-x="556" 
d="M498 127q-50 -77 -85.5 -106.5t-81.5 -29.5q-29 0 -47.5 16t-18.5 42q0 52 61 231q27 81 27 89t-6.5 14.5t-15.5 6.5q-40 0 -104 -94q-36 -53 -58 -108t-61 -188h-121l154 567q8 29 8 42q0 34 -41 34l-22 -1v27q97 8 208 30l-107 -416q74 106 117.5 142.5t94.5 36.5
q35 0 55.5 -20t20.5 -55q0 -29 -30 -122l-58 -178q-3 -8 -3 -12q0 -5 5.5 -10.5t11.5 -5.5q17 0 75 83zM322 -75q-13 -63 -63 -97t-129 -34q-76 0 -112 31.5t-37 99.5h47q10 -73 110 -73q53 0 85 16.5t57 56.5h42z" />
    <glyph glyph-name="Idieresisacute" unicode="&#x1e2e;" horiz-adv-x="389" 
d="M264 0h-296v25q37 4 52.5 18.5t27.5 53.5l123 449q10 38 10 61q0 15 -9 22t-32 10q-22 4 -32 5v25h298v-25q-38 -5 -54 -18.5t-28 -53.5l-114 -420q-18 -64 -18 -87q0 -21 15 -29.5t57 -10.5v-25zM269 789q0 -26 -19.5 -45t-46.5 -19q-25 0 -44.5 19.5t-19.5 44.5
q0 27 19 46.5t45 19.5q27 0 46.5 -19.5t19.5 -46.5zM479 789q0 -26 -19.5 -45t-46.5 -19q-25 0 -44.5 19.5t-19.5 44.5q0 27 19 46.5t45 19.5q27 0 46.5 -19.5t19.5 -46.5zM493 1011q0 -11 -8.5 -19t-33.5 -18l-164 -71h-53l132 106q49 40 76 40q20 0 35.5 -11.5t15.5 -26.5
z" />
    <glyph glyph-name="idieresisacute" unicode="&#x1e2f;" horiz-adv-x="278" 
d="M238 127q-52 -79 -87 -107.5t-80 -28.5q-31 0 -50 17.5t-19 45.5q0 22 13 69l58 215q7 30 7 40q0 29 -46 29h-13v27q116 9 202 28l-91 -334q-9 -38 -9 -52q0 -6 4.5 -10.5t10.5 -4.5q24 0 64 60l14 20zM158 589q0 -26 -19.5 -45t-46.5 -19q-26 0 -45 19.5t-19 44.5
q0 27 19 46.5t45 19.5q27 0 46.5 -19.5t19.5 -46.5zM368 589q0 -26 -19.5 -45t-46.5 -19q-26 0 -45 19.5t-19 44.5q0 27 19 46.5t45 19.5q27 0 46.5 -19.5t19.5 -46.5zM382 811q0 -11 -8.5 -19t-33.5 -18l-164 -71h-53l132 106q49 40 76 40q20 0 35.5 -11.5t15.5 -26.5z" />
    <glyph glyph-name="Ldotbelow" unicode="&#x1e36;" horiz-adv-x="611" 
d="M590 194l-59 -194h-553v25q37 4 52.5 18.5t27.5 53.5l123 449q10 38 10 61q0 15 -9 22t-32 10q-22 4 -32 5v25h317v-25q-50 -3 -69.5 -17t-31.5 -55l-129 -478q-5 -18 -5 -32q0 -30 64 -30q127 0 211 61q29 22 48 44t43 62zM335 -141q0 -28 -20 -47.5t-49 -19.5
q-28 0 -47 20t-19 49q0 26 20 46t46 20q28 0 48.5 -20t20.5 -48z" />
    <glyph glyph-name="ldotbelow" unicode="&#x1e37;" horiz-adv-x="278" 
d="M238 127q-52 -79 -87 -107.5t-81 -28.5q-31 0 -49.5 16.5t-18.5 43.5q0 37 34 158l75 264q33 120 33 142q0 28 -42 28q-10 0 -21 -1v27q96 9 209 30l-145 -523q-22 -79 -22 -100q0 -6 4.5 -10.5t10.5 -4.5q13 0 30.5 17.5t47.5 62.5zM73 -141q0 -28 -20 -47.5t-49 -19.5
q-28 0 -47 20t-19 49q0 26 20 46t46 20q28 0 48.5 -20t20.5 -48z" />
    <glyph glyph-name="Ldotbelowmacron" unicode="&#x1e38;" horiz-adv-x="611" 
d="M590 194l-59 -194h-553v25q37 4 52.5 18.5t27.5 53.5l123 449q10 38 10 61q0 15 -9 22t-32 10q-22 4 -32 5v25h317v-25q-50 -3 -69.5 -17t-31.5 -55l-129 -478q-5 -18 -5 -32q0 -30 64 -30q127 0 211 61q29 22 48 44t43 62zM335 -141q0 -28 -20 -47.5t-49 -19.5
q-28 0 -47 20t-19 49q0 26 20 46t46 20q28 0 48.5 -20t20.5 -48zM467 755h-326l17 70h325z" />
    <glyph glyph-name="ldotbelowmacron" unicode="&#x1e39;" horiz-adv-x="278" 
d="M238 127q-52 -79 -87 -107.5t-81 -28.5q-31 0 -49.5 16.5t-18.5 43.5q0 37 34 158l75 264q33 120 33 142q0 28 -42 28q-10 0 -21 -1v27q96 9 209 30l-145 -523q-22 -79 -22 -100q0 -6 4.5 -10.5t10.5 -4.5q13 0 30.5 17.5t47.5 62.5zM73 -141q0 -28 -20 -47.5t-49 -19.5
q-28 0 -47 20t-19 49q0 26 20 46t46 20q28 0 48.5 -20t20.5 -48zM466 785h-326l17 70h325z" />
    <glyph glyph-name="Mdotbelow" unicode="&#x1e42;" horiz-adv-x="889" 
d="M775 0h-312v25q49 3 68.5 17t31.5 55l125 464l-375 -573h-28l-67 559l-101 -369q-19 -68 -19 -92q0 -31 16 -43t64 -18v-25h-207v25q40 9 55.5 32t45.5 121l109 373q11 41 11 58q0 21 -12.5 27t-59.5 8v25h221l54 -480l310 480h212v-25q-38 -4 -54 -18.5t-27 -53.5
l-123 -449q-10 -26 -10 -55q0 -24 14 -32.5t58 -10.5v-25zM474 -141q0 -28 -20 -47.5t-49 -19.5q-28 0 -47 20t-19 49q0 26 20 46t46 20q28 0 48.5 -20t20.5 -48z" />
    <glyph glyph-name="mdotbelow" unicode="&#x1e43;" horiz-adv-x="778" 
d="M722 122q-44 -74 -79 -102.5t-81 -28.5q-67 0 -67 63q0 48 36 153l45 131q7 23 7 30q0 8 -7 14.5t-16 6.5q-47 0 -112 -116q-27 -48 -42.5 -89t-58.5 -184h-120l65 207q45 138 45 160q0 9 -5.5 15.5t-12.5 6.5q-25 0 -65 -47q-43 -51 -75 -126t-72 -216h-121l67 238
q35 126 35 144q0 25 -54 25v27q130 10 200 27l-64 -199q48 75 76 110t56 56q41 34 86 34q31 0 49 -18t18 -50q0 -36 -26 -104q62 99 104.5 135.5t93.5 36.5q33 0 55 -20t22 -51q0 -41 -23 -107l-45 -133q-21 -67 -21 -78q0 -14 16 -14q21 0 57 58q6 11 12 18zM419 -141
q0 -28 -20 -47.5t-49 -19.5q-28 0 -47 20t-19 49q0 26 20 46t46 20q28 0 48.5 -20t20.5 -48z" />
    <glyph glyph-name="Ndotaccent" unicode="&#x1e44;" horiz-adv-x="722" 
d="M748 644q-31 -7 -45 -18t-25 -37t-32 -98l-143 -506h-28l-257 549l-99 -356q-18 -63 -18 -94q0 -29 18 -42t62 -17v-25h-208v25q41 8 56.5 31.5t44.5 121.5l120 411q-14 33 -28 42t-55 13v25h195l215 -465l80 287q18 67 18 94q0 29 -18 42t-62 17v25h209v-25zM555 790
q0 -28 -20 -47.5t-49 -19.5q-28 0 -47 20t-19 49q0 26 20 46t46 20q28 0 48.5 -20t20.5 -48z" />
    <glyph glyph-name="ndotaccent" unicode="&#x1e45;" horiz-adv-x="556" 
d="M493 122q-44 -73 -79 -102t-80 -29q-32 0 -50 16t-18 44q0 47 28 131l55 166q5 17 5 21q0 8 -7.5 14.5t-17.5 6.5q-14 0 -34 -14.5t-35 -34.5q-46 -60 -77.5 -135t-67.5 -206h-121l56 204q46 162 46 178q0 14 -11 19t-43 6v27q92 3 200 27l-64 -198q78 116 123 158
q43 41 100 41q73 0 73 -75q0 -39 -26 -115l-36 -109q-25 -74 -25 -87q0 -17 14 -17q13 0 26.5 15t43.5 61zM411 590q0 -28 -20 -47.5t-49 -19.5q-28 0 -47 20t-19 49q0 26 20 46t46 20q28 0 48.5 -20t20.5 -48z" />
    <glyph glyph-name="Ndotbelow" unicode="&#x1e46;" horiz-adv-x="722" 
d="M748 644q-31 -7 -45 -18t-25 -37t-32 -98l-143 -506h-28l-257 549l-99 -356q-18 -63 -18 -94q0 -29 18 -42t62 -17v-25h-208v25q41 8 56.5 31.5t44.5 121.5l120 411q-14 33 -28 42t-55 13v25h195l215 -465l80 287q18 67 18 94q0 29 -18 42t-62 17v25h209v-25zM305 -141
q0 -28 -20 -47.5t-49 -19.5q-28 0 -47 20t-19 49q0 26 20 46t46 20q28 0 48.5 -20t20.5 -48z" />
    </font>
</defs>
</svg>
