<?xml version="1.0" standalone="no"?>
<!DOCTYPE svg PUBLIC "-//W3C//DTD SVG 1.1//EN" "http://www.w3.org/Graphics/SVG/1.1/DTD/svg11.dtd" >
<svg xmlns="http://www.w3.org/2000/svg" xmlns:xlink="http://www.w3.org/1999/xlink" version="1.1">
<metadata>Created by FontForge</metadata>
<defs>
<font id="qtmr" horiz-adv-x="500" >
  <font-face 
    font-family="qtm"
    font-weight="400"
    font-stretch="normal"
    units-per-em="1000"
    panose-1="0 0 5 0 0 0 0 0 0 0"
    ascent="783"
    descent="-217"
    x-height="450"
    cap-height="662"
    bbox="-526 -281 1306 1055"
    underline-thickness="50"
    underline-position="-150"
    unicode-range="U+0020-FB04"
  />
<missing-glyph horiz-adv-x="280" 
 />
    <glyph glyph-name="I_J" unicode="IJ" horiz-adv-x="787" 
d="M337 0h-297v19q63 2 80 18t17 72v444q0 55 -16.5 70.5t-80.5 19.5v19h297v-19q-63 -3 -80.5 -19t-17.5 -71v-444q0 -55 18 -71.5t80 -18.5v-19zM747 643q-61 -4 -76.5 -19.5t-15.5 -70.5v-370q0 -94 -44 -145.5t-125 -51.5q-43 0 -71 20t-28 52q0 20 14.5 35t34.5 15
q37 0 52 -51q5 -19 11 -26t16 -7q38 0 38 66v463q0 55 -16 70.5t-77 19.5v19h287v-19z" />
    <glyph glyph-name="i_j" unicode="ij" horiz-adv-x="535" 
d="M277 0h-237v15q52 3 65.5 18t13.5 69v232q0 33 -7.5 46.5t-25.5 13.5q-16 0 -34 -3l-8 -1v15l155 55l4 -3v-355q0 -54 12.5 -68.5t61.5 -18.5v-15zM212 590q0 -22 -14.5 -36.5t-36.5 -14.5q-21 0 -36 14.5t-15 36.5q0 21 15 36t36 15q22 0 36.5 -15t14.5 -36zM495 0
q0 -107 -43.5 -162.5t-126.5 -55.5q-41 0 -67 15.5t-26 39.5q0 16 12 27.5t29 11.5q23 0 48 -32q23 -28 42 -28q23 0 34 18q14 25 14 121v379q0 60 -32 60q-16 0 -40 -3l-5 -1v16q80 25 156 54l5 -3v-457zM504 590q0 -22 -14.5 -36.5t-36.5 -14.5q-21 0 -36 14.5t-15 36.5
q0 21 15 36t36 15q22 0 36.5 -15t14.5 -36z" />
    <glyph glyph-name="f_k" unicode="fk" horiz-adv-x="791" 
d="M373 450v141q-6 -7 -16 -7q-30 0 -55 37q-23 35 -52 35q-65 0 -65 -154v-52h188zM796 0h-218v15h19q21 0 21 15q0 7 -11 21q-6 6 -7 9l-3 4l-140 188v-171q0 -39 11.5 -51t52.5 -15v-15h-215v15q39 3 53 17.5t14 51.5v334h-188v-339q0 -34 14 -46.5t57 -17.5v-15h-224v15
q45 3 57 18.5t12 71.5v313h-69v32h71q3 66 12.5 102t31.5 68q21 29 53 46t66 17q40 0 83 -17q22 -8 30 -8q14 0 42 14q21 10 31 11l5 -2v-420l137 122q23 21 23 35q0 10 -10.5 13.5t-39.5 4.5v14h204v-15q-49 0 -86 -21.5t-130 -104.5l-29 -27l153 -194q31 -38 57.5 -54.5
t59.5 -18.5v-15z" />
    <glyph glyph-name="f_f" unicode="ff" horiz-adv-x="600" 
d="M389 579q-15 8 -30 32q-33 47 -71 47q-27 0 -51.5 -14.5t-37.5 -37.5q-17 -31 -17 -107v-6v-43h188q1 84 19 129zM650 621q0 -17 -12 -29t-30 -12q-24 0 -45 36q-24 39 -53 39q-57 0 -57 -89v-116h123v-33h-122v-313q0 -56 11.5 -70.5t55.5 -18.5v-15h-220v15
q50 4 59.5 18t9.5 71v313h-187v-329q0 -41 13.5 -55.5t55.5 -17.5v-15h-220v15q42 1 54.5 16t12.5 63v323h-68v33h69q4 60 14 93t33 65q54 75 170 75q86 0 116 -38q44 38 113 38q45 0 74.5 -17.5t29.5 -44.5z" />
    <glyph glyph-name="f_i" unicode="fi" horiz-adv-x="556" 
d="M521 0h-220v15q46 4 57.5 17.5t11.5 64.5v264q0 40 -14.5 48t-86.5 8h-86v-329q0 -41 13.5 -55.5t55.5 -17.5v-15h-220v15q42 1 54.5 16t12.5 63v323h-68v33h69q4 60 14 93t33 65q54 75 170 75q58 0 92.5 -19t34.5 -51q0 -17 -10 -28t-26 -11q-24 0 -49 37q-33 47 -71 47
q-27 0 -51.5 -14.5t-37.5 -37.5q-20 -37 -17 -107v-6v-43h157q50 0 113 10l4 -3l-2 -98v-262q0 -48 12.5 -63t54.5 -19v-15z" />
    <glyph glyph-name="f_l" unicode="fl" horiz-adv-x="556" 
d="M521 0h-215v15q39 3 53 17.5t14 51.5v334h-188v-339q0 -34 14 -46.5t57 -17.5v-15h-224v15q45 3 57 18.5t12 71.5v313h-69v32h71q3 66 12.5 102t31.5 68q21 29 53 46t66 17q40 0 83 -17q22 -8 30 -8q14 0 42 14q21 10 31 11l5 -2v-600q0 -39 11.5 -51t52.5 -15v-15z
M373 450v141q-6 -7 -16 -7q-30 0 -55 37q-23 35 -52 35q-65 0 -65 -154v-52h188z" />
    <glyph glyph-name="f_f_i" unicode="&#xfb00;i" horiz-adv-x="827" 
d="M398 574q-17 6 -39 37q-33 47 -71 47q-27 0 -51.5 -14.5t-37.5 -37.5q-17 -31 -17 -107v-6v-43h189q6 83 27 124zM792 0h-220v15q46 4 57.5 17.5t11.5 64.5v264q0 40 -14.5 48t-86.5 8h-86v-329q0 -41 13.5 -55.5t55.5 -17.5v-15h-220v15q42 1 54.5 16t12.5 63v323h-187
v-329q0 -41 13.5 -55.5t55.5 -17.5v-15h-220v15q42 1 54.5 16t12.5 63v323h-68v33h69q4 60 14 93t33 65q54 75 170 75q87 0 116 -38q6 -8 8 -11q53 49 147 49q58 0 92.5 -19t34.5 -51q0 -17 -10 -28t-26 -11q-24 0 -49 37q-33 47 -71 47q-27 0 -51.5 -14.5t-37.5 -37.5
q-17 -31 -17 -107v-6v-43h157q50 0 113 10l4 -3l-2 -98v-262q0 -48 12.5 -63t54.5 -19v-15z" />
    <glyph glyph-name="f_f_l" unicode="ffl" horiz-adv-x="827" 
d="M644 450v141q-6 -7 -16 -7q-30 0 -55 37q-23 35 -54 35q-65 0 -65 -154v-52h190zM392 577q-15 7 -33 34q-33 47 -71 47q-27 0 -51.5 -14.5t-37.5 -37.5q-17 -31 -17 -107v-6v-43h190q4 87 20 127zM792 0h-215v15q39 3 53 17.5t14 51.5v333h-190v-338q0 -34 14 -46.5
t57 -17.5v-15h-224v15q45 3 57 18.5t12 71.5v312h-187v-329q0 -41 13.5 -55.5t55.5 -17.5v-15h-220v15q42 1 54.5 16t12.5 63v323h-68v33h69q4 60 14 93t33 65q54 75 170 75q87 0 116 -38l2 -3q44 41 100 41q42 0 85 -17q22 -8 30 -8q14 0 42 14q21 10 31 11l5 -2v-600
q0 -39 11.5 -51t52.5 -15v-15z" />
    <glyph glyph-name=".notdef" horiz-adv-x="280" 
 />
    <glyph glyph-name=".null" horiz-adv-x="0" 
 />
    <glyph glyph-name="nonmarkingreturn" horiz-adv-x="333" 
 />
    <glyph glyph-name="space" unicode=" " horiz-adv-x="250" 
 />
    <glyph glyph-name="exclam" unicode="!" horiz-adv-x="333" 
d="M236 596q0 -13 -2 -37l-45 -383h-13l-9 108q-4 53 -17 138q-20 131 -20 177q0 35 14 56t39 21q53 0 53 -80zM237 43q0 -23 -15.5 -37.5t-39.5 -14.5q-22 0 -37 14.5t-15 37.5t15.5 39t37.5 16t38 -16t16 -39z" />
    <glyph glyph-name="quotedbl" unicode="&#x22;" horiz-adv-x="408" 
d="M331 636q0 -46 -25 -165l-7 -40h-21q-32 169 -32 204q0 17 12.5 29t30.5 12q17 0 29.5 -12t12.5 -28zM162 636q0 -46 -25 -165l-7 -40h-21q-32 169 -32 204q0 17 12.5 29t30.5 12q17 0 29.5 -12t12.5 -28z" />
    <glyph glyph-name="numbersign" unicode="#" 
d="M496 405h-105l-20 -134h100v-55h-109l-31 -216h-58l31 216h-134l-33 -216h-58l33 216h-107v55h116l21 134h-110v55h118l31 202h58l-31 -202h133l30 202h58l-30 -202h97v-55zM333 405h-133l-21 -134h134z" />
    <glyph glyph-name="dollar" unicode="$" 
d="M457 170q0 -73 -52 -117q-27 -22 -56.5 -33t-84.5 -20v-87h-34v87q-63 2 -102 12.5t-84 38.5v130h15q18 -79 59 -115.5t112 -37.5v282q-87 49 -122 83q-56 52 -56 119t54 110q25 19 50.5 28t73.5 14v63h34v-63q113 -13 161 -53v-111h-15q-13 64 -48 96.5t-98 40.5v-246
q91 -53 122.5 -76.5t50.5 -54.5q20 -33 20 -90zM229 407v230q-103 -21 -103 -103q0 -35 20.5 -60t82.5 -67zM378 146q0 46 -22 74.5t-92 72.5v-265q114 22 114 118z" />
    <glyph glyph-name="percent" unicode="%" horiz-adv-x="833" 
d="M783 186q0 -75 -36.5 -130.5t-97.5 -55.5q-67 0 -111.5 55t-44.5 130t44.5 130.5t111.5 55.5q61 0 97.5 -55t36.5 -130zM538 676l-191 -689h-45l173 626q-25 -18 -45 -24t-53 -6q-32 0 -66 8q28 -51 28 -116q0 -75 -36.5 -130.5t-97.5 -55.5q-67 0 -111.5 55t-44.5 130
t44.5 130.5t111.5 55.5q48 0 82 -36q38 -16 78 -16q48 0 78.5 15.5t56.5 52.5h38zM758 185q0 63 -24 108.5t-71 45.5q-45 0 -66.5 -45t-21.5 -109q0 -65 21.5 -110t66.5 -45q47 0 71 45.5t24 109.5zM314 474q0 87 -39 129q-27 12 -46 24q-4 1 -10 1q-45 0 -66.5 -45
t-21.5 -109q0 -65 21.5 -110t66.5 -45q47 0 71 45.5t24 109.5z" />
    <glyph glyph-name="ampersand" unicode="&#x26;" horiz-adv-x="778" 
d="M750 100q-22 -53 -62.5 -83t-88.5 -30q-82 0 -170 91q-56 -49 -105.5 -70t-110.5 -21q-80 0 -125.5 40.5t-45.5 111.5q0 126 157 216l38 22q-35 97 -35 145q0 64 45 109t109 45q59 0 97 -34t38 -87q0 -54 -34 -91q-36 -40 -121 -80q60 -117 132 -206q91 121 91 182
q0 23 -13.5 32t-50.5 13v21h216v-21q-38 -5 -57 -16.5t-37 -42.5l-26 -46q-40 -69 -100 -150q69 -92 154 -92q27 0 46.5 11.5t43.5 41.5zM438 559q0 37 -22.5 61t-57.5 24q-34 0 -55.5 -23t-21.5 -59q0 -62 40 -146q61 33 89 67t28 76zM404 104q-74 91 -152 239
q-65 -42 -91.5 -78.5t-26.5 -84.5q0 -58 38 -99.5t91 -41.5q59 0 141 65z" />
    <glyph glyph-name="quotesingle" unicode="'" horiz-adv-x="180" 
d="M133 636q0 -46 -25 -165l-7 -40h-21q-32 169 -32 204q0 17 12.5 29t30.5 12q17 0 29.5 -12t12.5 -28z" />
    <glyph glyph-name="parenleft" unicode="(" horiz-adv-x="333" 
d="M304 -161l-12 -16q-67 41 -119 102q-66 76 -95.5 154t-29.5 173q0 174 106 304q28 35 57 59.5t84 60.5l9 -16q-54 -43 -81.5 -76.5t-48.5 -79.5q-40 -92 -40 -249q0 -145 35 -243q20 -56 47.5 -90.5t87.5 -82.5z" />
    <glyph glyph-name="parenright" unicode=")" horiz-adv-x="333" 
d="M285 247q0 -174 -106 -304q-28 -35 -57 -59.5t-84 -60.5l-9 16q54 44 81.5 77t48.5 80q40 90 40 248q0 145 -35 243q-21 56 -48 91t-87 82l12 16q67 -41 119 -102q66 -76 95.5 -153.5t29.5 -173.5z" />
    <glyph glyph-name="asterisk" unicode="*" 
d="M432 387q0 -17 -9.5 -27t-25.5 -10q-25 0 -60 43q-39 47 -70 60l-7 3v-7q0 -58 20 -112q8 -21 8 -32q0 -16 -11.5 -28t-27.5 -12q-14 0 -24.5 11t-10.5 26q0 18 11 46q20 52 17 84l-1 17v7q-40 -25 -52 -36q-11 -9 -42 -45q-21 -24 -42 -24q-36 0 -36 35q0 19 14 29
t48 16q35 7 53.5 14t49.5 26l-11 7q-28 19 -86 30q-68 13 -68 47q0 15 10 25.5t24 10.5q21 0 48 -32q43 -47 90 -73v13q0 41 -15 91q-10 35 -10 51q0 15 10 25t25 10t25.5 -10.5t10.5 -26.5q0 -14 -10 -46q-17 -48 -17 -83v-26l7 4q34 19 72 64q35 41 56 41q16 0 26 -11
t10 -28q0 -19 -11.5 -28.5t-39.5 -13.5q-53 -8 -112 -42l8 -5q41 -25 97 -34q33 -5 46 -15t13 -29z" />
    <glyph glyph-name="plus" unicode="+" horiz-adv-x="564" 
d="M524 217h-209v-209h-66v209h-209v66h209v209h66v-209h209v-66z" />
    <glyph glyph-name="comma" unicode="," horiz-adv-x="250" 
d="M195 13q0 -45 -31 -87t-81 -67l-9 19q82 56 82 106q0 14 -14 14q-1 0 -8 -2q-12 -2 -19 -2q-27 0 -43 13.5t-16 37.5q0 25 16.5 41t42.5 16q34 0 57 -25.5t23 -63.5z" />
    <glyph glyph-name="hyphen" unicode="-" horiz-adv-x="333" 
d="M285 194h-246v63h246v-63z" />
    <glyph glyph-name="period" unicode="." horiz-adv-x="250" 
d="M181 43q0 -22 -17 -38t-40 -16q-22 0 -38 16t-16 38q0 23 16.5 40t38.5 17q23 0 39.5 -17t16.5 -40z" />
    <glyph glyph-name="slash" unicode="/" horiz-adv-x="278" 
d="M287 676l-228 -690h-68l229 690h67z" />
    <glyph glyph-name="zero" unicode="0" 
d="M476 330q0 -91 -26.5 -171t-69.5 -121q-53 -52 -130 -52q-89 0 -146 68q-35 42 -57.5 121t-22.5 161q0 88 26.5 167t69.5 121q55 52 134 52q98 0 160 -96t62 -250zM380 328q0 157 -33 239.5t-96 82.5q-131 0 -131 -323q0 -315 130 -315t130 316z" />
    <glyph glyph-name="one" unicode="1" 
d="M394 0h-276v15q51 1 71 13q24 14 24 65v453q0 47 -30 47q-17 0 -45 -11q-2 -1 -6 -2.5t-10 -4t-11 -4.5v14l180 91l8 -2v-600q0 -36 18 -47t77 -12v-15z" />
    <glyph glyph-name="two" unicode="2" 
d="M475 137l-55 -137h-390v12l178 189q130 138 130 260q0 63 -39 102t-102 39q-52 0 -83.5 -28.5t-61.5 -101.5l-21 5q22 93 64 137q57 62 144 62q78 0 131.5 -51t53.5 -126q0 -113 -128 -247l-168 -176h239q34 0 50.5 11.5t44.5 54.5z" />
    <glyph glyph-name="three" unicode="3" 
d="M432 219q0 -102 -73 -166q-35 -31 -90 -49t-113 -18q-52 0 -82.5 15.5t-30.5 41.5q0 16 10.5 25.5t27.5 9.5q22 0 64 -25q48 -31 84 -31q55 0 93 43t38 106q0 52 -27 91.5t-74 56.5q-29 11 -106 11v13q88 31 126 69q40 40 40 97q0 47 -30.5 77t-79.5 30
q-47 0 -82.5 -25.5t-66.5 -80.5l-15 4q29 79 67 113q55 49 130 49q69 0 112.5 -38t43.5 -99q0 -41 -21 -72t-73 -66q57 -25 83 -53q45 -48 45 -129z" />
    <glyph glyph-name="four" unicode="4" 
d="M472 167h-102v-167h-77v167h-281v64l314 445h44v-445h102v-64zM292 231v343l-240 -343h240z" />
    <glyph glyph-name="five" unicode="5" 
d="M438 681l-38 -89q-4 -9 -23 -9h-196l-42 -85q88 -16 137 -35.5t82 -52.5q38 -38 53.5 -76t15.5 -92q0 -112 -67 -178q-76 -78 -206 -78q-56 0 -89 16.5t-33 45.5q0 37 43 37q30 0 76 -33q40 -29 67 -29q59 0 99 49.5t40 121.5q0 74 -41 122t-127 76q-63 20 -113 20
q-12 0 -12 8q0 3 1 5l109 237h209q16 0 25.5 5t20.5 21z" />
    <glyph glyph-name="six" unicode="6" 
d="M468 219q0 -103 -58.5 -168t-151.5 -65q-95 0 -154 68q-32 37 -51 98.5t-19 126.5q0 206 167 325q55 38 107.5 55.5t137.5 24.5l2 -16q-118 -19 -197 -95.5t-99 -189.5q47 28 71 36.5t57 8.5q86 0 137 -56.5t51 -152.5zM378 185q0 94 -35.5 145.5t-100.5 51.5
q-54 0 -87 -25q-28 -21 -28 -94q0 -116 38 -182.5t104 -66.5q53 0 81 44.5t28 126.5z" />
    <glyph glyph-name="seven" unicode="7" 
d="M449 646l-212 -654h-65l198 596h-217q-41 0 -62.5 -15t-53.5 -66l-17 8l59 147h370v-16z" />
    <glyph glyph-name="eight" unicode="8" 
d="M445 155q0 -77 -53.5 -123t-143.5 -46q-85 0 -138.5 46t-53.5 119q0 51 24.5 85.5t105.5 95.5q-79 69 -101.5 103t-22.5 83q0 68 54 113t136 45q75 0 123.5 -40t48.5 -102q0 -51 -30 -87t-104 -76q90 -67 122.5 -112.5t32.5 -103.5zM369 124q0 42 -21 73.5t-76 70.5
l-60 44q-44 -35 -62 -70t-18 -83q0 -65 35 -105t92 -40q49 0 79.5 30.5t30.5 79.5zM355 535q0 52 -30 82.5t-81 30.5q-47 0 -77.5 -28t-30.5 -71q0 -42 29 -79t96 -81q4 3 9 6q85 57 85 140z" />
    <glyph glyph-name="nine" unicode="9" 
d="M459 394q0 -101 -43.5 -189.5t-121.5 -145.5q-51 -37 -101 -54t-134 -27l-3 20q114 20 193.5 97t110.5 199q-74 -57 -150 -57q-81 0 -130.5 56t-49.5 147q0 101 59.5 168.5t148.5 67.5q97 0 159 -79t62 -203zM362 355v39q0 254 -132 254q-45 0 -71 -31
q-16 -20 -26.5 -60.5t-10.5 -82.5q0 -89 33.5 -141.5t90.5 -52.5q58 0 101 37q15 12 15 38z" />
    <glyph glyph-name="colon" unicode=":" horiz-adv-x="278" 
d="M192 402q0 -22 -17 -38t-40 -16q-22 0 -38 16t-16 38q0 23 16.5 40t38.5 17q23 0 39.5 -17t16.5 -40zM192 43q0 -22 -17 -38t-40 -16q-22 0 -38 16t-16 38q0 23 16.5 40t38.5 17q23 0 39.5 -17t16.5 -40z" />
    <glyph glyph-name="semicolon" unicode=";" horiz-adv-x="278" 
d="M219 13q0 -45 -30 -87t-82 -67l-9 19q82 56 82 106q0 14 -14 14q-1 0 -8 -2q-12 -2 -19 -2q-28 0 -43.5 13.5t-15.5 38.5t16.5 40.5t42.5 15.5q34 0 57 -25.5t23 -63.5zM192 402q0 -22 -17 -38t-40 -16q-22 0 -38 16t-16 38q0 23 16.5 40t38.5 17q23 0 39.5 -17t16.5 -40
z" />
    <glyph glyph-name="less" unicode="&#x3c;" horiz-adv-x="564" 
d="M484 13l-419 207v60l419 207v-74l-330 -163l330 -163v-74z" />
    <glyph glyph-name="equal" unicode="=" horiz-adv-x="564" 
d="M524 300h-484v66h484v-66zM524 134h-484v66h484v-66z" />
    <glyph glyph-name="greater" unicode="&#x3e;" horiz-adv-x="564" 
d="M484 220l-419 -207v74l330 163l-330 163v74l419 -207v-60z" />
    <glyph glyph-name="question" unicode="?" horiz-adv-x="444" 
d="M414 521q0 -57 -45 -126q-14 -21 -60 -77q-50 -64 -65 -154h-17q2 69 30 142l28 64q37 85 37 156q0 50 -31.5 85t-76.5 35q-37 0 -66 -19t-29 -43q0 -11 17 -31q21 -24 21 -43q0 -18 -11.5 -29.5t-29.5 -11.5q-48 0 -48 62t46.5 103.5t115.5 41.5q41 0 81.5 -16t66.5 -42
q36 -36 36 -97zM291 44q0 -23 -15.5 -37.5t-39.5 -14.5q-22 0 -37 14.5t-15 36.5q0 24 15 40t38 16q22 0 38 -16.5t16 -38.5z" />
    <glyph glyph-name="at" unicode="@" horiz-adv-x="921" 
d="M809 383q0 -97 -55 -168.5t-129 -71.5q-36 0 -61.5 20t-29.5 53q-54 -72 -125 -72q-37 0 -62.5 32.5t-25.5 79.5q0 55 22 108.5t62 93.5q50 50 112 50q26 0 40.5 -10.5t31.5 -41.5l10 38h69l-65 -254q-2 -12 -2 -18q0 -46 39 -46q49 0 89 61t40 136q0 112 -84.5 192
t-202.5 80q-113 0 -189 -76q-43 -44 -68 -110t-25 -136q0 -130 82 -214t210 -84q89 0 196 48l12 -30q-73 -33 -118.5 -45t-98.5 -12q-155 0 -261 98t-106 242q0 146 106.5 248t258.5 102q139 0 233.5 -84.5t94.5 -208.5zM572 399q3 62 -41 65q-40 3 -87 -50
q-52 -58 -52 -142q0 -39 16 -62t44 -23q44 0 75 58q42 75 45 154z" />
    <glyph glyph-name="A" unicode="A" horiz-adv-x="722" 
d="M706 0h-255v19q41 0 56 9q14 7 14 24q0 24 -19 68l-41 96h-262l-46 -117q-8 -21 -8 -39q0 -41 68 -41v-19h-198v19q36 2 56 28.5t68 135.5l208 491h20l249 -568q26 -56 41 -70.5t49 -16.5v-19zM447 257l-116 275l-115 -275h231z" />
    <glyph glyph-name="B" unicode="B" horiz-adv-x="667" 
d="M593 180q0 -75 -56 -125q-60 -55 -186 -55h-334v19q62 2 79 18t17 72v444q0 55 -16.5 70.5t-79.5 19.5v19h280q262 0 262 -170q0 -65 -40 -100q-32 -28 -97 -44q49 -12 74.5 -23.5t47.5 -31.5q49 -46 49 -113zM478 179q0 92 -84 127q-48 20 -179 20v-248q0 -24 13 -32.5
t50 -8.5q93 0 139 26q61 35 61 116zM457 488q0 67 -45 102t-131 35h-44q-22 0 -22 -30v-229h95q70 0 108.5 31.5t38.5 90.5z" />
    <glyph glyph-name="C" unicode="C" horiz-adv-x="667" 
d="M633 113q-46 -61 -117 -94t-156 -33q-149 0 -240.5 93.5t-91.5 245.5q0 175 117 272q96 79 217 79q74 0 147 -24q24 -9 40 -9q32 0 41 33h21l9 -226h-23q-14 49 -28 75t-38 50q-61 61 -149 61q-109 0 -173.5 -81t-64.5 -217q0 -179 92 -255q64 -53 156 -53q118 0 223 101
z" />
    <glyph glyph-name="D" unicode="D" horiz-adv-x="722" 
d="M685 334q0 -152 -102 -245q-46 -42 -121 -65.5t-162 -23.5h-284v19q57 4 72.5 20t15.5 70v444q0 55 -14.5 70t-73.5 20v19h270q211 0 314 -105q85 -85 85 -223zM576 327q0 166 -119 248q-71 50 -199 50q-31 0 -41.5 -8t-10.5 -31v-508q0 -24 11 -32.5t41 -8.5
q124 0 196 41q122 71 122 249z" />
    <glyph glyph-name="E" unicode="E" horiz-adv-x="611" 
d="M597 169l-45 -169h-540v19q55 4 71 20.5t16 69.5v444q0 53 -15.5 69t-71.5 21v19h531l3 -143h-25q-13 67 -40 86t-112 19h-135q-20 0 -26.5 -6.5t-6.5 -27.5v-222h154q61 0 80.5 17t29.5 78h23v-232h-23q-10 62 -29 79t-81 17h-154v-247q0 -27 8 -32q14 -11 97 -11h27
q107 0 153 25.5t83 106.5h28z" />
    <glyph glyph-name="F" unicode="F" horiz-adv-x="556" 
d="M546 519h-25q-13 67 -40 86t-112 19h-136q-20 0 -26 -6.5t-6 -27.5v-222h145q60 0 80.5 17.5t29.5 77.5h23v-232h-23q-9 61 -29 78.5t-81 17.5h-145v-218q0 -54 16.5 -70.5t74.5 -19.5v-19h-280v19q57 4 72 21.5t15 79.5v433q0 53 -16 69.5t-71 20.5v19h531z" />
    <glyph glyph-name="G" unicode="G" horiz-adv-x="722" 
d="M709 336q-44 -4 -57 -18.5t-13 -58.5v-203q-30 -26 -108.5 -48t-142.5 -22q-169 0 -273 107q-83 87 -83 232q0 153 96.5 252t246.5 99q67 0 136 -23q26 -10 44 -10q16 0 28 9.5t17 23.5h22l8 -211h-23q-33 81 -71 116q-60 55 -144 55q-106 0 -174 -76
q-33 -37 -52.5 -100.5t-19.5 -133.5q0 -139 70.5 -219.5t192.5 -80.5q54 0 93.5 17.5t39.5 41.5v162q0 62 -21 75q-16 10 -67 14v18h255v-18z" />
    <glyph glyph-name="H" unicode="H" horiz-adv-x="722" 
d="M702 0h-278v19q58 4 73 21t15 80v195h-303v-206q0 -53 16 -69t72 -21v-19h-278v19q58 4 73 21t15 80v433q0 54 -15 69.5t-73 20.5v19h278v-19q-58 -5 -73 -20.5t-15 -69.5v-194h303v194q0 54 -15 69.5t-73 20.5v19h278v-19q-58 -5 -73 -20.5t-15 -69.5v-444q0 -53 16 -69
t72 -21v-19z" />
    <glyph glyph-name="I" unicode="I" horiz-adv-x="333" 
d="M315 0h-297v19q63 2 80 18t17 72v444q0 55 -16.5 70.5t-80.5 19.5v19h297v-19q-63 -3 -80.5 -19t-17.5 -71v-444q0 -55 18 -71.5t80 -18.5v-19z" />
    <glyph glyph-name="J" unicode="J" horiz-adv-x="389" 
d="M370 643q-61 -4 -76.5 -19.5t-15.5 -70.5v-370q0 -94 -44 -145.5t-125 -51.5q-43 0 -71 20t-28 52q0 20 14.5 35t34.5 15q37 0 52 -51q5 -19 11 -26t16 -7q38 0 38 66v463q0 55 -16 70.5t-77 19.5v19h287v-19z" />
    <glyph glyph-name="K" unicode="K" horiz-adv-x="722" 
d="M723 0h-305v19q12 1 28 1q42 2 42 22q0 18 -36.5 66t-93.5 104l-106 105l-26 -21v-187q0 -55 16 -70.5t74 -19.5v-19h-282v19q59 4 74.5 21.5t15.5 79.5v433q0 53 -16 69.5t-74 20.5v19h284v-19q-61 -4 -76.5 -19.5t-15.5 -70.5v-205l177 161q78 72 78 103
q0 15 -9.5 21.5t-32.5 8.5q-14 0 -26 1v19h262v-19q-51 -4 -76 -16.5t-76 -61.5l-190 -188l233 -250q68 -73 93 -90t64 -18v-19z" />
    <glyph glyph-name="L" unicode="L" horiz-adv-x="611" 
d="M598 174l-48 -174h-538v19q55 4 71 20.5t16 69.5v444q0 53 -15.5 69t-71.5 21v19h282v-19q-59 -4 -76 -20.5t-17 -69.5v-473q0 -26 15.5 -33.5t70.5 -7.5h67q125 0 176 61q19 22 43 74h25z" />
    <glyph glyph-name="M" unicode="M" horiz-adv-x="889" 
d="M863 0h-280v19q59 4 75 21.5t16 79.5v453l-256 -573h-14l-251 550v-403q0 -76 18 -100.5t76 -27.5v-19h-235v19q62 4 79.5 27.5t17.5 100.5v406q0 55 -16.5 70.5t-78.5 19.5v19h198l231 -505l221 505h199v-19q-56 -5 -71.5 -21t-15.5 -69v-444q0 -53 16 -69.5t71 -20.5
v-19z" />
    <glyph glyph-name="N" unicode="N" horiz-adv-x="722" 
d="M707 643q-48 -5 -66 -18q-29 -20 -29 -110v-526h-17l-442 550v-392q0 -76 18 -100.5t76 -27.5v-19h-235v19q62 4 79.5 27.5t17.5 100.5v441q-30 35 -47.5 45t-49.5 10v19h171l385 -484v337q0 92 -29 112q-21 12 -67 16v19h235v-19z" />
    <glyph glyph-name="O" unicode="O" horiz-adv-x="722" 
d="M688 327q0 -151 -92.5 -246t-240.5 -95q-66 0 -128.5 27.5t-106.5 74.5q-40 43 -63 107.5t-23 135.5q0 151 92 248t235 97q147 0 243 -105q84 -92 84 -244zM574 328q0 185 -85 262q-56 50 -128 50q-84 0 -143 -65q-32 -35 -51 -102.5t-19 -143.5q0 -83 23 -153.5
t62 -104.5q55 -49 126 -49q80 0 133 53q36 35 49 73q33 86 33 180z" />
    <glyph glyph-name="P" unicode="P" horiz-adv-x="556" 
d="M542 481q0 -50 -25.5 -92.5t-70.5 -66.5q-61 -34 -175 -34q-30 0 -69 3v-182q0 -55 17.5 -71.5t76.5 -18.5v-19h-280v19q57 5 70.5 21.5t13.5 79.5v433q0 54 -14 69t-70 21v19h264q71 0 131 -19.5t90 -52.5q41 -44 41 -109zM433 475q0 77 -48 113.5t-149 36.5
q-20 0 -27 -7t-7 -27v-260q35 -3 57 -3q174 0 174 147z" />
    <glyph glyph-name="Q" unicode="Q" horiz-adv-x="722" 
d="M701 -177h-6q-11 -1 -35 -1q-243 0 -348 122l-47 55q-53 18 -82.5 36t-59.5 50q-89 97 -89 244q0 152 92 249.5t235 97.5t235 -97t92 -248q0 -168 -112 -268q-35 -30 -67 -45t-83 -25q61 -80 125.5 -116t149.5 -36v-18zM574 333q0 85 -23 153t-63 104q-56 50 -124 50
q-85 0 -146 -65q-31 -35 -50.5 -101.5t-19.5 -138.5q0 -88 22.5 -158.5t62.5 -105.5q55 -49 128 -49q86 0 144 64q30 35 49.5 104t19.5 143z" />
    <glyph glyph-name="R" unicode="R" horiz-adv-x="667" 
d="M659 0h-161l-238 308l-56 -2v-197q0 -54 16 -70t74 -20v-19h-277v19q56 4 70.5 21.5t14.5 79.5v433q0 53 -14.5 68.5t-70.5 21.5v19h276q70 0 128 -18t87 -49q39 -44 39 -109q0 -74 -51 -115q-43 -35 -130 -52l206 -253q21 -25 39.5 -35t47.5 -12v-19zM438 488
q0 70 -44.5 103.5t-138.5 33.5q-30 0 -40.5 -7.5t-10.5 -28.5v-246q73 2 108 8.5t69 25.5q57 30 57 111z" />
    <glyph glyph-name="S" unicode="S" horiz-adv-x="556" 
d="M491 168q0 -77 -58.5 -129.5t-145.5 -52.5q-60 0 -118 23q-30 11 -47 11q-11 0 -19 -9.5t-9 -23.5h-22l-30 212h23q38 -92 86.5 -134.5t115.5 -42.5q55 0 89 31t34 81q0 37 -14 59q-37 56 -149 117q-84 44 -120 89t-36 105q0 82 58 130q52 42 113 42q50 0 108 -22
q27 -12 44 -12q26 0 32 34h21l22 -213h-25q-20 75 -61 117q-53 55 -122 55q-47 0 -75.5 -25.5t-28.5 -66.5t34 -77t113 -79q99 -54 143 -105.5t44 -113.5z" />
    <glyph glyph-name="T" unicode="T" horiz-adv-x="611" 
d="M593 492h-24q-17 83 -45.5 105.5t-113.5 22.5h-54v-511q0 -55 17 -71t79 -19v-19h-292v19q62 4 78 20.5t16 80.5v500h-54q-84 0 -112.5 -23t-46.5 -105h-24l6 170h564z" />
    <glyph glyph-name="U" unicode="U" horiz-adv-x="722" 
d="M705 643q-62 -8 -78 -30t-16 -98v-261q0 -107 -33 -165q-59 -103 -223 -103q-128 0 -189.5 62.5t-61.5 192.5v312q0 55 -15.5 70t-74.5 20v19h283v-19q-60 -5 -75.5 -20.5t-15.5 -69.5v-320q0 -88 25 -132q41 -71 147 -71q56 0 101 21.5t65 57.5q23 43 23 136v270
q0 75 -18 99.5t-76 28.5v19h232v-19z" />
    <glyph glyph-name="V" unicode="V" horiz-adv-x="722" 
d="M697 643q-36 -2 -51.5 -18t-40.5 -75l-222 -561h-15l-246 549q-32 67 -50.5 85.5t-55.5 19.5v19h266v-19q-28 -2 -29 -2q-46 -3 -46 -31q0 -20 41 -111l151 -338l147 367q19 48 19 73q0 21 -16 30.5t-57 11.5v19h205v-19z" />
    <glyph glyph-name="W" unicode="W" horiz-adv-x="944" 
d="M932 643q-40 -8 -54.5 -20t-28.5 -51l-204 -583h-15l-160 423l-154 -423h-15l-193 537q-28 71 -46.5 92t-56.5 25v19h245v-19q-38 -2 -51.5 -8.5t-13.5 -23.5q0 -18 11 -46l144 -376l107 282l-33 82q-26 60 -42 74.5t-59 15.5v19h267v-19q-77 -1 -77 -35q0 -16 15 -51
l12 -30l132 -341l125 339q16 45 16 75q0 20 -15.5 29.5t-53.5 13.5v19h198v-19z" />
    <glyph glyph-name="X" unicode="X" horiz-adv-x="722" 
d="M704 0h-297v19q24 2 27 2q50 1 50 29q0 22 -51 98l-95 140l-119 -148q-52 -65 -52 -86q0 -17 16 -24.5t60 -10.5v-19h-233v19q38 3 58 18.5t87 95.5l157 193l-109 160q-73 104 -102.5 129.5t-78.5 27.5v19h302v-19l-28 -1q-48 -1 -48 -29q0 -32 85 -150l42 -59l113 138
q40 50 40 69q0 17 -14.5 23.5t-55.5 8.5v19h238v-19q-48 -3 -74 -19.5t-75 -74.5l-146 -182l192 -274q32 -43 51.5 -56t59.5 -18v-19z" />
    <glyph glyph-name="Y" unicode="Y" horiz-adv-x="722" 
d="M703 643q-38 -3 -65 -25.5t-73 -88.5l-148 -226v-194q0 -57 18 -72.5t85 -17.5v-19h-306v19q68 3 84.5 19.5t16.5 81.5v174l-131 192q-75 106 -100.5 131t-61.5 26v19h280v-19q-11 -1 -25 -1q-46 -3 -46 -29q0 -19 17 -44l148 -222l143 226q14 23 14 37q0 18 -15 25
t-54 8v19h219v-19z" />
    <glyph glyph-name="Z" unicode="Z" horiz-adv-x="611" 
d="M597 176l-24 -176h-564v15l437 609h-221q-100 0 -134 -43q-23 -28 -34 -90h-26l20 171h526v-15l-432 -609h257q88 0 125 39q25 28 47 99h23z" />
    <glyph glyph-name="bracketleft" unicode="[" horiz-adv-x="333" 
d="M299 -156h-211v818h211v-25h-90q-24 0 -34.5 -10.5t-10.5 -33.5v-672q0 -52 49 -52h86v-25z" />
    <glyph glyph-name="backslash" unicode="\" horiz-adv-x="278" 
d="M287 -14h-68l-228 690h67z" />
    <glyph glyph-name="bracketright" unicode="]" horiz-adv-x="333" 
d="M245 -156h-211v25h90q45 0 45 44v672q0 52 -49 52h-86v25h211v-818z" />
    <glyph glyph-name="asciicircum" unicode="^" horiz-adv-x="469" 
d="M446 297h-68l-143 289l-143 -289h-68l181 365h60z" />
    <glyph glyph-name="underscore" unicode="_" 
d="M500 -125h-500v50h500v-50z" />
    <glyph glyph-name="grave" unicode="`" horiz-adv-x="333" 
d="M240 504h-40l-154 97q-30 19 -30 42q0 32 35 32q19 0 42 -23z" />
    <glyph glyph-name="a" unicode="a" horiz-adv-x="444" 
d="M442 40q-26 -29 -45.5 -39.5t-44.5 -10.5q-31 0 -45.5 16.5t-18.5 56.5q-86 -73 -146 -73q-46 0 -75.5 30t-29.5 77q0 54 36 87q32 28 64.5 44.5t149.5 63.5v61q0 83 -76 83q-30 0 -51 -14.5t-21 -34.5q0 -11 3 -24q2 -14 2 -16q0 -17 -13.5 -29.5t-31.5 -12.5t-30.5 13
t-12.5 30q0 41 41 75q45 37 127 37q93 0 125 -58q19 -31 19 -102v-195q0 -33 6.5 -45.5t23.5 -12.5q21 0 44 19v-26zM287 123v145q-90 -33 -126 -64t-36 -75v-4q0 -32 18.5 -54.5t44.5 -22.5q35 0 73 22q16 10 21 20t5 33z" />
    <glyph glyph-name="b" unicode="b" 
d="M468 243q0 -107 -67.5 -180t-166.5 -73q-60 0 -112.5 20.5t-52.5 43.5v519q0 31 -9.5 41t-39.5 10q-11 0 -17 -1v16l29 8q67 19 116 36l5 -2v-306q15 37 54 61t85 24q75 0 125.5 -62.5t50.5 -154.5zM380 197q0 91 -34.5 145.5t-93.5 54.5q-39 0 -69 -23t-30 -52v-252
q0 -19 29 -33.5t68 -14.5q62 0 96 46t34 129z" />
    <glyph glyph-name="c" unicode="c" horiz-adv-x="444" 
d="M412 147q-43 -84 -82 -115q-51 -42 -115 -42q-83 0 -136.5 62.5t-53.5 159.5q0 127 84 197q62 51 135 51q63 0 108.5 -30.5t45.5 -72.5q0 -17 -14 -29.5t-33 -12.5q-35 0 -48 46l-6 22q-8 28 -20 38t-39 10q-61 0 -98.5 -48t-37.5 -126q0 -86 43 -140.5t112 -54.5
q43 0 74 20.5t67 73.5z" />
    <glyph glyph-name="d" unicode="d" 
d="M491 42l-147 -52l-4 3v64q-48 -67 -128 -67q-83 0 -134 59.5t-51 155.5q0 106 61 180.5t147 74.5q54 0 105 -43v156q0 31 -9 41t-37 10q-14 0 -22 -1v16q91 24 147 44l5 -2v-567q0 -35 8.5 -46t35.5 -11q5 0 23 1v-16zM340 102v230q0 40 -31 70t-71 30q-57 0 -91 -51
t-34 -136q0 -92 38 -147.5t100 -55.5q45 0 72 30q17 19 17 30z" />
    <glyph glyph-name="e" unicode="e" horiz-adv-x="444" 
d="M424 157q-65 -167 -212 -167q-86 0 -136.5 60.5t-50.5 163.5q0 109 58 177.5t151 68.5q80 0 128 -57q33 -42 43 -126h-308q3 -85 30 -138q43 -80 126 -80q48 0 83.5 24t71.5 81zM303 309q-10 65 -31 90t-67 25q-90 0 -106 -115h204z" />
    <glyph glyph-name="f" unicode="f" horiz-adv-x="333" 
d="M383 621q0 -17 -12 -29t-30 -12q-24 0 -45 36q-24 39 -53 39q-57 0 -57 -89v-116h123v-32h-122v-314q0 -56 16 -71.5t77 -17.5v-15h-260v15q54 3 68.5 18.5t14.5 70.5v314h-82v32h82q1 60 8 93.5t27 67.5q42 72 141 72q45 0 74.5 -17.5t29.5 -44.5z" />
    <glyph glyph-name="g" unicode="g" 
d="M470 388h-83q19 -43 19 -84q0 -72 -48 -113q-48 -42 -108 -42q-10 0 -38 3q-1 0 -19 2q-20 -6 -40 -27t-20 -36q0 -24 78 -27l129 -6q55 -2 88 -31t33 -76q0 -56 -55 -101q-84 -68 -205 -68q-71 0 -122 28.5t-51 68.5q0 28 22.5 55.5t75.5 66.5q-31 15 -42 26t-11 27
q0 29 46 69l43 40q-50 25 -71.5 56t-21.5 78q0 68 48.5 115.5t118.5 47.5q40 0 80 -15l22 -8q29 -10 55 -10h77v-39zM433 -64q0 27 -28 38t-96 11q-101 0 -162 13q-31 -37 -40 -53t-9 -33q0 -33 40 -53t106 -20q85 0 137 27t52 70zM329 265q0 62 -30 120q-25 47 -73 47
q-35 0 -54.5 -25t-19.5 -69v-3q0 -72 28.5 -116.5t73.5 -44.5q35 0 55 24.5t20 66.5z" />
    <glyph glyph-name="h" unicode="h" 
d="M487 0h-212v15q43 4 55.5 20t12.5 67v198q0 106 -75 106q-29 0 -54.5 -14.5t-56.5 -48.5v-241q0 -52 12 -67t56 -20v-15h-216v15q43 6 53.5 20t10.5 67v471q0 32 -9.5 41.5t-41.5 9.5q-8 0 -12 -1v16l27 8q68 19 115 36l5 -3v-304q35 45 69 64.5t78 19.5q123 0 123 -159
v-199q0 -52 9.5 -65.5t50.5 -21.5v-15z" />
    <glyph glyph-name="i" unicode="i" horiz-adv-x="278" 
d="M253 0h-237v15q52 3 65.5 18t13.5 69v232q0 33 -7.5 46.5t-25.5 13.5q-16 0 -34 -3l-8 -1v15l155 55l4 -3v-355q0 -54 12.5 -68.5t61.5 -18.5v-15zM188 590q0 -22 -14.5 -36.5t-36.5 -14.5q-21 0 -36 14.5t-15 36.5q0 21 15 36t36 15q22 0 36.5 -15t14.5 -36z" />
    <glyph glyph-name="j" unicode="j" horiz-adv-x="278" 
d="M193 0q0 -107 -43.5 -162.5t-126.5 -55.5q-41 0 -67 15.5t-26 39.5q0 16 12 27.5t29 11.5q23 0 48 -32q23 -28 42 -28q23 0 34 18q14 25 14 121v379q0 60 -32 60q-16 0 -40 -3l-5 -1v16q80 25 156 54l5 -3v-457zM202 590q0 -22 -14.5 -36.5t-36.5 -14.5q-21 0 -36 14.5
t-15 36.5q0 21 15 36t36 15q22 0 36.5 -15t14.5 -36z" />
    <glyph glyph-name="k" unicode="k" 
d="M505 0h-218v15h19q21 0 21 15q0 7 -11 21q-3 3 -7 9l-3 4l-140 187v-184q0 -26 12.5 -38t42.5 -13l20 -1v-15h-234v15q54 9 64.5 18.5t10.5 48.5v482q0 36 -9 48.5t-34 12.5q-6 0 -32 -2v16l30 8l125 36l4 -2v-420l137 122q23 20 23 34q0 10 -10.5 14t-39.5 5v14h204v-15
h-8q-24 0 -46 -6q-47 -13 -162 -120l-29 -27l153 -194q31 -38 57.5 -54.5t59.5 -18.5v-15z" />
    <glyph glyph-name="l" unicode="l" horiz-adv-x="278" 
d="M257 0h-236v15q47 4 62 18t15 54v477q0 35 -9 48t-33 13q-9 0 -31 -2h-6v16q99 24 159 44l4 -2v-597q0 -41 13.5 -53.5t61.5 -15.5v-15z" />
    <glyph glyph-name="m" unicode="m" horiz-adv-x="778" 
d="M775 0h-219v15q44 5 55 17t11 55v211q0 62 -16 86t-59 24q-66 0 -109 -61v-252q0 -47 14.5 -63t57.5 -17v-15h-224v15q43 3 55.5 16t12.5 55v217q0 105 -66 105q-26 0 -55 -11.5t-48 -28.5l-15 -19v-282q0 -29 14 -39.5t54 -12.5v-15h-222v15q42 1 56 15t14 55v253
q0 36 -7.5 50t-27.5 14q-15 0 -32 -4v17q72 20 140 45l7 -2v-75q62 47 92 62t63 15q79 0 106 -84q78 84 163 84q116 0 116 -178v-206q0 -56 43 -59l26 -2v-15z" />
    <glyph glyph-name="n" unicode="n" 
d="M485 0h-208v15q38 3 50.5 20t12.5 64v209q0 97 -73 97q-25 0 -46 -11.5t-57 -45.5v-281q0 -27 14 -38t52 -14v-15h-212v15q38 3 50 17.5t12 57.5v248q0 37 -8 50.5t-29 13.5q-19 0 -27 -4v17q74 22 138 45l7 -2v-79q51 48 80.5 64.5t64.5 16.5q55 0 86.5 -39.5
t31.5 -110.5v-229q0 -37 12 -49.5t49 -16.5v-15z" />
    <glyph glyph-name="o" unicode="o" 
d="M470 234q0 -104 -64 -174t-158 -70t-156.5 67.5t-62.5 168.5q0 103 61.5 168.5t159.5 65.5q96 0 158 -64t62 -162zM380 199q0 103 -40 168t-103 65q-53 0 -85.5 -43t-32.5 -114q0 -111 44 -193q34 -64 97 -64q56 0 88 48t32 133z" />
    <glyph glyph-name="p" unicode="p" 
d="M470 247q0 -109 -60.5 -183t-149.5 -74q-32 0 -53.5 9t-47.5 34v-157q0 -47 16 -60.5t72 -14.5v-18h-242v17q44 4 57 17t13 52v468q0 35 -8 46t-33 11q-16 0 -25 -1v16q63 19 144 51l6 -2v-77q64 79 144 79q73 0 120 -60t47 -153zM384 208q0 87 -33.5 139.5t-89.5 52.5
q-35 0 -68.5 -22t-33.5 -44v-246q0 -22 34.5 -44t69.5 -22q54 0 87.5 51.5t33.5 134.5z" />
    <glyph glyph-name="q" unicode="q" 
d="M488 -217h-236v17q53 4 71 19t18 57v188q-68 -74 -157 -74q-70 0 -115 60t-45 155q0 108 63.5 182t157.5 74q54 0 115 -36l54 32h11v-598q0 -32 11 -42.5t52 -19.5v-14zM341 127v206q0 100 -93 100q-64 0 -101 -51.5t-37 -140.5q0 -50 14.5 -94t38.5 -66q30 -30 78 -30
q50 0 86 31q14 11 14 45z" />
    <glyph glyph-name="r" unicode="r" horiz-adv-x="333" 
d="M335 407q0 -21 -10.5 -33t-28.5 -12q-17 0 -40 20q-16 15 -26 15q-20 0 -45 -29t-25 -53v-225q0 -43 17 -58t68 -17v-15h-240v15q48 9 59.5 20t11.5 49v250q0 33 -7.5 46.5t-26.5 13.5q-16 0 -35 -4v16q80 26 148 54l5 -2v-92q37 53 63 73.5t57 20.5q26 0 40.5 -14
t14.5 -39z" />
    <glyph glyph-name="s" unicode="s" horiz-adv-x="389" 
d="M348 118q0 -52 -41.5 -90t-98.5 -38q-27 0 -74 10q-32 8 -46 8q-15 0 -23 -12h-13v156h16q17 -76 46 -108t81 -32q38 0 60.5 19.5t22.5 52.5q0 45 -52 75l-58 33q-64 37 -90.5 69.5t-26.5 74.5q0 55 38.5 89t99.5 34q37 0 68 -12q15 -7 27 -7q4 0 14 8l2 2h11l4 -136h-15
q-17 67 -42 95t-68 28q-35 0 -56 -18.5t-21 -49.5q0 -43 43 -68l108 -64q46 -27 65 -54t19 -65z" />
    <glyph glyph-name="t" unicode="t" horiz-adv-x="278" 
d="M279 66q-48 -76 -121 -76q-88 0 -88 127v301h-53q-4 3 -4 7q0 8 17 19q41 24 97 107q14 18 20 28q7 0 7 -13v-116h101v-32h-101v-286q0 -48 12 -69t40 -21q30 0 60 35z" />
    <glyph glyph-name="u" unicode="u" 
d="M479 36q-78 -21 -137 -45l-4 2v83l-43 -43q-43 -43 -103 -43q-55 0 -88 35.5t-33 94.5v252q0 35 -13 48.5t-49 15.5v14h146v-326q0 -31 21 -53.5t50 -22.5q48 0 90 36q17 13 17 51v235q0 37 -13.5 49t-60.5 14v17h158v-343q0 -35 11.5 -46t45.5 -11h5v-14z" />
    <glyph glyph-name="v" unicode="v" 
d="M477 435q-23 -2 -33 -14.5t-32 -63.5l-128 -321q-20 -50 -28 -50q-9 0 -18 26q-1 2 -4 10t-4 11l-120 287q-35 78 -49 96t-42 19v15h196v-15q-26 -2 -36 -8t-10 -20q0 -16 9 -37l102 -256l99 259q6 15 6 30q0 28 -47 32v15h139v-15z" />
    <glyph glyph-name="w" unicode="w" horiz-adv-x="722" 
d="M694 435q-15 -5 -21 -13.5t-20 -40.5l-138 -346q-20 -49 -28 -49t-24 43l-91 236l-112 -240q-18 -39 -25 -39q-8 0 -26 44l-135 342q-17 38 -26.5 50t-26.5 13v15h180v-15q-26 -3 -36 -10t-10 -23q0 -15 6 -30l99 -261l91 199l-20 56q-15 40 -28 53t-41 16v15h203v-15
q-35 -5 -46.5 -12t-11.5 -24q0 -13 17 -59l84 -224l90 222q17 42 17 66q0 13 -9 19.5t-35 11.5v15h123v-15z" />
    <glyph glyph-name="x" unicode="x" 
d="M479 0h-201v15q25 2 32.5 6.5t7.5 17.5q0 9 -6 18l-91 140l-79 -123q-20 -31 -20 -41q0 -18 40 -18v-15h-145v15q25 2 37.5 11t35.5 40l114 165l-94 144q-23 35 -39 47.5t-38 12.5h-9v15h207v-15q-43 -1 -43 -22q0 -20 46 -89l14 -20q24 36 30 44q37 46 37 65t-40 22v15
h158v-15q-51 -2 -81 -44l-83 -120l128 -196q24 -34 41.5 -47t40.5 -13v-15z" />
    <glyph glyph-name="y" unicode="y" 
d="M475 435q-18 -2 -28 -11.5t-20 -33.5l-154 -408q-40 -108 -79.5 -154t-89.5 -46q-32 0 -53 16.5t-21 41.5q0 18 13 31t30 13q23 0 53 -11q14 -7 25 -7t25.5 13t24.5 32q13 22 26.5 59.5t13.5 48.5q0 10 -11 37l-165 348q-12 26 -51 32v14h206v-15q-32 -1 -45 -7t-13 -20
q0 -15 10 -38l115 -253l97 276q4 9 4 17q0 25 -48 25v15h135v-15z" />
    <glyph glyph-name="z" unicode="z" horiz-adv-x="444" 
d="M418 135l-14 -135h-377v15l266 405h-138q-45 0 -61 -16.5t-23 -71.5h-18l3 118h347v-15l-269 -405h138q78 0 99 26q17 22 29 83z" />
    <glyph glyph-name="braceleft" unicode="{" horiz-adv-x="480" 
d="M350 -181q-84 1 -121 25q-44 28 -44 115v177q0 52 -17.5 75t-67.5 39q50 15 67.5 38t17.5 75v178q0 87 44 114q38 24 121 25v-11q-52 -13 -71.5 -40t-19.5 -83v-168q0 -62 -19 -88t-75 -41q56 -14 75 -40t19 -88v-168q0 -56 19.5 -83t71.5 -40v-11z" />
    <glyph glyph-name="bar" unicode="|" horiz-adv-x="200" 
d="M133 -156h-66v818h66v-818z" />
    <glyph glyph-name="braceright" unicode="}" horiz-adv-x="480" 
d="M380 250q-50 -16 -67.5 -39t-17.5 -75v-178q0 -87 -44 -114q-38 -24 -121 -25v11q52 13 71.5 40t19.5 83v168q0 62 19 88t75 41q-56 14 -75 39.5t-19 88.5v168q0 56 -19.5 83t-71.5 40v11q84 -1 121 -25q44 -28 44 -115v-177q0 -52 17.5 -75t67.5 -38z" />
    <glyph glyph-name="asciitilde" unicode="~" horiz-adv-x="541" 
d="M502 271q-34 -48 -61 -66.5t-62 -18.5q-33 0 -58.5 9t-93.5 45q-26 14 -59 14q-23 0 -38.5 -11t-35.5 -40l-54 32q34 48 61 66.5t62 18.5q33 0 58.5 -9t93.5 -45q26 -14 59 -14q23 0 38.5 11t35.5 40z" />
    <glyph glyph-name="uni00A0" unicode="&#xa0;" horiz-adv-x="333" 
 />
    <glyph glyph-name="exclamdown" unicode="&#xa1;" horiz-adv-x="333" 
d="M203 -149q0 -35 -14 -56t-39 -21q-53 0 -53 80q0 13 2 37l45 383h13l9 -108q4 -53 17 -138q20 -131 20 -177zM203 407q0 -23 -15.5 -39t-37.5 -16t-38 16t-16 39t15.5 37.5t39.5 14.5q23 0 37.5 -14.5t14.5 -37.5z" />
    <glyph glyph-name="cent" unicode="&#xa2;" 
d="M448 156q-25 -52 -43.5 -78t-44.5 -49q-44 -38 -103 -38q-25 0 -56 9l-49 -138h-34l51 150q-47 26 -70 59q-46 63 -46 148q0 101 63.5 171t156.5 70q21 0 51 -5l44 124h35l-47 -135q75 -30 75 -84q0 -20 -12 -32.5t-31 -12.5t-32 11.5t-26 40.5l-101 -291q32 -12 59 -12
q44 0 76 22t71 78zM313 421q-23 9 -47 9q-61 0 -98.5 -46.5t-37.5 -123.5q0 -54 15.5 -91t52.5 -71z" />
    <glyph glyph-name="sterling" unicode="&#xa3;" 
d="M490 136q0 -13 -13.5 -40t-29.5 -45q-50 -58 -125 -58q-32 0 -62.5 13t-81.5 48q-30 -35 -51 -48.5t-47 -13.5q-31 0 -49.5 17t-18.5 45q0 34 25 55t66 21q22 0 46 -5q4 11 4 21q0 20 -22 182h-108v45h107q-7 36 -7 69q0 107 53 170.5t142 63.5q56 0 93 -26.5t37 -66.5
q0 -23 -14 -38t-36 -15t-30 13.5t-9 53.5q-1 52 -56 52q-45 0 -70 -36.5t-25 -102.5q0 -44 11 -137h125v-45h-121v-27l1 -28q0 -35 -25 -162q84 -35 149 -35q67 0 113 49q15 16 23 16q6 0 6 -5zM142 76q0 6 -17.5 12t-35.5 6q-51 0 -51 -37q0 -16 11.5 -26.5t29.5 -10.5
q27 0 46 23q17 20 17 33z" />
    <glyph glyph-name="currency" unicode="&#xa4;" 
d="M522 108l-48 -50l-98 98q-59 -41 -125 -41q-68 0 -127 41l-96 -98l-50 50l98 96q-41 59 -41 126q0 69 41 126l-98 98l50 48l96 -96q61 39 127 39q69 0 125 -39l98 96l48 -48l-96 -98q39 -58 39 -125q0 -66 -39 -127zM397 332q0 62 -43 105.5t-105 43.5q-60 0 -103 -44
t-43 -106q0 -63 43.5 -107.5t104.5 -44.5q62 0 104 44.5t42 108.5z" />
    <glyph glyph-name="yen" unicode="&#xa5;" 
d="M512 643q-38 -8 -64 -31.5t-54 -75.5l-92 -184h146v-40h-166l-7 -14v-76h173v-40h-173v-73q0 -53 16 -70.5t64 -19.5v-19h-244v19q50 2 64.5 20.5t14.5 80.5v62h-174v40h174v76l-7 14h-167v40h144l-95 173q-41 74 -62 95t-56 23v19h243v-19q-65 -1 -65 -29q0 -19 13 -45
l118 -221l112 220q14 26 14 44q0 14 -14 22.5t-37 8.5h-14v19h195v-19z" />
    <glyph glyph-name="brokenbar" unicode="&#xa6;" horiz-adv-x="200" 
d="M133 335h-66v327h66v-327zM133 -156h-66v327h66v-327z" />
    <glyph glyph-name="section" unicode="&#xa7;" 
d="M426 245q0 -53 -32.5 -86.5t-83.5 -33.5h-18q56 -49 75 -78.5t19 -67.5q0 -57 -39.5 -92t-104.5 -35q-58 0 -98 29t-40 71q0 23 15.5 38.5t38.5 15.5q20 0 34 -12t14 -30q0 -21 -23 -41q-11 -9 -11 -15q0 -14 21.5 -24.5t49.5 -10.5q40 0 63.5 21t23.5 56
q0 29 -20.5 55.5t-68.5 59.5q-91 63 -131 114.5t-40 106.5q0 51 33 85t82 34q15 0 25 -1q-60 50 -80 80t-20 70q0 54 38.5 88t100.5 34q55 0 91.5 -28t36.5 -70q0 -25 -13.5 -39t-37.5 -14q-20 0 -33.5 12t-13.5 31q0 24 26 44q8 8 8 11q0 13 -18 22.5t-44 9.5
q-38 0 -61.5 -19.5t-23.5 -51.5q0 -42 34 -71l137 -113q89 -74 89 -155zM374 212q0 40 -53 93q-35 35 -71 56.5t-59 21.5q-29 0 -48.5 -19t-19.5 -48q0 -41 46 -87q83 -83 136 -83q28 0 48.5 20t20.5 46z" />
    <glyph glyph-name="dieresis" unicode="&#xa8;" horiz-adv-x="333" 
d="M117 590q0 -20 -15 -34.5t-36 -14.5q-20 0 -34 14.5t-14 35.5q0 19 14.5 34t33.5 15q21 0 36 -15t15 -35zM316 590q0 -20 -15 -34.5t-36 -14.5q-20 0 -34 14.5t-14 35.5q0 19 14.5 34t33.5 15q21 0 36 -15t15 -35z" />
    <glyph glyph-name="copyright" unicode="&#xa9;" horiz-adv-x="760" 
d="M730 336q0 -145 -102.5 -247.5t-247.5 -102.5t-247.5 102.5t-102.5 247.5t102.5 247.5t247.5 102.5t247.5 -102.5t102.5 -247.5zM692 336q0 129 -91.5 220.5t-220.5 91.5t-220.5 -91.5t-91.5 -220.5t91.5 -220.5t220.5 -91.5t220.5 91.5t91.5 220.5zM573 212
q-59 -75 -174 -75q-95 0 -154 54t-59 142q0 101 74 156q62 46 140 46q45 0 93 -14q17 -5 25 -5q19 0 24 19h17l5 -133h-17q-15 49 -41 72q-38 35 -93 35q-67 0 -106.5 -46t-39.5 -123q0 -101 58 -145q38 -29 94 -29q75 0 141 58z" />
    <glyph glyph-name="ordfeminine" unicode="&#xaa;" horiz-adv-x="276" 
d="M270 424q-30 -30 -59 -30q-20 0 -30 10t-15 34q-48 -44 -91 -44q-31 0 -51 19t-20 49q0 32 22 51q21 18 42.5 28.5t88.5 34.5v30q0 42 -36 42q-16 0 -30.5 -7.5t-14.5 -15.5q0 -4 2 -14l1 -8q0 -10 -9.5 -17.5t-21.5 -7.5q-13 0 -22.5 9t-9.5 22q0 29 30.5 48t77.5 19
q105 0 105 -96v-115q0 -22 2.5 -28.5t10.5 -6.5q13 0 28 12v-18zM158 474v77q-53 -19 -72 -33t-19 -33q0 -18 11 -31t27 -13q19 0 42 11q11 10 11 22zM270 349h-266v28h266v-28z" />
    <glyph glyph-name="guillemotleft" unicode="&#xab;" 
d="M278 42q0 -9 -10 -9q-5 0 -10 6q-66 65 -170 156l-31 27l31 27q92 80 170 156q5 6 10 6q10 0 10 -9q0 -10 -32 -57.5t-86 -112.5l-10 -12l10 -12q118 -141 118 -166zM468 42q0 -9 -10 -9q-5 0 -10 6q-66 65 -170 156l-31 27l31 27q92 80 170 156q5 6 10 6q10 0 10 -9
q0 -10 -32 -57.5t-86 -112.5l-10 -12l10 -12q118 -141 118 -166z" />
    <glyph glyph-name="logicalnot" unicode="&#xac;" horiz-adv-x="564" 
d="M524 366v-199h-66v133h-418v66h484z" />
    <glyph glyph-name="uni00AD" unicode="&#xad;" horiz-adv-x="333" 
d="M285 194h-246v63h246v-63z" />
    <glyph glyph-name="registered" unicode="&#xae;" horiz-adv-x="760" 
d="M730 336q0 -145 -102.5 -247.5t-247.5 -102.5t-247.5 102.5t-102.5 247.5t102.5 247.5t247.5 102.5t247.5 -102.5t102.5 -247.5zM692 336q0 129 -91.5 220.5t-220.5 91.5t-220.5 -91.5t-91.5 -220.5t91.5 -220.5t220.5 -91.5t220.5 91.5t91.5 220.5zM583 145h-105
l-150 176l-28 -1v-111q0 -30 9.5 -39t43.5 -11v-14h-176v14q34 2 42 11.5t8 44.5v248q0 30 -8 38.5t-42 11.5v14h175q100 0 139 -39q25 -25 25 -63q0 -43 -33 -67q-26 -19 -80 -30l128 -143q24 -24 52 -26v-14zM439 426q0 76 -111 76q-16 0 -22 -3.5t-6 -14.5v-139
q72 1 104 18q35 17 35 63z" />
    <glyph glyph-name="macron" unicode="&#xaf;" horiz-adv-x="333" 
d="M322 563h-311v54h311v-54z" />
    <glyph glyph-name="degree" unicode="&#xb0;" horiz-adv-x="400" 
d="M343 532q0 -60 -42 -101t-103 -41q-58 0 -99.5 42t-41.5 101q0 60 41.5 101.5t101.5 41.5t101.5 -41.5t41.5 -102.5zM304 533q0 44 -31 76.5t-73 32.5q-43 0 -73.5 -32.5t-30.5 -76.5t30.5 -76.5t72.5 -32.5q43 0 74 32t31 77z" />
    <glyph glyph-name="plusminus" unicode="&#xb1;" horiz-adv-x="564" 
d="M524 283h-209v-158h-66v158h-209v66h209v209h66v-209h209v-66zM524 0h-484v66h484v-66z" />
    <glyph glyph-name="two.superior" unicode="&#xb2;" horiz-adv-x="300" 
d="M296 355l-37 -85h-253v23l98 107q81 87 81 137q0 31 -21.5 53.5t-51.5 22.5q-54 0 -86 -70l-25 14q21 61 47 84q35 35 98 35q58 0 94.5 -29.5t36.5 -76.5q0 -37 -19 -71t-65 -79l-86 -85h121q20 0 30 5t21 22z" />
    <glyph glyph-name="three.superior" unicode="&#xb3;" horiz-adv-x="300" 
d="M291 398q0 -58 -55.5 -97t-138.5 -39t-83 50q0 16 10 26.5t25 10.5t41 -19q27 -20 52 -20q31 0 49.5 18.5t18.5 49.5q0 48 -41 71q-31 18 -53 14l-23 -3v29q52 18 73.5 36.5t21.5 45.5q0 23 -15.5 36t-42.5 13q-25 0 -43 -12.5t-41 -44.5l-25 18q26 51 57.5 73t77.5 22
q45 0 76.5 -24t31.5 -59q0 -39 -60 -82q87 -35 87 -113z" />
    <glyph glyph-name="acute" unicode="&#xb4;" horiz-adv-x="333" 
d="M317 643q0 -23 -30 -42l-154 -97h-40l147 148q23 23 42 23q35 0 35 -32z" />
    <glyph glyph-name="uni00B5" unicode="&#xb5;" 
d="M512 47q-25 -32 -45.5 -44.5t-48.5 -12.5q-36 0 -54 21.5t-19 68.5q-57 -90 -137 -90q-72 0 -117 74q4 -41 19 -97q18 -72 18 -108q0 -77 -46 -77t-46 70q0 35 12 105q12 72 12 97v396h88v-306q0 -43 22.5 -67.5t61.5 -24.5q73 0 110 63v335h88v-358q0 -65 32 -65
q19 0 50 28v-8z" />
    <glyph glyph-name="paragraph" unicode="&#xb6;" horiz-adv-x="453" 
d="M450 -154h-154v794h-58v-794h-154v22q58 4 73 21t15 80v304q-47 1 -73 8.5t-51 25.5q-70 48 -70 170q0 98 49.5 141.5t159.5 43.5h263v-19q-58 -5 -73 -20.5t-15 -69.5v-595q0 -53 15.5 -69.5t72.5 -20.5v-22zM172 295v345q-50 -4 -75 -22q-43 -31 -43 -137
q0 -95 27 -137t91 -49z" />
    <glyph glyph-name="periodcentered" unicode="&#xb7;" horiz-adv-x="250" 
d="M181 250q0 -23 -16.5 -39.5t-39.5 -16.5t-39.5 16.5t-16.5 39.5t16.5 39.5t39.5 16.5t39.5 -16.5t16.5 -39.5z" />
    <glyph glyph-name="cedilla" unicode="&#xb8;" horiz-adv-x="333" 
d="M261 -131q0 -39 -33.5 -61.5t-91.5 -22.5q-45 0 -84 16l14 31q37 -12 65 -12q25 0 40 12t15 32q0 19 -12 27.5t-41 8.5q-17 0 -28 -4l-7 5l41 104h35l-25 -70q15 3 26 3q40 0 63 -18.5t23 -50.5z" />
    <glyph glyph-name="one.superior" unicode="&#xb9;" horiz-adv-x="300" 
d="M248 270h-191v24q32 2 42.5 8.5t10.5 23.5v257q0 28 -8 28q-6 0 -43 -13v23l118 55l14 -3v-343q0 -20 11.5 -27t45.5 -9v-24z" />
    <glyph glyph-name="ordmasculine" unicode="&#xba;" horiz-adv-x="310" 
d="M304 542q0 -63 -44 -105.5t-109 -42.5q-63 0 -104 39.5t-41 99.5q0 64 42.5 103.5t110.5 39.5q64 0 104.5 -37.5t40.5 -96.5zM231 514q0 57 -22.5 93t-58.5 36q-32 0 -51.5 -20t-19.5 -54q0 -63 25 -108q19 -34 56 -34q71 0 71 87zM304 349h-298v28h298v-28z" />
    <glyph glyph-name="guillemotright" unicode="&#xbb;" 
d="M266 222l-31 -27q-92 -80 -170 -156q-5 -6 -10 -6q-10 0 -10 9q0 10 32 57.5t86 112.5l10 12l-10 12q-118 141 -118 166q0 9 10 9q5 0 10 -6q66 -65 170 -156zM456 222l-31 -27q-92 -80 -170 -156q-5 -6 -10 -6q-10 0 -10 9q0 10 32 57.5t86 112.5l10 12l-10 12
q-118 141 -118 166q0 9 10 9q5 0 10 -6q66 -65 170 -156z" />
    <glyph glyph-name="onequarter" unicode="&#xbc;" horiz-adv-x="750" 
d="M718 90h-55v-90h-70v90h-180v49l203 266h47v-258h55v-57zM593 147v179l-135 -179h135zM637 676l-450 -690h-49l453 690h46zM228 270h-191v24q32 2 42.5 8.5t10.5 23.5v257q0 28 -8 28q-6 0 -43 -13v23l118 55l14 -3v-343q0 -20 11.5 -27t45.5 -9v-24z" />
    <glyph glyph-name="onehalf" unicode="&#xbd;" horiz-adv-x="750" 
d="M600 676l-450 -690h-49l453 690h46zM222 270h-191v24q32 2 42.5 8.5t10.5 23.5v257q0 28 -8 28q-6 0 -43 -13v23l118 55l14 -3v-343q0 -20 11.5 -27t45.5 -9v-24zM746 85l-37 -85h-253v23l98 107q81 87 81 137q0 31 -21.5 53.5t-51.5 22.5q-54 0 -86 -70l-25 14
q21 61 47 84q35 35 98 35q58 0 94.5 -29.5t36.5 -76.5q0 -37 -19 -71t-65 -79l-86 -85h121q20 0 30 5t21 22z" />
    <glyph glyph-name="threequarters" unicode="&#xbe;" horiz-adv-x="750" 
d="M718 90h-55v-90h-70v90h-180v49l203 266h47v-258h55v-57zM593 147v179l-135 -179h135zM637 676l-450 -690h-49l453 690h46zM292 398q0 -58 -55.5 -97t-138.5 -39t-83 50q0 16 10 26.5t25 10.5q17 0 41 -19q27 -20 52 -20q31 0 49.5 18.5t18.5 49.5q0 48 -41 71
q-31 18 -53 14l-23 -3v29q53 18 74.5 36.5t21.5 45.5q0 22 -15 35.5t-41 13.5q-28 0 -46 -12t-42 -45l-25 18q27 51 58.5 73t78.5 22q45 0 76.5 -24t31.5 -59q0 -39 -61 -82q87 -35 87 -113z" />
    <glyph glyph-name="questiondown" unicode="&#xbf;" horiz-adv-x="444" 
d="M376 -81q0 -62 -46.5 -103.5t-115.5 -41.5q-41 0 -81.5 16t-66.5 42q-36 36 -36 97q0 57 45 126q14 21 60 77q50 64 65 154h17q-2 -69 -30 -142l-28 -64q-37 -85 -37 -156q0 -50 31.5 -85t76.5 -35q37 0 66 19t29 43q0 11 -17 31q-21 24 -21 43q0 18 11.5 29.5t29.5 11.5
q48 0 48 -62zM260 407q0 -24 -15 -40t-38 -16q-22 0 -38 16.5t-16 38.5q0 23 15.5 37.5t39.5 14.5q22 0 37 -14.5t15 -36.5z" />
    <glyph glyph-name="Agrave" unicode="&#xc0;" horiz-adv-x="722" 
d="M706 0h-255v19q41 0 56 9q14 7 14 24q0 24 -19 68l-41 96h-262l-46 -117q-8 -21 -8 -39q0 -41 68 -41v-19h-198v19q36 2 56 28.5t68 135.5l208 491h20l249 -568q26 -56 41 -70.5t49 -16.5v-19zM447 257l-116 275l-115 -275h231zM445 712h-43l-167 80q-32 13 -32 33
q0 26 38 26q21 0 46 -19z" />
    <glyph glyph-name="Aacute" unicode="&#xc1;" horiz-adv-x="722" 
d="M706 0h-255v19q41 0 56 9q14 7 14 24q0 24 -19 68l-41 96h-262l-46 -117q-8 -21 -8 -39q0 -41 68 -41v-19h-198v19q36 2 56 28.5t68 135.5l208 491h20l249 -568q26 -56 41 -70.5t49 -16.5v-19zM447 257l-116 275l-115 -275h231zM512 825q0 -20 -32 -33l-167 -80h-43
l158 120q25 19 46 19q38 0 38 -26z" />
    <glyph glyph-name="Acircumflex" unicode="&#xc2;" horiz-adv-x="722" 
d="M706 0h-255v19q41 0 56 9q14 7 14 24q0 24 -19 68l-41 96h-262l-46 -117q-8 -21 -8 -39q0 -41 68 -41v-19h-198v19q36 2 56 28.5t68 135.5l208 491h20l249 -568q26 -56 41 -70.5t49 -16.5v-19zM447 257l-116 275l-115 -275h231zM531 718h-48l-125 79l-125 -79h-48
l134 129h77z" />
    <glyph glyph-name="Atilde" unicode="&#xc3;" horiz-adv-x="722" 
d="M706 0h-255v19q41 0 56 9q14 7 14 24q0 24 -19 68l-41 96h-262l-46 -117q-8 -21 -8 -39q0 -41 68 -41v-19h-198v19q36 2 56 28.5t68 135.5l208 491h20l249 -568q26 -56 41 -70.5t49 -16.5v-19zM447 257l-116 275l-115 -275h231zM522 835q-16 -57 -40 -81.5t-65 -24.5
q-32 0 -81 24l-23 11q-24 11 -41 11q-35 0 -51 -46h-29q11 49 37.5 75t63.5 26q35 0 70 -18l24 -12q32 -15 53 -15q17 0 28.5 11t24.5 39h29z" />
    <glyph glyph-name="Adieresis" unicode="&#xc4;" horiz-adv-x="722" 
d="M706 0h-255v19q41 0 56 9q14 7 14 24q0 24 -19 68l-41 96h-262l-46 -117q-8 -21 -8 -39q0 -41 68 -41v-19h-198v19q36 2 56 28.5t68 135.5l208 491h20l249 -568q26 -56 41 -70.5t49 -16.5v-19zM447 257l-116 275l-115 -275h231zM308 782q0 -20 -15 -34.5t-36 -14.5
q-20 0 -34 14.5t-14 35.5q0 19 14.5 34t33.5 15q21 0 36 -15t15 -35zM507 782q0 -20 -15 -34.5t-36 -14.5q-20 0 -34 14.5t-14 35.5q0 19 14.5 34t33.5 15q21 0 36 -15t15 -35z" />
    <glyph glyph-name="Aring" unicode="&#xc5;" horiz-adv-x="722" 
d="M706 0h-255v19q41 0 56 9q14 7 14 24q0 24 -19 68l-41 96h-262l-46 -117q-8 -21 -8 -39q0 -41 68 -41v-19h-198v19q36 2 56 28.5t68 135.5l208 491h20l249 -568q26 -56 41 -70.5t49 -16.5v-19zM447 257l-116 275l-115 -275h231zM457 796q0 -41 -29.5 -70t-70.5 -29
q-42 0 -70.5 29t-28.5 71q0 41 29 70t70 29t70.5 -29.5t29.5 -70.5zM423 796q0 27 -19.5 46.5t-45.5 19.5q-27 0 -46.5 -19t-19.5 -46t19 -46.5t45 -19.5q28 0 47.5 19t19.5 46z" />
    <glyph glyph-name="AE" unicode="&#xc6;" horiz-adv-x="889" 
d="M863 168l-44 -168h-510v19l17 2q45 5 58.5 21.5t13.5 65.5v152h-176l-28 -53q-64 -125 -64 -158q0 -24 68 -30h1v-19h-199v19q32 4 47.5 18t40.5 60l245 484q9 17 9 28q0 16 -20.5 23.5t-69.5 9.5v20h564v-141h-23q-7 48 -22 68.5t-49.5 28.5t-110.5 8h-87q-27 0 -27 -30
v-230h111q91 0 114 30q13 19 18 67h21v-234h-21q-6 52 -20 72q-20 28 -78 28h-145v-238q0 -37 10 -45t59 -8h76q81 0 117.5 24t79.5 106h24zM398 299v319l-159 -319h159z" />
    <glyph glyph-name="Ccedilla" unicode="&#xc7;" horiz-adv-x="667" 
d="M633 113q-46 -61 -117 -94t-156 -33q-15 0 -24 1l-20 -52q15 3 26 3q41 0 63.5 -18t22.5 -51q0 -39 -33.5 -61.5t-91.5 -22.5q-45 0 -84 16l14 31q36 -12 65 -12q25 0 40 12t15 32q0 19 -12 27.5t-41 8.5q-17 0 -28 -4l-7 5l37 89q-126 18 -200 108.5t-74 226.5
q0 175 117 272q96 79 217 79q74 0 147 -24q24 -9 40 -9q32 0 41 33h21l9 -226h-23q-14 49 -28 75t-38 50q-61 61 -149 61q-109 0 -173.5 -81t-64.5 -217q0 -179 92 -255q64 -53 156 -53q118 0 223 101z" />
    <glyph glyph-name="Egrave" unicode="&#xc8;" horiz-adv-x="611" 
d="M597 169l-45 -169h-540v19q55 4 71 20.5t16 69.5v444q0 53 -15.5 69t-71.5 21v19h531l3 -143h-25q-13 67 -40 86t-112 19h-135q-20 0 -26.5 -6.5t-6.5 -27.5v-222h154q61 0 80.5 17t29.5 78h23v-232h-23q-10 62 -29 79t-81 17h-154v-247q0 -27 8 -32q14 -11 97 -11h27
q107 0 153 25.5t83 106.5h28zM370 712h-43l-167 80q-32 13 -32 33q0 26 38 26q21 0 46 -19z" />
    <glyph glyph-name="Eacute" unicode="&#xc9;" horiz-adv-x="611" 
d="M597 169l-45 -169h-540v19q55 4 71 20.5t16 69.5v444q0 53 -15.5 69t-71.5 21v19h531l3 -143h-25q-13 67 -40 86t-112 19h-135q-20 0 -26.5 -6.5t-6.5 -27.5v-222h154q61 0 80.5 17t29.5 78h23v-232h-23q-10 62 -29 79t-81 17h-154v-247q0 -27 8 -32q14 -11 97 -11h27
q107 0 153 25.5t83 106.5h28zM437 825q0 -20 -32 -33l-167 -80h-43l158 120q25 19 46 19q38 0 38 -26z" />
    <glyph glyph-name="Ecircumflex" unicode="&#xca;" horiz-adv-x="611" 
d="M597 169l-45 -169h-540v19q55 4 71 20.5t16 69.5v444q0 53 -15.5 69t-71.5 21v19h531l3 -143h-25q-13 67 -40 86t-112 19h-135q-20 0 -26.5 -6.5t-6.5 -27.5v-222h154q61 0 80.5 17t29.5 78h23v-232h-23q-10 62 -29 79t-81 17h-154v-247q0 -27 8 -32q14 -11 97 -11h27
q107 0 153 25.5t83 106.5h28zM456 718h-48l-125 79l-125 -79h-48l134 129h77z" />
    <glyph glyph-name="Edieresis" unicode="&#xcb;" horiz-adv-x="611" 
d="M597 169l-45 -169h-540v19q55 4 71 20.5t16 69.5v444q0 53 -15.5 69t-71.5 21v19h531l3 -143h-25q-13 67 -40 86t-112 19h-135q-20 0 -26.5 -6.5t-6.5 -27.5v-222h154q61 0 80.5 17t29.5 78h23v-232h-23q-10 62 -29 79t-81 17h-154v-247q0 -27 8 -32q14 -11 97 -11h27
q107 0 153 25.5t83 106.5h28zM233 782q0 -20 -15 -34.5t-36 -14.5q-20 0 -34 14.5t-14 35.5q0 19 14.5 34t33.5 15q21 0 36 -15t15 -35zM432 782q0 -20 -15 -34.5t-36 -14.5q-20 0 -34 14.5t-14 35.5q0 19 14.5 34t33.5 15q21 0 36 -15t15 -35z" />
    <glyph glyph-name="Igrave" unicode="&#xcc;" horiz-adv-x="333" 
d="M315 0h-297v19q63 2 80 18t17 72v444q0 55 -16.5 70.5t-80.5 19.5v19h297v-19q-63 -3 -80.5 -19t-17.5 -71v-444q0 -55 18 -71.5t80 -18.5v-19zM254 712h-43l-167 80q-32 13 -32 33q0 26 38 26q21 0 46 -19z" />
    <glyph glyph-name="Iacute" unicode="&#xcd;" horiz-adv-x="333" 
d="M315 0h-297v19q63 2 80 18t17 72v444q0 55 -16.5 70.5t-80.5 19.5v19h297v-19q-63 -3 -80.5 -19t-17.5 -71v-444q0 -55 18 -71.5t80 -18.5v-19zM321 825q0 -20 -32 -33l-167 -80h-43l158 120q25 19 46 19q38 0 38 -26z" />
    <glyph glyph-name="Icircumflex" unicode="&#xce;" horiz-adv-x="333" 
d="M315 0h-297v19q63 2 80 18t17 72v444q0 55 -16.5 70.5t-80.5 19.5v19h297v-19q-63 -3 -80.5 -19t-17.5 -71v-444q0 -55 18 -71.5t80 -18.5v-19zM340 718h-48l-125 79l-125 -79h-48l134 129h77z" />
    <glyph glyph-name="Idieresis" unicode="&#xcf;" horiz-adv-x="333" 
d="M315 0h-297v19q63 2 80 18t17 72v444q0 55 -16.5 70.5t-80.5 19.5v19h297v-19q-63 -3 -80.5 -19t-17.5 -71v-444q0 -55 18 -71.5t80 -18.5v-19zM117 782q0 -20 -15 -34.5t-36 -14.5q-20 0 -34 14.5t-14 35.5q0 19 14.5 34t33.5 15q21 0 36 -15t15 -35zM316 782
q0 -20 -15 -34.5t-36 -14.5q-20 0 -34 14.5t-14 35.5q0 19 14.5 34t33.5 15q21 0 36 -15t15 -35z" />
    <glyph glyph-name="Eth" unicode="&#xd0;" horiz-adv-x="722" 
d="M685 334q0 -152 -102 -245q-46 -42 -121 -65.5t-162 -23.5h-284v19q57 4 72.5 20t15.5 70v206h-83v44h83v194q0 55 -14.5 70t-73.5 20v19h270q211 0 314 -105q85 -85 85 -223zM576 327q0 166 -119 248q-71 50 -201 50q-30 0 -40 -8t-10 -31v-227h146v-44h-146v-237
q0 -24 11 -32.5t41 -8.5q124 0 196 41q122 71 122 249z" />
    <glyph glyph-name="Ntilde" unicode="&#xd1;" horiz-adv-x="722" 
d="M707 643q-48 -5 -66 -18q-29 -20 -29 -110v-526h-17l-442 550v-392q0 -76 18 -100.5t76 -27.5v-19h-235v19q62 4 79.5 27.5t17.5 100.5v441q-30 35 -47.5 45t-49.5 10v19h171l385 -484v337q0 92 -29 112q-21 12 -67 16v19h235v-19zM525 835q-16 -57 -40 -81.5t-65 -24.5
q-32 0 -81 24l-23 11q-24 11 -41 11q-35 0 -51 -46h-29q11 49 37 75t64 26q36 0 70 -18l24 -12q32 -15 53 -15q17 0 28.5 11t24.5 39h29z" />
    <glyph glyph-name="Ograve" unicode="&#xd2;" horiz-adv-x="722" 
d="M688 327q0 -151 -92.5 -246t-240.5 -95q-66 0 -128.5 27.5t-106.5 74.5q-40 43 -63 107.5t-23 135.5q0 151 92 248t235 97q147 0 243 -105q84 -92 84 -244zM574 328q0 185 -85 262q-56 50 -128 50q-84 0 -143 -65q-32 -35 -51 -102.5t-19 -143.5q0 -83 23 -153.5
t62 -104.5q55 -49 126 -49q80 0 133 53q36 35 49 73q33 86 33 180zM449 712h-43l-167 80q-32 13 -32 33q0 26 38 26q21 0 46 -19z" />
    <glyph glyph-name="Oacute" unicode="&#xd3;" horiz-adv-x="722" 
d="M688 327q0 -151 -92.5 -246t-240.5 -95q-66 0 -128.5 27.5t-106.5 74.5q-40 43 -63 107.5t-23 135.5q0 151 92 248t235 97q147 0 243 -105q84 -92 84 -244zM574 328q0 185 -85 262q-56 50 -128 50q-84 0 -143 -65q-32 -35 -51 -102.5t-19 -143.5q0 -83 23 -153.5
t62 -104.5q55 -49 126 -49q80 0 133 53q36 35 49 73q33 86 33 180zM516 825q0 -20 -32 -33l-167 -80h-43l158 120q25 19 46 19q38 0 38 -26z" />
    <glyph glyph-name="Ocircumflex" unicode="&#xd4;" horiz-adv-x="722" 
d="M688 327q0 -151 -92.5 -246t-240.5 -95q-66 0 -128.5 27.5t-106.5 74.5q-40 43 -63 107.5t-23 135.5q0 151 92 248t235 97q147 0 243 -105q84 -92 84 -244zM574 328q0 185 -85 262q-56 50 -128 50q-84 0 -143 -65q-32 -35 -51 -102.5t-19 -143.5q0 -83 23 -153.5
t62 -104.5q55 -49 126 -49q80 0 133 53q36 35 49 73q33 86 33 180zM535 718h-48l-125 79l-125 -79h-48l134 129h77z" />
    <glyph glyph-name="Otilde" unicode="&#xd5;" horiz-adv-x="722" 
d="M688 327q0 -151 -92.5 -246t-240.5 -95q-66 0 -128.5 27.5t-106.5 74.5q-40 43 -63 107.5t-23 135.5q0 151 92 248t235 97q147 0 243 -105q84 -92 84 -244zM574 328q0 185 -85 262q-56 50 -128 50q-84 0 -143 -65q-32 -35 -51 -102.5t-19 -143.5q0 -83 23 -153.5
t62 -104.5q55 -49 126 -49q80 0 133 53q36 35 49 73q33 86 33 180zM526 835q-16 -57 -40 -81.5t-65 -24.5q-32 0 -81 24l-23 11q-24 11 -41 11q-35 0 -51 -46h-29q11 49 37.5 75t63.5 26q35 0 70 -18l24 -12q32 -15 53 -15q17 0 28.5 11t24.5 39h29z" />
    <glyph glyph-name="Odieresis" unicode="&#xd6;" horiz-adv-x="722" 
d="M688 327q0 -151 -92.5 -246t-240.5 -95q-66 0 -128.5 27.5t-106.5 74.5q-40 43 -63 107.5t-23 135.5q0 151 92 248t235 97q147 0 243 -105q84 -92 84 -244zM574 328q0 185 -85 262q-56 50 -128 50q-84 0 -143 -65q-32 -35 -51 -102.5t-19 -143.5q0 -83 23 -153.5
t62 -104.5q55 -49 126 -49q80 0 133 53q36 35 49 73q33 86 33 180zM312 782q0 -20 -15 -34.5t-36 -14.5q-20 0 -34 14.5t-14 35.5q0 19 14.5 34t33.5 15q21 0 36 -15t15 -35zM511 782q0 -20 -15 -34.5t-36 -14.5q-20 0 -34 14.5t-14 35.5q0 19 14.5 34t33.5 15q21 0 36 -15
t15 -35z" />
    <glyph glyph-name="multiply" unicode="&#xd7;" horiz-adv-x="564" 
d="M476 102l-46 -46l-148 147l-148 -147l-46 46l147 148l-147 148l46 46l148 -147l148 147l46 -46l-147 -148z" />
    <glyph glyph-name="Oslash" unicode="&#xd8;" horiz-adv-x="722" 
d="M688 331q0 -152 -92 -248.5t-237 -96.5q-91 0 -175 50l-79 -116h-49l95 139q-53 48 -76 93q-41 79 -41 178q0 152 92 249t236 97q88 0 175 -49l72 107h49l-88 -130q54 -50 76 -93q42 -78 42 -180zM574 330q0 120 -47 210l-308 -452q60 -66 142 -66q99 0 156 82.5
t57 225.5zM502 575q-62 65 -141 65q-98 0 -155.5 -83.5t-57.5 -226.5q0 -120 46 -207z" />
    <glyph glyph-name="Ugrave" unicode="&#xd9;" horiz-adv-x="722" 
d="M705 643q-62 -8 -78 -30t-16 -98v-261q0 -107 -33 -165q-59 -103 -223 -103q-128 0 -189.5 62.5t-61.5 192.5v312q0 55 -15.5 70t-74.5 20v19h283v-19q-60 -5 -75.5 -20.5t-15.5 -69.5v-320q0 -88 25 -132q41 -71 147 -71q56 0 101 21.5t65 57.5q23 43 23 136v270
q0 75 -18 99.5t-76 28.5v19h232v-19zM474 712h-43l-167 80q-32 13 -32 33q0 26 38 26q21 0 46 -19z" />
    <glyph glyph-name="Uacute" unicode="&#xda;" horiz-adv-x="722" 
d="M705 643q-62 -8 -78 -30t-16 -98v-261q0 -107 -33 -165q-59 -103 -223 -103q-128 0 -189.5 62.5t-61.5 192.5v312q0 55 -15.5 70t-74.5 20v19h283v-19q-60 -5 -75.5 -20.5t-15.5 -69.5v-320q0 -88 25 -132q41 -71 147 -71q56 0 101 21.5t65 57.5q23 43 23 136v270
q0 75 -18 99.5t-76 28.5v19h232v-19zM541 825q0 -20 -32 -33l-167 -80h-43l158 120q25 19 46 19q38 0 38 -26z" />
    <glyph glyph-name="Ucircumflex" unicode="&#xdb;" horiz-adv-x="722" 
d="M705 643q-62 -8 -78 -30t-16 -98v-261q0 -107 -33 -165q-59 -103 -223 -103q-128 0 -189.5 62.5t-61.5 192.5v312q0 55 -15.5 70t-74.5 20v19h283v-19q-60 -5 -75.5 -20.5t-15.5 -69.5v-320q0 -88 25 -132q41 -71 147 -71q56 0 101 21.5t65 57.5q23 43 23 136v270
q0 75 -18 99.5t-76 28.5v19h232v-19zM560 718h-48l-125 79l-125 -79h-48l134 129h77z" />
    <glyph glyph-name="Udieresis" unicode="&#xdc;" horiz-adv-x="722" 
d="M705 643q-62 -8 -78 -30t-16 -98v-261q0 -107 -33 -165q-59 -103 -223 -103q-128 0 -189.5 62.5t-61.5 192.5v312q0 55 -15.5 70t-74.5 20v19h283v-19q-60 -5 -75.5 -20.5t-15.5 -69.5v-320q0 -88 25 -132q41 -71 147 -71q56 0 101 21.5t65 57.5q23 43 23 136v270
q0 75 -18 99.5t-76 28.5v19h232v-19zM337 782q0 -20 -15 -34.5t-36 -14.5q-20 0 -34 14.5t-14 35.5q0 19 14.5 34t33.5 15q21 0 36 -15t15 -35zM536 782q0 -20 -15 -34.5t-36 -14.5q-20 0 -34 14.5t-14 35.5q0 19 14.5 34t33.5 15q21 0 36 -15t15 -35z" />
    <glyph glyph-name="Yacute" unicode="&#xdd;" horiz-adv-x="722" 
d="M703 643q-38 -3 -65 -25.5t-73 -88.5l-148 -226v-194q0 -57 18 -72.5t85 -17.5v-19h-306v19q68 3 84.5 19.5t16.5 81.5v174l-131 192q-75 106 -100.5 131t-61.5 26v19h280v-19q-11 -1 -25 -1q-46 -3 -46 -29q0 -19 17 -44l148 -222l143 226q14 23 14 37q0 18 -15 25
t-54 8v19h219v-19zM521 825q0 -20 -32 -33l-167 -80h-43l158 120q25 19 46 19q38 0 38 -26z" />
    <glyph glyph-name="Thorn" unicode="&#xde;" horiz-adv-x="556" 
d="M542 351q0 -49 -26 -92t-70 -67q-61 -34 -175 -34q-29 0 -69 3v-52q0 -55 17.5 -71.5t76.5 -18.5v-19h-280v19q57 5 70.5 21.5t13.5 79.5v433q0 54 -14 69t-70 21v19h277v-19q-61 -5 -76.5 -24t-14.5 -87h80q120 0 190 -49t70 -132zM433 345q0 77 -48 113t-151 36
q-19 0 -25.5 -7t-6.5 -26v-260q34 -3 57 -3q174 0 174 147z" />
    <glyph glyph-name="germandbls" unicode="&#xdf;" 
d="M468 186q0 -82 -52 -138.5t-127 -56.5q-43 0 -70 20.5t-27 52.5q0 20 13 34t32 14q17 0 29 -11.5t13 -28.5l2 -22q1 -16 8 -23t21 -7q64 0 64 130q0 202 -132 207q-32 1 -32 17q0 12 29 15q95 10 95 128q0 65 -24 102t-67 37q-39 0 -62.5 -29t-23.5 -78v-549h-145v15
q38 3 49.5 16t11.5 53v370q0 99 30 152q44 77 148 77q78 0 124 -41.5t46 -110.5q0 -54 -28.5 -85.5t-108.5 -68.5q82 -16 122 -51q62 -53 62 -140z" />
    <glyph glyph-name="agrave" unicode="&#xe0;" horiz-adv-x="444" 
d="M442 40q-26 -29 -45.5 -39.5t-44.5 -10.5q-31 0 -45.5 16.5t-18.5 56.5q-86 -73 -146 -73q-46 0 -75.5 30t-29.5 77q0 54 36 87q32 28 64.5 44.5t149.5 63.5v61q0 83 -76 83q-30 0 -51 -14.5t-21 -34.5q0 -11 3 -24q2 -14 2 -16q0 -17 -13.5 -29.5t-31.5 -12.5t-30.5 13
t-12.5 30q0 41 41 75q45 37 127 37q93 0 125 -58q19 -31 19 -102v-195q0 -33 6.5 -45.5t23.5 -12.5q21 0 44 19v-26zM287 123v145q-90 -33 -126 -64t-36 -75v-4q0 -32 18.5 -54.5t44.5 -22.5q35 0 73 22q16 10 21 20t5 33zM298 504h-40l-154 97q-30 19 -30 42q0 32 35 32
q19 0 42 -23z" />
    <glyph glyph-name="aacute" unicode="&#xe1;" horiz-adv-x="444" 
d="M442 40q-26 -29 -45.5 -39.5t-44.5 -10.5q-31 0 -45.5 16.5t-18.5 56.5q-86 -73 -146 -73q-46 0 -75.5 30t-29.5 77q0 54 36 87q32 28 64.5 44.5t149.5 63.5v61q0 83 -76 83q-30 0 -51 -14.5t-21 -34.5q0 -11 3 -24q2 -14 2 -16q0 -17 -13.5 -29.5t-31.5 -12.5t-30.5 13
t-12.5 30q0 41 41 75q45 37 127 37q93 0 125 -58q19 -31 19 -102v-195q0 -33 6.5 -45.5t23.5 -12.5q21 0 44 19v-26zM287 123v145q-90 -33 -126 -64t-36 -75v-4q0 -32 18.5 -54.5t44.5 -22.5q35 0 73 22q16 10 21 20t5 33zM375 643q0 -23 -30 -42l-154 -97h-40l147 148
q23 23 42 23q35 0 35 -32z" />
    <glyph glyph-name="acircumflex" unicode="&#xe2;" horiz-adv-x="444" 
d="M442 40q-26 -29 -45.5 -39.5t-44.5 -10.5q-31 0 -45.5 16.5t-18.5 56.5q-86 -73 -146 -73q-46 0 -75.5 30t-29.5 77q0 54 36 87q32 28 64.5 44.5t149.5 63.5v61q0 83 -76 83q-30 0 -51 -14.5t-21 -34.5q0 -11 3 -24q2 -14 2 -16q0 -17 -13.5 -29.5t-31.5 -12.5t-30.5 13
t-12.5 30q0 41 41 75q45 37 127 37q93 0 125 -58q19 -31 19 -102v-195q0 -33 6.5 -45.5t23.5 -12.5q21 0 44 19v-26zM287 123v145q-90 -33 -126 -64t-36 -75v-4q0 -32 18.5 -54.5t44.5 -22.5q35 0 73 22q16 10 21 20t5 33zM380 507h-34l-122 103l-121 -103h-34l124 167h62z
" />
    <glyph glyph-name="atilde" unicode="&#xe3;" horiz-adv-x="444" 
d="M442 40q-26 -29 -45.5 -39.5t-44.5 -10.5q-31 0 -45.5 16.5t-18.5 56.5q-86 -73 -146 -73q-46 0 -75.5 30t-29.5 77q0 54 36 87q32 28 64.5 44.5t149.5 63.5v61q0 83 -76 83q-30 0 -51 -14.5t-21 -34.5q0 -11 3 -24q2 -14 2 -16q0 -17 -13.5 -29.5t-31.5 -12.5t-30.5 13
t-12.5 30q0 41 41 75q45 37 127 37q93 0 125 -58q19 -31 19 -102v-195q0 -33 6.5 -45.5t23.5 -12.5q21 0 44 19v-26zM287 123v145q-90 -33 -126 -64t-36 -75v-4q0 -32 18.5 -54.5t44.5 -22.5q35 0 73 22q16 10 21 20t5 33zM389 643q-16 -57 -40 -81.5t-65 -24.5
q-32 0 -81 24l-23 11q-24 11 -41 11q-35 0 -51 -46h-29q11 49 37 75t64 26q36 0 70 -18l24 -12q32 -15 53 -15q17 0 28.5 11t24.5 39h29z" />
    <glyph glyph-name="adieresis" unicode="&#xe4;" horiz-adv-x="444" 
d="M442 40q-26 -29 -45.5 -39.5t-44.5 -10.5q-31 0 -45.5 16.5t-18.5 56.5q-86 -73 -146 -73q-46 0 -75.5 30t-29.5 77q0 54 36 87q32 28 64.5 44.5t149.5 63.5v61q0 83 -76 83q-30 0 -51 -14.5t-21 -34.5q0 -11 3 -24q2 -14 2 -16q0 -17 -13.5 -29.5t-31.5 -12.5t-30.5 13
t-12.5 30q0 41 41 75q45 37 127 37q93 0 125 -58q19 -31 19 -102v-195q0 -33 6.5 -45.5t23.5 -12.5q21 0 44 19v-26zM287 123v145q-90 -33 -126 -64t-36 -75v-4q0 -32 18.5 -54.5t44.5 -22.5q35 0 73 22q16 10 21 20t5 33zM175 590q0 -20 -15 -34.5t-36 -14.5
q-20 0 -34 14.5t-14 35.5q0 19 14.5 34t33.5 15q21 0 36 -15t15 -35zM374 590q0 -20 -15 -34.5t-36 -14.5q-20 0 -34 14.5t-14 35.5q0 19 14.5 34t33.5 15q21 0 36 -15t15 -35z" />
    <glyph glyph-name="aring" unicode="&#xe5;" horiz-adv-x="444" 
d="M442 40q-26 -29 -45.5 -39.5t-44.5 -10.5q-31 0 -45.5 16.5t-18.5 56.5q-86 -73 -146 -73q-46 0 -75.5 30t-29.5 77q0 54 36 87q32 28 64.5 44.5t149.5 63.5v61q0 83 -76 83q-30 0 -51 -14.5t-21 -34.5q0 -11 3 -24q2 -14 2 -16q0 -17 -13.5 -29.5t-31.5 -12.5t-30.5 13
t-12.5 30q0 41 41 75q45 37 127 37q93 0 125 -58q19 -31 19 -102v-195q0 -33 6.5 -45.5t23.5 -12.5q21 0 44 19v-26zM287 123v145q-90 -33 -126 -64t-36 -75v-4q0 -32 18.5 -54.5t44.5 -22.5q35 0 73 22q16 10 21 20t5 33zM324 590q0 -41 -29.5 -70t-70.5 -29
q-42 0 -70.5 29t-28.5 71q0 41 29.5 70t69.5 29q41 0 70.5 -29.5t29.5 -70.5zM290 590q0 27 -19.5 46.5t-45.5 19.5q-27 0 -46.5 -19t-19.5 -46t19 -46.5t45 -19.5q28 0 47.5 19t19.5 46z" />
    <glyph glyph-name="ae" unicode="&#xe6;" horiz-adv-x="667" 
d="M632 149q-36 -78 -73 -111q-54 -48 -124 -48q-81 0 -129 73q-51 -42 -83 -57.5t-69 -15.5q-51 0 -83.5 30.5t-32.5 79.5q0 45 34.5 78.5t114.5 66.5l86 36l2 63q2 43 -12 69q-11 23 -50 23q-31 0 -51.5 -15t-16.5 -35l1 -6v-11l1 -17q1 -22 -10.5 -35t-32.5 -13
q-20 0 -32 13t-12 35q0 46 46 77t114 31q65 0 117 -45q34 26 59.5 35.5t59.5 9.5q76 0 114 -43t46 -140h-262q1 -74 6 -107.5t21 -62.5q13 -23 38.5 -36.5t56.5 -13.5q43 0 75.5 22t68.5 75zM294 88l-1 3q-19 54 -19 110v52q-91 -33 -120 -58t-29 -70q0 -36 19.5 -61.5
t47.5 -25.5t65 18t37 32zM521 307q-2 65 -20.5 94.5t-58.5 29.5q-43 0 -63 -29t-24 -95h166z" />
    <glyph glyph-name="ccedilla" unicode="&#xe7;" horiz-adv-x="444" 
d="M412 147q-39 -79 -82 -115.5t-104 -41.5l-21 -55q15 3 26 3q41 0 63.5 -18t22.5 -51q0 -39 -33.5 -61.5t-91.5 -22.5q-45 0 -84 16l14 31q36 -12 65 -12q25 0 40 12t15 32q0 19 -12 27.5t-41 8.5q-17 0 -28 -4l-7 5l38 91q-76 10 -121.5 70.5t-45.5 149.5q0 128 84 197
q62 51 135 51q63 0 108.5 -30.5t45.5 -72.5q0 -17 -14 -29.5t-33 -12.5q-35 0 -48 46l-6 22q-8 28 -20 38t-39 10q-61 0 -98.5 -48t-37.5 -126q0 -86 43 -140.5t112 -54.5q43 0 74 20.5t67 73.5z" />
    <glyph glyph-name="egrave" unicode="&#xe8;" horiz-adv-x="444" 
d="M424 157q-65 -167 -212 -167q-86 0 -136.5 60.5t-50.5 163.5q0 109 58 177.5t151 68.5q80 0 128 -57q33 -42 43 -126h-308q3 -85 30 -138q43 -80 126 -80q48 0 83.5 24t71.5 81zM303 309q-10 65 -31 90t-67 25q-90 0 -106 -115h204zM308 504h-40l-154 97q-30 19 -30 42
q0 32 35 32q19 0 42 -23z" />
    <glyph glyph-name="eacute" unicode="&#xe9;" horiz-adv-x="444" 
d="M424 157q-65 -167 -212 -167q-86 0 -136.5 60.5t-50.5 163.5q0 109 58 177.5t151 68.5q80 0 128 -57q33 -42 43 -126h-308q3 -85 30 -138q43 -80 126 -80q48 0 83.5 24t71.5 81zM303 309q-10 65 -31 90t-67 25q-90 0 -106 -115h204zM385 643q0 -23 -30 -42l-154 -97h-40
l147 148q23 23 42 23q35 0 35 -32z" />
    <glyph glyph-name="ecircumflex" unicode="&#xea;" horiz-adv-x="444" 
d="M424 157q-65 -167 -212 -167q-86 0 -136.5 60.5t-50.5 163.5q0 109 58 177.5t151 68.5q80 0 128 -57q33 -42 43 -126h-308q3 -85 30 -138q43 -80 126 -80q48 0 83.5 24t71.5 81zM303 309q-10 65 -31 90t-67 25q-90 0 -106 -115h204zM390 507h-34l-122 103l-121 -103h-34
l124 167h62z" />
    <glyph glyph-name="edieresis" unicode="&#xeb;" horiz-adv-x="444" 
d="M424 157q-65 -167 -212 -167q-86 0 -136.5 60.5t-50.5 163.5q0 109 58 177.5t151 68.5q80 0 128 -57q33 -42 43 -126h-308q3 -85 30 -138q43 -80 126 -80q48 0 83.5 24t71.5 81zM303 309q-10 65 -31 90t-67 25q-90 0 -106 -115h204zM185 590q0 -20 -15 -34.5t-36 -14.5
q-20 0 -34 14.5t-14 35.5q0 19 14.5 34t33.5 15q21 0 36 -15t15 -35zM384 590q0 -20 -15 -34.5t-36 -14.5q-20 0 -34 14.5t-14 35.5q0 19 14.5 34t33.5 15q21 0 36 -15t15 -35z" />
    <glyph glyph-name="igrave" unicode="&#xec;" horiz-adv-x="278" 
d="M253 0h-237v15q52 3 65.5 18t13.5 69v232q0 33 -7.5 46.5t-25.5 13.5q-16 0 -34 -3l-8 -1v15l155 55l4 -3v-355q0 -54 12.5 -68.5t61.5 -18.5v-15zM211 504h-40l-154 97q-30 19 -30 42q0 32 35 32q19 0 42 -23z" />
    <glyph glyph-name="iacute" unicode="&#xed;" horiz-adv-x="278" 
d="M253 0h-237v15q52 3 65.5 18t13.5 69v232q0 33 -7.5 46.5t-25.5 13.5q-16 0 -34 -3l-8 -1v15l155 55l4 -3v-355q0 -54 12.5 -68.5t61.5 -18.5v-15zM288 643q0 -23 -30 -42l-154 -97h-40l147 148q23 23 42 23q35 0 35 -32z" />
    <glyph glyph-name="icircumflex" unicode="&#xee;" horiz-adv-x="278" 
d="M253 0h-237v15q52 3 65.5 18t13.5 69v232q0 33 -7.5 46.5t-25.5 13.5q-16 0 -34 -3l-8 -1v15l155 55l4 -3v-355q0 -54 12.5 -68.5t61.5 -18.5v-15zM293 507h-34l-122 103l-121 -103h-34l124 167h62z" />
    <glyph glyph-name="idieresis" unicode="&#xef;" horiz-adv-x="278" 
d="M253 0h-237v15q52 3 65.5 18t13.5 69v232q0 33 -7.5 46.5t-25.5 13.5q-16 0 -34 -3l-8 -1v15l155 55l4 -3v-355q0 -54 12.5 -68.5t61.5 -18.5v-15zM88 590q0 -20 -15 -34.5t-36 -14.5q-20 0 -34 14.5t-14 35.5q0 19 14.5 34t33.5 15q21 0 36 -15t15 -35zM287 590
q0 -20 -15 -34.5t-36 -14.5q-20 0 -34 14.5t-14 35.5q0 19 14.5 34t33.5 15q21 0 36 -15t15 -35z" />
    <glyph glyph-name="eth" unicode="&#xf0;" 
d="M471 285q0 -72 -24 -137.5t-65 -104.5q-56 -53 -135 -53q-93 0 -155.5 66.5t-62.5 166.5q0 101 61 169t151 68q36 0 62 -12.5t64 -47.5q-11 55 -32 92.5t-65 82.5l-123 -65l-33 30l121 64q-62 44 -133 56l42 23q49 -4 81.5 -14t70.5 -33l95 50l33 -30l-91 -48
q63 -60 91 -118q47 -96 47 -205zM381 201q0 102 -40 166.5t-104 64.5q-53 0 -85.5 -43t-32.5 -113q0 -110 44 -193q35 -65 98 -65q57 0 88.5 48.5t31.5 134.5z" />
    <glyph glyph-name="ntilde" unicode="&#xf1;" 
d="M485 0h-208v15q38 3 50.5 20t12.5 64v209q0 97 -73 97q-25 0 -46 -11.5t-57 -45.5v-281q0 -27 14 -38t52 -14v-15h-212v15q38 3 50 17.5t12 57.5v248q0 37 -8 50.5t-29 13.5q-19 0 -27 -4v17q74 22 138 45l7 -2v-79q51 48 80.5 64.5t64.5 16.5q55 0 86.5 -39.5
t31.5 -110.5v-229q0 -37 12 -49.5t49 -16.5v-15zM417 643q-16 -57 -40 -81.5t-65 -24.5q-32 0 -81 24l-23 11q-24 11 -41 11q-35 0 -51 -46h-29q11 49 37 75t64 26q36 0 70 -18l24 -12q32 -15 53 -15q17 0 28.5 11t24.5 39h29z" />
    <glyph glyph-name="ograve" unicode="&#xf2;" 
d="M470 234q0 -104 -64 -174t-158 -70t-156.5 67.5t-62.5 168.5q0 103 61.5 168.5t159.5 65.5q96 0 158 -64t62 -162zM380 199q0 103 -40 168t-103 65q-53 0 -85.5 -43t-32.5 -114q0 -111 44 -193q34 -64 97 -64q56 0 88 48t32 133zM324 504h-40l-154 97q-30 19 -30 42
q0 32 35 32q19 0 42 -23z" />
    <glyph glyph-name="oacute" unicode="&#xf3;" 
d="M470 234q0 -104 -64 -174t-158 -70t-156.5 67.5t-62.5 168.5q0 103 61.5 168.5t159.5 65.5q96 0 158 -64t62 -162zM380 199q0 103 -40 168t-103 65q-53 0 -85.5 -43t-32.5 -114q0 -111 44 -193q34 -64 97 -64q56 0 88 48t32 133zM401 643q0 -23 -30 -42l-154 -97h-40
l147 148q23 23 42 23q35 0 35 -32z" />
    <glyph glyph-name="ocircumflex" unicode="&#xf4;" 
d="M470 234q0 -104 -64 -174t-158 -70t-156.5 67.5t-62.5 168.5q0 103 61.5 168.5t159.5 65.5q96 0 158 -64t62 -162zM380 199q0 103 -40 168t-103 65q-53 0 -85.5 -43t-32.5 -114q0 -111 44 -193q34 -64 97 -64q56 0 88 48t32 133zM406 507h-34l-122 103l-121 -103h-34
l124 167h62z" />
    <glyph glyph-name="otilde" unicode="&#xf5;" 
d="M470 234q0 -104 -64 -174t-158 -70t-156.5 67.5t-62.5 168.5q0 103 61.5 168.5t159.5 65.5q96 0 158 -64t62 -162zM380 199q0 103 -40 168t-103 65q-53 0 -85.5 -43t-32.5 -114q0 -111 44 -193q34 -64 97 -64q56 0 88 48t32 133zM415 643q-16 -57 -40 -81.5t-65 -24.5
q-32 0 -81 24l-23 11q-24 11 -41 11q-35 0 -51 -46h-29q11 49 37 75t64 26q36 0 70 -18l24 -12q32 -15 53 -15q17 0 28.5 11t24.5 39h29z" />
    <glyph glyph-name="odieresis" unicode="&#xf6;" 
d="M470 234q0 -104 -64 -174t-158 -70t-156.5 67.5t-62.5 168.5q0 103 61.5 168.5t159.5 65.5q96 0 158 -64t62 -162zM380 199q0 103 -40 168t-103 65q-53 0 -85.5 -43t-32.5 -114q0 -111 44 -193q34 -64 97 -64q56 0 88 48t32 133zM201 590q0 -20 -15 -34.5t-36 -14.5
q-20 0 -34 14.5t-14 35.5q0 19 14.5 34t33.5 15q21 0 36 -15t15 -35zM400 590q0 -20 -15 -34.5t-36 -14.5q-20 0 -34 14.5t-14 35.5q0 19 14.5 34t33.5 15q21 0 36 -15t15 -35z" />
    <glyph glyph-name="divide" unicode="&#xf7;" horiz-adv-x="564" 
d="M524 217h-484v66h484v-66zM338 416q0 -23 -16.5 -39.5t-39.5 -16.5t-39.5 16.5t-16.5 39.5t16.5 39.5t39.5 16.5t39.5 -16.5t16.5 -39.5zM338 85q0 -23 -16.5 -39.5t-39.5 -16.5t-39.5 16.5t-16.5 39.5t16.5 39.5t39.5 16.5t39.5 -16.5t16.5 -39.5z" />
    <glyph glyph-name="oslash" unicode="&#xf8;" 
d="M470 234q0 -104 -64 -174t-159 -70q-47 0 -93 21l-65 -123h-37l73 140q-42 33 -63 69q-33 60 -33 130q0 102 61.5 167.5t158.5 65.5q44 0 92 -18l57 109h39l-65 -125q40 -29 60 -58q38 -60 38 -134zM380 203q0 87 -40 163l-161 -306q35 -42 82 -42q56 0 87.5 49t31.5 136
zM317 396q-37 36 -80 36q-53 0 -85.5 -43t-32.5 -113q0 -102 39 -184z" />
    <glyph glyph-name="ugrave" unicode="&#xf9;" 
d="M479 36q-78 -21 -137 -45l-4 2v83l-43 -43q-43 -43 -103 -43q-55 0 -88 35.5t-33 94.5v252q0 35 -13 48.5t-49 15.5v14h146v-326q0 -31 21 -53.5t50 -22.5q48 0 90 36q17 13 17 51v235q0 37 -13.5 49t-60.5 14v17h158v-343q0 -35 11.5 -46t45.5 -11h5v-14zM318 504h-40
l-154 97q-30 19 -30 42q0 32 35 32q19 0 42 -23z" />
    <glyph glyph-name="uacute" unicode="&#xfa;" 
d="M479 36q-78 -21 -137 -45l-4 2v83l-43 -43q-43 -43 -103 -43q-55 0 -88 35.5t-33 94.5v252q0 35 -13 48.5t-49 15.5v14h146v-326q0 -31 21 -53.5t50 -22.5q48 0 90 36q17 13 17 51v235q0 37 -13.5 49t-60.5 14v17h158v-343q0 -35 11.5 -46t45.5 -11h5v-14zM395 643
q0 -23 -30 -42l-154 -97h-40l147 148q23 23 42 23q35 0 35 -32z" />
    <glyph glyph-name="ucircumflex" unicode="&#xfb;" 
d="M479 36q-78 -21 -137 -45l-4 2v83l-43 -43q-43 -43 -103 -43q-55 0 -88 35.5t-33 94.5v252q0 35 -13 48.5t-49 15.5v14h146v-326q0 -31 21 -53.5t50 -22.5q48 0 90 36q17 13 17 51v235q0 37 -13.5 49t-60.5 14v17h158v-343q0 -35 11.5 -46t45.5 -11h5v-14zM400 507h-34
l-122 103l-121 -103h-34l124 167h62z" />
    <glyph glyph-name="udieresis" unicode="&#xfc;" 
d="M479 36q-78 -21 -137 -45l-4 2v83l-43 -43q-43 -43 -103 -43q-55 0 -88 35.5t-33 94.5v252q0 35 -13 48.5t-49 15.5v14h146v-326q0 -31 21 -53.5t50 -22.5q48 0 90 36q17 13 17 51v235q0 37 -13.5 49t-60.5 14v17h158v-343q0 -35 11.5 -46t45.5 -11h5v-14zM195 590
q0 -20 -15 -34.5t-36 -14.5q-20 0 -34 14.5t-14 35.5q0 19 14.5 34t33.5 15q21 0 36 -15t15 -35zM394 590q0 -20 -15 -34.5t-36 -14.5q-20 0 -34 14.5t-14 35.5q0 19 14.5 34t33.5 15q21 0 36 -15t15 -35z" />
    <glyph glyph-name="yacute" unicode="&#xfd;" 
d="M475 435q-18 -2 -28 -11.5t-20 -33.5l-154 -408q-40 -108 -79.5 -154t-89.5 -46q-32 0 -53 16.5t-21 41.5q0 18 13 31t30 13q23 0 53 -11q14 -7 25 -7t25.5 13t24.5 32q13 22 26.5 59.5t13.5 48.5q0 10 -11 37l-165 348q-12 26 -51 32v14h206v-15q-32 -1 -45 -7t-13 -20
q0 -15 10 -38l115 -253l97 276q4 9 4 17q0 25 -48 25v15h135v-15zM431 643q0 -23 -30 -42l-154 -97h-40l147 148q23 23 42 23q35 0 35 -32z" />
    <glyph glyph-name="thorn" unicode="&#xfe;" 
d="M470 247q0 -109 -60.5 -183t-149.5 -74q-32 0 -53.5 9t-47.5 34v-157q0 -47 16 -60.5t72 -14.5v-18h-242v18q44 4 57 16.5t13 51.5v704q0 31 -9.5 41t-39.5 10q-11 0 -17 -1v16q93 26 145 44l5 -3v-298q65 78 144 78q73 0 120 -60t47 -153zM384 208q0 87 -33.5 139.5
t-89.5 52.5q-35 0 -68.5 -22t-33.5 -44v-246q0 -22 34.5 -44t69.5 -22q54 0 87.5 51.5t33.5 134.5z" />
    <glyph glyph-name="ydieresis" unicode="&#xff;" 
d="M475 435q-18 -2 -28 -11.5t-20 -33.5l-154 -408q-40 -108 -79.5 -154t-89.5 -46q-32 0 -53 16.5t-21 41.5q0 18 13 31t30 13q23 0 53 -11q14 -7 25 -7t25.5 13t24.5 32q13 22 26.5 59.5t13.5 48.5q0 10 -11 37l-165 348q-12 26 -51 32v14h206v-15q-32 -1 -45 -7t-13 -20
q0 -15 10 -38l115 -253l97 276q4 9 4 17q0 25 -48 25v15h135v-15zM231 590q0 -20 -15 -34.5t-36 -14.5q-20 0 -34 14.5t-14 35.5q0 19 14.5 34t33.5 15q21 0 36 -15t15 -35zM430 590q0 -20 -15 -34.5t-36 -14.5q-20 0 -34 14.5t-14 35.5q0 19 14.5 34t33.5 15q21 0 36 -15
t15 -35z" />
    <glyph glyph-name="Amacron" unicode="&#x100;" horiz-adv-x="722" 
d="M706 0h-255v19q41 0 56 9q14 7 14 24q0 24 -19 68l-41 96h-262l-46 -117q-8 -21 -8 -39q0 -41 68 -41v-19h-198v19q36 2 56 28.5t68 135.5l208 491h20l249 -568q26 -56 41 -70.5t49 -16.5v-19zM447 257l-116 275l-115 -275h231zM513 755h-311v54h311v-54z" />
    <glyph glyph-name="amacron" unicode="&#x101;" horiz-adv-x="444" 
d="M442 40q-26 -29 -45.5 -39.5t-44.5 -10.5q-31 0 -45.5 16.5t-18.5 56.5q-86 -73 -146 -73q-46 0 -75.5 30t-29.5 77q0 54 36 87q32 28 64.5 44.5t149.5 63.5v61q0 83 -76 83q-30 0 -51 -14.5t-21 -34.5q0 -11 3 -24q2 -14 2 -16q0 -17 -13.5 -29.5t-31.5 -12.5t-30.5 13
t-12.5 30q0 41 41 75q45 37 127 37q93 0 125 -58q19 -31 19 -102v-195q0 -33 6.5 -45.5t23.5 -12.5q21 0 44 19v-26zM287 123v145q-90 -33 -126 -64t-36 -75v-4q0 -32 18.5 -54.5t44.5 -22.5q35 0 73 22q16 10 21 20t5 33zM380 563h-311v54h311v-54z" />
    <glyph glyph-name="Abreve" unicode="&#x102;" horiz-adv-x="722" 
d="M706 0h-255v19q41 0 56 9q14 7 14 24q0 24 -19 68l-41 96h-262l-46 -117q-8 -21 -8 -39q0 -41 68 -41v-19h-198v19q36 2 56 28.5t68 135.5l208 491h20l249 -568q26 -56 41 -70.5t49 -16.5v-19zM447 257l-116 275l-115 -275h231zM514 851q0 -55 -44 -96.5t-112 -41.5
t-112 41.5t-44 96.5h26q23 -82 130 -82t130 82h26z" />
    <glyph glyph-name="abreve" unicode="&#x103;" horiz-adv-x="444" 
d="M442 40q-26 -29 -45.5 -39.5t-44.5 -10.5q-31 0 -45.5 16.5t-18.5 56.5q-86 -73 -146 -73q-46 0 -75.5 30t-29.5 77q0 54 36 87q32 28 64.5 44.5t149.5 63.5v61q0 83 -76 83q-30 0 -51 -14.5t-21 -34.5q0 -11 3 -24q2 -14 2 -16q0 -17 -13.5 -29.5t-31.5 -12.5t-30.5 13
t-12.5 30q0 41 41 75q45 37 127 37q93 0 125 -58q19 -31 19 -102v-195q0 -33 6.5 -45.5t23.5 -12.5q21 0 44 19v-26zM287 123v145q-90 -33 -126 -64t-36 -75v-4q0 -32 18.5 -54.5t44.5 -22.5q35 0 73 22q16 10 21 20t5 33zM365 669q-18 -157 -142 -157q-73 0 -112 54
q-26 38 -27 103h29q11 -50 37.5 -73.5t74.5 -23.5q44 0 67 20t44 77h29z" />
    <glyph glyph-name="Aogonek" unicode="&#x104;" horiz-adv-x="722" 
d="M706 -164q-37 -81 -103 -81q-32 0 -54.5 25t-22.5 61q0 57 36 104q21 29 55 55h-166v19q41 0 56 9q14 7 14 24q0 24 -19 68l-41 96h-262l-46 -117q-8 -21 -8 -39q0 -41 68 -41v-19h-198v19q36 2 56 28.5t68 135.5l208 491h20l249 -568q26 -56 41 -70.5t49 -16.5v-19
q-67 0 -95 -49q-24 -38 -24 -83q0 -28 12 -44.5t34 -16.5q28 0 54 43zM447 257l-116 275l-115 -275h231z" />
    <glyph glyph-name="aogonek" unicode="&#x105;" horiz-adv-x="444" 
d="M442 -164q-37 -81 -103 -81q-32 0 -54.5 25t-22.5 61q0 57 36 104q15 22 43 46q-25 2 -37 19t-16 53q-86 -73 -146 -73q-46 0 -75.5 30t-29.5 77q0 54 36 87q32 28 64.5 44.5t149.5 63.5v61q0 83 -76 83q-30 0 -51 -14.5t-21 -34.5q0 -11 3 -24q2 -14 2 -16
q0 -17 -13.5 -29.5t-31.5 -12.5t-30.5 13t-12.5 30q0 41 41 75q45 37 127 37q93 0 125 -58q19 -31 19 -102v-195q0 -33 6.5 -45.5t23.5 -12.5q21 0 44 19v-26q-24 -27 -45 -39q-50 -28 -68 -89q-6 -20 -6 -44q0 -28 12 -44.5t34 -16.5q28 0 54 43zM287 123v145
q-90 -33 -126 -64t-36 -75v-4q0 -32 18.5 -54.5t44.5 -22.5q35 0 73 22q16 10 21 20t5 33z" />
    <glyph glyph-name="Cacute" unicode="&#x106;" horiz-adv-x="667" 
d="M633 113q-46 -61 -117 -94t-156 -33q-149 0 -240.5 93.5t-91.5 245.5q0 175 117 272q96 79 217 79q74 0 147 -24q24 -9 40 -9q32 0 41 33h21l9 -226h-23q-14 49 -28 75t-38 50q-61 61 -149 61q-109 0 -173.5 -81t-64.5 -217q0 -179 92 -255q64 -53 156 -53q118 0 223 101
zM517 825q0 -20 -32 -33l-167 -80h-43l158 120q25 19 46 19q38 0 38 -26z" />
    <glyph glyph-name="cacute" unicode="&#x107;" horiz-adv-x="444" 
d="M412 147q-43 -84 -82 -115q-51 -42 -115 -42q-83 0 -136.5 62.5t-53.5 159.5q0 127 84 197q62 51 135 51q63 0 108.5 -30.5t45.5 -72.5q0 -17 -14 -29.5t-33 -12.5q-35 0 -48 46l-6 22q-8 28 -20 38t-39 10q-61 0 -98.5 -48t-37.5 -126q0 -86 43 -140.5t112 -54.5
q43 0 74 20.5t67 73.5zM395 643q0 -23 -30 -42l-154 -97h-40l147 148q23 23 42 23q35 0 35 -32z" />
    <glyph glyph-name="Ccircumflex" unicode="&#x108;" horiz-adv-x="667" 
d="M633 113q-46 -61 -117 -94t-156 -33q-149 0 -240.5 93.5t-91.5 245.5q0 175 117 272q96 79 217 79q74 0 147 -24q24 -9 40 -9q32 0 41 33h21l9 -226h-23q-14 49 -28 75t-38 50q-61 61 -149 61q-109 0 -173.5 -81t-64.5 -217q0 -179 92 -255q64 -53 156 -53q118 0 223 101
zM536 718h-48l-125 79l-125 -79h-48l134 129h77z" />
    <glyph glyph-name="ccircumflex" unicode="&#x109;" horiz-adv-x="444" 
d="M412 147q-43 -84 -82 -115q-51 -42 -115 -42q-83 0 -136.5 62.5t-53.5 159.5q0 127 84 197q62 51 135 51q63 0 108.5 -30.5t45.5 -72.5q0 -17 -14 -29.5t-33 -12.5q-35 0 -48 46l-6 22q-8 28 -20 38t-39 10q-61 0 -98.5 -48t-37.5 -126q0 -86 43 -140.5t112 -54.5
q43 0 74 20.5t67 73.5zM400 507h-34l-122 103l-121 -103h-34l124 167h62z" />
    <glyph glyph-name="Cdotaccent" unicode="&#x10a;" horiz-adv-x="667" 
d="M633 113q-46 -61 -117 -94t-156 -33q-149 0 -240.5 93.5t-91.5 245.5q0 175 117 272q96 79 217 79q74 0 147 -24q24 -9 40 -9q32 0 41 33h21l9 -226h-23q-14 49 -28 75t-38 50q-61 61 -149 61q-109 0 -173.5 -81t-64.5 -217q0 -179 92 -255q64 -53 156 -53q118 0 223 101
zM413 782q0 -22 -14.5 -36.5t-36.5 -14.5q-21 0 -36 14.5t-15 36.5q0 21 15 36t36 15q22 0 36.5 -15t14.5 -36z" />
    <glyph glyph-name="cdotaccent" unicode="&#x10b;" horiz-adv-x="444" 
d="M412 147q-43 -84 -82 -115q-51 -42 -115 -42q-83 0 -136.5 62.5t-53.5 159.5q0 127 84 197q62 51 135 51q63 0 108.5 -30.5t45.5 -72.5q0 -17 -14 -29.5t-33 -12.5q-35 0 -48 46l-6 22q-8 28 -20 38t-39 10q-61 0 -98.5 -48t-37.5 -126q0 -86 43 -140.5t112 -54.5
q43 0 74 20.5t67 73.5zM295 590q0 -22 -14.5 -36.5t-36.5 -14.5q-21 0 -36 14.5t-15 36.5q0 21 15 36t36 15q22 0 36.5 -15t14.5 -36z" />
    <glyph glyph-name="Ccaron" unicode="&#x10c;" horiz-adv-x="667" 
d="M633 113q-46 -61 -117 -94t-156 -33q-149 0 -240.5 93.5t-91.5 245.5q0 175 117 272q96 79 217 79q74 0 147 -24q24 -9 40 -9q32 0 41 33h21l9 -226h-23q-14 49 -28 75t-38 50q-61 61 -149 61q-109 0 -173.5 -81t-64.5 -217q0 -179 92 -255q64 -53 156 -53q118 0 223 101
zM535 847l-134 -129h-77l-135 129h48l125 -79l125 79h48z" />
    <glyph glyph-name="ccaron" unicode="&#x10d;" horiz-adv-x="444" 
d="M412 147q-43 -84 -82 -115q-51 -42 -115 -42q-83 0 -136.5 62.5t-53.5 159.5q0 127 84 197q62 51 135 51q63 0 108.5 -30.5t45.5 -72.5q0 -17 -14 -29.5t-33 -12.5q-35 0 -48 46l-6 22q-8 28 -20 38t-39 10q-61 0 -98.5 -48t-37.5 -126q0 -86 43 -140.5t112 -54.5
q43 0 74 20.5t67 73.5zM400 674l-125 -167h-62l-124 167h34l121 -103l122 103h34z" />
    <glyph glyph-name="Dcaron" unicode="&#x10e;" horiz-adv-x="722" 
d="M685 334q0 -152 -102 -245q-46 -42 -121 -65.5t-162 -23.5h-284v19q57 4 72.5 20t15.5 70v444q0 55 -14.5 70t-73.5 20v19h270q211 0 314 -105q85 -85 85 -223zM576 327q0 166 -119 248q-71 50 -199 50q-31 0 -41.5 -8t-10.5 -31v-508q0 -24 11 -32.5t41 -8.5
q124 0 196 41q122 71 122 249zM473 847l-134 -129h-77l-135 129h48l125 -79l125 79h48z" />
    <glyph glyph-name="dcaron" unicode="&#x10f;" 
d="M491 42l-147 -52l-4 3v64q-48 -67 -128 -67q-83 0 -134 59.5t-51 155.5q0 106 61 180.5t147 74.5q54 0 105 -43v156q0 31 -9 41t-37 10q-14 0 -22 -1v16q91 24 147 44l5 -2v-567q0 -35 8.5 -46t35.5 -11q5 0 23 1v-16zM340 102v230q0 40 -31 70t-71 30q-57 0 -91 -51
t-34 -136q0 -92 38 -147.5t100 -55.5q45 0 72 30q17 19 17 30zM603 594q0 -45 -31 -87t-81 -67l-9 19q82 56 82 106q0 14 -14 14q-1 0 -8 -2q-12 -2 -19 -2q-27 0 -43 13.5t-16 37.5q0 25 16.5 41t42.5 16q34 0 57 -25.5t23 -63.5z" />
    <glyph glyph-name="Dcroat" unicode="&#x110;" horiz-adv-x="722" 
d="M685 334q0 -152 -102 -245q-46 -42 -121 -65.5t-162 -23.5h-284v19q57 4 72.5 20t15.5 70v206h-83v44h83v194q0 55 -14.5 70t-73.5 20v19h270q211 0 314 -105q85 -85 85 -223zM576 327q0 166 -119 248q-71 50 -201 50q-30 0 -40 -8t-10 -31v-227h146v-44h-146v-237
q0 -24 11 -32.5t41 -8.5q124 0 196 41q122 71 122 249z" />
    <glyph glyph-name="dcroat" unicode="&#x111;" 
d="M500 527h-76v-413q0 -35 8.5 -46t35.5 -11q5 0 23 1v-16l-147 -52l-4 3v64q-48 -67 -128 -67q-83 0 -134 59.5t-51 155.5q0 106 61 180.5t147 74.5q54 0 105 -43v110h-121v34h121v12q0 31 -9 41t-37 10q-14 0 -22 -1v16q91 24 147 44l5 -2v-120h76v-34zM340 102v230
q0 40 -31 70t-71 30q-57 0 -91 -51t-34 -136q0 -92 38 -147.5t100 -55.5q45 0 72 30q17 19 17 30z" />
    <glyph glyph-name="Emacron" unicode="&#x112;" horiz-adv-x="611" 
d="M597 169l-45 -169h-540v19q55 4 71 20.5t16 69.5v444q0 53 -15.5 69t-71.5 21v19h531l3 -143h-25q-13 67 -40 86t-112 19h-135q-20 0 -26.5 -6.5t-6.5 -27.5v-222h154q61 0 80.5 17t29.5 78h23v-232h-23q-10 62 -29 79t-81 17h-154v-247q0 -27 8 -32q14 -11 97 -11h27
q107 0 153 25.5t83 106.5h28zM438 755h-311v54h311v-54z" />
    <glyph glyph-name="emacron" unicode="&#x113;" horiz-adv-x="444" 
d="M424 157q-65 -167 -212 -167q-86 0 -136.5 60.5t-50.5 163.5q0 109 58 177.5t151 68.5q80 0 128 -57q33 -42 43 -126h-308q3 -85 30 -138q43 -80 126 -80q48 0 83.5 24t71.5 81zM303 309q-10 65 -31 90t-67 25q-90 0 -106 -115h204zM390 563h-311v54h311v-54z" />
    <glyph glyph-name="Ebreve" unicode="&#x114;" horiz-adv-x="611" 
d="M597 169l-45 -169h-540v19q55 4 71 20.5t16 69.5v444q0 53 -15.5 69t-71.5 21v19h531l3 -143h-25q-13 67 -40 86t-112 19h-135q-20 0 -26.5 -6.5t-6.5 -27.5v-222h154q61 0 80.5 17t29.5 78h23v-232h-23q-10 62 -29 79t-81 17h-154v-247q0 -27 8 -32q14 -11 97 -11h27
q107 0 153 25.5t83 106.5h28zM439 851q0 -55 -44 -96.5t-112 -41.5t-112 41.5t-44 96.5h26q23 -82 130 -82t130 82h26z" />
    <glyph glyph-name="ebreve" unicode="&#x115;" horiz-adv-x="444" 
d="M424 157q-65 -167 -212 -167q-86 0 -136.5 60.5t-50.5 163.5q0 109 58 177.5t151 68.5q80 0 128 -57q33 -42 43 -126h-308q3 -85 30 -138q43 -80 126 -80q48 0 83.5 24t71.5 81zM303 309q-10 65 -31 90t-67 25q-90 0 -106 -115h204zM375 669q-18 -157 -142 -157
q-73 0 -112 54q-26 38 -27 103h29q11 -50 37.5 -73.5t74.5 -23.5q44 0 67 20t44 77h29z" />
    <glyph glyph-name="Edotaccent" unicode="&#x116;" horiz-adv-x="611" 
d="M597 169l-45 -169h-540v19q55 4 71 20.5t16 69.5v444q0 53 -15.5 69t-71.5 21v19h531l3 -143h-25q-13 67 -40 86t-112 19h-135q-20 0 -26.5 -6.5t-6.5 -27.5v-222h154q61 0 80.5 17t29.5 78h23v-232h-23q-10 62 -29 79t-81 17h-154v-247q0 -27 8 -32q14 -11 97 -11h27
q107 0 153 25.5t83 106.5h28zM333 782q0 -22 -14.5 -36.5t-36.5 -14.5q-21 0 -36 14.5t-15 36.5q0 21 15 36t36 15q22 0 36.5 -15t14.5 -36z" />
    <glyph glyph-name="edotaccent" unicode="&#x117;" horiz-adv-x="444" 
d="M424 157q-65 -167 -212 -167q-86 0 -136.5 60.5t-50.5 163.5q0 109 58 177.5t151 68.5q80 0 128 -57q33 -42 43 -126h-308q3 -85 30 -138q43 -80 126 -80q48 0 83.5 24t71.5 81zM303 309q-10 65 -31 90t-67 25q-90 0 -106 -115h204zM285 590q0 -22 -14.5 -36.5
t-36.5 -14.5q-21 0 -36 14.5t-15 36.5q0 21 15 36t36 15q22 0 36.5 -15t14.5 -36z" />
    <glyph glyph-name="Eogonek" unicode="&#x118;" horiz-adv-x="611" 
d="M597 169l-45 -169q-67 0 -95 -49q-24 -38 -24 -83q0 -28 12 -44.5t34 -16.5q28 0 54 43l19 -14q-37 -81 -103 -81q-32 0 -54.5 25t-22.5 61q0 57 36 104q21 29 55 55h-451v19q55 4 71 20.5t16 69.5v444q0 53 -15.5 69t-71.5 21v19h531l3 -143h-25q-13 67 -40 86t-112 19
h-135q-20 0 -26.5 -6.5t-6.5 -27.5v-222h154q61 0 80.5 17t29.5 78h23v-232h-23q-10 62 -29 79t-81 17h-154v-247q0 -27 8 -32q14 -11 97 -11h27q107 0 153 25.5t83 106.5h28z" />
    <glyph glyph-name="eogonek" unicode="&#x119;" horiz-adv-x="444" 
d="M424 157q-26 -66 -65 -105q-78 -80 -90 -101q-24 -38 -24 -83q0 -28 12 -44.5t34 -16.5q28 0 54 43l19 -14q-37 -81 -103 -81q-32 0 -54.5 25t-22.5 61q0 57 36 104q18 26 53 54q-29 -9 -61 -9q-86 0 -136.5 60.5t-50.5 163.5q0 109 58 177.5t151 68.5q80 0 128 -57
q33 -42 43 -126h-308q3 -85 30 -138q43 -80 126 -80q48 0 83.5 24t71.5 81zM303 309q-10 65 -31 90t-67 25q-90 0 -106 -115h204z" />
    <glyph glyph-name="Ecaron" unicode="&#x11a;" horiz-adv-x="611" 
d="M597 169l-45 -169h-540v19q55 4 71 20.5t16 69.5v444q0 53 -15.5 69t-71.5 21v19h531l3 -143h-25q-13 67 -40 86t-112 19h-135q-20 0 -26.5 -6.5t-6.5 -27.5v-222h154q61 0 80.5 17t29.5 78h23v-232h-23q-10 62 -29 79t-81 17h-154v-247q0 -27 8 -32q14 -11 97 -11h27
q107 0 153 25.5t83 106.5h28zM455 847l-134 -129h-77l-135 129h48l125 -79l125 79h48z" />
    <glyph glyph-name="ecaron" unicode="&#x11b;" horiz-adv-x="444" 
d="M424 157q-65 -167 -212 -167q-86 0 -136.5 60.5t-50.5 163.5q0 109 58 177.5t151 68.5q80 0 128 -57q33 -42 43 -126h-308q3 -85 30 -138q43 -80 126 -80q48 0 83.5 24t71.5 81zM303 309q-10 65 -31 90t-67 25q-90 0 -106 -115h204zM390 674l-125 -167h-62l-124 167h34
l121 -103l122 103h34z" />
    <glyph glyph-name="Gcircumflex" unicode="&#x11c;" horiz-adv-x="722" 
d="M709 336q-44 -4 -57 -18.5t-13 -58.5v-203q-30 -26 -108.5 -48t-142.5 -22q-169 0 -273 107q-83 87 -83 232q0 153 96.5 252t246.5 99q67 0 136 -23q26 -10 44 -10q16 0 28 9.5t17 23.5h22l8 -211h-23q-33 81 -71 116q-60 55 -144 55q-106 0 -174 -76
q-33 -37 -52.5 -100.5t-19.5 -133.5q0 -139 70.5 -219.5t192.5 -80.5q54 0 93.5 17.5t39.5 41.5v162q0 62 -21 75q-16 10 -67 14v18h255v-18zM549 718h-48l-125 79l-125 -79h-48l134 129h77z" />
    <glyph glyph-name="gcircumflex" unicode="&#x11d;" 
d="M470 388h-83q19 -43 19 -84q0 -72 -48 -113q-48 -42 -108 -42q-10 0 -38 3q-1 0 -19 2q-20 -6 -40 -27t-20 -36q0 -24 78 -27l129 -6q55 -2 88 -31t33 -76q0 -56 -55 -101q-84 -68 -205 -68q-71 0 -122 28.5t-51 68.5q0 28 22.5 55.5t75.5 66.5q-31 15 -42 26t-11 27
q0 29 46 69l43 40q-50 25 -71.5 56t-21.5 78q0 68 48.5 115.5t118.5 47.5q40 0 80 -15l22 -8q29 -10 55 -10h77v-39zM433 -64q0 27 -28 38t-96 11q-101 0 -162 13q-31 -37 -40 -53t-9 -33q0 -33 40 -53t106 -20q85 0 137 27t52 70zM329 265q0 62 -30 120q-25 47 -73 47
q-35 0 -54.5 -25t-19.5 -69v-3q0 -72 28.5 -116.5t73.5 -44.5q35 0 55 24.5t20 66.5zM392 507h-34l-122 103l-121 -103h-34l124 167h62z" />
    <glyph glyph-name="Gbreve" unicode="&#x11e;" horiz-adv-x="722" 
d="M709 336q-44 -4 -57 -18.5t-13 -58.5v-203q-30 -26 -108.5 -48t-142.5 -22q-169 0 -273 107q-83 87 -83 232q0 153 96.5 252t246.5 99q67 0 136 -23q26 -10 44 -10q16 0 28 9.5t17 23.5h22l8 -211h-23q-33 81 -71 116q-60 55 -144 55q-106 0 -174 -76
q-33 -37 -52.5 -100.5t-19.5 -133.5q0 -139 70.5 -219.5t192.5 -80.5q54 0 93.5 17.5t39.5 41.5v162q0 62 -21 75q-16 10 -67 14v18h255v-18zM532 851q0 -55 -44 -96.5t-112 -41.5t-112 41.5t-44 96.5h26q23 -82 130 -82t130 82h26z" />
    <glyph glyph-name="gbreve" unicode="&#x11f;" 
d="M470 388h-83q19 -43 19 -84q0 -72 -48 -113q-48 -42 -108 -42q-10 0 -38 3q-1 0 -19 2q-20 -6 -40 -27t-20 -36q0 -24 78 -27l129 -6q55 -2 88 -31t33 -76q0 -56 -55 -101q-84 -68 -205 -68q-71 0 -122 28.5t-51 68.5q0 28 22.5 55.5t75.5 66.5q-31 15 -42 26t-11 27
q0 29 46 69l43 40q-50 25 -71.5 56t-21.5 78q0 68 48.5 115.5t118.5 47.5q40 0 80 -15l22 -8q29 -10 55 -10h77v-39zM433 -64q0 27 -28 38t-96 11q-101 0 -162 13q-31 -37 -40 -53t-9 -33q0 -33 40 -53t106 -20q85 0 137 27t52 70zM329 265q0 62 -30 120q-25 47 -73 47
q-35 0 -54.5 -25t-19.5 -69v-3q0 -72 28.5 -116.5t73.5 -44.5q35 0 55 24.5t20 66.5zM377 669q-18 -157 -142 -157q-73 0 -112 54q-26 38 -27 103h29q11 -50 37.5 -73.5t74.5 -23.5q44 0 67 20t44 77h29z" />
    <glyph glyph-name="Gdotaccent" unicode="&#x120;" horiz-adv-x="722" 
d="M709 336q-44 -4 -57 -18.5t-13 -58.5v-203q-30 -26 -108.5 -48t-142.5 -22q-169 0 -273 107q-83 87 -83 232q0 153 96.5 252t246.5 99q67 0 136 -23q26 -10 44 -10q16 0 28 9.5t17 23.5h22l8 -211h-23q-33 81 -71 116q-60 55 -144 55q-106 0 -174 -76
q-33 -37 -52.5 -100.5t-19.5 -133.5q0 -139 70.5 -219.5t192.5 -80.5q54 0 93.5 17.5t39.5 41.5v162q0 62 -21 75q-16 10 -67 14v18h255v-18zM426 782q0 -22 -14.5 -36.5t-36.5 -14.5q-21 0 -36 14.5t-15 36.5q0 21 15 36t36 15q22 0 36.5 -15t14.5 -36z" />
    <glyph glyph-name="gdotaccent" unicode="&#x121;" 
d="M470 388h-83q19 -43 19 -84q0 -72 -48 -113q-48 -42 -108 -42q-10 0 -38 3q-1 0 -19 2q-20 -6 -40 -27t-20 -36q0 -24 78 -27l129 -6q55 -2 88 -31t33 -76q0 -56 -55 -101q-84 -68 -205 -68q-71 0 -122 28.5t-51 68.5q0 28 22.5 55.5t75.5 66.5q-31 15 -42 26t-11 27
q0 29 46 69l43 40q-50 25 -71.5 56t-21.5 78q0 68 48.5 115.5t118.5 47.5q40 0 80 -15l22 -8q29 -10 55 -10h77v-39zM433 -64q0 27 -28 38t-96 11q-101 0 -162 13q-31 -37 -40 -53t-9 -33q0 -33 40 -53t106 -20q85 0 137 27t52 70zM329 265q0 62 -30 120q-25 47 -73 47
q-35 0 -54.5 -25t-19.5 -69v-3q0 -72 28.5 -116.5t73.5 -44.5q35 0 55 24.5t20 66.5zM287 590q0 -22 -14.5 -36.5t-36.5 -14.5q-21 0 -36 14.5t-15 36.5q0 21 15 36t36 15q22 0 36.5 -15t14.5 -36z" />
    <glyph glyph-name="Gcommaaccent" unicode="&#x122;" horiz-adv-x="722" 
d="M709 336q-44 -4 -57 -18.5t-13 -58.5v-203q-30 -26 -108.5 -48t-142.5 -22q-169 0 -273 107q-83 87 -83 232q0 153 96.5 252t246.5 99q67 0 136 -23q26 -10 44 -10q16 0 28 9.5t17 23.5h22l8 -211h-23q-33 81 -71 116q-60 55 -144 55q-106 0 -174 -76
q-33 -37 -52.5 -100.5t-19.5 -133.5q0 -139 70.5 -219.5t192.5 -80.5q54 0 93.5 17.5t39.5 41.5v162q0 62 -21 75q-16 10 -67 14v18h255v-18zM445 -127q0 -45 -31 -87t-81 -67l-9 19q82 56 82 106q0 14 -14 14q-1 0 -8 -2q-12 -2 -19 -2q-27 0 -43 13.5t-16 37.5
q0 25 16.5 41t42.5 16q34 0 57 -25.5t23 -63.5z" />
    <glyph glyph-name="gcommaaccent" unicode="&#x123;" 
d="M306 547q0 -25 -16.5 -41t-42.5 -16q-34 0 -57 25.5t-23 63.5q0 45 31 87t81 67l9 -19q-82 -56 -82 -106q0 -14 14 -14q1 0 8 2q12 2 19 2q27 0 43 -13.5t16 -37.5zM470 388h-83q19 -43 19 -84q0 -72 -48 -113q-48 -42 -108 -42q-10 0 -38 3q-1 0 -19 2q-20 -6 -40 -27
t-20 -36q0 -24 78 -27l129 -6q55 -2 88 -31t33 -76q0 -56 -55 -101q-84 -68 -205 -68q-71 0 -122 28.5t-51 68.5q0 28 22.5 55.5t75.5 66.5q-31 15 -42 26t-11 27q0 29 46 69l43 40q-50 25 -71.5 56t-21.5 78q0 68 48.5 115.5t118.5 47.5q40 0 80 -15l22 -8q29 -10 55 -10
h77v-39zM433 -64q0 27 -28 38t-96 11q-101 0 -162 13q-31 -37 -40 -53t-9 -33q0 -33 40 -53t106 -20q85 0 137 27t52 70zM329 265q0 62 -30 120q-25 47 -73 47q-35 0 -54.5 -25t-19.5 -69v-3q0 -72 28.5 -116.5t73.5 -44.5q35 0 55 24.5t20 66.5z" />
    <glyph glyph-name="Hcircumflex" unicode="&#x124;" horiz-adv-x="722" 
d="M702 0h-278v19q58 4 73 21t15 80v195h-303v-206q0 -53 16 -69t72 -21v-19h-278v19q58 4 73 21t15 80v433q0 54 -15 69.5t-73 20.5v19h278v-19q-58 -5 -73 -20.5t-15 -69.5v-194h303v194q0 54 -15 69.5t-73 20.5v19h278v-19q-58 -5 -73 -20.5t-15 -69.5v-444q0 -53 16 -69
t72 -21v-19zM534 718h-48l-125 79l-125 -79h-48l134 129h77z" />
    <glyph glyph-name="hcircumflex" unicode="&#x125;" 
d="M487 0h-212v15q43 4 55.5 20t12.5 67v198q0 106 -75 106q-29 0 -54.5 -14.5t-56.5 -48.5v-241q0 -52 12 -67t56 -20v-15h-216v15q43 6 53.5 20t10.5 67v471q0 32 -9.5 41.5t-41.5 9.5q-8 0 -12 -1v16l27 8q68 19 115 36l5 -3v-304q35 45 69 64.5t78 19.5q123 0 123 -159
v-199q0 -52 9.5 -65.5t50.5 -21.5v-15zM424 739h-48l-125 79l-125 -79h-48l134 129h77z" />
    <glyph glyph-name="Hbar" unicode="&#x126;" horiz-adv-x="722" 
d="M702 0h-278v19q58 4 73 21t15 80v195h-303v-206q0 -53 16 -69t72 -21v-19h-278v19q58 4 73 21t15 80v363h-88v28h88v42q0 54 -15 69.5t-73 20.5v19h278v-19q-58 -5 -73 -20.5t-15 -69.5v-42h303v42q0 54 -15 69.5t-73 20.5v19h278v-19q-58 -5 -73 -20.5t-15 -69.5v-42h88
v-28h-88v-374q0 -53 16 -69t72 -21v-19zM512 359v124h-303v-124h303z" />
    <glyph glyph-name="hbar" unicode="&#x127;" horiz-adv-x="558" 
d="M518 0h-212v15q43 4 55.5 20t12.5 67v198q0 106 -75 106q-29 0 -54.5 -14.5t-56.5 -48.5v-241q0 -52 12 -67t56 -20v-15h-216v15q43 6 53.5 20t10.5 67v440h-64v28h64v3q0 32 -9.5 41.5t-41.5 9.5q-8 0 -12 -1v16l27 8q68 19 115 36l5 -3v-110h93v-28h-93v-166
q35 45 69 64.5t78 19.5q123 0 123 -159v-199q0 -52 9.5 -65.5t50.5 -21.5v-15z" />
    <glyph glyph-name="Itilde" unicode="&#x128;" horiz-adv-x="333" 
d="M315 0h-297v19q63 2 80 18t17 72v444q0 55 -16.5 70.5t-80.5 19.5v19h297v-19q-63 -3 -80.5 -19t-17.5 -71v-444q0 -55 18 -71.5t80 -18.5v-19zM331 835q-16 -57 -40 -81.5t-65 -24.5q-32 0 -81 24l-23 11q-24 11 -41 11q-35 0 -51 -46h-29q11 49 37 75t64 26
q36 0 70 -18l24 -12q32 -15 53 -15q17 0 28.5 11t24.5 39h29z" />
    <glyph glyph-name="itilde" unicode="&#x129;" horiz-adv-x="278" 
d="M253 0h-237v15q52 3 65.5 18t13.5 69v232q0 33 -7.5 46.5t-25.5 13.5q-16 0 -34 -3l-8 -1v15l155 55l4 -3v-355q0 -54 12.5 -68.5t61.5 -18.5v-15zM302 643q-16 -57 -40 -81.5t-65 -24.5q-32 0 -81 24l-23 11q-24 11 -41 11q-35 0 -51 -46h-29q11 49 37.5 75t63.5 26
q35 0 70 -18l24 -12q32 -15 53 -15q17 0 28.5 11t24.5 39h29z" />
    <glyph glyph-name="Imacron" unicode="&#x12a;" horiz-adv-x="333" 
d="M315 0h-297v19q63 2 80 18t17 72v444q0 55 -16.5 70.5t-80.5 19.5v19h297v-19q-63 -3 -80.5 -19t-17.5 -71v-444q0 -55 18 -71.5t80 -18.5v-19zM322 755h-311v54h311v-54z" />
    <glyph glyph-name="imacron" unicode="&#x12b;" horiz-adv-x="278" 
d="M253 0h-237v15q52 3 65.5 18t13.5 69v232q0 33 -7.5 46.5t-25.5 13.5q-16 0 -34 -3l-8 -1v15l155 55l4 -3v-355q0 -54 12.5 -68.5t61.5 -18.5v-15zM293 563h-311v54h311v-54z" />
    <glyph glyph-name="Ibreve" unicode="&#x12c;" horiz-adv-x="333" 
d="M315 0h-297v19q63 2 80 18t17 72v444q0 55 -16.5 70.5t-80.5 19.5v19h297v-19q-63 -3 -80.5 -19t-17.5 -71v-444q0 -55 18 -71.5t80 -18.5v-19zM323 851q0 -55 -44 -96.5t-112 -41.5t-112 41.5t-44 96.5h26q23 -82 130 -82t130 82h26z" />
    <glyph glyph-name="ibreve" unicode="&#x12d;" horiz-adv-x="278" 
d="M253 0h-237v15q52 3 65.5 18t13.5 69v232q0 33 -7.5 46.5t-25.5 13.5q-16 0 -34 -3l-8 -1v15l155 55l4 -3v-355q0 -54 12.5 -68.5t61.5 -18.5v-15zM278 669q-18 -157 -142 -157q-73 0 -112 54q-26 38 -27 103h29q11 -50 37.5 -73.5t74.5 -23.5q44 0 67 20t44 77h29z" />
    <glyph glyph-name="Iogonek" unicode="&#x12e;" horiz-adv-x="333" 
d="M315 -164q-37 -81 -103 -81q-32 0 -54.5 25t-22.5 61q0 57 36 104q21 29 55 55h-208v19q63 2 80 18t17 72v444q0 55 -16.5 70.5t-80.5 19.5v19h297v-19q-63 -3 -80.5 -19t-17.5 -71v-444q0 -55 18 -71.5t80 -18.5v-19q-67 0 -95 -49q-24 -38 -24 -83q0 -28 12 -44.5
t34 -16.5q28 0 54 43z" />
    <glyph glyph-name="iogonek" unicode="&#x12f;" horiz-adv-x="278" 
d="M253 0q-31 5 -59.5 -8.5t-45.5 -40.5q-24 -38 -24 -83q0 -28 12 -44.5t34 -16.5q28 0 54 43l19 -14q-37 -81 -103 -81q-32 0 -54.5 25t-22.5 61q0 57 36 104q21 29 55 55h-138v15q52 3 65.5 18t13.5 69v232q0 33 -7.5 46.5t-25.5 13.5q-16 0 -34 -3l-8 -1v15l155 55l4 -3
v-355q0 -54 12.5 -68.5t61.5 -18.5v-15zM190 590q0 -22 -14.5 -36.5t-36.5 -14.5q-21 0 -36 14.5t-15 36.5q0 21 15 36t36 15q22 0 36.5 -15t14.5 -36z" />
    <glyph glyph-name="Idotaccent" unicode="&#x130;" horiz-adv-x="333" 
d="M315 0h-297v19q63 2 80 18t17 72v444q0 55 -16.5 70.5t-80.5 19.5v19h297v-19q-63 -3 -80.5 -19t-17.5 -71v-444q0 -55 18 -71.5t80 -18.5v-19zM217 782q0 -22 -14.5 -36.5t-36.5 -14.5q-21 0 -36 14.5t-15 36.5q0 21 15 36t36 15q22 0 36.5 -15t14.5 -36z" />
    <glyph glyph-name="dotlessi" unicode="&#x131;" horiz-adv-x="278" 
d="M253 0h-237v15q52 3 65.5 18t13.5 69v232q0 33 -7.5 46.5t-25.5 13.5q-16 0 -34 -3l-8 -1v15l155 55l4 -3v-355q0 -54 12.5 -68.5t61.5 -18.5v-15z" />
    <glyph glyph-name="Jcircumflex" unicode="&#x134;" horiz-adv-x="389" 
d="M370 643q-61 -4 -76.5 -19.5t-15.5 -70.5v-370q0 -94 -44 -145.5t-125 -51.5q-43 0 -71 20t-28 52q0 20 14.5 35t34.5 15q37 0 52 -51q5 -19 11 -26t16 -7q38 0 38 66v463q0 55 -16 70.5t-77 19.5v19h287v-19zM401 718h-48l-125 79l-125 -79h-48l134 129h77z" />
    <glyph glyph-name="jcircumflex" unicode="&#x135;" horiz-adv-x="278" 
d="M193 0q0 -107 -43.5 -162.5t-126.5 -55.5q-41 0 -67 15.5t-26 39.5q0 16 12 27.5t29 11.5q23 0 48 -32q23 -28 42 -28q23 0 34 18q14 25 14 121v379q0 60 -32 60q-16 0 -40 -3l-5 -1v16q80 25 156 54l5 -3v-457zM307 507h-34l-122 103l-121 -103h-34l124 167h62z" />
    <glyph glyph-name="Kcommaaccent" unicode="&#x136;" horiz-adv-x="722" 
d="M723 0h-305v19q12 1 28 1q42 2 42 22q0 18 -36.5 66t-93.5 104l-106 105l-26 -21v-187q0 -55 16 -70.5t74 -19.5v-19h-282v19q59 4 74.5 21.5t15.5 79.5v433q0 53 -16 69.5t-74 20.5v19h284v-19q-61 -4 -76.5 -19.5t-15.5 -70.5v-205l177 161q78 72 78 103
q0 15 -9.5 21.5t-32.5 8.5q-14 0 -26 1v19h262v-19q-51 -4 -76 -16.5t-76 -61.5l-190 -188l233 -250q68 -73 93 -90t64 -18v-19zM437 -127q0 -45 -31 -87t-81 -67l-9 19q82 56 82 106q0 14 -14 14q-1 0 -8 -2q-12 -2 -19 -2q-27 0 -43 13.5t-16 37.5q0 25 16.5 41t42.5 16
q34 0 57 -25.5t23 -63.5z" />
    <glyph glyph-name="kcommaaccent" unicode="&#x137;" 
d="M505 0h-218v15h19q21 0 21 15q0 7 -11 21q-3 3 -7 9l-3 4l-140 187v-184q0 -26 12.5 -38t42.5 -13l20 -1v-15h-234v15q54 9 64.5 18.5t10.5 48.5v482q0 36 -9 48.5t-34 12.5q-6 0 -32 -2v16l30 8l125 36l4 -2v-420l137 122q23 20 23 34q0 10 -10.5 14t-39.5 5v14h204v-15
h-8q-24 0 -46 -6q-47 -13 -162 -120l-29 -27l153 -194q31 -38 57.5 -54.5t59.5 -18.5v-15zM334 -127q0 -45 -31 -87t-81 -67l-9 19q82 56 82 106q0 14 -14 14q-1 0 -8 -2q-12 -2 -19 -2q-27 0 -43 13.5t-16 37.5q0 25 16.5 41t42.5 16q34 0 57 -25.5t23 -63.5z" />
    <glyph glyph-name="Lacute" unicode="&#x139;" horiz-adv-x="611" 
d="M598 174l-48 -174h-538v19q55 4 71 20.5t16 69.5v444q0 53 -15.5 69t-71.5 21v19h282v-19q-59 -4 -76 -20.5t-17 -69.5v-473q0 -26 15.5 -33.5t70.5 -7.5h67q125 0 176 61q19 22 43 74h25zM308 825q0 -20 -32 -33l-167 -80h-43l158 120q25 19 46 19q38 0 38 -26z" />
    <glyph glyph-name="lacute" unicode="&#x13a;" horiz-adv-x="278" 
d="M257 0h-236v15q47 4 62 18t15 54v477q0 35 -9 48t-33 13q-9 0 -31 -2h-6v16q99 24 159 44l4 -2v-597q0 -41 13.5 -53.5t61.5 -15.5v-15zM283 846q0 -20 -32 -33l-167 -80h-43l158 120q25 19 46 19q38 0 38 -26z" />
    <glyph glyph-name="Lcommaaccent" unicode="&#x13b;" horiz-adv-x="611" 
d="M598 174l-48 -174h-538v19q55 4 71 20.5t16 69.5v444q0 53 -15.5 69t-71.5 21v19h282v-19q-59 -4 -76 -20.5t-17 -69.5v-473q0 -26 15.5 -33.5t70.5 -7.5h67q125 0 176 61q19 22 43 74h25zM375 -127q0 -45 -31 -87t-81 -67l-9 19q82 56 82 106q0 14 -14 14q-1 0 -8 -2
q-12 -2 -19 -2q-27 0 -43 13.5t-16 37.5q0 25 16.5 41t42.5 16q34 0 57 -25.5t23 -63.5z" />
    <glyph glyph-name="lcommaaccent" unicode="&#x13c;" horiz-adv-x="278" 
d="M257 0h-236v15q47 4 62 18t15 54v477q0 35 -9 48t-33 13q-9 0 -31 -2h-6v16q99 24 159 44l4 -2v-597q0 -41 13.5 -53.5t61.5 -15.5v-15zM210 -127q0 -45 -31 -87t-81 -67l-9 19q82 56 82 106q0 14 -14 14q-1 0 -8 -2q-12 -2 -19 -2q-27 0 -43 13.5t-16 37.5q0 25 16.5 41
t42.5 16q34 0 57 -25.5t23 -63.5z" />
    <glyph glyph-name="Lcaron" unicode="&#x13d;" horiz-adv-x="611" 
d="M598 174l-48 -174h-538v19q55 4 71 20.5t16 69.5v444q0 53 -15.5 69t-71.5 21v19h282v-19q-59 -4 -76 -20.5t-17 -69.5v-473q0 -26 15.5 -33.5t70.5 -7.5h67q125 0 176 61q19 22 43 74h25zM473 573q0 -45 -31 -87t-81 -67l-9 19q82 56 82 106q0 14 -14 14q-1 0 -8 -2
q-12 -2 -19 -2q-27 0 -43 13.5t-16 37.5q0 25 16.5 41t42.5 16q34 0 57 -25.5t23 -63.5z" />
    <glyph glyph-name="lcaron" unicode="&#x13e;" horiz-adv-x="278" 
d="M257 0h-236v15q47 4 62 18t15 54v477q0 35 -9 48t-33 13q-9 0 -31 -2h-6v16q99 24 159 44l4 -2v-597q0 -41 13.5 -53.5t61.5 -15.5v-15zM361 594q0 -45 -31 -87t-81 -67l-9 19q82 56 82 106q0 14 -14 14q-1 0 -8 -2q-12 -2 -19 -2q-27 0 -43 13.5t-16 37.5q0 25 16.5 41
t42.5 16q34 0 57 -25.5t23 -63.5z" />
    <glyph glyph-name="Ldot" unicode="&#x13f;" horiz-adv-x="611" 
d="M598 174l-48 -174h-538v19q55 4 71 20.5t16 69.5v444q0 53 -15.5 69t-71.5 21v19h282v-19q-59 -4 -76 -20.5t-17 -69.5v-473q0 -26 15.5 -33.5t70.5 -7.5h67q125 0 176 61q19 22 43 74h25zM507 356q0 -22 -14.5 -36.5t-36.5 -14.5q-21 0 -36 14.5t-15 36.5q0 21 15 36
t36 15q22 0 36.5 -15t14.5 -36z" />
    <glyph glyph-name="ldot" unicode="&#x140;" horiz-adv-x="278" 
d="M257 0h-236v15q47 4 62 18t15 54v477q0 35 -9 48t-33 13q-9 0 -31 -2h-6v16q99 24 159 44l4 -2v-597q0 -41 13.5 -53.5t61.5 -15.5v-15zM330 356q0 -22 -14.5 -36.5t-36.5 -14.5q-21 0 -36 14.5t-15 36.5q0 21 15 36t36 15q22 0 36.5 -15t14.5 -36z" />
    <glyph glyph-name="Lslash" unicode="&#x141;" horiz-adv-x="611" 
d="M598 174l-48 -174h-538v19q55 4 71 20.5t16 69.5v145l-62 -57v51l62 57v248q0 53 -15.5 69t-71.5 21v19h282v-19q-59 -4 -76 -20.5t-17 -69.5v-174l125 115v-51l-125 -115v-248q0 -26 15.5 -33.5t70.5 -7.5h67q125 0 176 61q19 22 43 74h25z" />
    <glyph glyph-name="lslash" unicode="&#x142;" horiz-adv-x="278" 
d="M264 486l-82 -77v-325q0 -41 13.5 -53.5t61.5 -15.5v-15h-236v15q47 4 62 18t15 54v253l-83 -78v46l83 78v178q0 35 -9 48t-33 13q-9 0 -31 -2h-6v16q99 24 159 44l4 -2v-226l82 77v-46z" />
    <glyph glyph-name="Nacute" unicode="&#x143;" horiz-adv-x="722" 
d="M707 643q-48 -5 -66 -18q-29 -20 -29 -110v-526h-17l-442 550v-392q0 -76 18 -100.5t76 -27.5v-19h-235v19q62 4 79.5 27.5t17.5 100.5v441q-30 35 -47.5 45t-49.5 10v19h171l385 -484v337q0 92 -29 112q-21 12 -67 16v19h235v-19zM515 825q0 -20 -32 -33l-167 -80h-43
l158 120q25 19 46 19q38 0 38 -26z" />
    <glyph glyph-name="nacute" unicode="&#x144;" 
d="M485 0h-208v15q38 3 50.5 20t12.5 64v209q0 97 -73 97q-25 0 -46 -11.5t-57 -45.5v-281q0 -27 14 -38t52 -14v-15h-212v15q38 3 50 17.5t12 57.5v248q0 37 -8 50.5t-29 13.5q-19 0 -27 -4v17q74 22 138 45l7 -2v-79q51 48 80.5 64.5t64.5 16.5q55 0 86.5 -39.5
t31.5 -110.5v-229q0 -37 12 -49.5t49 -16.5v-15zM403 643q0 -23 -30 -42l-154 -97h-40l147 148q23 23 42 23q35 0 35 -32z" />
    <glyph glyph-name="Ncommaaccent" unicode="&#x145;" horiz-adv-x="722" 
d="M707 643q-48 -5 -66 -18q-29 -20 -29 -110v-526h-17l-442 550v-392q0 -76 18 -100.5t76 -27.5v-19h-235v19q62 4 79.5 27.5t17.5 100.5v441q-30 35 -47.5 45t-49.5 10v19h171l385 -484v337q0 92 -29 112q-21 12 -67 16v19h235v-19zM430 -127q0 -45 -31 -87t-81 -67l-9 19
q82 56 82 106q0 14 -14 14q-1 0 -8 -2q-12 -2 -19 -2q-27 0 -43 13.5t-16 37.5q0 25 16.5 41t42.5 16q34 0 57 -25.5t23 -63.5z" />
    <glyph glyph-name="ncommaaccent" unicode="&#x146;" 
d="M485 0h-208v15q38 3 50.5 20t12.5 64v209q0 97 -73 97q-25 0 -46 -11.5t-57 -45.5v-281q0 -27 14 -38t52 -14v-15h-212v15q38 3 50 17.5t12 57.5v248q0 37 -8 50.5t-29 13.5q-19 0 -27 -4v17q74 22 138 45l7 -2v-79q51 48 80.5 64.5t64.5 16.5q55 0 86.5 -39.5
t31.5 -110.5v-229q0 -37 12 -49.5t49 -16.5v-15zM322 -127q0 -45 -31 -87t-81 -67l-9 19q82 56 82 106q0 14 -14 14q-1 0 -8 -2q-12 -2 -19 -2q-27 0 -43 13.5t-16 37.5q0 25 16.5 41t42.5 16q34 0 57 -25.5t23 -63.5z" />
    <glyph glyph-name="Ncaron" unicode="&#x147;" horiz-adv-x="722" 
d="M707 643q-48 -5 -66 -18q-29 -20 -29 -110v-526h-17l-442 550v-392q0 -76 18 -100.5t76 -27.5v-19h-235v19q62 4 79.5 27.5t17.5 100.5v441q-30 35 -47.5 45t-49.5 10v19h171l385 -484v337q0 92 -29 112q-21 12 -67 16v19h235v-19zM533 847l-134 -129h-77l-135 129h48
l125 -79l125 79h48z" />
    <glyph glyph-name="ncaron" unicode="&#x148;" 
d="M485 0h-208v15q38 3 50.5 20t12.5 64v209q0 97 -73 97q-25 0 -46 -11.5t-57 -45.5v-281q0 -27 14 -38t52 -14v-15h-212v15q38 3 50 17.5t12 57.5v248q0 37 -8 50.5t-29 13.5q-19 0 -27 -4v17q74 22 138 45l7 -2v-79q51 48 80.5 64.5t64.5 16.5q55 0 86.5 -39.5
t31.5 -110.5v-229q0 -37 12 -49.5t49 -16.5v-15zM408 674l-125 -167h-62l-124 167h34l121 -103l122 103h34z" />
    <glyph glyph-name="Eng" unicode="&#x14a;" horiz-adv-x="722" 
d="M707 643q-48 -5 -66 -18q-29 -20 -29 -110v-515q0 -116 -26 -167t-104 -51q-41 0 -67.5 15.5t-26.5 39.5q0 16 12 27.5t29 11.5q23 0 48 -32q23 -28 42 -28q23 0 34 18q14 25 14 121v67l-414 517v-392q0 -76 18 -100.5t76 -27.5v-19h-235v19q62 4 79.5 27.5t17.5 100.5
v441q-30 35 -47.5 45t-49.5 10v19h171l385 -484v337q0 92 -29 112q-21 12 -67 16v19h235v-19z" />
    <glyph glyph-name="eng" unicode="&#x14b;" 
d="M424 0q0 -106 -43 -162t-126 -56q-41 0 -67.5 15.5t-26.5 39.5q0 16 12 27.5t29 11.5q23 0 48 -32q23 -28 42 -28q23 0 34 18q14 25 14 121v353q0 97 -73 97q-25 0 -46 -11.5t-57 -45.5v-281q0 -27 14 -38t52 -14v-15h-212v15q38 3 50 17.5t12 57.5v248q0 37 -8 50.5
t-29 13.5q-19 0 -27 -4v17q74 22 138 45l7 -2v-79q51 48 80.5 64.5t64.5 16.5q55 0 86.5 -39.5t31.5 -110.5v-310z" />
    <glyph glyph-name="Omacron" unicode="&#x14c;" horiz-adv-x="722" 
d="M688 327q0 -151 -92.5 -246t-240.5 -95q-66 0 -128.5 27.5t-106.5 74.5q-40 43 -63 107.5t-23 135.5q0 151 92 248t235 97q147 0 243 -105q84 -92 84 -244zM574 328q0 185 -85 262q-56 50 -128 50q-84 0 -143 -65q-32 -35 -51 -102.5t-19 -143.5q0 -83 23 -153.5
t62 -104.5q55 -49 126 -49q80 0 133 53q36 35 49 73q33 86 33 180zM517 755h-311v54h311v-54z" />
    <glyph glyph-name="omacron" unicode="&#x14d;" 
d="M470 234q0 -104 -64 -174t-158 -70t-156.5 67.5t-62.5 168.5q0 103 61.5 168.5t159.5 65.5q96 0 158 -64t62 -162zM380 199q0 103 -40 168t-103 65q-53 0 -85.5 -43t-32.5 -114q0 -111 44 -193q34 -64 97 -64q56 0 88 48t32 133zM406 563h-311v54h311v-54z" />
    <glyph glyph-name="Obreve" unicode="&#x14e;" horiz-adv-x="722" 
d="M688 327q0 -151 -92.5 -246t-240.5 -95q-66 0 -128.5 27.5t-106.5 74.5q-40 43 -63 107.5t-23 135.5q0 151 92 248t235 97q147 0 243 -105q84 -92 84 -244zM574 328q0 185 -85 262q-56 50 -128 50q-84 0 -143 -65q-32 -35 -51 -102.5t-19 -143.5q0 -83 23 -153.5
t62 -104.5q55 -49 126 -49q80 0 133 53q36 35 49 73q33 86 33 180zM518 851q0 -55 -44 -96.5t-112 -41.5t-112 41.5t-44 96.5h26q23 -82 130 -82t130 82h26z" />
    <glyph glyph-name="obreve" unicode="&#x14f;" 
d="M470 234q0 -104 -64 -174t-158 -70t-156.5 67.5t-62.5 168.5q0 103 61.5 168.5t159.5 65.5q96 0 158 -64t62 -162zM380 199q0 103 -40 168t-103 65q-53 0 -85.5 -43t-32.5 -114q0 -111 44 -193q34 -64 97 -64q56 0 88 48t32 133zM391 669q-18 -157 -142 -157
q-73 0 -112 54q-26 38 -27 103h29q11 -50 37.5 -73.5t74.5 -23.5q44 0 67 20t44 77h29z" />
    <glyph glyph-name="Ohungarumlaut" unicode="&#x150;" horiz-adv-x="722" 
d="M688 327q0 -151 -92.5 -246t-240.5 -95q-66 0 -128.5 27.5t-106.5 74.5q-40 43 -63 107.5t-23 135.5q0 151 92 248t235 97q147 0 243 -105q84 -92 84 -244zM574 328q0 185 -85 262q-56 50 -128 50q-84 0 -143 -65q-32 -35 -51 -102.5t-19 -143.5q0 -83 23 -153.5
t62 -104.5q55 -49 126 -49q80 0 133 53q36 35 49 73q33 86 33 180zM666 825q0 -20 -32 -33l-167 -80h-43l158 120q25 19 46 19q38 0 38 -26zM506 825q0 -20 -32 -33l-167 -80h-43l158 120q25 19 46 19q38 0 38 -26z" />
    <glyph glyph-name="ohungarumlaut" unicode="&#x151;" 
d="M470 234q0 -104 -64 -174t-158 -70t-156.5 67.5t-62.5 168.5q0 103 61.5 168.5t159.5 65.5q96 0 158 -64t62 -162zM380 199q0 103 -40 168t-103 65q-53 0 -85.5 -43t-32.5 -114q0 -111 44 -193q34 -64 97 -64q56 0 88 48t32 133zM511 644q0 -23 -30 -42l-154 -97h-40
l147 148q23 23 42 23q35 0 35 -32zM345 644q0 -23 -30 -42l-154 -97h-40l147 148q23 23 42 23q35 0 35 -32z" />
    <glyph glyph-name="OE" unicode="&#x152;" horiz-adv-x="889" 
d="M885 168l-44 -168h-350l-121 -4l-58 -2q-115 0 -192 77q-90 89 -90 251q0 86 26.5 157.5t74.5 113.5q84 75 211 75q17 0 65 -3l105 -3h326v-141h-23q-9 67 -39.5 86t-128.5 19h-51q-42 0 -53.5 -4t-11.5 -20v-236h104q91 0 113 31q15 21 19 67h21v-234h-21
q-7 59 -26.5 79t-71.5 20h-138v-245q0 -28 11.5 -37.5t44.5 -8.5l124 2q47 1 79.5 29t70.5 99h24zM431 131v396q0 55 -23.5 80t-75.5 25q-91 0 -140.5 -80t-49.5 -227q0 -142 48.5 -218t140.5 -76q53 0 76.5 23.5t23.5 76.5z" />
    <glyph glyph-name="oe" unicode="&#x153;" horiz-adv-x="722" 
d="M690 139q-39 -81 -80 -115t-99 -34q-46 0 -75.5 22t-52.5 73q-29 -51 -62.5 -73t-84.5 -22q-91 0 -148.5 64t-57.5 164q0 57 20 109t55 85q53 48 127 48q46 0 80 -17t72 -59q31 42 60 59t70 17q81 0 126 -62q30 -40 34 -121h-254q3 -65 11 -100t28 -70q30 -50 90 -50
q36 0 65.5 20t64.5 68zM343 199q0 112 -29.5 172t-84.5 60q-42 0 -75 -33q-15 -16 -24.5 -52t-9.5 -75q0 -255 120 -255q103 0 103 183zM579 307v27q0 42 -22.5 69.5t-56.5 27.5q-80 0 -81 -124h160z" />
    <glyph glyph-name="Racute" unicode="&#x154;" horiz-adv-x="667" 
d="M659 0h-161l-238 308l-56 -2v-197q0 -54 16 -70t74 -20v-19h-277v19q56 4 70.5 21.5t14.5 79.5v433q0 53 -14.5 68.5t-70.5 21.5v19h276q70 0 128 -18t87 -49q39 -44 39 -109q0 -74 -51 -115q-43 -35 -130 -52l206 -253q21 -25 39.5 -35t47.5 -12v-19zM438 488
q0 70 -44.5 103.5t-138.5 33.5q-30 0 -40.5 -7.5t-10.5 -28.5v-246q73 2 108 8.5t69 25.5q57 30 57 111zM449 825q0 -20 -32 -33l-167 -80h-43l158 120q25 19 46 19q38 0 38 -26z" />
    <glyph glyph-name="racute" unicode="&#x155;" horiz-adv-x="333" 
d="M335 407q0 -21 -10.5 -33t-28.5 -12q-17 0 -40 20q-16 15 -26 15q-20 0 -45 -29t-25 -53v-225q0 -43 17 -58t68 -17v-15h-240v15q48 9 59.5 20t11.5 49v250q0 33 -7.5 46.5t-26.5 13.5q-16 0 -35 -4v16q80 26 148 54l5 -2v-92q37 53 63 73.5t57 20.5q26 0 40.5 -14
t14.5 -39zM311 643q0 -23 -30 -42l-154 -97h-40l147 148q23 23 42 23q35 0 35 -32z" />
    <glyph glyph-name="Rcommaaccent" unicode="&#x156;" horiz-adv-x="667" 
d="M659 0h-161l-238 308l-56 -2v-197q0 -54 16 -70t74 -20v-19h-277v19q56 4 70.5 21.5t14.5 79.5v433q0 53 -14.5 68.5t-70.5 21.5v19h276q70 0 128 -18t87 -49q39 -44 39 -109q0 -74 -51 -115q-43 -35 -130 -52l206 -253q21 -25 39.5 -35t47.5 -12v-19zM438 488
q0 70 -44.5 103.5t-138.5 33.5q-30 0 -40.5 -7.5t-10.5 -28.5v-246q73 2 108 8.5t69 25.5q57 30 57 111zM364 -127q0 -45 -31 -87t-81 -67l-9 19q82 56 82 106q0 14 -14 14q-1 0 -8 -2q-12 -2 -19 -2q-27 0 -43 13.5t-16 37.5q0 25 16.5 41t42.5 16q34 0 57 -25.5t23 -63.5z
" />
    <glyph glyph-name="rcommaaccent" unicode="&#x157;" horiz-adv-x="333" 
d="M335 407q0 -21 -10.5 -33t-28.5 -12q-17 0 -40 20q-16 15 -26 15q-20 0 -45 -29t-25 -53v-225q0 -43 17 -58t68 -17v-15h-240v15q48 9 59.5 20t11.5 49v250q0 33 -7.5 46.5t-26.5 13.5q-16 0 -35 -4v16q80 26 148 54l5 -2v-92q37 53 63 73.5t57 20.5q26 0 40.5 -14
t14.5 -39zM195 -127q0 -45 -31 -87t-81 -67l-9 19q82 56 82 106q0 14 -14 14q-1 0 -8 -2q-12 -2 -19 -2q-27 0 -43 13.5t-16 37.5q0 25 16.5 41t42.5 16q34 0 57 -25.5t23 -63.5z" />
    <glyph glyph-name="Rcaron" unicode="&#x158;" horiz-adv-x="667" 
d="M659 0h-161l-238 308l-56 -2v-197q0 -54 16 -70t74 -20v-19h-277v19q56 4 70.5 21.5t14.5 79.5v433q0 53 -14.5 68.5t-70.5 21.5v19h276q70 0 128 -18t87 -49q39 -44 39 -109q0 -74 -51 -115q-43 -35 -130 -52l206 -253q21 -25 39.5 -35t47.5 -12v-19zM438 488
q0 70 -44.5 103.5t-138.5 33.5q-30 0 -40.5 -7.5t-10.5 -28.5v-246q73 2 108 8.5t69 25.5q57 30 57 111zM467 847l-134 -129h-77l-135 129h48l125 -79l125 79h48z" />
    <glyph glyph-name="rcaron" unicode="&#x159;" horiz-adv-x="333" 
d="M335 407q0 -21 -10.5 -33t-28.5 -12q-17 0 -40 20q-16 15 -26 15q-20 0 -45 -29t-25 -53v-225q0 -43 17 -58t68 -17v-15h-240v15q48 9 59.5 20t11.5 49v250q0 33 -7.5 46.5t-26.5 13.5q-16 0 -35 -4v16q80 26 148 54l5 -2v-92q37 53 63 73.5t57 20.5q26 0 40.5 -14
t14.5 -39zM316 674l-125 -167h-62l-124 167h34l121 -103l122 103h34z" />
    <glyph glyph-name="Sacute" unicode="&#x15a;" horiz-adv-x="556" 
d="M491 168q0 -77 -58.5 -129.5t-145.5 -52.5q-60 0 -118 23q-30 11 -47 11q-11 0 -19 -9.5t-9 -23.5h-22l-30 212h23q38 -92 86.5 -134.5t115.5 -42.5q55 0 89 31t34 81q0 37 -14 59q-37 56 -149 117q-84 44 -120 89t-36 105q0 82 58 130q52 42 113 42q50 0 108 -22
q27 -12 44 -12q26 0 32 34h21l22 -213h-25q-20 75 -61 117q-53 55 -122 55q-47 0 -75.5 -25.5t-28.5 -66.5t34 -77t113 -79q99 -54 143 -105.5t44 -113.5zM416 825q0 -20 -32 -33l-167 -80h-43l158 120q25 19 46 19q38 0 38 -26z" />
    <glyph glyph-name="sacute" unicode="&#x15b;" horiz-adv-x="389" 
d="M348 118q0 -52 -41.5 -90t-98.5 -38q-27 0 -74 10q-32 8 -46 8q-15 0 -23 -12h-13v156h16q17 -76 46 -108t81 -32q38 0 60.5 19.5t22.5 52.5q0 45 -52 75l-58 33q-64 37 -90.5 69.5t-26.5 74.5q0 55 38.5 89t99.5 34q37 0 68 -12q15 -7 27 -7q4 0 14 8l2 2h11l4 -136h-15
q-17 67 -42 95t-68 28q-35 0 -56 -18.5t-21 -49.5q0 -43 43 -68l108 -64q46 -27 65 -54t19 -65zM340 643q0 -23 -30 -42l-154 -97h-40l147 148q23 23 42 23q35 0 35 -32z" />
    <glyph glyph-name="Scircumflex" unicode="&#x15c;" horiz-adv-x="556" 
d="M491 168q0 -77 -58.5 -129.5t-145.5 -52.5q-60 0 -118 23q-30 11 -47 11q-11 0 -19 -9.5t-9 -23.5h-22l-30 212h23q38 -92 86.5 -134.5t115.5 -42.5q55 0 89 31t34 81q0 37 -14 59q-37 56 -149 117q-84 44 -120 89t-36 105q0 82 58 130q52 42 113 42q50 0 108 -22
q27 -12 44 -12q26 0 32 34h21l22 -213h-25q-20 75 -61 117q-53 55 -122 55q-47 0 -75.5 -25.5t-28.5 -66.5t34 -77t113 -79q99 -54 143 -105.5t44 -113.5zM435 718h-48l-125 79l-125 -79h-48l134 129h77z" />
    <glyph glyph-name="scircumflex" unicode="&#x15d;" horiz-adv-x="389" 
d="M348 118q0 -52 -41.5 -90t-98.5 -38q-27 0 -74 10q-32 8 -46 8q-15 0 -23 -12h-13v156h16q17 -76 46 -108t81 -32q38 0 60.5 19.5t22.5 52.5q0 45 -52 75l-58 33q-64 37 -90.5 69.5t-26.5 74.5q0 55 38.5 89t99.5 34q37 0 68 -12q15 -7 27 -7q4 0 14 8l2 2h11l4 -136h-15
q-17 67 -42 95t-68 28q-35 0 -56 -18.5t-21 -49.5q0 -43 43 -68l108 -64q46 -27 65 -54t19 -65zM345 507h-34l-122 103l-121 -103h-34l124 167h62z" />
    <glyph glyph-name="Scedilla" unicode="&#x15e;" horiz-adv-x="556" 
d="M491 168q0 -72 -52 -123t-131 -58l-24 -62q15 3 26 3q41 0 63.5 -18t22.5 -51q0 -39 -33.5 -61.5t-91.5 -22.5q-45 0 -84 16l14 31q36 -12 65 -12q25 0 40 12t15 32q0 19 -12 27.5t-41 8.5q-17 0 -28 -4l-7 5l39 95q-52 3 -103 23q-30 11 -47 11q-11 0 -19 -9.5t-9 -23.5
h-22l-30 212h23q38 -92 86.5 -134.5t115.5 -42.5q55 0 89 31t34 81q0 37 -14 59q-37 56 -149 117q-84 44 -120 89t-36 105q0 82 58 130q52 42 113 42q50 0 108 -22q27 -12 44 -12q26 0 32 34h21l22 -213h-25q-20 75 -61 117q-53 55 -122 55q-47 0 -75.5 -25.5t-28.5 -66.5
t34 -77t113 -79q99 -54 143 -105.5t44 -113.5z" />
    <glyph glyph-name="scedilla" unicode="&#x15f;" horiz-adv-x="389" 
d="M348 118q0 -52 -41.5 -90t-98.5 -38l-19 -55q15 3 26 3q40 0 63 -18.5t23 -50.5q0 -39 -33.5 -61.5t-91.5 -22.5q-45 0 -84 16l14 31q37 -12 65 -12q25 0 40 12t15 32q0 19 -12 27.5t-41 8.5q-17 0 -28 -4l-7 5l36 92q-11 1 -40 7q-32 8 -46 8q-15 0 -23 -12h-13v156h16
q17 -76 46 -108t81 -32q38 0 60.5 19.5t22.5 52.5q0 45 -52 75l-58 33q-64 37 -90.5 69.5t-26.5 74.5q0 55 38.5 89t99.5 34q37 0 68 -12q15 -7 27 -7q4 0 14 8l2 2h11l4 -136h-15q-17 67 -42 95t-68 28q-35 0 -56 -18.5t-21 -49.5q0 -43 43 -68l108 -64q46 -27 65 -54
t19 -65z" />
    <glyph glyph-name="Scaron" unicode="&#x160;" horiz-adv-x="556" 
d="M491 168q0 -77 -58.5 -129.5t-145.5 -52.5q-60 0 -118 23q-30 11 -47 11q-11 0 -19 -9.5t-9 -23.5h-22l-30 212h23q38 -92 86.5 -134.5t115.5 -42.5q55 0 89 31t34 81q0 37 -14 59q-37 56 -149 117q-84 44 -120 89t-36 105q0 82 58 130q52 42 113 42q50 0 108 -22
q27 -12 44 -12q26 0 32 34h21l22 -213h-25q-20 75 -61 117q-53 55 -122 55q-47 0 -75.5 -25.5t-28.5 -66.5t34 -77t113 -79q99 -54 143 -105.5t44 -113.5zM434 847l-134 -129h-77l-135 129h48l125 -79l125 79h48z" />
    <glyph glyph-name="scaron" unicode="&#x161;" horiz-adv-x="389" 
d="M348 118q0 -52 -41.5 -90t-98.5 -38q-27 0 -74 10q-32 8 -46 8q-15 0 -23 -12h-13v156h16q17 -76 46 -108t81 -32q38 0 60.5 19.5t22.5 52.5q0 45 -52 75l-58 33q-64 37 -90.5 69.5t-26.5 74.5q0 55 38.5 89t99.5 34q37 0 68 -12q15 -7 27 -7q4 0 14 8l2 2h11l4 -136h-15
q-17 67 -42 95t-68 28q-35 0 -56 -18.5t-21 -49.5q0 -43 43 -68l108 -64q46 -27 65 -54t19 -65zM345 674l-125 -167h-62l-124 167h34l121 -103l122 103h34z" />
    <glyph glyph-name="Tcedilla" unicode="&#x162;" horiz-adv-x="611" 
d="M593 492h-24q-17 83 -45.5 105.5t-113.5 22.5h-54v-511q0 -55 17 -71t79 -19v-19h-124l-29 -75q15 3 26 3q41 0 63.5 -18t22.5 -51q0 -39 -33.5 -61.5t-91.5 -22.5q-45 0 -84 16l14 31q36 -12 65 -12q25 0 40 12t15 32q0 19 -12 27.5t-41 8.5q-17 0 -28 -4l-7 5l45 109
h-133v19q62 4 78 20.5t16 80.5v500h-54q-84 0 -112.5 -23t-46.5 -105h-24l6 170h564z" />
    <glyph glyph-name="tcedilla" unicode="&#x163;" horiz-adv-x="278" 
d="M279 66q-42 -65 -98 -74l-22 -57q15 3 26 3q41 0 63.5 -18t22.5 -51q0 -39 -33.5 -61.5t-91.5 -22.5q-45 0 -84 16l14 31q36 -12 65 -12q25 0 40 12t15 32q0 19 -12 27.5t-41 8.5q-17 0 -28 -4l-7 5l37 90q-75 9 -75 126v301h-53q-4 3 -4 7q0 8 17 19q41 24 97 107
q14 18 20 28q7 0 7 -13v-116h101v-32h-101v-286q0 -48 12 -69t40 -21q30 0 60 35z" />
    <glyph glyph-name="Tcaron" unicode="&#x164;" horiz-adv-x="611" 
d="M593 492h-24q-17 83 -45.5 105.5t-113.5 22.5h-54v-511q0 -55 17 -71t79 -19v-19h-292v19q62 4 78 20.5t16 80.5v500h-54q-84 0 -112.5 -23t-46.5 -105h-24l6 170h564zM478 847l-134 -129h-77l-135 129h48l125 -79l125 79h48z" />
    <glyph glyph-name="tcaron" unicode="&#x165;" horiz-adv-x="278" 
d="M279 66q-48 -76 -121 -76q-88 0 -88 127v301h-53q-4 3 -4 7q0 8 17 19q41 24 97 107q14 18 20 28q7 0 7 -13v-116h101v-32h-101v-286q0 -48 12 -69t40 -21q30 0 60 35zM313 624q0 -45 -31 -87t-81 -67l-9 19q82 56 82 106q0 14 -14 14q-1 0 -8 -2q-12 -2 -19 -2
q-27 0 -43 13.5t-16 37.5q0 25 16.5 41t42.5 16q34 0 57 -25.5t23 -63.5z" />
    <glyph glyph-name="Utilde" unicode="&#x168;" horiz-adv-x="722" 
d="M705 643q-62 -8 -78 -30t-16 -98v-261q0 -107 -33 -165q-59 -103 -223 -103q-128 0 -189.5 62.5t-61.5 192.5v312q0 55 -15.5 70t-74.5 20v19h283v-19q-60 -5 -75.5 -20.5t-15.5 -69.5v-320q0 -88 25 -132q41 -71 147 -71q56 0 101 21.5t65 57.5q23 43 23 136v270
q0 75 -18 99.5t-76 28.5v19h232v-19zM551 835q-16 -57 -40 -81.5t-65 -24.5q-32 0 -81 24l-23 11q-24 11 -41 11q-35 0 -51 -46h-29q11 49 37 75t64 26q36 0 70 -18l24 -12q32 -15 53 -15q17 0 28.5 11t24.5 39h29z" />
    <glyph glyph-name="utilde" unicode="&#x169;" 
d="M479 36q-78 -21 -137 -45l-4 2v83l-43 -43q-43 -43 -103 -43q-55 0 -88 35.5t-33 94.5v252q0 35 -13 48.5t-49 15.5v14h146v-326q0 -31 21 -53.5t50 -22.5q48 0 90 36q17 13 17 51v235q0 37 -13.5 49t-60.5 14v17h158v-343q0 -35 11.5 -46t45.5 -11h5v-14zM409 643
q-16 -57 -40 -81.5t-65 -24.5q-32 0 -81 24l-23 11q-24 11 -41 11q-35 0 -51 -46h-29q11 49 37 75t64 26q36 0 70 -18l24 -12q32 -15 53 -15q17 0 28.5 11t24.5 39h29z" />
    <glyph glyph-name="Umacron" unicode="&#x16a;" horiz-adv-x="722" 
d="M705 643q-62 -8 -78 -30t-16 -98v-261q0 -107 -33 -165q-59 -103 -223 -103q-128 0 -189.5 62.5t-61.5 192.5v312q0 55 -15.5 70t-74.5 20v19h283v-19q-60 -5 -75.5 -20.5t-15.5 -69.5v-320q0 -88 25 -132q41 -71 147 -71q56 0 101 21.5t65 57.5q23 43 23 136v270
q0 75 -18 99.5t-76 28.5v19h232v-19zM542 755h-311v54h311v-54z" />
    <glyph glyph-name="umacron" unicode="&#x16b;" 
d="M479 36q-78 -21 -137 -45l-4 2v83l-43 -43q-43 -43 -103 -43q-55 0 -88 35.5t-33 94.5v252q0 35 -13 48.5t-49 15.5v14h146v-326q0 -31 21 -53.5t50 -22.5q48 0 90 36q17 13 17 51v235q0 37 -13.5 49t-60.5 14v17h158v-343q0 -35 11.5 -46t45.5 -11h5v-14zM400 563h-311
v54h311v-54z" />
    <glyph glyph-name="Ubreve" unicode="&#x16c;" horiz-adv-x="722" 
d="M705 643q-62 -8 -78 -30t-16 -98v-261q0 -107 -33 -165q-59 -103 -223 -103q-128 0 -189.5 62.5t-61.5 192.5v312q0 55 -15.5 70t-74.5 20v19h283v-19q-60 -5 -75.5 -20.5t-15.5 -69.5v-320q0 -88 25 -132q41 -71 147 -71q56 0 101 21.5t65 57.5q23 43 23 136v270
q0 75 -18 99.5t-76 28.5v19h232v-19zM543 851q0 -55 -44 -96.5t-112 -41.5t-112 41.5t-44 96.5h26q23 -82 130 -82t130 82h26z" />
    <glyph glyph-name="ubreve" unicode="&#x16d;" 
d="M479 36q-78 -21 -137 -45l-4 2v83l-43 -43q-43 -43 -103 -43q-55 0 -88 35.5t-33 94.5v252q0 35 -13 48.5t-49 15.5v14h146v-326q0 -31 21 -53.5t50 -22.5q48 0 90 36q17 13 17 51v235q0 37 -13.5 49t-60.5 14v17h158v-343q0 -35 11.5 -46t45.5 -11h5v-14zM385 669
q-18 -157 -142 -157q-73 0 -112 54q-26 38 -27 103h29q11 -50 37.5 -73.5t74.5 -23.5q44 0 67 20t44 77h29z" />
    <glyph glyph-name="Uring" unicode="&#x16e;" horiz-adv-x="722" 
d="M705 643q-62 -8 -78 -30t-16 -98v-261q0 -107 -33 -165q-59 -103 -223 -103q-128 0 -189.5 62.5t-61.5 192.5v312q0 55 -15.5 70t-74.5 20v19h283v-19q-60 -5 -75.5 -20.5t-15.5 -69.5v-320q0 -88 25 -132q41 -71 147 -71q56 0 101 21.5t65 57.5q23 43 23 136v270
q0 75 -18 99.5t-76 28.5v19h232v-19zM486 796q0 -41 -29.5 -70t-70.5 -29q-42 0 -70.5 29t-28.5 71q0 41 29.5 70t69.5 29q41 0 70.5 -29.5t29.5 -70.5zM452 796q0 27 -19.5 46.5t-45.5 19.5q-27 0 -46.5 -19t-19.5 -46t19 -46.5t45 -19.5q28 0 47.5 19t19.5 46z" />
    <glyph glyph-name="uring" unicode="&#x16f;" 
d="M479 36q-78 -21 -137 -45l-4 2v83l-43 -43q-43 -43 -103 -43q-55 0 -88 35.5t-33 94.5v252q0 35 -13 48.5t-49 15.5v14h146v-326q0 -31 21 -53.5t50 -22.5q48 0 90 36q17 13 17 51v235q0 37 -13.5 49t-60.5 14v17h158v-343q0 -35 11.5 -46t45.5 -11h5v-14zM344 590
q0 -41 -29.5 -70t-70.5 -29q-42 0 -70.5 29t-28.5 71q0 41 29.5 70t69.5 29q41 0 70.5 -29.5t29.5 -70.5zM310 590q0 27 -19.5 46.5t-45.5 19.5q-27 0 -46.5 -19t-19.5 -46t19 -46.5t45 -19.5q28 0 47.5 19t19.5 46z" />
    <glyph glyph-name="Uhungarumlaut" unicode="&#x170;" horiz-adv-x="722" 
d="M705 643q-62 -8 -78 -30t-16 -98v-261q0 -107 -33 -165q-59 -103 -223 -103q-128 0 -189.5 62.5t-61.5 192.5v312q0 55 -15.5 70t-74.5 20v19h283v-19q-60 -5 -75.5 -20.5t-15.5 -69.5v-320q0 -88 25 -132q41 -71 147 -71q56 0 101 21.5t65 57.5q23 43 23 136v270
q0 75 -18 99.5t-76 28.5v19h232v-19zM691 825q0 -20 -32 -33l-167 -80h-43l158 120q25 19 46 19q38 0 38 -26zM531 825q0 -20 -32 -33l-167 -80h-43l158 120q25 19 46 19q38 0 38 -26z" />
    <glyph glyph-name="uhungarumlaut" unicode="&#x171;" 
d="M479 36q-78 -21 -137 -45l-4 2v83l-43 -43q-43 -43 -103 -43q-55 0 -88 35.5t-33 94.5v252q0 35 -13 48.5t-49 15.5v14h146v-326q0 -31 21 -53.5t50 -22.5q48 0 90 36q17 13 17 51v235q0 37 -13.5 49t-60.5 14v17h158v-343q0 -35 11.5 -46t45.5 -11h5v-14zM505 644
q0 -23 -30 -42l-154 -97h-40l147 148q23 23 42 23q35 0 35 -32zM339 644q0 -23 -30 -42l-154 -97h-40l147 148q23 23 42 23q35 0 35 -32z" />
    <glyph glyph-name="Uogonek" unicode="&#x172;" horiz-adv-x="722" 
d="M705 643q-62 -8 -78 -30t-16 -98v-261q0 -107 -33 -165q-35 -62 -109 -86q-25 -9 -35 -13t-27 -15t-25 -24q-23 -39 -23 -83q0 -28 12 -44.5t34 -16.5q28 0 54 43l19 -14q-37 -81 -103 -81q-32 0 -54.5 25t-22.5 61q0 57 36 104q13 20 38 41h-17q-128 0 -189.5 62.5
t-61.5 192.5v312q0 55 -15.5 70t-74.5 20v19h283v-19q-60 -5 -75.5 -20.5t-15.5 -69.5v-320q0 -88 25 -132q41 -71 147 -71q56 0 101 21.5t65 57.5q23 43 23 136v270q0 75 -18 99.5t-76 28.5v19h232v-19z" />
    <glyph glyph-name="uogonek" unicode="&#x173;" 
d="M479 36l-29 -8q-61 -18 -96 -77q-24 -38 -24 -83q0 -28 12 -44.5t34 -16.5q28 0 54 43l19 -14q-37 -81 -103 -81q-32 0 -54.5 25t-22.5 61q0 57 36 104q18 24 33 48v83l-43 -43q-43 -43 -103 -43q-55 0 -88 35.5t-33 94.5v252q0 35 -13 48.5t-49 15.5v14h146v-326
q0 -31 21 -53.5t50 -22.5q48 0 90 36q17 13 17 51v235q0 37 -13.5 49t-60.5 14v17h158v-343q0 -35 11.5 -46t45.5 -11h5v-14z" />
    <glyph glyph-name="Wcircumflex" unicode="&#x174;" horiz-adv-x="944" 
d="M932 643q-40 -8 -54.5 -20t-28.5 -51l-204 -583h-15l-160 423l-154 -423h-15l-193 537q-28 71 -46.5 92t-56.5 25v19h245v-19q-38 -2 -51.5 -8.5t-13.5 -23.5q0 -18 11 -46l144 -376l107 282l-33 82q-26 60 -42 74.5t-59 15.5v19h267v-19q-77 -1 -77 -35q0 -16 15 -51
l12 -30l132 -341l125 339q16 45 16 75q0 20 -15.5 29.5t-53.5 13.5v19h198v-19zM644 718h-48l-125 79l-125 -79h-48l134 129h77z" />
    <glyph glyph-name="wcircumflex" unicode="&#x175;" horiz-adv-x="722" 
d="M694 435q-15 -5 -21 -13.5t-20 -40.5l-138 -346q-20 -49 -28 -49t-24 43l-91 236l-112 -240q-18 -39 -25 -39q-8 0 -26 44l-135 342q-17 38 -26.5 50t-26.5 13v15h180v-15q-26 -3 -36 -10t-10 -23q0 -15 6 -30l99 -261l91 199l-20 56q-15 40 -28 53t-41 16v15h203v-15
q-35 -5 -46.5 -12t-11.5 -24q0 -13 17 -59l84 -224l90 222q17 42 17 66q0 13 -9 19.5t-35 11.5v15h123v-15zM519 507h-34l-122 103l-121 -103h-34l124 167h62z" />
    <glyph glyph-name="Ycircumflex" unicode="&#x176;" horiz-adv-x="722" 
d="M703 643q-38 -3 -65 -25.5t-73 -88.5l-148 -226v-194q0 -57 18 -72.5t85 -17.5v-19h-306v19q68 3 84.5 19.5t16.5 81.5v174l-131 192q-75 106 -100.5 131t-61.5 26v19h280v-19q-11 -1 -25 -1q-46 -3 -46 -29q0 -19 17 -44l148 -222l143 226q14 23 14 37q0 18 -15 25
t-54 8v19h219v-19zM540 718h-48l-125 79l-125 -79h-48l134 129h77z" />
    <glyph glyph-name="ycircumflex" unicode="&#x177;" 
d="M475 435q-18 -2 -28 -11.5t-20 -33.5l-154 -408q-40 -108 -79.5 -154t-89.5 -46q-32 0 -53 16.5t-21 41.5q0 18 13 31t30 13q23 0 53 -11q14 -7 25 -7t25.5 13t24.5 32q13 22 26.5 59.5t13.5 48.5q0 10 -11 37l-165 348q-12 26 -51 32v14h206v-15q-32 -1 -45 -7t-13 -20
q0 -15 10 -38l115 -253l97 276q4 9 4 17q0 25 -48 25v15h135v-15zM436 507h-34l-122 103l-121 -103h-34l124 167h62z" />
    <glyph glyph-name="Ydieresis" unicode="&#x178;" horiz-adv-x="722" 
d="M703 643q-38 -3 -65 -25.5t-73 -88.5l-148 -226v-194q0 -57 18 -72.5t85 -17.5v-19h-306v19q68 3 84.5 19.5t16.5 81.5v174l-131 192q-75 106 -100.5 131t-61.5 26v19h280v-19q-11 -1 -25 -1q-46 -3 -46 -29q0 -19 17 -44l148 -222l143 226q14 23 14 37q0 18 -15 25
t-54 8v19h219v-19zM317 782q0 -20 -15 -34.5t-36 -14.5q-20 0 -34 14.5t-14 35.5q0 19 14.5 34t33.5 15q21 0 36 -15t15 -35zM516 782q0 -20 -15 -34.5t-36 -14.5q-20 0 -34 14.5t-14 35.5q0 19 14.5 34t33.5 15q21 0 36 -15t15 -35z" />
    <glyph glyph-name="Zacute" unicode="&#x179;" horiz-adv-x="611" 
d="M597 176l-24 -176h-564v15l437 609h-221q-100 0 -134 -43q-23 -28 -34 -90h-26l20 171h526v-15l-432 -609h257q88 0 125 39q25 28 47 99h23zM469 825q0 -20 -32 -33l-167 -80h-43l158 120q25 19 46 19q38 0 38 -26z" />
    <glyph glyph-name="zacute" unicode="&#x17a;" horiz-adv-x="444" 
d="M418 135l-14 -135h-377v15l266 405h-138q-45 0 -61 -16.5t-23 -71.5h-18l3 118h347v-15l-269 -405h138q78 0 99 26q17 22 29 83zM380 643q0 -23 -30 -42l-154 -97h-40l147 148q23 23 42 23q35 0 35 -32z" />
    <glyph glyph-name="Zdotaccent" unicode="&#x17b;" horiz-adv-x="611" 
d="M597 176l-24 -176h-564v15l437 609h-221q-100 0 -134 -43q-23 -28 -34 -90h-26l20 171h526v-15l-432 -609h257q88 0 125 39q25 28 47 99h23zM365 782q0 -22 -14.5 -36.5t-36.5 -14.5q-21 0 -36 14.5t-15 36.5q0 21 15 36t36 15q22 0 36.5 -15t14.5 -36z" />
    <glyph glyph-name="zdotaccent" unicode="&#x17c;" horiz-adv-x="444" 
d="M418 135l-14 -135h-377v15l266 405h-138q-45 0 -61 -16.5t-23 -71.5h-18l3 118h347v-15l-269 -405h138q78 0 99 26q17 22 29 83zM280 590q0 -22 -14.5 -36.5t-36.5 -14.5q-21 0 -36 14.5t-15 36.5q0 21 15 36t36 15q22 0 36.5 -15t14.5 -36z" />
    <glyph glyph-name="Zcaron" unicode="&#x17d;" horiz-adv-x="611" 
d="M597 176l-24 -176h-564v15l437 609h-221q-100 0 -134 -43q-23 -28 -34 -90h-26l20 171h526v-15l-432 -609h257q88 0 125 39q25 28 47 99h23zM487 847l-134 -129h-77l-135 129h48l125 -79l125 79h48z" />
    <glyph glyph-name="zcaron" unicode="&#x17e;" horiz-adv-x="444" 
d="M418 135l-14 -135h-377v15l266 405h-138q-45 0 -61 -16.5t-23 -71.5h-18l3 118h347v-15l-269 -405h138q78 0 99 26q17 22 29 83zM385 674l-125 -167h-62l-124 167h34l121 -103l122 103h34z" />
    <glyph glyph-name="longs" unicode="&#x17f;" horiz-adv-x="333" 
d="M383 621q0 -17 -12.5 -29t-29.5 -12q-23 0 -45 36q-24 39 -53 39q-56 0 -56 -89v-462q0 -56 16 -71.5t77 -17.5v-15h-260v15q54 3 68.5 18.5t14.5 70.5v314h-52v32h52q1 60 8 93.5t27 66.5q19 34 56.5 53.5t84.5 19.5q45 0 74.5 -17.5t29.5 -44.5z" />
    <glyph glyph-name="Ereversed" unicode="&#x18e;" horiz-adv-x="611" 
d="M597 0h-540l-45 169h28q37 -81 83 -106.5t153 -25.5h27q83 0 97 11q8 5 8 32v247h-154q-62 0 -81 -17t-29 -79h-23v232h23q10 -61 29.5 -78t80.5 -17h154v222q0 21 -6.5 27.5t-26.5 6.5h-135q-85 0 -112 -19t-40 -86h-25l3 143h531v-19q-56 -5 -71.5 -21t-15.5 -69v-444
q0 -53 16 -69.5t71 -20.5v-19z" />
    <glyph glyph-name="florin" unicode="&#x192;" 
d="M490 608q0 -19 -13.5 -32t-32.5 -13q-15 0 -26.5 10.5t-11.5 23.5q0 10 8 24q5 10 5 14q0 12 -20 12q-24 0 -41 -17q-14 -15 -26.5 -57.5t-17.5 -89.5l-8 -76h126l-10 -31h-120l-16 -125q-18 -139 -33.5 -211t-38.5 -124q-48 -105 -127 -105q-35 0 -57.5 19.5t-22.5 49.5
q0 20 13 32.5t33 12.5q17 0 26.5 -9.5t9.5 -26.5q0 -11 -9 -27q-6 -10 -6 -14q0 -13 21 -13q67 0 82 174l15 172q10 104 12 113l11 67l2 15h-111l10 31h107q12 77 27 121.5t44 86.5q42 61 111 61q35 0 60 -20t25 -48z" />
    <glyph glyph-name="Ohorn" unicode="&#x1a0;" horiz-adv-x="722" 
d="M688 327q0 -151 -92.5 -246t-240.5 -95q-66 0 -128.5 27.5t-106.5 74.5q-40 43 -63 107.5t-23 135.5q0 151 92 248t235 97q97 0 171 -46q13 2 26 12.5t13 18.5q0 7 -21.5 24.5t-21.5 37.5q0 18 15.5 33t33.5 15q24 0 41.5 -20.5t17.5 -45.5q0 -30 -22.5 -54.5
t-58.5 -35.5q24 -17 49 -44q84 -92 84 -244zM574 328q0 185 -85 262q-56 50 -128 50q-84 0 -143 -65q-32 -35 -51 -102.5t-19 -143.5q0 -83 23 -153.5t62 -104.5q55 -49 126 -49q80 0 133 53q36 35 49 73q33 86 33 180z" />
    <glyph glyph-name="ohorn" unicode="&#x1a1;" 
d="M473 493q0 -29 -20.5 -53t-53.5 -35q71 -66 71 -171q0 -104 -64 -174t-158 -70t-156.5 67.5t-62.5 168.5q0 103 61.5 168.5t159.5 65.5q72 0 127 -38v2q31 12 31 25q0 7 -21.5 24.5t-21.5 37.5q0 18 15.5 33t33.5 15q24 0 41.5 -20.5t17.5 -45.5zM380 199q0 103 -40 168
t-103 65q-53 0 -85.5 -43t-32.5 -114q0 -111 44 -193q34 -64 97 -64q56 0 88 48t32 133z" />
    <glyph glyph-name="Uhorn" unicode="&#x1af;" horiz-adv-x="706" 
d="M706 705q0 -33 -27.5 -59.5t-67.5 -34.5v-357q0 -140 -62 -204t-194 -64q-128 0 -189.5 62.5t-61.5 192.5v312q0 55 -15.5 70t-74.5 20v19h283v-19q-60 -5 -75.5 -20.5t-15.5 -69.5v-320q0 -109 41.5 -156t130.5 -47q56 0 101 21.5t65 57.5q23 42 23 136v270
q0 75 -18 99.5t-76 28.5v19h138v-26q30 12 30 25q0 7 -21.5 25t-21.5 37q0 18 15.5 33t33.5 15q24 0 41.5 -20.5t17.5 -45.5z" />
    <glyph glyph-name="uhorn" unicode="&#x1b0;" horiz-adv-x="513" 
d="M513 494q0 -33 -27.5 -59.5t-68.5 -34.5v-293q0 -35 11.5 -46t45.5 -11h5v-14q-78 -21 -137 -45l-4 2v83l-43 -43q-43 -43 -103 -43q-55 0 -88 35.5t-33 94.5v252q0 35 -13 48.5t-49 15.5v14h146v-326q0 -31 21 -53.5t50 -22.5q39 0 73 21t34 66v235q0 37 -13.5 49
t-60.5 14v17h158v-25q31 12 31 25q0 7 -21.5 24.5t-21.5 37.5q0 18 15.5 33t33.5 15q24 0 41.5 -20.5t17.5 -45.5z" />
    <glyph glyph-name="Acaron" unicode="&#x1cd;" horiz-adv-x="722" 
d="M706 0h-255v19q41 0 56 9q14 7 14 24q0 24 -19 68l-41 96h-262l-46 -117q-8 -21 -8 -39q0 -41 68 -41v-19h-198v19q36 2 56 28.5t68 135.5l208 491h20l249 -568q26 -56 41 -70.5t49 -16.5v-19zM447 257l-116 275l-115 -275h231zM530 847l-134 -129h-77l-135 129h48
l125 -79l125 79h48z" />
    <glyph glyph-name="acaron" unicode="&#x1ce;" horiz-adv-x="444" 
d="M442 40q-26 -29 -45.5 -39.5t-44.5 -10.5q-31 0 -45.5 16.5t-18.5 56.5q-86 -73 -146 -73q-46 0 -75.5 30t-29.5 77q0 54 36 87q32 28 64.5 44.5t149.5 63.5v61q0 83 -76 83q-30 0 -51 -14.5t-21 -34.5q0 -11 3 -24q2 -14 2 -16q0 -17 -13.5 -29.5t-31.5 -12.5t-30.5 13
t-12.5 30q0 41 41 75q45 37 127 37q93 0 125 -58q19 -31 19 -102v-195q0 -33 6.5 -45.5t23.5 -12.5q21 0 44 19v-26zM287 123v145q-90 -33 -126 -64t-36 -75v-4q0 -32 18.5 -54.5t44.5 -22.5q35 0 73 22q16 10 21 20t5 33zM380 674l-125 -167h-62l-124 167h34l121 -103
l122 103h34z" />
    <glyph glyph-name="Icaron" unicode="&#x1cf;" horiz-adv-x="333" 
d="M315 0h-297v19q63 2 80 18t17 72v444q0 55 -16.5 70.5t-80.5 19.5v19h297v-19q-63 -3 -80.5 -19t-17.5 -71v-444q0 -55 18 -71.5t80 -18.5v-19zM339 847l-134 -129h-77l-135 129h48l125 -79l125 79h48z" />
    <glyph glyph-name="icaron" unicode="&#x1d0;" horiz-adv-x="278" 
d="M253 0h-237v15q52 3 65.5 18t13.5 69v232q0 33 -7.5 46.5t-25.5 13.5q-16 0 -34 -3l-8 -1v15l155 55l4 -3v-355q0 -54 12.5 -68.5t61.5 -18.5v-15zM293 674l-125 -167h-62l-124 167h34l121 -103l122 103h34z" />
    <glyph glyph-name="Ocaron" unicode="&#x1d1;" horiz-adv-x="722" 
d="M688 327q0 -151 -92.5 -246t-240.5 -95q-66 0 -128.5 27.5t-106.5 74.5q-40 43 -63 107.5t-23 135.5q0 151 92 248t235 97q147 0 243 -105q84 -92 84 -244zM574 328q0 185 -85 262q-56 50 -128 50q-84 0 -143 -65q-32 -35 -51 -102.5t-19 -143.5q0 -83 23 -153.5
t62 -104.5q55 -49 126 -49q80 0 133 53q36 35 49 73q33 86 33 180zM534 847l-134 -129h-77l-135 129h48l125 -79l125 79h48z" />
    <glyph glyph-name="ocaron" unicode="&#x1d2;" 
d="M470 234q0 -104 -64 -174t-158 -70t-156.5 67.5t-62.5 168.5q0 103 61.5 168.5t159.5 65.5q96 0 158 -64t62 -162zM380 199q0 103 -40 168t-103 65q-53 0 -85.5 -43t-32.5 -114q0 -111 44 -193q34 -64 97 -64q56 0 88 48t32 133zM406 674l-125 -167h-62l-124 167h34
l121 -103l122 103h34z" />
    <glyph glyph-name="Ucaron" unicode="&#x1d3;" horiz-adv-x="722" 
d="M705 643q-62 -8 -78 -30t-16 -98v-261q0 -107 -33 -165q-59 -103 -223 -103q-128 0 -189.5 62.5t-61.5 192.5v312q0 55 -15.5 70t-74.5 20v19h283v-19q-60 -5 -75.5 -20.5t-15.5 -69.5v-320q0 -88 25 -132q41 -71 147 -71q56 0 101 21.5t65 57.5q23 43 23 136v270
q0 75 -18 99.5t-76 28.5v19h232v-19zM559 847l-134 -129h-77l-135 129h48l125 -79l125 79h48z" />
    <glyph glyph-name="ucaron" unicode="&#x1d4;" 
d="M479 36q-78 -21 -137 -45l-4 2v83l-43 -43q-43 -43 -103 -43q-55 0 -88 35.5t-33 94.5v252q0 35 -13 48.5t-49 15.5v14h146v-326q0 -31 21 -53.5t50 -22.5q48 0 90 36q17 13 17 51v235q0 37 -13.5 49t-60.5 14v17h158v-343q0 -35 11.5 -46t45.5 -11h5v-14zM400 674
l-125 -167h-62l-124 167h34l121 -103l122 103h34z" />
    <glyph glyph-name="Udieresisacute" unicode="&#x1d7;" horiz-adv-x="722" 
d="M705 643q-62 -8 -78 -30t-16 -98v-261q0 -107 -33 -165q-59 -103 -223 -103q-128 0 -189.5 62.5t-61.5 192.5v312q0 55 -15.5 70t-74.5 20v19h283v-19q-60 -5 -75.5 -20.5t-15.5 -69.5v-320q0 -88 25 -132q41 -71 147 -71q56 0 101 21.5t65 57.5q23 43 23 136v270
q0 75 -18 99.5t-76 28.5v19h232v-19zM337 782q0 -20 -15 -34.5t-36 -14.5q-20 0 -34 14.5t-14 35.5q0 19 14.5 34t33.5 15q21 0 36 -15t15 -35zM536 782q0 -20 -15 -34.5t-36 -14.5q-20 0 -34 14.5t-14 35.5q0 19 14.5 34t33.5 15q21 0 36 -15t15 -35zM541 995
q0 -20 -32 -33l-167 -80h-43l158 120q25 19 46 19q38 0 38 -26z" />
    <glyph glyph-name="udieresisacute" unicode="&#x1d8;" 
d="M479 36q-78 -21 -137 -45l-4 2v83l-43 -43q-43 -43 -103 -43q-55 0 -88 35.5t-33 94.5v252q0 35 -13 48.5t-49 15.5v14h146v-326q0 -31 21 -53.5t50 -22.5q48 0 90 36q17 13 17 51v235q0 37 -13.5 49t-60.5 14v17h158v-343q0 -35 11.5 -46t45.5 -11h5v-14zM195 590
q0 -20 -15 -34.5t-36 -14.5q-20 0 -34 14.5t-14 35.5q0 19 14.5 34t33.5 15q21 0 36 -15t15 -35zM394 590q0 -20 -15 -34.5t-36 -14.5q-20 0 -34 14.5t-14 35.5q0 19 14.5 34t33.5 15q21 0 36 -15t15 -35zM399 785q0 -20 -32 -33l-167 -80h-43l158 120q25 19 46 19
q38 0 38 -26z" />
    <glyph glyph-name="Udieresiscaron" unicode="&#x1d9;" horiz-adv-x="722" 
d="M705 643q-62 -8 -78 -30t-16 -98v-261q0 -107 -33 -165q-59 -103 -223 -103q-128 0 -189.5 62.5t-61.5 192.5v312q0 55 -15.5 70t-74.5 20v19h283v-19q-60 -5 -75.5 -20.5t-15.5 -69.5v-320q0 -88 25 -132q41 -71 147 -71q56 0 101 21.5t65 57.5q23 43 23 136v270
q0 75 -18 99.5t-76 28.5v19h232v-19zM337 782q0 -20 -15 -34.5t-36 -14.5q-20 0 -34 14.5t-14 35.5q0 19 14.5 34t33.5 15q21 0 36 -15t15 -35zM536 782q0 -20 -15 -34.5t-36 -14.5q-20 0 -34 14.5t-14 35.5q0 19 14.5 34t33.5 15q21 0 36 -15t15 -35zM559 1017l-134 -129
h-77l-135 129h48l125 -79l125 79h48z" />
    <glyph glyph-name="udieresiscaron" unicode="&#x1da;" 
d="M479 36q-78 -21 -137 -45l-4 2v83l-43 -43q-43 -43 -103 -43q-55 0 -88 35.5t-33 94.5v252q0 35 -13 48.5t-49 15.5v14h146v-326q0 -31 21 -53.5t50 -22.5q48 0 90 36q17 13 17 51v235q0 37 -13.5 49t-60.5 14v17h158v-343q0 -35 11.5 -46t45.5 -11h5v-14zM195 590
q0 -20 -15 -34.5t-36 -14.5q-20 0 -34 14.5t-14 35.5q0 19 14.5 34t33.5 15q21 0 36 -15t15 -35zM394 590q0 -20 -15 -34.5t-36 -14.5q-20 0 -34 14.5t-14 35.5q0 19 14.5 34t33.5 15q21 0 36 -15t15 -35zM417 807l-134 -129h-77l-135 129h48l125 -79l125 79h48z" />
    <glyph glyph-name="Udieresisgrave" unicode="&#x1db;" horiz-adv-x="722" 
d="M705 643q-62 -8 -78 -30t-16 -98v-261q0 -107 -33 -165q-59 -103 -223 -103q-128 0 -189.5 62.5t-61.5 192.5v312q0 55 -15.5 70t-74.5 20v19h283v-19q-60 -5 -75.5 -20.5t-15.5 -69.5v-320q0 -88 25 -132q41 -71 147 -71q56 0 101 21.5t65 57.5q23 43 23 136v270
q0 75 -18 99.5t-76 28.5v19h232v-19zM337 782q0 -20 -15 -34.5t-36 -14.5q-20 0 -34 14.5t-14 35.5q0 19 14.5 34t33.5 15q21 0 36 -15t15 -35zM536 782q0 -20 -15 -34.5t-36 -14.5q-20 0 -34 14.5t-14 35.5q0 19 14.5 34t33.5 15q21 0 36 -15t15 -35zM474 882h-43l-167 80
q-32 13 -32 33q0 26 38 26q21 0 46 -19z" />
    <glyph glyph-name="udieresisgrave" unicode="&#x1dc;" 
d="M479 36q-78 -21 -137 -45l-4 2v83l-43 -43q-43 -43 -103 -43q-55 0 -88 35.5t-33 94.5v252q0 35 -13 48.5t-49 15.5v14h146v-326q0 -31 21 -53.5t50 -22.5q48 0 90 36q17 13 17 51v235q0 37 -13.5 49t-60.5 14v17h158v-343q0 -35 11.5 -46t45.5 -11h5v-14zM195 590
q0 -20 -15 -34.5t-36 -14.5q-20 0 -34 14.5t-14 35.5q0 19 14.5 34t33.5 15q21 0 36 -15t15 -35zM394 590q0 -20 -15 -34.5t-36 -14.5q-20 0 -34 14.5t-14 35.5q0 19 14.5 34t33.5 15q21 0 36 -15t15 -35zM332 672h-43l-167 80q-32 13 -32 33q0 26 38 26q21 0 46 -19z" />
    <glyph glyph-name="eturned" unicode="&#x1dd;" horiz-adv-x="444" 
d="M424 236q0 -109 -58 -177.5t-151 -68.5q-81 0 -128 57q-33 42 -43 126h308q-3 85 -30 138q-43 80 -126 80q-48 0 -83.5 -24t-71.5 -81l-16 7q65 167 212 167q86 0 136.5 -60.5t50.5 -163.5zM350 141h-204q10 -65 31 -90t67 -25q90 0 106 115z" />
    <glyph glyph-name="Gcaron" unicode="&#x1e6;" horiz-adv-x="722" 
d="M709 336q-44 -4 -57 -18.5t-13 -58.5v-203q-30 -26 -108.5 -48t-142.5 -22q-169 0 -273 107q-83 87 -83 232q0 153 96.5 252t246.5 99q67 0 136 -23q26 -10 44 -10q16 0 28 9.5t17 23.5h22l8 -211h-23q-33 81 -71 116q-60 55 -144 55q-106 0 -174 -76
q-33 -37 -52.5 -100.5t-19.5 -133.5q0 -139 70.5 -219.5t192.5 -80.5q54 0 93.5 17.5t39.5 41.5v162q0 62 -21 75q-16 10 -67 14v18h255v-18zM548 847l-134 -129h-77l-135 129h48l125 -79l125 79h48z" />
    <glyph glyph-name="gcaron" unicode="&#x1e7;" 
d="M470 388h-83q19 -43 19 -84q0 -72 -48 -113q-48 -42 -108 -42q-10 0 -38 3q-1 0 -19 2q-20 -6 -40 -27t-20 -36q0 -24 78 -27l129 -6q55 -2 88 -31t33 -76q0 -56 -55 -101q-84 -68 -205 -68q-71 0 -122 28.5t-51 68.5q0 28 22.5 55.5t75.5 66.5q-31 15 -42 26t-11 27
q0 29 46 69l43 40q-50 25 -71.5 56t-21.5 78q0 68 48.5 115.5t118.5 47.5q40 0 80 -15l22 -8q29 -10 55 -10h77v-39zM433 -64q0 27 -28 38t-96 11q-101 0 -162 13q-31 -37 -40 -53t-9 -33q0 -33 40 -53t106 -20q85 0 137 27t52 70zM329 265q0 62 -30 120q-25 47 -73 47
q-35 0 -54.5 -25t-19.5 -69v-3q0 -72 28.5 -116.5t73.5 -44.5q35 0 55 24.5t20 66.5zM392 674l-125 -167h-62l-124 167h34l121 -103l122 103h34z" />
    <glyph glyph-name="Oogonek" unicode="&#x1ea;" horiz-adv-x="722" 
d="M688 327q0 -120 -60 -206.5t-163 -118.5q-64 -20 -83 -51q-23 -39 -23 -83q0 -28 12 -44.5t34 -16.5q28 0 54 43l19 -14q-37 -81 -103 -81q-32 0 -54.5 25t-22.5 61q0 57 36 104q13 20 38 41h-17q-66 0 -128.5 27.5t-106.5 74.5q-40 43 -63 107.5t-23 135.5q0 151 92 248
t235 97q147 0 243 -105q84 -92 84 -244zM574 328q0 185 -85 262q-56 50 -128 50q-84 0 -143 -65q-32 -35 -51 -102.5t-19 -143.5q0 -83 23 -153.5t62 -104.5q55 -49 126 -49q80 0 133 53q36 35 49 73q33 86 33 180z" />
    <glyph glyph-name="oogonek" unicode="&#x1eb;" 
d="M470 234q0 -73 -34 -132t-91 -89q-75 -38 -89 -62q-24 -38 -24 -83q0 -28 12 -44.5t34 -16.5q28 0 54 43l19 -14q-37 -81 -103 -81q-32 0 -54.5 25t-22.5 61q0 57 36 104q12 17 42 45h-1q-94 0 -156.5 67.5t-62.5 168.5q0 103 61.5 168.5t159.5 65.5q96 0 158 -64
t62 -162zM380 199q0 103 -40 168t-103 65q-53 0 -85.5 -43t-32.5 -114q0 -111 44 -193q34 -64 97 -64q56 0 88 48t32 133z" />
    <glyph glyph-name="jcaron" unicode="&#x1f0;" horiz-adv-x="278" 
d="M193 0q0 -107 -43.5 -162.5t-126.5 -55.5q-41 0 -67 15.5t-26 39.5q0 16 12 27.5t29 11.5q23 0 48 -32q23 -28 42 -28q23 0 34 18q14 25 14 121v379q0 60 -32 60q-16 0 -40 -3l-5 -1v16q80 25 156 54l5 -3v-457zM307 674l-125 -167h-62l-124 167h34l121 -103l122 103h34z
" />
    <glyph glyph-name="Gacute" unicode="&#x1f4;" horiz-adv-x="722" 
d="M709 336q-44 -4 -57 -18.5t-13 -58.5v-203q-30 -26 -108.5 -48t-142.5 -22q-169 0 -273 107q-83 87 -83 232q0 153 96.5 252t246.5 99q67 0 136 -23q26 -10 44 -10q16 0 28 9.5t17 23.5h22l8 -211h-23q-33 81 -71 116q-60 55 -144 55q-106 0 -174 -76
q-33 -37 -52.5 -100.5t-19.5 -133.5q0 -139 70.5 -219.5t192.5 -80.5q54 0 93.5 17.5t39.5 41.5v162q0 62 -21 75q-16 10 -67 14v18h255v-18zM530 825q0 -20 -32 -33l-167 -80h-43l158 120q25 19 46 19q38 0 38 -26z" />
    <glyph glyph-name="gacute" unicode="&#x1f5;" 
d="M470 388h-83q19 -43 19 -84q0 -72 -48 -113q-48 -42 -108 -42q-10 0 -38 3q-1 0 -19 2q-20 -6 -40 -27t-20 -36q0 -24 78 -27l129 -6q55 -2 88 -31t33 -76q0 -56 -55 -101q-84 -68 -205 -68q-71 0 -122 28.5t-51 68.5q0 28 22.5 55.5t75.5 66.5q-31 15 -42 26t-11 27
q0 29 46 69l43 40q-50 25 -71.5 56t-21.5 78q0 68 48.5 115.5t118.5 47.5q40 0 80 -15l22 -8q29 -10 55 -10h77v-39zM433 -64q0 27 -28 38t-96 11q-101 0 -162 13q-31 -37 -40 -53t-9 -33q0 -33 40 -53t106 -20q85 0 137 27t52 70zM329 265q0 62 -30 120q-25 47 -73 47
q-35 0 -54.5 -25t-19.5 -69v-3q0 -72 28.5 -116.5t73.5 -44.5q35 0 55 24.5t20 66.5zM387 643q0 -23 -30 -42l-154 -97h-40l147 148q23 23 42 23q35 0 35 -32z" />
    <glyph glyph-name="Aringacute" unicode="&#x1fa;" horiz-adv-x="722" 
d="M706 0h-255v19q41 0 56 9q14 7 14 24q0 24 -19 68l-41 96h-262l-46 -117q-8 -21 -8 -39q0 -41 68 -41v-19h-198v19q36 2 56 28.5t68 135.5l208 491h20l249 -568q26 -56 41 -70.5t49 -16.5v-19zM447 257l-116 275l-115 -275h231zM512 1029q0 -20 -32 -33l-167 -80h-43
l158 120q25 19 46 19q38 0 38 -26zM457 796q0 -41 -29.5 -70t-70.5 -29q-42 0 -70.5 29t-28.5 71q0 41 29 70t70 29t70.5 -29.5t29.5 -70.5zM423 796q0 27 -19.5 46.5t-45.5 19.5q-27 0 -46.5 -19t-19.5 -46t19 -46.5t45 -19.5q28 0 47.5 19t19.5 46z" />
    <glyph glyph-name="aringacute" unicode="&#x1fb;" horiz-adv-x="444" 
d="M442 40q-26 -29 -45.5 -39.5t-44.5 -10.5q-31 0 -45.5 16.5t-18.5 56.5q-86 -73 -146 -73q-46 0 -75.5 30t-29.5 77q0 54 36 87q32 28 64.5 44.5t149.5 63.5v61q0 83 -76 83q-30 0 -51 -14.5t-21 -34.5q0 -11 3 -24q2 -14 2 -16q0 -17 -13.5 -29.5t-31.5 -12.5t-30.5 13
t-12.5 30q0 41 41 75q45 37 127 37q93 0 125 -58q19 -31 19 -102v-195q0 -33 6.5 -45.5t23.5 -12.5q21 0 44 19v-26zM287 123v145q-90 -33 -126 -64t-36 -75v-4q0 -32 18.5 -54.5t44.5 -22.5q35 0 73 22q16 10 21 20t5 33zM379 817q0 -20 -32 -33l-167 -80h-43l158 120
q25 19 46 19q38 0 38 -26zM324 584q0 -41 -29.5 -70t-70.5 -29q-42 0 -70.5 29t-28.5 71q0 41 29.5 70t69.5 29q41 0 70.5 -29.5t29.5 -70.5zM290 584q0 27 -19.5 46.5t-45.5 19.5q-27 0 -46.5 -19t-19.5 -46t19 -46.5t45 -19.5q28 0 47.5 19t19.5 46z" />
    <glyph glyph-name="AEacute" unicode="&#x1fc;" horiz-adv-x="889" 
d="M863 168l-44 -168h-510v19l17 2q45 5 58.5 21.5t13.5 65.5v152h-176l-28 -53q-64 -125 -64 -158q0 -24 68 -30h1v-19h-199v19q32 4 47.5 18t40.5 60l245 484q9 17 9 28q0 16 -20.5 23.5t-69.5 9.5v20h564v-141h-23q-7 48 -22 68.5t-49.5 28.5t-110.5 8h-87q-27 0 -27 -30
v-230h111q91 0 114 30q13 19 18 67h21v-234h-21q-6 52 -20 72q-20 28 -78 28h-145v-238q0 -37 10 -45t59 -8h76q81 0 117.5 24t79.5 106h24zM398 299v319l-159 -319h159zM599 825q0 -20 -32 -33l-167 -80h-43l158 120q25 19 46 19q38 0 38 -26z" />
    <glyph glyph-name="aeacute" unicode="&#x1fd;" horiz-adv-x="667" 
d="M632 149q-36 -78 -73 -111q-54 -48 -124 -48q-81 0 -129 73q-51 -42 -83 -57.5t-69 -15.5q-51 0 -83.5 30.5t-32.5 79.5q0 45 34.5 78.5t114.5 66.5l86 36l2 63q2 43 -12 69q-11 23 -50 23q-31 0 -51.5 -15t-16.5 -35l1 -6v-11l1 -17q1 -22 -10.5 -35t-32.5 -13
q-20 0 -32 13t-12 35q0 46 46 77t114 31q65 0 117 -45q34 26 59.5 35.5t59.5 9.5q76 0 114 -43t46 -140h-262q1 -74 6 -107.5t21 -62.5q13 -23 38.5 -36.5t56.5 -13.5q43 0 75.5 22t68.5 75zM294 88l-1 3q-19 54 -19 110v52q-91 -33 -120 -58t-29 -70q0 -36 19.5 -61.5
t47.5 -25.5t65 18t37 32zM521 307q-2 65 -20.5 94.5t-58.5 29.5q-43 0 -63 -29t-24 -95h166zM484 643q0 -23 -30 -42l-154 -97h-40l147 148q23 23 42 23q35 0 35 -32z" />
    <glyph glyph-name="Oslashacute" unicode="&#x1fe;" horiz-adv-x="722" 
d="M688 331q0 -152 -92 -248.5t-237 -96.5q-91 0 -175 50l-79 -116h-49l95 139q-53 48 -76 93q-41 79 -41 178q0 152 92 249t236 97q88 0 175 -49l72 107h49l-88 -130q54 -50 76 -93q42 -78 42 -180zM574 330q0 120 -47 210l-308 -452q60 -66 142 -66q99 0 156 82.5
t57 225.5zM502 575q-62 65 -141 65q-98 0 -155.5 -83.5t-57.5 -226.5q0 -120 46 -207zM517 825q0 -20 -32 -33l-167 -80h-43l158 120q25 19 46 19q38 0 38 -26z" />
    <glyph glyph-name="oslashacute" unicode="&#x1ff;" 
d="M470 234q0 -104 -64 -174t-159 -70q-47 0 -93 21l-65 -123h-37l73 140q-42 33 -63 69q-33 60 -33 130q0 102 61.5 167.5t158.5 65.5q44 0 92 -18l57 109h39l-65 -125q40 -29 60 -58q38 -60 38 -134zM380 203q0 87 -40 163l-161 -306q35 -42 82 -42q56 0 87.5 49t31.5 136
zM317 396q-37 36 -80 36q-53 0 -85.5 -43t-32.5 -113q0 -102 39 -184zM372 643q0 -23 -30 -42l-154 -97h-40l147 148q23 23 42 23q35 0 35 -32z" />
    <glyph glyph-name="Adblgrave" unicode="&#x200;" horiz-adv-x="722" 
d="M706 0h-255v19q41 0 56 9q14 7 14 24q0 24 -19 68l-41 96h-262l-46 -117q-8 -21 -8 -39q0 -41 68 -41v-19h-198v19q36 2 56 28.5t68 135.5l208 491h20l249 -568q26 -56 41 -70.5t49 -16.5v-19zM447 257l-116 275l-115 -275h231zM295 712h-43l-167 80q-32 13 -32 33
q0 26 38 26q21 0 46 -19zM455 712h-43l-167 80q-32 13 -32 33q0 26 38 26q21 0 46 -19z" />
    <glyph glyph-name="adblgrave" unicode="&#x201;" horiz-adv-x="444" 
d="M442 40q-26 -29 -45.5 -39.5t-44.5 -10.5q-31 0 -45.5 16.5t-18.5 56.5q-86 -73 -146 -73q-46 0 -75.5 30t-29.5 77q0 54 36 87q32 28 64.5 44.5t149.5 63.5v61q0 83 -76 83q-30 0 -51 -14.5t-21 -34.5q0 -11 3 -24q2 -14 2 -16q0 -17 -13.5 -29.5t-31.5 -12.5t-30.5 13
t-12.5 30q0 41 41 75q45 37 127 37q93 0 125 -58q19 -31 19 -102v-195q0 -33 6.5 -45.5t23.5 -12.5q21 0 44 19v-26zM287 123v145q-90 -33 -126 -64t-36 -75v-4q0 -32 18.5 -54.5t44.5 -22.5q35 0 73 22q16 10 21 20t5 33zM188 505h-40l-154 97q-30 19 -30 42q0 32 35 32
q19 0 42 -23zM354 505h-40l-154 97q-30 19 -30 42q0 32 35 32q19 0 42 -23z" />
    <glyph glyph-name="Edblgrave" unicode="&#x204;" horiz-adv-x="611" 
d="M597 169l-45 -169h-540v19q55 4 71 20.5t16 69.5v444q0 53 -15.5 69t-71.5 21v19h531l3 -143h-25q-13 67 -40 86t-112 19h-135q-20 0 -26.5 -6.5t-6.5 -27.5v-222h154q61 0 80.5 17t29.5 78h23v-232h-23q-10 62 -29 79t-81 17h-154v-247q0 -27 8 -32q14 -11 97 -11h27
q107 0 153 25.5t83 106.5h28zM220 712h-43l-167 80q-32 13 -32 33q0 26 38 26q21 0 46 -19zM380 712h-43l-167 80q-32 13 -32 33q0 26 38 26q21 0 46 -19z" />
    <glyph glyph-name="edblgrave" unicode="&#x205;" horiz-adv-x="444" 
d="M424 157q-65 -167 -212 -167q-86 0 -136.5 60.5t-50.5 163.5q0 109 58 177.5t151 68.5q80 0 128 -57q33 -42 43 -126h-308q3 -85 30 -138q43 -80 126 -80q48 0 83.5 24t71.5 81zM303 309q-10 65 -31 90t-67 25q-90 0 -106 -115h204zM198 505h-40l-154 97q-30 19 -30 42
q0 32 35 32q19 0 42 -23zM364 505h-40l-154 97q-30 19 -30 42q0 32 35 32q19 0 42 -23z" />
    <glyph glyph-name="Idblgrave" unicode="&#x208;" horiz-adv-x="333" 
d="M315 0h-297v19q63 2 80 18t17 72v444q0 55 -16.5 70.5t-80.5 19.5v19h297v-19q-63 -3 -80.5 -19t-17.5 -71v-444q0 -55 18 -71.5t80 -18.5v-19zM104 712h-43l-167 80q-32 13 -32 33q0 26 38 26q21 0 46 -19zM264 712h-43l-167 80q-32 13 -32 33q0 26 38 26q21 0 46 -19z
" />
    <glyph glyph-name="idblgrave" unicode="&#x209;" horiz-adv-x="278" 
d="M253 0h-237v15q52 3 65.5 18t13.5 69v232q0 33 -7.5 46.5t-25.5 13.5q-16 0 -34 -3l-8 -1v15l155 55l4 -3v-355q0 -54 12.5 -68.5t61.5 -18.5v-15zM101 505h-40l-154 97q-30 19 -30 42q0 32 35 32q19 0 42 -23zM267 505h-40l-154 97q-30 19 -30 42q0 32 35 32
q19 0 42 -23z" />
    <glyph glyph-name="Odblgrave" unicode="&#x20c;" horiz-adv-x="722" 
d="M688 327q0 -151 -92.5 -246t-240.5 -95q-66 0 -128.5 27.5t-106.5 74.5q-40 43 -63 107.5t-23 135.5q0 151 92 248t235 97q147 0 243 -105q84 -92 84 -244zM574 328q0 185 -85 262q-56 50 -128 50q-84 0 -143 -65q-32 -35 -51 -102.5t-19 -143.5q0 -83 23 -153.5
t62 -104.5q55 -49 126 -49q80 0 133 53q36 35 49 73q33 86 33 180zM299 712h-43l-167 80q-32 13 -32 33q0 26 38 26q21 0 46 -19zM459 712h-43l-167 80q-32 13 -32 33q0 26 38 26q21 0 46 -19z" />
    <glyph glyph-name="odblgrave" unicode="&#x20d;" 
d="M470 234q0 -104 -64 -174t-158 -70t-156.5 67.5t-62.5 168.5q0 103 61.5 168.5t159.5 65.5q96 0 158 -64t62 -162zM380 199q0 103 -40 168t-103 65q-53 0 -85.5 -43t-32.5 -114q0 -111 44 -193q34 -64 97 -64q56 0 88 48t32 133zM214 505h-40l-154 97q-30 19 -30 42
q0 32 35 32q19 0 42 -23zM380 505h-40l-154 97q-30 19 -30 42q0 32 35 32q19 0 42 -23z" />
    <glyph glyph-name="Rdblgrave" unicode="&#x210;" horiz-adv-x="667" 
d="M659 0h-161l-238 308l-56 -2v-197q0 -54 16 -70t74 -20v-19h-277v19q56 4 70.5 21.5t14.5 79.5v433q0 53 -14.5 68.5t-70.5 21.5v19h276q70 0 128 -18t87 -49q39 -44 39 -109q0 -74 -51 -115q-43 -35 -130 -52l206 -253q21 -25 39.5 -35t47.5 -12v-19zM438 488
q0 70 -44.5 103.5t-138.5 33.5q-30 0 -40.5 -7.5t-10.5 -28.5v-246q73 2 108 8.5t69 25.5q57 30 57 111zM232 712h-43l-167 80q-32 13 -32 33q0 26 38 26q21 0 46 -19zM392 712h-43l-167 80q-32 13 -32 33q0 26 38 26q21 0 46 -19z" />
    <glyph glyph-name="rdblgrave" unicode="&#x211;" horiz-adv-x="333" 
d="M335 407q0 -21 -10.5 -33t-28.5 -12q-17 0 -40 20q-16 15 -26 15q-20 0 -45 -29t-25 -53v-225q0 -43 17 -58t68 -17v-15h-240v15q48 9 59.5 20t11.5 49v250q0 33 -7.5 46.5t-26.5 13.5q-16 0 -35 -4v16q80 26 148 54l5 -2v-92q37 53 63 73.5t57 20.5q26 0 40.5 -14
t14.5 -39zM124 505h-40l-154 97q-30 19 -30 42q0 32 35 32q19 0 42 -23zM290 505h-40l-154 97q-30 19 -30 42q0 32 35 32q19 0 42 -23z" />
    <glyph glyph-name="Udblgrave" unicode="&#x214;" horiz-adv-x="722" 
d="M705 643q-62 -8 -78 -30t-16 -98v-261q0 -107 -33 -165q-59 -103 -223 -103q-128 0 -189.5 62.5t-61.5 192.5v312q0 55 -15.5 70t-74.5 20v19h283v-19q-60 -5 -75.5 -20.5t-15.5 -69.5v-320q0 -88 25 -132q41 -71 147 -71q56 0 101 21.5t65 57.5q23 43 23 136v270
q0 75 -18 99.5t-76 28.5v19h232v-19zM324 712h-43l-167 80q-32 13 -32 33q0 26 38 26q21 0 46 -19zM484 712h-43l-167 80q-32 13 -32 33q0 26 38 26q21 0 46 -19z" />
    <glyph glyph-name="udblgrave" unicode="&#x215;" 
d="M479 36q-78 -21 -137 -45l-4 2v83l-43 -43q-43 -43 -103 -43q-55 0 -88 35.5t-33 94.5v252q0 35 -13 48.5t-49 15.5v14h146v-326q0 -31 21 -53.5t50 -22.5q48 0 90 36q17 13 17 51v235q0 37 -13.5 49t-60.5 14v17h158v-343q0 -35 11.5 -46t45.5 -11h5v-14zM208 505h-40
l-154 97q-30 19 -30 42q0 32 35 32q19 0 42 -23zM374 505h-40l-154 97q-30 19 -30 42q0 32 35 32q19 0 42 -23z" />
    <glyph glyph-name="uni0218" unicode="&#x218;" horiz-adv-x="556" 
d="M491 168q0 -77 -58.5 -129.5t-145.5 -52.5q-60 0 -118 23q-30 11 -47 11q-11 0 -19 -9.5t-9 -23.5h-22l-30 212h23q38 -92 86.5 -134.5t115.5 -42.5q55 0 89 31t34 81q0 37 -14 59q-37 56 -149 117q-84 44 -120 89t-36 105q0 82 58 130q52 42 113 42q50 0 108 -22
q27 -12 44 -12q26 0 32 34h21l22 -213h-25q-20 75 -61 117q-53 55 -122 55q-47 0 -75.5 -25.5t-28.5 -66.5t34 -77t113 -79q99 -54 143 -105.5t44 -113.5zM331 -127q0 -45 -31 -87t-81 -67l-9 19q82 56 82 106q0 14 -14 14q-1 0 -8 -2q-12 -2 -19 -2q-27 0 -43 13.5
t-16 37.5q0 25 16.5 41t42.5 16q34 0 57 -25.5t23 -63.5z" />
    <glyph glyph-name="uni0219" unicode="&#x219;" horiz-adv-x="389" 
d="M348 118q0 -52 -41.5 -90t-98.5 -38q-27 0 -74 10q-32 8 -46 8q-15 0 -23 -12h-13v156h16q17 -76 46 -108t81 -32q38 0 60.5 19.5t22.5 52.5q0 45 -52 75l-58 33q-64 37 -90.5 69.5t-26.5 74.5q0 55 38.5 89t99.5 34q37 0 68 -12q15 -7 27 -7q4 0 14 8l2 2h11l4 -136h-15
q-17 67 -42 95t-68 28q-35 0 -56 -18.5t-21 -49.5q0 -43 43 -68l108 -64q46 -27 65 -54t19 -65zM259 -127q0 -45 -31 -87t-81 -67l-9 19q82 56 82 106q0 14 -14 14q-1 0 -8 -2q-12 -2 -19 -2q-27 0 -43 13.5t-16 37.5q0 25 16.5 41t42.5 16q34 0 57 -25.5t23 -63.5z" />
    <glyph glyph-name="uni021A" unicode="&#x21a;" horiz-adv-x="611" 
d="M593 492h-24q-17 83 -45.5 105.5t-113.5 22.5h-54v-511q0 -55 17 -71t79 -19v-19h-292v19q62 4 78 20.5t16 80.5v500h-54q-84 0 -112.5 -23t-46.5 -105h-24l6 170h564zM375 -127q0 -45 -31 -87t-81 -67l-9 19q82 56 82 106q0 14 -14 14q-1 0 -8 -2q-12 -2 -19 -2
q-27 0 -43 13.5t-16 37.5q0 25 16.5 41t42.5 16q34 0 57 -25.5t23 -63.5z" />
    <glyph glyph-name="uni021B" unicode="&#x21b;" horiz-adv-x="278" 
d="M279 66q-48 -76 -121 -76q-88 0 -88 127v301h-53q-4 3 -4 7q0 8 17 19q41 24 97 107q14 18 20 28q7 0 7 -13v-116h101v-32h-101v-286q0 -48 12 -69t40 -21q30 0 60 35zM224 -127q0 -45 -31 -87t-81 -67l-9 19q82 56 82 106q0 14 -14 14q-1 0 -8 -2q-12 -2 -19 -2
q-27 0 -43 13.5t-16 37.5q0 25 16.5 41t42.5 16q34 0 57 -25.5t23 -63.5z" />
    <glyph glyph-name="uni0237" unicode="&#x237;" horiz-adv-x="278" 
d="M193 0q0 -107 -43.5 -162.5t-126.5 -55.5q-41 0 -67 15.5t-26 39.5q0 16 12 27.5t29 11.5q23 0 48 -32q23 -28 42 -28q23 0 34 18q14 25 14 121v379q0 60 -32 60q-16 0 -40 -3l-5 -1v16q80 25 156 54l5 -3v-457z" />
    <glyph glyph-name="ereversed" unicode="&#x258;" horiz-adv-x="444" 
d="M424 214q0 -103 -50.5 -163.5t-136.5 -60.5q-147 0 -212 167l16 7q36 -57 71.5 -81t83.5 -24q83 0 126 80q27 53 30 138h-308q10 84 43 126q47 57 128 57q93 0 151 -68.5t58 -177.5zM350 309q-16 115 -106 115q-46 0 -67 -25t-31 -90h204z" />
    <glyph glyph-name="schwa" unicode="&#x259;" horiz-adv-x="444" 
d="M424 236q0 -109 -58 -177.5t-151 -68.5q-81 0 -128 57q-33 42 -43 126h308q-3 85 -30 138q-43 80 -126 80q-48 0 -83.5 -24t-71.5 -81l-16 7q65 167 212 167q86 0 136.5 -60.5t50.5 -163.5zM350 141h-204q10 -65 31 -90t67 -25q90 0 106 115z" />
    <glyph glyph-name="ringhalfright" unicode="&#x2be;" horiz-adv-x="354" 
d="M314 494q0 -89 -59 -137q-44 -36 -95 -36q-45 0 -78 23t-33 54q0 14 12 25t28 11q30 0 39 -37l4 -15q5 -15 11.5 -20.5t20.5 -5.5q37 0 60 30t23 78q0 54 -26.5 88t-69.5 34q-26 0 -45 -13t-42 -46q-3 -3 -7 -3q-3 0 -4 1l-9 6q-4 1 -4 7q0 2 1 3q30 58 57 80
q37 29 81 29q59 0 97 -44t38 -112z" />
    <glyph glyph-name="ringhalfleft" unicode="&#x2bf;" horiz-adv-x="354" 
d="M314 433q0 -2 -1 -3q-30 -58 -57 -80q-37 -29 -81 -29q-59 0 -97 44t-38 112q0 89 59 137q44 36 95 36q45 0 78 -23t33 -54q0 -14 -12 -25t-28 -11q-30 0 -39 37l-4 15q-5 15 -11.5 20.5t-20.5 5.5q-37 0 -60 -30t-23 -78q0 -54 26.5 -88t69.5 -34q26 0 45 13t42 46
q3 3 7 3q3 0 4 -1l9 -6q4 -1 4 -7z" />
    <glyph glyph-name="circumflex" unicode="&#x2c6;" horiz-adv-x="333" 
d="M322 507h-34l-122 103l-121 -103h-34l124 167h62z" />
    <glyph glyph-name="caron" unicode="&#x2c7;" horiz-adv-x="333" 
d="M322 674l-125 -167h-62l-124 167h34l121 -103l122 103h34z" />
    <glyph glyph-name="breve" unicode="&#x2d8;" horiz-adv-x="333" 
d="M307 669q-18 -157 -142 -157q-73 0 -112 54q-26 38 -27 103h29q11 -50 37.5 -73.5t74.5 -23.5q44 0 67 20t44 77h29z" />
    <glyph glyph-name="dotaccent" unicode="&#x2d9;" horiz-adv-x="333" 
d="M217 590q0 -22 -14.5 -36.5t-36.5 -14.5q-21 0 -36 14.5t-15 36.5q0 21 15 36t36 15q22 0 36.5 -15t14.5 -36z" />
    <glyph glyph-name="ring" unicode="&#x2da;" horiz-adv-x="333" 
d="M266 590q0 -41 -29.5 -70t-70.5 -29q-42 0 -70.5 29t-28.5 71q0 41 29.5 70t69.5 29q41 0 70.5 -29.5t29.5 -70.5zM232 590q0 27 -19.5 46.5t-45.5 19.5q-27 0 -46.5 -19t-19.5 -46t19 -46.5t45 -19.5q28 0 47.5 19t19.5 46z" />
    <glyph glyph-name="ogonek" unicode="&#x2db;" horiz-adv-x="333" 
d="M261 -164q-37 -81 -103 -81q-32 0 -54.5 25t-22.5 61q0 57 36 104q25 35 77 72h29q-81 -74 -81 -149q0 -28 12 -44.5t34 -16.5q28 0 54 43z" />
    <glyph glyph-name="tilde" unicode="&#x2dc;" horiz-adv-x="333" 
d="M331 643q-16 -57 -40 -81.5t-65 -24.5q-32 0 -81 24l-23 11q-24 11 -41 11q-35 0 -51 -46h-29q11 49 37 75t64 26q36 0 70 -18l24 -12q32 -15 53 -15q17 0 28.5 11t24.5 39h29z" />
    <glyph glyph-name="hungarumlaut" unicode="&#x2dd;" horiz-adv-x="333" 
d="M427 644q0 -23 -30 -42l-154 -97h-40l147 148q23 23 42 23q35 0 35 -32zM261 644q0 -23 -30 -42l-154 -97h-40l147 148q23 23 42 23q35 0 35 -32z" />
    <glyph glyph-name="uni0300" unicode="&#x300;" horiz-adv-x="0" 
d="M-148 504h-40l-154 97q-30 19 -30 42q0 32 35 32q19 0 42 -23z" />
    <glyph glyph-name="uni0301" unicode="&#x301;" horiz-adv-x="0" 
d="M-71 643q0 -23 -30 -42l-154 -97h-40l147 148q23 23 42 23q35 0 35 -32z" />
    <glyph glyph-name="uni0302" unicode="&#x302;" horiz-adv-x="0" 
d="M-66 507h-34l-122 103l-121 -103h-34l124 167h62z" />
    <glyph glyph-name="uni0303" unicode="&#x303;" horiz-adv-x="0" 
d="M-57 643q-16 -57 -40 -81.5t-65 -24.5q-32 0 -81 24l-23 11q-24 11 -41 11q-35 0 -51 -46h-29q11 49 37 75t64 26q35 0 70 -18l24 -12q32 -15 53 -15q17 0 28.5 11t24.5 39h29z" />
    <glyph glyph-name="uni0304" unicode="&#x304;" horiz-adv-x="0" 
d="M-66 563h-311v54h311v-54z" />
    <glyph glyph-name="uni0306" unicode="&#x306;" horiz-adv-x="0" 
d="M-81 669q-18 -157 -142 -157q-73 0 -112 54q-26 38 -27 103h29q11 -50 37.5 -73.5t74.5 -23.5q44 0 67 20t44 77h29z" />
    <glyph glyph-name="uni0307" unicode="&#x307;" horiz-adv-x="0" 
d="M-171 590q0 -22 -14.5 -36.5t-36.5 -14.5q-21 0 -36 14.5t-15 36.5q0 21 15 36t36 15q22 0 36.5 -15t14.5 -36z" />
    <glyph glyph-name="uni0308" unicode="&#x308;" horiz-adv-x="0" 
d="M-271 590q0 -20 -15 -34.5t-36 -14.5q-20 0 -34 14.5t-14 35.5q0 19 14.5 34t33.5 15q21 0 36 -15t15 -35zM-72 590q0 -20 -15 -34.5t-36 -14.5q-20 0 -34 14.5t-14 35.5q0 19 14.5 34t33.5 15q21 0 36 -15t15 -35z" />
    <glyph glyph-name="uni0309" unicode="&#x309;" horiz-adv-x="0" 
d="M-123 626q0 -26 -42 -59q-37 -29 -42 -40q-6 -10 -10 -30h-23q1 34 33 79q23 26 23 47q0 42 -50 42q-23 0 -35 -10q-6 -3 -6 -8q0 -1 8.5 -13t8.5 -16q0 -19 -28 -19q-34 0 -34 32q0 23 27.5 38t69.5 15q54 0 80 -22q20 -18 20 -36z" />
    <glyph glyph-name="uni030A" unicode="&#x30a;" horiz-adv-x="0" 
d="M-122 590q0 -41 -29.5 -70t-70.5 -29q-42 0 -70.5 29t-28.5 71q0 41 29.5 70t69.5 29q41 0 70.5 -29.5t29.5 -70.5zM-156 590q0 27 -19.5 46.5t-45.5 19.5q-27 0 -46.5 -19t-19.5 -46t19 -46.5t45 -19.5q28 0 47.5 19t19.5 46z" />
    <glyph glyph-name="uni030B" unicode="&#x30b;" horiz-adv-x="0" 
d="M39 644q0 -23 -30 -42l-154 -97h-40l147 148q23 23 42 23q35 0 35 -32zM-127 644q0 -23 -30 -42l-154 -97h-40l147 148q23 23 42 23q35 0 35 -32z" />
    <glyph glyph-name="uni030C" unicode="&#x30c;" horiz-adv-x="0" 
d="M-66 674l-125 -167h-62l-124 167h34l121 -103l122 103h34z" />
    <glyph glyph-name="uni030F" unicode="&#x30f;" horiz-adv-x="0" 
d="M-258 505h-40l-154 97q-30 19 -30 42q0 32 35 32q19 0 42 -23zM-92 505h-40l-154 97q-30 19 -30 42q0 32 35 32q19 0 42 -23z" />
    <glyph glyph-name="uni0311" unicode="&#x311;" horiz-adv-x="0" 
d="M-81 512h-29q-11 50 -37.5 73.5t-74.5 23.5q-44 0 -67 -20t-44 -77h-29q18 157 142 157q73 0 112 -54q26 -38 27 -103z" />
    <glyph glyph-name="uni0323" unicode="&#x323;" horiz-adv-x="0" 
d="M-171 -140q0 -22 -14.5 -36.5t-36.5 -14.5q-21 0 -36 14.5t-15 36.5q0 21 15 36t36 15q22 0 36.5 -15t14.5 -36z" />
    <glyph glyph-name="uni0326" unicode="&#x326;" horiz-adv-x="0" 
d="M-152 -127q0 -45 -31 -87t-81 -67l-9 19q82 56 82 106q0 14 -14 14q-1 0 -8 -2q-12 -2 -19 -2q-27 0 -43 13.5t-16 37.5q0 25 16.5 41t42.5 16q34 0 57 -25.5t23 -63.5z" />
    <glyph glyph-name="uni032E" unicode="&#x32e;" horiz-adv-x="0" 
d="M-65 -71q0 -55 -44 -96.5t-112 -41.5t-112 41.5t-44 96.5h26q23 -82 130 -82t130 82h26z" />
    <glyph glyph-name="uni032F" unicode="&#x32f;" horiz-adv-x="0" 
d="M-65 -209h-26q-23 82 -130 82t-130 -82h-26q0 55 44 96.5t112 41.5t112 -41.5t44 -96.5z" />
    <glyph glyph-name="uni0330" unicode="&#x330;" horiz-adv-x="0" 
d="M-57 -87q-16 -57 -40 -81.5t-65 -24.5q-32 0 -81 24l-23 11q-24 11 -41 11q-35 0 -51 -46h-29q11 49 37 75t64 26q35 0 70 -18l24 -12q32 -15 53 -15q17 0 28.5 11t24.5 39h29z" />
    <glyph glyph-name="uni0331" unicode="&#x331;" horiz-adv-x="0" 
d="M-66 -167h-311v54h311v-54z" />
    <glyph glyph-name="uni0332" unicode="&#x332;" horiz-adv-x="0" 
d="M-66 -167h-311v54h311v-54z" />
    <glyph glyph-name="Alpha" unicode="&#x391;" horiz-adv-x="722" 
d="M706 0h-255v19q41 0 56 9q14 7 14 24q0 24 -19 68l-41 96h-262l-46 -117q-8 -21 -8 -39q0 -41 68 -41v-19h-198v19q36 2 56 28.5t68 135.5l208 491h20l249 -568q26 -56 41 -70.5t49 -16.5v-19zM447 257l-116 275l-115 -275h231z" />
    <glyph glyph-name="Beta" unicode="&#x392;" horiz-adv-x="667" 
d="M593 180q0 -75 -56 -125q-60 -55 -186 -55h-334v19q62 2 79 18t17 72v444q0 55 -16.5 70.5t-79.5 19.5v19h280q262 0 262 -170q0 -65 -40 -100q-32 -28 -97 -44q49 -12 74.5 -23.5t47.5 -31.5q49 -46 49 -113zM478 179q0 92 -84 127q-48 20 -179 20v-248q0 -24 13 -32.5
t50 -8.5q93 0 139 26q61 35 61 116zM457 488q0 67 -45 102t-131 35h-44q-22 0 -22 -30v-229h95q70 0 108.5 31.5t38.5 90.5z" />
    <glyph glyph-name="Gamma" unicode="&#x393;" horiz-adv-x="556" 
d="M546 519h-25q-13 67 -40 86t-112 19h-136q-20 0 -26 -6.5t-6 -27.5v-481q0 -54 16.5 -70.5t74.5 -19.5v-19h-280v19q57 4 72 21.5t15 79.5v433q0 53 -16 69.5t-71 20.5v19h531z" />
    <glyph glyph-name="Delta" unicode="&#x394;" horiz-adv-x="659" 
d="M633 0h-607l299 731h15zM479 106l-185 467l-190 -467h375z" />
    <glyph glyph-name="Epsilon" unicode="&#x395;" horiz-adv-x="611" 
d="M597 169l-45 -169h-540v19q55 4 71 20.5t16 69.5v444q0 53 -15.5 69t-71.5 21v19h531l3 -143h-25q-13 67 -40 86t-112 19h-135q-20 0 -26.5 -6.5t-6.5 -27.5v-222h154q61 0 80.5 17t29.5 78h23v-232h-23q-10 62 -29 79t-81 17h-154v-247q0 -27 8 -32q14 -11 97 -11h27
q107 0 153 25.5t83 106.5h28z" />
    <glyph glyph-name="Zeta" unicode="&#x396;" horiz-adv-x="611" 
d="M597 176l-24 -176h-564v15l437 609h-221q-100 0 -134 -43q-23 -28 -34 -90h-26l20 171h526v-15l-432 -609h257q88 0 125 39q25 28 47 99h23z" />
    <glyph glyph-name="Eta" unicode="&#x397;" horiz-adv-x="722" 
d="M702 0h-278v19q58 4 73 21t15 80v195h-303v-206q0 -53 16 -69t72 -21v-19h-278v19q58 4 73 21t15 80v433q0 54 -15 69.5t-73 20.5v19h278v-19q-58 -5 -73 -20.5t-15 -69.5v-194h303v194q0 54 -15 69.5t-73 20.5v19h278v-19q-58 -5 -73 -20.5t-15 -69.5v-444q0 -53 16 -69
t72 -21v-19z" />
    <glyph glyph-name="Theta" unicode="&#x398;" horiz-adv-x="722" 
d="M688 327q0 -151 -92.5 -246t-240.5 -95q-66 0 -128.5 27.5t-106.5 74.5q-40 43 -63 107.5t-23 135.5q0 151 92 248t235 97q147 0 243 -105q84 -92 84 -244zM574 328q0 185 -85 262q-56 50 -128 50q-84 0 -143 -65q-32 -35 -51 -102.5t-19 -143.5q0 -83 23 -153.5
t62 -104.5q55 -49 126 -49q80 0 133 53q36 35 49 73q33 86 33 180zM479 213h-19q0 43 -17.5 60.5t-61.5 17.5h-41q-43 0 -60.5 -18t-17.5 -60h-18v236h18q2 -44 18.5 -61t61.5 -17h40q43 0 60.5 18t17.5 60h19v-236z" />
    <glyph glyph-name="Iota" unicode="&#x399;" horiz-adv-x="333" 
d="M315 0h-297v19q63 2 80 18t17 72v444q0 55 -16.5 70.5t-80.5 19.5v19h297v-19q-63 -3 -80.5 -19t-17.5 -71v-444q0 -55 18 -71.5t80 -18.5v-19z" />
    <glyph glyph-name="Kappa" unicode="&#x39a;" horiz-adv-x="722" 
d="M723 0h-305v19q12 1 28 1q42 2 42 22q0 18 -36.5 66t-93.5 104l-106 105l-26 -21v-187q0 -55 16 -70.5t74 -19.5v-19h-282v19q59 4 74.5 21.5t15.5 79.5v433q0 53 -16 69.5t-74 20.5v19h284v-19q-61 -4 -76.5 -19.5t-15.5 -70.5v-205l177 161q78 72 78 103
q0 15 -9.5 21.5t-32.5 8.5q-14 0 -26 1v19h262v-19q-51 -4 -76 -16.5t-76 -61.5l-190 -188l233 -250q68 -73 93 -90t64 -18v-19z" />
    <glyph glyph-name="Lambda" unicode="&#x39b;" horiz-adv-x="722" 
d="M706 0h-255v19q41 0 56 9q14 7 14 24q0 24 -19 68l-171 412l-178 -433q-8 -21 -8 -39q0 -41 68 -41v-19h-198v19q36 2 56 28.5t68 135.5l208 491h20l249 -568q26 -56 41 -70.5t49 -16.5v-19z" />
    <glyph glyph-name="Mu" unicode="&#x39c;" horiz-adv-x="889" 
d="M863 0h-280v19q59 4 75 21.5t16 79.5v453l-256 -573h-14l-251 550v-403q0 -76 18 -100.5t76 -27.5v-19h-235v19q62 4 79.5 27.5t17.5 100.5v406q0 55 -16.5 70.5t-78.5 19.5v19h198l231 -505l221 505h199v-19q-56 -5 -71.5 -21t-15.5 -69v-444q0 -53 16 -69.5t71 -20.5
v-19z" />
    <glyph glyph-name="Nu" unicode="&#x39d;" horiz-adv-x="722" 
d="M707 643q-48 -5 -66 -18q-29 -20 -29 -110v-526h-17l-442 550v-392q0 -76 18 -100.5t76 -27.5v-19h-235v19q62 4 79.5 27.5t17.5 100.5v441q-30 35 -47.5 45t-49.5 10v19h171l385 -484v337q0 92 -29 112q-21 12 -67 16v19h235v-19z" />
    <glyph glyph-name="Xi" unicode="&#x39e;" horiz-adv-x="643" 
d="M584 501h-19q0 40 -24.5 58t-75.5 18h-290q-97 0 -97 -76h-19v161h525v-161zM494 220h-18q-1 44 -20 58t-71 14h-127q-52 0 -71.5 -14.5t-19.5 -57.5h-18v219h18q0 -45 20.5 -58t70.5 -13h127q50 0 70.5 13.5t20.5 57.5h18v-219zM605 0h-566v186h18v-12q0 -44 31.5 -65.5
t75.5 -21.5h321q54 0 77.5 18t23.5 69v12h19v-186z" />
    <glyph glyph-name="Omicron" unicode="&#x39f;" horiz-adv-x="722" 
d="M688 327q0 -151 -92.5 -246t-240.5 -95q-66 0 -128.5 27.5t-106.5 74.5q-40 43 -63 107.5t-23 135.5q0 151 92 248t235 97q147 0 243 -105q84 -92 84 -244zM574 328q0 185 -85 262q-56 50 -128 50q-84 0 -143 -65q-32 -35 -51 -102.5t-19 -143.5q0 -83 23 -153.5
t62 -104.5q55 -49 126 -49q80 0 133 53q36 35 49 73q33 86 33 180z" />
    <glyph glyph-name="Pi" unicode="&#x3a0;" horiz-adv-x="722" 
d="M702 0h-278v19q58 4 73 21t15 80v433q0 54 -15 69.5t-73 20.5h-127q-58 -5 -73 -20.5t-15 -69.5v-444q0 -53 16 -69t72 -21v-19h-278v19q58 4 73 21t15 80v433q0 54 -15 69.5t-73 20.5v19h683v-19q-58 -5 -73 -20.5t-15 -69.5v-444q0 -53 16 -69t72 -21v-19z" />
    <glyph glyph-name="Rho" unicode="&#x3a1;" horiz-adv-x="556" 
d="M542 481q0 -50 -25.5 -92.5t-70.5 -66.5q-61 -34 -175 -34q-30 0 -69 3v-182q0 -55 17.5 -71.5t76.5 -18.5v-19h-280v19q57 5 70.5 21.5t13.5 79.5v433q0 54 -14 69t-70 21v19h264q71 0 131 -19.5t90 -52.5q41 -44 41 -109zM433 475q0 77 -48 113.5t-149 36.5
q-20 0 -27 -7t-7 -27v-260q35 -3 57 -3q174 0 174 147z" />
    <glyph glyph-name="Sigma" unicode="&#x3a3;" horiz-adv-x="653" 
d="M632 159l-48 -159h-564l217 309l-209 353h539l9 -125h-24q-11 49 -28 68q-27 26 -117 26h-242l170 -280l-181 -266h295q77 0 107.5 14t52.5 60h23z" />
    <glyph glyph-name="Tau" unicode="&#x3a4;" horiz-adv-x="611" 
d="M593 492h-24q-17 83 -45.5 105.5t-113.5 22.5h-54v-511q0 -55 17 -71t79 -19v-19h-292v19q62 4 78 20.5t16 80.5v500h-54q-84 0 -112.5 -23t-46.5 -105h-24l6 170h564z" />
    <glyph glyph-name="Upsilon" unicode="&#x3a5;" horiz-adv-x="722" 
d="M708 497h-28q0 34 -25.5 57.5t-60.5 23.5q-49 0 -85 -28t-55 -77t-28 -104t-9 -119v-141q0 -57 18 -72.5t85 -17.5v-19h-306v19q68 3 84.5 19.5t16.5 81.5v130q0 64 -9.5 119.5t-30 104t-57.5 76.5t-87 28q-36 0 -62.5 -23.5t-26.5 -57.5h-28q0 66 31.5 115.5t85.5 49.5
q62 0 108 -35.5t71 -96.5t37 -130.5t12 -149.5h14q0 80 11 149t35 130.5t69 97t106 35.5q53 0 83.5 -49t30.5 -116z" />
    <glyph glyph-name="Phi" unicode="&#x3a6;" horiz-adv-x="663" 
d="M623 331q0 -78 -69 -123t-172 -54v-45q0 -55 18 -71.5t80 -18.5v-19h-297v19q63 2 80 18t17 72v45q-103 9 -171.5 54t-68.5 123t68.5 123t171.5 54v45q0 55 -16.5 70.5t-80.5 19.5v19h297v-19q-63 -3 -80.5 -19t-17.5 -71v-45q103 -9 172 -54t69 -123zM280 184v294
q-65 -13 -107.5 -52t-42.5 -95t42.5 -95t107.5 -52zM533 331q0 57 -43 96t-108 51v-294q65 12 108 51t43 96z" />
    <glyph glyph-name="Chi" unicode="&#x3a7;" horiz-adv-x="722" 
d="M704 0h-297v19q24 2 27 2q50 1 50 29q0 22 -51 98l-95 140l-119 -148q-52 -65 -52 -86q0 -17 16 -24.5t60 -10.5v-19h-233v19q38 3 58 18.5t87 95.5l157 193l-109 160q-73 104 -102.5 129.5t-78.5 27.5v19h302v-19l-28 -1q-48 -1 -48 -29q0 -32 85 -150l42 -59l113 138
q40 50 40 69q0 17 -14.5 23.5t-55.5 8.5v19h238v-19q-48 -3 -74 -19.5t-75 -74.5l-146 -182l192 -274q32 -43 51.5 -56t59.5 -18v-19z" />
    <glyph glyph-name="Psi" unicode="&#x3a8;" horiz-adv-x="651" 
d="M611 516q-18 0 -29 -12.5t-15 -39t-5 -45t-1 -53.5q0 -78 -52.5 -136t-132.5 -74v-47q0 -55 18 -71.5t80 -18.5v-19h-297v19q63 2 80 18t17 72v48q-79 16 -131.5 73.5t-52.5 135.5q0 35 -1 53.5t-5 45t-15 39t-29 12.5v28q62 0 101 -53t39 -125q0 -58 25.5 -106.5
t68.5 -68.5v362q0 55 -16.5 70.5t-80.5 19.5v19h297v-19q-63 -3 -80.5 -19t-17.5 -71v-363q44 20 69.5 68.5t25.5 107.5q0 72 39 125t101 53v-28z" />
    <glyph glyph-name="Omega" unicode="&#x3a9;" horiz-adv-x="766" 
d="M730 153l-6 -153h-272l13 147q122 39 122 233q0 129 -58 193q-62 68 -144 68q-89 0 -147 -71q-58 -70 -58 -183q0 -78 26 -147q26 -66 99 -93l10 -147h-272l-6 153h24q2 -36 21 -54t59 -18h131l-1 43q-76 15 -141 86q-64 70 -64 179q0 119 89 203q88 85 232 85
q138 0 228 -81q86 -77 86 -203q0 -101 -53.5 -171.5t-147.5 -97.5l-5 -43h134q75 0 77 72h24z" />
    <glyph glyph-name="alpha" unicode="&#x3b1;" horiz-adv-x="630" 
d="M590 90q0 -42 -17.5 -73t-49.5 -31q-92 0 -130 115q-50 -115 -137 -115q-92 0 -154 70.5t-62 168.5t62 168.5t154 70.5q58 0 104.5 -33.5t72.5 -89.5q25 77 66 118l47 -46q-64 -64 -94 -129q6 -29 6 -59q0 -31 0.5 -49.5t2 -47t6 -45.5t11 -34.5t18.5 -26t27 -8.5
q39 0 39 76h28zM381 147q-7 35 -7 78q0 88 -28.5 149.5t-89.5 61.5q-63 0 -94.5 -62t-31.5 -149t31.5 -149t94.5 -62q48 0 77 35.5t48 97.5z" />
    <glyph glyph-name="beta" unicode="&#x3b2;" horiz-adv-x="530" 
d="M493 182q0 -85 -69 -140.5t-164 -55.5q-75 0 -136 41v-27q0 -127 -27 -236h-86q29 124 29 236v450q0 93 64.5 159.5t155.5 66.5q78 0 134.5 -46.5t56.5 -116.5q0 -55 -44 -93.5t-109 -54.5q83 -19 139 -66.5t56 -116.5zM403 182q0 77 -70.5 122.5t-166.5 45.5v28
q79 0 137 36t58 99q0 55 -28 95t-73 40q-63 0 -99.5 -59t-36.5 -139v-389q60 -47 136 -47q62 0 102.5 50t40.5 118z" />
    <glyph glyph-name="gamma" unicode="&#x3b3;" horiz-adv-x="552" 
d="M512 450q0 -59 -23.5 -125t-48 -108.5t-70.5 -111.5l-34 -51l1 -116q0 -28 -0.5 -44.5t-2.5 -42t-6.5 -40.5t-12 -31t-19.5 -23t-29 -7q-37 0 -56.5 30t-15.5 76t32 89l80 117q-2 69 -8.5 120t-22 99t-44.5 73.5t-72 25.5t-67.5 -39.5t-24.5 -92.5h-28q0 42 6 78.5
t19.5 68.5t37.5 50.5t57 18.5q49 0 83.5 -28.5t53 -83t27 -113.5t11.5 -138l12 19q99 152 99 330h66zM309 -62l-1 76l-58 -84q-35 -53 -30 -102.5t47 -49.5q10 0 17.5 6.5t12 20t7 26.5t3.5 34.5t1.5 35.5t0.5 37z" />
    <glyph glyph-name="delta" unicode="&#x3b4;" horiz-adv-x="511" 
d="M471 202q0 -89 -63 -152.5t-152 -63.5q-90 0 -153 63.5t-63 152.5q0 73 62 115.5t157 53.5q-101 86 -101 178q0 51 32 89t80 38q57 0 102 -28t57 -77l-64 -16q-10 39 -35.5 66t-59.5 27q-30 0 -44.5 -29t-14.5 -70q0 -27 20 -56.5t39 -46.5t55 -44q35 -27 54 -43t44 -43
t36.5 -55t11.5 -59zM381 202q0 72 -90 143q-68 -8 -114.5 -46.5t-46.5 -96.5q0 -76 33 -132t93 -56q59 0 92 56t33 132z" />
    <glyph glyph-name="epsilon" unicode="&#x3b5;" horiz-adv-x="483" 
d="M443 91q-25 -45 -69.5 -71.5t-95.5 -26.5q-97 0 -167.5 40t-70.5 113q0 77 92 103q-64 30 -64 92q0 56 53.5 86t128.5 30q93 0 163 -64l-20 -21q-60 57 -143 57q-40 0 -69 -25.5t-29 -62.5q0 -56 68 -78q53 3 106 3v-45q-74 0 -118 7q-84 -19 -84 -82q0 -55 45.5 -90
t108.5 -35q43 0 81 22.5t60 60.5z" />
    <glyph glyph-name="zeta" unicode="&#x3b6;" horiz-adv-x="435" 
d="M415 -128q0 -122 -63 -122q-22 0 -39 13t-23 33l26 8q9 -26 36 -26q12 0 20 7.5t11 24t3.5 28.5t0.5 34q0 54 -52 84t-124 30t-121.5 53t-49.5 127q0 137 42.5 249.5t124.5 155.5q-43 36 -37 91h66q-5 -44 19 -74q25 5 48 5q17 0 26.5 -0.5t22.5 -3t19 -8.5t6 -16
t-6 -16.5t-19 -9t-22.5 -3t-26.5 -0.5q-37 0 -65 15q-36 -18 -59 -57t-33 -97.5t-13 -108.5t-3 -122q0 -65 19 -108.5t62 -43.5q83 0 143.5 -38t60.5 -104z" />
    <glyph glyph-name="eta" unicode="&#x3b7;" 
d="M424 -200h-84v508q0 97 -73 97q-25 0 -46 -11.5t-57 -45.5v-348h-84v338q0 37 -8 50.5t-29 13.5q-19 0 -27 -4v17q74 22 138 45l7 -2v-79q51 48 80.5 64.5t64.5 16.5q55 0 86.5 -39.5t31.5 -110.5v-510z" />
    <glyph glyph-name="theta" unicode="&#x3b8;" horiz-adv-x="486" 
d="M446 331q0 -90 -19 -165t-66.5 -127.5t-117.5 -52.5t-117.5 52.5t-66.5 127.5t-19 165t19 165t66.5 127.5t117.5 52.5t117.5 -52.5t66.5 -127.5t19 -165zM356 345q0 38 -0.5 62.5t-3 59.5t-6.5 58t-12.5 48.5t-20.5 40t-29.5 24.5t-40.5 10t-40.5 -10t-29.5 -24.5
t-20.5 -40t-12.5 -48.5t-6.5 -58t-3 -59.5t-0.5 -62.5h226zM356 317h-226q0 -38 0.5 -62.5t3 -59.5t6.5 -58t12.5 -48.5t20.5 -40t29.5 -24.5t40.5 -10t40.5 10t29.5 24.5t20.5 40t12.5 48.5t6.5 58t3 59.5t0.5 62.5z" />
    <glyph glyph-name="iota" unicode="&#x3b9;" horiz-adv-x="322" 
d="M282 113q0 -53 -17.5 -90t-54.5 -37q-54 0 -92 37t-38 90v337h84v-337q0 -99 46 -99q44 0 44 99h28z" />
    <glyph glyph-name="kappa" unicode="&#x3ba;" horiz-adv-x="505" 
d="M465 113q0 -52 -28 -89.5t-72 -37.5q-57 0 -93 48.5t-36 115.5q0 70 -112 81v-231h-84v450h84v-178q33 18 78 85q33 49 67 78t77 29q36 0 59.5 -28t17.5 -63l-28 4q4 23 -11 41t-38 18q-25 0 -49 -15.5t-38 -33t-33 -46.5q-41 -58 -72 -82q70 -6 118 -32.5t48 -76.5v-32
t1.5 -30t4.5 -29.5t7.5 -22.5t12.5 -17t19 -5q32 0 52 29.5t20 69.5h28z" />
    <glyph glyph-name="lambda" unicode="&#x3bb;" horiz-adv-x="586" 
d="M546 116q0 -53 -19.5 -91t-58.5 -38q-20 0 -37 14.5t-31 43.5t-22.5 51.5t-19.5 59.5l-52 167l-170 -309h-96l231 421l-23 75q-8 24 -12.5 36t-14 29.5t-22.5 25.5t-29 8q-21 0 -33.5 -19t-12.5 -44h-28q0 53 18 91t56 38q26 0 47.5 -27.5t32 -55.5t24.5 -74l110 -353
q11 -35 18.5 -54t25 -38.5t40.5 -19.5q22 0 36 18.5t14 44.5h28z" />
    <glyph glyph-name="mu.greek" unicode="&#x3bc;" horiz-adv-x="590" 
d="M550 113q0 -53 -18 -90t-56 -37q-73 0 -110 57q-42 -57 -105 -57q-73 0 -123 39q9 -143 40 -275h-98q14 188 14 363v337h84v-337q0 -40 23.5 -69.5t59.5 -29.5q58 0 90 58q-7 17 -7 41v337h84v-337q0 -99 48 -99q46 0 46 99h28z" />
    <glyph glyph-name="nu" unicode="&#x3bd;" horiz-adv-x="544" 
d="M504 284q0 -73 -35 -136t-97 -99l-111 -64l-118 341q-38 110 -39 110q-17 0 -25.5 -15.5t-9.5 -30.5t-1 -44h-28q0 50 15 84t49 34q39 0 69 -28t44 -70l107 -312l34 19q56 32 87 88.5t31 122.5q0 64 -97 131l48 70q77 -55 77 -201z" />
    <glyph glyph-name="xi" unicode="&#x3be;" horiz-adv-x="485" 
d="M465 -128q0 -122 -63 -122q-22 0 -39 13t-24 33l27 8q9 -26 36 -26q12 0 20 7.5t11 24t3.5 28.5t0.5 34q0 19 -20 35.5t-59.5 29t-69.5 19t-80 16.5q-71 14 -119.5 50t-48.5 92q0 113 141 159q-119 31 -119 123q0 67 48.5 114t125.5 68q-39 36 -46 84h66q8 -47 36 -73
q27 4 61 4q19 0 30 -0.5t25.5 -3t21.5 -8.5t7 -16q0 -19 -22 -24t-62 -5q-41 0 -77 17q-55 -19 -89.5 -61t-34.5 -96q0 -80 116 -103q59 8 113 8v-45q-55 0 -108 3q-65 -17 -104 -53.5t-39 -91.5q0 -42 23 -74.5t61 -39.5l58.5 -12t55 -13t54.5 -18t41 -21.5t32 -28.5
t10 -35z" />
    <glyph glyph-name="omicron" unicode="&#x3bf;" 
d="M470 234q0 -104 -64 -174t-158 -70t-156.5 67.5t-62.5 168.5q0 103 61.5 168.5t159.5 65.5q96 0 158 -64t62 -162zM380 199q0 103 -40 168t-103 65q-53 0 -85.5 -43t-32.5 -114q0 -111 44 -193q34 -64 97 -64q56 0 88 48t32 133z" />
    <glyph glyph-name="pi" unicode="&#x3c0;" horiz-adv-x="596" 
d="M556 390q-55 -23 -114 -29v-275q0 -30 20.5 -51t49.5 -21v-28q-63 0 -108.5 26t-45.5 74v275q-26 2 -73 10.5t-64 10.5v-167q0 -98 -44.5 -169.5t-122.5 -71.5v66q61 0 100 52t39 123v170q-28 2 -40 2q-35 0 -60 -12.5t-25 -36.5h-28q0 54 32 93.5t81 39.5q41 0 123 -14
t124 -14q63 0 124 25z" />
    <glyph glyph-name="rho" unicode="&#x3c1;" horiz-adv-x="586" 
d="M546 225q0 -100 -74.5 -169.5t-178.5 -69.5q-77 0 -145 35q7 -61 7 -104q0 -79 -31 -155l-78 32q25 57 25 123q0 51 -15.5 153.5t-15.5 154.5q0 100 74.5 169.5t178.5 69.5t178.5 -69.5t74.5 -169.5zM456 225q0 85 -45.5 148t-117.5 63t-117.5 -63t-45.5 -148
q0 -37 14 -170q68 -41 149 -41q72 0 117.5 63t45.5 148z" />
    <glyph glyph-name="uni03C2" unicode="&#x3c2;" horiz-adv-x="429" 
d="M389 428l-48 -46q-50 54 -80 54q-59 0 -98 -49.5t-39 -116.5q0 -50 25 -94.5t68 -73.5q69 -46 95 -69q53 -46 53 -95q0 -31 -17.5 -54t-44.5 -23q-51 0 -93 31l17 22q34 -25 76 -25q16 0 25 14.5t9 34.5q0 35 -43 74q-24 20 -92 66q-30 20 -46.5 32t-42 33.5t-39 39
t-24 41t-10.5 46.5q0 82 65.5 138t155.5 56q94 0 128 -36z" />
    <glyph glyph-name="sigma" unicode="&#x3c3;" horiz-adv-x="545" 
d="M505 473q-64 -26 -146 -34q56 -27 89 -81t33 -124q0 -104 -64 -174t-158 -70t-156.5 67.5t-62.5 168.5q0 103 61.5 168.5t159.5 65.5q11 0 29 -2q78 6 199 53zM391 199q0 103 -40 168t-103 65q-53 0 -85.5 -43t-32.5 -114q0 -111 44 -193q34 -64 97 -64q56 0 88 48
t32 133z" />
    <glyph glyph-name="tau" unicode="&#x3c4;" horiz-adv-x="505" 
d="M465 395q-77 -56 -171 -48v-234q0 -99 46 -99q44 0 44 99h28q0 -53 -17.5 -90t-54.5 -37q-54 0 -92 37t-38 90v254q-53 20 -57 20q-35 0 -60 -12.5t-25 -36.5h-28q0 54 32 93.5t81 39.5q21 0 102 -31q40 -14 83 -8t77 31z" />
    <glyph glyph-name="upsilon" unicode="&#x3c5;" horiz-adv-x="558" 
d="M518 250q0 -107 -53 -185.5t-141 -78.5q-82 0 -142.5 46t-60.5 118q0 32 8.5 94t8.5 94q0 23 -0.5 35t-3.5 29.5t-10.5 25.5t-19.5 8q-13 0 -21 -8t-11 -25t-3.5 -29.5t-0.5 -35.5h-28q0 126 64 126q50 0 84 -37t34 -89q0 -32 -5.5 -94.5t-5.5 -93.5q0 -55 32 -95.5
t81 -40.5q76 0 121 70.5t45 165.5q0 46 -26 85t-73 85l58 60q69 -67 69 -230z" />
    <glyph glyph-name="phi" unicode="&#x3c6;" horiz-adv-x="686" 
d="M646 225q0 -93 -71.5 -156.5t-177.5 -78.5l2 -73q0 -88 -49 -162l-70 46q35 52 35 116l-2 70q-113 9 -193 74.5t-80 163.5q0 72 46.5 132.5t120.5 104.5l14 -24q-91 -54 -91 -213q0 -79 52 -138.5t130 -70.5q-11 214 -11 234q0 86 48 150t123 64q79 0 126.5 -71
t47.5 -168zM556 225q0 33 -0.5 50.5t-2.5 47t-7.5 45.5t-14.5 34t-24 26t-35 8q-87 0 -87 -186q0 -20 11 -229q70 17 115 74t45 130z" />
    <glyph glyph-name="chi" unicode="&#x3c7;" horiz-adv-x="540" 
d="M540 -109q0 -59 -18.5 -99.5t-59.5 -40.5q-21 0 -38 11.5t-31 35t-22 42t-19 49.5l-61 165q-59 -77 -92 -145.5t-33 -144.5h-84q0 39 11 79.5t22 67.5t41 72t42 60.5t52 65.5q9 12 14 18l-62 169q-11 32 -19 49t-25.5 34.5t-39.5 17.5q-23 0 -36.5 -22t-13.5 -52h-28
q0 59 18.5 99.5t59.5 40.5q18 0 34.5 -13.5t31 -40.5t23.5 -48t21 -55l56 -153q62 80 96 149.5t34 147.5h84q0 -24 -2.5 -46.5t-11.5 -46.5t-14 -41t-21.5 -43.5t-22 -38t-28 -41t-27 -36t-31 -40t-29.5 -36.5l67 -183q30 -81 84 -81q23 0 36.5 22t13.5 52h28z" />
    <glyph glyph-name="psi" unicode="&#x3c8;" horiz-adv-x="633" 
d="M593 250q0 -107 -63.5 -185.5t-160.5 -78.5h-2v-236h-28v237q-92 6 -155 48.5t-63 114.5q0 32 8.5 94t8.5 94q0 23 -0.5 35t-3.5 29.5t-10.5 25.5t-19.5 8q-13 0 -21 -8t-11 -25t-3.5 -29.5t-0.5 -35.5h-28q0 126 64 126q50 0 84 -37t34 -89q0 -32 -5.5 -94.5t-5.5 -93.5
q0 -51 37 -88t91 -46v209q0 223 -28 437h84q-28 -226 -28 -437v-211h2q85 0 140.5 70t55.5 166q0 46 -26 85t-73 85l58 60q69 -67 69 -230z" />
    <glyph glyph-name="omega" unicode="&#x3c9;" horiz-adv-x="694" 
d="M654 225q0 -97 -52.5 -168t-135.5 -71q-88 0 -125 102q-33 -102 -112 -102q-83 0 -136 71t-53 168q0 61 30.5 116.5t84.5 117.5l22 -18q-34 -39 -43.5 -90t-9.5 -126q0 -211 105 -211q78 0 97 129q-12 65 -12 157h66v-50t1 -48.5t3.5 -49.5t6.5 -43t10.5 -39t15 -28.5
t21 -21t28.5 -6.5q104 0 104 211q0 49 -2 79.5t-14.5 70t-36.5 66.5l22 18q54 -62 84.5 -117.5t30.5 -116.5z" />
    <glyph glyph-name="uni03D1" unicode="&#x3d1;" horiz-adv-x="572" 
d="M532 450q-24 -6 -50 -9q8 -45 8 -103q0 -68 -9.5 -127.5t-30.5 -112t-60 -82.5t-91 -30q-78 0 -135 47t-57 117q0 32 15.5 94t15.5 94q0 23 -0.5 35t-3 29.5t-8 25.5t-15.5 8q-19 0 -29 -16.5t-12 -34.5t-2 -47h-28q0 53 17 89.5t54 36.5q47 0 79 -37.5t32 -88.5
q0 -32 -12.5 -94.5t-12.5 -93.5q0 -55 28 -95.5t74 -40.5q18 0 33 7t25.5 23.5t18 32.5t12 44.5t7 49t4 56t1.5 55v56.5l-1 98q-71 4 -123.5 32.5t-67.5 83.5q-12 47 12.5 85.5t68.5 38.5q75 0 122 -57.5t66 -150.5q17 2 49 10zM397 465q-6 85 -30 134t-78 49
q-30 0 -46 -27.5t-7 -60.5q12 -46 56.5 -69.5t104.5 -25.5z" />
    <glyph glyph-name="uni03D5" unicode="&#x3d5;" horiz-adv-x="521" 
d="M481 234q0 -99 -58.5 -168t-147.5 -75v-241h-28v240q-90 5 -148.5 72t-58.5 164q0 98 55.5 162t145.5 71l-13 203h66l-14 -203q89 -7 145 -69.5t56 -155.5zM247 21v204l-5 207q-51 -2 -81.5 -45t-30.5 -112q0 -111 44 -193q27 -49 73 -61zM391 199q0 89 -30.5 151
t-81.5 78l-4 -203v-207q54 2 85 50t31 131z" />
    <glyph glyph-name="uni03D6" unicode="&#x3d6;" horiz-adv-x="694" 
d="M654 225q0 -97 -52.5 -168t-135.5 -71q-88 0 -125 102q-33 -102 -112 -102q-83 0 -136 71t-53 168q0 61 30.5 116.5t84.5 117.5l22 -18q-34 -39 -43.5 -90t-9.5 -126q0 -211 105 -211q78 0 97 129q-12 65 -12 157h66v-50t1 -48.5t3.5 -49.5t6.5 -43t10.5 -39t15 -28.5
t21 -21t28.5 -6.5q104 0 104 211q0 83 -19 152t-63.5 117t-109.5 48q-120 0 -232 -28l-7 28q121 28 239 28q121 0 198.5 -103t77.5 -242z" />
    <glyph glyph-name="uni03F1" unicode="&#x3f1;" horiz-adv-x="521" 
d="M481 -250h-28q0 41 -41.5 60t-99.5 17q-102 0 -108 1q-37 8 -65.5 27.5t-45.5 52t-28.5 66t-16.5 80.5t-6.5 84t-1.5 88q0 103 61.5 168.5t159.5 65.5q96 0 158 -64t62 -162q0 -104 -64 -174t-158 -70q-120 0 -183 102q27 -175 142 -198q7 -2 92 1q69 1 120 -41t51 -104z
M391 199q0 103 -40 168t-103 65q-53 0 -85.5 -43t-32.5 -114q0 -111 44 -193q34 -64 97 -64q56 0 88 48t32 133z" />
    <glyph glyph-name="uni03F5" unicode="&#x3f5;" horiz-adv-x="466" 
d="M426 46q-40 -60 -146 -60q-100 0 -170 74t-70 178q0 101 89 163.5t210 62.5h59v-28h-59q-85 0 -146.5 -56.5t-62.5 -137.5q23 -1 55.5 7.5t56.5 17t56 11.5t55 -10l-28 -59q-26 12 -59.5 12.5t-72.5 -4.5t-62 -4q6 -84 44.5 -141.5t104.5 -57.5q46 0 90 68z" />
    <glyph glyph-name="baht" unicode="&#xe3f;" horiz-adv-x="667" 
d="M593 180q0 -75 -56 -125q-60 -55 -186 -55h-1v-83h-28v83h-305v19q62 2 79 18t17 72v444q0 55 -16.5 70.5t-79.5 19.5v19h280h25v83h28v-85q209 -17 209 -168q0 -65 -40 -100q-32 -28 -97 -44q49 -12 74.5 -23.5t47.5 -31.5q49 -46 49 -113zM478 179q0 92 -84 127
q-20 8 -44 12v-276q40 6 67 21q61 35 61 116zM322 322q-36 4 -107 4v-248q0 -24 13 -32.5t50 -8.5q31 0 44 1v284zM457 488q0 104 -107 130v-249q52 8 79.5 39t27.5 80zM322 623q-26 2 -41 2h-44q-22 0 -22 -30v-229h95h12v257z" />
    <glyph glyph-name="Ddotbelow" unicode="&#x1e0c;" horiz-adv-x="722" 
d="M685 334q0 -152 -102 -245q-46 -42 -121 -65.5t-162 -23.5h-284v19q57 4 72.5 20t15.5 70v444q0 55 -14.5 70t-73.5 20v19h270q211 0 314 -105q85 -85 85 -223zM576 327q0 166 -119 248q-71 50 -199 50q-31 0 -41.5 -8t-10.5 -31v-508q0 -24 11 -32.5t41 -8.5
q124 0 196 41q122 71 122 249zM351 -140q0 -22 -14.5 -36.5t-36.5 -14.5q-21 0 -36 14.5t-15 36.5q0 21 15 36t36 15q22 0 36.5 -15t14.5 -36z" />
    <glyph glyph-name="ddotbelow" unicode="&#x1e0d;" 
d="M491 42l-147 -52l-4 3v64q-48 -67 -128 -67q-83 0 -134 59.5t-51 155.5q0 106 61 180.5t147 74.5q54 0 105 -43v156q0 31 -9 41t-37 10q-14 0 -22 -1v16q91 24 147 44l5 -2v-567q0 -35 8.5 -46t35.5 -11q5 0 23 1v-16zM340 102v230q0 40 -31 70t-71 30q-57 0 -91 -51
t-34 -136q0 -92 38 -147.5t100 -55.5q45 0 72 30q17 19 17 30zM301 -140q0 -22 -14.5 -36.5t-36.5 -14.5q-21 0 -36 14.5t-15 36.5q0 21 15 36t36 15q22 0 36.5 -15t14.5 -36z" />
    <glyph glyph-name="Dlinebelow" unicode="&#x1e0e;" horiz-adv-x="722" 
d="M685 334q0 -152 -102 -245q-46 -42 -121 -65.5t-162 -23.5h-284v19q57 4 72.5 20t15.5 70v444q0 55 -14.5 70t-73.5 20v19h270q211 0 314 -105q85 -85 85 -223zM576 327q0 166 -119 248q-71 50 -199 50q-31 0 -41.5 -8t-10.5 -31v-508q0 -24 11 -32.5t41 -8.5
q124 0 196 41q122 71 122 249zM456 -167h-311v54h311v-54z" />
    <glyph glyph-name="dlinebelow" unicode="&#x1e0f;" 
d="M491 42l-147 -52l-4 3v64q-48 -67 -128 -67q-83 0 -134 59.5t-51 155.5q0 106 61 180.5t147 74.5q54 0 105 -43v156q0 31 -9 41t-37 10q-14 0 -22 -1v16q91 24 147 44l5 -2v-567q0 -35 8.5 -46t35.5 -11q5 0 23 1v-16zM340 102v230q0 40 -31 70t-71 30q-57 0 -91 -51
t-34 -136q0 -92 38 -147.5t100 -55.5q45 0 72 30q17 19 17 30zM406 -167h-311v54h311v-54z" />
    <glyph glyph-name="Hdotbelow" unicode="&#x1e24;" horiz-adv-x="722" 
d="M702 0h-278v19q58 4 73 21t15 80v195h-303v-206q0 -53 16 -69t72 -21v-19h-278v19q58 4 73 21t15 80v433q0 54 -15 69.5t-73 20.5v19h278v-19q-58 -5 -73 -20.5t-15 -69.5v-194h303v194q0 54 -15 69.5t-73 20.5v19h278v-19q-58 -5 -73 -20.5t-15 -69.5v-444q0 -53 16 -69
t72 -21v-19zM411 -140q0 -22 -14.5 -36.5t-36.5 -14.5q-21 0 -36 14.5t-15 36.5q0 21 15 36t36 15q22 0 36.5 -15t14.5 -36z" />
    <glyph glyph-name="hdotbelow" unicode="&#x1e25;" 
d="M487 0h-212v15q43 4 55.5 20t12.5 67v198q0 106 -75 106q-29 0 -54.5 -14.5t-56.5 -48.5v-241q0 -52 12 -67t56 -20v-15h-216v15q43 6 53.5 20t10.5 67v471q0 32 -9.5 41.5t-41.5 9.5q-8 0 -12 -1v16l27 8q68 19 115 36l5 -3v-304q35 45 69 64.5t78 19.5q123 0 123 -159
v-199q0 -52 9.5 -65.5t50.5 -21.5v-15zM299 -140q0 -22 -14.5 -36.5t-36.5 -14.5q-21 0 -36 14.5t-15 36.5q0 21 15 36t36 15q22 0 36.5 -15t14.5 -36z" />
    <glyph glyph-name="Hdieresis" unicode="&#x1e26;" horiz-adv-x="722" 
d="M702 0h-278v19q58 4 73 21t15 80v195h-303v-206q0 -53 16 -69t72 -21v-19h-278v19q58 4 73 21t15 80v433q0 54 -15 69.5t-73 20.5v19h278v-19q-58 -5 -73 -20.5t-15 -69.5v-194h303v194q0 54 -15 69.5t-73 20.5v19h278v-19q-58 -5 -73 -20.5t-15 -69.5v-444q0 -53 16 -69
t72 -21v-19zM311 782q0 -20 -15 -34.5t-36 -14.5q-20 0 -34 14.5t-14 35.5q0 19 14.5 34t33.5 15q21 0 36 -15t15 -35zM510 782q0 -20 -15 -34.5t-36 -14.5q-20 0 -34 14.5t-14 35.5q0 19 14.5 34t33.5 15q21 0 36 -15t15 -35z" />
    <glyph glyph-name="hdieresis" unicode="&#x1e27;" 
d="M487 0h-212v15q43 4 55.5 20t12.5 67v198q0 106 -75 106q-29 0 -54.5 -14.5t-56.5 -48.5v-241q0 -52 12 -67t56 -20v-15h-216v15q43 6 53.5 20t10.5 67v471q0 32 -9.5 41.5t-41.5 9.5q-8 0 -12 -1v16l27 8q68 19 115 36l5 -3v-304q35 45 69 64.5t78 19.5q123 0 123 -159
v-199q0 -52 9.5 -65.5t50.5 -21.5v-15zM201 803q0 -20 -15 -34.5t-36 -14.5q-20 0 -34 14.5t-14 35.5q0 19 14.5 34t33.5 15q21 0 36 -15t15 -35zM400 803q0 -20 -15 -34.5t-36 -14.5q-20 0 -34 14.5t-14 35.5q0 19 14.5 34t33.5 15q21 0 36 -15t15 -35z" />
    <glyph glyph-name="Hbrevebelow" unicode="&#x1e2a;" horiz-adv-x="722" 
d="M702 0h-278v19q58 4 73 21t15 80v195h-303v-206q0 -53 16 -69t72 -21v-19h-278v19q58 4 73 21t15 80v433q0 54 -15 69.5t-73 20.5v19h278v-19q-58 -5 -73 -20.5t-15 -69.5v-194h303v194q0 54 -15 69.5t-73 20.5v19h278v-19q-58 -5 -73 -20.5t-15 -69.5v-444q0 -53 16 -69
t72 -21v-19zM517 -71q0 -55 -44 -96.5t-112 -41.5t-112 41.5t-44 96.5h26q23 -82 130 -82t130 82h26z" />
    <glyph glyph-name="hbrevebelow" unicode="&#x1e2b;" 
d="M487 0h-212v15q43 4 55.5 20t12.5 67v198q0 106 -75 106q-29 0 -54.5 -14.5t-56.5 -48.5v-241q0 -52 12 -67t56 -20v-15h-216v15q43 6 53.5 20t10.5 67v471q0 32 -9.5 41.5t-41.5 9.5q-8 0 -12 -1v16l27 8q68 19 115 36l5 -3v-304q35 45 69 64.5t78 19.5q123 0 123 -159
v-199q0 -52 9.5 -65.5t50.5 -21.5v-15zM405 -71q0 -55 -44 -96.5t-112 -41.5t-112 41.5t-44 96.5h26q23 -82 130 -82t130 82h26z" />
    <glyph glyph-name="Idieresisacute" unicode="&#x1e2e;" horiz-adv-x="333" 
d="M315 0h-297v19q63 2 80 18t17 72v444q0 55 -16.5 70.5t-80.5 19.5v19h297v-19q-63 -3 -80.5 -19t-17.5 -71v-444q0 -55 18 -71.5t80 -18.5v-19zM117 782q0 -20 -15 -34.5t-36 -14.5q-20 0 -34 14.5t-14 35.5q0 19 14.5 34t33.5 15q21 0 36 -15t15 -35zM316 782
q0 -20 -15 -34.5t-36 -14.5q-20 0 -34 14.5t-14 35.5q0 19 14.5 34t33.5 15q21 0 36 -15t15 -35zM321 995q0 -20 -32 -33l-167 -80h-43l158 120q25 19 46 19q38 0 38 -26z" />
    <glyph glyph-name="idieresisacute" unicode="&#x1e2f;" horiz-adv-x="278" 
d="M253 0h-237v15q52 3 65.5 18t13.5 69v232q0 33 -7.5 46.5t-25.5 13.5q-16 0 -34 -3l-8 -1v15l155 55l4 -3v-355q0 -54 12.5 -68.5t61.5 -18.5v-15zM88 590q0 -20 -15 -34.5t-36 -14.5q-20 0 -34 14.5t-14 35.5q0 19 14.5 34t33.5 15q21 0 36 -15t15 -35zM287 590
q0 -20 -15 -34.5t-36 -14.5q-20 0 -34 14.5t-14 35.5q0 19 14.5 34t33.5 15q21 0 36 -15t15 -35zM292 785q0 -20 -32 -33l-167 -80h-43l158 120q25 19 46 19q38 0 38 -26z" />
    <glyph glyph-name="Ldotbelow" unicode="&#x1e36;" horiz-adv-x="611" 
d="M598 174l-48 -174h-538v19q55 4 71 20.5t16 69.5v444q0 53 -15.5 69t-71.5 21v19h282v-19q-59 -4 -76 -20.5t-17 -69.5v-473q0 -26 15.5 -33.5t70.5 -7.5h67q125 0 176 61q19 22 43 74h25zM356 -140q0 -22 -14.5 -36.5t-36.5 -14.5q-21 0 -36 14.5t-15 36.5q0 21 15 36
t36 15q22 0 36.5 -15t14.5 -36z" />
    <glyph glyph-name="ldotbelow" unicode="&#x1e37;" horiz-adv-x="278" 
d="M257 0h-236v15q47 4 62 18t15 54v477q0 35 -9 48t-33 13q-9 0 -31 -2h-6v16q99 24 159 44l4 -2v-597q0 -41 13.5 -53.5t61.5 -15.5v-15zM191 -140q0 -22 -14.5 -36.5t-36.5 -14.5q-21 0 -36 14.5t-15 36.5q0 21 15 36t36 15q22 0 36.5 -15t14.5 -36z" />
    <glyph glyph-name="Ldotbelowmacron" unicode="&#x1e38;" horiz-adv-x="611" 
d="M598 174l-48 -174h-538v19q55 4 71 20.5t16 69.5v444q0 53 -15.5 69t-71.5 21v19h282v-19q-59 -4 -76 -20.5t-17 -69.5v-473q0 -26 15.5 -33.5t70.5 -7.5h67q125 0 176 61q19 22 43 74h25zM356 -140q0 -22 -14.5 -36.5t-36.5 -14.5q-21 0 -36 14.5t-15 36.5q0 21 15 36
t36 15q22 0 36.5 -15t14.5 -36zM309 755h-311v54h311v-54z" />
    <glyph glyph-name="ldotbelowmacron" unicode="&#x1e39;" horiz-adv-x="278" 
d="M257 0h-236v15q47 4 62 18t15 54v477q0 35 -9 48t-33 13q-9 0 -31 -2h-6v16q99 24 159 44l4 -2v-597q0 -41 13.5 -53.5t61.5 -15.5v-15zM191 -140q0 -22 -14.5 -36.5t-36.5 -14.5q-21 0 -36 14.5t-15 36.5q0 21 15 36t36 15q22 0 36.5 -15t14.5 -36zM295 776h-311v54h311
v-54z" />
    <glyph glyph-name="Mdotbelow" unicode="&#x1e42;" horiz-adv-x="889" 
d="M863 0h-280v19q59 4 75 21.5t16 79.5v453l-256 -573h-14l-251 550v-403q0 -76 18 -100.5t76 -27.5v-19h-235v19q62 4 79.5 27.5t17.5 100.5v406q0 55 -16.5 70.5t-78.5 19.5v19h198l231 -505l221 505h199v-19q-56 -5 -71.5 -21t-15.5 -69v-444q0 -53 16 -69.5t71 -20.5
v-19zM495 -140q0 -22 -14.5 -36.5t-36.5 -14.5q-21 0 -36 14.5t-15 36.5q0 21 15 36t36 15q22 0 36.5 -15t14.5 -36z" />
    <glyph glyph-name="mdotbelow" unicode="&#x1e43;" horiz-adv-x="778" 
d="M775 0h-219v15q44 5 55 17t11 55v211q0 62 -16 86t-59 24q-66 0 -109 -61v-252q0 -47 14.5 -63t57.5 -17v-15h-224v15q43 3 55.5 16t12.5 55v217q0 105 -66 105q-26 0 -55 -11.5t-48 -28.5l-15 -19v-282q0 -29 14 -39.5t54 -12.5v-15h-222v15q42 1 56 15t14 55v253
q0 36 -7.5 50t-27.5 14q-15 0 -32 -4v17q72 20 140 45l7 -2v-75q62 47 92 62t63 15q79 0 106 -84q78 84 163 84q116 0 116 -178v-206q0 -56 43 -59l26 -2v-15zM440 -140q0 -22 -14.5 -36.5t-36.5 -14.5q-21 0 -36 14.5t-15 36.5q0 21 15 36t36 15q22 0 36.5 -15t14.5 -36z
" />
    <glyph glyph-name="Ndotaccent" unicode="&#x1e44;" horiz-adv-x="722" 
d="M707 643q-48 -5 -66 -18q-29 -20 -29 -110v-526h-17l-442 550v-392q0 -76 18 -100.5t76 -27.5v-19h-235v19q62 4 79.5 27.5t17.5 100.5v441q-30 35 -47.5 45t-49.5 10v19h171l385 -484v337q0 92 -29 112q-21 12 -67 16v19h235v-19zM411 782q0 -22 -14.5 -36.5
t-36.5 -14.5q-21 0 -36 14.5t-15 36.5q0 21 15 36t36 15q22 0 36.5 -15t14.5 -36z" />
    <glyph glyph-name="ndotaccent" unicode="&#x1e45;" 
d="M485 0h-208v15q38 3 50.5 20t12.5 64v209q0 97 -73 97q-25 0 -46 -11.5t-57 -45.5v-281q0 -27 14 -38t52 -14v-15h-212v15q38 3 50 17.5t12 57.5v248q0 37 -8 50.5t-29 13.5q-19 0 -27 -4v17q74 22 138 45l7 -2v-79q51 48 80.5 64.5t64.5 16.5q55 0 86.5 -39.5
t31.5 -110.5v-229q0 -37 12 -49.5t49 -16.5v-15zM303 590q0 -22 -14.5 -36.5t-36.5 -14.5q-21 0 -36 14.5t-15 36.5q0 21 15 36t36 15q22 0 36.5 -15t14.5 -36z" />
    <glyph glyph-name="Ndotbelow" unicode="&#x1e46;" horiz-adv-x="722" 
d="M707 643q-48 -5 -66 -18q-29 -20 -29 -110v-526h-17l-442 550v-392q0 -76 18 -100.5t76 -27.5v-19h-235v19q62 4 79.5 27.5t17.5 100.5v441q-30 35 -47.5 45t-49.5 10v19h171l385 -484v337q0 92 -29 112q-21 12 -67 16v19h235v-19zM411 -140q0 -22 -14.5 -36.5
t-36.5 -14.5q-21 0 -36 14.5t-15 36.5q0 21 15 36t36 15q22 0 36.5 -15t14.5 -36z" />
    <glyph glyph-name="ndotbelow" unicode="&#x1e47;" 
d="M485 0h-208v15q38 3 50.5 20t12.5 64v209q0 97 -73 97q-25 0 -46 -11.5t-57 -45.5v-281q0 -27 14 -38t52 -14v-15h-212v15q38 3 50 17.5t12 57.5v248q0 37 -8 50.5t-29 13.5q-19 0 -27 -4v17q74 22 138 45l7 -2v-79q51 48 80.5 64.5t64.5 16.5q55 0 86.5 -39.5
t31.5 -110.5v-229q0 -37 12 -49.5t49 -16.5v-15zM303 -140q0 -22 -14.5 -36.5t-36.5 -14.5q-21 0 -36 14.5t-15 36.5q0 21 15 36t36 15q22 0 36.5 -15t14.5 -36z" />
    <glyph glyph-name="Rdotaccent" unicode="&#x1e58;" horiz-adv-x="667" 
d="M659 0h-161l-238 308l-56 -2v-197q0 -54 16 -70t74 -20v-19h-277v19q56 4 70.5 21.5t14.5 79.5v433q0 53 -14.5 68.5t-70.5 21.5v19h276q70 0 128 -18t87 -49q39 -44 39 -109q0 -74 -51 -115q-43 -35 -130 -52l206 -253q21 -25 39.5 -35t47.5 -12v-19zM438 488
q0 70 -44.5 103.5t-138.5 33.5q-30 0 -40.5 -7.5t-10.5 -28.5v-246q73 2 108 8.5t69 25.5q57 30 57 111zM345 782q0 -22 -14.5 -36.5t-36.5 -14.5q-21 0 -36 14.5t-15 36.5q0 21 15 36t36 15q22 0 36.5 -15t14.5 -36z" />
    <glyph glyph-name="rdotaccent" unicode="&#x1e59;" horiz-adv-x="333" 
d="M335 407q0 -21 -10.5 -33t-28.5 -12q-17 0 -40 20q-16 15 -26 15q-20 0 -45 -29t-25 -53v-225q0 -43 17 -58t68 -17v-15h-240v15q48 9 59.5 20t11.5 49v250q0 33 -7.5 46.5t-26.5 13.5q-16 0 -35 -4v16q80 26 148 54l5 -2v-92q37 53 63 73.5t57 20.5q26 0 40.5 -14
t14.5 -39zM211 590q0 -22 -14.5 -36.5t-36.5 -14.5q-21 0 -36 14.5t-15 36.5q0 21 15 36t36 15q22 0 36.5 -15t14.5 -36z" />
    <glyph glyph-name="Rdotbelow" unicode="&#x1e5a;" horiz-adv-x="667" 
d="M659 0h-161l-238 308l-56 -2v-197q0 -54 16 -70t74 -20v-19h-277v19q56 4 70.5 21.5t14.5 79.5v433q0 53 -14.5 68.5t-70.5 21.5v19h276q70 0 128 -18t87 -49q39 -44 39 -109q0 -74 -51 -115q-43 -35 -130 -52l206 -253q21 -25 39.5 -35t47.5 -12v-19zM438 488
q0 70 -44.5 103.5t-138.5 33.5q-30 0 -40.5 -7.5t-10.5 -28.5v-246q73 2 108 8.5t69 25.5q57 30 57 111zM345 -140q0 -22 -14.5 -36.5t-36.5 -14.5q-21 0 -36 14.5t-15 36.5q0 21 15 36t36 15q22 0 36.5 -15t14.5 -36z" />
    <glyph glyph-name="rdotbelow" unicode="&#x1e5b;" horiz-adv-x="333" 
d="M335 407q0 -21 -10.5 -33t-28.5 -12q-17 0 -40 20q-16 15 -26 15q-20 0 -45 -29t-25 -53v-225q0 -43 17 -58t68 -17v-15h-240v15q48 9 59.5 20t11.5 49v250q0 33 -7.5 46.5t-26.5 13.5q-16 0 -35 -4v16q80 26 148 54l5 -2v-92q37 53 63 73.5t57 20.5q26 0 40.5 -14
t14.5 -39zM176 -140q0 -22 -14.5 -36.5t-36.5 -14.5q-21 0 -36 14.5t-15 36.5q0 21 15 36t36 15q22 0 36.5 -15t14.5 -36z" />
    <glyph glyph-name="Rdotbelowmacron" unicode="&#x1e5c;" horiz-adv-x="667" 
d="M659 0h-161l-238 308l-56 -2v-197q0 -54 16 -70t74 -20v-19h-277v19q56 4 70.5 21.5t14.5 79.5v433q0 53 -14.5 68.5t-70.5 21.5v19h276q70 0 128 -18t87 -49q39 -44 39 -109q0 -74 -51 -115q-43 -35 -130 -52l206 -253q21 -25 39.5 -35t47.5 -12v-19zM438 488
q0 70 -44.5 103.5t-138.5 33.5q-30 0 -40.5 -7.5t-10.5 -28.5v-246q73 2 108 8.5t69 25.5q57 30 57 111zM345 -140q0 -22 -14.5 -36.5t-36.5 -14.5q-21 0 -36 14.5t-15 36.5q0 21 15 36t36 15q22 0 36.5 -15t14.5 -36zM450 755h-311v54h311v-54z" />
    <glyph glyph-name="rdotbelowmacron" unicode="&#x1e5d;" horiz-adv-x="333" 
d="M335 407q0 -21 -10.5 -33t-28.5 -12q-17 0 -40 20q-16 15 -26 15q-20 0 -45 -29t-25 -53v-225q0 -43 17 -58t68 -17v-15h-240v15q48 9 59.5 20t11.5 49v250q0 33 -7.5 46.5t-26.5 13.5q-16 0 -35 -4v16q80 26 148 54l5 -2v-92q37 53 63 73.5t57 20.5q26 0 40.5 -14
t14.5 -39zM176 -140q0 -22 -14.5 -36.5t-36.5 -14.5q-21 0 -36 14.5t-15 36.5q0 21 15 36t36 15q22 0 36.5 -15t14.5 -36zM316 573h-311v54h311v-54z" />
    <glyph glyph-name="Sdotbelow" unicode="&#x1e62;" horiz-adv-x="556" 
d="M491 168q0 -77 -58.5 -129.5t-145.5 -52.5q-60 0 -118 23q-30 11 -47 11q-11 0 -19 -9.5t-9 -23.5h-22l-30 212h23q38 -92 86.5 -134.5t115.5 -42.5q55 0 89 31t34 81q0 37 -14 59q-37 56 -149 117q-84 44 -120 89t-36 105q0 82 58 130q52 42 113 42q50 0 108 -22
q27 -12 44 -12q26 0 32 34h21l22 -213h-25q-20 75 -61 117q-53 55 -122 55q-47 0 -75.5 -25.5t-28.5 -66.5t34 -77t113 -79q99 -54 143 -105.5t44 -113.5zM312 -140q0 -22 -14.5 -36.5t-36.5 -14.5q-21 0 -36 14.5t-15 36.5q0 21 15 36t36 15q22 0 36.5 -15t14.5 -36z" />
    <glyph glyph-name="sdotbelow" unicode="&#x1e63;" horiz-adv-x="389" 
d="M348 118q0 -52 -41.5 -90t-98.5 -38q-27 0 -74 10q-32 8 -46 8q-15 0 -23 -12h-13v156h16q17 -76 46 -108t81 -32q38 0 60.5 19.5t22.5 52.5q0 45 -52 75l-58 33q-64 37 -90.5 69.5t-26.5 74.5q0 55 38.5 89t99.5 34q37 0 68 -12q15 -7 27 -7q4 0 14 8l2 2h11l4 -136h-15
q-17 67 -42 95t-68 28q-35 0 -56 -18.5t-21 -49.5q0 -43 43 -68l108 -64q46 -27 65 -54t19 -65zM240 -140q0 -22 -14.5 -36.5t-36.5 -14.5q-21 0 -36 14.5t-15 36.5q0 21 15 36t36 15q22 0 36.5 -15t14.5 -36z" />
    <glyph glyph-name="Tdotbelow" unicode="&#x1e6c;" horiz-adv-x="611" 
d="M593 492h-24q-17 83 -45.5 105.5t-113.5 22.5h-54v-511q0 -55 17 -71t79 -19v-19h-292v19q62 4 78 20.5t16 80.5v500h-54q-84 0 -112.5 -23t-46.5 -105h-24l6 170h564zM356 -140q0 -22 -14.5 -36.5t-36.5 -14.5q-21 0 -36 14.5t-15 36.5q0 21 15 36t36 15q22 0 36.5 -15
t14.5 -36z" />
    <glyph glyph-name="tdotbelow" unicode="&#x1e6d;" horiz-adv-x="278" 
d="M279 66q-48 -76 -121 -76q-88 0 -88 127v301h-53q-4 3 -4 7q0 8 17 19q41 24 97 107q14 18 20 28q7 0 7 -13v-116h101v-32h-101v-286q0 -48 12 -69t40 -21q30 0 60 35zM205 -140q0 -22 -14.5 -36.5t-36.5 -14.5q-21 0 -36 14.5t-15 36.5q0 21 15 36t36 15q22 0 36.5 -15
t14.5 -36z" />
    <glyph glyph-name="Tlinebelow" unicode="&#x1e6e;" horiz-adv-x="611" 
d="M593 492h-24q-17 83 -45.5 105.5t-113.5 22.5h-54v-511q0 -55 17 -71t79 -19v-19h-292v19q62 4 78 20.5t16 80.5v500h-54q-84 0 -112.5 -23t-46.5 -105h-24l6 170h564zM461 -167h-311v54h311v-54z" />
    <glyph glyph-name="tlinebelow" unicode="&#x1e6f;" horiz-adv-x="278" 
d="M279 66q-48 -76 -121 -76q-88 0 -88 127v301h-53q-4 3 -4 7q0 8 17 19q41 24 97 107q14 18 20 28q7 0 7 -13v-116h101v-32h-101v-286q0 -48 12 -69t40 -21q30 0 60 35zM310 -167h-311v54h311v-54z" />
    <glyph glyph-name="Wgrave" unicode="&#x1e80;" horiz-adv-x="944" 
d="M932 643q-40 -8 -54.5 -20t-28.5 -51l-204 -583h-15l-160 423l-154 -423h-15l-193 537q-28 71 -46.5 92t-56.5 25v19h245v-19q-38 -2 -51.5 -8.5t-13.5 -23.5q0 -18 11 -46l144 -376l107 282l-33 82q-26 60 -42 74.5t-59 15.5v19h267v-19q-77 -1 -77 -35q0 -16 15 -51
l12 -30l132 -341l125 339q16 45 16 75q0 20 -15.5 29.5t-53.5 13.5v19h198v-19zM558 712h-43l-167 80q-32 13 -32 33q0 26 38 26q21 0 46 -19z" />
    <glyph glyph-name="wgrave" unicode="&#x1e81;" horiz-adv-x="722" 
d="M694 435q-15 -5 -21 -13.5t-20 -40.5l-138 -346q-20 -49 -28 -49t-24 43l-91 236l-112 -240q-18 -39 -25 -39q-8 0 -26 44l-135 342q-17 38 -26.5 50t-26.5 13v15h180v-15q-26 -3 -36 -10t-10 -23q0 -15 6 -30l99 -261l91 199l-20 56q-15 40 -28 53t-41 16v15h203v-15
q-35 -5 -46.5 -12t-11.5 -24q0 -13 17 -59l84 -224l90 222q17 42 17 66q0 13 -9 19.5t-35 11.5v15h123v-15zM437 504h-40l-154 97q-30 19 -30 42q0 32 35 32q19 0 42 -23z" />
    <glyph glyph-name="Wacute" unicode="&#x1e82;" horiz-adv-x="944" 
d="M932 643q-40 -8 -54.5 -20t-28.5 -51l-204 -583h-15l-160 423l-154 -423h-15l-193 537q-28 71 -46.5 92t-56.5 25v19h245v-19q-38 -2 -51.5 -8.5t-13.5 -23.5q0 -18 11 -46l144 -376l107 282l-33 82q-26 60 -42 74.5t-59 15.5v19h267v-19q-77 -1 -77 -35q0 -16 15 -51
l12 -30l132 -341l125 339q16 45 16 75q0 20 -15.5 29.5t-53.5 13.5v19h198v-19zM625 825q0 -20 -32 -33l-167 -80h-43l158 120q25 19 46 19q38 0 38 -26z" />
    <glyph glyph-name="wacute" unicode="&#x1e83;" horiz-adv-x="722" 
d="M694 435q-15 -5 -21 -13.5t-20 -40.5l-138 -346q-20 -49 -28 -49t-24 43l-91 236l-112 -240q-18 -39 -25 -39q-8 0 -26 44l-135 342q-17 38 -26.5 50t-26.5 13v15h180v-15q-26 -3 -36 -10t-10 -23q0 -15 6 -30l99 -261l91 199l-20 56q-15 40 -28 53t-41 16v15h203v-15
q-35 -5 -46.5 -12t-11.5 -24q0 -13 17 -59l84 -224l90 222q17 42 17 66q0 13 -9 19.5t-35 11.5v15h123v-15zM514 643q0 -23 -30 -42l-154 -97h-40l147 148q23 23 42 23q35 0 35 -32z" />
    <glyph glyph-name="Wdieresis" unicode="&#x1e84;" horiz-adv-x="944" 
d="M932 643q-40 -8 -54.5 -20t-28.5 -51l-204 -583h-15l-160 423l-154 -423h-15l-193 537q-28 71 -46.5 92t-56.5 25v19h245v-19q-38 -2 -51.5 -8.5t-13.5 -23.5q0 -18 11 -46l144 -376l107 282l-33 82q-26 60 -42 74.5t-59 15.5v19h267v-19q-77 -1 -77 -35q0 -16 15 -51
l12 -30l132 -341l125 339q16 45 16 75q0 20 -15.5 29.5t-53.5 13.5v19h198v-19zM421 782q0 -20 -15 -34.5t-36 -14.5q-20 0 -34 14.5t-14 35.5q0 19 14.5 34t33.5 15q21 0 36 -15t15 -35zM620 782q0 -20 -15 -34.5t-36 -14.5q-20 0 -34 14.5t-14 35.5q0 19 14.5 34t33.5 15
q21 0 36 -15t15 -35z" />
    <glyph glyph-name="wdieresis" unicode="&#x1e85;" horiz-adv-x="722" 
d="M694 435q-15 -5 -21 -13.5t-20 -40.5l-138 -346q-20 -49 -28 -49t-24 43l-91 236l-112 -240q-18 -39 -25 -39q-8 0 -26 44l-135 342q-17 38 -26.5 50t-26.5 13v15h180v-15q-26 -3 -36 -10t-10 -23q0 -15 6 -30l99 -261l91 199l-20 56q-15 40 -28 53t-41 16v15h203v-15
q-35 -5 -46.5 -12t-11.5 -24q0 -13 17 -59l84 -224l90 222q17 42 17 66q0 13 -9 19.5t-35 11.5v15h123v-15zM314 590q0 -20 -15 -34.5t-36 -14.5q-20 0 -34 14.5t-14 35.5q0 19 14.5 34t33.5 15q21 0 36 -15t15 -35zM513 590q0 -20 -15 -34.5t-36 -14.5q-20 0 -34 14.5
t-14 35.5q0 19 14.5 34t33.5 15q21 0 36 -15t15 -35z" />
    <glyph glyph-name="Zdotbelow" unicode="&#x1e92;" horiz-adv-x="611" 
d="M597 176l-24 -176h-564v15l437 609h-221q-100 0 -134 -43q-23 -28 -34 -90h-26l20 171h526v-15l-432 -609h257q88 0 125 39q25 28 47 99h23zM365 -140q0 -22 -14.5 -36.5t-36.5 -14.5q-21 0 -36 14.5t-15 36.5q0 21 15 36t36 15q22 0 36.5 -15t14.5 -36z" />
    <glyph glyph-name="zdotbelow" unicode="&#x1e93;" horiz-adv-x="444" 
d="M418 135l-14 -135h-377v15l266 405h-138q-45 0 -61 -16.5t-23 -71.5h-18l3 118h347v-15l-269 -405h138q78 0 99 26q17 22 29 83zM280 -140q0 -22 -14.5 -36.5t-36.5 -14.5q-21 0 -36 14.5t-15 36.5q0 21 15 36t36 15q22 0 36.5 -15t14.5 -36z" />
    <glyph glyph-name="tdieresis" unicode="&#x1e97;" horiz-adv-x="278" 
d="M279 66q-48 -76 -121 -76q-88 0 -88 127v301h-53q-4 3 -4 7q0 8 17 19q41 24 97 107q14 18 20 28q7 0 7 -13v-116h101v-32h-101v-286q0 -48 12 -69t40 -21q30 0 60 35zM91 699q0 -20 -15 -34.5t-36 -14.5q-20 0 -34 14.5t-14 35.5q0 19 14.5 34t33.5 15q21 0 36 -15
t15 -35zM290 699q0 -20 -15 -34.5t-36 -14.5q-20 0 -34 14.5t-14 35.5q0 19 14.5 34t33.5 15q21 0 36 -15t15 -35z" />
    <glyph glyph-name="Adotbelow" unicode="&#x1ea0;" horiz-adv-x="722" 
d="M706 0h-255v19q41 0 56 9q14 7 14 24q0 24 -19 68l-41 96h-262l-46 -117q-8 -21 -8 -39q0 -41 68 -41v-19h-198v19q36 2 56 28.5t68 135.5l208 491h20l249 -568q26 -56 41 -70.5t49 -16.5v-19zM447 257l-116 275l-115 -275h231zM412 -140q0 -22 -14.5 -36.5t-36.5 -14.5
q-21 0 -36 14.5t-15 36.5q0 21 15 36t36 15q22 0 36.5 -15t14.5 -36z" />
    <glyph glyph-name="adotbelow" unicode="&#x1ea1;" horiz-adv-x="444" 
d="M442 40q-26 -29 -45.5 -39.5t-44.5 -10.5q-31 0 -45.5 16.5t-18.5 56.5q-86 -73 -146 -73q-46 0 -75.5 30t-29.5 77q0 54 36 87q32 28 64.5 44.5t149.5 63.5v61q0 83 -76 83q-30 0 -51 -14.5t-21 -34.5q0 -11 3 -24q2 -14 2 -16q0 -17 -13.5 -29.5t-31.5 -12.5t-30.5 13
t-12.5 30q0 41 41 75q45 37 127 37q93 0 125 -58q19 -31 19 -102v-195q0 -33 6.5 -45.5t23.5 -12.5q21 0 44 19v-26zM287 123v145q-90 -33 -126 -64t-36 -75v-4q0 -32 18.5 -54.5t44.5 -22.5q35 0 73 22q16 10 21 20t5 33zM275 -140q0 -22 -14.5 -36.5t-36.5 -14.5
q-21 0 -36 14.5t-15 36.5q0 21 15 36t36 15q22 0 36.5 -15t14.5 -36z" />
    <glyph glyph-name="Ahookabove" unicode="&#x1ea2;" horiz-adv-x="722" 
d="M706 0h-255v19q41 0 56 9q14 7 14 24q0 24 -19 68l-41 96h-262l-46 -117q-8 -21 -8 -39q0 -41 68 -41v-19h-198v19q36 2 56 28.5t68 135.5l208 491h20l249 -568q26 -56 41 -70.5t49 -16.5v-19zM447 257l-116 275l-115 -275h231zM456 838q0 -26 -42 -59q-37 -29 -42 -40
q-6 -10 -10 -30h-23q1 34 33 79q23 26 23 47q0 42 -50 42q-23 0 -35 -10q-6 -3 -6 -8q0 -1 8.5 -13t8.5 -16q0 -19 -28 -19q-34 0 -34 32q0 23 27.5 38t69.5 15q54 0 80 -22q20 -18 20 -36z" />
    <glyph glyph-name="ahookabove" unicode="&#x1ea3;" horiz-adv-x="444" 
d="M442 40q-26 -29 -45.5 -39.5t-44.5 -10.5q-31 0 -45.5 16.5t-18.5 56.5q-86 -73 -146 -73q-46 0 -75.5 30t-29.5 77q0 54 36 87q32 28 64.5 44.5t149.5 63.5v61q0 83 -76 83q-30 0 -51 -14.5t-21 -34.5q0 -11 3 -24q2 -14 2 -16q0 -17 -13.5 -29.5t-31.5 -12.5t-30.5 13
t-12.5 30q0 41 41 75q45 37 127 37q93 0 125 -58q19 -31 19 -102v-195q0 -33 6.5 -45.5t23.5 -12.5q21 0 44 19v-26zM287 123v145q-90 -33 -126 -64t-36 -75v-4q0 -32 18.5 -54.5t44.5 -22.5q35 0 73 22q16 10 21 20t5 33zM323 626q0 -26 -42 -59q-37 -29 -42 -40
q-6 -10 -10 -30h-23q1 34 33 79q23 26 23 47q0 42 -50 42q-23 0 -35 -10q-6 -3 -6 -8q0 -1 8.5 -13t8.5 -16q0 -19 -28 -19q-34 0 -34 32q0 23 27.5 38t69.5 15q54 0 80 -22q20 -18 20 -36z" />
    <glyph glyph-name="Acircumflexacute" unicode="&#x1ea4;" horiz-adv-x="722" 
d="M706 0h-255v19q41 0 56 9q14 7 14 24q0 24 -19 68l-41 96h-262l-46 -117q-8 -21 -8 -39q0 -41 68 -41v-19h-198v19q36 2 56 28.5t68 135.5l208 491h20l249 -568q26 -56 41 -70.5t49 -16.5v-19zM447 257l-116 275l-115 -275h231zM492 980q0 -20 -32 -33l-167 -80h-43
l158 120q25 19 46 19q38 0 38 -26zM531 718h-48l-125 79l-125 -79h-48l134 129h77z" />
    <glyph glyph-name="acircumflexacute" unicode="&#x1ea5;" horiz-adv-x="444" 
d="M442 40q-26 -29 -45.5 -39.5t-44.5 -10.5q-31 0 -45.5 16.5t-18.5 56.5q-86 -73 -146 -73q-46 0 -75.5 30t-29.5 77q0 54 36 87q32 28 64.5 44.5t149.5 63.5v61q0 83 -76 83q-30 0 -51 -14.5t-21 -34.5q0 -11 3 -24q2 -14 2 -16q0 -17 -13.5 -29.5t-31.5 -12.5t-30.5 13
t-12.5 30q0 41 41 75q45 37 127 37q93 0 125 -58q19 -31 19 -102v-195q0 -33 6.5 -45.5t23.5 -12.5q21 0 44 19v-26zM287 123v145q-90 -33 -126 -64t-36 -75v-4q0 -32 18.5 -54.5t44.5 -22.5q35 0 73 22q16 10 21 20t5 33zM359 768q0 -20 -32 -33l-167 -80h-43l158 120
q25 19 46 19q38 0 38 -26zM398 506h-48l-125 79l-125 -79h-48l134 129h77z" />
    <glyph glyph-name="Acircumflexgrave" unicode="&#x1ea6;" horiz-adv-x="722" 
d="M706 0h-255v19q41 0 56 9q14 7 14 24q0 24 -19 68l-41 96h-262l-46 -117q-8 -21 -8 -39q0 -41 68 -41v-19h-198v19q36 2 56 28.5t68 135.5l208 491h20l249 -568q26 -56 41 -70.5t49 -16.5v-19zM447 257l-116 275l-115 -275h231zM465 867h-43l-167 80q-32 13 -32 33
q0 26 38 26q21 0 46 -19zM531 718h-48l-125 79l-125 -79h-48l134 129h77z" />
    <glyph glyph-name="acircumflexgrave" unicode="&#x1ea7;" horiz-adv-x="444" 
d="M442 40q-26 -29 -45.5 -39.5t-44.5 -10.5q-31 0 -45.5 16.5t-18.5 56.5q-86 -73 -146 -73q-46 0 -75.5 30t-29.5 77q0 54 36 87q32 28 64.5 44.5t149.5 63.5v61q0 83 -76 83q-30 0 -51 -14.5t-21 -34.5q0 -11 3 -24q2 -14 2 -16q0 -17 -13.5 -29.5t-31.5 -12.5t-30.5 13
t-12.5 30q0 41 41 75q45 37 127 37q93 0 125 -58q19 -31 19 -102v-195q0 -33 6.5 -45.5t23.5 -12.5q21 0 44 19v-26zM287 123v145q-90 -33 -126 -64t-36 -75v-4q0 -32 18.5 -54.5t44.5 -22.5q35 0 73 22q16 10 21 20t5 33zM332 655h-43l-167 80q-32 13 -32 33q0 26 38 26
q21 0 46 -19zM398 506h-48l-125 79l-125 -79h-48l134 129h77z" />
    <glyph glyph-name="Acircumflexhookabove" unicode="&#x1ea8;" horiz-adv-x="722" 
d="M706 0h-255v19q41 0 56 9q14 7 14 24q0 24 -19 68l-41 96h-262l-46 -117q-8 -21 -8 -39q0 -41 68 -41v-19h-198v19q36 2 56 28.5t68 135.5l208 491h20l249 -568q26 -56 41 -70.5t49 -16.5v-19zM447 257l-116 275l-115 -275h231zM531 972q0 -22 -46 -49q-41 -23 -45 -32
q-8 -10 -11 -24h-25q1 30 36 63q25 24 25 39q0 34 -55 34q-27 0 -39 -8q-6 -4 -6 -6t9 -11t9 -12q0 -17 -30 -17q-37 0 -37 26q0 20 29.5 32.5t76.5 12.5q56 0 87 -18q22 -15 22 -30zM531 718h-48l-125 79l-125 -79h-48l134 129h77z" />
    </font>
</defs>
</svg>
